<svg id="Capa_1" enable-background="new 0 0 512 512" height="512" viewBox="0 0 512 512" width="512" xmlns="http://www.w3.org/2000/svg" xmlns:xlink="http://www.w3.org/1999/xlink"><linearGradient id="SVGID_1_" gradientUnits="userSpaceOnUse" x1="250.691" x2="275.248" y1="175.406" y2="132.873"><stop offset="0" stop-color="#b096ed"/><stop offset=".2393" stop-color="#c4b1ef"/><stop offset=".5371" stop-color="#d8cdf1"/><stop offset=".8006" stop-color="#e4ddf3"/><stop offset="1" stop-color="#e8e3f3"/></linearGradient><linearGradient id="SVGID_2_" gradientUnits="userSpaceOnUse" x1="383.177" x2="175.009" y1="442.618" y2="82.059"><stop offset="0" stop-color="#b096ed"/><stop offset=".0014" stop-color="#b096ed"/><stop offset=".299" stop-color="#cdbcf3"/><stop offset=".5742" stop-color="#e2d7f7"/><stop offset=".8165" stop-color="#efe8f9"/><stop offset="1" stop-color="#f3eefa"/></linearGradient><linearGradient id="SVGID_3_" gradientUnits="userSpaceOnUse" x1="281.181" x2="281.181" y1="46.956" y2="488.393"><stop offset="0" stop-color="#45356d"/><stop offset=".2699" stop-color="#544081"/><stop offset="1" stop-color="#7e62c0"/></linearGradient><linearGradient id="lg1"><stop offset=".0331" stop-color="#006568"/><stop offset=".1699" stop-color="#036a6c"/><stop offset=".3264" stop-color="#0d7878"/><stop offset=".4925" stop-color="#1d8e8b"/><stop offset=".6654" stop-color="#34aea7"/><stop offset=".8417" stop-color="#50d7ca"/><stop offset=".9316" stop-color="#61efde"/></linearGradient><linearGradient id="SVGID_4_" gradientUnits="userSpaceOnUse" x1="308.225" x2="339.13" xlink:href="#lg1" y1="273.608" y2="220.078"/><linearGradient id="SVGID_5_" gradientUnits="userSpaceOnUse" x1="333.135" x2="320.714" xlink:href="#lg1" y1="248.685" y2="270.198"/><linearGradient id="lg2"><stop offset="0" stop-color="#00daac"/><stop offset=".0605" stop-color="#09dcb1"/><stop offset=".3404" stop-color="#2fe4c4"/><stop offset=".5994" stop-color="#4aead2"/><stop offset=".8274" stop-color="#5beedb"/><stop offset="1" stop-color="#61efde"/></linearGradient><linearGradient id="SVGID_6_" gradientUnits="userSpaceOnUse" x1="358.679" x2="315.955" xlink:href="#lg2" y1="427.046" y2="175.759"/><linearGradient id="SVGID_7_" gradientUnits="userSpaceOnUse" x1="265.465" x2="293.776" xlink:href="#lg1" y1="296.532" y2="247.496"/><linearGradient id="SVGID_8_" gradientUnits="userSpaceOnUse" x1="289.315" x2="279.086" xlink:href="#lg1" y1="285.231" y2="302.948"/><linearGradient id="SVGID_9_" gradientUnits="userSpaceOnUse" x1="310.421" x2="267.697" xlink:href="#lg2" y1="435.25" y2="183.963"/><linearGradient id="SVGID_10_" gradientUnits="userSpaceOnUse" x1="233.36" x2="242.258" y1="297.53" y2="282.118"><stop offset=".0331" stop-color="#006568"/><stop offset=".1568" stop-color="#188886"/><stop offset=".3148" stop-color="#32ada5"/><stop offset=".4729" stop-color="#47cabe"/><stop offset=".6293" stop-color="#55ded0"/><stop offset=".7832" stop-color="#5eebda"/><stop offset=".9316" stop-color="#61efde"/></linearGradient><linearGradient id="SVGID_11_" gradientUnits="userSpaceOnUse" x1="234.733" x2="215.522" xlink:href="#lg1" y1="310.085" y2="343.359"/><linearGradient id="SVGID_12_" gradientUnits="userSpaceOnUse" x1="233.288" x2="224.636" y1="295.457" y2="311.613"><stop offset="0" stop-color="#006568"/><stop offset="1" stop-color="#00878a"/></linearGradient><linearGradient id="SVGID_13_" gradientUnits="userSpaceOnUse" x1="263.647" x2="220.923" xlink:href="#lg2" y1="443.203" y2="191.916"/><linearGradient id="SVGID_14_" gradientUnits="userSpaceOnUse" x1="345.461" x2="358.874" xlink:href="#lg1" y1="211.388" y2="188.156"/><linearGradient id="SVGID_15_" gradientUnits="userSpaceOnUse" x1="362.181" x2="353.163" xlink:href="#lg1" y1="198.734" y2="214.355"/><linearGradient id="SVGID_16_" gradientUnits="userSpaceOnUse" x1="394.828" x2="352.105" xlink:href="#lg2" y1="420.899" y2="169.613"/><g><path d="m368.625 21.716-33.159-19.176-.009.013c-4.552-2.987-10.635-3.604-16.022-.493l-149.195 85.969c-11.8 6.812-19.069 19.403-19.069 33.028v355.723c0 5.626 2.928 10.221 7.083 12.863l35.835 20.742z" fill="url(#SVGID_1_)"/><path d="m185.59 496.699v-355.723c0-13.625 7.269-26.215 19.069-33.028l149.195-85.97c10.185-5.881 22.917 1.47 22.917 13.231v355.723c0 13.625-7.269 26.215-19.069 33.028l-149.195 85.97c-10.185 5.881-22.917-1.47-22.917-13.231z" fill="url(#SVGID_2_)"/><path d="m352.825 41.811-23.01 13.259c0 8.417-4.49 16.194-11.779 20.402l-70.069 40.454c-5.276 3.046-11.87-.762-11.87-6.853l-23.114 13.319c-6.608 3.815-10.721 10.939-10.721 18.584v344.917c0 3.734 4.04 6.068 7.275 4.204l139.843-80.581c6.608-3.816 10.721-10.939 10.721-18.583v-344.918c-.001-3.734-4.041-6.068-7.276-4.204z" fill="url(#SVGID_3_)"/><path d="m424.659 208.516 13.03 1.276c3.306.322 6.237-2.09 6.56-5.39s-2.09-6.237-5.389-6.561l-32.16-3.15c-.106-.014-.212-.023-.319-.031l-7.43-.728 3.633 28.936c.381 3.036 2.967 5.256 5.949 5.256.249 0 .501-.015.755-.047 3.29-.413 5.622-3.415 5.209-6.705l-.862-6.867c15.155 14.024 22.698 30.441 21.94 48.082-1.195 27.823-23.45 56.232-61.057 77.945-75.72 43.717-190.492 48.586-255.845 10.854-24.628-14.219-39.095-32.656-41.838-53.318-2.716-20.458 6.124-41.593 25.565-61.118 2.339-2.35 2.331-6.151-.018-8.49-2.351-2.34-6.152-2.332-8.491.018-21.854 21.948-32.138 47.224-28.959 71.17 3.252 24.497 19.759 45.984 47.737 62.136 30.385 17.543 71.366 26.969 116.555 26.969 4.534 0 9.115-.095 13.727-.286 50.408-2.089 99.265-15.42 137.571-37.536 20.808-12.013 37.216-25.833 48.771-41.078 11.445-15.1 17.596-30.829 18.28-46.75.851-19.827-7.181-38.715-22.914-54.587z" fill="#45356d"/><g><path d="m331.005 213.726s-.005.003-.012.006c-3.586-1.967-8.203-1.451-13.458 1.584-12.463 7.195-21.355 24.365-21.355 45.203 0 11.906 2.906 19.254 7.719 22.031 0 .003-.001.008-.001.008l12.208 7.058s20.504-.893 22.783-22.714 4.371-46.083 4.371-46.083z" fill="url(#SVGID_4_)"/><path d="m334.831 251.97c0-12.126-2.291-14.576-5.389-12.787-3.099 1.789-5.389 6.884-5.389 19.01s2.29 14.576 5.389 12.787c3.098-1.79 5.389-6.884 5.389-19.01z" fill="url(#SVGID_5_)"/><path d="m308.087 267.41c0-20.838 8.892-38.008 21.355-45.203 12.462-7.195 21.354-.293 21.354 20.545s-8.892 38.008-21.354 45.203c-12.463 7.196-21.355.294-21.355-20.545zm26.744-15.44c0-12.126-2.291-14.576-5.389-12.787-3.099 1.789-5.389 6.884-5.389 19.01s2.29 14.576 5.389 12.787c3.098-1.79 5.389-6.884 5.389-19.01z" fill="url(#SVGID_6_)"/><path d="m288.452 261.04 11.427-17.968-11.955-6.924c-1.259-.815-2.875-1.1-4.509-.52-1.812.643-3.71 1.529-5.624 2.634-15.561 8.984-26.138 27.935-26.138 49.941 0 10.675 2.472 17.157 6.729 19.846v.012l.187.108c.077.046.154.091.232.134l11.462 6.633s22.188-9.061 23.156-18.479 6.909-28.543 6.909-28.543z" fill="url(#SVGID_7_)"/><path d="m289.966 289.729c0-3.952-2.021-5.3-4.85-3.667-2.829 1.634-4.85 5.315-4.85 9.267s2.021 5.211 4.85 3.577c2.829-1.633 4.85-5.225 4.85-9.177z" fill="url(#SVGID_8_)"/><path d="m305.325 279.873c0 13.473-8.488 26.906-19.132 33.052-13.473 7.779-22.635 2.739-22.635-17.83 0-22.006 10.576-40.957 26.138-49.941 1.914-1.105 3.812-1.99 5.624-2.634 4.035-1.432 7.96 2.407 6.671 6.49-1.612 5.102-5.347 9.219-10.202 11.468-.58.269-1.165.578-1.755.919-5.389 3.112-9.162 8.972-10.24 16.6 2.358-3.607 5.389-6.614 9.364-8.909 8.622-4.979 16.167-1.52 16.167 10.785zm-15.359 9.856c0-3.952-2.021-5.3-4.85-3.667-2.829 1.634-4.85 5.315-4.85 9.267s2.021 5.211 4.85 3.577c2.829-1.633 4.85-5.225 4.85-9.177z" fill="url(#SVGID_9_)"/><path d="m245.398 290.192c3.819-9.912 10.065-21.204 10.065-21.204l-12.055-6.982c-1.238-.718-2.831-.822-4.247-.004l-22.379 12.921c-3.975 2.295-6.424 6.536-6.424 11.126 0 1.948 1.08 3.521 2.575 4.34l-.002.002 8.817 5.103c-.975 2.085-1.487 4.359-1.487 6.666v1.964c0 1.705.982 3.063 2.316 3.73l-.002.008 8.337 4.831c-1.086 1.742-2.829 3.31-4.925 4.521-2.058 1.188-4.297 2.095-6.539 2.582-3.981.863-7.18 3.815-8.306 7.729-.986 3.428.576 6.623 3.167 8.256l-.003.003.1.058c.09.055.181.108.274.159l11.818 6.846s27.542-14.992 25.154-26.454c-.954-4.583-4.481-24.203-6.254-26.201z" fill="url(#SVGID_10_)"/><path d="m246.334 312.28c-1.225-3.471-15.421.413-15.421.413-1.086 1.742-2.829 3.31-4.925 4.521-2.058 1.188-4.297 2.095-6.539 2.582-3.981.863-7.18 3.815-8.306 7.729-.986 3.428.576 6.623 3.167 8.257l-.003.003.1.058c.09.055.181.107.274.158l11.818 6.846c0-.001 21.06-27.096 19.835-30.567z" fill="url(#SVGID_11_)"/><path d="m220.261 304.124c0 1.705.982 3.063 2.316 3.73l-.002.008 8.337 4.831 3.563 2.057 6.295-25.082-15.889 7.634-3.132-1.808c-.975 2.085-1.487 4.359-1.487 6.666v1.964z" fill="url(#SVGID_12_)"/><path d="m259.989 306.497c0 10.778-6.467 25.291-21.557 34.003-1.792 1.035-3.631 1.951-5.46 2.718-5.699 2.388-11.631-2.864-9.923-8.802 1.126-3.915 4.325-6.866 8.306-7.729 2.242-.486 4.481-1.393 6.539-2.582 3.57-2.061 6.13-5.156 6.13-8.39 0-2.695-1.549-3.417-5.591-1.083-2.784 1.607-6.265-.402-6.265-3.617v-1.964c0-2.514.602-4.992 1.756-7.226l5.183-10.038-9.419 5.438c-3.299 1.905-7.422-.476-7.422-4.285 0-4.59 2.449-8.831 6.424-11.126l22.379-12.921c2.827-1.632 6.361.408 6.361 3.673 0 3.731-.895 7.408-2.611 10.721l-6.146 11.87c7.409-1.853 11.316 2.628 11.316 11.34z" fill="url(#SVGID_13_)"/><path d="m364.82 191.068s-12.019-6.944-12.019-6.944c-1.78-.87-4.034-.708-6.485.707-5.736 3.312-10.403 12.228-10.403 19.877 0 4.257 1.447 7.234 3.717 8.47 0 0 12.012 6.95 12.012 6.95s11.755-4.42 12.725-14.271c.971-9.853.453-14.789.453-14.789z" fill="url(#SVGID_14_)"/><path d="m358.222 199.659c-2.454 1.417-4.45 5.231-4.45 8.502 0 3.272 1.996 4.781 4.45 3.364s4.45-5.231 4.45-8.503c0-3.27-1.996-4.78-4.45-3.363z" fill="url(#SVGID_15_)"/><g><path d="m358.222 219.463c-5.736 3.312-10.403-.216-10.403-7.864s4.667-16.565 10.403-19.877 10.403.216 10.403 7.864-4.667 16.565-10.403 19.877zm0-19.804c-2.454 1.417-4.45 5.231-4.45 8.502 0 3.272 1.996 4.781 4.45 3.364s4.45-5.231 4.45-8.503c0-3.27-1.996-4.78-4.45-3.363z" fill="url(#SVGID_16_)"/></g></g></g></svg>