<svg id="Capa_1" enable-background="new 0 0 512 512" height="512" viewBox="0 0 512 512" width="512" xmlns="http://www.w3.org/2000/svg" xmlns:xlink="http://www.w3.org/1999/xlink"><linearGradient id="lg1"><stop offset="0" stop-color="#d7d1eb"/><stop offset="1" stop-color="#f2effa"/></linearGradient><linearGradient id="SVGID_1_" gradientTransform="matrix(-1 0 0 1 672.079 0)" gradientUnits="userSpaceOnUse" x1="340.825" x2="340.825" xlink:href="#lg1" y1="145.958" y2="120.487"/><linearGradient id="SVGID_00000086652907284531487400000016987598917079129005_" gradientTransform="matrix(-.866 .5 0 1.155 662.395 -81.946)" gradientUnits="userSpaceOnUse" x1="368.068" x2="368.068" xlink:href="#lg1" y1="36.678" y2="20.115"/><linearGradient id="SVGID_00000153699738383294807320000009678232631877505937_" gradientTransform="matrix(-1 0 0 1 672.079 0)" gradientUnits="userSpaceOnUse" x1="292.034" x2="292.034" xlink:href="#lg1" y1="174.072" y2="148.601"/><linearGradient id="SVGID_00000049185358196546469450000011121741769430585755_" gradientTransform="matrix(-.866 .5 0 1.155 662.395 -81.946)" gradientUnits="userSpaceOnUse" x1="311.727" x2="311.727" xlink:href="#lg1" y1="85.422" y2="68.86"/><linearGradient id="SVGID_00000089542519427516186650000010104488687654557881_" gradientTransform="matrix(-1 0 0 1 672.079 0)" gradientUnits="userSpaceOnUse" x1="243.242" x2="243.242" xlink:href="#lg1" y1="202.187" y2="176.716"/><linearGradient id="SVGID_00000113330125021259742370000018341966834312094367_" gradientTransform="matrix(-.866 .5 0 1.155 662.395 -81.946)" gradientUnits="userSpaceOnUse" x1="255.385" x2="255.385" xlink:href="#lg1" y1="134.167" y2="117.604"/><linearGradient id="SVGID_00000089538801485093788230000016401491217387969939_" gradientTransform="matrix(-1 0 0 1 672.079 0)" gradientUnits="userSpaceOnUse" x1="194.45" x2="194.45" xlink:href="#lg1" y1="230.301" y2="204.83"/><linearGradient id="SVGID_00000034791873351758643480000017258455842920058257_" gradientTransform="matrix(-.866 .5 0 1.155 662.395 -81.946)" gradientUnits="userSpaceOnUse" x1="199.043" x2="199.043" xlink:href="#lg1" y1="182.911" y2="166.348"/><linearGradient id="SVGID_00000040539638267759722120000011638954113222433670_" gradientUnits="userSpaceOnUse" x1="37.405" x2="37.405" xlink:href="#lg1" y1="254.352" y2="226.795"/><linearGradient id="SVGID_00000112634921674497593830000011565057870737993901_" gradientTransform="matrix(.866 .5 0 1.155 9.684 -81.946)" gradientUnits="userSpaceOnUse" x1="17.698" x2="17.698" xlink:href="#lg1" y1="281.033" y2="264.47"/><linearGradient id="SVGID_00000164511495846567652890000003379675116766937760_" gradientUnits="userSpaceOnUse" x1="93.743" x2="93.743" xlink:href="#lg1" y1="221.837" y2="194.28"/><linearGradient id="SVGID_00000073679407676761420280000005883997694166354342_" gradientTransform="matrix(.866 .5 0 1.155 9.684 -81.946)" gradientUnits="userSpaceOnUse" x1="82.754" x2="82.754" xlink:href="#lg1" y1="224.704" y2="208.141"/><linearGradient id="SVGID_00000092448801811415850850000009780236285445444026_" gradientUnits="userSpaceOnUse" x1="150.083" x2="150.083" xlink:href="#lg1" y1="189.171" y2="161.614"/><linearGradient id="SVGID_00000006695847754670223680000014754266924512328627_" gradientTransform="matrix(.866 .5 0 1.155 9.684 -81.946)" gradientUnits="userSpaceOnUse" x1="147.812" x2="147.812" xlink:href="#lg1" y1="168.243" y2="151.68"/><linearGradient id="SVGID_00000059997640735077043960000006831465747445533631_" gradientUnits="userSpaceOnUse" x1="206.423" x2="206.423" xlink:href="#lg1" y1="156.639" y2="129.081"/><linearGradient id="SVGID_00000129164611928399245560000008705048354392675768_" gradientTransform="matrix(.866 .5 0 1.155 9.684 -81.946)" gradientUnits="userSpaceOnUse" x1="212.87" x2="212.87" xlink:href="#lg1" y1="111.898" y2="95.336"/><linearGradient id="lg2"><stop offset="0" stop-color="#221c36"/><stop offset="1" stop-color="#43386b"/></linearGradient><linearGradient id="SVGID_00000158008373343702023770000010794955065137281447_" gradientUnits="userSpaceOnUse" x1="221.419" x2="258.461" xlink:href="#lg2" y1="308.091" y2="308.091"/><linearGradient id="SVGID_00000003800366381658539430000005688208696680223677_" gradientTransform="matrix(.866 .5 -1 .577 283.767 -27.129)" gradientUnits="userSpaceOnUse" x1="107.159" x2="376.479" y1="236.001" y2="236.001"><stop offset="0" stop-color="#43386b"/><stop offset="1" stop-color="#594a8e"/></linearGradient><linearGradient id="lg3"><stop offset="0" stop-color="#f2effa"/><stop offset=".0915" stop-color="#eae7f6"/><stop offset=".3195" stop-color="#dcd7ee"/><stop offset=".4975" stop-color="#d7d1eb"/><stop offset="1" stop-color="#f2effa"/></linearGradient><linearGradient id="SVGID_00000145777147268343135540000015413914892745922977_" gradientUnits="userSpaceOnUse" x1="185.879" x2="167.638" xlink:href="#lg3" y1="368.352" y2="399.947"/><linearGradient id="SVGID_00000070095120604330131520000011932117980967176325_" gradientUnits="userSpaceOnUse" x1="188.346" x2="188.346" xlink:href="#lg1" y1="414.992" y2="383.831"/><linearGradient id="SVGID_00000101813433629459980390000006373338989968982152_" gradientUnits="userSpaceOnUse" x1="137.106" x2="118.865" xlink:href="#lg3" y1="340.131" y2="371.726"/><linearGradient id="SVGID_00000147216880598853269770000004664835230892775833_" gradientUnits="userSpaceOnUse" x1="139.573" x2="139.573" xlink:href="#lg1" y1="386.77" y2="355.61"/><linearGradient id="SVGID_00000095319975155825277140000010365988548411891595_" gradientUnits="userSpaceOnUse" x1="88.333" x2="70.092" xlink:href="#lg3" y1="311.91" y2="343.505"/><linearGradient id="SVGID_00000175317691434630721430000016511348556880609701_" gradientUnits="userSpaceOnUse" x1="90.8" x2="90.8" xlink:href="#lg1" y1="358.549" y2="327.389"/><linearGradient id="SVGID_00000046318703393891620950000004289020809345355161_" gradientUnits="userSpaceOnUse" x1="39.56" x2="21.319" xlink:href="#lg3" y1="283.689" y2="315.283"/><linearGradient id="SVGID_00000154388237441419151760000014241723537013430969_" gradientUnits="userSpaceOnUse" x1="42.027" x2="42.027" xlink:href="#lg1" y1="330.328" y2="299.168"/><linearGradient id="SVGID_00000005945212735780444940000001200094894893908670_" gradientTransform="matrix(-1 0 0 1 258.344 0)" gradientUnits="userSpaceOnUse" x1="-37.802" x2="-56.043" xlink:href="#lg3" y1="366.267" y2="397.861"/><linearGradient id="SVGID_00000000932547526002874630000015507153603009395638_" gradientTransform="matrix(-1 0 0 1 258.344 0)" gradientUnits="userSpaceOnUse" x1="-35.335" x2="-35.335" xlink:href="#lg1" y1="412.906" y2="381.746"/><linearGradient id="SVGID_00000149359874057464381070000002260128943664578985_" gradientTransform="matrix(-1 0 0 1 258.344 0)" gradientUnits="userSpaceOnUse" x1="-94.159" x2="-112.4" xlink:href="#lg3" y1="333.678" y2="365.272"/><linearGradient id="SVGID_00000089572475328805530140000006096635778152523692_" gradientTransform="matrix(-1 0 0 1 258.344 0)" gradientUnits="userSpaceOnUse" x1="-91.692" x2="-91.692" xlink:href="#lg1" y1="380.317" y2="349.157"/><linearGradient id="SVGID_00000131362746752738009580000004023105643568892308_" gradientTransform="matrix(-1 0 0 1 258.344 0)" gradientUnits="userSpaceOnUse" x1="-150.499" x2="-168.74" xlink:href="#lg3" y1="301.13" y2="332.725"/><linearGradient id="SVGID_00000020394750635243575310000001635009241756498857_" gradientTransform="matrix(-1 0 0 1 258.344 0)" gradientUnits="userSpaceOnUse" x1="-148.032" x2="-148.032" xlink:href="#lg1" y1="347.769" y2="316.609"/><linearGradient id="SVGID_00000119118196561683952170000017526319112215724466_" gradientTransform="matrix(-1 0 0 1 258.344 0)" gradientUnits="userSpaceOnUse" x1="-206.839" x2="-225.08" xlink:href="#lg3" y1="268.625" y2="300.219"/><linearGradient id="SVGID_00000026882781852195311330000018222285559619359366_" gradientTransform="matrix(-1 0 0 1 258.344 0)" gradientUnits="userSpaceOnUse" x1="-204.372" x2="-204.372" xlink:href="#lg1" y1="315.264" y2="284.104"/><linearGradient id="SVGID_00000148623858259279758450000010352091332167063968_" gradientUnits="userSpaceOnUse" x1="154.994" x2="78.775" xlink:href="#lg2" y1="267.905" y2="223.9"/><linearGradient id="SVGID_00000072245513727850021700000003627483126570911885_" gradientUnits="userSpaceOnUse" x1="109.836" x2="71.982" xlink:href="#lg2" y1="229.864" y2="251.719"/><g><g><g><path d="m303.477 110.215c4.245-2.457 7.68-2.915 10.05-1.53l12.838 7.407 14.471-8.489 24.788 14.308-32.359 28.065-24.42-14.122.015-.016c-2.213-.989-3.458-3.692-3.458-8 0-3.724-2.005-4.876-5.232-3.008l-3.286 1.9v-12.702z" fill="url(#SVGID_1_)"/><path d="m328.265 124.523c8.451-4.892 13.7-1.873 13.7 7.878 0 2.057 1.109 2.69 2.893 1.652l20.766-12.142v12.71l-24.041 14.029c-7.027 4.088-11.393 1.597-11.393-6.503 0-3.724-2.005-4.876-5.232-3.008l-3.286 1.9v-12.702z" fill="url(#SVGID_00000086652907284531487400000016987598917079129005_)"/></g><g><path d="m352.269 138.329c4.245-2.457 7.68-2.915 10.05-1.53l12.838 7.407 14.471-8.489 24.788 14.308-32.359 28.065-24.42-14.122.015-.016c-2.213-.989-3.458-3.692-3.458-8 0-3.724-2.005-4.876-5.232-3.008l-3.286 1.9v-12.702z" fill="url(#SVGID_00000153699738383294807320000009678232631877505937_)"/><path d="m377.057 152.637c8.45-4.892 13.7-1.873 13.7 7.878 0 2.057 1.109 2.69 2.893 1.652l20.766-12.141v12.71l-24.041 14.029c-7.027 4.088-11.393 1.597-11.393-6.503 0-3.724-2.005-4.876-5.232-3.008l-3.286 1.9v-12.702z" fill="url(#SVGID_00000049185358196546469450000011121741769430585755_)"/></g><g><path d="m401.061 166.443c4.245-2.457 7.68-2.915 10.05-1.53l12.838 7.407 14.471-8.489 24.788 14.308-32.359 28.065-24.42-14.122.015-.016c-2.213-.989-3.458-3.692-3.458-8 0-3.724-2.005-4.876-5.232-3.008l-3.286 1.9v-12.702z" fill="url(#SVGID_00000089542519427516186650000010104488687654557881_)"/><path d="m425.849 180.751c8.45-4.892 13.7-1.873 13.7 7.878 0 2.057 1.109 2.69 2.893 1.652l20.766-12.142v12.71l-24.041 14.029c-7.027 4.088-11.393 1.597-11.393-6.503 0-3.724-2.005-4.876-5.232-3.008l-3.286 1.9v-12.702z" fill="url(#SVGID_00000113330125021259742370000018341966834312094367_)"/></g><g><path d="m449.853 194.557c4.245-2.457 7.68-2.915 10.05-1.53l12.838 7.407 14.47-8.489 24.789 14.308-32.359 28.065-24.42-14.122.015-.016c-2.213-.989-3.458-3.692-3.458-8 0-3.724-2.005-4.876-5.232-3.008l-3.286 1.9v-12.702z" fill="url(#SVGID_00000089538801485093788230000016401491217387969939_)"/><path d="m474.641 208.866c8.451-4.892 13.7-1.873 13.7 7.878 0 2.057 1.109 2.69 2.893 1.652l20.766-12.143v12.71l-24.041 14.029c-7.027 4.088-11.393 1.597-11.393-6.502 0-3.724-2.005-4.876-5.232-3.008l-3.286 1.9v-12.702z" fill="url(#SVGID_00000034791873351758643480000017258455842920058257_)"/></g></g><g><g><path d="m68.215 218.937c-4.245-2.457-7.68-2.916-10.05-1.53l-12.838 7.407-20.539-11.959-24.788 14.308 38.427 31.536 24.42-14.122-.015-.016c2.213-.989 3.458-3.692 3.458-8 0-3.724 2.005-4.876 5.232-3.008l3.286 1.9v-12.702z" fill="url(#SVGID_00000040539638267759722120000011638954113222433670_)"/><path d="m43.427 233.246c-8.45-4.892-13.7-1.873-13.7 7.878 0 2.057-1.109 2.69-2.893 1.652l-26.834-15.613v12.71l30.11 17.499c7.027 4.088 11.393 1.597 11.393-6.502 0-3.724 2.005-4.876 5.232-3.008l3.286 1.9v-12.702z" fill="url(#SVGID_00000112634921674497593830000011565057870737993901_)"/></g><g><path d="m124.554 186.422c-4.245-2.457-7.68-2.915-10.05-1.53l-12.838 7.407-20.539-11.959-24.788 14.308 38.427 31.536 24.42-14.122-.015-.016c2.213-.989 3.458-3.692 3.458-8 0-3.724 2.005-4.876 5.232-3.008l3.286 1.9v-12.702z" fill="url(#SVGID_00000164511495846567652890000003379675116766937760_)"/><path d="m99.766 200.73c-8.45-4.892-13.7-1.873-13.7 7.878 0 2.057-1.109 2.69-2.893 1.652l-26.834-15.612v12.71l30.11 17.499c7.027 4.088 11.393 1.597 11.393-6.503 0-3.724 2.005-4.876 5.232-3.008l3.286 1.9v-12.702z" fill="url(#SVGID_00000073679407676761420280000005883997694166354342_)"/></g><g><path d="m180.894 153.756c-4.245-2.457-7.68-2.915-10.05-1.53l-12.838 7.407-20.539-11.959-24.788 14.308 38.427 31.536 24.42-14.122-.015-.016c2.213-.989 3.458-3.692 3.458-8 0-3.724 2.005-4.876 5.232-3.008l3.286 1.9v-12.702z" fill="url(#SVGID_00000092448801811415850850000009780236285445444026_)"/><path d="m156.106 168.064c-8.45-4.892-13.7-1.873-13.7 7.878 0 2.057-1.109 2.69-2.893 1.652l-26.834-15.612v12.71l30.11 17.499c7.027 4.088 11.393 1.597 11.393-6.503 0-3.724 2.005-4.876 5.232-3.008l3.286 1.9v-12.702z" fill="url(#SVGID_00000006695847754670223680000014754266924512328627_)"/></g><g><path d="m237.234 121.224c-4.245-2.457-7.68-2.915-10.05-1.53l-12.838 7.407-20.539-11.959-24.788 14.308 38.427 31.536 24.42-14.122-.015-.016c2.213-.989 3.458-3.692 3.458-8 0-3.724 2.005-4.876 5.232-3.008l3.286 1.9v-12.702z" fill="url(#SVGID_00000059997640735077043960000006831465747445533631_)"/><path d="m212.446 135.532c-8.451-4.892-13.7-1.873-13.7 7.878 0 2.057-1.109 2.69-2.893 1.652l-26.834-15.612v12.71l30.11 17.499c7.027 4.088 11.393 1.597 11.393-6.503 0-3.724 2.005-4.876 5.232-3.008l3.286 1.9v-12.702z" fill="url(#SVGID_00000129164611928399245560000008705048354392675768_)"/></g></g><path d="m496.118 218.763-477.873 22.09.001 29.761c.002 3.977 2.403 7.773 7.317 10.61l193.931 111.966c10.851 6.265 29.804 5.479 42.334-1.755l223.932-129.287c6.899-3.983 10.404-9.09 10.356-13.922z" fill="url(#SVGID_00000158008373343702023770000010794955065137281447_)"/><path d="m488.799 208.289-193.931-111.966c-10.851-6.265-29.804-5.479-42.334 1.755l-223.932 129.287c-12.53 7.234-13.89 18.177-3.04 24.441l193.931 111.966c10.851 6.265 29.804 5.479 42.334-1.755l223.933-129.287c12.529-7.234 13.89-18.177 3.039-24.441z" fill="url(#SVGID_00000003800366381658539430000005688208696680223677_)"/><path d="m181.478 248.711 130.293-75.225 14.817 8.555-130.293 75.224z" fill="#a996eb"/><path d="m289.044 226.303-9.254-5.343-73.157 42.238 9.254 5.343z" fill="#a996eb"/><g><g><path d="m184.732 355.961-6.594 3.799c-8.45 4.866-13.7 13.946-13.7 23.697 0 2.057-1.109 3.97-2.893 4.992l-11.556 6.639v12.71l20.986 12.108 14.46-15.358 20.283-36.48z" fill="url(#SVGID_00000145777147268343135540000015413914892745922977_)"/><path d="m149.989 395.089 21.219 12.243-.233 12.575-20.986-12.108z" fill="#d7d1eb"/><path d="m205.717 368.069-6.594 3.8c-8.45 4.866-13.7 13.946-13.7 23.697 0 2.057-1.109 3.97-2.893 4.992l-11.556 6.639v12.71l14.831-8.534c7.027-4.026 11.393-11.559 11.393-19.658 0-3.724 2.005-7.191 5.232-9.05l3.286-1.894v-12.702z" fill="url(#SVGID_00000070095120604330131520000011932117980967176325_)"/></g><g><path d="m135.959 327.74-6.594 3.799c-8.45 4.866-13.7 13.946-13.7 23.697 0 2.057-1.109 3.97-2.893 4.992l-11.556 6.639v12.71l20.986 12.108 14.46-15.358 20.283-36.48z" fill="url(#SVGID_00000101813433629459980390000006373338989968982152_)"/><path d="m101.216 366.868 21.219 12.242-.233 12.576-20.986-12.108z" fill="#d7d1eb"/><path d="m156.944 339.848-6.594 3.8c-8.45 4.866-13.7 13.946-13.7 23.697 0 2.057-1.109 3.97-2.893 4.992l-11.556 6.639v12.71l14.831-8.534c7.027-4.026 11.393-11.559 11.393-19.658 0-3.724 2.005-7.191 5.232-9.05l3.286-1.894v-12.702z" fill="url(#SVGID_00000147216880598853269770000004664835230892775833_)"/></g><g><path d="m87.185 299.519-6.594 3.799c-8.45 4.866-13.7 13.946-13.7 23.697 0 2.057-1.109 3.97-2.893 4.992l-11.556 6.639v12.71l20.985 12.108 14.46-15.358 20.283-36.48z" fill="url(#SVGID_00000095319975155825277140000010365988548411891595_)"/><path d="m52.443 338.647 21.219 12.242-.233 12.576-20.986-12.108z" fill="#d7d1eb"/><path d="m108.171 311.627-6.594 3.799c-8.45 4.866-13.7 13.946-13.7 23.697 0 2.057-1.109 3.97-2.893 4.992l-11.556 6.639v12.71l14.831-8.534c7.027-4.026 11.393-11.559 11.393-19.658 0-3.724 2.005-7.191 5.232-9.05l3.286-1.894v-12.701z" fill="url(#SVGID_00000175317691434630721430000016511348556880609701_)"/></g><g><path d="m38.412 271.298-6.594 3.799c-8.45 4.866-13.7 13.946-13.7 23.697 0 2.057-1.109 3.97-2.893 4.992l-11.555 6.639v12.71l20.986 12.108 14.46-15.358 20.283-36.48z" fill="url(#SVGID_00000046318703393891620950000004289020809345355161_)"/><path d="m3.67 310.425 21.219 12.243-.233 12.576-20.986-12.109z" fill="#d7d1eb"/><path d="m59.398 283.406-6.594 3.8c-8.45 4.866-13.7 13.946-13.7 23.697 0 2.057-1.109 3.97-2.893 4.992l-11.556 6.639v12.71l14.831-8.534c7.027-4.026 11.393-11.559 11.393-19.658 0-3.724 2.005-7.191 5.232-9.05l3.286-1.894v-12.702z" fill="url(#SVGID_00000154388237441419151760000014241723537013430969_)"/></g></g><g><g><path d="m297.294 353.875 6.594 3.799c8.45 4.866 13.7 13.946 13.7 23.697 0 2.057 1.109 3.97 2.893 4.992l11.556 6.639v12.71l-20.986 12.108-14.46-15.358-20.283-36.48z" fill="url(#SVGID_00000005945212735780444940000001200094894893908670_)"/><path d="m332.036 393.003-21.219 12.243.234 12.575 20.985-12.108z" fill="#d7d1eb"/><path d="m276.309 365.983 6.594 3.799c8.45 4.866 13.7 13.946 13.7 23.697 0 2.057 1.109 3.97 2.893 4.992l11.556 6.639v12.71l-14.831-8.534c-7.027-4.026-11.393-11.559-11.393-19.658 0-3.724-2.005-7.191-5.232-9.05l-3.286-1.894v-12.701z" fill="url(#SVGID_00000000932547526002874630000015507153603009395638_)"/></g><g><path d="m353.651 321.286 6.594 3.799c8.45 4.866 13.7 13.946 13.7 23.697 0 2.057 1.109 3.97 2.893 4.992l11.556 6.639v12.71l-20.986 12.108-14.46-15.358-20.283-36.48z" fill="url(#SVGID_00000149359874057464381070000002260128943664578985_)"/><path d="m388.393 360.414-21.219 12.243.234 12.575 20.985-12.108z" fill="#d7d1eb"/><path d="m332.666 333.394 6.594 3.799c8.45 4.866 13.7 13.946 13.7 23.697 0 2.057 1.109 3.97 2.893 4.992l11.556 6.639v12.71l-14.831-8.534c-7.027-4.026-11.393-11.559-11.393-19.658 0-3.724-2.005-7.191-5.232-9.05l-3.286-1.894v-12.701z" fill="url(#SVGID_00000089572475328805530140000006096635778152523692_)"/></g><g><path d="m409.991 288.739 6.594 3.799c8.451 4.866 13.7 13.946 13.7 23.697 0 2.057 1.109 3.97 2.893 4.992l11.556 6.639v12.71l-20.986 12.108-14.46-15.358-20.283-36.48z" fill="url(#SVGID_00000131362746752738009580000004023105643568892308_)"/><path d="m444.733 327.867-21.219 12.242.234 12.576 20.985-12.108z" fill="#d7d1eb"/><path d="m389.006 300.847 6.594 3.799c8.451 4.866 13.7 13.946 13.7 23.697 0 2.057 1.109 3.97 2.893 4.992l11.556 6.639v12.71l-14.831-8.534c-7.027-4.026-11.393-11.559-11.393-19.658 0-3.724-2.005-7.191-5.232-9.05l-3.286-1.894v-12.701z" fill="url(#SVGID_00000020394750635243575310000001635009241756498857_)"/></g><g><path d="m466.331 256.234 6.594 3.8c8.451 4.866 13.7 13.946 13.7 23.697 0 2.057 1.109 3.97 2.893 4.992l11.556 6.639v12.71l-20.986 12.108-14.46-15.358-20.283-36.48z" fill="url(#SVGID_00000119118196561683952170000017526319112215724466_)"/><path d="m501.074 295.361-21.22 12.243.234 12.576 20.986-12.109z" fill="#d7d1eb"/><path d="m445.346 268.342 6.594 3.799c8.451 4.866 13.7 13.946 13.7 23.697 0 2.057 1.109 3.97 2.893 4.992l11.556 6.639v12.71l-14.831-8.534c-7.027-4.026-11.393-11.559-11.393-19.658 0-3.724-2.005-7.191-5.232-9.05l-3.286-1.894v-12.701z" fill="url(#SVGID_00000026882781852195311330000018222285559619359366_)"/></g></g><path d="m118.533 246.855c10.938-6.315 12.126-15.867 2.653-21.336-9.472-5.469-26.018-4.783-36.955 1.532-10.938 6.315-12.125 15.867-2.653 21.336 9.472 5.468 26.018 4.782 36.955-1.532z" fill="url(#SVGID_00000148623858259279758450000010352091332167063968_)"/><path d="m84.231 232.317c10.938-6.315 27.483-7.001 36.955-1.532 3.204 1.85 5.184 4.168 5.984 6.669 1.335-4.401-.601-8.827-5.984-11.935-9.472-5.469-26.018-4.783-36.955 1.532-7.238 4.179-10.202 9.775-8.637 14.667 1.014-3.345 3.915-6.675 8.637-9.401z" fill="url(#SVGID_00000072245513727850021700000003627483126570911885_)"/></g></svg>