<svg id="Capa_1" enable-background="new 0 0 512 512" height="512" viewBox="0 0 512 512" width="512" xmlns="http://www.w3.org/2000/svg" xmlns:xlink="http://www.w3.org/1999/xlink"><linearGradient id="SVGID_1_" gradientUnits="userSpaceOnUse" x1="174.107" x2="306.144" y1="384.265" y2="155.571"><stop offset="0" stop-color="#802129"/><stop offset=".2999" stop-color="#ab2c37"/><stop offset="1" stop-color="#ff7a85"/></linearGradient><linearGradient id="SVGID_2_" gradientUnits="userSpaceOnUse" x1="288.052" x2="288.052" y1="626.109" y2="-175.92"><stop offset="0" stop-color="#ab2c37"/><stop offset="1" stop-color="#ff7a85"/></linearGradient><linearGradient id="SVGID_3_" gradientUnits="userSpaceOnUse" x1="288.052" x2="288.052" y1="294.268" y2="423.658"><stop offset=".0319" stop-color="#5d3645"/><stop offset="1" stop-color="#5d3645" stop-opacity="0"/></linearGradient><linearGradient id="SVGID_4_" gradientUnits="userSpaceOnUse" x1="257.981" x2="338.316" y1="313.078" y2="173.933"><stop offset="0" stop-color="#a996eb"/><stop offset=".39" stop-color="#c5baeb"/><stop offset="1" stop-color="#dfdaef"/></linearGradient><g><path d="m421.186 140.132c-2.738-45.97-19.855-78.604-45.436-93.673l.005-.018-67.411-38.921-.005.016c-21.031-10.847-47.322-10.328-75.878 3.797-77.609 38.389-142.052 157.62-142.052 259.714 0 38.112 9.01 68.197 24.305 88.329l70.261 104.175c2.055 3.044 4.433 5.354 7.003 7.152l63.635 36.807c1.398 1.027 2.862 1.871 4.387 2.537l.05.029.002-.007c20.585 8.926 51.753-14.312 66.972-54.45l70.262-185.307c17.153-42.388 26.403-88.166 23.9-130.18z" fill="url(#SVGID_1_)"/><path d="m397.285 270.312c17.154-42.388 26.403-88.166 23.901-130.18-5.045-84.702-58.843-124.267-124.621-91.73-77.608 38.389-142.052 157.62-142.052 259.713 0 38.113 9.011 68.197 24.305 88.33l70.262 104.175c18.294 27.124 59.65 3.247 77.943-45.001z" fill="url(#SVGID_2_)"/><path d="m373.488 181.765c0-62.913-38.251-91.831-85.436-64.588-47.185 27.242-85.436 100.328-85.436 163.241v43.438c0 62.914 38.251 91.831 85.436 64.588 47.185-27.242 85.436-100.328 85.436-163.242 0-7.428-.54-14.376-1.558-20.819 1.018-7.619 1.558-15.19 1.558-22.618z" fill="url(#SVGID_3_)"/><path d="m370.604 127.985.004-.007-25.426-14.679-.078.157c-15.135-9.416-35.093-9.034-57.052 3.644-47.185 27.243-85.436 100.329-85.436 163.242 0 32.092 9.991 55.267 26.004 66.725l-.027.058 1.316.758c1.671 1.111 3.383 2.131 5.175 2.989l19.967 11.528c15.336 10.672 36.098 10.7 58.978-2.509 47.185-27.242 85.436-100.328 85.436-163.241 0-33.975-11.168-58.008-28.861-68.665z" fill="url(#SVGID_4_)"/><ellipse cx="314.029" cy="245.976" fill="#fff" rx="131.16" ry="74.203" transform="matrix(.392 -.92 .92 .392 -35.266 438.62)"/></g></svg>