<svg id="Capa_1" enable-background="new 0 0 512 512" height="512" viewBox="0 0 512 512" width="512" xmlns="http://www.w3.org/2000/svg" xmlns:xlink="http://www.w3.org/1999/xlink"><linearGradient id="lg1"><stop offset="0" stop-color="#a996eb"/><stop offset="1" stop-color="#d7d1eb"/></linearGradient><linearGradient id="SVGID_1_" gradientUnits="userSpaceOnUse" x1="222.666" x2="257.193" xlink:href="#lg1" y1="422.098" y2="422.098"/><linearGradient id="SVGID_00000087382981504780039860000010822390488442316201_" gradientUnits="userSpaceOnUse" x1="166.542" x2="476.667" y1="311.463" y2="490.514"><stop offset="0" stop-color="#d7d1eb"/><stop offset="1" stop-color="#f2effa"/></linearGradient><linearGradient id="SVGID_00000095316865934290662140000008294557834347556028_" gradientUnits="userSpaceOnUse" x1="189.215" x2="222.304" xlink:href="#lg1" y1="304.025" y2="304.025"/><linearGradient id="lg2"><stop offset="0" stop-color="#221c36"/><stop offset="1" stop-color="#43386b"/></linearGradient><linearGradient id="SVGID_00000103971044786800213780000016976550101458440599_" gradientUnits="userSpaceOnUse" x1="222.666" x2="257.193" xlink:href="#lg2" y1="208.975" y2="208.975"/><linearGradient id="lg3"><stop offset="0" stop-color="#43386b"/><stop offset="1" stop-color="#594a8e"/></linearGradient><linearGradient id="SVGID_00000111160813169875821390000009935288937168924069_" gradientUnits="userSpaceOnUse" x1="166.542" x2="476.667" xlink:href="#lg3" y1="98.341" y2="277.392"/><linearGradient id="SVGID_00000166656273993097343520000002494557248183391639_" gradientUnits="userSpaceOnUse" x1="382.183" x2="444.333" y1="119.191" y2="119.191"><stop offset="0" stop-color="#ab2c37"/><stop offset="1" stop-color="#ff4757"/></linearGradient><linearGradient id="SVGID_00000005232268652327533020000001029153969286339510_" gradientUnits="userSpaceOnUse" x1="389.171" x2="445.171" y1="89.146" y2="121.477"><stop offset="0" stop-color="#ff4757"/><stop offset="1" stop-color="#ff7a85"/></linearGradient><linearGradient id="SVGID_00000118399181284720314220000004365026393895740836_" gradientUnits="userSpaceOnUse" x1="115.791" x2="145.144" xlink:href="#lg2" y1="143.436" y2="143.436"/><linearGradient id="SVGID_00000085933903867315836920000002875723295376293003_" gradientUnits="userSpaceOnUse" x1="178.311" x2="306.257" y1="188.975" y2="188.975"><stop offset="0" stop-color="#221c36" stop-opacity="0"/><stop offset=".5" stop-color="#221c36"/><stop offset=".9333" stop-color="#221c36" stop-opacity=".134"/><stop offset="1" stop-color="#221c36" stop-opacity="0"/></linearGradient><linearGradient id="SVGID_00000138554388542093156300000013010482120435588994_" gradientUnits="userSpaceOnUse" x1="339.759" x2="398.273" xlink:href="#lg2" y1="99.144" y2="65.361"/><linearGradient id="SVGID_00000123434212285182267140000011271639494668258698_" gradientTransform="matrix(.866 .5 -1 .577 591.666 829.784)" gradientUnits="userSpaceOnUse" x1="-985.226" x2="-759.198" xlink:href="#lg3" y1="-473.325" y2="-342.828"/><linearGradient id="SVGID_00000086692299407844223590000008113792908397983644_" gradientUnits="userSpaceOnUse" x1="173.155" x2="235.305" y1="239.873" y2="239.873"><stop offset="0" stop-color="#0072bc"/><stop offset="1" stop-color="#0197f8"/></linearGradient><linearGradient id="SVGID_00000082365315865706897590000006936189073020317577_" gradientUnits="userSpaceOnUse" x1="180.143" x2="236.143" y1="209.828" y2="242.16"><stop offset="0" stop-color="#2f97f7"/><stop offset="1" stop-color="#79d3fe"/></linearGradient><linearGradient id="SVGID_00000016795820834923979490000010964937135529962113_" gradientUnits="userSpaceOnUse" x1="180.509" x2="227.951" xlink:href="#lg1" y1="217.073" y2="217.073"/><linearGradient id="SVGID_00000135661289254897016940000000118669811490433959_" gradientUnits="userSpaceOnUse" x1="389.536" x2="436.979" xlink:href="#lg1" y1="96.39" y2="96.39"/><linearGradient id="SVGID_00000021084382579053876550000001636101531646599850_" gradientUnits="userSpaceOnUse" x1="270.647" x2="270.647" xlink:href="#lg1" y1="255.664" y2="446.517"/><linearGradient id="SVGID_00000093884096548186717550000015442555265000097170_" gradientUnits="userSpaceOnUse" x1="344.942" x2="344.942" xlink:href="#lg1" y1="212.722" y2="403.575"/><linearGradient id="SVGID_00000091732975313058079460000011858855266275822212_" gradientUnits="userSpaceOnUse" x1="419.238" x2="419.238" xlink:href="#lg1" y1="169.781" y2="360.633"/><g><path d="m478.715 332.195-445.429 61.321.001 20.657c.002 4.25 2.568 8.309 7.82 11.341l141.936 81.966c11.598 6.696 31.856 5.856 45.249-1.876l239.351-138.189c7.374-4.258 11.12-9.717 11.069-14.881z" fill="url(#SVGID_1_)"/><path d="m470.892 321-141.936-81.966c-11.598-6.696-31.857-5.856-45.248 1.876l-239.351 138.189c-13.392 7.732-14.847 19.429-3.249 26.124l141.936 81.966c11.598 6.696 31.856 5.856 45.249-1.876l239.351-138.189c13.392-7.731 14.846-19.427 3.248-26.124z" fill="url(#SVGID_00000087382981504780039860000010822390488442316201_)"/><path d="m469.443 126.773-426.884 58.768.001 201.982c.002 4.073 2.461 7.963 7.494 10.868l136.026 78.553c11.115 6.417 30.53 5.612 43.365-1.798l229.386-132.436c7.067-4.08 10.657-9.312 10.608-14.262z" fill="url(#SVGID_00000095316865934290662140000008294557834347556028_)"/><path d="m478.715 119.073-445.429 61.321.001 20.657c.002 4.25 2.568 8.309 7.82 11.341l141.936 81.966c11.598 6.696 31.856 5.856 45.249-1.876l239.351-138.189c7.374-4.258 11.12-9.717 11.069-14.881z" fill="url(#SVGID_00000103971044786800213780000016976550101458440599_)"/><path d="m470.892 107.878-141.936-81.966c-11.598-6.696-31.857-5.856-45.248 1.876l-239.351 138.189c-13.392 7.732-14.847 19.429-3.249 26.124l141.936 81.966c11.598 6.696 31.856 5.856 45.249-1.876l239.351-138.189c13.392-7.732 14.846-19.428 3.248-26.124z" fill="url(#SVGID_00000111160813169875821390000009935288937168924069_)"/><g><path d="m444.333 100.412-62.151 5.004v17.249l.02-.002c.028 4.095 2.499 8.003 7.562 10.925 11.236 6.487 30.861 5.674 43.836-1.817 7.128-4.116 10.742-9.389 10.709-14.383l.022-.002z" fill="url(#SVGID_00000166656273993097343520000002494557248183391639_)"/><path d="m433.601 114.797c12.974-7.49 14.383-18.822 3.147-25.308-11.236-6.487-30.862-5.674-43.836 1.817-12.974 7.49-14.383 18.822-3.147 25.308 11.236 6.487 30.861 5.674 43.836-1.817z" fill="url(#SVGID_00000005232268652327533020000001029153969286339510_)"/></g><g><path d="m409.272 75.002v-26.606l-366.057 114.56v27.102l.012-.003c.015 2.029 1.242 3.965 3.75 5.414l70.727 40.834c5.572 3.217 15.305 2.814 21.739-.901l59.817-34.535c6.434-3.715 16.167-4.118 21.739-.901l56.078 32.377c5.572 3.217 15.305 2.813 21.739-.901l98.32-56.765c3.708-2.141 5.499-4.914 5.295-7.496v-26.26s-61.245-21.995-58.251-23.723l59.817-34.536c3.788-2.187 5.571-5.032 5.275-7.66z" fill="url(#SVGID_00000118399181284720314220000004365026393895740836_)"/><path d="m311.641 143.436h-139.39v73.024l27.009-15.593c6.434-3.715 16.167-4.118 21.739-.901l56.078 32.377c5.572 3.217 15.305 2.813 21.739-.901l12.824-7.404v-80.602z" fill="url(#SVGID_00000085933903867315836920000002875723295376293003_)"/><path d="m323.001 88.214 21.18 28.983 59.817-34.536c3.788-2.186 5.57-5.031 5.274-7.659v-26.606z" fill="url(#SVGID_00000138554388542093156300000013010482120435588994_)"/><path d="m398.698 135.02-56.078-32.376c-5.572-3.217-4.873-8.837 1.561-12.551l59.817-34.535c6.434-3.715 7.133-9.334 1.561-12.551l-70.727-40.835c-5.572-3.217-15.305-2.814-21.739.901l-264.555 152.741c-6.434 3.715-7.133 9.334-1.561 12.551l70.727 40.834c5.572 3.217 15.305 2.814 21.739-.901l59.817-34.535c6.434-3.715 16.167-4.118 21.739-.901l56.078 32.377c5.572 3.217 15.305 2.814 21.739-.901l98.32-56.765c6.435-3.716 7.134-9.336 1.562-12.553z" fill="url(#SVGID_00000123434212285182267140000011271639494668258698_)"/></g><g><path d="m235.305 221.095-62.15 5.004v17.249l.02-.002c.028 4.095 2.499 8.003 7.562 10.925 11.236 6.487 30.861 5.674 43.836-1.817 7.128-4.116 10.742-9.389 10.709-14.383l.022-.002z" fill="url(#SVGID_00000086692299407844223590000008113792908397983644_)"/><path d="m224.573 235.479c12.974-7.49 14.383-18.822 3.147-25.308-11.236-6.487-30.862-5.674-43.836 1.817-12.974 7.49-14.383 18.822-3.147 25.308 11.236 6.488 30.862 5.674 43.836-1.817z" fill="url(#SVGID_00000082365315865706897590000006936189073020317577_)"/></g><g><path d="m227.951 198.724-47.442 3.82v21.196l.016-.001c.021 3.126 1.908 6.109 5.772 8.34 8.577 4.952 23.558 4.331 33.462-1.387 5.441-3.142 8.2-7.167 8.174-10.979l.017-.001z" fill="url(#SVGID_00000016795820834923979490000010964937135529962113_)"/><path d="m219.758 209.705c9.904-5.718 10.979-14.367 2.402-19.319s-23.558-4.331-33.462 1.387-10.979 14.367-2.402 19.319 23.558 4.331 33.462-1.387z" fill="#e9e5f6"/></g><g fill="#ffc538"><path d="m145.324 161.932c11.311-6.53 12.539-16.409 2.744-22.065-9.796-5.656-26.906-4.946-38.217 1.585-11.312 6.53-12.539 16.409-2.744 22.065 9.795 5.655 26.905 4.946 38.217-1.585z"/><path d="m208.903 125.064c11.311-6.53 12.539-16.409 2.744-22.065-9.796-5.656-26.906-4.946-38.217 1.585-11.311 6.53-12.539 16.409-2.744 22.065 9.795 5.655 26.905 4.946 38.217-1.585z"/><path d="m272.482 88.197c11.311-6.53 12.54-16.409 2.744-22.065s-26.906-4.946-38.217 1.585c-11.312 6.53-12.539 16.409-2.744 22.065 9.796 5.654 26.906 4.946 38.217-1.585z"/><path d="m336.062 51.329c11.311-6.53 12.539-16.409 2.744-22.065-9.796-5.656-26.906-4.946-38.217 1.585-11.312 6.53-12.539 16.409-2.744 22.065 9.795 5.655 26.905 4.946 38.217-1.585z"/></g><g><path d="m436.979 78.042-47.442 3.82v21.196l.016-.001c.021 3.126 1.908 6.109 5.772 8.34 8.577 4.952 23.558 4.331 33.462-1.387 5.441-3.142 8.2-7.167 8.174-10.979l.017-.001z" fill="url(#SVGID_00000135661289254897016940000000118669811490433959_)"/><path d="m428.786 89.022c9.904-5.718 10.979-14.367 2.402-19.319s-23.558-4.331-33.462 1.387-10.979 14.367-2.402 19.319 23.558 4.331 33.462-1.387z" fill="#e9e5f6"/></g><path d="m241.946 313.39 57.401-33.141v141.591l-57.401 33.14z" fill="url(#SVGID_00000021084382579053876550000001636101531646599850_)"/><path d="m316.242 270.448 57.401-33.14v141.59l-57.401 33.14z" fill="url(#SVGID_00000093884096548186717550000015442555265000097170_)"/><path d="m390.538 227.507 57.4-33.141v141.59l-57.4 33.141z" fill="url(#SVGID_00000091732975313058079460000011858855266275822212_)"/><g fill="#e37a34"><path d="m144.188 145.854-6.49-3.747-10.111 5.837-10.111-5.837-6.491 3.747 10.112 5.838-10.112 5.837 6.491 3.748 10.111-5.838 10.111 5.838 6.49-3.748-10.111-5.837z"/><path d="m207.768 108.987-6.491-3.748-10.111 5.838-10.111-5.838-6.49 3.748 10.111 5.837-10.111 5.838 6.49 3.747 10.111-5.838 10.111 5.838 6.491-3.747-10.111-5.838z"/><path d="m271.347 72.119-6.49-3.747-10.111 5.837-10.111-5.837-6.491 3.747 10.111 5.837-10.111 5.838 6.491 3.747 10.111-5.837 10.111 5.837 6.49-3.747-10.111-5.838z"/><path d="m334.926 35.251-6.49-3.747-10.111 5.837-10.111-5.837-6.49 3.747 10.111 5.838-10.111 5.837 6.49 3.748 10.111-5.838 10.111 5.838 6.49-3.748-10.111-5.837z"/></g></g></svg>