<svg id="Capa_1" enable-background="new 0 0 512 512" height="512" viewBox="0 0 512 512" width="512" xmlns="http://www.w3.org/2000/svg" xmlns:xlink="http://www.w3.org/1999/xlink"><radialGradient id="SVGID_1_" cx="310.881" cy="189.679" gradientUnits="userSpaceOnUse" r="318.456"><stop offset="0" stop-color="#fff"/><stop offset=".5314" stop-color="#d9d1ec"/><stop offset=".9916" stop-color="#7e62c0"/></radialGradient><radialGradient id="SVGID_2_" cx="310.882" cy="189.679" gradientUnits="userSpaceOnUse" r="218.595"><stop offset="0" stop-color="#c9baec"/><stop offset=".9212" stop-color="#b096ed"/></radialGradient><linearGradient id="SVGID_3_" gradientUnits="userSpaceOnUse" x1="125.314" x2="355.532" y1="544.504" y2="-274.221"><stop offset="0" stop-color="#45356d"/><stop offset=".799" stop-color="#45356d" stop-opacity="0"/></linearGradient><linearGradient id="SVGID_4_" gradientUnits="userSpaceOnUse" x1="359.782" x2="310.647" y1="341.654" y2="247.315"><stop offset="0" stop-color="#fff"/><stop offset=".648" stop-color="#fff" stop-opacity="0"/></linearGradient><linearGradient id="SVGID_5_" gradientUnits="userSpaceOnUse" x1="481.762" x2="334.254" y1="472.283" y2="274.462"><stop offset="0" stop-color="#fff"/><stop offset="1" stop-color="#fff" stop-opacity="0"/></linearGradient><g><circle cx="255.995" cy="256" fill="url(#SVGID_1_)" r="192.103"/><path d="m340.481 83.437c-25.499-12.508-54.169-19.541-84.487-19.541-29.218 0-56.906 6.535-81.701 18.204 8.277 2.478 16.849 6.198 25.638 11.272 69.069 39.877 125.06 146.858 125.06 238.948 0 20.487-2.777 38.503-7.846 53.707 56.405 16.424 98.693-26.01 98.693-106.039-.001-68.54-31.02-145.319-75.357-196.551z" fill="url(#SVGID_2_)"/><path d="m335.246 80.957c-23.913-9.008-53.813-6.318-86.258 9.733-78.439 38.806-142.026 142.916-142.026 232.535 0 33.896 9.255 60.97 24.919 79.389 8.254 6.994 17.105 13.302 26.467 18.84-24.626-17.053-40.058-49.471-40.058-93.159 0-89.619 63.587-193.729 142.026-232.535 31.026-15.349 59.72-18.585 83.083-10.873-2.682-1.372-5.401-2.682-8.153-3.93z" fill="url(#SVGID_3_)"/><ellipse cx="365.816" cy="316.668" fill="#45356d" rx="100.884" ry="57.075" transform="matrix(.392 -.92 .92 .392 -68.803 529.285)"/><path d="m425.813 275.297c0-24.342-7.447-42.064-19.467-51.003-11.166-5.234-25.238-4.075-40.531 4.754-36.293 20.954-65.715 77.169-65.715 125.56 0 24.343 7.447 42.064 19.467 51.003 11.166 5.234 25.238 4.075 40.531-4.754 36.294-20.954 65.715-77.169 65.715-125.56z" fill="#5e4990"/><ellipse cx="360.099" cy="313.237" fill="#45356d" rx="55.076" ry="31.159" transform="matrix(.392 -.92 .92 .392 -69.126 521.936)"/><ellipse cx="360.099" cy="313.237" fill="#322650" rx="23.353" ry="13.212" transform="matrix(.392 -.92 .92 .392 -69.125 521.937)"/><path d="m350.375 285.604c0-11.202-6.811-16.35-15.212-11.5s-15.212 17.863-15.212 29.065 6.811 16.35 15.212 11.5c8.402-4.85 15.212-17.863 15.212-29.065z" fill="url(#SVGID_4_)"/><path d="m406.347 224.294c-11.166-5.234-25.238-4.075-40.531 4.754-36.293 20.954-65.715 77.169-65.715 125.56 0 11.457 1.667 21.424 4.667 29.723l118.194-132.947c-3.21-12.196-8.987-21.417-16.615-27.09z" fill="url(#SVGID_5_)"/><path d="m481.309 166.423 17.406 1.705c4.414.433 8.333-2.792 8.764-7.2.432-4.408-2.792-8.332-7.199-8.764l-42.959-4.208c-.146-.019-.292-.032-.438-.043l-9.918-.971 4.854 38.656c.509 4.056 3.963 7.022 7.947 7.022.333 0 .671-.021 1.01-.063 4.395-.552 7.511-4.562 6.958-8.957l-1.152-9.174c20.245 18.735 30.322 40.666 29.309 64.233-1.597 37.167-31.326 75.12-81.564 104.126-101.155 58.401-254.476 64.904-341.78 14.5-32.9-18.995-52.226-43.625-55.891-71.227-3.628-27.33 8.181-55.563 34.152-81.646 3.126-3.139 3.115-8.217-.024-11.342-3.14-3.125-8.218-3.114-11.342.024-29.194 29.32-42.933 63.085-38.686 95.074 4.344 32.726 26.396 61.429 63.771 83.008 40.591 23.435 95.338 36.028 155.704 36.027 6.057 0 12.176-.127 18.337-.383 67.338-2.791 132.606-20.6 183.779-50.144 27.796-16.048 49.717-34.511 65.152-54.875 15.289-20.172 23.505-41.184 24.419-62.453 1.138-26.49-9.592-51.721-30.609-72.925z" fill="#45356d"/></g></svg>