<svg id="Capa_1" enable-background="new 0 0 512 512" height="512" viewBox="0 0 512 512" width="512" xmlns="http://www.w3.org/2000/svg" xmlns:xlink="http://www.w3.org/1999/xlink"><linearGradient id="lg1"><stop offset=".0319" stop-color="#a996eb"/><stop offset=".2213" stop-color="#bfb3eb"/><stop offset=".4108" stop-color="#d1c9eb"/><stop offset=".5321" stop-color="#d7d1eb"/><stop offset="1" stop-color="#e9e5f6"/></linearGradient><linearGradient id="SVGID_1_" gradientUnits="userSpaceOnUse" x1="149.99" x2="174.885" xlink:href="#lg1" y1="185.992" y2="142.872"/><linearGradient id="SVGID_2_" gradientUnits="userSpaceOnUse" x1="185.235" x2="185.235" y1="770.501" y2="24.829"><stop offset="0" stop-color="#dfdaef"/><stop offset="1" stop-color="#fff"/></linearGradient><linearGradient id="SVGID_3_" gradientUnits="userSpaceOnUse" x1="309.061" x2="289.628" xlink:href="#lg1" y1="334.021" y2="314.588"/><linearGradient id="SVGID_4_" gradientUnits="userSpaceOnUse" x1="378.285" x2="337.734" y1="285.416" y2="244.865"><stop offset="0" stop-color="#802129"/><stop offset=".2999" stop-color="#ab2c37"/><stop offset="1" stop-color="#ff7a85"/></linearGradient><linearGradient id="SVGID_5_" gradientUnits="userSpaceOnUse" x1="410.053" x2="385.314" xlink:href="#lg1" y1="229.964" y2="205.225"/><linearGradient id="SVGID_6_" gradientUnits="userSpaceOnUse" x1="355.499" x2="330.76" xlink:href="#lg1" y1="298.539" y2="273.8"/><linearGradient id="SVGID_7_" gradientUnits="userSpaceOnUse" x1="425.252" x2="400.709" xlink:href="#lg1" y1="212.849" y2="188.306"/><g><path d="m289.465 8.371-12.203-7.26c-2.408-1.576-5.625-1.533-9.162.509l-189.955 109.67c-7.459 4.307-13.506 15.861-13.506 25.806v355.875c0 5.875 2.111 9.874 5.377 11.275l5.768 3.505 5.061 2.963z" fill="url(#SVGID_1_)"/><path d="m280.213 400.708-189.956 109.671c-7.459 4.307-13.506-.265-13.506-10.21v-355.875c0-9.946 6.047-21.499 13.506-25.806l189.956-109.671c7.459-4.307 13.506.265 13.506 10.21v355.875c0 9.946-6.047 21.5-13.506 25.806z" fill="url(#SVGID_2_)"/><g><path d="m202.539 96.582-96.733 55.698c-4.197 2.423-7.599 8.923-7.599 14.519 0 5.596 3.402 8.167 7.599 5.745l96.733-55.698c4.197-2.423 7.599-8.923 7.599-14.519 0-5.596-3.402-8.167-7.599-5.745z" fill="#43386b"/></g><g><path d="m264.663 124.887-158.857 92.977c-4.197 2.423-7.599 8.923-7.599 14.519 0 5.596 3.402 8.167 7.599 5.745l158.857-92.977c4.197-2.423 7.599-8.923 7.599-14.519 0-5.596-3.402-8.168-7.599-5.745z" fill="#43386b"/></g><g><path d="m264.663 182.419-158.857 92.977c-4.197 2.423-7.599 8.923-7.599 14.519 0 5.596 3.402 8.167 7.599 5.745l158.857-92.977c4.197-2.423 7.599-8.923 7.599-14.519 0-5.596-3.402-8.168-7.599-5.745z" fill="#43386b"/></g><g><path d="m264.663 239.951-158.857 92.977c-4.197 2.423-7.599 8.923-7.599 14.519 0 5.596 3.402 8.168 7.599 5.745l158.857-92.977c4.197-2.423 7.599-8.923 7.599-14.519 0-5.596-3.402-8.168-7.599-5.745z" fill="#43386b"/></g><g><path d="m197.829 383.263c-.814 0-1.641-.199-2.405-.62-2.419-1.33-3.303-4.371-1.972-6.79.075-.136 7.576-13.763 15.887-27.374 17.866-29.26 21.97-29.998 24.686-30.486 1.856-.333 3.713.161 5.096 1.356 5.45 4.707 1.029 12.941-4.567 23.366-1.361 2.535-3.224 6.005-4.598 9.005 1.415-2.161 2.883-4.757 3.977-6.689 3.518-6.217 7.155-12.646 12.139-16.562 1.683-1.322 5.623-4.42 9.262-1.638 3.667 2.805 1.937 6.887-.066 11.613-.403.951-1.003 2.368-1.531 3.765 2.61-2.3 5.982-6.216 8.594-10.18 1.519-2.304 4.618-2.945 6.924-1.427 2.306 1.517 2.947 4.615 1.431 6.921-3.516 5.35-11.976 16.735-20.259 16.736-1.007 0-2.01-.168-3.003-.536-1.868-.692-3.331-2.077-4.118-3.901-.089-.206-.169-.415-.239-.627-.145.255-.288.509-.431.761-4.943 8.737-10.547 18.638-19.525 15.145-2.104-.818-3.688-2.42-4.46-4.511-.969-2.626-.628-5.607.653-9.233-5.586 9.017-11.677 19.472-17.089 29.315-.911 1.654-2.622 2.591-4.386 2.591z" fill="#43386b"/></g><g><path d="m216.728 394.311c-1.49 0-2.963-.663-3.949-1.929-1.696-2.179-1.304-5.32.875-7.016 1.215-.945 29.989-23.266 50.726-33.015 2.498-1.174 5.477-.101 6.652 2.398s.102 5.477-2.398 6.652c-19.724 9.272-48.55 31.632-48.838 31.857-.914.709-1.995 1.053-3.068 1.053z" fill="#43386b"/></g><g><g><path d="m301.495 303.148-11.949 33.575c-.385 1.081.669 2.118 1.744 1.716l32.098-12.005z" fill="url(#SVGID_3_)"/><path d="m427.407 226.04-26.827-24.603-94.882 94.62.007.007c-3.133 3.284-5.069 7.722-5.069 12.619 0 10.106 8.193 18.299 18.299 18.299 5.087 0 9.686-2.079 13.003-5.429l.002.002z" fill="url(#SVGID_4_)"/><path d="m427.811 225.636-25.851-25.851-9.557 9.557c-.025.025-.051.051-.076.076l-.038.038.002.002c-15.962 16.15 8.136 41.784 25.211 26.472l.008.008z" fill="url(#SVGID_5_)"/><path d="m364.077 289.37-.008-.008c-17.074 15.312-41.173-10.322-25.211-26.472l-.002-.002-6.481 6.481c-.025.025-.051.05-.076.076l-.038.038.002.002c-15.962 16.15 8.136 41.784 25.21 26.472l.008.008z" fill="url(#SVGID_6_)"/><ellipse cx="415.267" cy="212.353" fill="#e9e5f6" rx="18.299" ry="18.299" transform="matrix(.23 -.973 .973 .23 113.186 567.722)"/><path d="m439.453 222.234-9.58-9.623-2.015 2.015.936.936-16.63 14.822 9.854 9.854-1.983 2.047 1.662 1.662 2.015-2.015.032.032 15.705-15.705c1.11-1.11 1.112-2.911.004-4.025z" fill="#e9e5f6"/><path d="m443.381 203.831-19.2-19.2-17.842 17.842c-.019.019-.038.037-.056.056l-.028.028.001.001c-11.855 11.995 6.043 31.034 18.724 19.661l.006.006z" fill="url(#SVGID_7_)"/><ellipse cx="433.771" cy="194.259" fill="#e9e5f6" rx="13.591" ry="13.591" transform="matrix(.23 -.973 .973 .23 145.049 571.794)"/><path d="m298.8 335.305c-3.44 0-6.229-2.789-6.229-6.229 0-.401.041-.792.114-1.173l-3.139 8.82c-.385 1.081.669 2.118 1.744 1.716l8.688-3.249c-.381.073-.775.115-1.178.115z" fill="#a996eb"/></g><path d="m379.628 280.373 12.616-12.616c.458-.458 1.079-.715 1.727-.715h3.724l-13.919 13.331z" fill="#a996eb"/><path d="m412.163 230.384-2.015 2.015 9.886 9.886-36.629 36.629-2.913.866c-.783.233-1.296.982-1.228 1.797l.189 2.291c.072.87 1.129 1.258 1.746.641l40.529-40.529c1.113-1.113 1.113-2.917 0-4.03z" fill="#c5baeb"/></g></g></svg>