<svg id="Capa_1" enable-background="new 0 0 512 512" height="512" viewBox="0 0 512 512" width="512" xmlns="http://www.w3.org/2000/svg" xmlns:xlink="http://www.w3.org/1999/xlink"><linearGradient id="lg1"><stop offset=".0547" stop-color="#006568"/><stop offset=".145" stop-color="#0f7a7a"/><stop offset=".3798" stop-color="#32aca5"/><stop offset=".5854" stop-color="#4cd1c4"/><stop offset=".7519" stop-color="#5be7d7"/><stop offset=".8583" stop-color="#61efde"/><stop offset="1" stop-color="#89f2e4"/></linearGradient><linearGradient id="SVGID_1_" gradientUnits="userSpaceOnUse" x1="205.605" x2="295.596" xlink:href="#lg1" y1="331.885" y2="176.017"/><linearGradient id="SVGID_2_" gradientUnits="userSpaceOnUse" x1="287.948" x2="319.024" xlink:href="#lg1" y1="267.69" y2="213.864"/><linearGradient id="SVGID_3_" gradientUnits="userSpaceOnUse" x1="101.371" x2="335.424" y1="511.015" y2="105.621"><stop offset=".0547" stop-color="#006568"/><stop offset=".1168" stop-color="#0f7a7a"/><stop offset=".2782" stop-color="#32aca5"/><stop offset=".4196" stop-color="#4cd1c4"/><stop offset=".5341" stop-color="#5be7d7"/><stop offset=".6072" stop-color="#61efde"/><stop offset=".8807" stop-color="#89f2e4"/></linearGradient><linearGradient id="SVGID_4_" gradientUnits="userSpaceOnUse" x1="253.678" x2="252.654" y1="74.735" y2="143.376"><stop offset=".0547" stop-color="#006568"/><stop offset=".1436" stop-color="#0f7a7a"/><stop offset=".3746" stop-color="#32aca5"/><stop offset=".5769" stop-color="#4cd1c4"/><stop offset=".7407" stop-color="#5be7d7"/><stop offset=".8454" stop-color="#61efde"/></linearGradient><linearGradient id="SVGID_5_" gradientUnits="userSpaceOnUse" x1="255.226" x2="289.815" y1="69.551" y2="9.64"><stop offset=".0547" stop-color="#006568"/><stop offset=".136" stop-color="#0f7a7a"/><stop offset=".3473" stop-color="#32aca5"/><stop offset=".5325" stop-color="#4cd1c4"/><stop offset=".6823" stop-color="#5be7d7"/><stop offset=".7781" stop-color="#61efde"/><stop offset=".8807" stop-color="#89f2e4"/></linearGradient><linearGradient id="lg2"><stop offset="0" stop-color="#00daac"/><stop offset="1" stop-color="#61efde"/></linearGradient><linearGradient id="SVGID_6_" gradientTransform="matrix(.866 -.5 0 1.155 32.566 83.916)" gradientUnits="userSpaceOnUse" x1="277.201" x2="277.201" xlink:href="#lg2" y1="588.307" y2="84.224"/><linearGradient id="SVGID_7_" gradientTransform="matrix(.866 -.5 0 1.155 32.566 83.916)" gradientUnits="userSpaceOnUse" x1="304.569" x2="304.569" xlink:href="#lg2" y1="588.309" y2="84.223"/><g><path d="m297.545 220.093-.02.007c-2.896-1.617-6.644-1.448-10.746.921l-3.408-46.258-33.215-19.176c-2.901-1.635-6.66-1.475-10.777.901-9.164 5.291-16.594 19.487-16.594 31.707v114.025l33.244 19.209 74.676-82.174z" fill="url(#SVGID_1_)"/><path d="m297.525 220.099c-2.31-1.289-5.167-1.42-8.308-.227v38.143l41.487-18.76-33.158-19.162z" fill="url(#SVGID_2_)"/><path d="m398.237 143.274c-2.798-1.252-6.29-.958-10.091 1.236-9.164 5.291-16.594 19.487-16.594 31.707 0 97.174-59.293 210.465-132.174 252.543-37.316 21.544-71.063 20.297-95.12.916-8.602-43.082-16.343-98.901-11.384-144.94 9.562-88.789 101.108-171.856 101.108-171.856l32.665 18.998 71.177-99.624-33.522-19.317c-.154-.075-.291-.179-.47-.213l-65.902-12.684c-2.628-.506-5.914 3.919-5.914 7.965v28.518c-87.777 55.832-158 193.19-158 311.476 0 65.578 21.591 112.083 55.783 132.765.002.005 31.177 17.938 31.177 17.938s87.374-17.309 142.397-53.094c77.842-50.625 129.076-282.643 129.076-282.643s-34.211-19.697-34.212-19.691z" fill="url(#SVGID_3_)"/><path d="m266.647 131.877 5.975-44.867-38.64 25.869z" fill="url(#SVGID_4_)"/><path d="m337.075 31.931s-.046-.069-.124-.183l-32.685-18.899c-.154-.075-.257-.092-.435-.127l-65.901-12.682c-2.628-.506-5.914 3.919-5.914 7.965v28.518l33.244 19.209z" fill="url(#SVGID_5_)"/><path d="m421.39 163.719c-9.164 5.291-16.594 19.487-16.594 31.707 0 97.174-59.293 210.465-132.174 252.543s-132.173-2.747-132.173-99.922c0-93.879 55.344-202.785 124.813-248.006v28.635c0 4.046 3.285 4.678 5.913 1.139l65.901-88.779c2.628-3.541 2.628-8.599 0-9.104l-65.901-12.683c-2.628-.506-5.913 3.92-5.913 7.966v28.517c-87.778 55.832-158.001 193.19-158.001 311.476 0 121.576 74.181 177.656 165.362 125.012 91.182-52.644 165.362-194.381 165.362-315.956-.001-12.22-7.431-17.836-16.595-12.545z" fill="url(#SVGID_6_)"/><path d="m272.622 175.697c-9.164 5.291-16.594 19.487-16.594 31.707v114.025l63.996-36.948c9.164-5.291 16.594-19.487 16.594-31.707s-7.43-17.836-16.594-12.545l-30.807 17.786v-69.773c-.001-12.22-7.431-17.836-16.595-12.545z" fill="url(#SVGID_7_)"/></g></svg>