<svg id="Capa_1" enable-background="new 0 0 512 512" height="512" viewBox="0 0 512 512" width="512" xmlns="http://www.w3.org/2000/svg" xmlns:xlink="http://www.w3.org/1999/xlink"><linearGradient id="SVGID_1_" gradientUnits="userSpaceOnUse" x1="226.811" x2="251.707" y1="185.992" y2="142.872"><stop offset=".0319" stop-color="#a996eb"/><stop offset=".2213" stop-color="#bfb3eb"/><stop offset=".4108" stop-color="#d1c9eb"/><stop offset=".5321" stop-color="#d7d1eb"/><stop offset="1" stop-color="#e9e5f6"/></linearGradient><linearGradient id="SVGID_2_" gradientUnits="userSpaceOnUse" x1="262.056" x2="262.056" y1="770.501" y2="24.829"><stop offset="0" stop-color="#dfdaef"/><stop offset="1" stop-color="#fff"/></linearGradient><g><path d="m366.287 8.371-12.203-7.26c-2.408-1.576-5.625-1.533-9.162.509l-189.956 109.67c-7.459 4.307-13.506 15.861-13.506 25.806v355.875c0 5.875 2.111 9.874 5.376 11.275l5.768 3.505 5.061 2.963z" fill="url(#SVGID_1_)"/><path d="m357.034 400.708-189.956 109.671c-7.459 4.307-13.506-.265-13.506-10.21v-355.875c0-9.946 6.047-21.499 13.506-25.806l189.956-109.671c7.459-4.307 13.506.265 13.506 10.21v355.875c0 9.946-6.047 21.5-13.506 25.806z" fill="url(#SVGID_2_)"/><g fill="#43386b"><g><path d="m342.885 88.356-118.399 68.441c-4.197 2.423-7.599 8.923-7.599 14.519 0 5.596 3.402 8.168 7.599 5.745l118.399-68.441c4.197-2.423 7.599-8.923 7.599-14.519 0-5.596-3.402-8.168-7.599-5.745z"/><path d="m288.058 165.552-63.571 36.5c-4.197 2.423-7.599 8.923-7.599 14.519 0 5.596 3.402 8.168 7.599 5.745l63.571-36.5c4.197-2.423 7.599-8.923 7.599-14.519-.001-5.596-3.403-8.168-7.599-5.745z"/></g><g><path d="m342.885 190.692-118.399 68.441c-4.197 2.423-7.599 8.923-7.599 14.519 0 5.596 3.402 8.168 7.599 5.745l118.399-68.441c4.197-2.423 7.599-8.923 7.599-14.519 0-5.596-3.402-8.167-7.599-5.745z"/><path d="m288.058 267.889-63.571 36.5c-4.197 2.423-7.599 8.923-7.599 14.519 0 5.596 3.402 8.168 7.599 5.745l63.571-36.5c4.197-2.423 7.599-8.923 7.599-14.519-.001-5.596-3.403-8.168-7.599-5.745z"/></g><g><path d="m342.885 293.029-118.399 68.441c-4.197 2.423-7.599 8.923-7.599 14.519 0 5.596 3.402 8.167 7.599 5.745l118.399-68.441c4.197-2.423 7.599-8.923 7.599-14.519 0-5.596-3.402-8.168-7.599-5.745z"/><path d="m288.058 370.225-63.571 36.5c-4.197 2.423-7.599 8.923-7.599 14.519 0 5.596 3.402 8.168 7.599 5.745l63.571-36.5c4.197-2.423 7.599-8.923 7.599-14.519-.001-5.596-3.403-8.168-7.599-5.745z"/></g></g><ellipse cx="188.967" cy="179.307" fill="#9bf0df" rx="18.691" ry="10.575" transform="matrix(.392 -.92 .92 .392 -50.013 282.978)"/><ellipse cx="188.967" cy="286.323" fill="#ff4757" rx="18.691" ry="10.575" transform="matrix(.392 -.92 .92 .392 -148.485 348.091)"/><path d="m201.143 386.309c0 8.966-5.451 19.381-12.175 23.263s-12.175-.239-12.175-9.204c0-8.966 5.451-19.381 12.175-23.263 6.723-3.882 12.175.239 12.175 9.204z" fill="#59acf9"/></g></svg>