<svg id="Capa_1" enable-background="new 0 0 512 512" height="512" viewBox="0 0 512 512" width="512" xmlns="http://www.w3.org/2000/svg" xmlns:xlink="http://www.w3.org/1999/xlink"><linearGradient id="SVGID_1_" gradientUnits="userSpaceOnUse" x1="183.91" x2="208.467" y1="175.406" y2="132.873"><stop offset="0" stop-color="#b096ed"/><stop offset=".2393" stop-color="#c4b1ef"/><stop offset=".5371" stop-color="#d8cdf1"/><stop offset=".8006" stop-color="#e4ddf3"/><stop offset="1" stop-color="#e8e3f3"/></linearGradient><linearGradient id="SVGID_2_" gradientUnits="userSpaceOnUse" x1="316.396" x2="108.228" y1="442.618" y2="82.059"><stop offset="0" stop-color="#b096ed"/><stop offset=".0014" stop-color="#b096ed"/><stop offset=".299" stop-color="#cdbcf3"/><stop offset=".5742" stop-color="#e2d7f7"/><stop offset=".8165" stop-color="#efe8f9"/><stop offset="1" stop-color="#f3eefa"/></linearGradient><linearGradient id="SVGID_3_" gradientUnits="userSpaceOnUse" x1="214.399" x2="214.399" y1="46.956" y2="488.393"><stop offset="0" stop-color="#45356d"/><stop offset=".2699" stop-color="#544081"/><stop offset="1" stop-color="#7e62c0"/></linearGradient><linearGradient id="lg1"><stop offset=".0547" stop-color="#006568"/><stop offset=".1168" stop-color="#0f7a7a"/><stop offset=".2782" stop-color="#32aca5"/><stop offset=".4196" stop-color="#4cd1c4"/><stop offset=".5341" stop-color="#5be7d7"/><stop offset=".6072" stop-color="#61efde"/><stop offset=".8807" stop-color="#89f2e4"/></linearGradient><linearGradient id="SVGID_4_" gradientUnits="userSpaceOnUse" x1="282.66" x2="322.848" xlink:href="#lg1" y1="462.567" y2="392.959"/><linearGradient id="lg2"><stop offset="0" stop-color="#00daac"/><stop offset="1" stop-color="#61efde"/></linearGradient><linearGradient id="SVGID_5_" gradientUnits="userSpaceOnUse" x1="320.141" x2="320.141" xlink:href="#lg2" y1="492.195" y2="171.032"/><linearGradient id="SVGID_6_" gradientUnits="userSpaceOnUse" x1="271.467" x2="330.052" xlink:href="#lg1" y1="429.541" y2="328.069"/><linearGradient id="SVGID_7_" gradientUnits="userSpaceOnUse" x1="252.329" x2="334.795" xlink:href="#lg1" y1="417.31" y2="274.473"/><linearGradient id="SVGID_8_" gradientUnits="userSpaceOnUse" x1="233.297" x2="324.12" xlink:href="#lg1" y1="404.363" y2="247.054"/><linearGradient id="SVGID_10_" gradientUnits="userSpaceOnUse" x1="320.14" x2="320.14" xlink:href="#lg2" y1="492.195" y2="171.032"/><linearGradient id="SVGID_11_" gradientUnits="userSpaceOnUse" x1="320.14" x2="320.14" xlink:href="#lg2" y1="492.195" y2="171.023"/><g><path d="m301.843 21.716-33.158-19.176-.009.013c-4.552-2.987-10.635-3.604-16.022-.493l-149.195 85.969c-11.8 6.812-19.069 19.403-19.069 33.028v355.723c0 5.626 2.928 10.221 7.083 12.863l35.835 20.742z" fill="url(#SVGID_1_)"/><path d="m118.809 496.699v-355.723c0-13.625 7.269-26.215 19.069-33.028l149.195-85.97c10.185-5.881 22.917 1.47 22.917 13.231v355.723c0 13.625-7.269 26.215-19.069 33.028l-149.194 85.97c-10.186 5.881-22.918-1.47-22.918-13.231z" fill="url(#SVGID_2_)"/><path d="m286.043 41.811-23.01 13.259c0 8.417-4.49 16.194-11.779 20.402l-70.069 40.454c-5.276 3.046-11.87-.762-11.87-6.853l-23.114 13.319c-6.608 3.815-10.721 10.939-10.721 18.584v344.917c0 3.734 4.04 6.068 7.275 4.204l139.842-80.581c6.608-3.816 10.721-10.939 10.721-18.583v-344.918c.001-3.734-4.04-6.068-7.275-4.204z" fill="url(#SVGID_3_)"/><g><path d="m338.8 392.722c-.42-.317-27.342-15.871-27.342-15.871l-.004.008c-10.35-6.823-26.522 2.818-36.588 22.052-10.306 19.691-10.306 41.969 0 49.76.473.358 27.806 16.165 27.806 16.165l.004-.008c10.364 6.24 26.207-3.399 36.123-22.346 10.307-19.691 10.307-41.969.001-49.76z" fill="url(#SVGID_4_)"/><path d="m338.8 442.482c-10.306 19.691-27.014 29.337-37.32 21.547-10.306-7.791-10.306-30.069 0-49.76 10.305-19.691 27.014-29.338 37.32-21.547s10.306 30.069 0 49.76z" fill="url(#SVGID_5_)"/><path d="m372.866 333.376c-1.545-1.168-3.145-2.189-4.788-3.082l.008-.005-25.263-14.587-.01.005c-29.25-17.513-74.057 9.783-102.011 63.194-5.089 9.724-5.089 20.727 0 24.574.25.189 27.223 15.768 27.223 15.768l.002-.004c5.119 3.057 12.928-1.703 17.819-11.048 18.91-36.131 49.68-53.896 68.59-39.6 2.544 1.924 5.88 1.694 9.215-.231 3.335-1.926 6.671-5.548 9.215-10.41 5.089-9.724 5.089-20.726 0-24.574z" fill="url(#SVGID_6_)"/><path d="m398.206 273.451c-1.793-1.355-3.64-2.58-5.532-3.692h.014l-27.081-15.632-.001.001c-20.033-11.526-45.33-9.521-72.08 5.923-29.489 17.026-57.214 48.344-78.066 88.186-5.089 9.724-5.089 20.727 0 24.574.256.194 27.305 15.816 27.305 15.816s.002-.005.002-.006c5.12 2.959 12.872-1.798 17.737-11.094 32.883-62.829 86.387-93.72 119.271-68.861 2.544 1.924 5.88 1.694 9.215-.231 3.336-1.926 6.671-5.548 9.215-10.41 5.091-9.725 5.091-20.727.001-24.574z" fill="url(#SVGID_7_)"/><path d="m423.793 212.852c-2.732-2.066-5.557-3.912-8.463-5.553.001 0 .009-.003.009-.003l-27.85-16.04s-.016-.001-.036-.001c-11.654-6.281-24.644-9.211-38.772-8.693-17.565.644-36.122 6.542-55.154 17.531-19.033 10.988-37.589 26.517-55.154 46.156-18.192 20.34-34.51 44.205-48.498 70.934-5.089 9.724-5.089 20.726 0 24.574.204.154 27.241 15.779 27.241 15.779l.003-.004c5.119 3.035 12.916-1.724 17.801-11.058 46.991-89.786 123.453-133.931 170.444-98.406 2.545 1.924 5.88 1.695 9.215-.231s6.671-5.548 9.215-10.41c5.088-9.725 5.088-20.727-.001-24.575z" fill="url(#SVGID_8_)"/><g><path d="m363.651 368.36c-3.335 1.926-6.671 2.155-9.215.231-18.91-14.296-49.68 3.469-68.59 39.601-5.089 9.724-13.341 14.488-18.431 10.641-5.089-3.847-5.089-14.85 0-24.574 29.074-55.55 76.379-82.86 105.451-60.882 5.09 3.848 5.09 14.85 0 24.574-2.545 4.861-5.88 8.483-9.215 10.409z" fill="url(#SVGID_5_)"/></g><g><path d="m388.991 308.435c-3.335 1.926-6.671 2.155-9.215.231-32.884-24.859-86.388 6.032-119.271 68.861-5.089 9.724-13.341 14.489-18.431 10.641-5.089-3.848-5.089-14.85 0-24.574 20.852-39.842 48.577-71.16 78.066-88.186 29.49-17.026 57.214-17.721 78.066-1.957 5.089 3.848 5.089 14.85 0 24.574-2.544 4.862-5.879 8.484-9.215 10.41z" fill="url(#SVGID_10_)"/></g><g><path d="m414.578 247.836c-3.335 1.926-6.671 2.155-9.215.231-46.991-35.525-123.453 8.62-170.444 98.406-5.089 9.724-13.341 14.488-18.431 10.641-5.089-3.848-5.089-14.85 0-24.574 13.989-26.728 30.306-50.594 48.499-70.933 17.565-19.638 36.121-35.168 55.154-46.156 19.032-10.989 37.589-16.887 55.154-17.531 18.192-.667 34.509 4.357 48.498 14.933 5.089 3.848 5.089 14.85 0 24.574-2.545 4.861-5.88 8.483-9.215 10.409z" fill="url(#SVGID_11_)"/></g></g></g></svg>