<svg id="Capa_1" enable-background="new 0 0 512 512" height="512" viewBox="0 0 512 512" width="512" xmlns="http://www.w3.org/2000/svg" xmlns:xlink="http://www.w3.org/1999/xlink"><linearGradient id="SVGID_1_" gradientUnits="userSpaceOnUse" x1="252.997" x2="252.997" y1="497.857" y2="223.658"><stop offset=".0319" stop-color="#a996eb"/><stop offset=".2213" stop-color="#bfb3eb"/><stop offset=".4108" stop-color="#d1c9eb"/><stop offset=".5321" stop-color="#d7d1eb"/><stop offset="1" stop-color="#e9e5f6"/></linearGradient><linearGradient id="SVGID_2_" gradientUnits="userSpaceOnUse" x1="273.257" x2="273.257" y1="763.867" y2="37.331"><stop offset="0" stop-color="#dfdaef"/><stop offset="1" stop-color="#fff"/></linearGradient><linearGradient id="SVGID_3_" gradientUnits="userSpaceOnUse" x1="171.494" x2="199.777" y1="243.051" y2="194.064"><stop offset="0" stop-color="#ab2c37"/><stop offset="1" stop-color="#ff7a85"/></linearGradient><linearGradient id="lg1"><stop offset=".0319" stop-color="#5d3645"/><stop offset="1" stop-color="#5d3645" stop-opacity="0"/></linearGradient><linearGradient id="SVGID_4_" gradientUnits="userSpaceOnUse" x1="147.413" x2="167.107" xlink:href="#lg1" y1="190.998" y2="225.108"/><linearGradient id="lg2"><stop offset="0" stop-color="#c5baeb"/><stop offset=".2585" stop-color="#cbc0ed"/><stop offset=".6156" stop-color="#dad2f4"/><stop offset="1" stop-color="#f2edff"/></linearGradient><linearGradient id="SVGID_5_" gradientUnits="userSpaceOnUse" x1="168.124" x2="151.516" xlink:href="#lg2" y1="181.188" y2="128.343"/><linearGradient id="SVGID_6_" gradientUnits="userSpaceOnUse" x1="218.264" x2="237.958" xlink:href="#lg1" y1="150.152" y2="184.262"/><linearGradient id="SVGID_7_" gradientUnits="userSpaceOnUse" x1="238.975" x2="222.367" xlink:href="#lg2" y1="140.342" y2="87.498"/><linearGradient id="SVGID_8_" gradientUnits="userSpaceOnUse" x1="287.313" x2="307.007" xlink:href="#lg1" y1="110.141" y2="144.252"/><linearGradient id="SVGID_9_" gradientUnits="userSpaceOnUse" x1="308.024" x2="291.416" xlink:href="#lg2" y1="100.331" y2="47.487"/><linearGradient id="SVGID_10_" gradientUnits="userSpaceOnUse" x1="348.204" x2="367.898" xlink:href="#lg1" y1="75.039" y2="109.15"/><linearGradient id="SVGID_11_" gradientUnits="userSpaceOnUse" x1="368.915" x2="352.307" xlink:href="#lg2" y1="65.229" y2="12.385"/><g><g><path d="m234.78 161.603c-4.123 0-8.483-1.263-12.836-3.776-15.264-8.814-27.222-31.398-27.222-51.415 0-11.695 4.226-20.841 11.594-25.095 6.488-3.745 14.408-3.297 22.299 1.26 15.264 8.812 27.222 31.396 27.222 51.414 0 11.695-4.226 20.841-11.592 25.094-2.911 1.681-6.109 2.518-9.465 2.518zm-18.982-69.435c-.973 0-1.936.2-2.812.705-3.08 1.779-4.92 6.84-4.92 13.539 0 15.174 9.41 33.427 20.548 39.859 2.081 1.201 6.011 2.961 8.957 1.26 3.08-1.779 4.92-6.84 4.92-13.538 0-15.175-9.41-33.427-20.548-39.859-1.462-.845-3.838-1.966-6.145-1.966z" fill="#f2effa"/></g><g><path d="m303.829 121.693c-4.124 0-8.484-1.263-12.836-3.776-15.264-8.812-27.222-31.396-27.222-51.414 0-11.695 4.226-20.841 11.592-25.095 6.489-3.745 14.409-3.297 22.301 1.26 15.264 8.813 27.222 31.397 27.222 51.414 0 11.694-4.226 20.841-11.594 25.094-2.91 1.68-6.109 2.517-9.463 2.517zm-18.982-69.435c-.975 0-1.936.2-2.812.705-3.082 1.779-4.92 6.84-4.92 13.538 0 15.175 9.41 33.428 20.548 39.858 2.081 1.201 6.01 2.962 8.957 1.26 3.08-1.779 4.92-6.84 4.92-13.538 0-15.174-9.41-33.427-20.548-39.859-1.462-.843-3.84-1.964-6.145-1.964z" fill="#f2effa"/></g><g><path d="m364.637 86.599c-4.124 0-8.486-1.264-12.837-3.777-15.264-8.813-27.222-31.397-27.222-51.414 0-11.694 4.226-20.841 11.594-25.094 6.488-3.745 14.409-3.297 22.299 1.26 15.264 8.812 27.222 31.396 27.222 51.414 0 11.695-4.226 20.841-11.592 25.095-2.911 1.68-6.109 2.516-9.464 2.516zm-18.983-69.434c-.975 0-1.936.2-2.811.705-3.081 1.779-4.92 6.84-4.92 13.538 0 15.174 9.41 33.427 20.548 39.859 2.082 1.201 6.012 2.96 8.957 1.26 3.082-1.779 4.92-6.84 4.92-13.538 0-15.175-9.409-33.428-20.548-39.858-1.463-.845-3.839-1.966-6.146-1.966z" fill="#f2effa"/></g><g><path d="m163.929 202.445c-4.123 0-8.483-1.263-12.836-3.776-15.264-8.812-27.222-31.396-27.222-51.415 0-11.694 4.226-20.841 11.592-25.094 6.485-3.744 14.405-3.298 22.301 1.26 15.264 8.812 27.222 31.396 27.222 51.415 0 11.694-4.226 20.841-11.592 25.094-2.91 1.68-6.109 2.516-9.465 2.516zm-18.982-69.434c-.975 0-1.936.2-2.812.705-3.082 1.779-4.92 6.84-4.92 13.538 0 15.175 9.41 33.428 20.548 39.858 2.081 1.202 6.012 2.96 8.957 1.26 3.082-1.779 4.92-6.84 4.92-13.538 0-15.175-9.41-33.428-20.548-39.858-1.462-.844-3.838-1.965-6.145-1.965z" fill="#f2effa"/></g><path d="m420.427 21.808-34.641-20.24c-3.4-2.226-7.943-2.165-12.937.718l-268.212 154.853c-10.533 6.081-19.071 22.395-19.071 36.437v281.567c0 8.296 2.981 13.941 7.591 15.921l25.556 14.938 7.146 4.183z" fill="url(#SVGID_1_)"/><path d="m407.363 354.859-268.212 154.852c-10.532 6.081-19.07-.374-19.07-14.417v-281.566c0-14.043 8.538-30.357 19.07-36.437l268.212-154.853c10.532-6.081 19.07.374 19.07 14.417v281.567c.001 14.043-8.537 30.356-19.07 36.437z" fill="url(#SVGID_2_)"/><path d="m372.849 2.286-268.212 154.853c-10.533 6.081-19.071 22.395-19.071 36.437v40.433l34.514 19.927 300.347-232.128-34.641-20.24c-3.4-2.226-7.943-2.165-12.937.718z" fill="url(#SVGID_3_)"/><g><path d="m237.57 219.265-40.211 23.216v53.615l40.211-23.216z" fill="#594a8e"/><path d="m293.363 187.053-40.212 23.216v53.615l40.212-23.216z" fill="#594a8e"/><path d="m349.155 154.841-40.211 23.216v53.615l40.211-23.216z" fill="#594a8e"/><path d="m404.948 122.629-40.211 23.216v53.615l40.211-23.216z" fill="#ff4757"/><g fill="#594a8e"><path d="m181.777 327.471-40.211 23.216v53.615l40.211-23.216z"/><path d="m237.57 295.259-40.211 23.216v53.615l40.211-23.216z"/><path d="m293.363 263.047-40.212 23.216v53.615l40.212-23.216z"/><path d="m349.155 230.835-40.211 23.216v53.615l40.211-23.216z"/></g><path d="m404.948 198.623-40.211 23.216v53.615l40.211-23.216z" fill="#ff4757"/><path d="m181.777 403.465-40.211 23.216v53.615l40.211-23.216z" fill="#594a8e"/><path d="m237.57 371.253-40.211 23.216v53.615l40.211-23.216z" fill="#594a8e"/><path d="m293.363 339.041-40.212 23.216v53.615l40.212-23.216z" fill="#594a8e"/><path d="m349.155 306.829-40.211 23.216v53.615l40.211-23.216z" fill="#594a8e"/></g><path d="m407.364 22.438-268.213 154.853c-10.533 6.081-19.071 22.394-19.071 36.437v40.207l306.354-176.873v-40.207c0-14.043-8.538-20.497-19.07-14.417z" fill="#ff4757"/><path d="m151.553 195.817h13.406v27.921h-13.406z" fill="url(#SVGID_4_)"/><path d="m157.764 123.42c-7.723-4.458-15.511-4.979-21.924-1.471-3.234 1.768-4.421 5.822-2.653 9.055 1.768 3.234 5.826 4.42 9.054 2.653 2.934-1.604 6.805.138 8.852 1.32 11.139 6.43 20.548 24.683 20.548 39.858 0 6.699-1.838 11.76-4.92 13.538-2.536 1.464-5.793.363-7.98-.738-.765-.438-1.748-.421-2.836.208-2.41 1.391-4.364 5.124-4.364 8.338 0 1.845.657 3.091 1.662 3.577l-.007.016c3.648 1.77 7.275 2.671 10.733 2.671 3.356 0 6.555-.836 9.465-2.516 7.366-4.253 11.592-13.4 11.592-25.094 0-20.019-11.958-42.603-27.222-51.415z" fill="url(#SVGID_5_)"/><path d="m222.404 154.972h13.406v27.921h-13.406z" fill="url(#SVGID_6_)"/><path d="m228.615 82.574c-7.723-4.458-15.511-4.979-21.924-1.471-3.234 1.768-4.421 5.822-2.653 9.055 1.768 3.234 5.826 4.42 9.054 2.653 2.934-1.604 6.805.138 8.852 1.32 11.139 6.43 20.548 24.683 20.548 39.858 0 6.699-1.838 11.76-4.92 13.538-2.536 1.464-5.793.363-7.98-.738-.765-.438-1.748-.421-2.836.208-2.41 1.391-4.364 5.124-4.364 8.338 0 1.846.657 3.091 1.662 3.577l-.007.016c3.648 1.77 7.275 2.671 10.733 2.671 3.356 0 6.555-.836 9.465-2.517 7.366-4.253 11.592-13.4 11.592-25.094 0-20.018-11.958-42.602-27.222-51.414z" fill="url(#SVGID_7_)"/><path d="m291.453 114.961h13.406v27.921h-13.406z" fill="url(#SVGID_8_)"/><path d="m297.664 42.563c-7.723-4.458-15.511-4.979-21.924-1.471-3.233 1.768-4.421 5.822-2.653 9.055 1.768 3.234 5.826 4.42 9.054 2.653 2.934-1.604 6.805.138 8.852 1.32 11.139 6.43 20.548 24.683 20.548 39.858 0 6.699-1.838 11.76-4.92 13.538-2.536 1.464-5.793.363-7.98-.738-.765-.438-1.748-.421-2.836.208-2.41 1.392-4.364 5.125-4.364 8.338 0 1.846.657 3.091 1.662 3.577l-.007.016c3.648 1.77 7.275 2.671 10.734 2.671 3.356 0 6.555-.836 9.465-2.516 7.366-4.254 11.592-13.4 11.592-25.094-.002-20.018-11.959-42.602-27.223-51.415z" fill="url(#SVGID_9_)"/><path d="m352.344 79.859h13.406v27.921h-13.406z" fill="url(#SVGID_10_)"/><path d="m358.555 7.461c-7.723-4.458-15.511-4.979-21.924-1.471-3.234 1.768-4.421 5.822-2.653 9.055 1.768 3.234 5.826 4.42 9.054 2.653 2.934-1.604 6.805.138 8.852 1.319 11.139 6.431 20.548 24.683 20.548 39.858 0 6.699-1.838 11.76-4.92 13.538-2.536 1.464-5.793.363-7.98-.738-.765-.438-1.748-.421-2.836.208-2.41 1.391-4.364 5.124-4.364 8.338 0 1.845.657 3.091 1.662 3.577l-.007.016c3.648 1.77 7.275 2.671 10.733 2.671 3.356 0 6.555-.836 9.465-2.517 7.366-4.254 11.592-13.4 11.592-25.094 0-20.016-11.958-42.6-27.222-51.413z" fill="url(#SVGID_11_)"/></g></svg>