<svg id="Capa_1" enable-background="new 0 0 512 512" height="512" viewBox="0 0 512 512" width="512" xmlns="http://www.w3.org/2000/svg" xmlns:xlink="http://www.w3.org/1999/xlink"><linearGradient id="SVGID_1_" gradientUnits="userSpaceOnUse" x1="468.548" x2="40.825" y1="245.164" y2="264.412"><stop offset="0" stop-color="#45356d"/><stop offset=".2699" stop-color="#544081"/><stop offset="1" stop-color="#7e62c0"/></linearGradient><g><path d="m512 237.178c0-37.87-23.252-72.15-65.472-96.526-44.615-25.759-106.234-38.409-173.515-35.621-66.943 2.775-131.862 20.499-182.798 49.907-57.333 33.102-90.215 77.812-90.215 122.666 0 37.87 23.252 72.151 65.472 96.526 28.949 16.714 65.936 28.171 106.96 33.132.476.058.948.085 1.416.085 5.819-.001 10.854-4.348 11.571-10.27.774-6.398-3.786-12.213-10.184-12.987-37.926-4.586-71.846-15.021-98.093-30.174-34.695-20.031-53.802-47.133-53.802-76.314 0-36.291 28.629-73.634 78.546-102.454 98.623-56.939 247.995-63.347 332.973-14.286 34.695 20.031 53.802 47.133 53.802 76.313 0 31.01-20.918 62.783-58.144 89.356l1.926-15.667c.786-6.397-3.762-12.22-10.159-13.007-6.4-.783-12.22 3.762-13.007 10.159l-6.746 54.877 65.983-6.635c6.413-.645 11.089-6.366 10.444-12.779s-6.372-11.083-12.779-10.444l-6.97.701c33.97-28.797 52.791-62.634 52.791-96.558z" fill="url(#SVGID_1_)"/></g></svg>