<svg id="Capa_1" enable-background="new 0 0 512 512" height="512" viewBox="0 0 512 512" width="512" xmlns="http://www.w3.org/2000/svg" xmlns:xlink="http://www.w3.org/1999/xlink"><linearGradient id="lg1"><stop offset="0" stop-color="#c5baeb"/><stop offset="1" stop-color="#f2effa"/></linearGradient><linearGradient id="SVGID_1_" gradientUnits="userSpaceOnUse" x1="205.014" x2="365.49" xlink:href="#lg1" y1="289.943" y2="289.943"/><linearGradient id="SVGID_00000014609357953935717750000010708509285144940469_" gradientUnits="userSpaceOnUse" x1="147.704" x2="364.459" y1="313.151" y2="313.151"><stop offset="0" stop-color="#2f878a"/><stop offset="1" stop-color="#06daae"/></linearGradient><linearGradient id="SVGID_00000039127088720000339980000013853494098598842019_" gradientUnits="userSpaceOnUse" x1="205.014" x2="365.49" xlink:href="#lg1" y1="135.183" y2="135.183"/><linearGradient id="lg2"><stop offset="0" stop-color="#d7d1eb"/><stop offset="1" stop-color="#f2effa"/></linearGradient><linearGradient id="SVGID_00000053532156077299879180000014955740050525591989_" gradientUnits="userSpaceOnUse" x1="151.848" x2="360.304" xlink:href="#lg2" y1="19.417" y2="139.769"/><linearGradient id="SVGID_00000083772235663858470360000015126654407436789382_" gradientUnits="userSpaceOnUse" x1="164.434" x2="681.844" xlink:href="#lg2" y1="26.684" y2="325.411"/><linearGradient id="SVGID_00000070824010458999366330000013760003819342805403_" gradientUnits="userSpaceOnUse" x1="145.735" x2="273.676" y1="79.529" y2="79.529"><stop offset="0" stop-color="#a996eb"/><stop offset="1" stop-color="#d7d1eb"/></linearGradient><linearGradient id="SVGID_00000124149445306079535460000004153659079925710485_" gradientUnits="userSpaceOnUse" x1="155.15" x2="288.098" xlink:href="#lg2" y1="-12.802" y2="63.956"/><g><path d="m393.935 67.885-275.705 22.2v354.029l.09-.008c.123 18.166 11.088 35.501 33.546 48.467 49.843 28.776 136.904 25.169 194.459-8.061 31.621-18.257 47.653-41.651 47.505-63.805l.099-.008z" fill="url(#SVGID_1_)"/><g><path d="m364.458 157.447-216.754 17.453v240.585l.071-.006c.096 14.282 8.717 27.91 26.373 38.104 39.186 22.623 107.631 19.787 152.881-6.337 24.86-14.353 37.464-32.745 37.348-50.162l.077-.007z" fill="url(#SVGID_00000014609357953935717750000010708509285144940469_)"/></g><path d="m393.83 67.968-275.6 23.406c-.373 3.22 0 43.145 0 43.145l.09-.008c.123 18.166 11.088 35.501 33.546 48.467 49.843 28.776 136.904 25.169 194.459-8.061 31.621-18.257 47.653-41.651 47.505-63.804l.098-.008v-43.145z" fill="url(#SVGID_00000039127088720000339980000013853494098598842019_)"/><path d="m346.325 131.698c57.554-33.228 63.805-83.494 13.961-112.27-49.842-28.778-136.905-25.168-194.459 8.06s-63.805 83.494-13.961 112.27c49.843 28.778 136.905 25.169 194.459-8.06z" fill="url(#SVGID_00000053532156077299879180000014955740050525591989_)"/><path d="m335.427 125.406c50.604-29.216 56.1-73.411 12.275-98.713-43.824-25.303-120.373-22.129-170.977 7.087s-56.1 73.412-12.275 98.713c43.824 25.302 120.373 22.13 170.977-7.087z" fill="url(#SVGID_00000083772235663858470360000015126654407436789382_)"/><path d="m325.858 39.177-139.56 12.928v33.413l.046-.004c.062 9.196 5.613 17.97 16.98 24.533 25.23 14.566 69.299 12.74 98.434-4.08 16.006-9.241 24.121-21.084 24.046-32.297l.05-.004z" fill="url(#SVGID_00000070824010458999366330000013760003819342805403_)"/><path d="m301.758 71.842c29.133-16.82 32.297-42.264 7.067-56.83-25.23-14.567-69.3-12.74-98.434 4.08-29.133 16.82-32.297 42.264-7.067 56.83 25.231 14.567 69.3 12.74 98.434-4.08z" fill="url(#SVGID_00000124149445306079535460000004153659079925710485_)"/></g></svg>