<svg id="Capa_1" enable-background="new 0 0 512 512" height="512" viewBox="0 0 512 512" width="512" xmlns="http://www.w3.org/2000/svg" xmlns:xlink="http://www.w3.org/1999/xlink"><linearGradient id="SVGID_1_" gradientUnits="userSpaceOnUse" x1="176.594" x2="203.696" y1="232.574" y2="185.631"><stop offset="0" stop-color="#221c36"/><stop offset="1" stop-color="#43386b"/></linearGradient><linearGradient id="SVGID_00000026858605545174984780000001782667844931469480_" gradientTransform="matrix(.866 -.5 0 1.155 119.167 598.295)" gradientUnits="userSpaceOnUse" x1="176.577" x2="176.577" y1="-12.222" y2="-356.152"><stop offset="0" stop-color="#43386b"/><stop offset="1" stop-color="#594a8e"/></linearGradient><linearGradient id="lg1"><stop offset="0" stop-color="#a996eb"/><stop offset="1" stop-color="#d7d1eb"/></linearGradient><linearGradient id="SVGID_00000146460258507784758410000017089489836427352963_" gradientUnits="userSpaceOnUse" x1="193.773" x2="193.773" xlink:href="#lg1" y1="409.988" y2="208.902"/><linearGradient id="SVGID_00000048481758908824989550000005501050208038828958_" gradientUnits="userSpaceOnUse" x1="358.311" x2="358.311" xlink:href="#lg1" y1="338.402" y2="137.376"/><linearGradient id="SVGID_00000092453733088738558930000010379649206912524469_" gradientUnits="userSpaceOnUse" x1="278.617" x2="278.617" xlink:href="#lg1" y1="387.635" y2="162.222"/><linearGradient id="lg2"><stop offset="0" stop-color="#d7d1eb"/><stop offset="1" stop-color="#f2effa"/></linearGradient><linearGradient id="SVGID_00000049921476775627793250000016023528929266065336_" gradientTransform="matrix(.866 -.5 0 1.155 119.823 408.395)" gradientUnits="userSpaceOnUse" x1="100.946" x2="100.946" xlink:href="#lg2" y1="55.926" y2="-104.039"/><linearGradient id="SVGID_00000149377078792843796130000000644578047262668689_" gradientTransform="matrix(.866 -.5 0 1.155 119.823 408.395)" gradientUnits="userSpaceOnUse" x1="300.71" x2="300.71" xlink:href="#lg2" y1="55.928" y2="-104.037"/><linearGradient id="SVGID_00000174559669708695430170000003598347166854674816_" gradientTransform="matrix(.866 -.5 0 1.155 119.823 408.395)" gradientUnits="userSpaceOnUse" x1="198.892" x2="198.892" xlink:href="#lg2" y1="55.927" y2="-104.037"/><g><path d="m415.702 21.364-33.48-19.214c-5.985-3.296-13.714-2.923-22.167 1.958l-240.277 138.723c-18.972 10.955-34.354 40.344-34.354 65.642v254.992c0 13.693 4.529 23.333 11.672 27.603l31.74 18.237z" fill="url(#SVGID_1_)"/><path d="m392.22 22.547-240.275 138.723c-18.974 10.955-34.355 40.344-34.355 65.642v254.993c0 25.299 15.381 36.927 34.355 25.972l240.275-138.722c18.974-10.955 34.355-40.344 34.355-65.642v-254.993c.001-25.299-15.381-36.927-34.355-25.973z" fill="url(#SVGID_00000026858605545174984780000001782667844931469480_)"/><g><path d="m197.339 327.648 44.752-101.181-21.281-12.274c-6.067-4.189-15.654 1.453-21.606 12.827l-49.214 94.032c-6.047 11.555-6.047 24.627 0 29.198l50.124 37.815 21.91 12.683z" fill="url(#SVGID_00000146460258507784758410000017089489836427352963_)"/><path d="m398.17 211.194-32.437-56.363-21.926-12.692.001.003c-6.082-3.128-15.069 2.522-20.744 13.368-6.047 11.554-6.047 24.627 0 29.198l38.264 28.928-38.341 73.258c-6.048 11.554-6.048 24.627 0 29.198.211.159 22.453 13.073 22.453 13.073z" fill="url(#SVGID_00000048481758908824989550000005501050208038828958_)"/><path d="m300.517 167.742s-2.837-1.214-4.563-1.142c-7.934.333-16.953 10.671-20.139 23.094l-39.555 154.177c-2.484 9.68-.68 17.743 3.986 20.684l21.913 12.729 59.934-197.049z" fill="url(#SVGID_00000092453733088738558930000010379649206912524469_)"/></g><g><g><path d="m231.888 399.783c-3.963 2.288-7.925 2.56-10.949.274l-49.291-37.263c-6.048-4.571-6.048-17.644 0-29.198l49.214-94.032c6.046-11.553 15.851-17.215 21.898-12.643 6.048 4.571 6.048 17.644 0 29.198l-38.263 73.111 38.341 28.986c6.048 4.571 6.048 17.644 0 29.198-3.025 5.777-6.987 10.081-10.95 12.369z" fill="url(#SVGID_00000049921476775627793250000016023528929266065336_)"/></g><g><path d="m355.593 328.362c-3.963 2.288-7.925 2.56-10.949.274-6.047-4.572-6.047-17.644 0-29.198l38.341-73.258-38.263-28.928c-6.048-4.572-6.048-17.644 0-29.198 6.047-11.554 15.852-17.215 21.898-12.643l49.214 37.205c6.048 4.572 6.048 17.644 0 29.198l-49.291 94.179c-3.024 5.777-6.987 10.08-10.95 12.369z" fill="url(#SVGID_00000149377078792843796130000000644578047262668689_)"/></g><g><path d="m272.281 376.467c-1.922 1.109-3.874 1.757-5.766 1.836-7.936.333-11.786-9.467-8.599-21.888l39.555-154.177c3.187-12.422 12.206-22.761 20.139-23.094 7.936-.333 11.786 9.467 8.599 21.889l-39.554 154.177c-2.427 9.46-8.237 17.714-14.374 21.257z" fill="url(#SVGID_00000174559669708695430170000003598347166854674816_)"/></g></g></g></svg>