<svg id="Capa_1" enable-background="new 0 0 512 512" height="512" viewBox="0 0 512 512" width="512" xmlns="http://www.w3.org/2000/svg" xmlns:xlink="http://www.w3.org/1999/xlink"><radialGradient id="SVGID_1_" cx="762.685" cy="-106.075" gradientTransform="matrix(.978 -.207 -.207 -.978 -477.019 208.314)" gradientUnits="userSpaceOnUse" r="236.293"><stop offset="0" stop-color="#79d3fe"/><stop offset="1" stop-color="#2f97f7"/></radialGradient><linearGradient id="lg1"><stop offset="0" stop-color="#06daae"/><stop offset=".2214" stop-color="#0ccda8"/><stop offset=".6285" stop-color="#1dab9a"/><stop offset="1" stop-color="#2f878a"/></linearGradient><radialGradient id="SVGID_2_" cx="279.712" cy="358.144" gradientTransform="matrix(1 0 0 -1 0 514)" gradientUnits="userSpaceOnUse" r="597.269" xlink:href="#lg1"/><radialGradient id="SVGID_3_" cx="119.591" cy="470.504" gradientTransform="matrix(1 0 0 -1 0 514)" gradientUnits="userSpaceOnUse" r="64.4" xlink:href="#lg1"/><radialGradient id="SVGID_4_" cx="289.598" cy="125.812" gradientTransform="matrix(1 0 0 -1 0 514)" gradientUnits="userSpaceOnUse" r="228.505" xlink:href="#lg1"/><radialGradient id="SVGID_5_" cx="304.197" cy="378.198" gradientTransform="matrix(1 0 0 -1 0 514)" gradientUnits="userSpaceOnUse" r="769.089" xlink:href="#lg1"/><linearGradient id="lg2"><stop offset="0" stop-color="#ab2c37"/><stop offset="1" stop-color="#ff7a85"/></linearGradient><linearGradient id="SVGID_6_" gradientTransform="matrix(1.155 .5 0 -.866 -119.059 83.006)" gradientUnits="userSpaceOnUse" x1="182.296" x2="182.296" xlink:href="#lg2" y1="-321.829" y2="-3.215"/><linearGradient id="SVGID_7_" gradientTransform="matrix(1.155 .5 0 -.866 -119.059 83.006)" gradientUnits="userSpaceOnUse" x1="476.724" x2="476.724" xlink:href="#lg2" y1="120.14" y2="438.754"/><g><circle cx="256" cy="256" fill="url(#SVGID_1_)" r="255.948"/><path d="m506.419 203.091c-23.882-113.035-118.963-192.738-228.412-202.142l-51.781 40.195-14.44-33.802 25.671 3.234c.424-3.367.309-6.676-.272-9.845-11.31.848-22.693 2.441-34.095 4.85-19.936 4.212-38.828 10.651-56.488 18.98 7.825 2.577 12.992 10.4 11.924 18.88l-2.258 17.922 29.92-7.056c1.552 6.933-2.924 13.78-9.898 15.137l-24.09 4.691c-2.292 18.19-18.896 31.079-37.085 28.788l-6.782-.855 2.074-16.468c-7.936-1-15.179 4.624-16.179 12.56l-.264 2.099-4.198-.529c-16.407-2.067-31.382 9.558-33.449 25.965l-18.406-2.318-.163 1.29c-1.393 11.057 6.442 21.15 17.498 22.543-.943 7.49-7.78 12.797-15.271 11.854l-19.825-2.498c-2.482 5.874-4.748 11.846-6.791 17.907.731.26 1.498.452 2.3.553-1.668 13.242 7.714 25.328 20.956 26.996 6.019.758 11.513-3.507 12.271-9.526l1.281-10.172c12.127 1.527 23.196-7.065 24.723-19.192l.285-2.26 21.958 2.766c-1.55 12.306 7.169 23.537 19.474 25.087l6.781.854-1.22 9.687-4.254.512c-5.561.668-9.321 6.004-8.08 11.466l24.236-4.902 4.678-37.135c6.159.776 10.639 6.228 10.207 12.422l-.985 14.094c-.691 9.882 3.649 19.446 11.542 25.432l3.332 2.528 10.019-15.407c10.872 11.917 27.297 17.093 43.037 13.562l3.576-.802 2.571 10.875c2.247 9.505-3.611 19.038-13.105 21.327l-17.677 4.264-35.859-27.199c-12.444 10.174-29.797 11.833-43.944 4.202l-14.71-7.934 3.797-23.632-96.229 10.024c-.201 4.132-1.039 8.107-2.418 11.828-3.355 27.331-2.332 55.671 3.678 84.119 4.259 20.156 10.796 39.244 19.26 57.072 3.055.036 6.134-.077 9.23-.38l16.671-1.638 6.465 15.084c8.946.042 16.149 7.357 16.052 16.303l-.289 26.523 11.669 8.85 3.143 18.187c32.732 28.499 72.463 48.505 115.433 57.584l9.346-7.255 7.046-55.943 65.599-50.922c6.836-5.306 3.844-16.229-4.743-17.311l-16.271-2.05c-13.728-1.729-25.356-10.95-30.166-23.925l-23.636-63.747c-3.354-9.046 1.014-19.129 9.907-22.872l29.145 70.921-2.318 18.406c9.037 6.855 21.303 7.621 31.123 1.945l60.1-34.738-1.623-2.232c-9.766-13.436-28.562-16.438-42.027-6.71l-8.255-10.635c-9.352-12.048-7.167-29.397 4.881-38.748l8.062 10.386c14.228 18.328 36.83 28.126 59.934 25.979l23.919 30.813 16.711 2.105-2.837 22.523 14.182 18.27-4.85 38.507c15.382 1.938 29.421-8.961 31.359-24.343l2.593-20.585c13.375 1.685 25.584-7.792 27.268-21.168l.977-7.749 23.249 2.929-.61 4.844c-.516 4.097-.23 8.108.721 11.884 19.526-46.397 25.613-99.003 14.419-151.983z" fill="url(#SVGID_2_)"/><path d="m138.705 60.171 4.266-33.867c-18.694 9.182-35.951 20.517-51.533 33.618 6.546 1.989 13.768 1.783 20.483-1.042l1.476-.621-3.01 23.895c13.89 1.749 26.569-8.092 28.318-21.983z" fill="url(#SVGID_3_)"/><path d="m247.647 506.987c-6.156-2.302-12.489-.404-16.533 3.807 11.709 1.141 23.589 1.466 35.57.951 1.258-6.071.973-12.5-1.11-18.673z" fill="url(#SVGID_4_)"/><path d="m420.664 419.417 4.092 5.272c3.82 4.92 10.904 5.812 15.823 1.993l-6.209-7.999 4.726-3.668c3.464-2.689 4.092-7.677 1.403-11.141z" fill="url(#SVGID_5_)"/><g fill="#fff"><path d="m106.72 396.06c-.43-2.73 1.43-5.29 4.16-5.72 2.729-.43 5.28 1.43 5.72 4.16.42 2.73-1.439 5.29-4.17 5.72-.26.04-.519.06-.78.06-2.421 0-4.541-1.76-4.93-4.22zm20.16-3.42c-.55-2.71 1.189-5.35 3.89-5.91 2.71-.55 5.351 1.19 5.91 3.89.55 2.71-1.189 5.35-3.899 5.91-.341.07-.671.1-1.011.1-2.32 0-4.4-1.63-4.89-3.99zm19.979-4.35c-.68-2.68.94-5.4 3.61-6.08 2.68-.68 5.4.93 6.08 3.61.68 2.67-.93 5.4-3.61 6.08-.409.1-.83.15-1.23.15-2.239 0-4.27-1.5-4.85-3.76zm19.761-5.29c-.811-2.64.68-5.43 3.319-6.24 2.641-.81 5.44.68 6.24 3.32.811 2.64-.68 5.43-3.32 6.24-.489.15-.98.22-1.46.22-2.139 0-4.119-1.39-4.779-3.54zm19.48-6.21c-.93-2.6.42-5.46 3.03-6.39 2.6-.94 5.46.42 6.39 3.02.931 2.6-.42 5.46-3.02 6.39-.561.2-1.13.29-1.69.29-2.05 0-3.97-1.27-4.71-3.31zm19.18-7.13c-1.061-2.55.159-5.47 2.71-6.52 2.56-1.06 5.479.16 6.529 2.71 1.061 2.55-.16 5.48-2.71 6.53-.63.26-1.27.38-1.91.38-1.96 0-3.83-1.17-4.619-3.1zm18.81-8.02c-1.17-2.5-.09-5.47 2.41-6.64 2.51-1.18 5.479-.1 6.649 2.4 1.17 2.51.091 5.48-2.409 6.65-.681.32-1.4.47-2.11.47-1.88 0-3.691-1.06-4.54-2.88zm18.429-8.89c-1.29-2.44-.35-5.46 2.101-6.75 2.439-1.28 5.47-.34 6.75 2.1 1.279 2.45.35 5.47-2.101 6.76-.739.38-1.54.57-2.319.57-1.801 0-3.54-.97-4.431-2.68zm18-9.72c-1.399-2.39-.59-5.45 1.79-6.84 2.38-1.4 5.44-.6 6.84 1.79 1.391 2.38.591 5.44-1.79 6.84-.8.46-1.67.68-2.52.68-1.719 0-3.389-.88-4.32-2.47zm17.541-10.54c-1.5-2.32-.84-5.41 1.48-6.91 2.319-1.5 5.42-.83 6.92 1.49 1.49 2.32.83 5.41-1.49 6.91-.84.54-1.78.8-2.71.8-1.64 0-3.241-.81-4.2-2.29zm17.06-11.3c-1.601-2.25-1.07-5.37 1.18-6.97 2.25-1.6 5.37-1.07 6.97 1.18 1.601 2.25 1.07 5.37-1.18 6.97-.88.63-1.89.93-2.89.93-1.57 0-3.11-.73-4.08-2.11zm16.55-12.03c-1.7-2.18-1.3-5.32.88-7.02 2.18-1.69 5.32-1.3 7.02.88 1.691 2.19 1.29 5.33-.88 7.02-.92.71-2 1.05-3.069 1.05-1.491 0-2.972-.66-3.951-1.93zm16.019-12.73c-1.779-2.11-1.52-5.26.591-7.04 2.109-1.79 5.26-1.53 7.05.58 1.779 2.11 1.52 5.27-.59 7.05-.94.79-2.091 1.18-3.23 1.18-1.42 0-2.83-.6-3.821-1.77zm15.491-13.38c-1.87-2.04-1.74-5.2.3-7.07 2.03-1.87 5.19-1.73 7.06.3 1.87 2.03 1.729 5.2-.3 7.07s0 0 0-.01c-.96.89-2.171 1.32-3.381 1.32-1.349 0-2.689-.54-3.679-1.61zm14.929-14.01c-1.949-1.96-1.949-5.12.011-7.07 1.949-1.95 5.12-1.94 7.069.01 1.95 1.96 1.94 5.12-.01 7.07-.979.97-2.26 1.46-3.53 1.46-1.29 0-2.569-.49-3.54-1.47zm14.351-14.6c-2.03-1.87-2.15-5.04-.271-7.06 1.87-2.03 5.04-2.15 7.07-.27 2.02 1.88 2.14 5.04.26 7.06-.979 1.07-2.319 1.6-3.66 1.6-1.219 0-2.439-.44-3.399-1.33zm13.76-15.16c-2.1-1.79-2.34-4.95-.55-7.05 1.79-2.1 4.95-2.34 7.05-.55 2.1 1.8 2.34 4.96.55 7.05-.989 1.16-2.39 1.75-3.8 1.75-1.151 0-2.31-.39-3.25-1.2zm13.15-15.69c-2.17-1.71-2.551-4.85-.841-7.03 1.711-2.16 4.86-2.54 7.02-.83 2.17 1.71 2.55 4.85.84 7.02-.99 1.26-2.45 1.91-3.93 1.91-1.089 0-2.18-.35-3.089-1.07zm12.5-16.23c-2.24-1.61-2.75-4.73-1.141-6.98 1.62-2.23 4.75-2.74 6.99-1.12 2.23 1.61 2.74 4.73 1.13 6.97-.979 1.36-2.51 2.08-4.06 2.08-1.02 0-2.039-.31-2.919-.95zm11.79-16.75c-2.32-1.51-2.971-4.6-1.46-6.92 1.51-2.31 4.6-2.96 6.92-1.46 2.31 1.51 2.96 4.61 1.46 6.92-.96 1.47-2.561 2.27-4.2 2.27-.93 0-1.88-.26-2.72-.81z"/><circle cx="91.435" cy="397.995" r="4.995"/><circle cx="436.99" cy="168.932" r="4.995"/></g><path d="m141.544 352.15c7.868-11.175 12.111-25.087 10.963-40.038-2.314-30.142-26.991-54.439-57.164-56.31-35.599-2.208-65.16 26.011-65.16 61.133 0 13.112 4.133 25.251 11.149 35.215l32.229 49.795c8.391 12.965 27.361 12.965 35.753 0z" fill="url(#SVGID_6_)"/><ellipse cx="91.445" cy="316.963" fill="#fff" rx="39.191" ry="39.191"/><path d="m481.521 116.62c7.868-11.175 12.111-25.087 10.963-40.038-2.314-30.142-26.991-54.439-57.164-56.31-35.599-2.208-65.16 26.011-65.16 61.133 0 13.112 4.133 25.251 11.149 35.215l32.229 49.795c8.392 12.965 27.361 12.965 35.753 0z" fill="url(#SVGID_7_)"/><ellipse cx="431.411" cy="81.433" fill="#fff" rx="39.19" ry="39.19"/></g></svg>