<svg id="Capa_1" enable-background="new 0 0 512 512" height="512" viewBox="0 0 512 512" width="512" xmlns="http://www.w3.org/2000/svg" xmlns:xlink="http://www.w3.org/1999/xlink"><linearGradient id="lg1"><stop offset="0" stop-color="#c9baec"/><stop offset=".1095" stop-color="#cdbfed"/><stop offset=".2365" stop-color="#d7cdef"/><stop offset=".3667" stop-color="#e8e3f3"/><stop offset="1" stop-color="#f3eefa"/></linearGradient><linearGradient id="SVGID_1_" gradientTransform="matrix(-1 0 0 1 512 0)" gradientUnits="userSpaceOnUse" x1="361.593" x2="342.049" xlink:href="#lg1" y1="147.064" y2="113.214"/><linearGradient id="SVGID_2_" gradientTransform="matrix(-1 0 0 1 512 0)" gradientUnits="userSpaceOnUse" x1="417.166" x2="397.623" xlink:href="#lg1" y1="179.238" y2="145.388"/><linearGradient id="SVGID_3_" gradientTransform="matrix(-1 0 0 1 512 0)" gradientUnits="userSpaceOnUse" x1="472.74" x2="453.196" xlink:href="#lg1" y1="211.412" y2="177.562"/><linearGradient id="SVGID_4_" gradientUnits="userSpaceOnUse" x1="361.593" x2="342.049" xlink:href="#lg1" y1="147.064" y2="113.214"/><linearGradient id="SVGID_5_" gradientUnits="userSpaceOnUse" x1="417.166" x2="397.623" xlink:href="#lg1" y1="179.238" y2="145.388"/><linearGradient id="SVGID_6_" gradientUnits="userSpaceOnUse" x1="472.74" x2="453.196" xlink:href="#lg1" y1="211.412" y2="177.562"/><linearGradient id="lg2"><stop offset="0" stop-color="#45356d"/><stop offset=".2699" stop-color="#544081"/><stop offset="1" stop-color="#b096ed"/></linearGradient><linearGradient id="SVGID_7_" gradientUnits="userSpaceOnUse" x1="219.332" x2="285.993" xlink:href="#lg2" y1="304.147" y2="304.147"/><linearGradient id="lg3"><stop offset="0" stop-color="#45356d"/><stop offset=".2699" stop-color="#544081"/><stop offset="1" stop-color="#7e62c0"/></linearGradient><linearGradient id="SVGID_8_" gradientUnits="userSpaceOnUse" x1="43.656" x2="503.593" xlink:href="#lg3" y1="342.717" y2="77.173"/><linearGradient id="SVGID_9_" gradientUnits="userSpaceOnUse" x1="225.961" x2="280.474" xlink:href="#lg2" y1="260.226" y2="260.226"/><linearGradient id="SVGID_10_" gradientUnits="userSpaceOnUse" x1="82.297" x2="392.474" xlink:href="#lg3" y1="307.436" y2="128.356"/><linearGradient id="SVGID_11_" gradientUnits="userSpaceOnUse" x1="64.714" x2="45.171" xlink:href="#lg1" y1="318.532" y2="284.681"/><linearGradient id="lg4"><stop offset="0" stop-color="#c9baec"/><stop offset=".5566" stop-color="#e8e3f3"/><stop offset="1" stop-color="#e8e3f3"/></linearGradient><linearGradient id="SVGID_12_" gradientUnits="userSpaceOnUse" x1="20.624" x2="-4.433" xlink:href="#lg4" y1="317.86" y2="361.26"/><linearGradient id="SVGID_13_" gradientUnits="userSpaceOnUse" x1="120.288" x2="100.744" xlink:href="#lg1" y1="350.706" y2="316.856"/><linearGradient id="SVGID_14_" gradientUnits="userSpaceOnUse" x1="76.198" x2="51.141" xlink:href="#lg4" y1="350.034" y2="393.434"/><linearGradient id="SVGID_15_" gradientUnits="userSpaceOnUse" x1="175.862" x2="156.318" xlink:href="#lg1" y1="382.881" y2="349.03"/><linearGradient id="SVGID_16_" gradientUnits="userSpaceOnUse" x1="131.771" x2="106.714" xlink:href="#lg4" y1="382.209" y2="425.608"/><linearGradient id="SVGID_17_" gradientTransform="matrix(-1 0 0 1 512 0)" gradientUnits="userSpaceOnUse" x1="64.714" x2="45.171" xlink:href="#lg1" y1="318.532" y2="284.681"/><linearGradient id="SVGID_18_" gradientTransform="matrix(-1 0 0 1 512 0)" gradientUnits="userSpaceOnUse" x1="20.624" x2="-4.433" xlink:href="#lg4" y1="317.86" y2="361.26"/><linearGradient id="SVGID_19_" gradientTransform="matrix(-1 0 0 1 512 0)" gradientUnits="userSpaceOnUse" x1="120.288" x2="100.744" xlink:href="#lg1" y1="350.706" y2="316.856"/><linearGradient id="SVGID_20_" gradientTransform="matrix(-1 0 0 1 512 0)" gradientUnits="userSpaceOnUse" x1="76.198" x2="51.141" xlink:href="#lg4" y1="350.034" y2="393.434"/><linearGradient id="SVGID_21_" gradientTransform="matrix(-1 0 0 1 512 0)" gradientUnits="userSpaceOnUse" x1="175.862" x2="156.318" xlink:href="#lg1" y1="382.88" y2="349.03"/><linearGradient id="SVGID_22_" gradientTransform="matrix(-1 0 0 1 512 0)" gradientUnits="userSpaceOnUse" x1="131.771" x2="106.714" xlink:href="#lg4" y1="382.209" y2="425.608"/><g><g><g><path d="m113.998 106.432 18.167-10.489c.749-.432 1.589-.353 2.23.049l.003-.005 79.657 45.982-22.066 38.297-79.758-46.044s0 0-.001 0l-.004-.002c-.63-.366-1.08-1.042-1.08-1.874v-20.977c.001-2.037 1.088-3.919 2.852-4.937z" fill="url(#SVGID_1_)"/></g><g><path d="m58.424 138.606 18.167-10.489c.749-.432 1.589-.353 2.23.049l.002-.005 79.657 45.982-22.066 38.297-79.758-46.044s0 0-.001 0l-.003-.002c-.63-.366-1.08-1.042-1.08-1.874v-20.977c.002-2.037 1.088-3.919 2.852-4.937z" fill="url(#SVGID_2_)"/></g><g><path d="m2.851 170.78 18.167-10.489c.749-.432 1.589-.353 2.23.049l.002-.005 79.657 45.982-22.066 38.297-79.757-46.044s0 0-.001 0l-.003-.002c-.63-.366-1.08-1.042-1.08-1.874v-20.977c0-2.037 1.087-3.919 2.851-4.937z" fill="url(#SVGID_3_)"/></g></g><g><g><path d="m398.002 106.432-18.167-10.489c-.749-.432-1.59-.353-2.23.049l-.002-.005-79.657 45.982 22.066 38.297 79.758-46.044h.001l.003-.002c.63-.366 1.08-1.042 1.08-1.874v-20.977c-.001-2.037-1.088-3.919-2.852-4.937z" fill="url(#SVGID_4_)"/></g><g><path d="m453.576 138.606-18.167-10.489c-.749-.432-1.589-.353-2.23.049l-.002-.005-79.657 45.982 22.066 38.297 79.758-46.044h.001l.003-.002c.63-.366 1.08-1.042 1.08-1.874v-20.977c-.002-2.037-1.088-3.919-2.852-4.937z" fill="url(#SVGID_5_)"/></g><g><path d="m509.149 170.78-18.167-10.489c-.749-.432-1.589-.353-2.23.049l-.003-.005-79.657 45.982 22.066 38.297 79.758-46.044h.001l.003-.002c.63-.366 1.08-1.042 1.08-1.874v-20.977c0-2.037-1.087-3.919-2.851-4.937z" fill="url(#SVGID_6_)"/></g></g><path d="m56.103 220.935v48.107c0 5.583 2.763 11.165 8.288 14.355l172.414 99.543c11.696 6.753 26.106 6.753 37.802 0l172.414-99.543c5.525-3.19 8.288-8.773 8.288-14.355v-48.752z" fill="url(#SVGID_7_)"/><path d="m64.391 205.935 172.414-99.543c11.696-6.753 26.106-6.753 37.802 0l172.414 99.543c11.051 6.38 11.051 22.33 0 28.71l-172.414 99.543c-11.696 6.753-26.106 6.753-37.802 0l-172.414-99.543c-11.051-6.38-11.051-22.33 0-28.71z" fill="url(#SVGID_8_)"/><g><path d="m92.476 207.846v8.002c0 4.565 2.259 9.131 6.778 11.739l140.996 81.404c9.565 5.522 21.349 5.522 30.914 0l140.996-81.404c4.518-2.609 6.778-7.174 6.778-11.739v-8.529z" fill="url(#SVGID_9_)"/><path d="m99.253 195.579 140.996-81.404c9.565-5.522 21.349-5.522 30.914 0l140.996 81.404c9.037 5.217 9.037 18.261 0 23.479l-140.996 81.404c-9.565 5.522-21.349 5.522-30.914 0l-140.996-81.404c-9.037-5.218-9.037-18.261 0-23.479z" fill="url(#SVGID_10_)"/></g><g><path d="m101.124 277.9-18.167-10.489c-.749-.432-1.589-.353-2.23.049l-.002-.005-79.658 45.982 22.066 38.297 79.758-46.044h.001l.003-.002c.63-.366 1.08-1.042 1.08-1.874v-20.977c-.001-2.037-1.087-3.919-2.851-4.937z" fill="url(#SVGID_11_)"/><path d="m0 336.28v-20.977c0-1.668 1.805-2.71 3.25-1.876l18.167 10.489c1.764 1.018 2.851 2.9 2.851 4.937v20.977c0 1.668-1.805 2.71-3.25 1.876l-18.167-10.489c-1.764-1.018-2.851-2.9-2.851-4.937z" fill="url(#SVGID_12_)"/></g><g><path d="m156.697 310.074-18.167-10.489c-.749-.432-1.589-.353-2.23.049l-.002-.005-79.657 45.982 22.066 38.297 79.758-46.044h.001l.003-.002c.63-.366 1.08-1.042 1.08-1.874v-20.977c-.001-2.037-1.088-3.919-2.852-4.937z" fill="url(#SVGID_13_)"/><path d="m55.574 368.454v-20.977c0-1.668 1.805-2.71 3.25-1.876l18.167 10.489c1.764 1.018 2.851 2.9 2.851 4.937v20.977c0 1.668-1.805 2.71-3.25 1.876l-18.167-10.489c-1.765-1.018-2.851-2.9-2.851-4.937z" fill="url(#SVGID_14_)"/></g><g><path d="m212.271 342.248-18.167-10.489c-.749-.432-1.59-.353-2.23.049l-.002-.005-79.657 45.982 22.066 38.297 79.758-46.044h.001l.003-.002c.63-.366 1.08-1.042 1.08-1.874v-20.977c-.001-2.037-1.088-3.919-2.852-4.937z" fill="url(#SVGID_15_)"/><path d="m111.147 400.628v-20.977c0-1.668 1.805-2.71 3.25-1.876l18.167 10.488c1.764 1.018 2.85 2.901 2.85 4.937v20.977c0 1.668-1.805 2.71-3.25 1.876l-18.167-10.489c-1.763-1.017-2.85-2.899-2.85-4.936z" fill="url(#SVGID_16_)"/></g><g><path d="m410.876 277.9 18.167-10.489c.749-.432 1.589-.353 2.23.049l.002-.005 79.657 45.982-22.066 38.297-79.758-46.044h-.001l-.004-.002c-.63-.366-1.08-1.042-1.08-1.874v-20.977c.003-2.037 1.089-3.919 2.853-4.937z" fill="url(#SVGID_17_)"/><path d="m512 336.28v-20.977c0-1.668-1.805-2.71-3.25-1.876l-18.167 10.489c-1.764 1.018-2.85 2.9-2.85 4.937v20.977c0 1.668 1.805 2.71 3.25 1.876l18.167-10.489c1.763-1.018 2.85-2.9 2.85-4.937z" fill="url(#SVGID_18_)"/></g><g><path d="m355.303 310.074 18.167-10.489c.749-.432 1.589-.353 2.23.049l.002-.005 79.657 45.982-22.066 38.297-79.758-46.044s0 0-.001 0l-.003-.002c-.63-.366-1.08-1.042-1.08-1.874v-20.977c.001-2.037 1.088-3.919 2.852-4.937z" fill="url(#SVGID_19_)"/><path d="m456.426 368.454v-20.977c0-1.668-1.805-2.71-3.25-1.876l-18.167 10.489c-1.764 1.018-2.85 2.9-2.85 4.937v20.977c0 1.668 1.805 2.71 3.25 1.876l18.167-10.489c1.764-1.018 2.85-2.9 2.85-4.937z" fill="url(#SVGID_20_)"/></g><g><path d="m299.729 342.248 18.167-10.489c.749-.432 1.589-.353 2.23.049l.003-.005 79.657 45.982-22.066 38.297-79.758-46.044s0 0-.001 0l-.004-.002c-.63-.366-1.08-1.042-1.08-1.874v-20.977c.001-2.037 1.088-3.919 2.852-4.937z" fill="url(#SVGID_21_)"/><path d="m400.853 400.628v-20.977c0-1.668-1.805-2.71-3.25-1.876l-18.167 10.488c-1.764 1.018-2.851 2.901-2.851 4.937v20.977c0 1.668 1.805 2.71 3.25 1.876l18.167-10.489c1.764-1.017 2.851-2.899 2.851-4.936z" fill="url(#SVGID_22_)"/></g></g></svg>