<svg id="Capa_1" enable-background="new 0 0 512 512" height="512" viewBox="0 0 512 512" width="512" xmlns="http://www.w3.org/2000/svg" xmlns:xlink="http://www.w3.org/1999/xlink"><linearGradient id="lg1"><stop offset="0" stop-color="#7e62c0"/><stop offset=".4057" stop-color="#b096ed"/><stop offset=".9916" stop-color="#d9d1ec"/></linearGradient><linearGradient id="SVGID_1_" gradientUnits="userSpaceOnUse" x1="202.234" x2="137.076" xlink:href="#lg1" y1="373.438" y2="257.907"/><linearGradient id="SVGID_2_" gradientUnits="userSpaceOnUse" x1="260.728" x2="286.666" xlink:href="#lg1" y1="319.188" y2="274.262"/><linearGradient id="SVGID_3_" gradientUnits="userSpaceOnUse" x1="224.552" x2="277.805" xlink:href="#lg1" y1="250.628" y2="158.39"/><linearGradient id="SVGID_4_" gradientUnits="userSpaceOnUse" x1="35.056" x2="107.086" xlink:href="#lg1" y1="402.478" y2="277.718"/><linearGradient id="SVGID_5_" gradientUnits="userSpaceOnUse" x1="224.471" x2="112.126" y1="427.711" y2="143.321"><stop offset="0" stop-color="#e1daef"/><stop offset="1" stop-color="#fff"/></linearGradient><linearGradient id="SVGID_6_" gradientUnits="userSpaceOnUse" x1="405.164" x2="461.987" y1="160.52" y2="62.101"><stop offset="0" stop-color="#c62834"/><stop offset=".1949" stop-color="#c92a36"/><stop offset=".3546" stop-color="#d32f3c"/><stop offset=".5017" stop-color="#e53847"/><stop offset=".6406" stop-color="#fc4455"/><stop offset=".6531" stop-color="#ff4557"/><stop offset=".8422" stop-color="#ff7b86"/></linearGradient><linearGradient id="SVGID_7_" gradientTransform="matrix(.866 -.5 0 1.155 -223.152 -376.565)" gradientUnits="userSpaceOnUse" x1="780.411" x2="780.411" y1="879.175" y2="726.629"><stop offset="0" stop-color="#ff4557"/><stop offset="1" stop-color="#ff7b86"/></linearGradient><g><g><g><path d="m277.981 269.531c-2.945-1.604-7.224.608-10.417 5.466-8.936 13.6-20.063 23.486-31.438 27.461-1.482.518-10.115-48.654 20.138-92.38 18.915-27.339 56.344-30.98 56.344-30.98l-34.139-19.743c-.255-.16-.526-.296-.815-.401-10.205-3.696-22.169-1.581-34.134 5.326-16.373 9.453-32.745 27.882-44.609 52.684-6.894 14.413-11.348 29.356-13.384 43.471l-50.058 28.9-4.255-2.718-33.567-19.437-.007.016c-10.335-5.688-23.691-5.016-38.288 3.412-32.779 18.927-59.352 69.7-59.352 113.405 0 24.209 8.162 41.153 21.006 48.253l-.006.014 34.935 20.17 84.717-117.532s56.32-15.352 58.259-13.537c2.193 2.052 4.541 3.703 7.013 4.98l.002.004 32.707 18.955 29.838-4.38 43.756-51.608-34.245-19.803z" fill="url(#SVGID_1_)"/><path d="m277.982 269.53-.001.001c-2.945-1.604-7.224.608-10.417 5.466-8.936 13.6-20.063 23.486-31.438 27.461-.28.098 9.41 34.644 35.792 34.416l40.309-47.542z" fill="url(#SVGID_2_)"/><path d="m278.469 159.356c-.255-.16-.526-.296-.815-.401-10.205-3.696-22.169-1.581-34.134 5.326-16.373 9.453-32.745 27.882-44.609 52.684-6.894 14.413-11.348 29.356-13.384 43.471l34.084 19.711s10.087-22.225 22.828-43.646c3.307-8.733 7.779-17.684 13.825-26.423 16.07-23.227 45.491-29.345 53.981-30.661.967-.488 1.492-.75 1.492-.75s.013-.022.032-.053z" fill="url(#SVGID_3_)"/><path d="m131.214 286.619-33.567-19.437-.007.016c-10.335-5.688-23.691-5.016-38.288 3.412-32.779 18.925-59.352 69.698-59.352 113.403 0 24.209 8.162 41.153 21.006 48.253l-.006.014 34.935 20.17 84.717-117.532-5.183-45.581z" fill="url(#SVGID_4_)"/></g><g><path d="m312.608 289.591c-2.942-2.224-7.565-.048-10.96 5.117-8.936 13.6-20.064 23.486-31.438 27.461-5.784 2.021-11.315 2.181-16.135.504-24.225-8.427-24.216-55.572.027-91.959 4.821-7.236 10.35-13.457 16.132-18.108 11.277-9.073 22.311-12.054 31.205-8.897 3.53 1.253 8.303-1.987 11.348-7.805v-.001c3.834-7.327 3.383-15.633-1.05-17.238-10.204-3.696-22.169-1.581-34.134 5.326-16.372 9.453-32.745 27.882-44.609 52.684-6.894 14.413-11.348 29.356-13.384 43.47l-68.117 39.327c-5.683-32.52-29.513-45.633-58.057-29.153-32.779 18.925-59.352 69.698-59.352 113.404s26.573 63.795 59.352 44.869c28.544-16.479 52.374-57.108 58.057-96.19l68.118-39.327c2.036 11.764 6.49 21.563 13.385 28.015 11.864 11.103 28.236 10.626 44.608 1.174 13.574-7.837 25.865-23.153 33.587-34.26 4.569-6.573 5.263-15.505 1.417-18.413z" fill="url(#SVGID_5_)"/></g></g><path d="m490.992 79.882-34.307-19.821c-10.351-5.771-23.757-5.134-38.415 3.328-32.759 18.914-59.315 69.655-59.315 113.334 0 24.723 8.513 41.875 21.838 48.684l33.431 19.388z" fill="url(#SVGID_6_)"/><path d="m512 128.135c0-43.679-26.556-63.755-59.315-44.842s-59.316 69.655-59.316 113.333c0 43.679 26.557 63.755 59.316 44.842s59.315-69.654 59.315-113.333z" fill="url(#SVGID_7_)"/></g></svg>