<svg id="Capa_1" enable-background="new 0 0 512 512" height="512" viewBox="0 0 512 512" width="512" xmlns="http://www.w3.org/2000/svg" xmlns:xlink="http://www.w3.org/1999/xlink"><linearGradient id="SVGID_1_" gradientUnits="userSpaceOnUse" x1="168.326" x2="199.797" y1="249.325" y2="194.815"><stop offset=".0319" stop-color="#b096ed"/><stop offset=".1442" stop-color="#b9a3ee"/><stop offset=".5109" stop-color="#d4c7f3"/><stop offset=".8092" stop-color="#e4ddf5"/><stop offset="1" stop-color="#eae5f6"/></linearGradient><linearGradient id="lg1"><stop offset="0" stop-color="#e1daef"/><stop offset="1" stop-color="#fff"/></linearGradient><linearGradient id="SVGID_00000180364324301574113960000008350051993858693800_" gradientUnits="userSpaceOnUse" x1="271.136" x2="271.136" xlink:href="#lg1" y1="521.951" y2="176.19"/><linearGradient id="lg2"><stop offset="0" stop-color="#45356d"/><stop offset=".2699" stop-color="#544081"/><stop offset="1" stop-color="#7e62c0"/></linearGradient><linearGradient id="SVGID_00000132075498822817554540000014769920855289496238_" gradientTransform="matrix(.866 -.5 0 1.155 164.411 560.544)" gradientUnits="userSpaceOnUse" x1="58.524" x2="58.524" xlink:href="#lg2" y1="-113.604" y2="-279.582"/><linearGradient id="SVGID_00000177442514561020232370000002022364497492467388_" gradientUnits="userSpaceOnUse" x1="174.411" x2="190.091" y1="238.785" y2="211.626"><stop offset="0" stop-color="#221c36"/><stop offset="1" stop-color="#43386b"/></linearGradient><linearGradient id="SVGID_00000077302814331033277100000000196798627372333978_" gradientUnits="userSpaceOnUse" x1="389.548" x2="246.261" xlink:href="#lg2" y1="352.244" y2="108.442"/><linearGradient id="SVGID_00000031175796547296097410000001220697437312483993_" gradientUnits="userSpaceOnUse" x1="386.792" x2="404.083" y1="74.197" y2="44.248"><stop offset="0" stop-color="#c62834"/><stop offset=".1715" stop-color="#e03544"/><stop offset=".3507" stop-color="#ff4557"/><stop offset=".5048" stop-color="#ff717e"/><stop offset=".6463" stop-color="#ff959e"/><stop offset="1" stop-color="#ff7b86"/></linearGradient><linearGradient id="SVGID_00000040570629239338101250000005959966803752656831_" gradientTransform="matrix(.866 -.5 0 1.155 -308.912 -1191.605)" gradientUnits="userSpaceOnUse" x1="819.319" x2="819.319" y1="1471.266" y2="1424.846"><stop offset="0" stop-color="#c62834"/><stop offset="1" stop-color="#ff4557"/></linearGradient><linearGradient id="SVGID_00000052799326078555424470000005893648725783456933_" gradientUnits="userSpaceOnUse" x1="401.774" x2="401.774" xlink:href="#lg1" y1="85.556" y2="49.173"/><linearGradient id="SVGID_00000049925078841549505400000009282457004119561149_" gradientUnits="userSpaceOnUse" x1="336.365" x2="353.656" y1="103.344" y2="73.395"><stop offset=".0319" stop-color="#b096ed"/><stop offset=".0645" stop-color="#b9a3ee"/><stop offset=".1414" stop-color="#cbbbf1"/><stop offset=".2286" stop-color="#d9cef3"/><stop offset=".3305" stop-color="#e3dbf5"/><stop offset=".4611" stop-color="#e8e3f6"/><stop offset=".719" stop-color="#eae5f6"/><stop offset=".7626" stop-color="#e0daf0"/><stop offset=".8254" stop-color="#dbd3ed"/><stop offset="1" stop-color="#d9d1ec"/></linearGradient><linearGradient id="SVGID_00000139252307903322531330000017130997027704767396_" gradientTransform="matrix(.866 -.5 0 1.155 -308.912 -1191.605)" gradientUnits="userSpaceOnUse" x1="761.09" x2="761.09" xlink:href="#lg1" y1="1471.294" y2="1424.874"/><linearGradient id="SVGID_00000130623720975429853320000009029020117743413383_" gradientTransform="matrix(.866 -.5 0 1.155 33.407 278.293)" gradientUnits="userSpaceOnUse" x1="391.813" x2="391.813" y1="197.844" y2="174.375"><stop offset="0" stop-color="#ffc538"/><stop offset="1" stop-color="#f7e041"/></linearGradient><g><path d="m421.803 19.304-30.401-17.699c-3.481-2.279-8.132-2.217-13.244.735l-274.586 158.532c-10.783 6.226-19.524 22.927-19.524 37.303v279.113c0 8.493 3.052 13.741 7.772 16.299l21.1 12.27 7.315 4.282z" fill="url(#SVGID_1_)"/><path d="m408.428 19.949-274.585 158.532c-10.782 6.225-19.523 22.927-19.523 37.303v279.113c0 14.377 8.741 20.985 19.523 14.759l274.586-158.532c10.782-6.225 19.523-22.927 19.523-37.303v-279.112c0-14.377-8.741-20.985-19.524-14.76z" fill="url(#SVGID_00000180364324301574113960000008350051993858693800_)"/><g><path d="m142.112 283.057v194.614l145.961-84.27v-194.614z" fill="url(#SVGID_00000132075498822817554540000014769920855289496238_)"/><g opacity=".5"><g><path d="m160.374 467.127-.866.5v-194.613l.866-.5z" fill="#06daae"/></g><g><path d="m187.95 451.207-.866.5v-194.614l.866-.5z" fill="#06daae"/></g><g><path d="m215.526 435.286-.866.5v-194.614l.866-.5z" fill="#06daae"/></g><g><path d="m243.101 419.365-.866.5v-194.614l.866-.5z" fill="#06daae"/></g><g><path d="m270.677 403.444-.866.5v-194.614l.866-.5z" fill="#06daae"/></g><g><path d="m288.072 223.136-145.96 84.27v-1.154l145.96-84.27z" fill="#06daae"/></g><g><path d="m288.072 259.904-145.96 84.27v-1.155l145.96-84.27z" fill="#06daae"/></g><g><path d="m288.072 296.671-145.96 84.27v-1.154l145.96-84.27z" fill="#06daae"/></g><g><path d="m288.072 333.439-145.96 84.27v-1.155l145.96-84.27z" fill="#06daae"/></g><g><path d="m288.072 370.206-145.96 84.27v-1.154l145.96-84.271z" fill="#06daae"/></g></g><ellipse cx="184.839" cy="321.398" fill="#06daae" rx="24.168" ry="13.673" transform="matrix(.392 -.92 .92 .392 -183.272 365.634)"/><g><path d="m184.839 358.194c-15.217 8.786-27.597-.574-27.597-20.863 0-20.29 12.38-43.944 27.597-52.729 15.217-8.786 27.597.573 27.597 20.863 0 20.289-12.38 43.943-27.597 52.729zm0-72.437c-14.739 8.51-26.731 31.422-26.731 51.075s11.992 28.718 26.731 20.208 26.731-31.422 26.731-51.074c0-19.654-11.992-28.719-26.731-20.209z" fill="#06daae"/></g><path d="m263.861 349.084 13.891-8.02v46.92l-13.891 8.019z" fill="#06daae"/><path d="m242.668 389.718 13.891-8.019v18.521l-13.891 8.019z" fill="#06daae"/><path d="m221.475 388.647 13.891-8.02v31.828l-13.891 8.02z" fill="#06daae"/><path d="m200.282 395.12 13.891-8.019v37.59l-13.891 8.02z" fill="#06daae"/><g><path d="m254.292 281.876-42.289 24.416v-1.154l42.289-24.416z" fill="#06daae"/></g><g><path d="m207.534 288.195-.613-.463 10.086-19.27 11.414-6.59v1.155l-11.056 6.383z" fill="#06daae"/></g><g fill="#06daae"><path d="m189.469 387.095-38.688 22.337v9.603l38.688-22.336z"/><path d="m270.035 233.622-31.486 18.178c-1.989 1.148-3.601 4.229-3.601 6.881 0 2.652 1.612 3.871 3.601 2.723l31.486-18.178c1.989-1.148 3.601-4.229 3.601-6.881 0-2.653-1.612-3.871-3.601-2.723z"/><path d="m274.151 265.032-12.142 7.01c-1.989 1.148-3.601 4.229-3.601 6.881 0 2.652 1.612 3.871 3.601 2.723l12.142-7.01c1.989-1.148 3.601-4.229 3.601-6.881 0-2.652-1.612-3.871-3.601-2.723z"/><path d="m189.469 405.891-38.688 22.336v9.604l38.688-22.337z"/><path d="m259.231 308.448-38.688 22.337v9.604l38.688-22.337z"/><path d="m259.231 327.244-38.688 22.336v9.604l38.688-22.337z"/><path d="m189.469 424.686-38.688 22.337v9.603l38.688-22.337z"/></g></g><path d="m114.319 273.887 307.484-254.583-30.401-17.699c-3.481-2.279-8.132-2.216-13.244.735l-274.586 158.532c-10.783 6.226-19.524 22.927-19.524 37.303v58.234z" fill="url(#SVGID_00000177442514561020232370000002022364497492467388_)"/><path d="m408.428 19.949-274.585 158.532c-10.782 6.225-19.524 22.927-19.524 37.303v58.102l313.633-181.075v-58.102c0-14.377-8.741-20.985-19.524-14.76z" fill="url(#SVGID_00000077302814331033277100000000196798627372333978_)"/><g><g><path d="m412.276 46.323-6.607-3.802c-3.15-1.756-7.229-1.562-11.689 1.013-9.968 5.755-18.049 21.196-18.049 34.487 0 7.523 2.59 12.743 6.645 14.814l6.341 3.67z" fill="url(#SVGID_00000031175796547296097410000001220697437312483993_)"/><path d="m418.668 61.006c0-13.291-8.081-19.4-18.049-13.645s-18.049 21.196-18.049 34.487 8.081 19.4 18.049 13.645 18.049-21.196 18.049-34.487z" fill="url(#SVGID_00000040570629239338101250000005959966803752656831_)"/><path d="m405.119 68.507 4.641-8.867c.924-1.765.924-3.762 0-4.46s-2.421.166-3.345 1.931l-4.641 8.867-4.641-3.508c-.924-.698-2.421.166-3.345 1.931s-.924 3.762 0 4.46l4.641 3.508-4.641 8.867c-.924 1.765-.924 3.762 0 4.46.462.349 1.067.308 1.673-.042.605-.349 1.211-1.007 1.672-1.889l4.641-8.867 4.641 3.508c.462.349 1.067.308 1.672-.042.605-.349 1.211-1.007 1.673-1.889.924-1.765.924-3.762 0-4.46z" fill="url(#SVGID_00000052799326078555424470000005893648725783456933_)"/></g></g><g><g><path d="m361.849 75.47-6.607-3.802c-3.15-1.756-7.229-1.562-11.69 1.013-9.968 5.755-18.049 21.196-18.049 34.487 0 7.523 2.59 12.743 6.645 14.814l6.341 3.67z" fill="url(#SVGID_00000049925078841549505400000009282457004119561149_)"/><path d="m368.241 90.153c0-13.291-8.081-19.4-18.049-13.645s-18.05 21.196-18.05 34.487 8.081 19.4 18.05 13.645c9.968-5.756 18.049-21.196 18.049-34.487z" fill="url(#SVGID_00000139252307903322531330000017130997027704767396_)"/></g></g><g><path d="m360.095 93.094-17.883 10.325c-1.299.75-2.352 2.762-2.352 4.494 0 1.732 1.053 2.528 2.352 1.778l17.883-10.325c1.299-.75 2.352-2.762 2.352-4.495 0-1.731-1.053-2.528-2.352-1.777z" fill="#7e62c0"/></g><g><g><path d="m387.999 163.868-69.067 40.113c-3.087 1.782-5.59 6.564-5.59 10.68 0 4.116 2.503 6.008 5.59 4.226l69.067-40.113c3.087-1.783 5.59-6.564 5.59-10.681 0-4.115-2.503-6.007-5.59-4.225z" fill="#7e62c0"/></g><g><path d="m387.999 237.294-69.067 40.112c-3.087 1.782-5.59 6.564-5.59 10.681 0 4.116 2.503 6.008 5.59 4.226l69.067-40.112c3.087-1.783 5.59-6.564 5.59-10.681 0-4.117-2.503-6.009-5.59-4.226z" fill="#7e62c0"/></g><g><path d="m387.999 310.72-69.067 40.113c-3.087 1.782-5.59 6.564-5.59 10.68 0 4.116 2.503 6.008 5.59 4.226l69.067-40.113c3.087-1.783 5.59-6.564 5.59-10.681 0-4.116-2.503-6.008-5.59-4.225z" fill="#7e62c0"/></g></g><path d="m342.726 226.253-25.708 14.842c-2.03 1.172-3.676 4.316-3.676 7.023v13.85c0 2.707 1.646 3.951 3.676 2.779l25.708-14.842c2.03-1.172 3.676-4.316 3.676-7.023v-13.85c-.001-2.707-1.646-3.951-3.676-2.779z" fill="#06daae"/><path d="m385.57 201.632-25.708 14.842c-2.03 1.172-3.676 4.316-3.676 7.023v13.85c0 2.707 1.646 3.951 3.676 2.779l25.708-14.842c2.03-1.172 3.676-4.316 3.676-7.023v-13.85c0-2.707-1.646-3.951-3.676-2.779z" fill="#ff4757"/><path d="m342.726 300.47-25.708 14.842c-2.03 1.172-3.676 4.316-3.676 7.023v13.85c0 2.707 1.646 3.951 3.676 2.779l25.708-14.842c2.03-1.172 3.676-4.316 3.676-7.023v-13.85c-.001-2.707-1.646-3.951-3.676-2.779z" fill="#2f97f7"/><path d="m385.57 275.849-25.708 14.842c-2.03 1.172-3.676 4.316-3.676 7.023v13.85c0 2.707 1.646 3.951 3.676 2.779l25.708-14.842c2.03-1.172 3.676-4.317 3.676-7.023v-13.85c0-2.707-1.646-3.951-3.676-2.779z" fill="url(#SVGID_00000130623720975429853320000009029020117743413383_)"/></g></svg>