<svg id="Capa_1" enable-background="new 0 0 512 512" height="512" viewBox="0 0 512 512" width="512" xmlns="http://www.w3.org/2000/svg" xmlns:xlink="http://www.w3.org/1999/xlink"><linearGradient id="lg1"><stop offset="0" stop-color="#221c36"/><stop offset="1" stop-color="#43386b"/></linearGradient><linearGradient id="SVGID_1_" gradientUnits="userSpaceOnUse" x1="253.641" x2="275.907" xlink:href="#lg1" y1="267.307" y2="228.741"/><linearGradient id="SVGID_00000175288971749572613840000015381496748199832737_" gradientUnits="userSpaceOnUse" x1="258.071" x2="258.071" y1="189.99" y2="176.308"><stop offset="0" stop-color="#ff7a85"/><stop offset="1" stop-color="#ffdfe1"/></linearGradient><linearGradient id="SVGID_00000001642297530069722950000000850339025869324190_" gradientTransform="matrix(.866 -.5 0 1.155 36.411 95.299)" gradientUnits="userSpaceOnUse" x1="281.114" x2="281.114" y1="453.055" y2="183.388"><stop offset="0" stop-color="#43386b"/><stop offset="1" stop-color="#594a8e"/></linearGradient><linearGradient id="lg2"><stop offset="0" stop-color="#d7d1eb"/><stop offset="1" stop-color="#f2effa"/></linearGradient><linearGradient id="SVGID_00000078762397680115476170000014959547833097431707_" gradientTransform="matrix(.866 -.5 0 1.155 36.411 95.299)" gradientUnits="userSpaceOnUse" x1="235.618" x2="235.618" xlink:href="#lg2" y1="457.694" y2="305.364"/><linearGradient id="SVGID_00000079457553263623034530000005369170111792653963_" gradientTransform="matrix(.866 -.5 0 1.155 36.411 95.299)" gradientUnits="userSpaceOnUse" x1="323.661" x2="323.661" xlink:href="#lg2" y1="354.014" y2="225.278"/><linearGradient id="SVGID_00000029024878814436317090000000974127656392038557_" gradientTransform="matrix(.866 -.5 0 1.155 36.411 95.299)" gradientUnits="userSpaceOnUse" x1="281.114" x2="281.114" xlink:href="#lg2" y1="354.014" y2="225.277"/><linearGradient id="SVGID_00000062889415174211449620000006688760559726912410_" gradientTransform="matrix(.866 -.5 0 1.155 36.411 95.299)" gradientUnits="userSpaceOnUse" x1="238.567" x2="238.567" xlink:href="#lg2" y1="354.012" y2="225.277"/><linearGradient id="SVGID_00000022520239102143056190000000923629947402924930_" gradientTransform="matrix(.866 -.5 0 1.155 36.411 95.299)" gradientUnits="userSpaceOnUse" x1="281.114" x2="281.114" xlink:href="#lg2" y1="354.013" y2="225.276"/><linearGradient id="SVGID_00000114760225000006095630000000284819848096854407_" gradientTransform="matrix(.866 -.5 0 1.155 36.411 95.299)" gradientUnits="userSpaceOnUse" x1="281.114" x2="281.114" xlink:href="#lg1" y1="255.338" y2="329.295"/><linearGradient id="SVGID_00000023245303618738734870000006417823762083140272_" gradientTransform="matrix(.866 -.5 0 1.155 36.411 95.299)" gradientUnits="userSpaceOnUse" x1="281.114" x2="281.114" xlink:href="#lg2" y1="306.425" y2="244.882"/><linearGradient id="lg3"><stop offset="0" stop-color="#ff4757"/><stop offset="1" stop-color="#ff7a85"/></linearGradient><linearGradient id="SVGID_00000028312555696695861020000007541735521698808213_" gradientTransform="matrix(.866 -.5 0 1.155 36.411 95.299)" gradientUnits="userSpaceOnUse" x1="227.065" x2="227.065" xlink:href="#lg3" y1="237.867" y2="205.385"/><linearGradient id="SVGID_00000024000217583663694860000010793516028878352796_" gradientTransform="matrix(.866 -.5 0 1.155 36.411 95.299)" gradientUnits="userSpaceOnUse" x1="335.164" x2="335.164" y1="237.868" y2="205.387"><stop offset="0" stop-color="#2f97f7"/><stop offset="1" stop-color="#79d3fe"/></linearGradient><linearGradient id="SVGID_00000175315700949564776950000013266955499981124232_" gradientTransform="matrix(.866 -.5 0 1.155 36.411 95.299)" gradientUnits="userSpaceOnUse" x1="235.694" x2="235.694" y1="380.832" y2="357.564"><stop offset="0" stop-color="#ffa538"/><stop offset="1" stop-color="#ffc538"/></linearGradient><linearGradient id="SVGID_00000095335379182711904330000000402708100585384839_" gradientTransform="matrix(.866 -.5 0 1.155 36.411 95.299)" gradientUnits="userSpaceOnUse" x1="281.114" x2="281.114" xlink:href="#lg1" y1="380.833" y2="344.832"/><linearGradient id="SVGID_00000031176426497759112010000009689138114884711593_" gradientTransform="matrix(.866 -.5 0 1.155 36.411 95.299)" gradientUnits="userSpaceOnUse" x1="326.535" x2="326.535" xlink:href="#lg1" y1="380.833" y2="344.832"/><linearGradient id="SVGID_00000009570951894562935340000014719065052162367652_" gradientTransform="matrix(.866 -.5 0 1.155 36.411 95.299)" gradientUnits="userSpaceOnUse" x1="235.694" x2="235.694" y1="411.575" y2="387.83"><stop offset="0" stop-color="#2f878a"/><stop offset="1" stop-color="#06daae"/></linearGradient><linearGradient id="SVGID_00000154393606418493132050000015282407222826202790_" gradientTransform="matrix(.866 -.5 0 1.155 36.411 95.299)" gradientUnits="userSpaceOnUse" x1="281.114" x2="281.114" xlink:href="#lg1" y1="411.576" y2="375.575"/><linearGradient id="SVGID_00000085933553412738014410000016043338649121013419_" gradientTransform="matrix(.866 -.5 0 1.155 36.411 95.299)" gradientUnits="userSpaceOnUse" x1="326.535" x2="326.535" xlink:href="#lg1" y1="411.576" y2="375.575"/><linearGradient id="SVGID_00000034060380373136314180000000124921383463405456_" gradientTransform="matrix(.866 -.5 0 1.155 36.411 95.299)" gradientUnits="userSpaceOnUse" x1="235.694" x2="235.694" xlink:href="#lg3" y1="442.318" y2="419.221"/><linearGradient id="SVGID_00000047055251933469301040000016278543490346834861_" gradientTransform="matrix(.866 -.5 0 1.155 36.411 95.299)" gradientUnits="userSpaceOnUse" x1="281.114" x2="281.114" xlink:href="#lg1" y1="442.319" y2="406.318"/><linearGradient id="SVGID_00000093162877197250044060000000747821704299356565_" gradientTransform="matrix(.866 -.5 0 1.155 36.411 95.299)" gradientUnits="userSpaceOnUse" x1="326.535" x2="326.535" xlink:href="#lg1" y1="442.319" y2="406.318"/><linearGradient id="lg4"><stop offset="0" stop-color="#e1daef"/><stop offset="1" stop-color="#fff"/></linearGradient><linearGradient id="SVGID_00000001665174295166635950000005968713761480628150_" gradientUnits="userSpaceOnUse" x1="256" x2="256" xlink:href="#lg4" y1="213.419" y2="-84.94"/><linearGradient id="SVGID_00000165929538079877227560000003144268920897948079_" gradientUnits="userSpaceOnUse" x1="256" x2="256" xlink:href="#lg4" y1="273.435" y2="-24.924"/><linearGradient id="SVGID_00000001625011045174207340000016058269800879186358_" gradientUnits="userSpaceOnUse" x1="256" x2="256" xlink:href="#lg4" y1="273.435" y2="-24.932"/><g><path d="m338.807 163.901-41.866-24.176c-3.217-1.848-7.406-1.675-11.99.972l-93.399 53.924c-10.139 5.853-18.358 21.558-18.358 35.076v41.678c0 23.725 3.034 47.353 9.028 70.308 1.127 4.316 1.698 8.759 1.698 13.22v123.149c0 7.388 2.458 12.586 6.339 14.833l31.31 18.108z" fill="url(#SVGID_1_)"/><path d="m262.578 170.847-21.262 12.276c-1.465.846-1.465 2.96 0 3.806l7.642 4.412c1.427.824 3.185.824 4.612 0l21.262-12.276c1.465-.846 1.465-2.96 0-3.806l-7.642-4.412c-1.427-.824-3.185-.824-4.612 0z" fill="#221c36"/><path d="m258.069 175.731c-3.624 0-6.561 2.938-6.561 6.561v1.638h.006c.046.827.571 1.611 1.597 2.204 2.374 1.371 6.521 1.199 9.262-.384 1.583-.914 2.346-2.099 2.255-3.201l.003-.252c.002-3.626-2.937-6.566-6.562-6.566z" fill="url(#SVGID_00000175288971749572613840000015381496748199832737_)"/><path d="m260.998 184.956c1.865-1.077 2.068-2.706.452-3.638-1.615-.933-4.436-.816-6.301.261s-2.068 2.706-.452 3.638c1.615.933 4.436.816 6.301-.261z" fill="#ff4757"/><path d="m326.556 164.725-93.399 53.924c-10.139 5.854-18.358 21.558-18.358 35.076v242.194c0 13.518 8.219 19.732 18.358 13.878l93.399-53.924c10.139-5.854 18.358-21.558 18.358-35.076v-242.194c0-13.518-8.219-19.732-18.358-13.878z" fill="url(#SVGID_00000001642297530069722950000000850339025869324190_)"/><path d="m257.097 372.015-33.28 19.214c-1.779 1.027-3.221 3.782-3.221 6.154v99.626c0 2.372 1.442 3.462 3.221 2.435l33.28-19.214c1.779-1.027 3.221-3.782 3.221-6.154v-99.626c0-2.372-1.442-3.462-3.221-2.435z" fill="url(#SVGID_00000078762397680115476170000014959547833097431707_)"/><g><path d="m316.806 220.857-12.603 24.08c4.508 4.674 7.216 12.442 7.216 22.616 0 10.175-2.708 21.07-7.216 30.949l12.603 9.528c7.708-16.058 12.396-34.02 12.396-50.743-.001-16.724-4.688-29.273-12.396-36.43z" fill="url(#SVGID_00000079457553263623034530000005369170111792653963_)"/><path d="m279.856 243.692c7.631-4.406 14.63-4.835 20.087-1.976l12.603-24.08c-8.706-5.251-20.148-4.895-32.69 2.346s-23.984 20.097-32.69 35.401l12.603 9.528c5.458-9.161 12.456-16.813 20.087-21.219z" fill="url(#SVGID_00000029024878814436317090000000974127656392038557_)"/><path d="m248.294 303.999c0-10.175 2.708-21.07 7.216-30.949l-12.603-9.528c-7.708 16.058-12.396 34.02-12.396 50.743s4.688 29.272 12.396 36.43l12.603-24.08c-4.508-4.674-7.216-12.442-7.216-22.616z" fill="url(#SVGID_00000062889415174211449620000006688760559726912410_)"/><path d="m299.943 306.641c-5.457 9.161-12.456 16.813-20.087 21.219s-14.629 4.835-20.087 1.976l-12.603 24.08c8.706 5.251 20.148 4.895 32.69-2.346s23.984-20.097 32.69-35.401z" fill="url(#SVGID_00000022520239102143056190000000923629947402924930_)"/></g><path d="m306.53 270.376c0-19.642-11.942-28.671-26.674-20.165-14.732 8.505-26.674 31.324-26.674 50.966s11.942 28.671 26.674 20.165 26.674-31.324 26.674-50.966z" fill="url(#SVGID_00000114760225000006095630000000284819848096854407_)"/><path d="m297.554 275.558c0-13.033-7.924-19.023-17.698-13.379-9.774 5.643-17.698 20.783-17.698 33.815 0 13.033 7.924 19.023 17.698 13.379 9.775-5.643 17.698-20.783 17.698-33.815z" fill="url(#SVGID_00000023245303618738734870000006417823762083140272_)"/><path d="m242.39 239.008c0-6.878-4.182-10.04-9.341-7.061-5.159 2.978-9.341 10.969-9.341 17.847s4.182 10.04 9.341 7.061 9.341-10.969 9.341-17.847z" fill="url(#SVGID_00000028312555696695861020000007541735521698808213_)"/><path d="m336.004 184.959c0-6.878-4.182-10.04-9.341-7.061-5.159 2.978-9.341 10.969-9.341 17.847s4.182 10.04 9.341 7.061c5.159-2.978 9.341-10.968 9.341-17.847z" fill="url(#SVGID_00000024000217583663694860000010793516028878352796_)"/><path d="m251.216 381.633-21.387 12.348c-2.372 1.369-4.294 5.043-4.294 8.205v14.123c0 3.162 1.923 4.616 4.294 3.246l21.387-12.348c2.372-1.369 4.294-5.043 4.294-8.205v-14.123c0-3.162-1.923-4.616-4.294-3.246z" fill="url(#SVGID_00000175315700949564776950000013266955499981124232_)"/><path d="m290.55 358.923-21.387 12.348c-2.372 1.369-4.294 5.043-4.294 8.205v14.123c0 3.162 1.923 4.616 4.294 3.246l21.387-12.348c2.372-1.369 4.294-5.043 4.294-8.205v-14.123c0-3.162-1.923-4.615-4.294-3.246z" fill="url(#SVGID_00000095335379182711904330000000402708100585384839_)"/><path d="m329.884 336.214-21.387 12.348c-2.372 1.369-4.294 5.043-4.294 8.205v14.123c0 3.162 1.923 4.616 4.294 3.246l21.387-12.348c2.372-1.369 4.294-5.043 4.294-8.205v-14.123c0-3.162-1.922-4.616-4.294-3.246z" fill="url(#SVGID_00000031176426497759112010000009689138114884711593_)"/><path d="m251.216 417.132-21.387 12.348c-2.372 1.369-4.294 5.043-4.294 8.205v14.123c0 3.162 1.923 4.616 4.294 3.246l21.387-12.348c2.372-1.369 4.294-5.043 4.294-8.205v-14.123c0-3.162-1.923-4.616-4.294-3.246z" fill="url(#SVGID_00000009570951894562935340000014719065052162367652_)"/><path d="m290.55 394.422-21.387 12.348c-2.372 1.369-4.294 5.043-4.294 8.205v14.123c0 3.162 1.923 4.616 4.294 3.246l21.387-12.348c2.372-1.369 4.294-5.043 4.294-8.205v-14.123c0-3.162-1.923-4.615-4.294-3.246z" fill="url(#SVGID_00000154393606418493132050000015282407222826202790_)"/><path d="m329.884 371.712-21.387 12.348c-2.372 1.369-4.294 5.043-4.294 8.205v14.123c0 3.162 1.923 4.616 4.294 3.246l21.387-12.348c2.372-1.369 4.294-5.043 4.294-8.205v-14.123c0-3.161-1.922-4.615-4.294-3.246z" fill="url(#SVGID_00000085933553412738014410000016043338649121013419_)"/><path d="m251.216 452.63-21.387 12.348c-2.372 1.369-4.294 5.043-4.294 8.205v14.123c0 3.162 1.923 4.616 4.294 3.246l21.387-12.348c2.372-1.369 4.294-5.043 4.294-8.205v-14.123c0-3.161-1.923-4.615-4.294-3.246z" fill="url(#SVGID_00000034060380373136314180000000124921383463405456_)"/><path d="m290.55 429.921-21.387 12.348c-2.372 1.369-4.294 5.043-4.294 8.205v14.123c0 3.162 1.923 4.616 4.294 3.246l21.387-12.348c2.372-1.369 4.294-5.043 4.294-8.205v-14.123c0-3.162-1.923-4.615-4.294-3.246z" fill="url(#SVGID_00000047055251933469301040000016278543490346834861_)"/><path d="m329.884 407.211-21.387 12.348c-2.372 1.369-4.294 5.043-4.294 8.205v14.123c0 3.162 1.923 4.616 4.294 3.246l21.387-12.348c2.372-1.369 4.294-5.043 4.294-8.205v-14.123c0-3.161-1.922-4.615-4.294-3.246z" fill="url(#SVGID_00000093162877197250044060000000747821704299356565_)"/><g><g><path d="m296.421 158.393c-3.098 1.789-6.197 2.002-8.561.214-17.568-13.281-46.152 3.223-63.72 36.789-4.728 9.034-12.394 13.46-17.122 9.885-4.728-3.574-4.728-13.795 0-22.829 27.01-51.605 70.956-76.977 97.963-56.559 4.728 3.575 4.728 13.795 0 22.829-2.363 4.517-5.462 7.882-8.56 9.671z" fill="url(#SVGID_00000001665174295166635950000005968713761480628150_)"/></g><g><path d="m319.962 102.722c-3.099 1.789-6.197 2.002-8.561.215-30.549-23.094-80.254 5.604-110.802 63.972-4.728 9.034-12.394 13.46-17.122 9.885-4.728-3.574-4.728-13.796 0-22.829 19.372-37.013 45.128-66.108 72.523-81.925 27.396-15.817 53.151-16.462 72.523-1.818 4.728 3.574 4.728 13.795 0 22.829-2.364 4.518-5.462 7.882-8.561 9.671z" fill="url(#SVGID_00000165929538079877227560000003144268920897948079_)"/></g><g><path d="m343.732 46.426c-3.098 1.789-6.197 2.002-8.561.215-43.654-33.002-114.687 8.008-158.341 91.419-4.728 9.034-12.394 13.46-17.122 9.885-4.728-3.574-4.728-13.795 0-22.829 12.996-24.831 28.154-47.002 45.055-65.897 16.317-18.244 33.556-32.67 51.237-42.879 17.681-10.208 34.92-15.688 51.238-16.286 16.9-.619 32.059 4.048 45.055 13.872 4.728 3.574 4.728 13.795 0 22.829-2.364 4.518-5.463 7.883-8.561 9.671z" fill="url(#SVGID_00000001625011045174207340000016058269800879186358_)"/></g></g></g></svg>