<svg id="Capa_1" enable-background="new 0 0 512 512" height="512" viewBox="0 0 512 512" width="512" xmlns="http://www.w3.org/2000/svg" xmlns:xlink="http://www.w3.org/1999/xlink"><linearGradient id="SVGID_1_" gradientUnits="userSpaceOnUse" x1="95.819" x2="234.854" y1="363.238" y2="122.423"><stop offset="0" stop-color="#802129"/><stop offset=".2999" stop-color="#ab2c37"/><stop offset="1" stop-color="#ff959d"/></linearGradient><linearGradient id="lg1"><stop offset="0" stop-color="#ab2c37"/><stop offset="1" stop-color="#ff7a85"/></linearGradient><linearGradient id="SVGID_2_" gradientUnits="userSpaceOnUse" x1="192.82" x2="192.82" xlink:href="#lg1" y1="500.703" y2="34.253"/><linearGradient id="lg2"><stop offset="0" stop-color="#dfdaef"/><stop offset="1" stop-color="#fff"/></linearGradient><linearGradient id="SVGID_3_" gradientUnits="userSpaceOnUse" x1="192.82" x2="192.82" xlink:href="#lg2" y1="449.933" y2="51.011"/><linearGradient id="SVGID_4_" gradientUnits="userSpaceOnUse" x1="192.82" x2="192.82" xlink:href="#lg1" y1="407.699" y2="91.844"/><linearGradient id="SVGID_5_" gradientUnits="userSpaceOnUse" x1="192.82" x2="192.82" xlink:href="#lg2" y1="361.879" y2="136.144"/><linearGradient id="SVGID_6_" gradientUnits="userSpaceOnUse" x1="192.82" x2="192.82" xlink:href="#lg1" y1="292.525" y2="176.055"/><linearGradient id="SVGID_7_" gradientUnits="userSpaceOnUse" x1="167.162" x2="214.614" y1="244.809" y2="326.999"><stop offset=".0319" stop-color="#5d3645"/><stop offset="1" stop-color="#5d3645" stop-opacity="0"/></linearGradient><linearGradient id="SVGID_8_" gradientUnits="userSpaceOnUse" x1="426.341" x2="426.341" xlink:href="#lg2" y1="525.216" y2="320.018"/><linearGradient id="SVGID_9_" gradientTransform="matrix(.866 .5 0 1.155 229.982 -1104.503)" gradientUnits="userSpaceOnUse" x1="226.743" x2="226.743" xlink:href="#lg2" y1="1195.562" y2="1082.707"/><g><path d="m290.733 42.902.006-.013-44.004-25.405-.135.272c-26.193-16.296-60.734-15.635-98.738 6.307-81.661 47.149-147.862 173.638-147.862 282.521 0 55.541 17.29 95.65 45.005 115.479l-.048.101 2.278 1.311c2.892 1.923 5.854 3.688 8.956 5.173l34.557 19.952c26.542 18.47 62.474 18.519 102.072-4.343 81.662-47.148 147.863-173.636 147.863-282.519 0-58.8-19.329-100.393-49.95-118.836z" fill="url(#SVGID_1_)"/><path d="m340.682 161.738c0 108.883-66.201 235.371-147.863 282.519s-147.863-2.899-147.863-111.782 66.2-235.371 147.863-282.519c81.663-47.148 147.863 2.899 147.863 111.782z" fill="url(#SVGID_2_)"/><path d="m308.001 180.607c0 84.817-51.569 183.349-115.182 220.076s-115.181-2.258-115.181-87.076c0-84.817 51.568-183.348 115.181-220.075 63.614-36.728 115.182 2.257 115.182 87.075z" fill="url(#SVGID_3_)"/><path d="m284.017 194.454c0 67.156-40.831 145.17-91.197 174.25-50.367 29.079-91.197-1.788-91.197-68.944s40.83-145.17 91.197-174.25 91.197 1.788 91.197 68.944z" fill="url(#SVGID_4_)"/><path d="m257.997 209.477c0 47.995-29.181 103.75-65.177 124.533s-65.177-1.278-65.177-49.273 29.181-103.75 65.177-124.533 65.177 1.278 65.177 49.273z" fill="url(#SVGID_5_)"/><path d="m226.448 227.691c0 24.763-15.056 53.531-33.629 64.254s-33.629-.659-33.629-25.423c0-24.763 15.056-53.531 33.629-64.254s33.629.659 33.629 25.423z" fill="url(#SVGID_6_)"/><path d="m187.71 253.175h19.748v88.656h-19.748z" fill="url(#SVGID_7_)"/><g><g><path d="m149.187 415.242c-11.257 0-21.831-2.722-31.316-8.198-26.245-15.153-41.298-49.82-41.298-95.113 0-84.133 51.484-182.305 114.767-218.841 28.602-16.512 56.46-18.616 78.444-5.923 26.245 15.154 41.298 49.82 41.298 95.113 0 84.133-51.484 182.305-114.769 218.841-16.26 9.39-32.286 14.121-47.126 14.121zm89.264-326.298c-13.112 0-27.444 4.279-42.137 12.761-60.54 34.953-109.794 129.261-109.794 210.227 0 41.643 13.24 73.17 36.325 86.498 18.777 10.842 43.103 8.736 68.495-5.923 60.542-34.953 109.795-129.26 109.795-210.226 0-41.642-13.24-73.17-36.324-86.498-7.913-4.568-16.813-6.839-26.36-6.839z" fill="#43386b"/></g><g><path d="m193.827 143.107c-2.747 0-4.974-2.226-4.974-4.974v-80.365c0-2.747 2.227-4.973 4.974-4.973s4.974 2.226 4.974 4.973v80.366c0 2.747-2.227 4.973-4.974 4.973z" fill="#43386b"/></g><g><path d="m193.827 441.419c-2.747 0-4.974-2.227-4.974-4.974v-80.365c0-2.747 2.227-4.974 4.974-4.974s4.974 2.227 4.974 4.974v80.365c0 2.747-2.227 4.974-4.974 4.974z" fill="#43386b"/></g><g><path d="m52.675 333.578c-1.717 0-3.39-.892-4.311-2.488-1.373-2.379-.558-5.42 1.82-6.794l55.156-31.844c2.376-1.374 5.42-.561 6.794 1.82 1.374 2.379.558 5.42-1.82 6.794l-55.156 31.844c-.783.453-1.638.668-2.483.668z" fill="#43386b"/></g><g><path d="m277.816 203.101c-1.717 0-3.39-.892-4.311-2.488-1.374-2.379-.558-5.42 1.82-6.794l55.156-31.845c2.374-1.37 5.42-.561 6.794 1.82 1.374 2.379.558 5.42-1.82 6.794l-55.156 31.845c-.783.452-1.638.668-2.483.668z" fill="#43386b"/></g></g><path d="m512 505.548-136.046-78.546-35.272-97.93 136.047 78.546z" fill="url(#SVGID_8_)"/><g><path d="m485.874 429.956c-1.887 0-3.802-.482-5.554-1.493l-287.043-165.214c-5.324-3.074-7.147-9.88-4.074-15.203 3.071-5.321 9.877-7.151 15.203-4.074l287.044 165.214c5.323 3.074 7.147 9.88 4.074 15.203-2.061 3.57-5.802 5.567-9.65 5.567z" fill="#dea861"/></g><path d="m512 350.416-136.046-78.546-35.271 57.202 136.046 78.546z" fill="url(#SVGID_9_)"/></g></svg>