<svg id="Capa_1" enable-background="new 0 0 512 512" height="512" viewBox="0 0 512 512" width="512" xmlns="http://www.w3.org/2000/svg" xmlns:xlink="http://www.w3.org/1999/xlink"><linearGradient id="lg1"><stop offset="0" stop-color="#45356d"/><stop offset=".1612" stop-color="#544081"/><stop offset="1" stop-color="#7e62c0"/></linearGradient><linearGradient id="SVGID_1_" gradientUnits="userSpaceOnUse" x1="410.347" x2="435.609" xlink:href="#lg1" y1="149.205" y2="105.45"/><linearGradient id="lg2"><stop offset="0" stop-color="#261b3f"/><stop offset=".4216" stop-color="#3d2e60"/><stop offset="1" stop-color="#544081"/></linearGradient><linearGradient id="SVGID_2_" gradientUnits="userSpaceOnUse" x1="402.805" x2="423.613" xlink:href="#lg2" y1="155.006" y2="118.964"/><linearGradient id="lg3"><stop offset="0" stop-color="#45356d"/><stop offset=".4216" stop-color="#544081"/><stop offset="1" stop-color="#7e62c0"/></linearGradient><linearGradient id="SVGID_3_" gradientUnits="userSpaceOnUse" x1="506.488" x2="463.168" xlink:href="#lg3" y1="185.014" y2="109.98"/><linearGradient id="SVGID_4_" gradientUnits="userSpaceOnUse" x1="260.53" x2="297.303" xlink:href="#lg1" y1="381.518" y2="317.826"/><linearGradient id="SVGID_5_" gradientTransform="matrix(.866 -.5 0 1.155 64.026 206.904)" gradientUnits="userSpaceOnUse" x1="526.713" x2="452.76" xlink:href="#lg2" y1="236.462" y2="108.371"/><linearGradient id="SVGID_6_" gradientUnits="userSpaceOnUse" x1="362.102" x2="363.655" xlink:href="#lg3" y1="240.447" y2="292.14"/><linearGradient id="SVGID_7_" gradientUnits="userSpaceOnUse" x1="375.572" x2="425.44" xlink:href="#lg3" y1="274.372" y2="187.999"/><linearGradient id="SVGID_8_" gradientUnits="userSpaceOnUse" x1="326.642" x2="348.7" xlink:href="#lg3" y1="268.258" y2="230.054"/><linearGradient id="lg4"><stop offset=".0084" stop-color="#7e62c0"/><stop offset=".4686" stop-color="#d9d1ec"/><stop offset="1" stop-color="#fff"/></linearGradient><linearGradient id="SVGID_9_" gradientTransform="matrix(.866 -.5 0 1.155 38.099 100.874)" gradientUnits="userSpaceOnUse" x1="271.542" x2="271.542" xlink:href="#lg4" y1="396.5" y2="252.709"/><linearGradient id="lg5"><stop offset="0" stop-color="#fff"/><stop offset="1" stop-color="#fff" stop-opacity="0"/></linearGradient><linearGradient id="SVGID_10_" gradientUnits="userSpaceOnUse" x1="345.378" x2="258.41" xlink:href="#lg5" y1="393.466" y2="325.133"/><linearGradient id="SVGID_11_" gradientTransform="matrix(.866 -.5 0 1.155 38.099 100.874)" gradientUnits="userSpaceOnUse" x1="455.827" x2="455.827" xlink:href="#lg4" y1="396.502" y2="252.711"/><linearGradient id="SVGID_12_" gradientUnits="userSpaceOnUse" x1="496.708" x2="425.269" xlink:href="#lg5" y1="305.521" y2="234.97"/><linearGradient id="SVGID_13_" gradientUnits="userSpaceOnUse" x1="306.38" x2="273.102" xlink:href="#lg1" y1="295.681" y2="378.213"/><linearGradient id="SVGID_14_" gradientUnits="userSpaceOnUse" x1="465.354" x2="420.095" xlink:href="#lg1" y1="203.327" y2="316.918"/><linearGradient id="SVGID_15_" gradientUnits="userSpaceOnUse" x1="431.603" x2="164.358" xlink:href="#lg2" y1="425.516" y2="-37.366"/><linearGradient id="SVGID_16_" gradientUnits="userSpaceOnUse" x1="106.419" x2="131.681" xlink:href="#lg1" y1="324.338" y2="280.583"/><linearGradient id="SVGID_17_" gradientUnits="userSpaceOnUse" x1="98.877" x2="119.685" xlink:href="#lg2" y1="330.139" y2="294.098"/><linearGradient id="SVGID_18_" gradientUnits="userSpaceOnUse" x1="192.315" x2="205.906" y1="354.108" y2="330.569"><stop offset="0" stop-color="#45356d"/><stop offset=".2124" stop-color="#544081"/><stop offset=".3557" stop-color="#634c98"/><stop offset=".536" stop-color="#7258ae"/><stop offset=".7089" stop-color="#7b60bb"/><stop offset=".8649" stop-color="#7e62c0"/></linearGradient><linearGradient id="SVGID_19_" gradientUnits="userSpaceOnUse" x1="227.794" x2="142.4" xlink:href="#lg2" y1="403.611" y2="255.705"/><linearGradient id="SVGID_20_" gradientUnits="userSpaceOnUse" x1="223.781" x2="230.076" xlink:href="#lg1" y1="331.322" y2="320.418"/><linearGradient id="SVGID_21_" gradientUnits="userSpaceOnUse" x1="260.184" x2="205.88" xlink:href="#lg2" y1="353.278" y2="259.221"/><linearGradient id="lg6"><stop offset="0" stop-color="#45356d"/><stop offset=".3855" stop-color="#544081"/><stop offset="1" stop-color="#7e62c0"/></linearGradient><linearGradient id="SVGID_22_" gradientUnits="userSpaceOnUse" x1="235.094" x2="235.094" xlink:href="#lg6" y1="348.264" y2="317.988"/><linearGradient id="lg7"><stop offset="0" stop-color="#fff"/><stop offset=".648" stop-color="#fff" stop-opacity="0"/></linearGradient><linearGradient id="SVGID_23_" gradientUnits="userSpaceOnUse" x1="234.753" x2="229.691" xlink:href="#lg7" y1="335.238" y2="325.52"/><linearGradient id="SVGID_24_" gradientUnits="userSpaceOnUse" x1="247.318" x2="232.123" xlink:href="#lg5" y1="348.694" y2="328.316"/><linearGradient id="SVGID_25_" gradientUnits="userSpaceOnUse" x1="255.694" x2="255.694" xlink:href="#lg6" y1="336.369" y2="306.093"/><linearGradient id="SVGID_26_" gradientUnits="userSpaceOnUse" x1="255.353" x2="250.292" xlink:href="#lg7" y1="323.343" y2="313.625"/><linearGradient id="SVGID_27_" gradientUnits="userSpaceOnUse" x1="267.918" x2="252.723" xlink:href="#lg5" y1="336.799" y2="316.422"/><g><path d="m511.09 163.837-116.413-67.211c-18.056-10.425-39.725-10.478-57.448-1.27l.002-.007-.15.087c-1.459.763-2.89 1.589-4.29 2.477l-12.052 6.958 3.639-.498c-1.003.922-1.988 1.873-2.938 2.873-2.085 2.197-2.594 5.455-1.278 8.183.274.569.61 1.078.991 1.533l-6.227 10.458 14.96-8.581-.008-.004c.861-.413 1.664-1.001 2.348-1.787 8.859-10.179 21.673-15.249 34.443-14.554l126.368 71.758 3.556-2.051 11.759 6.789z" fill="url(#SVGID_1_)"/><path d="m495.579 172.712-116.413-67.211c-23.932-13.817-54.215-9.425-73.236 10.62-2.085 2.197-2.594 5.455-1.278 8.183 2.273 4.715 8.627 5.568 12.063 1.62 13.372-15.364 35.754-19.103 53.394-8.918l127.729 80.479z" fill="url(#SVGID_2_)"/><path d="m511.458 164.061-17.367-10.024c-.001 0-.002-.001-.003-.002l-.01-.006v.002c-.39-.218-.95-.14-1.643.26l-13.252 7.651 6.76 17.047z" fill="url(#SVGID_3_)"/><path d="m489.233 164.999-16.484-9.582s.003.008.004.01c-1.666-1.05-3.485-1.857-5.453-2.386-5.988-1.609-12.677-.425-19.347 3.426l-70.384 40.636c-9.448 5.454-17.775 15.572-23.41 27.345-13.137-2.741-28.759 6.045-40.914 23.169l-.853-.496c-6.919-3.995-15.455-3.467-24.031 1.486l-70.383 40.636c-6.054 3.495-11.89 9.094-16.874 16.19-8.824 12.56-14.091 28.439-14.091 42.475v23.654c0 12.74 3.039 23.427 8.788 30.906 2.38 3.096 5.155 5.535 8.224 7.314l-.013-.002 17.215 9.939 109.279-158.796s16.097-6.938 16.097-5.154v20.573c0 17.884 6.231 31.349 16.736 37.307l-.014.003 17.115 9.96z" fill="url(#SVGID_4_)"/><path d="m509.741 164.276-13.252 7.651v41.298l13.252-22.953c1.398-2.422 2.259-4.908 2.259-6.522v-18.17c0-1.614-.861-2.111-2.259-1.304z" fill="url(#SVGID_5_)"/><path d="m380.361 323.564c.046-.014.096-.029.14-.043l.679-.991c-1.457-2.516-6.805-12.912-9.738-34.43-3.417-25.07-4.229-42.857-4.229-42.857l-20.486-.758s-.125 10.933-.125 11.283v20.573c0 17.884 6.231 31.349 16.736 37.307l-.014.003z" fill="url(#SVGID_6_)"/><path d="m479.525 179.153 9.708-14.154-16.484-9.582s.003.008.004.01c-1.666-1.05-3.485-1.857-5.453-2.386-5.988-1.609-12.677-.425-19.347 3.426l-70.384 40.636c-9.448 5.454-17.775 15.572-23.41 27.345l17.283 10.059z" fill="url(#SVGID_7_)"/><path d="m313.246 247.617 17.26 10.091 40.937-23.202-17.283-10.059c-13.138-2.741-28.759 6.045-40.914 23.17z" fill="url(#SVGID_8_)"/><path d="m308.446 263.517-70.384 40.636c-5.345 3.086-10.579 8.135-15.091 14.559-8.141 11.589-13.073 26.399-13.073 39.255v23.654c0 11.429 2.666 21.037 7.628 27.491 7.75 10.082 20.309 11.479 33.697 3.749l31.498-18.185c11.654-6.728 23.115-17.307 33.301-30.737 12.709-16.756 20.59-39.17 20.59-58.557v-20.573c-.001-20.74-12.611-30.273-28.166-21.292z" fill="url(#SVGID_9_)"/><path d="m308.446 263.517-70.384 40.636c-5.344 3.086-10.579 8.135-15.091 14.559-8.141 11.589-13.074 26.399-13.074 39.255v23.654c0 11.429 2.666 21.037 7.628 27.491 1.857 2.415 3.992 4.326 6.346 5.739l104.845-151.542c-5.122-4.125-12.307-4.39-20.27.208z" fill="url(#SVGID_10_)"/><path d="m483.128 168.51c-4.513-1.213-9.747-.219-15.091 2.867l-70.384 40.636c-15.555 8.981-28.165 33.074-28.165 53.814v20.573c0 19.387 7.881 32.7 20.59 34.782 10.186 1.668 21.647-.987 33.301-7.715l31.498-18.185c13.388-7.73 25.947-23.629 33.697-42.659 4.962-12.185 7.628-24.87 7.628-36.299v-23.654c-.001-12.857-4.933-21.972-13.074-24.16z" fill="url(#SVGID_11_)"/><path d="m483.128 168.51c-4.513-1.213-9.747-.219-15.091 2.867l-70.384 40.636c-15.555 8.981-28.165 33.074-28.165 53.814v20.573c0 18.807 7.418 31.897 19.464 34.563l101.878-147.253c-2.058-2.591-4.655-4.381-7.702-5.2z" fill="url(#SVGID_12_)"/><path d="m320.732 260.178c3.021 4.239 4.785 10.426 4.785 18.181v20.573c0 19.387-7.881 41.801-20.59 58.557-10.186 13.43-21.647 24.009-33.301 30.737l-31.498 18.185c-7.543 4.355-14.823 5.812-21.127 4.452 7.814 8.466 19.652 9.255 32.221 1.998l31.498-18.185c11.654-6.729 23.115-17.307 33.301-30.737 12.708-16.756 20.59-39.17 20.59-58.557v-20.573c0-14.867-6.48-23.973-15.879-24.631z" fill="url(#SVGID_13_)"/><path d="m483.128 168.51c-.906-.244-1.849-.374-2.809-.44 3.067 4.325 4.788 10.581 4.788 18.15v23.654c0 11.429-2.665 24.115-7.628 36.299-7.75 19.031-20.309 34.93-33.697 42.659l-31.498 18.185c-11.654 6.728-23.115 9.384-33.301 7.715-.276-.045-.548-.103-.819-.159 3.217 3.551 7.237 5.842 11.914 6.609 10.186 1.668 21.647-.987 33.301-7.715l31.498-18.185c13.388-7.73 25.947-23.629 33.697-42.659 4.962-12.185 7.628-24.87 7.628-36.299v-23.654c-.001-12.857-4.933-21.972-13.074-24.16z" fill="url(#SVGID_14_)"/><path d="m484.583 163.1c-5.988-1.609-12.677-.425-19.347 3.426l-70.384 40.636c-9.447 5.454-17.775 15.572-23.41 27.345-13.146-2.743-28.779 6.056-40.937 23.202-.276-.178-.546-.364-.83-.528-6.919-3.995-15.455-3.466-24.031 1.486l-70.383 40.636c-6.054 3.495-11.89 9.094-16.874 16.19-8.824 12.56-14.091 28.438-14.091 42.475v23.654c0 12.74 3.039 23.427 8.788 30.906 5.523 7.185 13.162 10.854 21.706 10.853 6.099 0 12.659-1.871 19.234-5.667l31.497-18.185c12.265-7.081 24.355-18.217 34.964-32.204 13.403-17.671 21.728-41.406 21.728-61.942v-20.573c0-7.199-1.415-13.502-4.035-18.476 8.855-13.379 20.235-21.497 29.035-21.09-2.128 6.794-3.327 13.815-3.327 20.584v20.572c0 22.31 9.689 37.755 25.287 40.31 2.263.371 4.578.555 6.935.555 9.573 0 19.836-3.037 30.072-8.947l31.498-18.185c14.405-8.316 27.894-25.288 36.083-45.398 5.261-12.916 8.042-26.199 8.042-38.412v-23.654c0-15.617-6.438-26.671-17.22-29.569zm-153.574 142.281c0 18.211-7.453 39.352-19.451 55.172-9.715 12.808-20.655 22.93-31.639 29.271l-31.497 18.185c-10.862 6.271-20.505 5.429-26.455-2.312-4.17-5.425-6.466-13.975-6.466-24.077v-23.654c0-11.642 4.619-25.45 12.054-36.035 4.055-5.771 8.656-10.241 13.309-12.928l70.383-40.636c3.513-2.028 8.593-3.931 12.827-1.486 4.343 2.507 6.935 9.208 6.935 17.926zm159.59-89.058c0 10.778-2.495 22.599-7.214 34.186-7.283 17.883-18.988 32.807-31.309 39.921l-31.498 18.185c-10.492 6.057-20.727 8.491-29.594 7.038-9.803-1.606-15.894-12.815-15.894-29.253v-20.573c0-18.603 11.615-41.025 25.365-48.963l70.384-40.636c3.007-1.736 5.854-2.622 8.371-2.622.863 0 1.687.104 2.465.313 5.505 1.48 8.925 8.664 8.925 18.749v23.655z" fill="url(#SVGID_15_)"/><path d="m207.163 338.971-116.413-67.211c-18.056-10.424-39.725-10.478-57.447-1.27l.002-.007-.15.087c-1.458.763-2.89 1.589-4.29 2.477l-12.052 6.958 3.639-.498c-1.003.922-1.988 1.873-2.938 2.873-2.085 2.197-2.594 5.454-1.278 8.183.274.569.61 1.078.991 1.533l-6.227 10.458 14.96-8.581-.008-.004c.861-.413 1.663-1.001 2.348-1.787 8.859-10.179 21.673-15.249 34.443-14.554l126.368 71.758 3.556-2.052 11.759 6.789z" fill="url(#SVGID_16_)"/><path d="m191.651 347.845-116.413-67.211c-23.932-13.817-54.215-9.425-73.236 10.62-2.085 2.197-2.594 5.454-1.278 8.183 2.273 4.715 8.627 5.568 12.064 1.62 13.372-15.364 35.754-19.102 53.394-8.918l127.729 80.479z" fill="url(#SVGID_17_)"/><path d="m207.162 339.261-17.312-9.956-13.252 7.651c-1.398.807-2.259 2.299-2.259 3.913v18.169c0 1.615.861 3.106 2.259 3.913l10.415 6.013 17.283 9.978-1.056-27.211z" fill="url(#SVGID_18_)"/><path d="m207.162 338.971-13.252 7.651c-1.398.807-2.259 2.299-2.259 3.913v18.169c0 1.614.861 3.106 2.259 3.913l13.252 7.651z" fill="url(#SVGID_19_)"/><g><path d="m248.181 294.493c-1.294-.799-2.99-.942-4.495-.073l-33.805 19.517c-2.906 1.678-4.696 4.779-4.696 8.134v13.245c0 1.733.965 3.126 2.298 3.85l-.004.004 16.97 9.796 40.421-44.838z" fill="url(#SVGID_20_)"/><path d="m260.753 304.269-33.805 19.517c-2.906 1.678-4.696 4.779-4.696 8.134v13.245c0 3.376 3.654 5.485 6.577 3.797l33.805-19.517c2.906-1.678 4.696-4.779 4.696-8.134v-13.245c0-3.375-3.654-5.485-6.577-3.797z" fill="url(#SVGID_21_)"/><g><g><path d="m242.897 327.719c0-5.746-3.493-8.387-7.803-5.899-4.309 2.488-7.803 9.163-7.803 14.908s3.493 8.387 7.803 5.899c4.309-2.488 7.803-9.162 7.803-14.908z" fill="url(#SVGID_22_)"/><path d="m242.144 328.756c0-4.985-3.031-7.276-6.769-5.117-3.738 2.158-6.769 7.949-6.769 12.934s3.031 7.276 6.769 5.117 6.769-7.949 6.769-12.934z" fill="#45356d"/><path d="m241.555 328.402c0-2.508-.767-4.333-2.005-5.254-1.15-.539-2.6-.42-4.175.49-3.738 2.158-6.769 7.949-6.769 12.934 0 2.508.767 4.333 2.005 5.254 1.15.539 2.6.42 4.175-.49 3.738-2.158 6.769-7.949 6.769-12.934z" fill="#5e4990"/><path d="m238.481 330.177c0-2.721-1.655-3.972-3.696-2.794s-3.696 4.34-3.696 7.061 1.655 3.972 3.696 2.794 3.696-4.34 3.696-7.061z" fill="#45356d"/><path d="m236.352 331.406c0-1.154-.702-1.684-1.567-1.185-.865.5-1.567 1.84-1.567 2.994s.701 1.684 1.567 1.185c.866-.5 1.567-1.84 1.567-2.994z" fill="#322650"/><path d="m233.784 329.464c0-1.154-.701-1.684-1.567-1.185-.865.5-1.567 1.84-1.567 2.994s.702 1.684 1.567 1.185c.865-.5 1.567-1.84 1.567-2.994z" fill="url(#SVGID_23_)"/><path d="m239.549 323.149c-1.15-.539-2.6-.42-4.175.49-3.738 2.158-6.769 7.949-6.769 12.934 0 1.18.172 2.207.481 3.062l12.175-13.695c-.331-1.257-.926-2.207-1.712-2.791z" fill="url(#SVGID_24_)"/></g><g><path d="m263.497 315.824c0-5.746-3.493-8.387-7.803-5.899-4.309 2.488-7.803 9.163-7.803 14.908s3.493 8.387 7.803 5.899c4.309-2.487 7.803-9.162 7.803-14.908z" fill="url(#SVGID_25_)"/><ellipse cx="255.974" cy="320.769" fill="#45356d" rx="10.392" ry="5.879" transform="matrix(.392 -.92 .92 .392 -139.411 430.708)"/><path d="m262.155 316.508c0-2.508-.767-4.333-2.005-5.254-1.15-.539-2.6-.42-4.175.49-3.739 2.159-6.769 7.949-6.769 12.934 0 2.507.767 4.333 2.005 5.254 1.15.539 2.6.42 4.175-.49 3.738-2.159 6.769-7.95 6.769-12.934z" fill="#5e4990"/><path d="m259.081 318.282c0-2.721-1.655-3.972-3.696-2.794s-3.696 4.34-3.696 7.061 1.655 3.972 3.696 2.794c2.042-1.178 3.696-4.339 3.696-7.061z" fill="#45356d"/><path d="m256.952 319.511c0-1.154-.702-1.684-1.567-1.185s-1.567 1.84-1.567 2.994.702 1.684 1.567 1.185c.866-.499 1.567-1.84 1.567-2.994z" fill="#322650"/><path d="m254.384 317.569c0-1.154-.702-1.684-1.567-1.185s-1.567 1.84-1.567 2.994.701 1.684 1.567 1.185c.865-.499 1.567-1.84 1.567-2.994z" fill="url(#SVGID_26_)"/><path d="m260.15 311.254c-1.15-.539-2.6-.42-4.175.49-3.739 2.159-6.769 7.949-6.769 12.934 0 1.18.172 2.207.481 3.062l12.175-13.695c-.332-1.257-.927-2.207-1.712-2.791z" fill="url(#SVGID_27_)"/></g></g></g></g></svg>