<svg id="Capa_1" enable-background="new 0 0 512 512" height="512" viewBox="0 0 512 512" width="512" xmlns="http://www.w3.org/2000/svg" xmlns:xlink="http://www.w3.org/1999/xlink"><linearGradient id="SVGID_1_" gradientUnits="userSpaceOnUse" x1="147.126" x2="209.448" y1="307.69" y2="199.745"><stop offset="0" stop-color="#a996eb"/><stop offset="1" stop-color="#d7d1eb"/></linearGradient><linearGradient id="SVGID_00000062153949783120746270000015744768832681375383_" gradientTransform="matrix(.866 -.5 0 1.155 -54.028 -243.57)" gradientUnits="userSpaceOnUse" x1="426.953" x2="426.953" y1="762.411" y2="487.214"><stop offset="0" stop-color="#d7d1eb"/><stop offset="1" stop-color="#f2effa"/></linearGradient><linearGradient id="lg1"><stop offset="0" stop-color="#5e4990"/><stop offset=".6145" stop-color="#45356d"/><stop offset="1" stop-color="#322650"/></linearGradient><radialGradient id="SVGID_00000178162683251308738610000018267879539462285983_" cx="536.246" cy="707.175" gradientTransform="matrix(.866 -.5 0 1.155 -54.028 -243.57)" gradientUnits="userSpaceOnUse" r="21.437" xlink:href="#lg1"/><linearGradient id="lg2"><stop offset="0" stop-color="#221c36"/><stop offset="1" stop-color="#43386b"/></linearGradient><linearGradient id="SVGID_00000134956770020095816340000016801358827307060621_" gradientUnits="userSpaceOnUse" x1="415.006" x2="420.354" xlink:href="#lg2" y1="313.995" y2="304.732"/><radialGradient id="SVGID_00000088843340906185102690000008224684997621368997_" cx="562.563" cy="730.365" gradientTransform="matrix(.866 -.5 0 1.155 -54.028 -243.57)" gradientUnits="userSpaceOnUse" r="27.949" xlink:href="#lg1"/><radialGradient id="SVGID_00000156559808205443663780000008798957745594405000_" cx="320.115" cy="707.32" gradientTransform="matrix(.866 -.5 0 1.155 -54.028 -243.57)" gradientUnits="userSpaceOnUse" r="21.437" xlink:href="#lg1"/><linearGradient id="SVGID_00000101788235270365043070000017554200845568348313_" gradientUnits="userSpaceOnUse" x1="227.836" x2="233.184" xlink:href="#lg2" y1="422.229" y2="412.966"/><radialGradient id="SVGID_00000054244116508305135820000017684419119693719472_" cx="346.432" cy="730.511" gradientTransform="matrix(.866 -.5 0 1.155 -54.028 -243.57)" gradientUnits="userSpaceOnUse" r="27.949" xlink:href="#lg1"/><linearGradient id="SVGID_00000152242557594560648150000002176856731370860973_" gradientTransform="matrix(.866 -.5 0 1.155 -54.028 -243.57)" gradientUnits="userSpaceOnUse" x1="426.953" x2="426.953" y1="527.852" y2="677.68"><stop offset="0" stop-color="#1a4c4e"/><stop offset="1" stop-color="#9bf0df"/></linearGradient><radialGradient id="SVGID_00000091010895210665495760000015232694026192209027_" cx="276.079" cy="178.38" gradientUnits="userSpaceOnUse" r="13.412"><stop offset="0" stop-color="#ff7a85"/><stop offset="1" stop-color="#ff4757"/></radialGradient><radialGradient id="SVGID_00000154419111754034929420000009432693247137802903_" cx="298.214" cy="165.58" gradientUnits="userSpaceOnUse" r="13.412"><stop offset="0" stop-color="#ffc538"/><stop offset="1" stop-color="#ffa538"/></radialGradient><radialGradient id="SVGID_00000120559864318974644940000015264358747549918370_" cx="320.349" cy="152.78" gradientUnits="userSpaceOnUse" r="13.412"><stop offset="0" stop-color="#fcf3b3"/><stop offset="1" stop-color="#f7e041"/></radialGradient><radialGradient id="SVGID_00000149346868665730583470000010506532654099391411_" cx="342.485" cy="139.98" gradientUnits="userSpaceOnUse" r="13.412"><stop offset="0" stop-color="#06daae"/><stop offset="1" stop-color="#2f878a"/></radialGradient><radialGradient id="SVGID_00000171717205371867298250000003019207924617905340_" cx="364.62" cy="127.18" gradientUnits="userSpaceOnUse" r="13.412"><stop offset="0" stop-color="#79d3fe"/><stop offset="1" stop-color="#2f97f7"/></radialGradient><linearGradient id="SVGID_00000117667519948518099950000012926291118497409669_" gradientUnits="userSpaceOnUse" x1="300.495" x2="304.12" y1="338.416" y2="332.137"><stop offset="0" stop-color="#ab2c37"/><stop offset="1" stop-color="#ff4757"/></linearGradient><linearGradient id="SVGID_00000029729179705926334780000008364177223354382778_" gradientTransform="matrix(.866 -.5 0 1.155 290.687 1337.303)" gradientUnits="userSpaceOnUse" x1="32.571" x2="32.571" y1="-847.329" y2="-873.864"><stop offset="0" stop-color="#ff4757"/><stop offset="1" stop-color="#ff7a85"/></linearGradient><linearGradient id="SVGID_00000096781385517360451320000002025774036585991313_" gradientUnits="userSpaceOnUse" x1="300.495" x2="304.12" y1="377.563" y2="371.284"><stop offset="0" stop-color="#e37a34"/><stop offset="1" stop-color="#ffa538"/></linearGradient><linearGradient id="SVGID_00000116951128734393455070000010995650458145737604_" gradientTransform="matrix(.866 -.5 0 1.155 290.687 1337.303)" gradientUnits="userSpaceOnUse" x1="32.571" x2="32.571" y1="-813.427" y2="-839.962"><stop offset="0" stop-color="#ffc538"/><stop offset="1" stop-color="#f7e041"/></linearGradient><linearGradient id="SVGID_00000170980025286590749700000002594205376086383806_" gradientUnits="userSpaceOnUse" x1="300.495" x2="304.12" y1="416.711" y2="410.431"><stop offset="0" stop-color="#236568"/><stop offset="1" stop-color="#2f878a"/></linearGradient><linearGradient id="SVGID_00000067206738749031391760000010090740297051320491_" gradientTransform="matrix(.866 -.5 0 1.155 290.687 1337.303)" gradientUnits="userSpaceOnUse" x1="32.571" x2="32.571" y1="-779.524" y2="-806.06"><stop offset="0" stop-color="#2f878a"/><stop offset="1" stop-color="#06daae"/></linearGradient><linearGradient id="lg3"><stop offset="0" stop-color="#43386b"/><stop offset="1" stop-color="#594a8e"/></linearGradient><linearGradient id="SVGID_00000132801441977060665980000008894898959414778520_" gradientUnits="userSpaceOnUse" x1="197.424" x2="212.305" xlink:href="#lg3" y1="279.951" y2="254.175"/><linearGradient id="SVGID_00000045592426344089634750000000773459654835832455_" gradientUnits="userSpaceOnUse" x1="213.641" x2="213.641" xlink:href="#lg3" y1="319.703" y2="283.713"/><linearGradient id="SVGID_00000178202748730951928110000000944890943280639392_" gradientUnits="userSpaceOnUse" x1="197.424" x2="212.305" xlink:href="#lg3" y1="349.365" y2="323.59"/><linearGradient id="SVGID_00000121971067618294170690000017641457233121282225_" gradientUnits="userSpaceOnUse" x1="213.641" x2="213.641" xlink:href="#lg3" y1="389.118" y2="353.128"/><linearGradient id="SVGID_00000062906331787024001970000008018791146785159045_" gradientUnits="userSpaceOnUse" x1="439.418" x2="454.3" xlink:href="#lg3" y1="139.766" y2="113.991"/><linearGradient id="SVGID_00000111896367465847937550000001073990705362190236_" gradientUnits="userSpaceOnUse" x1="455.635" x2="455.635" xlink:href="#lg3" y1="179.519" y2="143.529"/><linearGradient id="SVGID_00000063591980836649371780000013251053810823981224_" gradientUnits="userSpaceOnUse" x1="439.418" x2="454.3" xlink:href="#lg3" y1="209.181" y2="183.406"/><linearGradient id="SVGID_00000043453865565562533000000005857045216694162619_" gradientUnits="userSpaceOnUse" x1="455.635" x2="455.635" xlink:href="#lg3" y1="248.934" y2="212.944"/><linearGradient id="SVGID_00000164511943861598702790000015585888418328678318_" gradientUnits="userSpaceOnUse" x1="400.895" x2="254.993" y1="254.916" y2="235.43"><stop offset="0" stop-color="#fff"/><stop offset="1" stop-color="#fff" stop-opacity="0"/></linearGradient><g><path d="m454.384 73.523-119.89-69.17c-12.027-6.669-27.589-5.912-44.601 3.91l-187.214 108.088c-38.093 21.993-68.973 80.996-68.973 131.786v175.339c0 9.183 3.116 15.594 8.013 18.235l119.351 68.899z" fill="url(#SVGID_1_)"/><path d="m409.321 77.2-187.214 108.088c-38.093 21.993-68.973 80.996-68.973 131.786v175.339c0 16.465 10.011 24.033 22.359 16.903l280.441-161.913c12.349-7.13 22.36-26.257 22.36-42.722v-175.338c0-50.791-30.88-74.136-68.973-52.143z" fill="url(#SVGID_00000062153949783120746270000015744768832681375383_)"/><g><ellipse cx="410.517" cy="303.633" fill="#221c36" rx="34.068" ry="19.274" transform="matrix(.392 -.92 .92 .392 -29.612 562.485)"/><path d="m429.082 292.915c0-13.671-8.312-19.954-18.565-14.035-10.253 5.92-18.565 21.801-18.565 35.471 0 13.671 8.312 19.954 18.565 14.035s18.565-21.8 18.565-35.471z" fill="url(#SVGID_00000178162683251308738610000018267879539462285983_)"/><path d="m420.836 294.165-.002.003c-1.616-.924-3.719-.835-6.02.493-5.098 2.943-9.23 10.839-9.23 17.636 0 3.698 1.225 6.306 3.162 7.444l-.002.004 12.439 7.191 12.173-25.53z" fill="url(#SVGID_00000134956770020095816340000016801358827307060621_)"/><path d="m457.559 302.899c0-17.823-10.836-26.015-24.204-18.298-13.367 7.718-24.204 28.423-24.204 46.246s10.836 26.015 24.204 18.298 24.204-28.422 24.204-46.246z" fill="url(#SVGID_00000088843340906185102690000008224684997621368997_)"/></g><g><ellipse cx="223.348" cy="411.867" fill="#221c36" rx="34.068" ry="19.274" transform="matrix(.392 -.92 .92 .392 -243.086 456.116)"/><path d="m241.912 401.149c0-13.671-8.312-19.954-18.565-14.034-10.253 5.919-18.565 21.801-18.565 35.471 0 13.671 8.312 19.954 18.565 14.035 10.254-5.921 18.565-21.802 18.565-35.472z" fill="url(#SVGID_00000156559808205443663780000008798957745594405000_)"/><path d="m233.666 402.398-.002.003c-1.616-.924-3.719-.835-6.02.493-5.098 2.943-9.23 10.839-9.23 17.637 0 3.698 1.225 6.306 3.162 7.444l-.002.004 12.439 7.191 12.173-25.53z" fill="url(#SVGID_00000101788235270365043070000017554200845568348313_)"/><path d="m270.39 411.133c0-17.823-10.836-26.015-24.204-18.298-13.367 7.718-24.204 28.423-24.204 46.246s10.836 26.015 24.204 18.298c13.367-7.718 24.204-28.423 24.204-46.246z" fill="url(#SVGID_00000054244116508305135820000017684419119693719472_)"/></g><path d="m409.447 112.498-187.466 108.234v124.304l187.466-108.234z" fill="url(#SVGID_00000152242557594560648150000002176856731370860973_)"/><g><path d="m275.834 170.403-1.156-.623c-.874-.552-2.031-.534-3.304.201-2.721 1.571-4.927 5.786-4.927 9.414 0 2.051.706 3.474 1.81 4.041l-.001.001c5 2.887 11.326-.766 11.326-6.539.002-2.679-1.428-5.155-3.748-6.495z" fill="url(#SVGID_00000091010895210665495760000015232694026192209027_)"/><path d="m297.969 157.603-1.156-.623c-.874-.552-2.031-.533-3.304.201-2.721 1.571-4.927 5.786-4.927 9.413 0 2.051.706 3.474 1.81 4.041l-.001.001c5 2.887 11.326-.766 11.326-6.539.002-2.678-1.428-5.154-3.748-6.494z" fill="url(#SVGID_00000154419111754034929420000009432693247137802903_)"/><path d="m320.104 144.803-1.156-.623c-.874-.552-2.031-.534-3.304.201-2.721 1.571-4.927 5.785-4.927 9.414 0 2.051.706 3.474 1.811 4.041l-.001.001c5 2.887 11.326-.766 11.326-6.539.001-2.679-1.428-5.155-3.749-6.495z" fill="url(#SVGID_00000120559864318974644940000015264358747549918370_)"/><path d="m342.24 132.003-1.156-.623c-.874-.552-2.031-.534-3.304.201-2.721 1.571-4.927 5.786-4.927 9.413 0 2.051.706 3.474 1.811 4.041l-.001.001c5 2.887 11.326-.766 11.326-6.539.001-2.678-1.429-5.154-3.749-6.494z" fill="url(#SVGID_00000149346868665730583470000010506532654099391411_)"/><path d="m364.375 119.204-1.156-.623c-.874-.552-2.031-.534-3.304.201-2.721 1.571-4.927 5.785-4.927 9.413 0 2.051.706 3.474 1.811 4.041l-.001.001c5 2.887 11.326-.766 11.326-6.539.001-2.679-1.428-5.155-3.749-6.494z" fill="url(#SVGID_00000171717205371867298250000003019207924617905340_)"/></g><path d="m409.448 127.861v-1.418l-14.375 8.3v-13.945l-1.063.614v13.945l-16.749 9.67v-13.945l-1.063.614v13.945l-16.749 9.67v-13.945l-1.063.614v13.945l-16.749 9.67v-13.945l-1.063.614v13.945l-16.749 9.67v-13.945l-1.063.614v13.945l-16.749 9.67v-13.945l-1.063.614v13.945l-16.749 9.67v-13.947l-1.063.614v13.945l-16.749 9.67v-13.945l-1.063.614v13.945l-16.749 9.67v-13.945l-1.063.614v13.945l-16.749 9.67v-13.947l-1.063.614v13.945l-11.722 6.768v1.418l11.722-6.768v22.331l-11.722 6.768v1.418l11.722-6.768v22.331l-11.722 6.768v1.418l11.722-6.768v22.331l-11.722 6.768v1.418l11.722-6.768v22.331l-11.722 6.768v1.418l11.722-6.768v13.945l1.063-.614v-13.945l16.749-9.67v13.945l1.063-.614v-13.945l16.749-9.67v13.945l1.063-.614v-13.945l16.749-9.67v13.945l1.063-.614v-13.945l16.749-9.67v13.945l1.063-.614v-13.945l16.749-9.67v13.945l1.063-.614v-13.945l16.749-9.67v13.945l1.063-.614v-13.945l16.749-9.67v13.945l1.063-.614v-13.945l16.749-9.67v13.945l1.063-.614v-13.942l16.749-9.67v13.945l1.063-.614v-13.945l14.375-8.3v-1.418l-14.375 8.3v-22.331l14.375-8.3v-1.418l-14.375 8.3v-22.331l14.375-8.3v-1.418l-14.375 8.3v-22.331l14.375-8.3v-1.418l-14.375 8.3v-22.331zm-33.251 19.197v22.331l-16.749 9.67v-22.331zm-35.623 66.647-16.749 9.67v-22.331l16.749-9.67zm1.063-22.945 16.749-9.67v22.331l-16.749 9.67zm-18.875 33.229-16.749 9.67v-22.331l16.749-9.67zm-17.812 10.284-16.749 9.67v-22.331l16.749-9.67zm-17.812 10.283-16.749 9.67v-22.331l16.749-9.67zm-17.812 10.284-16.749 9.67v-22.331l16.749-9.67zm0 1.418v22.331l-16.749 9.67v-22.331zm1.064-.614 16.749-9.67v22.331l-16.749 9.67zm17.811-10.284 16.749-9.67v22.331l-16.749 9.67zm17.812-10.283 16.749-9.67v22.331l-16.749 9.67zm17.812-10.284 16.749-9.67v22.331l-16.749 9.67zm17.812-10.284 16.749-9.67v22.331l-16.749 9.67zm17.812-10.283 16.749-9.67v22.331l-16.749 9.67zm0-1.418v-22.331l16.749-9.67v22.331zm-1.064-45.467v22.331l-16.749 9.67v-22.331zm-17.811 10.284v22.331l-16.749 9.67v-22.331zm-17.812 10.284v22.331l-16.749 9.67v-22.331zm-17.812 10.283v22.331l-16.749 9.67v-22.331zm-17.812 10.284v22.331l-16.749 9.67v-22.331zm-17.812 10.284v22.331l-16.749 9.67v-22.331zm-34.56 19.953 16.749-9.67v22.331l-16.749 9.67zm0 23.749 16.749-9.67v22.331l-16.749 9.67zm0 23.749 16.749-9.67v22.331l-16.749 9.67zm0 46.081v-22.332l16.749-9.67v22.331zm17.812-10.284v-22.331l16.749-9.67v22.331zm17.812-10.284v-22.331l16.749-9.67v22.331zm17.811-10.283v-22.331l16.749-9.67v22.331zm17.812-10.284v-22.331l16.749-9.67v22.331zm17.812-10.284v-22.331l16.749-9.67v22.331zm17.812-10.283v-22.331l16.749-9.67v22.331zm17.812-10.284v-22.331l16.749-9.67v22.331zm34.56-19.953-16.749 9.67v-22.331l16.749-9.67zm0-23.749-16.749 9.67v-22.331l16.749-9.67zm0-23.749-16.749 9.67v-22.331l16.749-9.67zm0-23.749-16.749 9.67v-22.331l16.749-9.67z" fill="#06daae"/><g><g><path d="m347.281 297.494-6.618-3.798c-1.183-.652-2.711-.578-4.382.387l-47.493 27.42c-3.75 2.165-6.79 7.974-6.79 12.975v8.633c0 2.707.895 4.612 2.307 5.456l6.274 3.605z" fill="url(#SVGID_00000117667519948518099950000012926291118497409669_)"/><path d="m342.64 297.728-47.493 27.42c-3.751 2.165-6.791 7.974-6.791 12.975v8.633c0 5.001 3.04 7.299 6.791 5.134l47.493-27.42c3.75-2.165 6.791-7.974 6.791-12.975v-8.633c-.001-5.001-3.041-7.299-6.791-5.134z" fill="url(#SVGID_00000029729179705926334780000008364177223354382778_)"/></g><g><path d="m347.281 336.641-6.618-3.798c-1.183-.652-2.711-.578-4.382.387l-47.493 27.42c-3.75 2.165-6.79 7.974-6.79 12.975v8.633c0 2.707.895 4.612 2.307 5.456l6.274 3.605z" fill="url(#SVGID_00000096781385517360451320000002025774036585991313_)"/><path d="m342.64 336.875-47.493 27.42c-3.751 2.165-6.791 7.974-6.791 12.975v8.633c0 5.001 3.04 7.299 6.791 5.134l47.493-27.42c3.75-2.165 6.791-7.974 6.791-12.975v-8.633c-.001-5.001-3.041-7.299-6.791-5.134z" fill="url(#SVGID_00000116951128734393455070000010995650458145737604_)"/></g><g><path d="m347.281 375.788-6.618-3.798c-1.183-.652-2.711-.578-4.382.387l-47.493 27.42c-3.75 2.165-6.79 7.974-6.79 12.975v8.633c0 2.707.895 4.612 2.307 5.456l6.274 3.605z" fill="url(#SVGID_00000170980025286590749700000002594205376086383806_)"/><path d="m342.64 376.022-47.493 27.42c-3.751 2.165-6.791 7.974-6.791 12.975v8.633c0 5 3.04 7.299 6.791 5.134l47.493-27.42c3.75-2.165 6.791-7.974 6.791-12.975v-8.633c-.001-5.001-3.041-7.299-6.791-5.134z" fill="url(#SVGID_00000067206738749031391760000010090740297051320491_)"/></g></g><g><path d="m203.939 253.806-.002.005c-2.468-1.41-5.679-1.275-9.192.753-7.783 4.494-14.093 16.549-14.093 26.927 0 5.647 1.871 9.628 4.828 11.365l-.002.005 18.992 10.979 18.586-38.979z" fill="url(#SVGID_00000132801441977060665980000008894898959414778520_)"/><path d="m227.734 276.143c0-10.378-6.31-15.148-14.093-10.654s-14.093 16.549-14.093 26.927 6.31 15.148 14.093 10.654 14.093-16.549 14.093-26.927z" fill="url(#SVGID_00000045592426344089634750000000773459654835832455_)"/><path d="m215.764 264.499c-.694.26-1.4.572-2.123.99-.724.418-1.429.921-2.124 1.462v13.476l4.247-2.452z" fill="#fff"/></g><g><path d="m203.939 323.221-.002.005c-2.468-1.411-5.679-1.275-9.192.753-7.783 4.494-14.093 16.549-14.093 26.927 0 5.647 1.871 9.628 4.828 11.365l-.002.005 18.992 10.979 18.586-38.98z" fill="url(#SVGID_00000178202748730951928110000000944890943280639392_)"/><path d="m227.734 345.557c0-10.378-6.31-15.148-14.093-10.654s-14.093 16.549-14.093 26.927 6.31 15.148 14.093 10.654c7.783-4.493 14.093-16.549 14.093-26.927z" fill="url(#SVGID_00000121971067618294170690000017641457233121282225_)"/><path d="m215.764 333.913c-.694.26-1.4.572-2.123.99-.724.418-1.429.921-2.124 1.462v13.477l4.247-2.452z" fill="#fff"/></g><g><path d="m445.933 113.622-.003.005c-2.468-1.41-5.678-1.275-9.192.753-7.783 4.494-14.093 16.549-14.093 26.927 0 5.647 1.871 9.628 4.828 11.365l-.003.005 18.992 10.979 18.586-38.979z" fill="url(#SVGID_00000062906331787024001970000008018791146785159045_)"/><path d="m469.728 135.959c0-10.378-6.31-15.148-14.093-10.654s-14.093 16.549-14.093 26.927 6.31 15.148 14.093 10.654 14.093-16.55 14.093-26.927z" fill="url(#SVGID_00000111896367465847937550000001073990705362190236_)"/><path d="m457.759 124.315c-.694.26-1.4.572-2.124.99s-1.429.921-2.123 1.462v13.476l4.247-2.452z" fill="#fff"/></g><g><path d="m445.933 183.036-.003.005c-2.468-1.41-5.678-1.275-9.192.753-7.783 4.494-14.093 16.549-14.093 26.927 0 5.647 1.871 9.628 4.828 11.365l-.003.005 18.992 10.979 18.586-38.98z" fill="url(#SVGID_00000063591980836649371780000013251053810823981224_)"/><path d="m469.728 205.373c0-10.378-6.31-15.148-14.093-10.654s-14.093 16.549-14.093 26.927 6.31 15.148 14.093 10.654 14.093-16.549 14.093-26.927z" fill="url(#SVGID_00000043453865565562533000000005857045216694162619_)"/><path d="m457.759 193.729c-.694.26-1.4.572-2.124.99s-1.429.921-2.123 1.462v13.476l4.247-2.452z" fill="#fff"/></g><g><g><path d="m55.772 262.737 68.015 39.502c3.04 1.755 5.505 6.464 5.505 10.518 0 4.054-2.464 5.917-5.505 4.161l-68.015-39.502c-3.04-1.755-5.505-6.464-5.505-10.518 0-4.053 2.465-5.916 5.505-4.161z" fill="#7e62c0"/></g><g><path d="m55.772 298.891 68.015 39.502c3.04 1.755 5.505 6.464 5.505 10.518 0 4.054-2.464 5.917-5.505 4.161l-68.015-39.502c-3.04-1.755-5.505-6.464-5.505-10.518 0-4.053 2.465-5.917 5.505-4.161z" fill="#7e62c0"/></g><g><path d="m55.772 335.044 68.015 39.501c3.04 1.755 5.505 6.464 5.505 10.518 0 4.054-2.464 5.917-5.505 4.161l-68.015-39.502c-3.04-1.755-5.505-6.464-5.505-10.518 0-4.052 2.465-5.915 5.505-4.16z" fill="#7e62c0"/></g><g><path d="m55.772 371.198 68.015 39.502c3.04 1.755 5.505 6.464 5.505 10.518 0 4.054-2.464 5.917-5.505 4.161l-68.015-39.501c-3.04-1.755-5.505-6.464-5.505-10.518 0-4.054 2.465-5.917 5.505-4.162z" fill="#7e62c0"/></g><g><path d="m55.772 407.352 68.015 39.502c3.04 1.755 5.505 6.464 5.505 10.518 0 4.054-2.464 5.917-5.505 4.162l-68.015-39.502c-3.04-1.755-5.505-6.464-5.505-10.518 0-4.054 2.465-5.917 5.505-4.162z" fill="#7e62c0"/></g></g><path d="m367.887 136.493-145.906 84.239v124.304l52.678-30.414z" fill="url(#SVGID_00000164511943861598702790000015585888418328678318_)"/></g></svg>