<svg id="Capa_1" enable-background="new 0 0 512 512" height="512" viewBox="0 0 512 512" width="512" xmlns="http://www.w3.org/2000/svg" xmlns:xlink="http://www.w3.org/1999/xlink"><linearGradient id="lg1"><stop offset="0" stop-color="#45356d"/><stop offset=".2699" stop-color="#544081"/><stop offset="1" stop-color="#b096ed"/></linearGradient><linearGradient id="SVGID_1_" gradientUnits="userSpaceOnUse" x1="92.644" x2="412.76" xlink:href="#lg1" y1="421.52" y2="421.52"/><linearGradient id="lg2"><stop offset="0" stop-color="#45356d"/><stop offset=".2699" stop-color="#544081"/><stop offset="1" stop-color="#7e62c0"/></linearGradient><linearGradient id="SVGID_2_" gradientUnits="userSpaceOnUse" x1="475.589" x2="43.814" xlink:href="#lg2" y1="74.808" y2="617.158"/><linearGradient id="SVGID_3_" gradientUnits="userSpaceOnUse" x1="390.326" x2="126.202" y1="181.906" y2="513.67"><stop offset="0" stop-color="#322650"/><stop offset="1" stop-color="#45356d"/></linearGradient><linearGradient id="SVGID_4_" gradientUnits="userSpaceOnUse" x1="130.066" x2="144.33" xlink:href="#lg1" y1="93.608" y2="68.902"/><linearGradient id="SVGID_5_" gradientUnits="userSpaceOnUse" x1="122.725" x2="122.725" xlink:href="#lg1" y1="311.092" y2="-24.12"/><linearGradient id="SVGID_6_" gradientTransform="matrix(-1 0 0 1 714.589 0)" gradientUnits="userSpaceOnUse" x1="323.639" x2="337.903" xlink:href="#lg1" y1="72.823" y2="48.117"/><linearGradient id="SVGID_7_" gradientTransform="matrix(-1 0 0 1 714.589 0)" gradientUnits="userSpaceOnUse" x1="313.812" x2="313.812" xlink:href="#lg1" y1="294.613" y2="-40.599"/><linearGradient id="SVGID_8_" gradientUnits="userSpaceOnUse" x1="112.287" x2="393.91" xlink:href="#lg1" y1="135.554" y2="135.554"/><linearGradient id="SVGID_9_" gradientUnits="userSpaceOnUse" x1="281.773" x2="216.92" xlink:href="#lg2" y1="-121.973" y2="487.44"/><linearGradient id="SVGID_10_" gradientUnits="userSpaceOnUse" x1="408.117" x2="422.381" xlink:href="#lg1" y1="263.14" y2="238.434"/><linearGradient id="SVGID_11_" gradientUnits="userSpaceOnUse" x1="400.776" x2="400.776" xlink:href="#lg1" y1="480.624" y2="145.412"/><linearGradient id="SVGID_12_" gradientTransform="matrix(-1 0 0 1 714.589 0)" gradientUnits="userSpaceOnUse" x1="651.888" x2="666.152" xlink:href="#lg1" y1="263.03" y2="238.324"/><linearGradient id="SVGID_13_" gradientTransform="matrix(-1 0 0 1 714.589 0)" gradientUnits="userSpaceOnUse" x1="642.061" x2="642.061" xlink:href="#lg1" y1="484.82" y2="149.608"/><g><path d="m492.672 355.776v-24.737l-473.342 39.314v24.436c-.059 31.429 18.938 61.442 57.764 83.859 85.569 49.404 235.035 43.207 333.841-13.838 54.044-31.202 81.738-71.155 81.737-109.034z" fill="url(#SVGID_1_)"/><path d="m434.904 247.343c-85.569-49.404-235.034-43.209-333.841 13.837-98.805 57.046-109.536 143.34-23.968 192.743 85.569 49.404 235.035 43.207 333.841-13.838 98.806-57.046 109.537-143.34 23.968-192.742z" fill="url(#SVGID_2_)"/><path d="m365.439 287.448c-52.344-30.221-143.774-26.432-204.216 8.464-60.441 34.896-67.005 87.684-14.662 117.904 52.344 30.221 143.775 26.431 204.216-8.465 60.441-34.895 67.006-87.683 14.662-117.903z" fill="url(#SVGID_3_)"/><g><path d="m148.024 27.97-14.585-8.468-.002.011c-2.029-1.257-4.689-1.483-7.051-.12l-39.455 22.779c-4.429 2.557-7.158 7.284-7.158 12.398v222.633l14.492 8.396z" fill="url(#SVGID_4_)"/><path d="m94.266 285.599v-222.633c0-5.115 2.729-9.841 7.158-12.398l39.454-22.779c4.581-2.645 10.307.661 10.307 5.951v218.998z" fill="url(#SVGID_5_)"/></g><g><path d="m375.478 11.491 14.585-8.468.002.011c2.029-1.257 4.689-1.483 7.051-.12l39.454 22.78c4.429 2.557 7.158 7.284 7.158 12.398v222.633l-14.492 8.396z" fill="url(#SVGID_6_)"/><path d="m429.236 269.121v-222.634c0-5.115-2.729-9.841-7.158-12.398l-39.455-22.779c-4.581-2.645-10.307.661-10.307 5.95v218.998z" fill="url(#SVGID_7_)"/></g><path d="m464.212 124.737v-21.762s-55.264-99.565-184.498-93.801c-208.353 9.292-231.924 128.387-231.924 128.387v21.497c-.052 27.649 16.66 54.053 50.818 73.775 75.279 43.463 206.772 38.012 293.697-12.174 47.544-27.45 71.908-62.598 71.907-95.922zm-323.579-49.381c73.573-42.477 184.865-47.09 248.581-10.303 42.395 24.476 53.032 61.113 33.738 95.406-1.763 1.613-43.708 67.239-198.188 71.379-60.655 1.626-109.706-25.329-140.848-53.893-13.484-33.81 6.085-73.357 56.717-102.589z" fill="url(#SVGID_8_)"/><path d="m413.391 29.342c-75.279-43.463-206.771-38.012-293.697 12.174-86.924 50.186-96.364 126.103-21.086 169.565 75.279 43.463 206.772 38.012 293.697-12.174 86.925-50.185 96.366-126.103 21.086-169.565zm-42.025 157.477c-73.572 42.476-184.865 47.09-248.581 10.303-63.714-36.785-55.724-101.04 17.848-143.518 73.573-42.477 184.865-47.09 248.581-10.304 63.715 36.787 55.725 101.042-17.848 143.519z" fill="url(#SVGID_9_)"/><g><path d="m426.075 197.502-14.585-8.468-.002.011c-2.029-1.257-4.69-1.483-7.051-.12l-39.454 22.78c-4.429 2.557-7.158 7.284-7.158 12.398v222.633l14.492 8.396z" fill="url(#SVGID_10_)"/><path d="m372.317 455.131v-222.633c0-5.115 2.729-9.841 7.158-12.398l39.454-22.779c4.581-2.645 10.307.661 10.307 5.95v218.998z" fill="url(#SVGID_11_)"/></g><g><path d="m47.229 201.698 14.585-8.468.002.011c2.029-1.257 4.689-1.483 7.051-.12l39.454 22.78c4.429 2.557 7.158 7.284 7.158 12.398v222.633l-14.492 8.396z" fill="url(#SVGID_12_)"/><path d="m100.987 459.327v-222.633c0-5.115-2.729-9.841-7.158-12.398l-39.454-22.779c-4.581-2.645-10.307.661-10.307 5.951v218.998z" fill="url(#SVGID_13_)"/></g></g></svg>