<svg id="Capa_1" enable-background="new 0 0 512 512" height="512" viewBox="0 0 512 512" width="512" xmlns="http://www.w3.org/2000/svg" xmlns:xlink="http://www.w3.org/1999/xlink"><linearGradient id="lg1"><stop offset=".0319" stop-color="#ff7a85"/><stop offset=".1791" stop-color="#ff7f89"/><stop offset="1" stop-color="#ff959d"/></linearGradient><linearGradient id="SVGID_1_" gradientTransform="matrix(1 0 0 -1 0 514)" gradientUnits="userSpaceOnUse" x1="86.329" x2="139.392" xlink:href="#lg1" y1="210.859" y2="302.767"/><linearGradient id="SVGID_2_" gradientTransform="matrix(1 0 0 -1 0 514)" gradientUnits="userSpaceOnUse" x1="138.297" x2="151.255" xlink:href="#lg1" y1="307.89" y2="330.335"/><linearGradient id="SVGID_3_" gradientTransform="matrix(1 0 0 -1 0 514)" gradientUnits="userSpaceOnUse" x1="98.227" x2="105.927" xlink:href="#lg1" y1="273.004" y2="286.341"/><linearGradient id="lg2"><stop offset="0" stop-color="#ab2c37"/><stop offset="1" stop-color="#ff4757"/></linearGradient><linearGradient id="SVGID_4_" gradientTransform="matrix(1 0 0 -1 0 514)" gradientUnits="userSpaceOnUse" x1="127.933" x2="127.933" xlink:href="#lg2" y1="200.548" y2="351.578"/><linearGradient id="lg3"><stop offset=".0319" stop-color="#5d3645"/><stop offset="1" stop-color="#5d3645" stop-opacity="0"/></linearGradient><linearGradient id="SVGID_5_" gradientTransform="matrix(1 0 0 -1 0 514)" gradientUnits="userSpaceOnUse" x1="108.316" x2="106.189" xlink:href="#lg3" y1="261.789" y2="252.763"/><linearGradient id="SVGID_6_" gradientTransform="matrix(1 0 0 -1 0 514)" gradientUnits="userSpaceOnUse" x1="126.688" x2="147.267" xlink:href="#lg3" y1="244.954" y2="229.183"/><linearGradient id="SVGID_7_" gradientTransform="matrix(1 0 0 -1 0 514)" gradientUnits="userSpaceOnUse" x1="219.539" x2="272.602" xlink:href="#lg1" y1="286.403" y2="378.311"/><linearGradient id="SVGID_8_" gradientTransform="matrix(1 0 0 -1 0 514)" gradientUnits="userSpaceOnUse" x1="271.506" x2="284.464" xlink:href="#lg1" y1="383.434" y2="405.878"/><linearGradient id="SVGID_9_" gradientTransform="matrix(1 0 0 -1 0 514)" gradientUnits="userSpaceOnUse" x1="231.436" x2="239.136" xlink:href="#lg1" y1="348.548" y2="361.885"/><linearGradient id="SVGID_10_" gradientTransform="matrix(1 0 0 -1 0 514)" gradientUnits="userSpaceOnUse" x1="261.141" x2="261.141" xlink:href="#lg2" y1="276.092" y2="427.121"/><linearGradient id="SVGID_11_" gradientTransform="matrix(1 0 0 -1 0 514)" gradientUnits="userSpaceOnUse" x1="241.525" x2="239.398" xlink:href="#lg3" y1="337.333" y2="328.307"/><linearGradient id="SVGID_12_" gradientTransform="matrix(1 0 0 -1 0 514)" gradientUnits="userSpaceOnUse" x1="259.897" x2="280.476" xlink:href="#lg3" y1="320.497" y2="304.726"/><linearGradient id="SVGID_13_" gradientTransform="matrix(1 0 0 -1 0 514)" gradientUnits="userSpaceOnUse" x1="219.538" x2="272.602" xlink:href="#lg1" y1="75.774" y2="167.682"/><linearGradient id="SVGID_14_" gradientTransform="matrix(1 0 0 -1 0 514)" gradientUnits="userSpaceOnUse" x1="271.506" x2="284.464" xlink:href="#lg1" y1="172.805" y2="195.249"/><linearGradient id="SVGID_15_" gradientTransform="matrix(1 0 0 -1 0 514)" gradientUnits="userSpaceOnUse" x1="231.436" x2="239.136" xlink:href="#lg1" y1="137.918" y2="151.255"/><linearGradient id="SVGID_16_" gradientTransform="matrix(1 0 0 -1 0 514)" gradientUnits="userSpaceOnUse" x1="261.141" x2="261.141" xlink:href="#lg2" y1="65.463" y2="216.492"/><linearGradient id="SVGID_17_" gradientTransform="matrix(1 0 0 -1 0 514)" gradientUnits="userSpaceOnUse" x1="241.525" x2="239.398" xlink:href="#lg3" y1="126.704" y2="117.678"/><linearGradient id="SVGID_18_" gradientTransform="matrix(1 0 0 -1 0 514)" gradientUnits="userSpaceOnUse" x1="259.897" x2="280.476" xlink:href="#lg3" y1="109.868" y2="94.097"/><linearGradient id="SVGID_19_" gradientTransform="matrix(1 0 0 -1 0 514)" gradientUnits="userSpaceOnUse" x1="352.747" x2="405.81" xlink:href="#lg1" y1="151.318" y2="243.226"/><linearGradient id="SVGID_20_" gradientTransform="matrix(1 0 0 -1 0 514)" gradientUnits="userSpaceOnUse" x1="404.715" x2="417.673" xlink:href="#lg1" y1="248.349" y2="270.793"/><linearGradient id="SVGID_21_" gradientTransform="matrix(1 0 0 -1 0 514)" gradientUnits="userSpaceOnUse" x1="364.644" x2="372.344" xlink:href="#lg1" y1="213.463" y2="226.8"/><linearGradient id="SVGID_22_" gradientTransform="matrix(1 0 0 -1 0 514)" gradientUnits="userSpaceOnUse" x1="394.351" x2="394.351" xlink:href="#lg2" y1="141.006" y2="292.036"/><linearGradient id="SVGID_23_" gradientTransform="matrix(1 0 0 -1 0 514)" gradientUnits="userSpaceOnUse" x1="374.734" x2="372.607" xlink:href="#lg3" y1="202.247" y2="193.221"/><linearGradient id="SVGID_24_" gradientTransform="matrix(1 0 0 -1 0 514)" gradientUnits="userSpaceOnUse" x1="393.107" x2="413.686" xlink:href="#lg3" y1="185.411" y2="169.641"/><linearGradient id="lg4"><stop offset="0" stop-color="#43386b"/><stop offset=".2999" stop-color="#594a8e"/><stop offset="1" stop-color="#a996eb"/></linearGradient><linearGradient id="SVGID_25_" gradientTransform="matrix(1 0 0 -1 0 514)" gradientUnits="userSpaceOnUse" x1="109.96" x2="143.491" xlink:href="#lg4" y1="25.818" y2="83.894"/><linearGradient id="lg5"><stop offset="0" stop-color="#594a8e"/><stop offset="1" stop-color="#7662bd"/></linearGradient><linearGradient id="SVGID_26_" gradientTransform="matrix(1 0 0 -1 0 514)" gradientUnits="userSpaceOnUse" x1="133.353" x2="133.353" xlink:href="#lg5" y1="-7.334" y2="105.158"/><linearGradient id="SVGID_27_" gradientTransform="matrix(1 0 0 -1 0 514)" gradientUnits="userSpaceOnUse" x1="109.295" x2="142.825" xlink:href="#lg4" y1="372.079" y2="430.155"/><linearGradient id="SVGID_28_" gradientTransform="matrix(1 0 0 -1 0 514)" gradientUnits="userSpaceOnUse" x1="132.688" x2="132.688" xlink:href="#lg5" y1="338.927" y2="451.419"/><g><path d="m131.535 236.743 28.873-49.818-10.052-5.805.001.022c-3.856-2.331-9.751 1.241-13.443 8.295l-19.265 36.808-9.565-9.008-10.213-5.897.015.029c-3.857-2.263-9.714 1.31-13.387 8.33-3.834 7.326-3.834 15.616 0 18.515l19.264 14.563-19.264 36.808c-3.834 7.327-3.834 15.616 0 18.515.253.191 10.883 6.323 10.883 6.323l22.268-51.149 20.16 15.105 9.632 5.568z" fill="url(#SVGID_1_)"/><path d="m150.357 181.142c-3.856-2.331-9.751 1.241-13.443 8.295l-18.575 35.491 9.593 7.252 32.476-45.256-10.052-5.805z" fill="url(#SVGID_2_)"/><path d="m97.887 211.369c-3.857-2.263-9.714 1.31-13.387 8.33-3.834 7.326-3.834 15.616 0 18.515l19.264 14.563 10.283 5.935-5.961-41.475-10.213-5.897z" fill="url(#SVGID_3_)"/><path d="m141.818 242.678 19.264-36.808c3.835-7.327 3.835-15.616 0-18.515-3.834-2.899-10.051.691-13.885 8.017l-19.265 36.808-19.264-14.563c-3.834-2.899-10.052.69-13.886 8.017s-3.834 15.616 0 18.515l19.264 14.563-19.264 36.808c-3.834 7.327-3.834 15.616 0 18.515 1.917 1.45 4.43 1.277 6.943-.174s5.026-4.18 6.943-7.843l19.264-36.808 19.265 14.564c1.917 1.449 4.43 1.277 6.943-.174s5.026-4.18 6.943-7.843c3.835-7.326 3.835-15.616 0-18.515z" fill="url(#SVGID_4_)"/><path d="m98.643 262.438h13.453l1.95-3.726-10.282-5.935z" fill="url(#SVGID_5_)"/><path d="m127.267 270.48 10.543 7.899 9.36 5.411c.012-.008.027-.017.027-.017l-19.265-14.564z" fill="url(#SVGID_6_)"/><path d="m264.744 161.2 28.873-49.818-10.052-5.805.001.022c-3.856-2.331-9.751 1.241-13.443 8.295l-19.265 36.808-9.565-9.008-10.213-5.897.015.029c-3.857-2.263-9.713 1.309-13.387 8.33-3.834 7.326-3.834 15.616 0 18.515l19.264 14.563-19.264 36.808c-3.834 7.326-3.834 15.616 0 18.515.253.191 10.883 6.324 10.883 6.324l22.268-51.149 20.16 15.105 9.632 5.568z" fill="url(#SVGID_7_)"/><path d="m283.566 105.599c-3.856-2.331-9.751 1.241-13.443 8.295l-18.575 35.491 9.593 7.252 32.476-45.256-10.052-5.805z" fill="url(#SVGID_8_)"/><path d="m231.096 135.826c-3.857-2.263-9.713 1.309-13.387 8.33-3.834 7.326-3.834 15.616 0 18.515l19.264 14.563 10.283 5.935-5.961-41.475-10.213-5.897z" fill="url(#SVGID_9_)"/><path d="m275.027 167.135 19.264-36.808c3.835-7.326 3.835-15.616 0-18.515-3.834-2.899-10.051.691-13.886 8.017l-19.265 36.808-19.264-14.564c-3.834-2.899-10.052.691-13.886 8.017-3.834 7.327-3.834 15.616 0 18.515l19.264 14.563-19.264 36.808c-3.834 7.327-3.834 15.616 0 18.515 1.917 1.45 4.43 1.277 6.943-.174s5.026-4.18 6.943-7.843l19.264-36.808 19.265 14.564c1.917 1.449 4.43 1.277 6.943-.174s5.026-4.18 6.943-7.843c3.835-7.327 3.835-15.616 0-18.515z" fill="url(#SVGID_10_)"/><path d="m231.852 186.894h13.453l1.95-3.725-10.282-5.935z" fill="url(#SVGID_11_)"/><path d="m260.476 194.937 10.543 7.899 9.36 5.411c.012-.008.027-.017.027-.017l-19.265-14.564z" fill="url(#SVGID_12_)"/><path d="m264.744 371.829 28.873-49.818-10.052-5.805.001.022c-3.856-2.331-9.751 1.241-13.443 8.295l-19.265 36.808-9.565-9.008-10.213-5.897.015.029c-3.857-2.263-9.713 1.309-13.387 8.33-3.834 7.326-3.834 15.616 0 18.515l19.264 14.563-19.264 36.808c-3.834 7.326-3.834 15.616 0 18.515.253.191 10.883 6.323 10.883 6.323l22.268-51.149 20.16 15.105 9.632 5.568z" fill="url(#SVGID_13_)"/><path d="m283.566 316.228c-3.856-2.331-9.751 1.241-13.443 8.295l-18.575 35.491 9.593 7.252 32.476-45.256-10.052-5.805z" fill="url(#SVGID_14_)"/><path d="m231.096 346.455c-3.857-2.263-9.713 1.309-13.387 8.33-3.834 7.326-3.834 15.616 0 18.515l19.264 14.563 10.283 5.935-5.961-41.475-10.213-5.897z" fill="url(#SVGID_15_)"/><path d="m275.027 377.764 19.264-36.808c3.835-7.327 3.835-15.616 0-18.515-3.834-2.899-10.051.691-13.886 8.017l-19.265 36.808-19.264-14.564c-3.834-2.899-10.052.69-13.886 8.017s-3.834 15.616 0 18.515l19.264 14.563-19.264 36.808c-3.834 7.327-3.834 15.616 0 18.515 1.917 1.45 4.43 1.277 6.943-.174s5.026-4.18 6.943-7.843l19.264-36.808 19.265 14.564c1.917 1.449 4.43 1.277 6.943-.174s5.026-4.18 6.943-7.843c3.835-7.326 3.835-15.616 0-18.515z" fill="url(#SVGID_16_)"/><path d="m231.852 397.523h13.453l1.95-3.725-10.282-5.935z" fill="url(#SVGID_17_)"/><path d="m260.476 405.566 10.543 7.899 9.36 5.411c.012-.008.027-.017.027-.017l-19.265-14.564z" fill="url(#SVGID_18_)"/><path d="m397.954 296.285 28.873-49.818-10.052-5.805.001.022c-3.856-2.331-9.751 1.241-13.443 8.295l-19.265 36.808-9.565-9.008-10.213-5.897.015.029c-3.857-2.263-9.714 1.31-13.388 8.33-3.834 7.326-3.834 15.616 0 18.515l19.264 14.563-19.264 36.808c-3.834 7.326-3.834 15.616 0 18.515.253.191 10.883 6.323 10.883 6.323l22.268-51.149 20.16 15.105 9.632 5.568z" fill="url(#SVGID_19_)"/><path d="m416.775 240.684c-3.856-2.331-9.751 1.241-13.443 8.295l-18.575 35.491 9.593 7.252 32.476-45.256-10.052-5.805z" fill="url(#SVGID_20_)"/><path d="m364.305 270.911c-3.857-2.263-9.714 1.31-13.388 8.33-3.834 7.326-3.834 15.616 0 18.515l19.264 14.563 10.283 5.935-5.961-41.475-10.213-5.897z" fill="url(#SVGID_21_)"/><path d="m408.236 302.22 19.264-36.808c3.835-7.326 3.835-15.616 0-18.515-3.834-2.899-10.051.691-13.885 8.017l-19.265 36.808-19.264-14.564c-3.834-2.899-10.052.69-13.886 8.017s-3.834 15.616 0 18.515l19.264 14.563-19.264 36.809c-3.834 7.327-3.834 15.616 0 18.515 1.917 1.45 4.43 1.277 6.943-.174s5.026-4.18 6.943-7.843l19.264-36.808 19.265 14.563c1.917 1.449 4.43 1.277 6.943-.174s5.026-4.18 6.943-7.843c3.835-7.326 3.835-15.616 0-18.515z" fill="url(#SVGID_22_)"/><path d="m365.061 321.98h13.454l1.95-3.726-10.283-5.935z" fill="url(#SVGID_23_)"/><path d="m393.685 330.022 10.543 7.899 9.36 5.411c.012-.008.027-.017.027-.017l-19.265-14.563z" fill="url(#SVGID_24_)"/><path d="m156.966 410.928.001-.003-10.612-6.127-.032.066c-6.317-3.93-14.647-3.77-23.812 1.521-19.694 11.371-35.659 41.875-35.659 68.134 0 13.395 4.17 23.068 10.854 27.85l-.011.024.549.316c.697.464 1.412.889 2.16 1.248l8.334 4.811c6.401 4.454 15.067 4.466 24.616-1.047 19.694-11.37 35.659-41.875 35.659-68.134-.001-14.181-4.662-24.212-12.047-28.659z" fill="url(#SVGID_25_)"/><path d="m169.012 439.587c0 26.259-15.965 56.763-35.659 68.134-19.694 11.37-35.659-.699-35.659-26.958s15.965-56.763 35.659-68.134 35.659.699 35.659 26.958z" fill="url(#SVGID_26_)"/><path d="m156.301 64.667.001-.003-10.612-6.127-.033.066c-6.317-3.93-14.647-3.771-23.812 1.521-19.694 11.371-35.659 41.875-35.659 68.134 0 13.395 4.17 23.067 10.854 27.85l-.011.024.549.316c.697.464 1.412.889 2.16 1.248l8.334 4.812c6.401 4.454 15.067 4.466 24.616-1.047 19.694-11.37 35.659-41.875 35.659-68.134 0-14.181-4.661-24.212-12.046-28.66z" fill="url(#SVGID_27_)"/><path d="m168.347 93.326c0 26.259-15.965 56.763-35.659 68.134-19.694 11.37-35.659-.699-35.659-26.958s15.965-56.763 35.659-68.134c19.694-11.37 35.659.699 35.659 26.958z" fill="url(#SVGID_28_)"/><g fill="#43386b"><path d="m138.144 355.747c-2.816-1.699-3.71-5.364-2.012-8.18 1.713-2.816 5.379-3.71 8.195-2.012 2.816 1.713 3.71 5.379 1.997 8.18-1.118 1.862-3.085 2.876-5.096 2.876-1.058.001-2.116-.282-3.084-.864zm19.951-22.826c-1.654-2.846-.671-6.496 2.175-8.135 2.846-1.639 6.496-.671 8.135 2.175 1.654 2.861.671 6.496-2.175 8.15-.939.537-1.967.79-2.98.79-2.056 0-4.053-1.057-5.155-2.98zm26.491-15.287c-1.654-2.861-.67-6.496 2.175-8.15 2.846-1.639 6.497-.671 8.15 2.19 1.639 2.846.656 6.496-2.191 8.135-.939.551-1.967.805-2.98.805-2.055 0-4.051-1.072-5.154-2.98zm26.492-15.302c-1.654-2.846-.671-6.496 2.175-8.135 2.845-1.654 6.496-.671 8.135 2.175 1.654 2.861.671 6.496-2.175 8.15-.939.536-1.966.79-2.979.79-2.057 0-4.054-1.058-5.156-2.98zm26.477-15.287c-1.64-2.861-.656-6.496 2.19-8.15 2.846-1.639 6.497-.671 8.135 2.19 1.654 2.846.671 6.496-2.175 8.135-.938.536-1.967.805-2.98.805-2.057 0-4.053-1.073-5.17-2.98zm26.506-15.302c-1.654-2.846-.671-6.496 2.175-8.135 2.846-1.654 6.495-.67 8.135 2.175 1.653 2.846.671 6.496-2.175 8.15-.939.536-1.967.79-2.98.79-2.056 0-4.052-1.058-5.155-2.98zm26.491-15.287c-1.653-2.861-.669-6.496 2.177-8.15 2.845-1.639 6.495-.67 8.135 2.19 1.653 2.846.669 6.496-2.175 8.135-.94.537-1.967.805-2.98.805-2.058 0-4.054-1.073-5.157-2.98zm26.566-15.168c-1.743-2.786-.908-6.467 1.879-8.21 2.786-1.758 6.466-.924 8.224 1.862 1.743 2.786.909 6.466-1.877 8.225-.984.611-2.087.909-3.173.909-1.968 0-3.905-.983-5.053-2.786zm24.064-18.773c-2.562-2.056-2.965-5.811-.893-8.373 2.056-2.563 5.81-2.965 8.372-.909 2.564 2.071 2.965 5.826.909 8.388-1.192 1.461-2.906 2.22-4.649 2.22-1.311 0-2.637-.432-3.739-1.326zm16.657-25.568c-3.099-1.117-4.692-4.529-3.575-7.629 1.117-3.099 4.544-4.693 7.643-3.561 3.085 1.117 4.678 4.529 3.56 7.628-.879 2.429-3.159 3.934-5.602 3.934-.67.001-1.355-.119-2.026-.372zm7.45-29.576c-3.293-.06-5.9-2.771-5.855-6.064.06-3.293 2.772-5.915 6.065-5.855 3.293.06 5.915 2.771 5.855 6.064-.06 3.248-2.712 5.855-5.96 5.855-.03 0-.06 0-.105 0zm-5.841-36.549c0-3.293 2.667-5.96 5.96-5.96 3.293 0 5.96 2.667 5.96 5.96 0 3.293-2.667 5.96-5.96 5.96-3.293 0-5.96-2.667-5.96-5.96zm0-30.589c0-3.293 2.667-5.96 5.96-5.96 3.293 0 5.96 2.667 5.96 5.96 0 3.293-2.667 5.96-5.96 5.96-3.293 0-5.96-2.667-5.96-5.96zm0-30.589c0-3.293 2.667-5.96 5.96-5.96 3.293 0 5.96 2.667 5.96 5.96 0 3.293-2.667 5.96-5.96 5.96-3.293 0-5.96-2.667-5.96-5.96z"/><path d="m351.862 5.265c-12.217-7.039-26.795-7.019-38.991.053l-103.514 60.015 16.01-30.592c1.526-2.916.4-6.517-2.517-8.044-2.91-1.525-6.516-.402-8.043 2.517l-27.79 53.099 29.016 21.936c1.075.813 2.337 1.206 3.59 1.206 1.804 0 3.587-.816 4.758-2.366 1.986-2.626 1.467-6.364-1.16-8.348l-17.718-13.395 113.345-65.716c8.467-4.91 18.585-4.921 27.064-.036s13.541 13.644 13.541 23.429c0 3.292 2.669 5.96 5.96 5.96s5.96-2.668 5.96-5.96c-.001-14.099-7.295-26.719-19.511-33.758z"/><circle cx="133.07" cy="379.753" r="5.949"/></g></g></svg>