<svg id="Capa_1" enable-background="new 0 0 512 512" height="512" viewBox="0 0 512 512" width="512" xmlns="http://www.w3.org/2000/svg" xmlns:xlink="http://www.w3.org/1999/xlink"><linearGradient id="SVGID_1_" gradientUnits="userSpaceOnUse" x1="191.881" x2="208.833" y1="97.255" y2="97.255"><stop offset="0" stop-color="#c9baec"/><stop offset=".3855" stop-color="#c9baec"/><stop offset="1" stop-color="#e8e3f3"/></linearGradient><linearGradient id="lg1"><stop offset="0" stop-color="#c9baec"/><stop offset=".5529" stop-color="#e8e3f3"/><stop offset="1" stop-color="#e8e3f3"/></linearGradient><linearGradient id="SVGID_2_" gradientUnits="userSpaceOnUse" x1="245.599" x2="223.692" xlink:href="#lg1" y1="70.21" y2="32.267"/><linearGradient id="lg2"><stop offset="0" stop-color="#c9baec"/><stop offset=".3855" stop-color="#e8e3f3"/><stop offset="1" stop-color="#e8e3f3"/></linearGradient><linearGradient id="SVGID_3_" gradientUnits="userSpaceOnUse" x1="337.079" x2="459.733" xlink:href="#lg2" y1="223.395" y2="91.58"/><linearGradient id="lg3"><stop offset="0" stop-color="#c9baec"/><stop offset="1" stop-color="#e8e3f3"/></linearGradient><linearGradient id="SVGID_4_" gradientUnits="userSpaceOnUse" x1="288.805" x2="341.798" xlink:href="#lg3" y1="221.933" y2="221.933"/><linearGradient id="SVGID_5_" gradientUnits="userSpaceOnUse" x1="273.843" x2="273.843" y1="254.923" y2="168.773"><stop offset="0" stop-color="#c9baec"/><stop offset=".8488" stop-color="#e8e3f3"/></linearGradient><linearGradient id="SVGID_6_" gradientUnits="userSpaceOnUse" x1="51.118" x2="32.154" xlink:href="#lg1" y1="176.426" y2="143.581"/><linearGradient id="SVGID_7_" gradientUnits="userSpaceOnUse" x1="274.059" x2="4.733" xlink:href="#lg2" y1="168.958" y2="219.995"/><linearGradient id="SVGID_8_" gradientUnits="userSpaceOnUse" x1="80.488" x2="245.554" xlink:href="#lg2" y1="373.537" y2="223.011"/><linearGradient id="SVGID_9_" gradientUnits="userSpaceOnUse" x1="309.752" x2="220.032" y1="310.53" y2="343.721"><stop offset="0" stop-color="#c9baec"/><stop offset="1" stop-color="#c9baec" stop-opacity="0"/></linearGradient><linearGradient id="SVGID_10_" gradientUnits="userSpaceOnUse" x1="240.106" x2="271.59" xlink:href="#lg3" y1="273.566" y2="273.566"/><linearGradient id="SVGID_11_" gradientUnits="userSpaceOnUse" x1="423.695" x2="118.046" xlink:href="#lg2" y1="102.09" y2="160.009"/><linearGradient id="SVGID_12_" gradientUnits="userSpaceOnUse" x1="266.956" x2="-90.682" xlink:href="#lg2" y1="195.687" y2="263.458"/><linearGradient id="SVGID_13_" gradientUnits="userSpaceOnUse" x1="260.419" x2="293.848" y1="87.088" y2="87.088"><stop offset="0" stop-color="#e2823a"/><stop offset="1" stop-color="#ffc51e"/></linearGradient><linearGradient id="SVGID_14_" gradientUnits="userSpaceOnUse" x1="354.456" x2="387.885" y1="141.237" y2="141.237"><stop offset="0" stop-color="#c62834"/><stop offset="1" stop-color="#ff4557"/></linearGradient><linearGradient id="SVGID_15_" gradientUnits="userSpaceOnUse" x1="348.157" x2="381.585" y1="90.636" y2="90.636"><stop offset="0" stop-color="#0073bf"/><stop offset="1" stop-color="#0097f9"/></linearGradient><linearGradient id="SVGID_16_" gradientUnits="userSpaceOnUse" x1="266.718" x2="300.147" y1="137.642" y2="137.642"><stop offset="0" stop-color="#006568"/><stop offset="1" stop-color="#00878a"/></linearGradient><linearGradient id="SVGID_17_" gradientUnits="userSpaceOnUse" x1="47.062" x2="122.1" y1="201.118" y2="201.118"><stop offset="0" stop-color="#45356d"/><stop offset=".2858" stop-color="#544081"/><stop offset="1" stop-color="#7e62c0"/></linearGradient><linearGradient id="lg4"><stop offset="0" stop-color="#45356d"/><stop offset=".2302" stop-color="#544081"/><stop offset="1" stop-color="#7e62c0"/></linearGradient><linearGradient id="SVGID_18_" gradientUnits="userSpaceOnUse" x1="84.858" x2="120.882" xlink:href="#lg4" y1="248.363" y2="248.363"/><linearGradient id="SVGID_19_" gradientUnits="userSpaceOnUse" x1="152.738" x2="200.728" y1="201.874" y2="201.874"><stop offset="0" stop-color="#45356d"/><stop offset=".3697" stop-color="#544081"/><stop offset="1" stop-color="#7e62c0"/></linearGradient><radialGradient id="SVGID_20_" cx="277.58" cy="69.657" gradientTransform="matrix(.989 .147 -.098 .663 9.851 -17.248)" gradientUnits="userSpaceOnUse" r="32.148"><stop offset="0" stop-color="#ffe026"/><stop offset=".6145" stop-color="#ffc51e"/><stop offset="1" stop-color="#ffa627"/></radialGradient><radialGradient id="SVGID_21_" cx="280.485" cy="120.313" gradientTransform="matrix(.989 .147 -.098 .663 14.863 -.611)" gradientUnits="userSpaceOnUse" r="39.149"><stop offset="0" stop-color="#61efde"/><stop offset=".6145" stop-color="#00daac"/><stop offset="1" stop-color="#00878a"/></radialGradient><radialGradient id="SVGID_22_" cx="371.617" cy="123.95" gradientTransform="matrix(.989 .147 -.098 .663 16.206 -12.752)" gradientUnits="userSpaceOnUse" r="32.148"><stop offset="0" stop-color="#ff7b86"/><stop offset=".6145" stop-color="#ff4557"/><stop offset="1" stop-color="#c62834"/></radialGradient><radialGradient id="SVGID_23_" cx="365.317" cy="73.294" gradientTransform="matrix(.989 .147 -.098 .663 11.157 -28.891)" gradientUnits="userSpaceOnUse" r="32.148"><stop offset="0" stop-color="#17d3ff"/><stop offset=".6145" stop-color="#00adfb"/><stop offset="1" stop-color="#0097f9"/></radialGradient><linearGradient id="lg5"><stop offset="0" stop-color="#45356d"/><stop offset=".3855" stop-color="#544081"/><stop offset="1" stop-color="#7e62c0"/></linearGradient><linearGradient id="SVGID_24_" gradientUnits="userSpaceOnUse" x1="189.246" x2="59.35" xlink:href="#lg5" y1="269.698" y2="169.421"/><linearGradient id="SVGID_25_" gradientUnits="userSpaceOnUse" x1="171.477" x2="41.58" xlink:href="#lg5" y1="292.715" y2="192.439"/><linearGradient id="SVGID_26_" gradientUnits="userSpaceOnUse" x1="215.767" x2="85.871" xlink:href="#lg5" y1="235.343" y2="135.066"/><linearGradient id="lg6"><stop offset="0" stop-color="#5e4990"/><stop offset=".6145" stop-color="#45356d"/><stop offset="1" stop-color="#322650"/></linearGradient><radialGradient id="SVGID_27_" cx="498.261" cy="219.593" gradientTransform="matrix(-1 0 0 .689 736.059 68.243)" gradientUnits="userSpaceOnUse" r="40.16" xlink:href="#lg6"/><linearGradient id="lg7"><stop offset="0" stop-color="#322650"/><stop offset=".4827" stop-color="#45356d"/></linearGradient><linearGradient id="SVGID_28_" gradientTransform="matrix(-1 0 0 1 736.059 0)" gradientUnits="userSpaceOnUse" x1="483.583" x2="504.083" xlink:href="#lg7" y1="222.603" y2="204.881"/><radialGradient id="SVGID_29_" cx="492.866" cy="193.936" gradientTransform="matrix(-1 0 0 .54 736.059 89.288)" gradientUnits="userSpaceOnUse" r="49.289" xlink:href="#lg6"/><radialGradient id="SVGID_30_" cx="417.043" cy="172.607" gradientTransform="matrix(-1 0 0 .689 736.059 53.641)" gradientUnits="userSpaceOnUse" r="40.16" xlink:href="#lg6"/><linearGradient id="SVGID_31_" gradientTransform="matrix(-1 0 0 1 736.059 0)" gradientUnits="userSpaceOnUse" x1="402.365" x2="422.865" xlink:href="#lg7" y1="175.617" y2="157.895"/><radialGradient id="SVGID_32_" cx="411.648" cy="146.95" gradientTransform="matrix(-1 0 0 .54 736.059 67.656)" gradientUnits="userSpaceOnUse" r="49.289" xlink:href="#lg6"/><linearGradient id="SVGID_33_" gradientUnits="userSpaceOnUse" x1="161.223" x2="208.395" xlink:href="#lg4" y1="244.451" y2="244.451"/><linearGradient id="SVGID_34_" gradientUnits="userSpaceOnUse" x1="197.998" x2="68.102" xlink:href="#lg5" y1="258.36" y2="158.084"/><g><path d="m208.833 67.685-16.952 4.142v54.288c12.501 8.261 16.952-58.43 16.952-58.43z" fill="url(#SVGID_1_)"/><path d="m233.184 41.861-35.004 20.21c-9.371 5.41-8.196 14.861 2.625 21.108l24.221 13.984 68.939-39.802-24.221-13.984c-10.82-6.248-27.189-6.926-36.56-1.516z" fill="url(#SVGID_2_)"/><path d="m16.979 178.452-16.952 4.142v54.288c-.012.205-.003.411 0 .617v.299l.012-.002c.192 4.026 3.187 8.226 8.912 11.531z" fill="#c9baec"/><path d="m490.195 213.469c-22.589-39.061-55.288-109.613-55.288-109.613l-236.173 7.094.034 13.352c-.016 9.502 3.404 19.262 10.173 28.617-20.752 25.12 59.719 82.311 75.59 86.311-1.053 5.732 1.617 11.914 7.834 17.305v.007l.006-.001c1.851 1.604 4.001 3.142 6.479 4.572 14.542 8.396 35.23 10.586 50.579 6.133 24.048 17.39 66.305 37.317 93.102 46.573 57.075 19.712 95.87-16.992 47.664-100.35z" fill="url(#SVGID_3_)"/><path d="m355.451 228.624 5.85-12.296c4.775-10.037 7.253-21.013 7.253-32.128l-84.023-9.834v11.557 58.211c.736 4.235 3.362 8.522 7.834 12.4v.007l.006-.001c1.851 1.604 4.001 3.142 6.479 4.572 14.542 8.396 35.23 10.586 50.579 6.133 0 0-.921-23.082 6.022-38.621z" fill="url(#SVGID_4_)"/><path d="m290.976 201.952-34.265 4.162 5.815 66.173 28.439-17.044.005-53.287z" fill="url(#SVGID_5_)"/><path d="m41.33 152.628-35.004 20.21c-9.371 5.41-8.196 14.861 2.625 21.108l24.221 13.984 68.939-39.802-24.221-13.985c-10.82-6.247-27.189-6.925-36.56-1.515z" fill="url(#SVGID_6_)"/><path d="m284.531 185.923c-15.871-4-31.025-9.851-44.354-17.546-27.766-16.031-41.788-36.615-41.409-56.047l-.034.012-120.939 69.824 123.726 71.433 89.455-51.647c-5.219-5.077-7.416-10.744-6.445-16.029z" fill="url(#SVGID_7_)"/><path d="m6.88 211.882v10.349l.035.002v.002l-.035-.002v54.905l.034.015c-.004 10.552 4.209 21.417 12.57 31.694h-.008s61.51 93.503 126.212 143.36c65.668 50.601 121.338 5.002 110.88-62.145-4.324-27.766-14.451-74.339-14.451-74.339 12.857 1.619 25.993-.078 35.083-5.326 7.118-4.11 10.492-9.653 10.274-15.429v-54.314l.012.001v-9.836z" fill="url(#SVGID_8_)"/><path d="m169.862 245.472s48.836 146.189 74.234 206.156c11.223-15.15 16.313-36.899 12.471-61.566-4.324-27.766-14.451-74.339-14.451-74.339s-10.237-27.4 0-64.863z" fill="url(#SVGID_9_)"/><path d="m277.199 310.397c7.118-4.11 10.492-9.653 10.274-15.429v-54.314l.012.001v-9.836s-42.033 7.831-45.369 20.042c-10.237 37.463 0 64.863 0 64.863 12.858 1.618 25.994-.079 35.083-5.327z" fill="url(#SVGID_10_)"/><g><path d="m397.294 66.108c-50.099-28.925-125.884-32.066-169.27-7.017-43.387 25.049-37.946 68.804 12.153 97.728 13.329 7.695 28.483 13.546 44.354 17.546-1.366 7.44 3.512 15.643 14.319 21.882 17.594 10.158 44.209 11.261 59.446 2.464 9.213-5.319 12.146-13.039 9.144-20.558 15.648-2.673 30.059-7.421 42.007-14.318 43.387-25.048 37.946-68.803-12.153-97.727z" fill="url(#SVGID_11_)"/><path d="m272.931 211.212c-10.496-6.06-24.192-8.869-36.778-8.305-6.934-9.318-17.178-18.218-30.713-26.033-50.099-28.924-125.884-32.066-169.27-7.016-43.387 25.049-37.946 68.804 12.153 97.728s125.884 32.066 169.27 7.017c11.721-6.767 19.847-14.906 24.523-23.743 12.857 1.619 25.993-.079 35.083-5.326 15.237-8.797 13.327-24.164-4.268-34.322z" fill="url(#SVGID_12_)"/></g><path d="m302.329 77.193-61.223-5.009v9.723l.029.002c.059 4.863 3.609 9.976 10.541 13.979 12.78 7.379 32.113 8.18 43.181 1.79 5.055-2.918 7.482-6.834 7.442-10.928l.029.002v-9.559z" fill="url(#SVGID_13_)"/><path d="m396.366 131.342-61.223-5.009v9.723l.029.002c.059 4.863 3.609 9.976 10.541 13.979 12.78 7.379 32.113 8.18 43.181 1.79 5.055-2.918 7.482-6.834 7.442-10.928l.029.002v-9.559z" fill="url(#SVGID_14_)"/><path d="m390.066 80.741-61.223-5.009v9.723l.029.002c.059 4.863 3.609 9.976 10.541 13.979 12.78 7.379 32.113 8.18 43.181 1.79 5.055-2.918 7.482-6.834 7.442-10.928l.029.002v-9.559z" fill="url(#SVGID_15_)"/><path d="m308.628 127.747-61.223-5.009v9.723l.029.002c.059 4.863 3.609 9.976 10.541 13.979 12.78 7.379 32.113 8.18 43.181 1.79 5.055-2.918 7.482-6.834 7.442-10.928l.029.002v-9.559z" fill="url(#SVGID_16_)"/><path d="m115.809 204.206-68.429-17.809v9.685l.018.005c.018.903.664 1.85 1.951 2.593l25.361 14.642c1.146.661 2.639 1.068 4.15 1.131l33.265 1.379c2.041.085 3.59-.742 3.662-1.878l.023.006v-9.754z" fill="url(#SVGID_17_)"/><path d="m120.217 239.626-67.179-7.766v9.834l.02.002c.051.882.701 1.799 1.954 2.522l33.786 19.506c2.386 1.377 5.995 1.527 8.061.334l21.964-12.681c.887-.512 1.351-1.22 1.367-1.987l.027.003z" fill="url(#SVGID_18_)"/><path d="m200.726 193.07-67.178-7.704v9.852l.019.002c.003.041-.011.079-.006.12l2.388 19.205c.157 1.262 2.056 2.359 4.242 2.449l33.265 1.379c1.512.063 2.918-.224 3.911-.797l21.964-12.681c.936-.54 1.37-1.266 1.37-2.023l.025.003z" fill="url(#SVGID_19_)"/><path d="m291.758 63.024c-12.78-7.379-32.113-8.18-43.181-1.79s-9.68 17.552 3.1 24.931 32.113 8.18 43.181 1.79c11.068-6.391 9.68-17.553-3.1-24.931z" fill="url(#SVGID_20_)"/><path d="m298.057 113.679c-12.78-7.379-32.113-8.18-43.181-1.79s-9.68 17.552 3.1 24.931 32.113 8.18 43.181 1.79 9.68-17.552-3.1-24.931z" fill="url(#SVGID_21_)"/><path d="m385.795 117.316c-12.78-7.379-32.113-8.18-43.181-1.79s-9.68 17.552 3.1 24.931 32.113 8.18 43.181 1.79c11.068-6.391 9.68-17.552-3.1-24.931z" fill="url(#SVGID_22_)"/><path d="m379.496 66.661c-12.78-7.379-32.113-8.18-43.181-1.79s-9.68 17.552 3.1 24.931 32.113 8.18 43.181 1.79c11.068-6.391 9.68-17.553-3.1-24.931z" fill="url(#SVGID_23_)"/><path d="m115.799 203.987-2.388-19.205c-.109-.873-.813-1.735-1.959-2.396l-25.362-14.643c-2.386-1.378-5.995-1.527-8.061-.334l-29.26 16.893c-2.066 1.193-1.807 3.277.579 4.654l25.361 14.642c1.146.661 2.639 1.068 4.15 1.131l33.265 1.379c2.187.091 3.832-.859 3.675-2.121z" fill="url(#SVGID_24_)"/><path d="m113.571 217.743-33.265-1.379c-1.512-.063-2.919.224-3.911.797l-21.964 12.681c-2.066 1.193-1.807 3.277.579 4.654l33.786 19.506c2.386 1.377 5.995 1.527 8.061.334l21.964-12.681c.992-.573 1.489-1.385 1.38-2.258l-2.388-19.206c-.156-1.261-2.056-2.358-4.242-2.448z" fill="url(#SVGID_25_)"/><path d="m140.192 207.272 33.265 1.379c1.512.063 2.919-.224 3.911-.797l21.964-12.681c2.066-1.193 1.807-3.277-.579-4.654l-33.786-19.506c-2.386-1.378-5.995-1.527-8.061-.334l-21.964 12.681c-.992.573-1.489 1.385-1.38 2.258l2.388 19.205c.157 1.261 2.056 2.358 4.242 2.449z" fill="url(#SVGID_26_)"/><g><path d="m260.011 184.2-17.101 9.873 10.336 5.968 17.101-9.874z" fill="#5e4990"/></g><path d="m223.913 239.485c-13.589-7.845-15.064-19.713-3.296-26.507s32.324-5.942 45.912 1.903c13.589 7.845 15.064 19.713 3.296 26.507-11.768 6.795-32.323 5.943-45.912-1.903z" fill="url(#SVGID_27_)"/><path d="m233.729 210.164 22.982 1.911v8.387h-.001c-.049 1.478-.971 2.883-2.802 3.94-4.155 2.399-11.413 2.098-16.211-.672-2.618-1.512-3.96-3.446-3.966-5.282z" fill="url(#SVGID_28_)"/><path d="m226.39 215.524c-12.009-6.934-13.314-17.422-2.913-23.427 10.4-6.005 28.567-5.252 40.576 1.682 12.009 6.933 13.314 17.422 2.913 23.427-10.4 6.004-28.567 5.251-40.576-1.682z" fill="url(#SVGID_29_)"/><path d="m305.132 192.5c-13.588-7.845-15.064-19.713-3.296-26.507s32.323-5.942 45.912 1.903c13.588 7.845 15.064 19.713 3.296 26.507s-32.324 5.942-45.912-1.903z" fill="url(#SVGID_30_)"/><path d="m314.947 163.178 22.982 1.911v8.387h-.001c-.049 1.478-.971 2.883-2.802 3.94-4.155 2.399-11.413 2.098-16.211-.672-2.618-1.512-3.96-3.446-3.966-5.282z" fill="url(#SVGID_31_)"/><path d="m307.607 168.538c-12.009-6.934-13.314-17.422-2.913-23.427 10.4-6.005 28.567-5.252 40.576 1.682s13.314 17.422 2.913 23.427-28.567 5.251-40.576-1.682z" fill="url(#SVGID_32_)"/><path d="m206.389 238.831-68.435-18.064v9.82l.018.005c0 .054-.015.104-.008.159l2.388 19.205c.109.873.813 1.735 1.959 2.396l25.361 14.642c2.386 1.378 5.995 1.527 8.061.334l29.26-16.893c.929-.536 1.363-1.255 1.37-2.006z" fill="url(#SVGID_33_)"/><path d="m137.965 221.027 2.388 19.205c.108.873.813 1.735 1.959 2.396l25.361 14.642c2.386 1.378 5.995 1.527 8.061.334l29.26-16.893c2.066-1.193 1.807-3.277-.579-4.654l-25.361-14.642c-1.146-.662-2.639-1.068-4.15-1.131l-33.265-1.379c-2.186-.09-3.831.86-3.674 2.122z" fill="url(#SVGID_34_)"/></g></svg>