<svg id="Capa_1" enable-background="new 0 0 512 512" height="512" viewBox="0 0 512 512" width="512" xmlns="http://www.w3.org/2000/svg" xmlns:xlink="http://www.w3.org/1999/xlink"><linearGradient id="SVGID_1_" gradientTransform="matrix(-1 0 0 1 503.106 0)" gradientUnits="userSpaceOnUse" x1="163.437" x2="338.064" y1="425.718" y2="425.718"><stop offset="0" stop-color="#45356d"/><stop offset=".2699" stop-color="#544081"/><stop offset="1" stop-color="#7e62c0"/></linearGradient><linearGradient id="lg1"><stop offset="0" stop-color="#45356d"/><stop offset=".3855" stop-color="#544081"/><stop offset="1" stop-color="#7e62c0"/></linearGradient><linearGradient id="SVGID_00000012451883576676521550000016079973317714866617_" gradientTransform="matrix(-1 0 0 1 503.106 0)" gradientUnits="userSpaceOnUse" x1="146.534" x2="376.673" xlink:href="#lg1" y1="319.241" y2="468.786"/><linearGradient id="SVGID_00000065790223682696378100000001867837564776311208_" gradientTransform="matrix(-1 0 0 1 503.106 0)" gradientUnits="userSpaceOnUse" x1="225.644" x2="307.963" xlink:href="#lg1" y1="272.093" y2="272.093"/><radialGradient id="SVGID_00000015316226141503974880000003588930317073917354_" cx="296.784" cy="50.47" gradientUnits="userSpaceOnUse" r="184.028"><stop offset="0" stop-color="#ff7a85"/><stop offset=".4891" stop-color="#ff4757"/><stop offset="1" stop-color="#ab2c37"/></radialGradient><linearGradient id="SVGID_00000160186861800906770760000008710913573781214615_" gradientUnits="userSpaceOnUse" x1="385.984" x2="283.232" y1="-23.642" y2="79.11"><stop offset="0" stop-color="#fff"/><stop offset="1" stop-color="#fff" stop-opacity="0"/></linearGradient><g><path d="m114.103 419.089-.005.001 3.195-9.355c3.734-10.934 9.009-21.278 15.667-30.721 6.344-8.998 13.882-17.091 22.408-24.057l5.281-4.315 196.845-11.206 8.6 8.353c13.72 13.325 24.444 29.401 31.483 47.155 13.443 28.643-2.442 62.838-45.848 87.899-61.048 35.246-153.395 39.074-206.264 8.55-32.363-18.685-42.424-45.91-31.362-72.304z" fill="url(#SVGID_1_)"/><path d="m334.673 430.013c50.17-28.966 55.619-72.783 12.17-97.868-43.448-25.085-119.341-21.939-169.511 7.027s-55.619 72.782-12.17 97.868c43.448 25.084 119.341 21.938 169.511-7.027z" fill="url(#SVGID_00000012451883576676521550000016079973317714866617_)"/><ellipse cx="256.002" cy="362.097" fill="#45356d" rx="52.74" ry="29.837" transform="matrix(.993 -.121 .121 .993 -41.928 33.632)"/><path d="m214.843 160.734h82.299v194.796c.38 6.808-4.433 14.08-14.19 19.713-17.186 9.922-43.185 11-58.069 2.407-6.632-3.829-9.929-8.932-10.037-14.291h-.003z" fill="url(#SVGID_00000065790223682696378100000001867837564776311208_)"/><circle cx="256" cy="111.478" fill="url(#SVGID_00000015316226141503974880000003588930317073917354_)" r="111.478"/><path d="m244.133 125.296c32.106 27.188 75.674 28.515 97.31 2.964 21.637-25.551 13.15-68.304-18.956-95.492s-75.673-28.515-97.31-2.964-13.15 68.304 18.956 95.492z" fill="url(#SVGID_00000160186861800906770760000008710913573781214615_)"/></g></svg>