<svg id="Capa_1" enable-background="new 0 0 512 512" height="512" viewBox="0 0 512 512" width="512" xmlns="http://www.w3.org/2000/svg" xmlns:xlink="http://www.w3.org/1999/xlink"><linearGradient id="lg1"><stop offset="0" stop-color="#c5baeb"/><stop offset=".4538" stop-color="#d7d1eb"/><stop offset="1" stop-color="#f2effa"/></linearGradient><linearGradient id="SVGID_1_" gradientUnits="userSpaceOnUse" x1="229.718" x2="325.016" xlink:href="#lg1" y1="413.364" y2="413.364"/><linearGradient id="SVGID_2_" gradientUnits="userSpaceOnUse" x1="153.036" x2="370.948" xlink:href="#lg1" y1="422.021" y2="422.021"/><linearGradient id="SVGID_3_" gradientUnits="userSpaceOnUse" x1="153.036" x2="370.948" xlink:href="#lg1" y1="390.992" y2="390.992"/><linearGradient id="SVGID_4_" gradientUnits="userSpaceOnUse" x1="153.036" x2="370.948" xlink:href="#lg1" y1="359.963" y2="359.963"/><radialGradient id="SVGID_5_" cx="256" cy="201.687" gradientUnits="userSpaceOnUse" r="201.687"><stop offset="0" stop-color="#f7e041"/><stop offset="1" stop-color="#ffc538"/></radialGradient><linearGradient id="lg2"><stop offset="0" stop-color="#2f878a"/><stop offset=".2073" stop-color="#2a928f"/><stop offset=".5729" stop-color="#1bb09c"/><stop offset="1" stop-color="#06daae"/></linearGradient><linearGradient id="SVGID_6_" gradientUnits="userSpaceOnUse" x1="253.348" x2="233.453" xlink:href="#lg2" y1="331.243" y2="365.702"/><linearGradient id="SVGID_7_" gradientUnits="userSpaceOnUse" x1="255.205" x2="329.331" xlink:href="#lg2" y1="188.944" y2="146.147"/><linearGradient id="SVGID_8_" gradientUnits="userSpaceOnUse" x1="257.062" x2="210.731" y1="245.709" y2="325.957"><stop offset="0" stop-color="#2f878a"/><stop offset=".1332" stop-color="#2a928f"/><stop offset=".3681" stop-color="#1bb09c"/><stop offset=".6425" stop-color="#06daae"/><stop offset="1" stop-color="#2f878a"/></linearGradient><linearGradient id="SVGID_9_" gradientUnits="userSpaceOnUse" x1="199.399" x2="248.171" xlink:href="#lg2" y1="195.176" y2="110.701"/><linearGradient id="SVGID_10_" gradientUnits="userSpaceOnUse" x1="240.582" x2="262.914" xlink:href="#lg2" y1="81.419" y2="42.74"/><linearGradient id="SVGID_11_" gradientUnits="userSpaceOnUse" x1="284.907" x2="317.572" xlink:href="#lg2" y1="84.476" y2="65.617"/><linearGradient id="SVGID_12_" gradientUnits="userSpaceOnUse" x1="269.231" x2="269.231" y1="593.346" y2="112.362"><stop offset="0" stop-color="#06daae"/><stop offset=".1313" stop-color="#11dcb2"/><stop offset=".3631" stop-color="#2fe0bb"/><stop offset=".6679" stop-color="#5fe7cb"/><stop offset="1" stop-color="#9bf0df"/></linearGradient><linearGradient id="SVGID_13_" gradientUnits="userSpaceOnUse" x1="256" x2="256" y1="-46.339" y2="229.336"><stop offset="0" stop-color="#fff"/><stop offset="1" stop-color="#fff" stop-opacity="0"/></linearGradient><linearGradient id="SVGID_14_" gradientUnits="userSpaceOnUse" x1="416.91" x2="300.398" y1="32.444" y2="148.956"><stop offset=".0319" stop-color="#fff"/><stop offset="1" stop-color="#fff" stop-opacity="0"/></linearGradient><g><path d="m321.16 400.056v46.784c0 35.987-29.173 65.159-65.159 65.159-35.986 0-65.159-29.173-65.159-65.159v-35.852z" fill="#00395e"/><path d="m355.743 331.564v63.857c0 55.086-44.656 99.742-99.742 99.742-55.086 0-99.742-44.656-99.742-99.742v-47.123z" fill="url(#SVGID_1_)"/><path d="m256.001 464.134c-55.086 0-99.742-44.656-99.742-99.742v15.514c0 55.086 44.656 99.742 99.742 99.742 55.086 0 99.742-44.656 99.742-99.742v-15.514c0 55.086-44.656 99.742-99.742 99.742z" fill="url(#SVGID_2_)"/><path d="m256.001 433.105c-55.086 0-99.742-44.656-99.742-99.742v15.514c0 55.086 44.656 99.742 99.742 99.742 55.086 0 99.742-44.656 99.742-99.742v-15.514c0 55.087-44.656 99.742-99.742 99.742z" fill="url(#SVGID_3_)"/><path d="m256.001 402.077c-55.086 0-99.742-44.656-99.742-99.742v15.514c0 55.086 44.656 99.742 99.742 99.742 55.086 0 99.742-44.656 99.742-99.742v-15.514c0 55.086-44.656 99.742-99.742 99.742z" fill="url(#SVGID_4_)"/><circle cx="256" cy="201.687" fill="url(#SVGID_5_)" r="201.687"/><g><g><path d="m227.777 334.182v7.945c0 4.305 2.42 7.759 5.746 9.527l-.013.012 25.317 14.549v-51.869c0 .001-36.991 14.286-31.05 19.836z" fill="url(#SVGID_6_)"/><path d="m297.921 163.687c-12.26-8.214-31.092-3.549-46.679-.549l-7.32 12.564 33.29 20.28 45.638-17.999-24.936-14.322c-.001 0 .004.017.007.026z" fill="url(#SVGID_7_)"/><path d="m265.648 227.639c0 11.603-7.998 22.493-20.699 29.826-9.977 5.76-22.813 8.513-35.14 7.912-15.462-.754-29.446 9.131-33.983 23.931l-.078.254c-3.391 11.063 1.99 22.1 11.29 26.97l-.011.004 25.16 14.519 106.349-92.983c-4.522-4.934-52.888-30.295-52.888-10.433z" fill="url(#SVGID_8_)"/><path d="m178.853 185.231c0 20.545 6.059 30.586 14.972 34.934 0 0-.005.003-.005.003l25.335 14.668 37.086-130.944-28.463-12.455c-30.108 23.97-48.925 58.982-48.925 93.794z" fill="url(#SVGID_9_)"/><path d="m253.849 36.741v.014c-3.178-1.923-7.316-2.248-10.993-.126-9.331 5.387-15.079 15.343-15.079 26.117v28.692l26.463 15.258 18.661-39.403c-.696-2.871 7.279-15.369 7.279-15.369z" fill="url(#SVGID_10_)"/><path d="m292.375 70.737.003.015c-3.915-2.576-8.644-3.978-13.678-3.676l6.823 21.245 18.361 6.184c8.558-5.446 14.237-8.961 14.237-8.961z" fill="url(#SVGID_11_)"/><g><path d="m285.522 310.052v30.572c0 10.774-5.748 20.73-15.078 26.117-7.202 4.158-16.204-1.039-16.204-9.355v-29.587c-9.942 3.907-19.742 6.083-28.951 6.553-15.864.811-27.733-14.344-23.078-29.531l.078-.254c4.536-14.801 18.521-24.686 33.983-23.932 12.326.601 25.162-2.151 35.139-7.912 12.701-7.333 20.699-18.223 20.699-29.826 0-37.322-86.795 35.371-86.795-42.408 0-34.812 18.816-69.824 48.924-93.793v-28.692c0-10.774 5.748-20.73 15.078-26.117 7.202-4.158 16.204 1.039 16.204 9.355v27.078c5.106-2.201 10.146-3.946 15.054-5.25 17.205-4.571 32.758 11.535 27.707 28.606-4.031 13.622-16.133 23.175-30.301 24.213-11.257.825-22.275 3.573-30.336 8.227-10.348 5.975-17.169 14.931-17.169 24.966 0 36.38 86.796-34.43 86.796 44.602.001 38.578-22.111 73.924-51.75 96.368z" fill="url(#SVGID_12_)"/></g></g></g><circle cx="256" cy="201.687" fill="url(#SVGID_13_)" r="184.41"/><circle cx="331.781" cy="117.573" fill="url(#SVGID_14_)" r="75.781"/></g></svg>