<svg id="Capa_1" enable-background="new 0 0 512 512" height="512" viewBox="0 0 512 512" width="512" xmlns="http://www.w3.org/2000/svg" xmlns:xlink="http://www.w3.org/1999/xlink"><linearGradient id="lg1"><stop offset="0" stop-color="#221c36"/><stop offset="1" stop-color="#43386b"/></linearGradient><linearGradient id="SVGID_1_" gradientUnits="userSpaceOnUse" x1="157.552" x2="186.387" xlink:href="#lg1" y1="282.33" y2="232.387"/><linearGradient id="SVGID_00000072991467006321292170000009914587000885121936_" gradientUnits="userSpaceOnUse" x1="274.307" x2="274.307" y1="549.68" y2="129.601"><stop offset="0" stop-color="#43386b"/><stop offset="1" stop-color="#594a8e"/></linearGradient><linearGradient id="SVGID_00000183210144474438002890000014677652969730265265_" gradientUnits="userSpaceOnUse" x1="274.307" x2="274.307" y1="408.897" y2="63.251"><stop offset="0" stop-color="#d7d1eb"/><stop offset="1" stop-color="#f2effa"/></linearGradient><linearGradient id="SVGID_00000112610160664651948760000008071760265336176571_" gradientUnits="userSpaceOnUse" x1="110.032" x2="112.649" xlink:href="#lg1" y1="292.534" y2="288.002"/><linearGradient id="SVGID_00000060736559687355138370000005090180281974957481_" gradientUnits="userSpaceOnUse" x1="109.973" x2="112.589" xlink:href="#lg1" y1="339.806" y2="335.274"/><linearGradient id="SVGID_00000173852087125290081250000004973717415142202538_" gradientUnits="userSpaceOnUse" x1="109.598" x2="112.215" xlink:href="#lg1" y1="387.624" y2="383.092"/><linearGradient id="SVGID_00000065073014870187510050000002453293638225521569_" gradientUnits="userSpaceOnUse" x1="109.713" x2="112.329" xlink:href="#lg1" y1="434.595" y2="430.063"/><linearGradient id="SVGID_00000086658671564948367470000015617472288298162842_" gradientUnits="userSpaceOnUse" x1="419.99" x2="422.607" xlink:href="#lg1" y1="113.871" y2="109.34"/><linearGradient id="SVGID_00000183967385321635323580000016964141752734621866_" gradientUnits="userSpaceOnUse" x1="419.931" x2="422.547" xlink:href="#lg1" y1="161.143" y2="156.612"/><linearGradient id="SVGID_00000122001612005520124900000014649471026102334891_" gradientUnits="userSpaceOnUse" x1="419.556" x2="422.173" xlink:href="#lg1" y1="208.961" y2="204.429"/><linearGradient id="SVGID_00000142879149904092110480000004958605197405388162_" gradientUnits="userSpaceOnUse" x1="419.671" x2="422.287" xlink:href="#lg1" y1="255.932" y2="251.401"/><linearGradient id="SVGID_00000048473111534311624610000003425011115310440608_" gradientUnits="userSpaceOnUse" x1="424.738" x2="196.967" y1="294.577" y2="264.158"><stop offset="0" stop-color="#fff"/><stop offset="1" stop-color="#fff" stop-opacity="0"/></linearGradient><g><path d="m451.367 22.711-35.522-20.508-.008.011c-3.948-2.591-9.224-3.126-13.897-.428l-331.833 191.584c-10.234 5.909-16.539 16.829-16.539 28.646v255.56c0 4.88 2.54 8.865 6.144 11.156l37.842 21.868z" fill="url(#SVGID_1_)"/><path d="m90.183 498.729v-255.56c0-11.818 6.305-22.737 16.539-28.646l331.833-191.585c8.834-5.101 19.877 1.275 19.877 11.476v255.56c0 11.818-6.305 22.738-16.539 28.646l-331.834 191.585c-8.834 5.1-19.876-1.275-19.876-11.476z" fill="url(#SVGID_00000072991467006321292170000009914587000885121936_)"/><path d="m397.923 74.726c1.312-.756 2.951.191 2.951 1.705v232.152c0 3.476-1.87 6.715-4.88 8.453l-245.303 141.382c-1.312.756-2.951-.191-2.951-1.705v-232.153c0-3.476 1.87-6.715 4.881-8.453z" fill="url(#SVGID_00000183210144474438002890000014677652969730265265_)"/><g><g><path d="m138.819 269.946-7.974-4.576c-1.425-.785-3.266-.696-5.28.466l-20.692 11.881c-4.518 2.609-8.182 9.609-8.182 15.634v10.402c0 3.261 1.079 5.557 2.78 6.574l7.56 4.343z" fill="url(#SVGID_00000112610160664651948760000008071760265336176571_)"/><path d="m133.227 270.228-20.691 11.881c-4.519 2.609-8.182 9.608-8.182 15.634v10.402c0 6.025 3.663 8.795 8.182 6.186l20.691-11.881c4.519-2.609 8.182-9.609 8.182-15.634v-10.402c0-6.025-3.664-8.795-8.182-6.186z" fill="#594a8e"/></g><g><path d="m138.819 317.116-7.974-4.576c-1.425-.785-3.266-.696-5.28.466l-20.692 11.881c-4.518 2.609-8.182 9.609-8.182 15.634v10.402c0 3.261 1.079 5.557 2.78 6.574l7.56 4.343z" fill="url(#SVGID_00000060736559687355138370000005090180281974957481_)"/><path d="m133.227 317.397-20.691 11.881c-4.519 2.609-8.182 9.609-8.182 15.634v10.402c0 6.025 3.663 8.795 8.182 6.186l20.691-11.881c4.519-2.609 8.182-9.608 8.182-15.634v-10.402c0-6.025-3.664-8.795-8.182-6.186z" fill="#594a8e"/></g><g><path d="m138.819 364.285-7.974-4.576c-1.425-.785-3.266-.696-5.28.466l-20.692 11.881c-4.518 2.609-8.182 9.609-8.182 15.634v10.402c0 3.261 1.079 5.557 2.78 6.574l7.56 4.344z" fill="url(#SVGID_00000173852087125290081250000004973717415142202538_)"/><path d="m133.227 364.566-20.691 11.881c-4.519 2.609-8.182 9.609-8.182 15.634v10.402c0 6.025 3.663 8.795 8.182 6.186l20.691-11.881c4.519-2.609 8.182-9.608 8.182-15.634v-10.402c0-6.025-3.664-8.795-8.182-6.186z" fill="#594a8e"/></g><g><path d="m138.819 411.454-7.974-4.576c-1.425-.785-3.266-.696-5.28.466l-20.692 11.881c-4.518 2.609-8.182 9.608-8.182 15.634v10.402c0 3.261 1.079 5.557 2.78 6.574l7.56 4.343z" fill="url(#SVGID_00000065073014870187510050000002453293638225521569_)"/><path d="m133.227 411.736-20.691 11.881c-4.519 2.609-8.182 9.608-8.182 15.634v10.402c0 6.025 3.663 8.795 8.182 6.186l20.691-11.881c4.519-2.609 8.182-9.609 8.182-15.634v-10.402c0-6.026-3.664-8.795-8.182-6.186z" fill="#594a8e"/></g></g><g><g><path d="m448.777 91.284-7.974-4.576c-1.425-.785-3.266-.696-5.28.466l-20.691 11.881c-4.518 2.609-8.182 9.609-8.182 15.634v10.402c0 3.261 1.079 5.557 2.78 6.574l7.56 4.343z" fill="url(#SVGID_00000086658671564948367470000015617472288298162842_)"/><path d="m443.184 91.565-20.691 11.881c-4.519 2.609-8.182 9.608-8.182 15.634v10.402c0 6.025 3.663 8.795 8.182 6.186l20.691-11.881c4.519-2.609 8.182-9.609 8.182-15.634v-10.402c.001-6.025-3.663-8.795-8.182-6.186z" fill="#594a8e"/></g><g><path d="m448.777 138.453-7.974-4.576c-1.425-.785-3.266-.696-5.28.466l-20.691 11.881c-4.518 2.609-8.182 9.609-8.182 15.634v10.402c0 3.261 1.079 5.557 2.78 6.574l7.56 4.343z" fill="url(#SVGID_00000183967385321635323580000016964141752734621866_)"/><path d="m443.184 138.735-20.691 11.881c-4.519 2.609-8.182 9.609-8.182 15.634v10.402c0 6.025 3.663 8.795 8.182 6.186l20.691-11.881c4.519-2.609 8.182-9.609 8.182-15.634v-10.402c.001-6.026-3.663-8.795-8.182-6.186z" fill="#594a8e"/></g><g><path d="m448.777 185.622-7.974-4.576c-1.425-.785-3.266-.696-5.28.466l-20.691 11.881c-4.518 2.609-8.182 9.609-8.182 15.634v10.402c0 3.261 1.079 5.557 2.78 6.574l7.56 4.343z" fill="url(#SVGID_00000122001612005520124900000014649471026102334891_)"/><path d="m443.184 185.904-20.691 11.881c-4.519 2.609-8.182 9.609-8.182 15.634v10.402c0 6.025 3.663 8.795 8.182 6.186l20.691-11.881c4.519-2.609 8.182-9.609 8.182-15.634v-10.402c.001-6.026-3.663-8.795-8.182-6.186z" fill="#594a8e"/></g><g><path d="m448.777 232.791-7.974-4.576c-1.425-.785-3.266-.696-5.28.466l-20.691 11.881c-4.518 2.609-8.182 9.609-8.182 15.634v10.402c0 3.261 1.079 5.557 2.78 6.574l7.56 4.343z" fill="url(#SVGID_00000142879149904092110480000004958605197405388162_)"/><path d="m443.184 233.073-20.691 11.881c-4.519 2.609-8.182 9.608-8.182 15.634v10.402c0 6.025 3.663 8.795 8.182 6.186l20.691-11.881c4.519-2.609 8.182-9.608 8.182-15.634v-10.402c.001-6.026-3.663-8.795-8.182-6.186z" fill="#594a8e"/></g></g><g><path d="m270.4 181.302-50.584 29.204v32.235l50.584-29.205z" fill="#06daae"/><g fill="#43386b"><path d="m377.518 277.588-65.09 37.579v32.114l65.09-37.579z"/><path d="m377.518 223.107-65.09 37.58v32.114l65.09-37.58z"/><path d="m377.518 168.626-65.09 37.58v32.114l65.09-37.58z"/><path d="m377.518 114.145-65.089 37.58-.001 32.114 65.09-37.58z"/></g><path d="m254.406 316.003-34.59 19.97v32.235l34.59-19.971z" fill="#ffc538"/><path d="m237.669 260.431-17.853 10.307v32.235l17.853-10.308z" fill="#ff4757"/><g><path d="m219.816 287.551-15.027 8.676v-61.623l15.027-8.676v1.391l-13.984 8.073v58.841l13.984-8.073z" fill="#43386b"/></g><g><path d="m284.187 315.622-29.781 17.194v-1.392l28.738-16.591v-63.844l-45.475 26.255v-1.392l46.518-26.857z" fill="#43386b"/></g><g><path d="m184.138 393.307-.738-.558 15.247-29.132 21.169-12.222v1.391l-20.737 11.973z" fill="#43386b"/></g><g><path d="m247.001 377.263-10.412-7.871v-10.868l1.043-.602v10.291l10.107 7.64z" fill="#43386b"/></g><g><path d="m229.264 265.283-1.043.603v-9.353l20.978-12.111v1.391l-19.935 11.509z" fill="#43386b"/></g><g><path d="m180.193 325.36-.737-.558 11.505-21.982 14.35-8.285v1.391l-13.918 8.035z" fill="#43386b"/></g><g><path d="m237.54 325.74-1.044.603v-14.3l-8.275-6.257v-7.666l1.043-.602v7.09l8.276 6.256z" fill="#43386b"/></g><path d="m194.524 313.556-22.936 13.242v10.684l22.936-13.242z" fill="#59acf9"/><path d="m262.961 365.158-22.937 13.242v10.684l22.937-13.242z" fill="#59acf9"/><path d="m191.316 388.671c0-5.558-3.379-8.112-7.547-5.706-4.168 2.407-7.547 8.863-7.547 14.42 0 5.558 3.379 8.112 7.547 5.706s7.547-8.862 7.547-14.42z" fill="#06daae"/><ellipse cx="249.199" cy="245.117" fill="#ffc538" rx="12.181" ry="6.891" transform="matrix(.392 -.92 .92 .392 -73.921 378.443)"/></g><path d="m376.208 87.241-223.587 128.867c-3.01 1.738-4.881 4.977-4.881 8.453v232.152c0 1.514 1.639 2.461 2.951 1.705l44.753-25.794z" fill="url(#SVGID_00000048473111534311624610000003425011115310440608_)"/></g></svg>