<svg id="Capa_1" enable-background="new 0 0 512 512" height="512" viewBox="0 0 512 512" width="512" xmlns="http://www.w3.org/2000/svg" xmlns:xlink="http://www.w3.org/1999/xlink"><linearGradient id="lg1"><stop offset="0" stop-color="#c62834"/><stop offset=".1949" stop-color="#c92a36"/><stop offset=".3546" stop-color="#d32f3c"/><stop offset=".5017" stop-color="#e53847"/><stop offset=".6406" stop-color="#fc4455"/><stop offset=".6531" stop-color="#ff4557"/><stop offset=".8422" stop-color="#ff7b86"/></linearGradient><linearGradient id="SVGID_1_" gradientUnits="userSpaceOnUse" x1="34.697" x2="96.6" xlink:href="#lg1" y1="214.052" y2="106.832"/><linearGradient id="lg2"><stop offset="0" stop-color="#b096ed"/><stop offset=".0014" stop-color="#b096ed"/><stop offset=".299" stop-color="#cdbcf3"/><stop offset=".5742" stop-color="#e2d7f7"/><stop offset=".8165" stop-color="#efe8f9"/><stop offset="1" stop-color="#f3eefa"/></linearGradient><linearGradient id="SVGID_2_" gradientUnits="userSpaceOnUse" x1="116.545" x2="227.961" xlink:href="#lg2" y1="367.706" y2="174.728"/><linearGradient id="SVGID_3_" gradientUnits="userSpaceOnUse" x1="187.809" x2="335.504" xlink:href="#lg1" y1="392.222" y2="136.406"/><linearGradient id="SVGID_4_" gradientUnits="userSpaceOnUse" x1="355.678" x2="355.678" y1="580.385" y2="-100.049"><stop offset="0" stop-color="#ff4557"/><stop offset="1" stop-color="#ff7b86"/></linearGradient><linearGradient id="SVGID_5_" gradientUnits="userSpaceOnUse" x1="482.959" x2="282.496" xlink:href="#lg2" y1="52.005" y2="399.218"/><linearGradient id="SVGID_6_" gradientUnits="userSpaceOnUse" x1="258.014" x2="349.245" xlink:href="#lg2" y1="344.145" y2="186.128"/><linearGradient id="SVGID_7_" gradientUnits="userSpaceOnUse" x1="363.101" x2="363.101" xlink:href="#lg2" y1="389.826" y2="224.095"/><g><path d="m196.366 64.058-81.681-47.029c-12.159-7.037-28.024-6.383-45.38 3.637-38.276 22.098-69.305 81.384-69.305 132.419 0 27.516 9.023 47.008 23.335 55.673l81.592 46.931z" fill="url(#SVGID_1_)"/><path d="m196.357 64.075c-12.052-6.562-27.601-5.744-44.585 4.062-38.276 22.098-69.305 81.384-69.305 132.419 0 26.952 8.659 46.203 22.465 55.124l-.005.009 115.804 199.953 187.95-409.922z" fill="url(#SVGID_2_)"/><path d="m456.261 54.833-40.62-23.439c-27.424-15.871-63.21-14.398-102.357 8.203-86.334 49.846-156.322 183.57-156.322 298.682 0 62.064 20.352 106.031 52.635 125.575l40.42 23.218z" fill="url(#SVGID_3_)"/><path d="m512 182.21c0-115.112-69.987-168.022-156.322-118.177s-156.323 183.57-156.323 298.682c0 115.113 69.988 168.022 156.323 118.177s156.322-183.57 156.322-298.682z" fill="url(#SVGID_4_)"/><path d="m482.263 199.379c0-93.215-56.674-136.059-126.585-95.696s-126.586 148.65-126.586 241.864c0 93.215 56.674 136.06 126.586 95.696 69.911-40.363 126.585-148.65 126.585-241.864z" fill="url(#SVGID_5_)"/><g><path d="m237.837 278.871 98.215 55.847 53.99-115.982-97.859-55.604c-24.554 33.202-43.855 74.05-54.346 115.739z" fill="url(#SVGID_6_)"/><path d="m404.817 252.672c0-30.719-18.677-44.839-41.716-31.537s-41.716 48.988-41.716 79.707 18.677 44.839 41.716 31.537 41.716-48.988 41.716-79.707z" fill="url(#SVGID_7_)"/></g></g></svg>