<svg id="Capa_1" enable-background="new 0 0 512 512" height="512" viewBox="0 0 512 512" width="512" xmlns="http://www.w3.org/2000/svg" xmlns:xlink="http://www.w3.org/1999/xlink"><linearGradient id="SVGID_1_" gradientUnits="userSpaceOnUse" x1="217.685" x2="257.371" y1="323.856" y2="323.856"><stop offset="0" stop-color="#0d2627"/><stop offset="1" stop-color="#1a4c4e"/></linearGradient><linearGradient id="SVGID_00000177460659007256186830000002919615319017351091_" gradientTransform="matrix(.866 .5 -1 .577 198.007 292.871)" gradientUnits="userSpaceOnUse" x1="-153.679" x2="134.866" y1="-66.139" y2="-66.139"><stop offset="0" stop-color="#1a4c4e"/><stop offset="1" stop-color="#236568"/></linearGradient><linearGradient id="lg1"><stop offset="0" stop-color="#a996eb"/><stop offset="1" stop-color="#d7d1eb"/></linearGradient><linearGradient id="SVGID_00000031187211243804285190000001487330971730838411_" gradientUnits="userSpaceOnUse" x1="221.462" x2="253.553" xlink:href="#lg1" y1="303.078" y2="303.078"/><linearGradient id="lg2"><stop offset="0" stop-color="#d7d1eb"/><stop offset="1" stop-color="#f2effa"/></linearGradient><linearGradient id="SVGID_00000096035593822284513970000014785555926866860423_" gradientTransform="matrix(.866 .5 -1 .577 198.007 292.871)" gradientUnits="userSpaceOnUse" x1="-134.76" x2="98.564" xlink:href="#lg2" y1="-70.11" y2="-70.11"/><linearGradient id="SVGID_00000137844451647479118500000001490952719877931654_" gradientUnits="userSpaceOnUse" x1="224.774" x2="253.435" xlink:href="#lg1" y1="278.742" y2="278.742"/><linearGradient id="SVGID_00000061473557582206274810000010691226314272291999_" gradientTransform="matrix(.866 .5 -1 .577 198.007 292.871)" gradientUnits="userSpaceOnUse" x1="-147.274" x2="61.112" xlink:href="#lg2" y1="-91.746" y2="-91.746"/><linearGradient id="SVGID_00000026160982864079381600000003239264739932742804_" gradientUnits="userSpaceOnUse" x1="353.576" x2="340.548" y1="309.194" y2="286.629"><stop offset="0" stop-color="#221c36"/><stop offset="1" stop-color="#43386b"/></linearGradient><g><g><path d="m511.993 237.889-511.985 23.666.001 12.41c.003 4.26 2.575 8.328 7.839 11.367l207.774 119.959c11.625 6.712 31.932 5.87 45.356-1.88l239.917-138.516c7.392-4.268 11.146-9.739 11.096-14.916z" fill="url(#SVGID_1_)"/><path d="m504.152 226.667-207.775-119.958c-11.625-6.712-31.932-5.87-45.356 1.88l-239.916 138.516c-13.424 7.75-14.882 19.474-3.256 26.186l207.774 119.958c11.625 6.712 31.932 5.87 45.356-1.88l239.917-138.516c13.423-7.75 14.881-19.474 3.256-26.186z" fill="url(#SVGID_00000177460659007256186830000002919615319017351091_)"/></g><g fill="#ffa538"><path d="m247.149 390.537c4.819-2.782 5.342-6.99 1.169-9.4s-11.462-2.107-16.281.675-5.342 6.991-1.169 9.4 11.462 2.107 16.281-.675z"/><path d="m29.236 263.376c4.819-2.782 5.342-6.991 1.169-9.4s-11.462-2.107-16.281.675-5.342 6.99-1.169 9.4c4.173 2.409 11.463 2.107 16.281-.675z"/><path d="m498.089 242.251c4.819-2.782 5.342-6.99 1.169-9.4-4.173-2.409-11.462-2.107-16.281.675s-5.342 6.99-1.169 9.4c4.173 2.409 11.462 2.107 16.281-.675z"/><path d="m282.101 118.98c4.819-2.782 5.342-6.991 1.169-9.4s-11.462-2.107-16.281.675-5.342 6.991-1.169 9.4 11.462 2.107 16.281-.675z"/></g><g><path d="m459.446 233.564-414.002 19.137.001 10.035c.002 3.445 2.082 6.734 6.339 9.192l168.011 97.001c9.401 5.427 25.821 4.747 36.676-1.52l194.002-112.007c5.977-3.451 9.013-7.875 8.972-12.062z" fill="url(#SVGID_00000031187211243804285190000001487330971730838411_)"/><path d="m453.105 224.489-168.011-97.001c-9.401-5.427-25.821-4.747-36.676 1.52l-194.001 112.008c-10.855 6.267-12.034 15.747-2.633 21.175l168.011 97.001c9.401 5.427 25.821 4.747 36.676-1.52l194.002-112.007c10.854-6.268 12.033-15.748 2.632-21.176z" fill="url(#SVGID_00000096035593822284513970000014785555926866860423_)"/></g><g><path d="m437.322 209.625-369.753 17.092.001 23.028c.002 3.077 1.86 6.015 5.661 8.21l150.053 86.633c8.396 4.847 23.061 4.239 32.756-1.358l173.267-100.036c5.338-3.082 8.05-7.034 8.013-10.773z" fill="url(#SVGID_00000137844451647479118500000001490952719877931654_)"/><path d="m431.659 201.52-150.053-86.633c-8.396-4.847-23.061-4.239-32.756 1.358l-173.267 100.035c-9.695 5.597-10.748 14.064-2.352 18.911l150.053 86.633c8.396 4.847 23.061 4.239 32.756-1.358l173.267-100.036c9.694-5.595 10.747-14.062 2.352-18.91z" fill="url(#SVGID_00000061473557582206274810000010691226314272291999_)"/></g><path d="m292.313 346.715v-9.738l-12.722-7.345 122.316-70.619 12.722 7.345v9.738z" fill="url(#SVGID_00000026160982864079381600000003239264739932742804_)"/><g fill="#7662bd"><path d="m92.798 224.974 130.294-75.225 14.817 8.554-130.294 75.225z"/><path d="m200.365 202.566-9.254-5.343-73.158 42.238 9.254 5.343z"/><path d="m418.46 207.742-9.254-5.343-73.157 42.237 9.254 5.343z"/></g></g></svg>