<svg id="Capa_1" enable-background="new 0 0 512 512" height="512" viewBox="0 0 512 512" width="512" xmlns="http://www.w3.org/2000/svg" xmlns:xlink="http://www.w3.org/1999/xlink"><linearGradient id="SVGID_1_" gradientUnits="userSpaceOnUse" x1="41.097" x2="92.635" y1="247.384" y2="158.117"><stop offset="0" stop-color="#001d2f"/><stop offset="1" stop-color="#00395e"/></linearGradient><linearGradient id="SVGID_2_" gradientUnits="userSpaceOnUse" x1="120.615" x2="120.615" y1="245.619" y2="45.646"><stop offset="0" stop-color="#001a2f"/><stop offset=".3965" stop-color="#00223f"/><stop offset="1" stop-color="#0072bc"/></linearGradient><linearGradient id="lg1"><stop offset="0" stop-color="#a996eb"/><stop offset=".39" stop-color="#c5baeb"/><stop offset="1" stop-color="#f2effa"/></linearGradient><linearGradient id="SVGID_3_" gradientUnits="userSpaceOnUse" x1="114.576" x2="154.811" xlink:href="#lg1" y1="262.819" y2="193.13"/><linearGradient id="lg2"><stop offset="0" stop-color="#dea861"/><stop offset="1" stop-color="#ebcba0"/></linearGradient><linearGradient id="SVGID_4_" gradientTransform="matrix(.536 -.845 .845 .536 239.746 1006.371)" gradientUnits="userSpaceOnUse" x1="550.698" x2="580.298" xlink:href="#lg2" y1="-454.89" y2="-454.89"/><linearGradient id="SVGID_5_" gradientUnits="userSpaceOnUse" x1="304.308" x2="253.694" y1="335.877" y2="266.016"><stop offset="0" stop-color="#cc8241"/><stop offset="1" stop-color="#dea861"/></linearGradient><linearGradient id="lg3"><stop offset="0" stop-color="#8b451c"/><stop offset="1" stop-color="#8b451c" stop-opacity="0"/></linearGradient><linearGradient id="SVGID_6_" gradientUnits="userSpaceOnUse" x1="284.377" x2="241.953" xlink:href="#lg3" y1="386.697" y2="307.61"/><linearGradient id="SVGID_7_" gradientUnits="userSpaceOnUse" x1="336.611" x2="291.532" xlink:href="#lg3" y1="359.954" y2="275.918"/><linearGradient id="SVGID_8_" gradientUnits="userSpaceOnUse" x1="322.298" x2="261.553" xlink:href="#lg3" y1="379.964" y2="280.833"/><linearGradient id="SVGID_9_" gradientUnits="userSpaceOnUse" x1="264.628" x2="228.683" xlink:href="#lg3" y1="204.691" y2="285.704"/><linearGradient id="SVGID_10_" gradientUnits="userSpaceOnUse" x1="297.651" x2="297.651" xlink:href="#lg2" y1="355.957" y2="179.925"/><linearGradient id="SVGID_11_" gradientTransform="matrix(.975 -.221 .221 .975 -44.741 240.305)" gradientUnits="userSpaceOnUse" x1="183.123" x2="212.722" xlink:href="#lg2" y1="112.476" y2="112.476"/><linearGradient id="SVGID_12_" gradientUnits="userSpaceOnUse" x1="175.132" x2="204.732" xlink:href="#lg2" y1="325.976" y2="325.976"/><linearGradient id="SVGID_13_" gradientUnits="userSpaceOnUse" x1="189.932" x2="225.966" xlink:href="#lg2" y1="344.234" y2="344.234"/><linearGradient id="SVGID_14_" gradientUnits="userSpaceOnUse" x1="349.803" x2="390.183" xlink:href="#lg1" y1="387.294" y2="317.354"/><linearGradient id="lg4"><stop offset="0" stop-color="#43386b"/><stop offset=".3965" stop-color="#594a8e"/><stop offset="1" stop-color="#a996eb"/></linearGradient><linearGradient id="SVGID_15_" gradientUnits="userSpaceOnUse" x1="377.965" x2="429.503" xlink:href="#lg4" y1="425.542" y2="336.276"/><linearGradient id="SVGID_16_" gradientUnits="userSpaceOnUse" x1="457.483" x2="457.483" xlink:href="#lg4" y1="423.778" y2="223.804"/><g><g><path d="m156.716 110.14.002-.005-65.747-36.886-.05.1c-9.657-6.008-22.393-5.764-36.405 2.325-30.108 17.384-54.516 64.02-54.516 104.165 0 20.478 6.375 35.266 16.593 42.577l-.018.037.84.483c1.066.709 2.158 1.36 3.302 1.907l62.264 34.875c9.786 6.81 23.034 6.828 37.634-1.601 30.109-17.383 54.517-64.019 54.517-104.164 0-21.678-7.127-37.014-18.416-43.813z" fill="url(#SVGID_1_)"/><path d="m175.132 153.954c0 40.145-24.408 86.781-54.517 104.164s-54.517-1.069-54.517-41.214 24.408-86.781 54.517-104.164 54.517 1.069 54.517 41.214z" fill="url(#SVGID_2_)"/></g><g><path d="m194.798 150.144.002-.004-31.031-18.182-.039.079c-7.567-4.707-17.545-4.517-28.523 1.822-23.59 13.62-42.714 50.16-42.714 81.614 0 16.044 4.995 27.631 13.001 33.359l-.014.029.658.379c.835.555 1.691 1.065 2.587 1.494l28.302 16.607c7.667 5.336 18.047 5.35 29.486-1.254 23.59-13.62 42.714-50.159 42.714-81.613.001-16.987-5.583-29.002-14.429-34.33z" fill="url(#SVGID_3_)"/><ellipse cx="166.513" cy="209.134" fill="#fff" rx="65.574" ry="37.098" transform="matrix(.392 -.92 .92 .392 -91.121 280.466)"/></g><path d="m183.22 283.338s-5.092 10.912-14.827 15.648-20.405-2.96-25.537-6.215-8.065-9.061-4.399-13.467c3.665-4.407 10.981-7.891 18.713-5.076 7.732 2.814 15.42 9.813 26.05 9.11z" fill="url(#SVGID_4_)"/><path d="m316.574 220.707s-6.272-27.05-14.505-34.107c-8.233-7.056-59.196-10.585-80.366-11.369-7.832-.29-14.803-2.424-20.478-4.997-14.734-6.683-32.115-3.024-43.061 8.888-6.915 7.525-13.27 17.654-16.435 31-9.017 38.027 10.585 55.276 10.585 55.276s40.801 73.516 62.362 85.669c0 0 17.753 20.011 32.221 18.065 8.079-1.087 9.936-4.037 12.722-5.544.445-.015 5.098 2.774 17.751 1.601 11.138-1.033 14.719-10.288 14.719-10.288s10.371 2.147 18.247-.346c10.872-3.441 16.378-16.866 15.805-27.181 5.147-43.079-9.567-106.667-9.567-106.667z" fill="url(#SVGID_5_)"/><path d="m273.852 360.634c-8.792-.475-13.842-3.356-21.683-9.535-7.842-6.178-28.634-31.653-28.634-31.653s22.32 36.194 36.084 44.141c.445-.015 5.098 2.774 17.751 1.601 11.138-1.033 14.719-10.288 14.719-10.288s-9.446 6.209-18.237 5.734z" fill="url(#SVGID_6_)" opacity=".5"/><path d="m339.69 333.242c-.033.149-9.758 5.668-24.046 0-14.288-5.667-42.684-45.283-42.684-45.283s33.386 37.477 49.069 40.09 21.386-2.074 21.386-2.074z" fill="url(#SVGID_7_)" opacity=".5"/><path d="m324.637 338.478-2.489-5.201s-1.389 13.062-14.257 14.97c-20.908 3.1-61.663-45.98-61.663-45.98s30.522 43.777 45.861 52.634c.008.002 10.374 2.146 18.247-.346 7.169-2.269 12.003-8.879 14.301-16.077z" fill="url(#SVGID_8_)" opacity=".5"/><path d="m281.291 253.376-44.691-4.182s-13.852 19.079-29.794 17.511 5.75-17.511 5.75-17.511 3.398-31.362 34.237-25.09c30.84 6.272 36.067 12.284 36.067 13.068-.001.784-1.569 16.204-1.569 16.204z" fill="url(#SVGID_9_)"/><path d="m393.665 270.667-47.689-19.774s-15.289-22.346-28.618-35.674c-13.329-13.329-25.482-17.641-36.067-16.857s-47.435 4.312-50.768 7.645c-3.332 3.332-18.817 27.246-24.698 33.518-5.88 6.272-4.9 11.173-1.176 15.093s17.249 4.508 24.306-1.372c7.056-5.88 13.525-16.269 13.525-16.269l29.794 5.684s1.176 66.645 61.548 72.133 59.843-44.127 59.843-44.127z" fill="url(#SVGID_10_)"/><path d="m191.96 322.461s-11.307 4.142-21.547.632-12.375-16.492-13.716-22.419c-1.341-5.926.675-12.111 6.382-12.649s13.35 2.154 16.844 9.603 4.006 17.833 12.037 24.833z" fill="url(#SVGID_11_)"/><path d="m204.732 345.894s-11.943 1.544-21.155-4.14c-9.213-5.685-8.429-18.817-8.429-24.894s3.332-11.664 9.017-10.928c5.684.735 12.545 5.048 14.309 13.084s-.029 18.277 6.258 26.878z" fill="url(#SVGID_12_)"/><path d="m225.966 361.283s-18.376 5.258-27.589-.426-8.429-18.817-8.429-24.894 3.332-11.663 9.017-10.928c5.684.735 12.545 5.048 14.309 13.084 1.764 8.037 6.405 14.563 12.692 23.164z" fill="url(#SVGID_13_)"/><g><path d="m440.39 279.763.002-.004-51.513-28.901-.039.079c-7.567-4.707-17.545-4.516-28.523 1.822-23.59 13.62-42.714 50.16-42.714 81.614 0 16.044 4.995 27.631 13.001 33.359l-.014.029.658.379c.835.555 1.691 1.065 2.587 1.494l48.784 27.325c7.668 5.336 18.047 5.35 29.486-1.254 23.59-13.62 42.714-50.159 42.714-81.613 0-16.986-5.583-29.002-14.429-34.329z" fill="url(#SVGID_14_)"/><ellipse cx="412.105" cy="338.753" fill="#fff" rx="65.574" ry="37.098" transform="matrix(.392 -.92 .92 .392 -60.96 585.315)"/></g><g><path d="m493.584 288.298.002-.005-65.747-36.886-.05.101c-9.658-6.008-22.393-5.765-36.405 2.325-30.108 17.384-54.517 64.02-54.517 104.165 0 20.478 6.375 35.266 16.593 42.577l-.018.037.84.483c1.066.709 2.159 1.36 3.302 1.907l62.264 34.875c9.786 6.81 23.034 6.828 37.634-1.601 30.11-17.382 54.518-64.018 54.518-104.164 0-21.679-7.126-37.014-18.416-43.814z" fill="url(#SVGID_15_)"/><path d="m512 332.112c0 40.145-24.408 86.781-54.517 104.164s-54.517-1.069-54.517-41.214 24.408-86.781 54.517-104.164 54.517 1.069 54.517 41.214z" fill="url(#SVGID_16_)"/></g></g></svg>