<svg id="Capa_1" enable-background="new 0 0 512 512" height="512" viewBox="0 0 512 512" width="512" xmlns="http://www.w3.org/2000/svg" xmlns:xlink="http://www.w3.org/1999/xlink"><linearGradient id="SVGID_1_" gradientUnits="userSpaceOnUse" x1="228.35" x2="272.409" y1="486.689" y2="354.511"><stop offset=".014" stop-color="#b096ed"/><stop offset=".3465" stop-color="#b39aed"/><stop offset=".6686" stop-color="#bba6ed"/><stop offset=".9855" stop-color="#c8b9ec"/><stop offset="1" stop-color="#c9baec"/></linearGradient><linearGradient id="SVGID_2_" gradientUnits="userSpaceOnUse" x1="373.153" x2="405.506" y1="410.498" y2="442.447"><stop offset="0" stop-color="#b096ed"/><stop offset=".2221" stop-color="#c1aeed"/><stop offset=".4712" stop-color="#cec1ec"/><stop offset=".7245" stop-color="#d6cdec"/><stop offset=".986" stop-color="#d9d1ec"/></linearGradient><linearGradient id="lg1"><stop offset="0" stop-color="#b096ed"/><stop offset=".0014" stop-color="#b096ed"/><stop offset=".299" stop-color="#cdbcf3"/><stop offset=".5742" stop-color="#e2d7f7"/><stop offset=".8165" stop-color="#efe8f9"/><stop offset="1" stop-color="#f3eefa"/></linearGradient><linearGradient id="SVGID_3_" gradientUnits="userSpaceOnUse" x1="388.445" x2="270.355" xlink:href="#lg1" y1="581.694" y2="207.204"/><linearGradient id="lg2"><stop offset="0" stop-color="#45356d"/><stop offset=".1612" stop-color="#544081"/><stop offset="1" stop-color="#7e62c0"/></linearGradient><linearGradient id="SVGID_4_" gradientUnits="userSpaceOnUse" x1="233.203" x2="257.595" xlink:href="#lg2" y1="411.377" y2="369.127"/><linearGradient id="lg3"><stop offset="0" stop-color="#45356d"/><stop offset=".3855" stop-color="#544081"/><stop offset="1" stop-color="#7e62c0"/></linearGradient><linearGradient id="SVGID_5_" gradientTransform="matrix(.866 -.5 0 1.155 34.128 385.419)" gradientUnits="userSpaceOnUse" x1="250.309" x2="250.309" xlink:href="#lg3" y1="162.185" y2="96.7"/><linearGradient id="SVGID_6_" gradientUnits="userSpaceOnUse" x1="310.649" x2="335.041" xlink:href="#lg2" y1="366.756" y2="324.506"/><linearGradient id="SVGID_7_" gradientTransform="matrix(.866 -.5 0 1.155 34.128 385.419)" gradientUnits="userSpaceOnUse" x1="339.739" x2="339.739" xlink:href="#lg3" y1="162.266" y2="96.781"/><linearGradient id="SVGID_8_" gradientUnits="userSpaceOnUse" x1="387.611" x2="412.003" xlink:href="#lg2" y1="322.27" y2="280.02"/><linearGradient id="SVGID_9_" gradientTransform="matrix(.866 -.5 0 1.155 34.128 385.419)" gradientUnits="userSpaceOnUse" x1="428.61" x2="428.61" xlink:href="#lg3" y1="162.222" y2="96.737"/><linearGradient id="SVGID_10_" gradientUnits="userSpaceOnUse" x1="112.024" x2="166.468" xlink:href="#lg1" y1="272.034" y2="177.734"/><linearGradient id="SVGID_11_" gradientUnits="userSpaceOnUse" x1="123.751" x2="118.089" xlink:href="#lg1" y1="315.968" y2="375.822"/><linearGradient id="SVGID_12_" gradientUnits="userSpaceOnUse" x1="294.68" x2="197.619" xlink:href="#lg1" y1="470.278" y2="-12.597"/><linearGradient id="SVGID_13_" gradientUnits="userSpaceOnUse" x1="149.782" x2="174.175" xlink:href="#lg2" y1="226.543" y2="184.294"/><linearGradient id="SVGID_14_" gradientTransform="matrix(.866 -.5 0 1.155 34.128 385.419)" gradientUnits="userSpaceOnUse" x1="153.981" x2="153.981" xlink:href="#lg3" y1="-39.597" y2="-105.082"/><linearGradient id="SVGID_15_" gradientUnits="userSpaceOnUse" x1="227.229" x2="251.621" xlink:href="#lg2" y1="181.922" y2="139.673"/><linearGradient id="SVGID_16_" gradientTransform="matrix(.866 -.5 0 1.155 34.128 385.419)" gradientUnits="userSpaceOnUse" x1="243.411" x2="243.411" xlink:href="#lg3" y1="-39.516" y2="-105.001"/><linearGradient id="SVGID_17_" gradientUnits="userSpaceOnUse" x1="304.19" x2="328.583" xlink:href="#lg2" y1="137.436" y2="95.187"/><linearGradient id="SVGID_18_" gradientTransform="matrix(.866 -.5 0 1.155 34.128 385.419)" gradientUnits="userSpaceOnUse" x1="332.281" x2="332.281" xlink:href="#lg3" y1="-39.56" y2="-105.045"/><g><g><path d="m458.158 215.088-44.061-25.531c-.061-.035-.122-.071-.182-.106l-.056-.032-.001.001c-11.714-6.69-26.961-6.023-43.635 3.604l-187.377 108.182c-36.945 21.33-66.895 78.555-66.895 127.816 0 25.87 8.264 44.393 21.46 53.066l-.003.003 43.796 25.357z" fill="url(#SVGID_1_)"/><path d="m410.341 438.565-42.22-24.379 11.555-3.863z" fill="url(#SVGID_2_)"/><path d="m412.442 217.403-187.377 108.182c-36.945 21.33-66.895 78.555-66.895 127.816 0 49.26 29.95 71.902 66.895 50.572l154.105-88.973 31.171 23.565v-41.561l2.102-1.213c36.945-21.33 66.895-78.556 66.895-127.816 0-49.261-29.95-71.903-66.896-50.572z" fill="url(#SVGID_3_)"/><g><path d="m267.341 375.192-9.321-5.363c-4.443-2.477-10.198-2.204-16.491 1.429-14.063 8.119-25.463 29.901-25.463 48.652 0 10.613 3.654 17.976 9.375 20.899l8.945 5.177z" fill="url(#SVGID_4_)"/><path d="m276.359 395.906c0-18.75-11.4-27.369-25.463-19.25s-25.463 29.901-25.463 48.652c0 18.75 11.4 27.369 25.463 19.25s25.463-29.902 25.463-48.652z" fill="url(#SVGID_5_)"/><path d="m344.787 330.571-9.321-5.363c-4.443-2.477-10.198-2.204-16.491 1.429-14.063 8.119-25.463 29.901-25.463 48.652 0 10.613 3.655 17.976 9.375 20.899l8.945 5.177z" fill="url(#SVGID_6_)"/><path d="m353.806 351.285c0-18.75-11.4-27.369-25.463-19.25s-25.463 29.901-25.463 48.652 11.4 27.369 25.463 19.249c14.062-8.118 25.463-29.9 25.463-48.651z" fill="url(#SVGID_7_)"/><path d="m421.749 286.085-9.321-5.363c-4.443-2.477-10.198-2.204-16.491 1.429-14.063 8.119-25.463 29.901-25.463 48.652 0 10.613 3.654 17.976 9.375 20.899l8.945 5.177z" fill="url(#SVGID_8_)"/><path d="m430.767 306.799c0-18.75-11.4-27.369-25.463-19.25s-25.463 29.901-25.463 48.652 11.4 27.369 25.463 19.25 25.463-29.902 25.463-48.652z" fill="url(#SVGID_9_)"/></g></g><g><path d="m371.825 28.267-40.707-23.522c-11.785-7.03-27.248-6.499-44.183 3.28l-187.377 108.181c-36.945 21.33-66.895 78.555-66.895 127.816 0 27.498 9.335 46.696 24.007 54.586l-.004.004 42.817 24.688z" fill="url(#SVGID_10_)"/><path d="m101.659 334.942 42.22 24.379 4.402-50.441-46.622-15.499z" fill="url(#SVGID_11_)"/><path d="m329.154 32.403-187.377 108.182c-36.945 21.33-66.895 78.555-66.895 127.816 0 49.26 29.95 71.902 66.895 50.572l2.102-1.213v41.561l31.171-59.558 154.104-88.972c36.945-21.33 66.895-78.555 66.895-127.816 0-49.26-29.95-71.902-66.895-50.572z" fill="url(#SVGID_12_)"/><g><path d="m183.921 190.359-9.321-5.363c-4.443-2.477-10.198-2.204-16.491 1.429-14.063 8.119-25.463 29.901-25.463 48.652 0 10.613 3.654 17.976 9.375 20.899l8.945 5.177z" fill="url(#SVGID_13_)"/><path d="m192.939 211.072c0-18.75-11.4-27.369-25.463-19.25s-25.463 29.901-25.463 48.652 11.4 27.369 25.463 19.249c14.063-8.118 25.463-29.9 25.463-48.651z" fill="url(#SVGID_14_)"/><path d="m261.367 145.738-9.321-5.363c-4.443-2.477-10.198-2.204-16.491 1.429-14.063 8.119-25.463 29.901-25.463 48.652 0 10.613 3.655 17.976 9.375 20.899l8.945 5.177z" fill="url(#SVGID_15_)"/><path d="m270.385 166.452c0-18.75-11.4-27.369-25.463-19.25s-25.463 29.901-25.463 48.652 11.4 27.369 25.463 19.25c14.063-8.12 25.463-29.902 25.463-48.652z" fill="url(#SVGID_16_)"/><path d="m338.329 101.252-9.321-5.364c-4.443-2.477-10.198-2.204-16.491 1.429-14.063 8.119-25.463 29.901-25.463 48.652 0 10.613 3.654 17.976 9.375 20.899l8.945 5.177z" fill="url(#SVGID_17_)"/><path d="m347.347 121.965c0-18.75-11.4-27.369-25.463-19.25s-25.463 29.901-25.463 48.652 11.4 27.369 25.463 19.25 25.463-29.901 25.463-48.652z" fill="url(#SVGID_18_)"/></g></g></g></svg>