<svg id="Capa_1" enable-background="new 0 0 512 512" height="512" viewBox="0 0 512 512" width="512" xmlns="http://www.w3.org/2000/svg" xmlns:xlink="http://www.w3.org/1999/xlink"><linearGradient id="SVGID_1_" gradientUnits="userSpaceOnUse" x1="180.808" x2="267.525" y1="263.195" y2="112.997"><stop offset=".0319" stop-color="#b096ed"/><stop offset=".6473" stop-color="#d7cbf3"/><stop offset="1" stop-color="#eae5f6"/></linearGradient><linearGradient id="SVGID_00000102511574310584414780000011091202490015632009_" gradientUnits="userSpaceOnUse" x1="81.365" x2="133.057" y1="205.965" y2="116.432"><stop offset="0" stop-color="#221c36"/><stop offset="1" stop-color="#43386b"/></linearGradient><linearGradient id="lg1"><stop offset="0" stop-color="#d7d1eb"/><stop offset="1" stop-color="#f2effa"/></linearGradient><linearGradient id="SVGID_00000137853120274125786350000004681917582315445928_" gradientUnits="userSpaceOnUse" x1="358.137" x2="358.137" xlink:href="#lg1" y1="631.877" y2="201.023"/><linearGradient id="SVGID_00000175286584256738032600000004986005193754304412_" gradientUnits="userSpaceOnUse" x1="358.137" x2="358.137" y1="424.66" y2="241.961"><stop offset="0" stop-color="#a996eb"/><stop offset="1" stop-color="#d7d1eb"/></linearGradient><linearGradient id="SVGID_00000039833562777565354580000001994484429461530267_" gradientUnits="userSpaceOnUse" x1="360.008" x2="387.142" y1="342.396" y2="295.398"><stop offset=".0319" stop-color="#b096ed"/><stop offset=".1442" stop-color="#b9a3ee"/><stop offset=".5109" stop-color="#d4c7f3"/><stop offset=".8092" stop-color="#e4ddf5"/><stop offset="1" stop-color="#eae5f6"/></linearGradient><linearGradient id="SVGID_00000016061400657937272470000012465123145217699466_" gradientUnits="userSpaceOnUse" x1="380.454" x2="380.454" xlink:href="#lg1" y1="403.328" y2="335.315"/><linearGradient id="SVGID_00000167377112073776890420000008534799129781450628_" gradientUnits="userSpaceOnUse" x1="93.127" x2="155.807" y1="87.118" y2="87.118"><stop offset="0" stop-color="#221c36"/><stop offset="1" stop-color="#594a8e"/></linearGradient><linearGradient id="SVGID_00000179618145457044142250000008093404391884278917_" gradientUnits="userSpaceOnUse" x1="50.079" x2="135.661" y1="33.034" y2="82.445"><stop offset="0" stop-color="#221c36"/><stop offset=".9979" stop-color="#594a8e"/></linearGradient><linearGradient id="SVGID_00000086671349030833849720000007939159605958182807_" gradientUnits="userSpaceOnUse" x1="432.73" x2="447.511" y1="379.905" y2="354.305"><stop offset="0" stop-color="#c5baeb"/><stop offset="1" stop-color="#f2effa"/></linearGradient><linearGradient id="SVGID_00000038377677705975517740000002344330657367117727_" gradientUnits="userSpaceOnUse" x1="498.748" x2="498.748" xlink:href="#lg1" y1="442.667" y2="408.826"/><g><path d="m147.427 54.907-.016.034c-15.624-8.929-35.949-8.072-58.191 4.769-49.275 28.449-89.22 104.77-89.22 170.47 0 35.748 11.842 60.951 30.562 71.949l269.51 155.026 117.662-246.771z" fill="url(#SVGID_1_)"/><path d="m101.148 342.762.002-.005c-18.72-10.998-30.563-36.201-30.563-71.949 0-65.699 39.945-142.021 89.22-170.469 22.242-12.842 42.567-13.699 58.191-4.77l.016-.033-70.587-40.629-.016.034c-15.624-8.929-35.949-8.072-58.191 4.769-49.276 28.448-89.22 104.77-89.22 170.47 0 35.747 11.842 60.95 30.563 71.949z" fill="url(#SVGID_00000102511574310584414780000011091202490015632009_)"/><path d="m447.356 281.799c0-65.699-39.945-95.897-89.219-67.448s-89.219 104.77-89.219 170.469 39.945 95.897 89.219 67.448c49.274-28.448 89.219-104.769 89.219-170.469z" fill="url(#SVGID_00000137853120274125786350000004681917582315445928_)"/><path d="m369.09 387.967c0-8.065-4.904-11.772-10.953-8.28s-10.953 12.862-10.953 20.927 4.904 11.772 10.953 8.28 10.953-12.861 10.953-20.927z" fill="#221c36"/><ellipse cx="358.137" cy="278.429" fill="#221c36" rx="16.814" ry="9.513" transform="matrix(.392 -.92 .92 .392 -38.29 498.953)"/><g><path d="m333.426 424.66c-5.936 0-11.499-1.428-16.476-4.301-13.98-8.072-21.999-26.718-21.999-51.158 0-46.027 28.116-99.706 62.675-119.659 15.275-8.82 30.083-9.984 41.697-3.279 13.98 8.072 21.999 26.718 21.999 51.158 0 46.028-28.116 99.707-62.675 119.659-8.729 5.04-17.306 7.58-25.221 7.58zm49.419-180.65c-7.56 0-15.789 2.447-24.197 7.301-33.995 19.627-61.651 72.512-61.651 117.889 0 23.69 7.646 41.691 20.977 49.388 10.955 6.326 25.039 5.16 39.653-3.279 33.995-19.626 61.651-72.511 61.651-117.889 0-23.69-7.646-41.691-20.976-49.388-4.655-2.686-9.873-4.022-15.457-4.022z" fill="url(#SVGID_00000175286584256738032600000004986005193754304412_)"/></g><g><path d="m382.519 298.913-.005.01c-4.664-2.665-10.731-2.41-17.371 1.424-14.709 8.492-26.632 31.275-26.632 50.886 0 10.671 3.535 18.194 9.123 21.477l15.487 8.912 35.123-73.663z" fill="url(#SVGID_00000039833562777565354580000001994484429461530267_)"/><path d="m407.086 329.278c0-19.612-11.924-28.626-26.632-20.134-14.709 8.492-26.632 31.275-26.632 50.886s11.924 28.626 26.632 20.134 26.632-31.274 26.632-50.886z" fill="url(#SVGID_00000016061400657937272470000012465123145217699466_)"/></g><path d="m148.642 68.833-63.238 5.858v15.14l.021-.002c.028 4.167 2.543 8.143 7.694 11.117 11.432 6.6 31.401 5.773 44.603-1.849 7.253-4.188 10.93-9.553 10.896-14.635l.023-.002z" fill="url(#SVGID_00000167377112073776890420000008534799129781450628_)"/><path d="m137.722 83.635c13.201-7.621 14.635-19.151 3.202-25.751-11.432-6.601-31.402-5.773-44.603 1.849-13.201 7.621-14.635 19.151-3.202 25.751 11.432 6.6 31.402 5.773 44.603-1.849z" fill="url(#SVGID_00000179618145457044142250000008093404391884278917_)"/><path d="m129.375 78.816c7.878-4.548 8.734-11.429 1.911-15.368s-18.74-3.445-26.618 1.103-8.734 11.429-1.911 15.368c6.822 3.94 18.74 3.446 26.618-1.103z" fill="#221c36"/><g><path d="m388.128 325.753-.002.005c-2.321-1.326-5.339-1.199-8.643.708-7.319 4.225-13.251 15.561-13.251 25.319 0 5.31 1.759 9.053 4.539 10.687l119.354 69.394 17.476-36.652z" fill="url(#SVGID_00000086671349030833849720000007939159605958182807_)"/><path d="m512 405.822c0-9.758-5.933-14.243-13.252-10.018s-13.252 15.561-13.252 25.319 5.933 14.243 13.252 10.018 13.252-15.561 13.252-25.319z" fill="url(#SVGID_00000038377677705975517740000002344330657367117727_)"/></g></g></svg>