<svg id="Capa_1" enable-background="new 0 0 512 512" height="512" viewBox="0 0 512 512" width="512" xmlns="http://www.w3.org/2000/svg" xmlns:xlink="http://www.w3.org/1999/xlink"><linearGradient id="SVGID_1_" gradientUnits="userSpaceOnUse" x1="172.112" x2="329.392" y1="278.35" y2="5.933"><stop offset="0" stop-color="#b096ed"/><stop offset=".2459" stop-color="#c3b0f0"/><stop offset=".6742" stop-color="#eae5f6"/><stop offset="1" stop-color="#d9d1ec"/></linearGradient><linearGradient id="lg1"><stop offset="0" stop-color="#e1daef"/><stop offset="1" stop-color="#fff"/></linearGradient><linearGradient id="SVGID_2_" gradientTransform="matrix(.866 -.5 0 1.155 34.128 286.411)" gradientUnits="userSpaceOnUse" x1="291.074" x2="291.074" xlink:href="#lg1" y1="320.99" y2="-101.248"/><linearGradient id="SVGID_3_" gradientTransform="matrix(.866 -.5 0 1.155 34.128 286.411)" gradientUnits="userSpaceOnUse" x1="291.074" x2="291.074" y1="297.744" y2="-76.9"><stop offset="0" stop-color="#c62834"/><stop offset="1" stop-color="#ff4557"/></linearGradient><linearGradient id="SVGID_4_" gradientUnits="userSpaceOnUse" x1="290.376" x2="290.376" xlink:href="#lg1" y1="386.36" y2="55.803"/><g><path d="m392.231 45.038-60.101-34.583c-28.65-15.973-65.758-14.211-106.329 9.212-90.675 52.352-164.181 192.8-164.181 313.7 0 68.431 23.563 115.908 60.447 134.755l57.676 33.383z" fill="url(#SVGID_1_)"/><path d="m450.38 178.599c0-120.9-73.507-176.47-164.181-124.118s-164.182 192.798-164.182 313.698 73.507 176.47 164.182 124.118 164.181-192.798 164.181-313.698z" fill="url(#SVGID_2_)"/><path d="m431.874 189.283c0-107.272-65.221-156.579-145.676-110.128-80.454 46.45-145.675 171.067-145.675 278.34s65.221 156.578 145.675 110.128c80.455-46.45 145.676-171.067 145.676-278.34z" fill="url(#SVGID_3_)"/><path d="m389.854 298.398-16.045-12.122c-9.173-6.941-20.866-7.804-33.51-2.817v-11.008l43.818-25.299c4.48-2.587 8.113-9.528 8.113-15.502s-3.633-8.72-8.113-6.133l-43.818 25.298v-11.006c12.643-9.613 24.333-23.974 33.51-41.508l16.045-30.651c3.169-6.056 3.169-12.904 0-15.3s-8.304.571-11.473 6.621l-16.045 30.654c-6.133 11.718-13.808 21.506-22.148 28.422-.562-7.999-5.748-11.55-12.139-7.861l-.17.098c0-18.327-7.417-30.024-18.446-32.364 1.218-12.978 5.356-26.725 12.042-39.496l.717-1.373c3.166-6.056 3.158-12.903-.016-15.288-3.177-2.392-8.312.583-11.473 6.645l-.709 1.355c-8.522 16.277-14.068 33.724-16.199 50.425-2.355 1.045-4.688 2.42-6.842 3.95-2.131-14.238-7.675-25.279-16.188-31.713l-.717-.545c-3.165-2.406-8.3.548-11.473 6.603-3.173 6.05-3.181 12.906-.016 15.306l.725.551c6.676 5.049 10.813 14.017 12.031 25.59-11.028 15.073-18.444 35.333-18.444 53.659l-.171.099c-6.389 3.689-11.575 13.229-12.138 21.878-8.337 2.711-16.014 1.787-22.15-2.847l-16.041-12.127c-3.169-2.396-8.304.568-11.473 6.624-3.169 6.053-3.169 12.904 0 15.297l16.041 12.129c9.18 6.938 20.874 7.797 33.513 2.813v11.006l-43.817 25.298c-4.481 2.587-8.113 9.528-8.113 15.503s3.633 8.721 8.113 6.134l43.817-25.298v11.007c-12.643 9.613-24.336 23.975-33.513 41.514l-16.041 30.649c-3.169 6.053-3.169 12.904 0 15.297 1.585 1.198 3.661 1.056 5.736-.143 2.076-1.198 4.152-3.454 5.736-6.481l16.041-30.649c6.187-11.822 13.947-21.67 22.373-28.596 2.566 29.168 20.728 43.035 43.668 33.411l8.652-120.941 8.541 109.782c20.368-18.031 35.957-49.923 38.321-79.515 8.427-2.804 16.186-1.914 22.37 2.767l16.045 12.125c1.585 1.195 3.661 1.053 5.737-.145 2.076-1.199 4.152-3.453 5.736-6.481 3.169-6.056 3.169-12.905 0-15.301z" fill="url(#SVGID_4_)"/></g></svg>