<svg id="Capa_1" enable-background="new 0 0 512 512" height="512" viewBox="0 0 512 512" width="512" xmlns="http://www.w3.org/2000/svg" xmlns:xlink="http://www.w3.org/1999/xlink"><linearGradient id="SVGID_1_" gradientUnits="userSpaceOnUse" x1="215.683" x2="240.792" y1="199.458" y2="155.967"><stop offset=".0319" stop-color="#ba5c25"/><stop offset=".1293" stop-color="#c56429"/><stop offset=".3748" stop-color="#db7431"/><stop offset=".5321" stop-color="#e37a34"/><stop offset="1" stop-color="#ffa538"/></linearGradient><linearGradient id="SVGID_2_" gradientUnits="userSpaceOnUse" x1="262.348" x2="262.348" y1="471.76" y2="40.691"><stop offset="0" stop-color="#dea861"/><stop offset="1" stop-color="#ebcba0"/></linearGradient><linearGradient id="SVGID_3_" gradientUnits="userSpaceOnUse" x1="237.6" x2="258.708" y1="206.459" y2="169.899"><stop offset=".0319" stop-color="#a996eb"/><stop offset=".2213" stop-color="#bfb3eb"/><stop offset=".4108" stop-color="#d1c9eb"/><stop offset=".5321" stop-color="#d7d1eb"/><stop offset="1" stop-color="#e9e5f6"/></linearGradient><linearGradient id="SVGID_4_" gradientUnits="userSpaceOnUse" x1="267.483" x2="267.483" y1="702.039" y2="69.815"><stop offset="0" stop-color="#dfdaef"/><stop offset="1" stop-color="#fff"/></linearGradient><linearGradient id="SVGID_5_" gradientUnits="userSpaceOnUse" x1="261.084" x2="248.017" y1="86.943" y2="64.311"><stop offset=".3518" stop-color="#c5baeb"/><stop offset="1" stop-color="#e9e5f6"/></linearGradient><linearGradient id="SVGID_6_" gradientUnits="userSpaceOnUse" x1="192.316" x2="192.316" y1="131.859" y2="91.512"><stop offset="0" stop-color="#7662bd"/><stop offset="1" stop-color="#a996eb"/></linearGradient><g><path d="m371.601 8.774-12.791-7.61c-2.524-1.652-5.896-1.607-9.604.533l-199.109 114.956c-7.819 4.514-14.157 16.625-14.157 27.049v348.352c0 6.159 2.213 10.349 5.636 11.819l6.046 3.674 5.305 3.105z" fill="url(#SVGID_1_)"/><path d="m361.903 395.345-199.109 114.956c-7.819 4.514-14.157-.277-14.157-10.702v-348.352c0-10.425 6.338-22.535 14.157-27.049l199.109-114.956c7.819-4.514 14.157.278 14.157 10.702v348.352c0 10.425-6.339 22.535-14.157 27.049z" fill="url(#SVGID_2_)"/><g><path d="m355.856 55.86-10.346-6.155c-2.041-1.337-4.77-1.3-7.768.431l-161.056 92.985c-6.325 3.652-11.451 13.448-11.451 21.88v301.732c0 4.982 1.79 8.371 4.559 9.56l4.891 2.971 4.291 2.512z" fill="url(#SVGID_3_)"/><path d="m348.011 388.507-161.056 92.986c-6.325 3.652-11.451-.224-11.451-8.657v-301.732c0-8.432 5.127-18.229 11.451-21.88l161.056-92.986c6.324-3.651 11.451.225 11.451 8.657v301.732c0 8.433-5.127 18.229-11.451 21.88z" fill="url(#SVGID_4_)"/><path d="m334.459 119.35-122.613 70.297c-3.558 2.054-6.443 7.566-6.443 12.31 0 4.744 2.885 6.925 6.443 4.871l122.613-70.297c3.558-2.054 6.443-7.566 6.443-12.31 0-4.745-2.884-6.925-6.443-4.871z" fill="#43386b"/><path d="m265.746 191.252-53.9 30.947c-3.558 2.054-6.443 7.566-6.443 12.31 0 4.744 2.885 6.925 6.443 4.871l53.9-30.947c3.558-2.054 6.443-7.566 6.443-12.31 0-4.745-2.885-6.926-6.443-4.871z" fill="#43386b"/><g><path d="m226.97 375.876-17.398 10.044v59.692l17.398-10.045z" fill="#06daae"/><path d="m253.386 377.598-17.398 10.045v42.718l17.398-10.045z" fill="#f7e041"/><path d="m279.802 372.956-17.398 10.045v32.109l17.398-10.045z" fill="#ff4757"/><path d="m306.217 330.122-17.398 10.045v59.692l17.398-10.045z" fill="#06daae"/><path d="m332.633 289.128-17.398 10.044v85.436l17.398-10.045z" fill="#59acf9"/></g><g><path d="m316.452 228.341c3.596 0 5.234 6.361 5.234 12.272 0 15.139-9.637 33.984-20.624 40.327-1.912 1.104-3.716 1.712-5.079 1.712-3.596 0-5.234-6.361-5.234-12.272 0-15.14 9.637-33.984 20.624-40.326 1.912-1.105 3.716-1.713 5.079-1.713m0-10.31c-3.137 0-6.598.994-10.234 3.094-14.238 8.22-25.779 30.272-25.779 49.255 0 14.134 6.399 22.582 15.545 22.582 3.138 0 6.598-.994 10.235-3.094 14.237-8.22 25.779-30.272 25.779-49.256-.001-14.134-6.4-22.581-15.546-22.581z" fill="#43386b"/><path d="m331.997 240.613c0-14.134-6.399-22.582-15.544-22.582-3.137 0-6.598.994-10.234 3.094v12.89c1.661-1.597 3.39-2.942 5.155-3.961 1.913-1.104 3.717-1.712 5.079-1.712 3.596 0 5.234 6.361 5.234 12.272 0 2.027-.178 4.122-.504 6.243z" fill="#ff4757"/></g><g><g><path d="m244.419 269.685c3.596 0 5.234 6.361 5.234 12.272 0 15.139-9.637 33.984-20.624 40.327-1.913 1.104-3.716 1.712-5.079 1.712-3.596 0-5.235-6.361-5.235-12.272 0-15.14 9.637-33.984 20.624-40.326 1.913-1.105 3.717-1.713 5.08-1.713m0-10.31c-3.137 0-6.598.994-10.234 3.094-14.238 8.22-25.779 30.272-25.779 49.255 0 14.134 6.399 22.582 15.545 22.582 3.138 0 6.598-.994 10.234-3.094 14.237-8.22 25.779-30.272 25.779-49.256 0-14.134-6.399-22.581-15.545-22.581z" fill="#43386b"/></g><path d="m234.184 331.213c14.237-8.22 25.779-30.273 25.779-49.256 0-14.134-6.399-22.582-15.545-22.582-3.137 0-6.598.994-10.234 3.094v12.89c1.661-1.597 3.39-2.942 5.155-3.961 1.912-1.104 3.717-1.712 5.079-1.712 3.596 0 5.234 6.361 5.234 12.272 0 15.139-9.637 33.984-20.624 40.327-1.913 1.104-3.716 1.712-5.079 1.712-3.596 0-5.235-6.361-5.235-12.272 0-7.727 2.514-16.416 6.433-23.919l-7.603-7.603c-5.588 9.532-9.14 20.997-9.14 31.522 0 14.134 6.399 22.582 15.545 22.582 3.139-.001 6.599-.995 10.235-3.094z" fill="#59acf9"/></g></g><g><path d="m312.289 30.16-14.975-8.646-115.819 66.895 16.529 15.258 5.114 31.958 115.819-66.895v-27.021c0-4.764-2.542-9.167-6.668-11.549z" fill="url(#SVGID_5_)"/><g><path d="m232.749 159.902c-2.03 0-4.06-.534-5.91-1.603-3.701-2.137-5.911-5.964-5.911-10.238v-40.41c0-2.894 2.347-5.241 5.241-5.241s5.241 2.347 5.241 5.241v40.41c0 .639.364.984.67 1.16.305.177.785.32 1.339 0l62.361-36.004c1.719-.993 2.787-2.842 2.787-4.828v-45.562c0-2.894 2.347-5.241 5.241-5.241s5.241 2.347 5.241 5.241v45.563c0 5.718-3.076 11.046-8.028 13.905l-62.361 36.004c-1.851 1.069-3.881 1.603-5.911 1.603z" fill="#e9e5f6"/></g><path d="m181.495 88.409v10.116l12.882 7.438v24.604l8.761 5.058v-27.021c0-4.765-2.542-9.167-6.668-11.55z" fill="url(#SVGID_6_)"/></g></g></svg>