<svg id="Capa_1" enable-background="new 0 0 512 512" height="512" viewBox="0 0 512 512" width="512" xmlns="http://www.w3.org/2000/svg" xmlns:xlink="http://www.w3.org/1999/xlink"><linearGradient id="lg1"><stop offset=".0331" stop-color="#006568"/><stop offset=".1699" stop-color="#036a6c"/><stop offset=".3264" stop-color="#0d7878"/><stop offset=".4925" stop-color="#1d8e8b"/><stop offset=".6654" stop-color="#34aea7"/><stop offset=".8417" stop-color="#50d7ca"/><stop offset=".9316" stop-color="#61efde"/></linearGradient><linearGradient id="SVGID_1_" gradientUnits="userSpaceOnUse" x1="305.834" x2="382.76" xlink:href="#lg1" y1="280.665" y2="147.426"/><linearGradient id="SVGID_2_" gradientUnits="userSpaceOnUse" x1="367.836" x2="336.921" xlink:href="#lg1" y1="218.63" y2="272.177"/><linearGradient id="lg2"><stop offset="0" stop-color="#00daac"/><stop offset=".0605" stop-color="#09dcb1"/><stop offset=".3404" stop-color="#2fe4c4"/><stop offset=".5994" stop-color="#4aead2"/><stop offset=".8274" stop-color="#5beedb"/><stop offset="1" stop-color="#61efde"/></linearGradient><linearGradient id="SVGID_3_" gradientUnits="userSpaceOnUse" x1="431.418" x2="325.075" xlink:href="#lg2" y1="662.588" y2="37.11"/><linearGradient id="SVGID_4_" gradientUnits="userSpaceOnUse" x1="199.4" x2="269.869" xlink:href="#lg1" y1="337.727" y2="215.671"/><linearGradient id="SVGID_5_" gradientUnits="userSpaceOnUse" x1="258.765" x2="233.303" xlink:href="#lg1" y1="309.597" y2="353.697"/><linearGradient id="SVGID_6_" gradientUnits="userSpaceOnUse" x1="311.3" x2="204.957" xlink:href="#lg2" y1="683.01" y2="57.532"/><linearGradient id="SVGID_7_" gradientUnits="userSpaceOnUse" x1="119.486" x2="141.636" y1="340.212" y2="301.847"><stop offset=".0331" stop-color="#006568"/><stop offset=".1568" stop-color="#188886"/><stop offset=".3148" stop-color="#32ada5"/><stop offset=".4729" stop-color="#47cabe"/><stop offset=".6293" stop-color="#55ded0"/><stop offset=".7832" stop-color="#5eebda"/><stop offset=".9316" stop-color="#61efde"/></linearGradient><linearGradient id="SVGID_8_" gradientUnits="userSpaceOnUse" x1="122.904" x2="75.088" xlink:href="#lg1" y1="371.462" y2="454.283"/><linearGradient id="SVGID_9_" gradientUnits="userSpaceOnUse" x1="119.307" x2="97.772" y1="335.052" y2="375.264"><stop offset="0" stop-color="#006568"/><stop offset="1" stop-color="#00878a"/></linearGradient><linearGradient id="SVGID_10_" gradientUnits="userSpaceOnUse" x1="194.874" x2="88.531" xlink:href="#lg2" y1="702.805" y2="77.327"/><linearGradient id="SVGID_11_" gradientUnits="userSpaceOnUse" x1="398.518" x2="431.904" xlink:href="#lg1" y1="125.794" y2="67.967"/><linearGradient id="SVGID_12_" gradientUnits="userSpaceOnUse" x1="440.137" x2="417.688" xlink:href="#lg1" y1="94.297" y2="133.18"/><linearGradient id="SVGID_13_" gradientUnits="userSpaceOnUse" x1="521.398" x2="415.054" xlink:href="#lg2" y1="647.29" y2="21.812"/><g><g><path d="m362.536 131.615s-.013.007-.029.015c-8.927-4.897-20.417-3.61-33.498 3.942-31.021 17.91-53.154 60.647-53.154 112.516 0 29.635 7.234 47.925 19.213 54.838-.001.006-.002.02-.002.02l30.388 17.569s51.037-2.222 56.709-56.537c5.671-54.315 10.881-114.706 10.881-114.706z" fill="url(#SVGID_1_)"/><path d="m372.058 226.807c0-30.182-5.701-36.28-13.414-31.827-7.714 4.453-13.415 17.135-13.415 47.317s5.701 36.281 13.415 31.827c7.712-4.453 13.414-17.135 13.414-47.317z" fill="url(#SVGID_2_)"/><path d="m305.49 265.24c0-51.869 22.133-94.606 53.154-112.516 31.02-17.91 53.153-.73 53.153 51.139s-22.133 94.606-53.153 112.515c-31.021 17.911-53.154.731-53.154-51.138zm66.568-38.433c0-30.182-5.701-36.28-13.414-31.827-7.714 4.453-13.415 17.135-13.415 47.317s5.701 36.281 13.415 31.827c7.712-4.453 13.414-17.135 13.414-47.317z" fill="url(#SVGID_3_)"/><path d="m256.616 249.384 28.443-44.724-29.757-17.233-.001.001c-3.134-2.029-7.156-2.738-11.223-1.294-4.51 1.601-9.235 3.805-13.999 6.555-38.734 22.363-65.059 69.533-65.059 124.308 0 26.57 6.153 42.705 16.75 49.398 0 .011-.001.031-.001.031l.466.27c.191.114.383.225.576.333l28.531 16.509s55.229-22.555 57.639-45.996 17.198-71.047 17.198-71.047z" fill="url(#SVGID_4_)"/><path d="m260.385 320.793c0-9.837-5.03-13.193-12.073-9.127s-12.073 13.23-12.073 23.068c0 9.837 5.03 12.969 12.073 8.903s12.073-13.007 12.073-22.844z" fill="url(#SVGID_5_)"/><path d="m298.615 296.261c0 33.536-21.127 66.973-47.62 82.269-33.536 19.362-56.34 6.817-56.34-44.381 0-54.775 26.325-101.945 65.059-124.308 4.764-2.75 9.488-4.954 13.999-6.555 10.044-3.566 19.814 5.99 16.604 16.153-4.012 12.7-13.31 22.947-25.395 28.545-1.444.669-2.9 1.439-4.37 2.287-13.414 7.745-22.804 22.332-25.487 41.32 5.869-8.978 13.414-16.464 23.307-22.176 21.464-12.391 40.243-3.783 40.243 26.846zm-38.23 24.532c0-9.837-5.03-13.193-12.073-9.127s-12.073 13.23-12.073 23.068c0 9.837 5.03 12.969 12.073 8.903s12.073-13.007 12.073-22.844z" fill="url(#SVGID_6_)"/><path d="m149.452 321.946c9.506-24.672 25.054-52.779 25.054-52.779l-30.005-17.378-.001.001c-3.081-1.786-7.047-2.046-10.572-.01l-55.704 32.16c-9.894 5.712-15.989 16.27-15.989 27.695 0 4.849 2.688 8.764 6.41 10.801l-.004.004 21.945 12.702c-2.426 5.191-3.702 10.85-3.702 16.592v4.888c0 4.243 2.444 7.624 5.765 9.285l-.004.02 20.751 12.024c-2.703 4.336-7.041 8.24-12.26 11.253-5.123 2.958-10.695 5.216-16.275 6.426-9.909 2.149-17.871 9.495-20.674 19.239-2.454 8.532 1.433 16.486 7.882 20.551l.243.152c.224.136.451.267.681.395l29.416 17.04s68.555-37.317 62.611-65.846c-2.376-11.405-11.155-60.243-15.568-65.215z" fill="url(#SVGID_7_)"/><path d="m151.78 376.926c-3.049-8.64-38.385 1.027-38.385 1.027-2.703 4.336-7.041 8.24-12.26 11.253-5.123 2.958-10.696 5.216-16.275 6.426-9.909 2.149-17.871 9.495-20.674 19.239-2.454 8.532 1.433 16.486 7.882 20.551l30.34 17.587c.001-.001 52.421-67.444 49.372-76.083z" fill="url(#SVGID_8_)"/><path d="m86.883 356.623c0 4.243 2.444 7.624 5.765 9.285l-.004.02 20.751 12.024 8.868 5.12 15.668-62.431-39.549 19.003-7.797-4.501c-2.426 5.191-3.702 10.85-3.702 16.592z" fill="url(#SVGID_9_)"/><path d="m185.769 362.531c0 26.829-16.097 62.951-53.657 84.636-4.461 2.576-9.038 4.857-13.591 6.765-14.187 5.944-28.95-7.128-24.699-21.91 2.802-9.745 10.765-17.091 20.674-19.239 5.58-1.21 11.153-3.468 16.276-6.426 8.887-5.131 15.259-12.834 15.259-20.882 0-6.707-3.857-8.505-13.918-2.696-6.931 4.001-15.594-1-15.594-9.003v-4.888c0-6.258 1.498-12.425 4.37-17.986l12.901-24.984-23.445 13.536c-8.211 4.741-18.475-1.185-18.475-10.666 0-11.425 6.095-21.982 15.99-27.695l55.704-32.161c7.037-4.063 15.834 1.016 15.834 9.142 0 9.287-2.229 18.438-6.499 26.685l-15.299 29.545c18.444-4.613 28.169 6.54 28.169 28.227z" fill="url(#SVGID_10_)"/><path d="m446.705 75.215s-29.916-17.284-29.917-17.284c-4.431-2.166-10.041-1.761-16.143 1.761-14.277 8.243-25.893 30.437-25.893 49.475 0 10.595 3.601 18.007 9.253 21.082 0 .001 29.9 17.298 29.9 17.298s29.26-11.001 31.674-35.522c2.414-24.522 1.126-36.81 1.126-36.81z" fill="url(#SVGID_11_)"/><path d="m430.28 96.6c-6.107 3.526-11.076 13.02-11.076 21.163s4.969 11.9 11.076 8.374c6.108-3.526 11.077-13.02 11.077-21.164s-4.969-11.899-11.077-8.373z" fill="url(#SVGID_12_)"/><g><path d="m430.28 145.894c-14.278 8.243-25.893-.538-25.893-19.576s11.616-41.232 25.893-49.475c14.278-8.244 25.894.538 25.894 19.575s-11.615 41.232-25.894 49.476zm0-49.294c-6.107 3.526-11.076 13.02-11.076 21.163s4.969 11.9 11.076 8.374c6.108-3.526 11.077-13.02 11.077-21.164s-4.969-11.899-11.077-8.373z" fill="url(#SVGID_13_)"/></g></g><path d="m481.309 207.771 17.406 1.705c4.417.43 8.332-2.792 8.764-7.2s-2.792-8.332-7.2-8.764l-42.962-4.209c-.141-.019-.282-.03-.423-.041l-9.928-.973 4.853 38.655c.509 4.056 3.963 7.022 7.948 7.022.333 0 .67-.021 1.009-.063 4.395-.552 7.51-4.562 6.958-8.957l-1.151-9.174c20.245 18.735 30.322 40.666 29.309 64.232-1.597 37.168-31.326 75.12-81.565 104.125-101.153 58.4-254.474 64.905-341.779 14.5-32.899-18.995-52.226-43.624-55.89-71.227-3.628-27.33 8.181-55.563 34.152-81.646 3.125-3.139 3.114-8.217-.025-11.342-3.14-3.126-8.218-3.115-11.343.024-29.194 29.32-42.932 63.085-38.686 95.075 4.345 32.725 26.396 61.429 63.771 83.007 40.591 23.435 95.337 36.028 155.704 36.027 6.057 0 12.176-.127 18.337-.382 67.339-2.791 132.606-20.6 183.778-50.144 27.796-16.048 49.717-34.51 65.152-54.875 15.289-20.172 23.505-41.184 24.419-62.453 1.139-26.486-9.592-51.717-30.608-72.922z" fill="#45356d"/></g></svg>