<svg id="Capa_1" enable-background="new 0 0 512 512" height="512" viewBox="0 0 512 512" width="512" xmlns="http://www.w3.org/2000/svg" xmlns:xlink="http://www.w3.org/1999/xlink"><linearGradient id="lg1"><stop offset="0" stop-color="#221c36"/><stop offset="1" stop-color="#43386b"/></linearGradient><linearGradient id="SVGID_1_" gradientUnits="userSpaceOnUse" x1="62.379" x2="74.589" xlink:href="#lg1" y1="141.583" y2="120.433"/><linearGradient id="SVGID_00000028310340561376463790000012992226591800249732_" gradientUnits="userSpaceOnUse" x1="419.993" x2="425.288" xlink:href="#lg1" y1="169.003" y2="159.831"/><linearGradient id="SVGID_00000121255214363815704540000000456889237126971286_" gradientUnits="userSpaceOnUse" x1="236.415" x2="250.731" xlink:href="#lg1" y1="206.462" y2="181.666"/><linearGradient id="SVGID_00000045581615260502180340000007017771163643844005_" gradientUnits="userSpaceOnUse" x1="186.334" x2="193.123" y1="254.717" y2="242.958"><stop offset="0" stop-color="#322a50"/><stop offset="1" stop-color="#43386b"/></linearGradient><linearGradient id="lg2"><stop offset="0" stop-color="#c5baeb"/><stop offset="1" stop-color="#f2effa"/></linearGradient><linearGradient id="SVGID_00000145018362138997049120000004063278240972728240_" gradientTransform="matrix(.866 -.5 0 1.155 39.697 105.137)" gradientUnits="userSpaceOnUse" x1="375.027" x2="375.027" xlink:href="#lg2" y1="510.432" y2="218.474"/><linearGradient id="SVGID_00000058576351457798967050000005373591666929334674_" gradientUnits="userSpaceOnUse" x1="155.983" x2="191.766" xlink:href="#lg1" y1="231.878" y2="169.9"/><linearGradient id="lg3"><stop offset="0" stop-color="#221c36"/><stop offset="1" stop-color="#594a8e"/></linearGradient><linearGradient id="SVGID_00000131335785514325625170000012585207322823143320_" gradientUnits="userSpaceOnUse" x1="309.71" x2="329.911" xlink:href="#lg3" y1="301.879" y2="266.891"/><linearGradient id="SVGID_00000177449726429386220710000014932567300547428771_" gradientTransform="matrix(.866 -.5 0 1.155 376.447 1756.309)" gradientUnits="userSpaceOnUse" x1="5.121" x2="5.121" xlink:href="#lg2" y1="-1087.389" y2="-1343.732"/><linearGradient id="SVGID_00000038378232584605413080000000828719903411226245_" gradientTransform="matrix(.866 -.5 0 1.155 203.754 723.605)" gradientUnits="userSpaceOnUse" x1="204.536" x2="204.536" y1="-134.726" y2="-342.804"><stop offset="0" stop-color="#43386b"/><stop offset="1" stop-color="#594a8e"/></linearGradient><linearGradient id="SVGID_00000145029803829343457830000008204136507207540137_" gradientUnits="userSpaceOnUse" x1="378.556" x2="402.379" y1="333.822" y2="292.559"><stop offset=".0319" stop-color="#b096ed"/><stop offset=".1442" stop-color="#b9a3ee"/><stop offset=".5109" stop-color="#d4c7f3"/><stop offset=".8092" stop-color="#e4ddf5"/><stop offset="1" stop-color="#eae5f6"/></linearGradient><linearGradient id="lg4"><stop offset="0" stop-color="#d7d1eb"/><stop offset="1" stop-color="#f2effa"/></linearGradient><linearGradient id="SVGID_00000012433963361876073210000015604096533608160904_" gradientUnits="userSpaceOnUse" x1="396.506" x2="396.506" xlink:href="#lg4" y1="387.319" y2="327.605"/><linearGradient id="SVGID_00000140006155877799278480000014619293284035404182_" gradientUnits="userSpaceOnUse" x1="442.404" x2="455.38" xlink:href="#lg2" y1="366.754" y2="344.278"/><linearGradient id="SVGID_00000171717349633866786280000010839970669926825150_" gradientUnits="userSpaceOnUse" x1="500.366" x2="500.366" xlink:href="#lg4" y1="421.857" y2="392.145"/><linearGradient id="SVGID_00000144300979309683635980000015991709801818686627_" gradientUnits="userSpaceOnUse" x1="169.994" x2="182.707" xlink:href="#lg3" y1="75.675" y2="53.655"/><linearGradient id="SVGID_00000136412799220108549550000011982988673447810987_" gradientUnits="userSpaceOnUse" x1="223.473" x2="223.473" xlink:href="#lg3" y1="146.388" y2="26.618"/><g><path d="m47.754 317.947-31.694-18.298c-9.938-5.738-16.06-16.343-16.06-27.818v-165.764c0-9.967 5.317-19.176 13.948-24.159l115.184-66.502c9.938-5.738 22.183-5.738 32.121 0l33.82 19.526z" fill="url(#SVGID_1_)"/><path d="m463.614 175.388-70.962-40.97 57.914 56.712z" fill="url(#SVGID_00000028310340561376463790000012992226591800249732_)"/><path d="m204.763 20.148c-.07-.041-.137-.085-.209-.121l-.052-.029-.003.007c-1.242-.598-2.81-.484-4.52.503l-123.227 71.146c-4.02 2.321-7.279 8.547-7.279 13.907v13.754c-5.851 11.18-9.132 17.448-14.983 28.628l-10.316 5.955c-4.02 2.321-7.279 8.548-7.279 13.907v164.305c0 3.054 1.061 5.163 2.715 5.987l-.001.003 29.864 17.238v1.399c0 2.783.883 4.775 2.291 5.732.157.107.319.202.489.282l226.292 130.583 132.358-342.673z" fill="url(#SVGID_00000121255214363815704540000000456889237126971286_)"/><path d="m36.896 167.806v164.304c0 3.054 1.061 5.163 2.715 5.987l-.001.003 29.864 17.238 195.729 112.952 15.392-189.843-226.105-130.503-10.316 5.955c-4.019 2.321-7.278 8.548-7.278 13.907z" fill="url(#SVGID_00000045581615260502180340000007017771163643844005_)"/><path d="m458.662 175.641-10.316 5.956c-5.851-4.424-9.132-6.904-14.983-11.327v-13.754c0-5.36-3.259-7.823-7.279-5.503l-123.228 71.145c-4.02 2.321-7.279 8.548-7.279 13.907v13.754c-5.851 11.18-9.132 17.448-14.983 28.628l-10.316 5.956c-4.02 2.321-7.279 8.547-7.279 13.907v164.304c0 5.36 3.259 7.823 7.279 5.503l10.316-5.956c5.851 4.424 9.132 6.904 14.983 11.327v13.754c0 5.36 3.259 7.824 7.279 5.503l123.228-71.146c4.02-2.321 7.279-8.547 7.279-13.907v-13.754c5.851-11.18 9.132-17.448 14.983-28.628l10.316-5.956c4.02-2.321 7.279-8.547 7.279-13.907v-164.304c-.001-5.36-3.259-7.823-7.279-5.502z" fill="url(#SVGID_00000145018362138997049120000004063278240972728240_)"/><path d="m54.49 147.944 226.105 130.504 14.983-28.628-226.105-130.505z" fill="url(#SVGID_00000058576351457798967050000005373591666929334674_)"/><g><path d="m487.926 144.457-24.954-14.321c-4.461-2.457-10.222-2.179-16.522 1.459l-179.086 103.395c-14.141 8.165-25.605 30.07-25.605 48.926v190.055c0 10.206 3.376 17.391 8.699 20.573l23.657 13.592z" fill="url(#SVGID_00000131335785514325625170000012585207322823143320_)"/><path d="m470.425 145.339-179.086 103.395c-14.142 8.165-25.606 30.07-25.606 48.925v190.055c0 18.856 11.464 27.523 25.606 19.358l179.086-103.395c14.142-8.165 25.606-30.069 25.606-48.925v-190.055c0-18.856-11.464-27.523-25.606-19.358z" fill="url(#SVGID_00000177449726429386220710000014932567300547428771_)"/><path d="m459.519 280.805c0-57.907-35.207-84.523-78.637-59.449-43.43 25.075-78.637 92.344-78.637 150.251s35.207 84.523 78.637 59.449c43.43-25.075 78.637-92.344 78.637-150.251z" fill="url(#SVGID_00000038378232584605413080000000828719903411226245_)"/><g fill="#221c36"><ellipse cx="380.882" cy="326.206" rx="42.976" ry="24.313" transform="matrix(.392 -.92 .92 .392 -68.413 548.951)"/><g><path d="m302.244 271.859c0-9.467-5.756-13.818-12.856-9.719s-12.856 15.097-12.856 24.564 5.756 13.818 12.856 9.719c7.101-4.099 12.856-15.097 12.856-24.564z"/><path d="m485.231 166.212c0-9.467-5.756-13.818-12.856-9.719s-12.856 15.097-12.856 24.564 5.756 13.818 12.856 9.719c7.1-4.1 12.856-15.097 12.856-24.564z"/><path d="m302.244 471.355c0-9.467-5.756-13.818-12.856-9.719s-12.856 15.097-12.856 24.564 5.756 13.818 12.856 9.719c7.101-4.1 12.856-15.097 12.856-24.564z"/><path d="m485.231 365.708c0-9.467-5.756-13.818-12.856-9.719s-12.856 15.097-12.856 24.564 5.756 13.818 12.856 9.719c7.1-4.1 12.856-15.097 12.856-24.564z"/></g></g></g><g><path d="m398.32 295.645-.004.009c-4.095-2.34-9.422-2.116-15.251 1.25-12.914 7.456-23.382 27.458-23.382 44.676 0 9.369 3.104 15.974 8.01 18.856l13.597 7.825 30.837-64.673z" fill="url(#SVGID_00000145029803829343457830000008204136507207540137_)"/><path d="m419.889 322.305c0-17.218-10.469-25.133-23.383-17.677s-23.382 27.458-23.382 44.676 10.469 25.132 23.382 17.677c12.914-7.455 23.383-27.458 23.383-44.676z" fill="url(#SVGID_00000012433963361876073210000015604096533608160904_)"/></g><g><path d="m403.244 319.21-.002.004c-2.037-1.164-4.688-1.053-7.588.622-6.426 3.71-11.634 13.662-11.634 22.23 0 4.662 1.544 7.948 3.986 9.382l104.789 60.926 15.344-32.18z" fill="url(#SVGID_00000140006155877799278480000014619293284035404182_)"/><path d="m512 389.508c0-8.567-5.209-12.505-11.635-8.795-6.425 3.71-11.634 13.662-11.634 22.23 0 8.567 5.209 12.505 11.634 8.796 6.426-3.711 11.635-13.664 11.635-22.231z" fill="url(#SVGID_00000171717349633866786280000010839970669926825150_)"/></g><g><path d="m251.739 39.013-62.65-36.272c-2.452-1.359-5.624-1.205-9.091.797l-38.161 22.033c-7.765 4.483-14.059 16.51-14.059 26.863v35.741c0 1.872.635 3.179 1.633 3.717l62.54 36.216z" fill="url(#SVGID_00000144300979309683635980000015991709801818686627_)"/><path d="m242.554 39.763-38.161 22.033c-7.765 4.483-14.059 16.51-14.059 26.863v35.741c0 3.356 2.04 4.899 4.558 3.446l57.165-33.004c2.517-1.453 4.558-5.352 4.558-8.708v-35.742c-.002-10.353-6.296-15.112-14.061-10.629z" fill="url(#SVGID_00000136412799220108549550000011982988673447810987_)"/></g></g></svg>