<svg id="Capa_1" enable-background="new 0 0 512 512" height="512" viewBox="0 0 512 512" width="512" xmlns="http://www.w3.org/2000/svg" xmlns:xlink="http://www.w3.org/1999/xlink"><linearGradient id="lg1"><stop offset="0" stop-color="#ab2c37"/><stop offset=".2054" stop-color="#b6303b"/><stop offset=".5676" stop-color="#d43947"/><stop offset="1" stop-color="#ff4757"/></linearGradient><linearGradient id="SVGID_1_" gradientUnits="userSpaceOnUse" x1="199.877" x2="106.455" xlink:href="#lg1" y1="346.204" y2="698.168"/><linearGradient id="SVGID_2_" gradientUnits="userSpaceOnUse" x1="318.513" x2="402.945" xlink:href="#lg1" y1="339.481" y2="567.991"/><linearGradient id="lg2"><stop offset="0" stop-color="#ff4757"/><stop offset=".3032" stop-color="#ff5261"/><stop offset=".8361" stop-color="#ff707c"/><stop offset="1" stop-color="#ff7a85"/></linearGradient><linearGradient id="SVGID_3_" gradientUnits="userSpaceOnUse" x1="232.15" x2="169.406" xlink:href="#lg2" y1="309.951" y2="541.172"/><linearGradient id="SVGID_4_" gradientUnits="userSpaceOnUse" x1="312.094" x2="389.943" xlink:href="#lg2" y1="250.438" y2="434.02"/><linearGradient id="lg3"><stop offset="0" stop-color="#e37a34"/><stop offset="1" stop-color="#ffc538"/></linearGradient><linearGradient id="SVGID_5_" gradientUnits="userSpaceOnUse" x1="184.917" x2="254.788" xlink:href="#lg3" y1="229.786" y2="108.766"/><linearGradient id="lg4"><stop offset="0" stop-color="#f7e041"/><stop offset="1" stop-color="#fcf3b3"/></linearGradient><linearGradient id="SVGID_6_" gradientUnits="userSpaceOnUse" x1="284.344" x2="284.344" xlink:href="#lg4" y1="281.215" y2="-167.459"/><linearGradient id="lg5"><stop offset="0" stop-color="#fff"/><stop offset="1" stop-color="#fff" stop-opacity="0"/></linearGradient><linearGradient id="SVGID_7_" gradientUnits="userSpaceOnUse" x1="410.27" x2="288.698" xlink:href="#lg5" y1="259.889" y2="189.699"/><linearGradient id="SVGID_8_" gradientUnits="userSpaceOnUse" x1="359.308" x2="157.529" xlink:href="#lg5" y1="226.56" y2="110.062"/><linearGradient id="SVGID_9_" gradientUnits="userSpaceOnUse" x1="284.344" x2="284.344" y1="231.514" y2="-60.851"><stop offset="0" stop-color="#ffc538"/><stop offset="1" stop-color="#f7e041"/></linearGradient><linearGradient id="SVGID_10_" gradientUnits="userSpaceOnUse" x1="255.072" x2="359.065" xlink:href="#lg3" y1="289.5" y2="109.381"/><linearGradient id="SVGID_11_" gradientUnits="userSpaceOnUse" x1="245.739" x2="266.839" xlink:href="#lg3" y1="255.65" y2="219.104"/><linearGradient id="SVGID_12_" gradientUnits="userSpaceOnUse" x1="298.034" x2="298.034" xlink:href="#lg4" y1="243.339" y2="109.237"/><linearGradient id="SVGID_13_" gradientUnits="userSpaceOnUse" x1="374.411" x2="295.157" xlink:href="#lg5" y1="240.88" y2="195.122"/><linearGradient id="SVGID_14_" gradientUnits="userSpaceOnUse" x1="318.49" x2="245.165" xlink:href="#lg5" y1="190.595" y2="148.26"/><linearGradient id="SVGID_15_" gradientUnits="userSpaceOnUse" x1="302.773" x2="351.461" xlink:href="#lg3" y1="142.864" y2="114.754"/><linearGradient id="SVGID_16_" gradientUnits="userSpaceOnUse" x1="243.101" x2="297.097" xlink:href="#lg3" y1="181.289" y2="87.766"/><g><path d="m275.726 247.068-111.519-2.324-64.475 245.301 38.098 21.955 34.503-33 8.579 9.01 38.098 21.955z" fill="url(#SVGID_1_)"/><path d="m317.743 181.69-81.181 91.705 56.473 149.484 38.052 22.076z" fill="url(#SVGID_2_)"/><path d="m194.545 296.937 81.181-2.035-56.715 215.063-31.742-32.576-49.439 34.611z" fill="url(#SVGID_3_)"/><path d="m355.795 203.766-81.181 91.705 56.473 149.484 31.742-69.228 49.439-22.477z" fill="url(#SVGID_4_)"/><g><path d="m355.009 32.512-43.953-25.358c-19.018-10.836-43.76-9.741-70.815 5.88-60 34.641-108.64 127.576-108.64 207.576 0 42.173 13.521 72.325 35.094 86.342l-.003.007 48.397 27.963c18.801 9.91 139.92-302.41 139.92-302.41z" fill="url(#SVGID_5_)"/><path d="m392.984 120.608c0-80-48.64-116.771-108.64-82.13s-108.64 127.576-108.64 207.576 48.64 116.771 108.64 82.13 108.64-127.576 108.64-207.576z" fill="url(#SVGID_6_)"/><path d="m392.984 120.608c0-25.208-4.833-46.118-13.325-61.86l-147.48 281.787c15.484 2.384 33.259-1.435 52.165-12.351 7.942-4.586 15.683-10.202 23.141-16.665l83.02-158.626c1.619-10.877 2.479-21.695 2.479-32.285z" fill="url(#SVGID_7_)"/><path d="m284.344 38.478c-4.798 2.77-9.522 5.917-14.155 9.396l-93.567 178.777c-.603 6.526-.918 13.006-.918 19.403 0 42.036 13.434 72.127 34.885 86.203l153.513-293.314c-19.845-17.143-48.231-18.667-79.758-.465z" fill="url(#SVGID_8_)"/><path d="m370.782 133.426c0-63.651-38.7-92.908-86.438-65.346s-86.438 101.505-86.438 165.156 38.7 92.908 86.438 65.346c47.739-27.561 86.438-101.504 86.438-165.156z" fill="url(#SVGID_9_)"/><path d="m331.804 59.6c13.523 12.532 21.739 34.546 21.739 63.865 0 63.651-38.7 137.595-86.438 165.156-17.53 10.121-33.837 12.571-47.46 8.48 15.836 14.675 38.95 16.347 64.699 1.481 47.739-27.562 86.438-101.505 86.438-165.156.001-40.279-15.5-66.775-38.978-73.826z" fill="url(#SVGID_10_)"/><g><path d="m349.754 148.508c3.066-5.755 2.679-11.66.006-13.616l.001-.001-.014-.008c-.206-.149-.424-.279-.657-.38l-27.969-16.16c-.05-.031-.101-.06-.152-.088l-.032-.019-.001.001c-.954-.515-2.149-.584-3.547-.048l-11.064 4.244-1.903-4.042c-.487-1.035-1.146-1.724-1.912-2.107l-28.265-16.317-.001.006c-3.329-1.883-8.855 2.315-11.014 9.393l-11.132 36.502c-1.037 3.402-3.043 6.502-5.362 8.291l-24.892 19.194c-5.841 4.505-8.174 15.423-3.947 18.476l18.012 13.01c1.679 1.213 2.444 3.913 2.048 7.223l-4.252 35.51c-.47 3.929.639 6.535 2.489 7.494v.001l28.218 16.286.003-.004c2.078 1.251 5.191.313 8.043-3.333l22.264-28.461c2.075-2.652 4.553-4.083 6.628-3.826l22.264 2.752c5.225.646 11.331-8.795 10.333-15.976l-4.252-30.6c-.396-2.852.37-6.437 2.048-9.588z" fill="url(#SVGID_11_)"/><path d="m304.42 118.392 11.132 23.648c1.037 2.204 3.043 2.989 5.362 2.099l24.892-9.549c5.841-2.241 8.174 5.984 3.947 13.918l-18.012 33.81c-1.678 3.151-2.444 6.736-2.048 9.588l4.252 30.6c.998 7.181-5.109 16.622-10.333 15.976l-22.264-2.752c-2.075-.256-4.553 1.175-6.628 3.827l-22.264 28.461c-5.225 6.679-11.331 4.289-10.334-4.044l4.252-35.51c.396-3.309-.37-6.01-2.048-7.222l-18.012-13.011c-4.227-3.053-1.895-13.971 3.947-18.476l24.892-19.194c2.319-1.789 4.325-4.889 5.362-8.29l11.132-36.502c2.613-8.569 10.161-12.926 12.773-7.377z" fill="url(#SVGID_12_)"/><path d="m333.945 222.505-4.252-30.6c-.396-2.852.37-6.437 2.048-9.587l18.012-33.81c4.227-7.934 1.894-16.159-3.947-13.918l-7.309 2.804-70.15 134.034c1.336-.566 2.751-1.676 4.108-3.411l22.264-28.461c2.075-2.652 4.553-4.083 6.628-3.827l22.264 2.752c5.226.646 11.332-8.795 10.334-15.976z" fill="url(#SVGID_13_)"/><path d="m304.42 118.392c-2.612-5.55-10.16-1.192-12.773 7.374l-11.132 36.502c-1.038 3.401-3.043 6.502-5.362 8.29l-24.892 19.195c-5.841 4.504-8.174 15.422-3.947 18.476l18.012 13.01c1.162.839 1.873 2.401 2.078 4.374l46.587-89.013z" fill="url(#SVGID_14_)"/><path d="m315.552 142.04c1.037 2.204 3.043 2.989 5.362 2.099l24.892-9.549c1.271-.488 2.376-.479 3.283-.086l-27.969-16.16c-.05-.031-.101-.06-.152-.088l-.032-.019-.001.001c-.954-.515-2.149-.584-3.547-.048l-11.064 4.244z" fill="url(#SVGID_15_)"/><path d="m250.261 189.753 24.892-19.194c2.319-1.789 4.325-4.889 5.362-8.291l11.132-36.502c2.126-6.969 7.517-11.152 10.861-9.481l-28.265-16.317-.001.006c-3.329-1.883-8.855 2.315-11.014 9.393l-11.132 36.502c-1.037 3.402-3.043 6.502-5.362 8.291l-24.892 19.194c-5.841 4.505-8.174 15.423-3.947 18.476l28.419 16.399c-4.227-3.054-1.895-13.971 3.947-18.476z" fill="url(#SVGID_16_)"/></g></g></g></svg>