<svg id="Capa_1" enable-background="new 0 0 512 512" height="512" viewBox="0 0 512 512" width="512" xmlns="http://www.w3.org/2000/svg" xmlns:xlink="http://www.w3.org/1999/xlink"><linearGradient id="SVGID_1_" gradientUnits="userSpaceOnUse" x1="201.865" x2="181.02" y1="170.15" y2="198.994"><stop offset="0" stop-color="#c62834"/><stop offset="1" stop-color="#ff4557"/></linearGradient><linearGradient id="lg1"><stop offset="0" stop-color="#45356d"/><stop offset=".2699" stop-color="#544081"/><stop offset="1" stop-color="#7e62c0"/></linearGradient><linearGradient id="SVGID_2_" gradientUnits="userSpaceOnUse" x1="196.044" x2="355.268" xlink:href="#lg1" y1="433.329" y2="433.329"/><linearGradient id="lg2"><stop offset="0" stop-color="#45356d"/><stop offset=".3855" stop-color="#544081"/><stop offset="1" stop-color="#7e62c0"/></linearGradient><linearGradient id="SVGID_3_" gradientUnits="userSpaceOnUse" x1="180.633" x2="390.471" xlink:href="#lg2" y1="336.244" y2="472.598"/><linearGradient id="SVGID_4_" gradientUnits="userSpaceOnUse" x1="252.764" x2="327.822" xlink:href="#lg2" y1="349.693" y2="349.693"/><linearGradient id="SVGID_5_" gradientUnits="userSpaceOnUse" x1="232.786" x2="323.545" xlink:href="#lg1" y1="191.869" y2="191.869"/><linearGradient id="SVGID_6_" gradientUnits="userSpaceOnUse" x1="304.435" x2="157.467" xlink:href="#lg2" y1="208.013" y2=".625"/><linearGradient id="lg3"><stop offset="0" stop-color="#c9baec"/><stop offset=".3117" stop-color="#ccbeed"/><stop offset=".6254" stop-color="#d5caef"/><stop offset=".9391" stop-color="#e4def2"/><stop offset="1" stop-color="#e8e3f3"/></linearGradient><linearGradient id="SVGID_7_" gradientTransform="matrix(-1 0 0 1 512 0)" gradientUnits="userSpaceOnUse" x1="323.909" x2="281.236" xlink:href="#lg3" y1="39.587" y2="64.224"/><linearGradient id="SVGID_8_" gradientTransform="matrix(-1 0 0 1 512 0)" gradientUnits="userSpaceOnUse" x1="291.452" x2="317.297" xlink:href="#lg2" y1="49.33" y2="49.33"/><linearGradient id="SVGID_9_" gradientTransform="matrix(-1 0 0 1 512 0)" gradientUnits="userSpaceOnUse" x1="312.623" x2="269.949" xlink:href="#lg3" y1="84.509" y2="109.147"/><linearGradient id="SVGID_10_" gradientTransform="matrix(-1 0 0 1 512 0)" gradientUnits="userSpaceOnUse" x1="280.165" x2="306.01" xlink:href="#lg2" y1="94.252" y2="94.252"/><linearGradient id="SVGID_11_" gradientTransform="matrix(-1 0 0 1 512 0)" gradientUnits="userSpaceOnUse" x1="271.093" x2="228.419" xlink:href="#lg3" y1="60.638" y2="85.276"/><linearGradient id="SVGID_12_" gradientTransform="matrix(-1 0 0 1 512 0)" gradientUnits="userSpaceOnUse" x1="238.635" x2="264.48" xlink:href="#lg2" y1="70.381" y2="70.381"/><linearGradient id="SVGID_13_" gradientTransform="matrix(-1 0 0 1 512 0)" gradientUnits="userSpaceOnUse" x1="259.45" x2="216.777" xlink:href="#lg3" y1="103.792" y2="128.429"/><linearGradient id="SVGID_14_" gradientTransform="matrix(-1 0 0 1 512 0)" gradientUnits="userSpaceOnUse" x1="226.993" x2="252.838" xlink:href="#lg2" y1="113.534" y2="113.534"/><linearGradient id="SVGID_15_" gradientUnits="userSpaceOnUse" x1="276.392" x2="186.034" xlink:href="#lg1" y1="276.133" y2="230.41"/><g><path d="m171.12 137.921s8.834 23.502 9.334 39.837-2.834 18.335-2.834 21.502 40.992 22.488 40.992 22.488 1.178-40.165-17.157-60.245c-18.334-20.082-30.335-23.582-30.335-23.582z" fill="url(#SVGID_1_)"/><path d="m401.714 427.285.004.001-2.913-8.53c-3.405-9.969-8.215-19.401-14.285-28.011-5.784-8.204-12.658-15.583-20.431-21.935l-4.815-3.934-179.481-10.218-7.842 7.616c-12.509 12.15-22.287 26.808-28.706 42.995-12.257 26.117 2.227 57.295 41.804 80.145 55.663 32.137 139.864 35.627 188.069 7.796 29.508-17.036 38.682-41.86 28.596-65.925z" fill="url(#SVGID_2_)"/><path d="m200.601 437.245c-45.745-26.411-50.713-66.362-11.097-89.235 39.616-22.872 108.814-20.004 154.559 6.407s50.713 66.362 11.097 89.234c-39.617 22.873-108.815 20.004-154.559-6.406z" fill="url(#SVGID_3_)"/><ellipse cx="272.332" cy="375.32" fill="#45356d" rx="27.205" ry="48.087" transform="matrix(.121 -.993 .993 .121 -133.179 600.243)"/><path d="m309.86 304.595h-75.039v64.737c-.346 6.207 4.042 12.838 12.938 17.974 15.671 9.047 39.376 10.03 52.947 2.195 6.047-3.491 9.053-8.144 9.151-13.03h.003z" fill="url(#SVGID_4_)"/><path d="m327.681 141.252-221.337-89.832v35.522c0 8.585 4.58 16.517 12.014 20.81 23.442 13.534 43.925 31.64 60.234 53.244l11.117 14.725c17.718 23.469 27.303 52.074 27.303 81.481v37.582c-.506 9.151 5.966 18.926 19.081 26.498 23.11 13.343 58.068 14.792 78.082 3.237 9.231-5.329 13.659-12.495 13.495-19.978l.009.001v-163.29z" fill="url(#SVGID_5_)"/><path d="m181.891 3.224-71.652 41.368c-5.216 3.012-5.168 10.558.087 13.502l33.601 18.825c35.868 20.096 58.531 43.922 73.195 73.63 7.387 14.964 19.164 27.444 33.824 35.418 11.469 6.239 32.667 4.929 46.98-3.08l8.383-4.84c17.351-10.018 25.417-30.743 19.403-49.854-14.203-45.132-45.096-83.141-86.373-106.268l-33.65-18.854c-7.405-4.149-16.448-4.09-23.798.153z" fill="url(#SVGID_6_)"/><g><path d="m192.334 52.391c-4.434-8.168-1.31-15.546 6.978-16.479s18.601 4.932 23.035 13.1 1.31 15.546-6.978 16.479c-8.287.933-18.601-4.932-23.035-13.1z" fill="url(#SVGID_7_)"/><path d="m196.12 50.909c-3.246-6.273-.727-12.065 5.627-12.937s14.137 3.506 17.383 9.779.727 12.065-5.627 12.937c-6.353.872-14.136-3.507-17.383-9.779z" fill="url(#SVGID_8_)"/><path d="m203.621 97.313c-4.434-8.168-1.31-15.546 6.978-16.479s18.601 4.932 23.035 13.1 1.31 15.546-6.978 16.479c-8.287.933-18.601-4.932-23.035-13.1z" fill="url(#SVGID_9_)"/><path d="m207.408 95.831c-3.246-6.273-.727-12.065 5.627-12.937s14.137 3.506 17.383 9.779.727 12.065-5.627 12.937c-6.355.872-14.137-3.506-17.383-9.779z" fill="url(#SVGID_10_)"/><path d="m245.151 73.442c-4.434-8.168-1.31-15.546 6.978-16.479s18.601 4.932 23.035 13.1 1.31 15.546-6.978 16.479c-8.287.933-18.601-4.932-23.035-13.1z" fill="url(#SVGID_11_)"/><path d="m248.938 71.96c-3.246-6.273-.727-12.065 5.627-12.937s14.137 3.506 17.383 9.779.727 12.065-5.627 12.937c-6.355.872-14.137-3.506-17.383-9.779z" fill="url(#SVGID_12_)"/><path d="m256.794 116.596c-4.434-8.168-1.31-15.546 6.978-16.479s18.601 4.932 23.035 13.1 1.31 15.546-6.978 16.479-18.601-4.932-23.035-13.1z" fill="url(#SVGID_13_)"/><path d="m260.58 115.113c-3.246-6.273-.727-12.065 5.627-12.937s14.137 3.506 17.383 9.779.727 12.065-5.627 12.937-14.137-3.506-17.383-9.779z" fill="url(#SVGID_14_)"/></g><path d="m178.592 160.995 11.117 14.725c17.718 23.469 27.303 52.074 27.303 81.481v37.582c-.506 9.151 5.966 18.926 19.081 26.498 1.623.937 3.31 1.809 5.041 2.629.232-23.649-.699-85.991-16.105-109.919-19.187-29.802-46.437-52.996-46.437-52.996z" fill="url(#SVGID_15_)"/></g></svg>