<svg id="Capa_1" enable-background="new 0 0 512 512" height="512" viewBox="0 0 512 512" width="512" xmlns="http://www.w3.org/2000/svg" xmlns:xlink="http://www.w3.org/1999/xlink"><linearGradient id="SVGID_1_" gradientUnits="userSpaceOnUse" x1="406.972" x2="428.788" y1="149.475" y2="111.688"><stop offset="0" stop-color="#ab2c37"/><stop offset="1" stop-color="#ff4757"/></linearGradient><linearGradient id="SVGID_00000071541915129548244630000007261106002390219452_" gradientUnits="userSpaceOnUse" x1="423.411" x2="423.411" y1="198.465" y2="143.782"><stop offset="0" stop-color="#ff4757"/><stop offset="1" stop-color="#ff7a85"/></linearGradient><linearGradient id="SVGID_00000156571689155615824670000016973764372014769811_" gradientUnits="userSpaceOnUse" x1="243.198" x2="243.198" y1="370.569" y2="40.254"><stop offset="0" stop-color="#c5baeb"/><stop offset="1" stop-color="#f2effa"/></linearGradient><linearGradient id="lg1"><stop offset="0" stop-color="#a996eb"/><stop offset="1" stop-color="#a996eb" stop-opacity="0"/></linearGradient><linearGradient id="SVGID_00000103260521114931116550000003748994488836644748_" gradientUnits="userSpaceOnUse" x1="220.476" x2="215.352" xlink:href="#lg1" y1="176.761" y2="185.636"/><linearGradient id="SVGID_00000090285639092568956700000007547108842068283295_" gradientUnits="userSpaceOnUse" x1="283.353" x2="304.385" xlink:href="#lg1" y1="142.742" y2="106.313"/><linearGradient id="SVGID_00000182486560635799144900000018429864361312003252_" gradientUnits="userSpaceOnUse" x1="231.401" x2="239.042" xlink:href="#lg1" y1="151.2" y2="137.967"/><linearGradient id="SVGID_00000062176457736618670790000004038531994797489834_" gradientUnits="userSpaceOnUse" x1="230.439" x2="230.439" xlink:href="#lg1" y1="347.662" y2="375.03"/><linearGradient id="SVGID_00000018929299942496794970000013086292302286495905_" gradientUnits="userSpaceOnUse" x1="160.77" x2="168.346" xlink:href="#lg1" y1="290.164" y2="277.042"/><linearGradient id="SVGID_00000137096106255131585510000018348451186443018131_" gradientUnits="userSpaceOnUse" x1="176.162" x2="182.003" xlink:href="#lg1" y1="231.401" y2="221.285"/><linearGradient id="SVGID_00000164489062690377699910000001660786859930930572_" gradientUnits="userSpaceOnUse" x1="202.611" x2="173.324" xlink:href="#lg1" y1="321.237" y2="370.207"/><linearGradient id="SVGID_00000042694613978078979500000012874573208047501200_" gradientTransform="matrix(.866 -.5 0 1.155 33.636 379.235)" gradientUnits="userSpaceOnUse" x1="259.829" x2="259.829" y1="125.614" y2="-126.974"><stop offset="0" stop-color="#d7d1eb"/><stop offset="1" stop-color="#f2effa"/></linearGradient><linearGradient id="SVGID_00000149371799823968182240000002467993557575239301_" gradientUnits="userSpaceOnUse" x1="185.802" x2="178.984" xlink:href="#lg1" y1="243.189" y2="254.998"/><linearGradient id="lg2"><stop offset="0" stop-color="#221c36"/><stop offset="1" stop-color="#43386b"/></linearGradient><linearGradient id="SVGID_00000134232363588227942450000012260562667198714760_" gradientUnits="userSpaceOnUse" x1="216.47" x2="216.47" xlink:href="#lg2" y1="325.529" y2="230.666"/><linearGradient id="SVGID_00000060019137103336138910000002747301786822947732_" gradientUnits="userSpaceOnUse" x1="294.091" x2="294.091" xlink:href="#lg2" y1="291.758" y2="196.923"/><linearGradient id="SVGID_00000073718111179682003030000004285233414498049943_" gradientUnits="userSpaceOnUse" x1="256.496" x2="256.496" xlink:href="#lg2" y1="314.984" y2="208.644"/><linearGradient id="lg3"><stop offset="0" stop-color="#43386b"/><stop offset="1" stop-color="#594a8e"/></linearGradient><linearGradient id="SVGID_00000073687532272636435440000010486561872513001620_" gradientTransform="matrix(.866 -.5 0 1.155 291.343 1246.411)" gradientUnits="userSpaceOnUse" x1="-79.122" x2="-79.122" xlink:href="#lg3" y1="-826.656" y2="-902.121"/><linearGradient id="SVGID_00000134217638317859313340000015240794063564245668_" gradientTransform="matrix(.866 -.5 0 1.155 291.343 1246.411)" gradientUnits="userSpaceOnUse" x1="15.118" x2="15.118" xlink:href="#lg3" y1="-826.656" y2="-902.12"/><linearGradient id="SVGID_00000155838501762942637880000002098449692013614774_" gradientTransform="matrix(.866 -.5 0 1.155 291.343 1246.411)" gradientUnits="userSpaceOnUse" x1="-32.915" x2="-32.915" xlink:href="#lg3" y1="-826.656" y2="-902.12"/><linearGradient id="SVGID_00000087391124301950713340000003683038563329620379_" gradientUnits="userSpaceOnUse" x1="84.46" x2="106.276" y1="331.546" y2="293.76"><stop offset="0" stop-color="#236568"/><stop offset="1" stop-color="#2f878a"/></linearGradient><linearGradient id="SVGID_00000155867862487116710400000013555604533179077778_" gradientUnits="userSpaceOnUse" x1="100.899" x2="100.899" y1="380.536" y2="325.853"><stop offset="0" stop-color="#2f878a"/><stop offset="1" stop-color="#06daae"/></linearGradient><linearGradient id="SVGID_00000053508494302302833690000014537888499427573643_" gradientUnits="userSpaceOnUse" x1="230.317" x2="236.843" y1="53.57" y2="42.266"><stop offset="0" stop-color="#0072bc"/><stop offset="1" stop-color="#0197f8"/></linearGradient><linearGradient id="SVGID_00000165936519452603755640000016485901293313982899_" gradientTransform="matrix(.866 -.5 0 1.155 290.687 1436.309)" gradientUnits="userSpaceOnUse" x1="-42.298" x2="-42.298" y1="-1191.25" y2="-1240.933"><stop offset="0" stop-color="#2f97f7"/><stop offset="1" stop-color="#79d3fe"/></linearGradient><linearGradient id="SVGID_00000144330480033526929980000012077253316765124767_" gradientUnits="userSpaceOnUse" x1="228.936" x2="236.593" y1="477.684" y2="464.423"><stop offset="0" stop-color="#e37a34"/><stop offset="1" stop-color="#ffa538"/></linearGradient><linearGradient id="SVGID_00000049197512372210036630000012505056930230171036_" gradientTransform="matrix(.866 -.5 0 1.155 290.687 1436.309)" gradientUnits="userSpaceOnUse" x1="-42.298" x2="-42.298" y1="-826.027" y2="-875.71"><stop offset="0" stop-color="#ffc538"/><stop offset="1" stop-color="#f7e041"/></linearGradient><g><g><path d="m193.571 496.615c-4.852 0-9.611-.358-14.252-1.073-54.587-8.42-88.497-64.526-88.497-146.424 0-15.931 1.275-32.56 3.79-49.422 2.211-14.821 5.404-29.99 9.491-45.085 12.599-46.538 33.363-91.905 60.043-131.197 13.931-20.516 29.134-38.83 45.188-54.431 15.288-14.858 31.22-27.115 47.353-36.428 39.316-22.702 77.781-26.335 108.306-10.229 1.916 1.011 2.651 3.384 1.639 5.3-1.011 1.917-3.385 2.65-5.3 1.639-28.054-14.801-63.825-11.222-100.723 10.082-15.572 8.99-30.984 20.853-45.808 35.261-15.672 15.231-30.531 33.134-44.164 53.212-26.197 38.581-46.586 83.132-58.961 128.84-4.007 14.803-7.138 29.671-9.304 44.192-2.458 16.481-3.704 32.72-3.704 48.265 0 77.747 31.362 130.882 81.848 138.669 9.678 1.492 19.957 1.282 30.556-.626 14.701-2.647 30.049-8.546 45.614-17.533 89.295-51.555 161.942-190.517 161.942-309.769 0-14.587-1.099-28.52-3.266-41.41-.359-2.137 1.082-4.16 3.218-4.519s4.161 1.082 4.519 3.218c2.239 13.319 3.375 27.689 3.375 42.711 0 121.751-74.407 263.761-165.865 316.565-16.353 9.441-32.551 15.651-48.147 18.46-6.41 1.154-12.725 1.732-18.891 1.732z" fill="#43386b"/></g><g><path d="m246.202 445.402c-2.167 0-3.923-1.756-3.923-3.923v-76.63c0-2.167 1.756-3.923 3.923-3.923s3.923 1.756 3.923 3.923v76.63c0 2.167-1.756 3.923-3.923 3.923z" fill="#43386b"/></g><g><path d="m425.071 114.515-.004.008c-3.75-2.143-8.628-1.937-13.966 1.145-11.826 6.828-21.413 25.145-21.413 40.912 0 8.579 2.842 14.628 7.335 17.268l12.451 7.165 28.239-59.225z" fill="url(#SVGID_1_)"/><path d="m444.823 138.928c0-15.768-9.587-23.015-21.412-16.188-11.826 6.828-21.413 25.145-21.413 40.913s9.587 23.015 21.413 16.188c11.825-6.828 21.412-25.145 21.412-40.913z" fill="url(#SVGID_00000071541915129548244630000007261106002390219452_)"/></g><g><path d="m343.69 200.513c-1.356 0-2.675-.703-3.401-1.962-1.083-1.876-.441-4.276 1.436-5.359l51.51-29.739c1.877-1.087 4.275-.441 5.359 1.436s.441 4.276-1.436 5.359l-51.51 29.739c-.618.357-1.293.526-1.958.526z" fill="#43386b"/></g><g><path d="m244.39 379.046 101.593-193.886-28.598-16.407-2.683-40.051-29.373-17.001-.001.002c-1.851-1.057-4.518.096-6.679 2.949l-9.759 12.878-25.402-14.673c-1.059-.697-2.468-.665-3.986.212l-19.814 11.439c-2.621 1.513-4.924 5.161-5.642 8.937l-6.469 34.028c-2.187 2.295-4.323 4.707-6.397 7.227l-20.639-3.406c-2.29-.378-5.148 1.804-7.002 5.346l-14.01 26.769c-1.853 3.541-2.252 7.583-.977 9.9l11.491 20.885c-.992 3.339-1.875 6.696-2.65 10.06l-22.72 21.742c-2.521 2.413-4.26 6.487-4.26 9.982v26.418c0 2.284.746 3.952 1.964 4.699l-.001.002.077.044c.045.026.088.055.134.078l23.761 13.727-7.798 23.175c-1.275 3.79-.876 7.37.977 8.771l43.734 27.759 13.084-17.795z" fill="url(#SVGID_00000156571689155615824670000016973764372014769811_)"/><path d="m201.18 174.7 29.052 16.79 6.398-7.226-29.052-16.79z" fill="url(#SVGID_00000103260521114931116550000003748994488836644748_)"/><path d="m279.156 161.65h12.899l22.649-32.948-29.373-17.001-.001.002c-1.851-1.057-4.518.096-6.679 2.949l-9.759 12.878 3.569 2.06z" fill="url(#SVGID_00000090285639092568956700000007547108842068283295_)"/><path d="m239.502 113.069-19.814 11.439c-2.621 1.513-4.924 5.161-5.642 8.937l-6.469 34.028 29.052 16.79 35.83-54.674-3.569-2.06-25.402-14.673c-1.058-.696-2.468-.664-3.986.213z" fill="url(#SVGID_00000182486560635799144900000018429864361312003252_)"/><path d="m216.346 362.855 14.27-17.229 13.917 1.283-.143 32.137z" fill="url(#SVGID_00000062176457736618670790000004038531994797489834_)"/><path d="m171.801 324.077 24.645-63.033-29.052-16.79-22.72 21.742c-2.521 2.413-4.26 6.487-4.26 9.982v26.418c0 2.284.746 3.952 1.964 4.699l-.001.002.077.044c.045.026.088.055.134.078l23.761 13.727z" fill="url(#SVGID_00000018929299942496794970000013086292302286495905_)"/><path d="m158.552 213.309 11.491 20.885 29.052 16.79 3.496-57.554-29.052-16.79-14.01 26.769c-1.854 3.542-2.253 7.583-.977 9.9z" fill="url(#SVGID_00000137096106255131585510000018348451186443018131_)"/><path d="m201.17 313.167-29.369 10.91-5.452-3.131-7.798 23.175c-1.275 3.79-.876 7.37.977 8.771l43.734 27.759 1.351-1.837z" fill="url(#SVGID_00000164489062690377699910000001660786859930930572_)"/><path d="m343.569 184.726-22.72 4.493c-.774-2.47-1.658-4.807-2.65-7l11.491-34.154c1.275-3.79.876-7.37-.977-8.771l-14.01-10.592c-1.853-1.401-4.712-.283-7.002 2.739l-20.639 27.238c-2.074-.125-4.21-.07-6.397.16l-6.469-26.559c-.718-2.947-3.021-3.936-5.642-2.422l-19.814 11.439c-2.621 1.513-4.924 5.161-5.642 8.937l-6.469 34.028c-2.187 2.295-4.323 4.707-6.397 7.227l-20.639-3.406c-2.29-.378-5.148 1.804-7.002 5.346l-14.01 26.769c-1.854 3.541-2.252 7.582-.977 9.9l11.492 20.885c-.992 3.339-1.876 6.696-2.65 10.06l-22.72 21.742c-2.521 2.413-4.26 6.487-4.26 9.982v26.418c0 3.495 1.739 5.562 4.26 5.063l22.72-4.493c.774 2.47 1.658 4.806 2.65 7l-11.492 34.154c-1.275 3.79-.876 7.37.977 8.771l14.01 10.591c1.853 1.401 4.711.283 7.002-2.739l20.639-27.238c2.075.125 4.21.07 6.397-.16l6.469 26.559c.718 2.947 3.021 3.936 5.642 2.422l19.814-11.439c2.621-1.513 4.924-5.161 5.642-8.937l6.469-34.028c2.187-2.295 4.323-4.707 6.397-7.227l20.639 3.406c2.29.378 5.148-1.804 7.002-5.346l14.01-26.769c1.853-3.541 2.252-7.582.977-9.9l-11.491-20.885c.992-3.339 1.875-6.696 2.65-10.06l22.72-21.742c2.521-2.413 4.26-6.487 4.26-9.982v-26.416c0-3.495-1.739-5.562-4.26-5.064z" fill="url(#SVGID_00000042694613978078979500000012874573208047501200_)"/><path d="m199.095 250.984-2.65 10.06-29.052-16.79 2.65-10.06z" fill="url(#SVGID_00000149371799823968182240000002467993557575239301_)"/></g><g><path d="m218.152 286.685 21.112-47.733-10.039-5.79c-2.862-1.976-7.385.685-10.193 6.051l-23.217 44.36c-2.853 5.451-2.853 11.618 0 13.775l23.646 17.839 10.336 5.983z" fill="url(#SVGID_00000134232363588227942450000012260562667198714760_)"/><path d="m312.895 231.747-15.302-26.589-10.344-5.988v.001c-2.869-1.476-7.109 1.19-9.786 6.306-2.853 5.451-2.853 11.618 0 13.774l18.051 13.647-18.087 34.56c-2.853 5.451-2.853 11.618 0 13.775.099.075 10.592 6.167 10.592 6.167z" fill="url(#SVGID_00000060019137103336138910000002747301786822947732_)"/><path d="m266.827 211.248s-1.338-.573-2.153-.538c-3.743.157-7.998 5.034-9.501 10.895l-18.66 72.734c-1.172 4.567-.321 8.37 1.881 9.758l10.338 6.005 28.274-92.959z" fill="url(#SVGID_00000073718111179682003030000004285233414498049943_)"/></g><g><g><path d="m234.451 320.715c-1.87 1.079-3.739 1.208-5.165.129l-23.253-17.579c-2.853-2.156-2.853-8.324 0-13.775l23.217-44.36c2.852-5.45 7.478-8.121 10.331-5.964 2.853 2.156 2.853 8.324 0 13.775l-18.051 34.49 18.087 13.674c2.853 2.156 2.853 8.324 0 13.775-1.428 2.725-3.297 4.755-5.166 5.835z" fill="url(#SVGID_00000073687532272636435440000010486561872513001620_)"/></g><g><path d="m292.809 287.021c-1.87 1.079-3.739 1.208-5.165.129-2.853-2.157-2.853-8.324 0-13.775l18.087-34.56-18.051-13.645c-2.853-2.157-2.853-8.324 0-13.775 2.852-5.451 7.478-8.121 10.331-5.964l23.217 17.552c2.853 2.157 2.853 8.324 0 13.775l-23.253 44.43c-1.427 2.724-3.296 4.754-5.166 5.833z" fill="url(#SVGID_00000134217638317859313340000015240794063564245668_)"/></g><g><path d="m253.506 309.716c-.906.523-1.827.829-2.72.866-3.744.157-5.56-4.466-4.057-10.326l18.66-72.734c1.503-5.86 5.758-10.738 9.501-10.895 3.744-.157 5.56 4.466 4.057 10.326l-18.661 72.734c-1.144 4.463-3.885 8.357-6.78 10.029z" fill="url(#SVGID_00000155838501762942637880000002098449692013614774_)"/></g></g><g><path d="m244.533 128.615c-2.167 0-3.923-1.756-3.923-3.923v-62.62c0-2.167 1.756-3.923 3.923-3.923s3.923 1.756 3.923 3.923v62.62c0 2.167-1.756 3.923-3.923 3.923z" fill="#43386b"/></g><g><path d="m94.875 337.985c-1.357 0-2.676-.704-3.402-1.964-1.083-1.877-.438-4.276 1.438-5.358l58.595-33.787c1.881-1.083 4.276-.438 5.358 1.438 1.083 1.877.438 4.277-1.438 5.358l-58.595 33.787c-.617.356-1.291.526-1.956.526z" fill="#43386b"/></g><g><path d="m102.559 296.586-.004.008c-3.75-2.143-8.628-1.937-13.966 1.145-11.826 6.828-21.412 25.145-21.412 40.913 0 8.579 2.842 14.628 7.335 17.268l12.452 7.165 28.239-59.225z" fill="url(#SVGID_00000087391124301950713340000003683038563329620379_)"/><path d="m122.311 321c0-15.768-9.587-23.015-21.413-16.188s-21.412 25.145-21.412 40.913 9.587 23.015 21.412 16.188c11.826-6.828 21.413-25.145 21.413-40.913z" fill="url(#SVGID_00000155867862487116710400000013555604533179077778_)"/></g><g><path d="m286.586 7.585-12.362-7.098c-1.356-.747-3.106-.662-5.021.443l-54.422 31.42c-4.297 2.482-7.781 9.138-7.781 14.868v29.319c0 3.101 1.026 5.285 2.644 6.252l11.968 6.877z" fill="url(#SVGID_00000053508494302302833690000014537888499427573643_)"/><path d="m281.268 7.853-54.422 31.42c-4.298 2.481-7.781 9.138-7.781 14.868v29.319c0 5.73 3.484 8.364 7.781 5.883l54.422-31.42c4.298-2.481 7.781-9.138 7.781-14.868v-29.319c0-5.73-3.484-8.364-7.781-5.883z" fill="url(#SVGID_00000165936519452603755640000016485901293313982899_)"/></g><g><path d="m419.226 121.722c-1.881 0-3.542-1.357-3.864-3.273-7.217-42.937-26.406-74.609-54.03-89.183-1.916-1.011-2.65-3.384-1.639-5.3 1.01-1.917 3.385-2.65 5.3-1.639 29.839 15.741 50.475 49.416 58.106 94.821.359 2.137-1.082 4.16-3.218 4.519-.22.037-.439.055-.655.055z" fill="#43386b"/></g><g><path d="m286.586 429.308-12.362-7.098c-1.356-.747-3.106-.662-5.021.443l-54.422 31.42c-4.297 2.481-7.781 9.138-7.781 14.868v29.319c0 3.102 1.026 5.285 2.644 6.252l11.968 6.877z" fill="url(#SVGID_00000144330480033526929980000012077253316765124767_)"/><path d="m281.268 429.576-54.422 31.42c-4.298 2.481-7.781 9.138-7.781 14.868v29.319c0 5.73 3.484 8.364 7.781 5.883l54.422-31.42c4.298-2.481 7.781-9.138 7.781-14.868v-29.319c0-5.73-3.484-8.364-7.781-5.883z" fill="url(#SVGID_00000049197512372210036630000012505056930230171036_)"/></g><g><path d="m167.386 129.54c-.759 0-1.525-.22-2.2-.678-1.793-1.217-2.259-3.657-1.042-5.449 13.931-20.516 29.134-38.83 45.188-54.431 1.555-1.51 4.037-1.474 5.548.08 1.509 1.554 1.474 4.037-.08 5.548-15.672 15.231-30.531 33.134-44.164 53.212-.758 1.116-1.993 1.718-3.25 1.718z" fill="#43386b"/></g><g><path d="m98.496 304.198c-.192 0-.387-.015-.583-.044-2.143-.319-3.621-2.316-3.302-4.459 2.211-14.821 5.404-29.99 9.491-45.085.565-2.091 2.722-3.325 4.812-2.762 2.091.566 3.328 2.72 2.762 4.812-4.007 14.803-7.138 29.671-9.304 44.192-.291 1.947-1.965 3.346-3.876 3.346z" fill="#43386b"/></g><g><path d="m193.571 496.615c-4.852 0-9.611-.358-14.252-1.073-2.141-.33-3.609-2.334-3.279-4.476.33-2.141 2.329-3.61 4.476-3.279 9.677 1.493 19.959 1.282 30.556-.626 2.127-.387 4.172 1.033 4.556 3.166.384 2.132-1.034 4.172-3.166 4.556-6.41 1.154-12.725 1.732-18.891 1.732z" fill="#43386b"/></g></g></svg>