<svg id="Capa_1" enable-background="new 0 0 512 512" height="512" viewBox="0 0 512 512" width="512" xmlns="http://www.w3.org/2000/svg" xmlns:xlink="http://www.w3.org/1999/xlink"><linearGradient id="SVGID_1_" gradientUnits="userSpaceOnUse" x1="262.519" x2="355.171" y1="279.22" y2="279.22"><stop offset="0" stop-color="#802129"/><stop offset="1" stop-color="#ff4757"/></linearGradient><linearGradient id="SVGID_2_" gradientUnits="userSpaceOnUse" x1="287.176" x2="464.755" y1="191.515" y2="191.515"><stop offset="0" stop-color="#ab2c37"/><stop offset=".0732" stop-color="#b3343f"/><stop offset=".4827" stop-color="#dc5a65"/><stop offset=".8056" stop-color="#f6717c"/><stop offset="1" stop-color="#ff7a85"/></linearGradient><linearGradient id="SVGID_3_" gradientUnits="userSpaceOnUse" x1="142.553" x2="235.206" y1="313.703" y2="313.703"><stop offset="0" stop-color="#cc8241"/><stop offset=".3876" stop-color="#e5a23d"/><stop offset=".7699" stop-color="#f8bc39"/><stop offset="1" stop-color="#ffc538"/></linearGradient><linearGradient id="SVGID_4_" gradientUnits="userSpaceOnUse" x1="167.21" x2="344.79" y1="191.515" y2="191.515"><stop offset="0" stop-color="#ffc538"/><stop offset=".5463" stop-color="#fad73e"/><stop offset="1" stop-color="#f7e041"/></linearGradient><linearGradient id="SVGID_5_" gradientUnits="userSpaceOnUse" x1="22.588" x2="115.241" y1="316.906" y2="316.906"><stop offset="0" stop-color="#2f878a"/><stop offset="1" stop-color="#06daae"/></linearGradient><linearGradient id="SVGID_6_" gradientUnits="userSpaceOnUse" x1="47.245" x2="224.825" y1="129.783" y2="129.783"><stop offset="0" stop-color="#06daae"/><stop offset=".0809" stop-color="#16dcb3"/><stop offset=".394" stop-color="#4fe5c6"/><stop offset=".6626" stop-color="#78ebd4"/><stop offset=".8732" stop-color="#92efdc"/><stop offset="1" stop-color="#9bf0df"/></linearGradient><g><g><path d="m464.729 315.89c-.004-.271.011-.544 0-.814v-131.532l-177.533 16.28v131.251h.005c.039 11.735 7.143 22.936 21.647 31.309 32.102 18.534 88.175 16.209 125.243-5.192 20.237-11.684 30.6-26.636 30.639-40.823v-.479z" fill="url(#SVGID_1_)"/><path d="m434.09 225.074c37.068-21.401 41.094-53.775 8.992-72.309s-88.175-16.21-125.243 5.192c-37.068 21.401-41.094 53.775-8.992 72.309s88.175 16.209 125.243-5.192z" fill="url(#SVGID_2_)"/></g><g><path d="m344.764 384.855c-.004-.271.011-.544 0-.814v-200.497l-177.533 16.28v200.216h.005c.039 11.735 7.143 22.936 21.647 31.309 32.102 18.534 88.175 16.21 125.243-5.192 20.237-11.684 30.6-26.636 30.638-40.823z" fill="url(#SVGID_3_)"/><path d="m314.125 225.074c37.068-21.401 41.094-53.775 8.992-72.309s-88.175-16.21-125.243 5.192c-37.068 21.401-41.094 53.775-8.992 72.309 32.102 18.533 88.175 16.209 125.243-5.192z" fill="url(#SVGID_4_)"/></g><g><path d="m224.799 452.994c-.004-.271.011-.544 0-.814v-330.368l-177.533 16.28v330.086h.005c.039 11.735 7.143 22.936 21.647 31.309 32.102 18.534 88.175 16.209 125.243-5.192 20.237-11.684 30.6-26.636 30.638-40.823z" fill="url(#SVGID_5_)"/><path d="m194.16 163.342c37.068-21.401 41.094-53.775 8.992-72.309s-88.175-16.21-125.243 5.191-41.094 53.775-8.992 72.309 88.175 16.21 125.243-5.191z" fill="url(#SVGID_6_)"/></g><g><path d="m395.391 125.558 12.876-10.763-10.633-12.722c-1.123-1.911-2.556-3.617-4.231-5.062l-41.595-49.766c-7.134-8.535-19.835-9.671-28.37-2.537s-9.67 19.835-2.537 28.37l11.784 14.099c-60.707-9.503-119.233-31.216-171.508-63.893l-32.343-20.219c-9.433-5.897-21.858-3.03-27.754 6.402s-3.03 21.858 6.402 27.754l32.345 20.219c57.958 36.23 122.978 60.08 190.375 70.106l-15.316 12.802c-8.535 7.134-9.67 19.835-2.537 28.37 3.984 4.766 9.702 7.225 15.464 7.225 4.555 0 9.137-1.538 12.906-4.688l50.023-41.811c1.736-1.06 3.308-2.364 4.649-3.886z" fill="#ab2c37"/></g></g></svg>