<svg id="Capa_1" enable-background="new 0 0 512 512" height="512" viewBox="0 0 512 512" width="512" xmlns="http://www.w3.org/2000/svg" xmlns:xlink="http://www.w3.org/1999/xlink"><linearGradient id="lg1"><stop offset="0" stop-color="#0072bc"/><stop offset="1" stop-color="#0197f8"/></linearGradient><linearGradient id="SVGID_1_" gradientUnits="userSpaceOnUse" x1="437.84" x2="437.84" xlink:href="#lg1" y1="300.961" y2="200.72"/><linearGradient id="SVGID_00000072985930969025100700000000267876793916566688_" gradientUnits="userSpaceOnUse" x1="262.198" x2="262.198" xlink:href="#lg1" y1="601.08" y2="-149.406"/><linearGradient id="SVGID_00000036949571127991734040000013414869349746784390_" gradientUnits="userSpaceOnUse" x1="179.157" x2="287.473" xlink:href="#lg1" y1="221.753" y2="34.143"/><linearGradient id="SVGID_00000021118960531385935660000005297999088751458221_" gradientUnits="userSpaceOnUse" x1="79.256" x2="106.482" xlink:href="#lg1" y1="308.305" y2="261.149"/><linearGradient id="SVGID_00000015324117243143474830000012192673998849542537_" gradientUnits="userSpaceOnUse" x1="185.056" x2="185.056" xlink:href="#lg1" y1="319.025" y2="177.851"/><linearGradient id="lg2"><stop offset="0" stop-color="#2f97f7"/><stop offset="1" stop-color="#79d3fe"/></linearGradient><linearGradient id="SVGID_00000015338108660483179800000012664602299279862677_" gradientUnits="userSpaceOnUse" x1="215.584" x2="420.814" xlink:href="#lg2" y1="481.144" y2="212.047"/><linearGradient id="SVGID_00000179622723417376299840000008411557348377752218_" gradientUnits="userSpaceOnUse" x1="338.32" x2="139.904" xlink:href="#lg2" y1="43.763" y2="313.712"/><g><path d="m458.223 287.382-40.767-23.538 15.333-27.463z" fill="url(#SVGID_1_)"/><g><path d="m430.051 139.938-38.818-22.354-96.008 133.993c-9.739 13.592-12.788 32.34-6.811 41.876 1.127 1.797 2.495 3.138 4.038 4.04l-.001.001 32.231 18.537c-22.868 42.552-53.919 78.569-88.091 98.298-24.887 14.368-48.847 18.46-69.181 12.618-.276-3.594.026-6.057.026-6.057l-38.849-22.372c-6.974-4.042-17.409.898-25.344 12.818-9.389 14.105-11.721 32.639-5.209 41.398 7.682 10.331 16.576 18.5 26.423 24.511l38.478 22.166s109.508-18.525 178.769-90.624c33.392-34.761 55.12-98.495 68.671-155.186z" fill="url(#SVGID_00000072985930969025100700000000267876793916566688_)"/><path d="m346.661 11.166c-30.284-17.314-69.257-14.614-110.07 8.949-68.3 39.433-127.232 127.918-153.672 221.242l-28.604-16.471c-6.638-3.871-16.508.375-24.406 11.396-9.739 13.592-12.789 32.341-6.812 41.876l58.851 93.877 38.818 22.354s45.52-211.573 51.476-220.35c38.816-57.202 88.326-98.039 124.32-113.278 17.403 2.372 32.668 11.359 44.304 26.826 1.085 1.443 2.348 2.518 3.737 3.256 0 .001-.002.008-.002.008l38.477 22.164 2.277-79.59s-38.689-22.26-38.694-22.259z" fill="url(#SVGID_00000036949571127991734040000013414869349746784390_)"/><path d="m54.315 224.887c-6.638-3.871-16.508.375-24.406 11.396-9.739 13.592-12.789 32.341-6.812 41.876l58.851 93.877s38.816 22.353 38.818 22.354l-27.931-147.308-9.916-5.725z" fill="url(#SVGID_00000021118960531385935660000005297999088751458221_)"/><path d="m181.302 192.494 39.32 22.718-70.521 88.404c.001-.001-7.654-88.689 31.201-111.122z" fill="url(#SVGID_00000015324117243143474830000012192673998849542537_)"/></g><g><path d="m488.902 233.816-58.851-93.877-96.008 133.994c-9.739 13.593-12.788 32.341-6.811 41.875 5.979 9.534 18.721 6.243 28.457-7.347l40.013-55.844c-17.148 76.51-64.593 151.909-120.293 184.068-41.677 24.062-80.763 19.326-104.554-12.671-6.513-8.76-19.404-4.425-28.794 9.679-9.389 14.105-11.721 32.639-5.208 41.398 31.521 42.392 83.317 48.661 138.556 16.768 72.905-42.092 135.138-140.074 158.571-240.171l19.653 31.351c3.906 6.229 10.698 6.985 17.654 2.969 3.691-2.131 7.428-5.605 10.803-10.316 9.739-13.593 12.789-32.342 6.812-41.876z" fill="url(#SVGID_00000015338108660483179800000012664602299279862677_)"/><path d="m223.586 218.52c-5.977-9.533-18.716-6.245-28.457 7.347l-40.013 55.844c17.148-76.51 64.593-151.91 120.292-184.068 41.483-23.95 80.464-19.353 104.275 12.298 6.548 8.706 19.448 4.301 28.813-9.838 9.364-14.138 11.647-32.656 5.098-41.361-31.547-41.933-83.205-48.017-138.186-16.274-72.904 42.092-135.137 140.074-158.57 240.172l-19.654-31.351c-5.977-9.534-18.717-6.245-28.457 7.347-9.739 13.593-12.789 32.341-6.812 41.875l58.851 93.877 96.008-133.993c9.739-13.592 12.789-32.34 6.812-41.875z" fill="url(#SVGID_00000179622723417376299840000008411557348377752218_)"/></g></g></svg>