<svg id="Capa_1" enable-background="new 0 0 512 512" height="512" viewBox="0 0 512 512" width="512" xmlns="http://www.w3.org/2000/svg" xmlns:xlink="http://www.w3.org/1999/xlink"><linearGradient id="lg1"><stop offset="0" stop-color="#7e62c0"/><stop offset=".324" stop-color="#b096ed"/><stop offset=".6967" stop-color="#b096ed"/><stop offset=".9916" stop-color="#d9d1ec"/></linearGradient><linearGradient id="SVGID_1_" gradientUnits="userSpaceOnUse" x1="212.453" x2="284.848" xlink:href="#lg1" y1="504.505" y2="379.112"/><linearGradient id="lg2"><stop offset="0" stop-color="#e1daef"/><stop offset="1" stop-color="#fff"/></linearGradient><linearGradient id="SVGID_2_" gradientUnits="userSpaceOnUse" x1="279.971" x2="279.971" xlink:href="#lg2" y1="557.877" y2="-20.666"/><linearGradient id="SVGID_3_" gradientUnits="userSpaceOnUse" x1="192.291" x2="297.825" xlink:href="#lg1" y1="445.012" y2="262.222"/><linearGradient id="SVGID_4_" gradientUnits="userSpaceOnUse" x1="157.815" x2="306.37" xlink:href="#lg1" y1="422.978" y2="165.673"/><linearGradient id="SVGID_5_" gradientUnits="userSpaceOnUse" x1="123.532" x2="287.139" y1="399.656" y2="116.28"><stop offset="0" stop-color="#7e62c0"/><stop offset=".1508" stop-color="#b096ed"/><stop offset=".4057" stop-color="#b096ed"/><stop offset=".9916" stop-color="#d9d1ec"/></linearGradient><linearGradient id="SVGID_7_" gradientUnits="userSpaceOnUse" x1="279.971" x2="279.971" xlink:href="#lg2" y1="557.877" y2="-20.665"/><linearGradient id="SVGID_8_" gradientUnits="userSpaceOnUse" x1="279.971" x2="279.971" xlink:href="#lg2" y1="557.876" y2="-20.681"/><g><path d="m313.585 378.686c-.756-.572-49.253-28.59-49.253-28.59l-.007.015c-18.644-12.29-47.776 5.077-65.909 39.724-18.564 35.471-18.564 75.602 0 89.637.853.644 50.091 29.119 50.091 29.119l.007-.014c18.67 11.241 47.208-6.123 65.072-40.255 18.564-35.47 18.564-75.601-.001-89.636z" fill="url(#SVGID_1_)"/><path d="m313.585 468.323c-18.565 35.471-48.663 52.848-67.228 38.814s-18.565-54.166 0-89.637c18.564-35.471 48.663-52.849 67.228-38.814s18.565 54.166 0 89.637z" fill="url(#SVGID_2_)"/><path d="m374.95 271.781c-2.784-2.105-5.665-3.943-8.625-5.551l.015-.009-45.509-26.277-.019.008c-52.692-31.548-133.405 17.622-183.762 113.837-9.168 17.517-9.168 37.337 0 44.267.45.34 49.039 28.405 49.039 28.405l.004-.007c9.221 5.506 23.289-3.067 32.099-19.902 34.064-65.087 89.493-97.088 123.558-71.335 4.583 3.465 10.591 3.052 16.6-.417 6.008-3.469 12.016-9.993 16.6-18.752 9.168-17.517 9.168-37.336 0-44.267z" fill="url(#SVGID_3_)"/><path d="m420.598 163.831c-3.23-2.442-6.557-4.648-9.964-6.651.012 0 .025-.001.025-.001l-48.783-28.158-.003.001c-36.088-20.764-81.657-17.152-129.844 10.669-53.122 30.67-103.065 87.087-140.628 158.858-9.167 17.517-9.167 37.336 0 44.268.462.349 49.187 28.492 49.187 28.492s.003-.01.004-.011c9.223 5.33 23.188-3.24 31.952-19.985 59.235-113.18 155.617-168.827 214.854-124.046 4.584 3.465 10.592 3.052 16.6-.416 6.009-3.469 12.017-9.993 16.6-18.752 9.168-17.517 9.168-37.337 0-44.268z" fill="url(#SVGID_4_)"/><path d="m466.69 54.669c-4.922-3.721-10.009-7.048-15.246-10.004.001 0 .016-.005.016-.005l-50.169-28.895s-.028-.001-.064-.002c-20.993-11.313-44.394-16.591-69.843-15.658-31.642 1.16-65.07 11.785-99.355 31.58s-67.713 47.768-99.354 83.145c-32.772 36.639-62.165 79.63-87.365 127.779-9.168 17.517-9.168 37.336 0 44.267.368.278 49.071 28.424 49.071 28.424l.005-.008c9.221 5.467 23.267-3.106 32.067-19.92 84.65-161.74 222.387-241.261 307.037-177.267 4.584 3.466 10.592 3.053 16.6-.416s12.016-9.993 16.6-18.752c9.168-17.518 9.168-37.337 0-44.268z" fill="url(#SVGID_5_)"/><g><path d="m358.35 334.8c-6.008 3.469-12.016 3.882-16.6.416-34.065-25.753-89.493 6.249-123.558 71.336-9.168 17.518-24.032 26.099-33.201 19.168-9.167-6.931-9.167-26.75 0-44.268 52.374-100.066 137.589-149.263 189.959-109.671 9.168 6.931 9.168 26.75 0 44.268-4.583 8.758-10.592 15.282-16.6 18.751z" fill="url(#SVGID_2_)"/></g><g><path d="m403.999 226.851c-6.008 3.469-12.016 3.882-16.6.416-59.237-44.781-155.619 10.866-214.854 124.046-9.168 17.517-24.033 26.1-33.201 19.169s-9.168-26.751 0-44.268c37.563-71.771 87.506-128.188 140.628-158.858s103.065-31.922 140.627-3.525c9.168 6.931 9.168 26.75 0 44.268-4.584 8.759-10.592 15.283-16.6 18.752z" fill="url(#SVGID_7_)"/></g><g><path d="m450.09 117.689c-6.008 3.469-12.017 3.882-16.6.416-84.65-63.994-222.387 15.527-307.037 177.268-9.168 17.517-24.032 26.099-33.201 19.168-9.167-6.931-9.167-26.75 0-44.267 25.2-48.149 54.594-91.14 87.365-127.779 31.641-35.376 65.069-63.351 99.355-83.145 34.285-19.795 67.712-30.419 99.354-31.58 32.771-1.201 62.165 7.849 87.365 26.9 9.168 6.931 9.168 26.75 0 44.268-4.585 8.758-10.593 15.282-16.601 18.751z" fill="url(#SVGID_8_)"/></g></g></svg>