<svg id="Capa_1" enable-background="new 0 0 512 512" height="512" viewBox="0 0 512 512" width="512" xmlns="http://www.w3.org/2000/svg" xmlns:xlink="http://www.w3.org/1999/xlink"><linearGradient id="SVGID_1_" gradientUnits="userSpaceOnUse" x1="261.849" x2="344.989" y1="213.91" y2="213.91"><stop offset="0" stop-color="#2f878a"/><stop offset="1" stop-color="#06daae"/></linearGradient><linearGradient id="SVGID_2_" gradientUnits="userSpaceOnUse" x1="283.975" x2="443.321" y1="45.999" y2="45.999"><stop offset="0" stop-color="#06daae"/><stop offset=".0809" stop-color="#16dcb3"/><stop offset=".394" stop-color="#4fe5c6"/><stop offset=".6626" stop-color="#78ebd4"/><stop offset=".8732" stop-color="#92efdc"/><stop offset="1" stop-color="#9bf0df"/></linearGradient><linearGradient id="SVGID_3_" gradientUnits="userSpaceOnUse" x1="154.201" x2="237.341" y1="334.062" y2="334.062"><stop offset="0" stop-color="#cc8241"/><stop offset=".3876" stop-color="#e5a23d"/><stop offset=".7699" stop-color="#f8bc39"/><stop offset="1" stop-color="#ffc538"/></linearGradient><linearGradient id="SVGID_4_" gradientUnits="userSpaceOnUse" x1="176.327" x2="335.673" y1="224.42" y2="224.42"><stop offset="0" stop-color="#ffc538"/><stop offset=".5463" stop-color="#fad73e"/><stop offset="1" stop-color="#f7e041"/></linearGradient><linearGradient id="SVGID_5_" gradientUnits="userSpaceOnUse" x1="46.554" x2="129.693" y1="426.147" y2="426.147"><stop offset="0" stop-color="#802129"/><stop offset="1" stop-color="#ff4757"/></linearGradient><linearGradient id="SVGID_6_" gradientUnits="userSpaceOnUse" x1="68.679" x2="228.026" y1="347.447" y2="347.447"><stop offset="0" stop-color="#ab2c37"/><stop offset=".0732" stop-color="#b3343f"/><stop offset=".4827" stop-color="#dc5a65"/><stop offset=".8056" stop-color="#f6717c"/><stop offset="1" stop-color="#ff7a85"/></linearGradient><g><g><path d="m443.298 336.026c-.003-.243.01-.488 0-.73v-296.449l-159.305 14.609v296.196h.004c.035 10.53 6.41 20.581 19.424 28.095 28.806 16.631 79.122 14.545 112.384-4.659 18.159-10.484 27.458-23.901 27.493-36.632z" fill="url(#SVGID_1_)"/><path d="m415.805 76.113c33.262-19.204 36.875-48.254 8.069-64.885-28.806-16.631-79.122-14.546-112.384 4.658s-36.875 48.254-8.069 64.885 79.122 14.545 112.384-4.658z" fill="url(#SVGID_2_)"/></g><g><path d="m335.651 397.909c-.004-.243.01-.488 0-.73v-179.911l-159.306 14.609v179.659h.005c.035 10.53 6.41 20.581 19.424 28.095 28.806 16.631 79.122 14.545 112.384-4.659 18.159-10.484 27.458-23.901 27.493-36.632z" fill="url(#SVGID_3_)"/><path d="m308.158 254.533c33.262-19.204 36.875-48.254 8.069-64.885s-79.122-14.545-112.384 4.659-36.875 48.254-8.069 64.885 79.122 14.545 112.384-4.659z" fill="url(#SVGID_4_)"/></g><g><path d="m228.003 459.052c-.004-.243.01-.488 0-.73v-118.027l-159.306 14.608v117.775h.005c.035 10.53 6.41 20.581 19.424 28.094 28.806 16.631 79.122 14.545 112.384-4.659 18.159-10.484 27.458-23.902 27.493-36.632z" fill="url(#SVGID_5_)"/><path d="m200.51 377.56c33.262-19.204 36.875-48.254 8.069-64.885s-79.122-14.545-112.384 4.659-36.875 48.254-8.069 64.885 79.122 14.545 112.384-4.659z" fill="url(#SVGID_6_)"/></g><path d="m377.882 97.945-12.276-50.618c-.157-1.36-.47-2.697-.963-3.972l-3.294-13.582-68.171 16.533c-8.613 2.089-13.903 10.765-11.813 19.378 2.089 8.613 10.764 13.904 19.378 11.814l16.66-4.041c-55.316 94.359-124.748 178.987-206.611 251.758-6.624 5.888-7.22 16.032-1.332 22.656 3.171 3.567 7.575 5.386 12 5.386 3.791 0 7.599-1.337 10.656-4.054 83.604-74.318 154.635-160.629 211.394-256.812l3.181 13.118c1.78 7.343 8.348 12.269 15.583 12.269 1.252 0 2.524-.148 3.795-.455 8.612-2.089 13.902-10.765 11.813-19.378z" fill="#43386b"/></g></svg>