<svg id="Capa_1" enable-background="new 0 0 512 512" height="512" viewBox="0 0 512 512" width="512" xmlns="http://www.w3.org/2000/svg" xmlns:xlink="http://www.w3.org/1999/xlink"><linearGradient id="lg1"><stop offset="0" stop-color="#a996eb"/><stop offset="1" stop-color="#d7d1eb"/></linearGradient><linearGradient id="SVGID_1_" gradientUnits="userSpaceOnUse" x1="191.972" x2="298.635" xlink:href="#lg1" y1="270.336" y2="117.613"/><linearGradient id="SVGID_00000086655549061515956130000003681821618307970720_" gradientUnits="userSpaceOnUse" x1="76.635" x2="92.076" xlink:href="#lg1" y1="363.858" y2="341.75"/><linearGradient id="SVGID_00000104687664161524283520000007107050993114043274_" gradientUnits="userSpaceOnUse" x1="248.577" x2="248.577" xlink:href="#lg1" y1="100.081" y2="138.313"/><linearGradient id="SVGID_00000180352839917027183980000005835917341442674621_" gradientUnits="userSpaceOnUse" x1="257.302" x2="267.077" xlink:href="#lg1" y1="28.155" y2="11.225"/><linearGradient id="SVGID_00000119838746656664044800000018028148446293277112_" gradientUnits="userSpaceOnUse" x1="393.129" x2="430.855" xlink:href="#lg1" y1="170.451" y2="144.997"/><linearGradient id="SVGID_00000178894876165708331210000000358296542170023068_" gradientUnits="userSpaceOnUse" x1="351.324" x2="235.564" xlink:href="#lg1" y1="193.014" y2="393.516"/><linearGradient id="SVGID_00000091706065333004475260000017388677269079684497_" gradientUnits="userSpaceOnUse" x1="360.524" x2="372.501" xlink:href="#lg1" y1="196.987" y2="176.242"/><linearGradient id="SVGID_00000115484662193118601100000011008624570990492832_" gradientUnits="userSpaceOnUse" x1="247.101" x2="257.866" xlink:href="#lg1" y1="415.084" y2="396.439"/><linearGradient id="SVGID_00000181056776989522274410000004601948913433486729_" gradientUnits="userSpaceOnUse" x1="249.376" x2="249.376" xlink:href="#lg1" y1="452.95" y2="517.639"/><linearGradient id="SVGID_00000141413060806116342890000013657718779823543430_" gradientUnits="userSpaceOnUse" x1="210.657" x2="296.499" xlink:href="#lg1" y1="271.699" y2="140.197"/><linearGradient id="SVGID_00000055685987472532813970000014045468205108114603_" gradientUnits="userSpaceOnUse" x1="142.074" x2="155.869" xlink:href="#lg1" y1="319.164" y2="299.411"/><linearGradient id="lg2"><stop offset="0" stop-color="#d7d1eb"/><stop offset="1" stop-color="#f2effa"/></linearGradient><linearGradient id="SVGID_00000103961435939488813330000013744786193424960703_" gradientTransform="matrix(.866 -.5 0 1.155 34.959 91.678)" gradientUnits="userSpaceOnUse" x1="165.367" x2="368.843" xlink:href="#lg2" y1="263.105" y2="263.105"/><linearGradient id="SVGID_00000146465293135749053180000000354600332749199531_" gradientTransform="matrix(.866 -.5 0 1.155 34.959 91.678)" gradientUnits="userSpaceOnUse" x1="217.373" x2="316.837" xlink:href="#lg1" y1="263.105" y2="263.105"/><linearGradient id="SVGID_00000083068633758971586630000018291252683398709379_" gradientUnits="userSpaceOnUse" x1="79.476" x2="453.068" xlink:href="#lg2" y1="261.932" y2="261.932"/><g><path d="m336.556 52.45c-22.615-12.142-51.181-11.653-82.441 3.952l-16.775 9.685c-71.562 46.908-129.035 156.721-133.229 254.558v22.367c2.288 50.733 20.434 86.716 48.073 103.147l.003.005.088.05c.204.121.41.234.615.353l23.747 13.622s-1.978-2.106-5.064-6.126c.421.103.852.181 1.276.276l-2.764-4.268 2.098-22.724c-9.487-3.75-17.971-9.808-25.181-17.989-8.429-22.241-14.442-51.037-10.735-84.91 0 0 .334-103.765 101.074-221.519l16.775-13.097c10.059-7 17.895-11.006 21.875-13.236 5.988-3.355 17.514-5.739 30.126-7.413 14.137 2.273 53.193-3.645 53.193-3.645.36.207-22.752-13.088-22.754-13.088z" fill="url(#SVGID_1_)"/><path d="m104.112 320.646-36.792 21.241c-4.632 2.674-8.388 9.849-8.388 16.026 0 3.317 1.089 5.658 2.809 6.713l-.01.01 20.741 11.977 42.184-44.103z" fill="url(#SVGID_00000086655549061515956130000003681821618307970720_)"/><path d="m236.211 113.959 24.732 14.287-.141-35.627z" fill="url(#SVGID_00000104687664161524283520000007107050993114043274_)"/><path d="m251.08.49c-1.453-.768-3.318-.659-5.352.516-4.632 2.674-8.388 9.85-8.388 16.026v49.056l20.544 11.865 13.908-65.506z" fill="url(#SVGID_00000180352839917027183980000005835917341442674621_)"/><path d="m429.848 135.576-.01.009c-1.497-.99-3.497-.978-5.701.295l-25.303 14.609 5.033 28.833 46.497-31.898z" fill="url(#SVGID_00000119838746656664044800000018028148446293277112_)"/><path d="m397.086 146.738c-7.651-16.423-37.846-81.239-37.776-81.2 0 0-27.568 11.4-32.659 10.759 5.887 3.283 11.31 7.539 16.187 12.727 15.826 16.836 25.931 43.409 27.698 77.801v22.367c-3.759 77.5-45.192 163.221-99.339 209.475l-33.857 22.653c-24.249 11.849-46.622 13.353-65.158 6.026l2.827 25.375 91.263-13.863s64.481-47.704 94.414-102.725c29.933-55.02 43.181-156.814 43.181-156.814z" fill="url(#SVGID_00000178894876165708331210000000358296542170023068_)"/><path d="m370.111 210.743 20.969-32.053-20.544-11.865-15.76 9.099c-4.632 2.674-8.388 9.85-8.388 16.026 0 3.285 1.068 5.612 2.76 6.682l-.007.01.256.148c.021.011.04.024.06.035z" fill="url(#SVGID_00000091706065333004475260000017388677269079684497_)"/><path d="m251.286 383.895c-1.481-.897-3.423-.848-5.558.385-4.632 2.674-8.388 9.85-8.388 16.026v21.014s20.544 12.783 20.544 11.865 13.752-37.547 13.752-37.547l-20.349-11.754z" fill="url(#SVGID_00000115484662193118601100000011008624570990492832_)"/><path d="m237.34 463.827v28.96c0 3.535 1.233 5.969 3.154 6.91v.005l20.917 12.028-3.513-64.69z" fill="url(#SVGID_00000181056776989522274410000004601948913433486729_)"/><path d="m323.971 139.84-22.075-12.709c-15.248-8.039-34.821-6.863-56.168 5.462-48.659 28.093-88.105 103.462-88.105 168.341 0 35.027 11.502 59.827 29.74 70.82l22.775 13.133z" fill="url(#SVGID_00000141413060806116342890000013657718779823543430_)"/><path d="m162.878 313.368-23.958-13.682v29.025z" fill="url(#SVGID_00000055685987472532813970000014045468205108114603_)"/><path d="m354.377 211.065c0-64.879-39.446-94.699-88.105-66.606s-88.105 103.462-88.105 168.341 39.446 94.699 88.105 66.606c48.659-28.094 88.105-103.463 88.105-168.341z" fill="url(#SVGID_00000103961435939488813330000013744786193424960703_)"/><path d="m300.952 230.726-26.293 15.18v-35.057c0-6.177-3.756-9.015-8.388-6.341s-8.388 9.849-8.388 16.026v35.057l-26.293 15.18c-4.632 2.674-8.388 9.85-8.388 16.026s3.756 9.015 8.388 6.341l26.293-15.18v35.057c0 6.177 3.756 9.015 8.388 6.341s8.388-9.85 8.388-16.026v-35.057l26.293-15.18c4.632-2.674 8.388-9.85 8.388-16.026 0-6.177-3.756-9.015-8.388-6.341z" fill="url(#SVGID_00000146465293135749053180000000354600332749199531_)"/><path d="m444.68 147.744-36.792 21.242c-4.194-92.995-61.667-136.443-133.229-100.719v-49.055c0-6.177-3.756-9.015-8.388-6.341s-8.388 9.85-8.388 16.026v49.056c-71.562 46.908-129.035 156.721-133.229 254.558l-36.792 21.242c-4.632 2.674-8.388 9.849-8.388 16.026s3.756 9.015 8.388 6.341l36.792-21.242c4.194 92.995 61.667 136.443 133.229 100.719v49.056c0 6.177 3.756 9.016 8.388 6.341 4.632-2.674 8.388-9.85 8.388-16.026v-49.056c71.562-46.908 129.035-156.721 133.229-254.558l36.792-21.242c4.632-2.674 8.388-9.85 8.388-16.026 0-6.177-3.756-9.016-8.388-6.342zm-170.021 275.756v-21.014c0-6.177-3.756-9.016-8.388-6.341-4.632 2.674-8.388 9.85-8.388 16.026v21.014c-62.308 30.445-112.275-7.328-116.421-88.012l15.76-9.099c4.632-2.674 8.388-9.85 8.388-16.026s-3.756-9.015-8.388-6.341l-15.76 9.099c4.146-85.471 54.113-180.942 116.421-222.443v21.014c0 6.177 3.756 9.015 8.388 6.341s8.388-9.85 8.388-16.027v-21.012c62.308-30.445 112.275 7.328 116.421 88.012l-15.76 9.099c-4.632 2.674-8.388 9.85-8.388 16.026 0 6.177 3.756 9.016 8.388 6.341l15.76-9.099c-4.146 85.47-54.113 180.941-116.421 222.442z" fill="url(#SVGID_00000083068633758971586630000018291252683398709379_)"/></g></svg>