<svg id="Capa_1" enable-background="new 0 0 512 512" height="512" viewBox="0 0 512 512" width="512" xmlns="http://www.w3.org/2000/svg" xmlns:xlink="http://www.w3.org/1999/xlink"><linearGradient id="SVGID_1_" gradientUnits="userSpaceOnUse" x1="201.13" x2="226.025" y1="185.992" y2="142.872"><stop offset=".0319" stop-color="#a996eb"/><stop offset=".2213" stop-color="#bfb3eb"/><stop offset=".4108" stop-color="#d1c9eb"/><stop offset=".5321" stop-color="#d7d1eb"/><stop offset="1" stop-color="#e9e5f6"/></linearGradient><linearGradient id="SVGID_2_" gradientUnits="userSpaceOnUse" x1="236.375" x2="236.375" y1="770.501" y2="24.829"><stop offset="0" stop-color="#dfdaef"/><stop offset="1" stop-color="#fff"/></linearGradient><linearGradient id="SVGID_3_" gradientUnits="userSpaceOnUse" x1="282.593" x2="282.593" y1="320.648" y2="427.549"><stop offset="0" stop-color="#7662bd"/><stop offset="1" stop-color="#7662bd" stop-opacity="0"/></linearGradient><linearGradient id="SVGID_4_" gradientUnits="userSpaceOnUse" x1="278.307" x2="297.522" y1="371.429" y2="338.419"><stop offset="0" stop-color="#2f878a"/><stop offset=".2073" stop-color="#2a928f"/><stop offset=".5729" stop-color="#1bb09c"/><stop offset="1" stop-color="#06daae"/></linearGradient><linearGradient id="lg1"><stop offset=".0319" stop-color="#2f878a"/><stop offset="1" stop-color="#2f878a" stop-opacity="0"/></linearGradient><linearGradient id="SVGID_5_" gradientUnits="userSpaceOnUse" x1="294.776" x2="267.733" xlink:href="#lg1" y1="390.194" y2="367.915"/><linearGradient id="SVGID_6_" gradientUnits="userSpaceOnUse" x1="310.469" x2="351.088" xlink:href="#lg1" y1="340.11" y2="270.328"/><linearGradient id="SVGID_7_" gradientUnits="userSpaceOnUse" x1="332.804" x2="332.804" y1="429.178" y2="240.366"><stop offset="0" stop-color="#06daae"/><stop offset=".1313" stop-color="#11dcb2"/><stop offset=".3631" stop-color="#2fe0bb"/><stop offset=".6679" stop-color="#5fe7cb"/><stop offset="1" stop-color="#9bf0df"/></linearGradient><g><path d="m340.605 8.371-12.203-7.26c-2.408-1.576-5.625-1.533-9.162.509l-189.956 109.67c-7.459 4.307-13.506 15.861-13.506 25.806v355.875c0 5.875 2.111 9.874 5.377 11.275l5.768 3.505 5.061 2.963z" fill="url(#SVGID_1_)"/><path d="m331.353 400.708-189.956 109.671c-7.459 4.307-13.506-.265-13.506-10.21v-355.875c0-9.946 6.047-21.499 13.506-25.806l189.956-109.671c7.459-4.307 13.506.265 13.506 10.21v355.875c0 9.946-6.047 21.5-13.506 25.806z" fill="url(#SVGID_2_)"/><g><path d="m253.679 96.582-96.733 55.698c-4.197 2.423-7.599 8.923-7.599 14.519 0 5.596 3.402 8.167 7.599 5.745l96.733-55.698c4.197-2.423 7.599-8.923 7.599-14.519 0-5.596-3.402-8.167-7.599-5.745z" fill="#43386b"/></g><g><path d="m315.803 124.887-158.857 92.977c-4.197 2.423-7.599 8.923-7.599 14.519 0 5.596 3.402 8.167 7.599 5.745l158.857-92.977c4.197-2.423 7.599-8.923 7.599-14.519 0-5.596-3.402-8.168-7.599-5.745z" fill="#43386b"/></g><g><path d="m315.803 182.419-158.857 92.977c-4.197 2.423-7.599 8.923-7.599 14.519 0 5.596 3.402 8.167 7.599 5.745l158.857-92.977c4.197-2.423 7.599-8.923 7.599-14.519 0-5.596-3.402-8.168-7.599-5.745z" fill="#43386b"/></g><g><path d="m315.803 239.951-158.857 92.977c-4.197 2.423-7.599 8.923-7.599 14.519 0 5.596 3.402 8.168 7.599 5.745l158.857-92.977c4.197-2.423 7.599-8.923 7.599-14.519 0-5.596-3.402-8.168-7.599-5.745z" fill="#43386b"/></g><g><path d="m301.907 346.896-51.325 2.105v24.184l.044.032c-.254 6.681 1.471 12.332 5.215 15.162l33.369 25.226c3.506 2.651 8.101 2.335 12.697-.318 4.595-2.653 9.191-7.644 12.697-14.343z" fill="url(#SVGID_3_)"/><path d="m372.158 229.633c-7.012-4.952-18.381 1.262-25.394 14.661l-43.595 83.295-5.074-3.491-17.712-10.298-.004.036c-7.053-4.207-17.801 2.326-24.538 15.199-7.012 13.399-7.012 28.557 0 33.859l33.369 25.226c.655.495 1.358.853 2.081 1.145l-.015.03 17.795 10.365 79.645-160.42c.001 0-16.506-9.569-16.558-9.607z" fill="url(#SVGID_4_)"/><path d="m274.646 373.744-18.826-10.869c.008.006.014.013.022.02l33.369 25.226c.655.495 1.358.853 2.081 1.145l-.015.03 17.795 10.365.868-1.749z" fill="url(#SVGID_5_)"/><path d="m372.158 229.633c-7.012-4.952-18.381 1.262-25.394 14.661l-43.595 83.295 17.542 13.262 68.006-101.611s-16.507-9.569-16.559-9.607z" fill="url(#SVGID_6_)"/><g><path d="m320.712 398.652c-4.596 2.653-9.191 2.969-12.697.318l-33.369-25.226c-7.012-5.301-7.012-20.46 0-33.859 7.012-13.398 18.382-19.963 25.394-14.661l20.672 15.627 44.857-85.707c7.013-13.399 18.382-19.963 25.394-14.661 7.013 5.301 7.013 20.46 0 33.859l-57.554 109.967c-3.506 6.699-8.102 11.689-12.697 14.343z" fill="url(#SVGID_7_)"/></g></g></g></svg>