<svg id="Capa_1" enable-background="new 0 0 512 512" height="512" viewBox="0 0 512 512" width="512" xmlns="http://www.w3.org/2000/svg" xmlns:xlink="http://www.w3.org/1999/xlink"><linearGradient id="lg1"><stop offset="0" stop-color="#b096ed"/><stop offset=".3485" stop-color="#c7b6ef"/><stop offset=".7689" stop-color="#dfd7f2"/><stop offset="1" stop-color="#e8e3f3"/></linearGradient><linearGradient id="SVGID_1_" gradientUnits="userSpaceOnUse" x1="260.1" x2="443.217" xlink:href="#lg1" y1="296.643" y2="296.643"/><linearGradient id="SVGID_2_" gradientTransform="matrix(.866 -.5 1 .577 -216.456 237.361)" gradientUnits="userSpaceOnUse" x1="280.214" x2="280.214" xlink:href="#lg1" y1="483.035" y2="-31.668"/><linearGradient id="SVGID_3_" gradientUnits="userSpaceOnUse" x1="373.951" x2="-317.822" xlink:href="#lg1" y1="315.543" y2="-180.04"/><linearGradient id="lg2"><stop offset="0" stop-color="#45356d"/><stop offset=".1612" stop-color="#544081"/><stop offset="1" stop-color="#7e62c0"/></linearGradient><linearGradient id="SVGID_4_" gradientUnits="userSpaceOnUse" x1="244.223" x2="256.185" xlink:href="#lg2" y1="259.606" y2="259.606"/><linearGradient id="lg3"><stop offset="0" stop-color="#45356d"/><stop offset=".3107" stop-color="#544081"/><stop offset="1" stop-color="#7e62c0"/></linearGradient><linearGradient id="SVGID_5_" gradientUnits="userSpaceOnUse" x1="272.386" x2="355.175" xlink:href="#lg3" y1="222.901" y2="222.901"/><linearGradient id="SVGID_6_" gradientUnits="userSpaceOnUse" x1="269.954" x2="362.329" xlink:href="#lg3" y1="300.363" y2="300.363"/><linearGradient id="SVGID_7_" gradientUnits="userSpaceOnUse" x1="375.396" x2="391.867" xlink:href="#lg3" y1="264.844" y2="264.844"/><linearGradient id="SVGID_8_" gradientUnits="userSpaceOnUse" x1="115.558" x2="130.966" xlink:href="#lg2" y1="203.753" y2="203.753"/><linearGradient id="SVGID_9_" gradientUnits="userSpaceOnUse" x1="106.631" x2="133.081" xlink:href="#lg2" y1="208.435" y2="192.534"/><linearGradient id="SVGID_10_" gradientUnits="userSpaceOnUse" x1="85.989" x2="101.398" xlink:href="#lg2" y1="186.616" y2="186.616"/><linearGradient id="SVGID_11_" gradientUnits="userSpaceOnUse" x1="77.062" x2="103.512" xlink:href="#lg2" y1="191.298" y2="175.397"/><linearGradient id="SVGID_12_" gradientUnits="userSpaceOnUse" x1="153.384" x2="168.792" xlink:href="#lg2" y1="182.056" y2="182.056"/><linearGradient id="SVGID_13_" gradientUnits="userSpaceOnUse" x1="144.457" x2="170.907" xlink:href="#lg2" y1="186.738" y2="170.837"/><linearGradient id="SVGID_14_" gradientUnits="userSpaceOnUse" x1="123.815" x2="139.223" xlink:href="#lg2" y1="164.919" y2="164.919"/><linearGradient id="SVGID_15_" gradientUnits="userSpaceOnUse" x1="114.888" x2="141.338" xlink:href="#lg2" y1="169.601" y2="153.7"/><linearGradient id="SVGID_16_" gradientUnits="userSpaceOnUse" x1="191.21" x2="206.618" xlink:href="#lg2" y1="160.359" y2="160.359"/><linearGradient id="SVGID_17_" gradientUnits="userSpaceOnUse" x1="182.283" x2="208.733" xlink:href="#lg2" y1="165.041" y2="149.14"/><linearGradient id="SVGID_18_" gradientUnits="userSpaceOnUse" x1="161.641" x2="177.049" xlink:href="#lg2" y1="143.222" y2="143.222"/><linearGradient id="SVGID_19_" gradientUnits="userSpaceOnUse" x1="152.714" x2="179.164" xlink:href="#lg2" y1="147.904" y2="132.003"/><linearGradient id="lg4"><stop offset="0" stop-color="#c62834"/><stop offset="1" stop-color="#ff4557"/></linearGradient><linearGradient id="SVGID_20_" gradientUnits="userSpaceOnUse" x1="56.418" x2="71.827" xlink:href="#lg4" y1="169.434" y2="169.434"/><linearGradient id="lg5"><stop offset="0" stop-color="#ff4557"/><stop offset="1" stop-color="#ff7b86"/></linearGradient><linearGradient id="SVGID_21_" gradientUnits="userSpaceOnUse" x1="47.492" x2="73.942" xlink:href="#lg5" y1="174.117" y2="158.215"/><linearGradient id="SVGID_22_" gradientUnits="userSpaceOnUse" x1="132.07" x2="147.479" y1="126.04" y2="126.04"><stop offset="0" stop-color="#efa95c"/><stop offset="1" stop-color="#ffc51e"/></linearGradient><linearGradient id="SVGID_23_" gradientUnits="userSpaceOnUse" x1="123.144" x2="149.594" y1="130.722" y2="114.821"><stop offset="0" stop-color="#ffe026"/><stop offset="1" stop-color="#fff2b0"/></linearGradient><linearGradient id="SVGID_24_" gradientUnits="userSpaceOnUse" x1="174.695" x2="190.103" y1="237.683" y2="237.683"><stop offset="0" stop-color="#0073bf"/><stop offset="1" stop-color="#00adfb"/></linearGradient><linearGradient id="SVGID_25_" gradientUnits="userSpaceOnUse" x1="165.768" x2="192.218" y1="242.365" y2="226.464"><stop offset="0" stop-color="#17d3ff"/><stop offset="1" stop-color="#7ce7ff"/></linearGradient><linearGradient id="SVGID_26_" gradientUnits="userSpaceOnUse" x1="145.126" x2="160.535" xlink:href="#lg2" y1="220.546" y2="220.546"/><linearGradient id="SVGID_27_" gradientUnits="userSpaceOnUse" x1="136.199" x2="162.649" xlink:href="#lg2" y1="225.229" y2="209.327"/><linearGradient id="SVGID_28_" gradientUnits="userSpaceOnUse" x1="212.521" x2="231.242" y1="215.986" y2="215.986"><stop offset="0" stop-color="#006568"/><stop offset="1" stop-color="#00878a"/></linearGradient><linearGradient id="SVGID_29_" gradientUnits="userSpaceOnUse" x1="203.594" x2="230.044" y1="220.668" y2="204.767"><stop offset="0" stop-color="#00daac"/><stop offset="1" stop-color="#61efde"/></linearGradient><linearGradient id="SVGID_30_" gradientUnits="userSpaceOnUse" x1="182.952" x2="198.361" xlink:href="#lg2" y1="198.849" y2="198.849"/><linearGradient id="SVGID_31_" gradientUnits="userSpaceOnUse" x1="174.025" x2="200.475" xlink:href="#lg2" y1="203.531" y2="187.63"/><linearGradient id="SVGID_32_" gradientUnits="userSpaceOnUse" x1="250.347" x2="269.549" xlink:href="#lg4" y1="194.289" y2="194.289"/><linearGradient id="SVGID_33_" gradientUnits="userSpaceOnUse" x1="241.42" x2="267.87" xlink:href="#lg5" y1="198.971" y2="183.07"/><linearGradient id="SVGID_34_" gradientUnits="userSpaceOnUse" x1="220.778" x2="236.186" xlink:href="#lg2" y1="177.152" y2="177.152"/><linearGradient id="SVGID_35_" gradientUnits="userSpaceOnUse" x1="211.851" x2="238.301" xlink:href="#lg2" y1="181.834" y2="165.933"/><linearGradient id="SVGID_36_" gradientUnits="userSpaceOnUse" x1="296.39" x2="337.637" xlink:href="#lg2" y1="267.99" y2="267.99"/><linearGradient id="SVGID_37_" gradientUnits="userSpaceOnUse" x1="193.385" x2="264.2" xlink:href="#lg2" y1="297.061" y2="234.058"/><linearGradient id="SVGID_38_" gradientUnits="userSpaceOnUse" x1="274.825" x2="330.267" xlink:href="#lg2" y1="240.494" y2="195.131"/><linearGradient id="SVGID_39_" gradientUnits="userSpaceOnUse" x1="287.82" x2="346.791" xlink:href="#lg2" y1="313.748" y2="268.889"/><linearGradient id="SVGID_40_" gradientUnits="userSpaceOnUse" x1="349.147" x2="400.81" xlink:href="#lg2" y1="283.435" y2="232.276"/><linearGradient id="SVGID_41_" gradientUnits="userSpaceOnUse" x1="257.841" x2="344.786" xlink:href="#lg2" y1="287.135" y2="232.196"/><g><path d="m0 163.418c0 51.961 27.721 99.976 72.721 125.956l194.776 112.454c32.139 18.555 75.144 28.845 116.987 27.989 34.07-.696 62.134-10.714 77.406-26.094l.02.008c19.836-18.963 35.521-41.836 46.061-67.172l1.629-3.916z" fill="url(#SVGID_1_)"/><path d="m110.331 86.45c-43.387 13.956-78.68 34.333-102.853 59.382-14.296 14.814-7.646 34.867 16.112 48.583l265.108 153.06c34.686 20.026 81.1 31.13 126.258 30.208 54.641-1.117 95.018-24.428 96.952-55.975 1.599-26.072-17.635-52.869-52.321-72.895l-265.108-153.061c-23.758-13.717-58.489-17.556-84.148-9.302z" fill="url(#SVGID_2_)"/><path d="m455.49 266.597-278.462-160.77c-14.532-8.39-35.756-10.681-51.445-5.626-19.785 6.374-37.862 14.251-53.733 23.414s-29.515 19.6-40.554 31.023c-8.754 9.058-4.787 21.312 9.745 29.702l278.462 160.77c13.016 7.515 32.707 8.331 43.979 1.823l95.166-54.944c11.272-6.509 9.858-17.877-3.158-25.392z" fill="url(#SVGID_3_)"/><g><path d="m256.415 269.349c-5.198-8.22-5.205-16.94.23-24.345.471-.642.696-1.382.698-2.111l.004.003v-8.541s-18.838-2.467-20.528-.75c-14.794 15.019-12.049 35.068 7.143 51.366 1.704 1.447 4.151 1.644 6.088.525l9.664-5.579c1.167-.674 1.744-1.893 1.693-3.112l.015.014v-8.601z" fill="url(#SVGID_4_)"/><path d="m352.398 216.352-91.589-3.862v8.567l.014.001c-.02.814.346 1.639 1.177 2.119l10.95 6.322c2.394 1.382 5.241 1.821 7.914 1.115 16.078-4.246 36.001-3.436 53.324 2.162 2.902.938 6.059.645 8.701-.88l8.314-4.8c.845-.488 1.227-1.349 1.191-2.188h.005v-8.556z" fill="url(#SVGID_5_)"/><path d="m362.329 294.272-92.375-3.917v8.501h.007c.022.792.465 1.569 1.321 1.906 28.454 11.195 63.532 12.733 89.634 3.968.946-.318 1.416-1.175 1.4-2.031l.014.001v-8.428z" fill="url(#SVGID_6_)"/><path d="m378.841 238.861c-1.75-1.49-17.492-.583-17.492-.583v8.414l.021-.01c-.038.913.255 1.848.945 2.588 7.102 7.611 9.429 16.038 6.82 23.676l-3.757-.667v8.55.009.014l.001-.001c-.011 1.187.577 2.345 1.699 2.993l12.299 7.101c2.144 1.238 4.876.904 6.608-.865 14.685-14.99 11.943-34.962-7.144-51.219z" fill="url(#SVGID_7_)"/></g><g><g><path d="m109.601 198.974 29.568-2.419v4.696l-.014.001c-.029 2.349-1.743 4.818-5.091 6.751-6.172 3.564-15.509 3.951-20.855.865-2.441-1.41-3.613-3.301-3.594-5.278l-.014.001z" fill="url(#SVGID_8_)"/><path d="m114.706 192.174c6.172-3.564 15.509-3.951 20.855-.865 5.345 3.086 4.675 8.477-1.497 12.041s-15.509 3.951-20.855.864c-5.345-3.086-4.675-8.477 1.497-12.04z" fill="url(#SVGID_9_)"/></g><g><path d="m80.032 181.837 29.568-2.419v4.696l-.014.001c-.029 2.349-1.743 4.818-5.091 6.751-6.172 3.564-15.509 3.951-20.855.865-2.441-1.41-3.613-3.301-3.594-5.278l-.014.001z" fill="url(#SVGID_10_)"/><path d="m85.138 175.037c6.172-3.564 15.509-3.951 20.855-.865 5.345 3.086 4.675 8.477-1.497 12.041s-15.509 3.951-20.855.864c-5.346-3.086-4.676-8.477 1.497-12.04z" fill="url(#SVGID_11_)"/></g><g><path d="m147.427 177.277 29.568-2.419v4.696l-.014.001c-.029 2.349-1.743 4.818-5.091 6.751-6.172 3.564-15.509 3.951-20.855.864-2.441-1.409-3.613-3.3-3.594-5.278l-.014.001z" fill="url(#SVGID_12_)"/><path d="m152.532 170.477c6.172-3.564 15.509-3.951 20.855-.865 5.345 3.086 4.675 8.477-1.497 12.04-6.172 3.564-15.509 3.951-20.855.865-5.345-3.086-4.675-8.477 1.497-12.04z" fill="url(#SVGID_13_)"/></g><g><path d="m117.858 160.14 29.568-2.419v4.696l-.014.001c-.029 2.349-1.743 4.818-5.091 6.751-6.172 3.564-15.509 3.951-20.855.865-2.441-1.41-3.613-3.301-3.594-5.278l-.014.001z" fill="url(#SVGID_14_)"/><path d="m122.964 153.34c6.172-3.564 15.509-3.951 20.855-.865s4.675 8.477-1.497 12.04c-6.172 3.564-15.509 3.951-20.855.865s-4.676-8.477 1.497-12.04z" fill="url(#SVGID_15_)"/></g><g><path d="m185.253 155.58 29.568-2.419v4.696l-.014.001c-.029 2.349-1.743 4.818-5.091 6.751-6.172 3.564-15.509 3.951-20.855.865-2.441-1.41-3.614-3.301-3.594-5.278l-.014.001z" fill="url(#SVGID_16_)"/><path d="m190.358 148.779c6.172-3.564 15.509-3.951 20.855-.864s4.675 8.477-1.497 12.04c-6.172 3.564-15.509 3.951-20.855.865s-4.675-8.477 1.497-12.041z" fill="url(#SVGID_17_)"/></g><g><path d="m155.684 138.443 29.568-2.419v4.696l-.014.001c-.029 2.349-1.743 4.818-5.091 6.751-6.172 3.564-15.509 3.951-20.855.865-2.441-1.41-3.613-3.301-3.594-5.278l-.014.001z" fill="url(#SVGID_18_)"/><path d="m160.79 131.643c6.172-3.564 15.509-3.951 20.855-.865 5.345 3.086 4.675 8.477-1.497 12.04-6.172 3.564-15.509 3.951-20.855.865s-4.676-8.477 1.497-12.04z" fill="url(#SVGID_19_)"/></g><g><path d="m50.462 164.655 29.568-2.419v4.696l-.014.001c-.028 2.349-1.743 4.818-5.091 6.751-6.172 3.564-15.509 3.951-20.855.864-2.441-1.41-3.613-3.301-3.594-5.278l-.014.001z" fill="url(#SVGID_20_)"/><path d="m55.567 157.855c6.172-3.564 15.509-3.951 20.855-.865 5.345 3.086 4.675 8.477-1.497 12.041s-15.509 3.951-20.855.864c-5.345-3.086-4.675-8.476 1.497-12.04z" fill="url(#SVGID_21_)"/></g><g><path d="m126.114 121.261 29.568-2.419v4.696l-.014.001c-.029 2.349-1.743 4.818-5.091 6.751-6.172 3.564-15.509 3.951-20.855.865-2.441-1.41-3.613-3.301-3.594-5.278l-.014.001z" fill="url(#SVGID_22_)"/><path d="m131.219 114.461c6.172-3.564 15.509-3.951 20.855-.864 5.346 3.086 4.675 8.477-1.497 12.04-6.172 3.564-15.509 3.951-20.855.865-5.345-3.087-4.675-8.478 1.497-12.041z" fill="url(#SVGID_23_)"/></g><g><path d="m168.738 232.904 29.568-2.419v4.696l-.014.001c-.029 2.349-1.743 4.818-5.091 6.751-6.172 3.564-15.509 3.951-20.855.865-2.441-1.41-3.613-3.301-3.594-5.278l-.014.001z" fill="url(#SVGID_24_)"/><path d="m173.844 226.104c6.172-3.564 15.509-3.951 20.855-.865 5.345 3.086 4.675 8.477-1.497 12.041s-15.509 3.951-20.855.864c-5.346-3.086-4.676-8.477 1.497-12.04z" fill="url(#SVGID_25_)"/></g><g><path d="m139.169 215.767 29.568-2.419v4.696l-.014.001c-.029 2.349-1.743 4.818-5.091 6.751-6.172 3.564-15.509 3.951-20.855.865-2.441-1.41-3.613-3.301-3.594-5.278l-.014.001z" fill="url(#SVGID_26_)"/><path d="m144.275 208.967c6.172-3.564 15.509-3.951 20.855-.865 5.345 3.086 4.675 8.477-1.497 12.041s-15.509 3.951-20.855.864c-5.346-3.086-4.676-8.476 1.497-12.04z" fill="url(#SVGID_27_)"/></g><g><path d="m206.564 211.207 29.568-2.419v4.696l-.014.001c-.029 2.349-1.743 4.818-5.091 6.751-6.172 3.564-15.509 3.951-20.855.865-2.441-1.41-3.613-3.301-3.594-5.278l-.014.001z" fill="url(#SVGID_28_)"/><path d="m211.669 204.407c6.172-3.564 15.509-3.951 20.855-.865 5.345 3.086 4.675 8.477-1.497 12.04-6.172 3.564-15.509 3.951-20.855.865-5.345-3.086-4.675-8.477 1.497-12.04z" fill="url(#SVGID_29_)"/></g><g><path d="m176.995 194.07 29.568-2.419v4.696l-.014.001c-.029 2.349-1.743 4.818-5.091 6.751-6.172 3.564-15.509 3.951-20.855.865-2.441-1.41-3.613-3.301-3.594-5.278l-.014.001z" fill="url(#SVGID_30_)"/><path d="m182.101 187.27c6.172-3.564 15.509-3.951 20.855-.865s4.675 8.477-1.497 12.04c-6.172 3.564-15.509 3.951-20.855.865s-4.676-8.477 1.497-12.04z" fill="url(#SVGID_31_)"/></g><g><path d="m244.39 189.51 29.568-2.419v4.696l-.014.001c-.029 2.349-1.743 4.818-5.091 6.751-6.172 3.564-15.509 3.951-20.855.865-2.441-1.41-3.613-3.301-3.594-5.278l-.014.001z" fill="url(#SVGID_32_)"/><path d="m249.495 182.71c6.172-3.564 15.509-3.951 20.855-.865 5.345 3.086 4.675 8.477-1.497 12.04-6.172 3.564-15.509 3.951-20.855.865-5.345-3.086-4.675-8.477 1.497-12.04z" fill="url(#SVGID_33_)"/></g><g><path d="m214.821 172.373 29.568-2.419v4.696l-.014.001c-.029 2.349-1.743 4.818-5.091 6.751-6.172 3.564-15.509 3.951-20.855.865-2.441-1.41-3.613-3.301-3.594-5.278l-.014.001z" fill="url(#SVGID_34_)"/><path d="m219.927 165.573c6.172-3.564 15.509-3.951 20.855-.865s4.675 8.477-1.497 12.04c-6.172 3.564-15.509 3.951-20.855.865s-4.676-8.477 1.497-12.04z" fill="url(#SVGID_35_)"/></g></g><g><path d="m353.28 256.753-83.835-6.859v8.688l.04.003c.081 6.659 4.942 13.661 14.434 19.142 17.501 10.104 43.974 11.201 59.13 2.451 6.922-3.996 10.245-9.358 10.19-14.964l.04.003v-8.464z" fill="url(#SVGID_36_)"/><g><path d="m260.468 265.992c-9.016-9.621-10.425-20.56-3.823-29.554 1.233-1.679.805-4.041-.999-5.083l-12.397-7.158c-2.086-1.204-4.741-.875-6.431.841-14.794 15.019-12.049 35.068 7.143 51.366 1.704 1.447 4.151 1.644 6.088.525l9.664-5.579c1.933-1.116 2.281-3.729.755-5.358z" fill="url(#SVGID_37_)"/><path d="m280.863 222.047c16.078-4.246 36-3.436 53.324 2.162 2.902.938 6.059.645 8.701-.88l8.314-4.8c1.736-1.003 1.554-3.583-.315-4.308-28.111-10.903-62.551-12.433-88.412-3.972-1.981.648-2.281 3.32-.476 4.362l10.95 6.322c2.395 1.381 5.241 1.82 7.914 1.114z" fill="url(#SVGID_38_)"/><path d="m343.226 284.21c-16.841 4.816-38.226 3.92-56.434-2.369-1.777-.614-3.735-.397-5.363.543l-10.423 6.018c-1.528.882-1.366 3.147.276 3.793 28.454 11.195 63.531 12.733 89.634 3.968 1.712-.575 1.926-2.919.361-3.822l-12.989-7.499c-1.534-.886-3.359-1.12-5.062-.632z" fill="url(#SVGID_39_)"/><path d="m362.315 240.703c8.963 9.606 10.352 20.516 3.764 29.491-1.233 1.679-.805 4.041.999 5.083l12.299 7.101c2.144 1.238 4.875.904 6.608-.865 14.685-14.99 11.944-34.962-7.143-51.219-1.749-1.49-4.265-1.689-6.255-.54l-9.5 5.485c-1.972 1.137-2.325 3.799-.772 5.464z" fill="url(#SVGID_40_)"/></g><path d="m338.804 237.472c-17.501-10.104-43.974-11.201-59.13-2.451s-13.255 24.035 4.245 34.139c17.501 10.104 43.974 11.201 59.13 2.451 15.157-8.75 13.256-24.035-4.245-34.139z" fill="url(#SVGID_41_)"/></g></g></svg>