<svg id="Capa_1" enable-background="new 0 0 512 512" height="512" viewBox="0 0 512 512" width="512" xmlns="http://www.w3.org/2000/svg" xmlns:xlink="http://www.w3.org/1999/xlink"><linearGradient id="SVGID_1_" gradientUnits="userSpaceOnUse" x1="209.349" x2="294.844" y1="332.288" y2="332.288"><stop offset="0" stop-color="#b096ed"/><stop offset=".3485" stop-color="#c7b6ef"/><stop offset=".7689" stop-color="#dfd7f2"/><stop offset="1" stop-color="#e8e3f3"/></linearGradient><linearGradient id="SVGID_2_" gradientUnits="userSpaceOnUse" x1="-15.963" x2="470.498" y1="350.492" y2="69.633"><stop offset="0" stop-color="#b096ed"/><stop offset=".0014" stop-color="#b096ed"/><stop offset=".299" stop-color="#cdbcf3"/><stop offset=".5742" stop-color="#e2d7f7"/><stop offset=".8165" stop-color="#efe8f9"/><stop offset="1" stop-color="#f3eefa"/></linearGradient><linearGradient id="SVGID_3_" gradientUnits="userSpaceOnUse" x1="325.327" x2="325.327" y1="448.276" y2="315.264"><stop offset="0" stop-color="#45356d"/><stop offset=".3855" stop-color="#544081"/><stop offset="1" stop-color="#7e62c0"/></linearGradient><linearGradient id="SVGID_4_" gradientUnits="userSpaceOnUse" x1="323.828" x2="301.592" y1="391.049" y2="348.356"><stop offset="0" stop-color="#fff"/><stop offset=".648" stop-color="#fff" stop-opacity="0"/></linearGradient><linearGradient id="SVGID_5_" gradientUnits="userSpaceOnUse" x1="379.031" x2="312.275" y1="450.166" y2="360.641"><stop offset="0" stop-color="#fff"/><stop offset="1" stop-color="#fff" stop-opacity="0"/></linearGradient><linearGradient id="lg1"><stop offset="0" stop-color="#45356d"/><stop offset=".1612" stop-color="#544081"/><stop offset="1" stop-color="#7e62c0"/></linearGradient><linearGradient id="SVGID_6_" gradientUnits="userSpaceOnUse" x1="335.854" x2="355.721" xlink:href="#lg1" y1="258.092" y2="258.092"/><linearGradient id="SVGID_7_" gradientUnits="userSpaceOnUse" x1="324.345" x2="358.447" xlink:href="#lg1" y1="264.129" y2="243.628"/><linearGradient id="SVGID_8_" gradientUnits="userSpaceOnUse" x1="297.731" x2="317.597" xlink:href="#lg1" y1="235.997" y2="235.997"/><linearGradient id="SVGID_9_" gradientUnits="userSpaceOnUse" x1="286.222" x2="320.324" xlink:href="#lg1" y1="242.034" y2="221.533"/><linearGradient id="SVGID_10_" gradientUnits="userSpaceOnUse" x1="384.623" x2="404.49" xlink:href="#lg1" y1="230.118" y2="230.118"/><linearGradient id="SVGID_11_" gradientUnits="userSpaceOnUse" x1="373.114" x2="407.216" xlink:href="#lg1" y1="236.155" y2="215.653"/><linearGradient id="SVGID_12_" gradientUnits="userSpaceOnUse" x1="346.5" x2="366.366" xlink:href="#lg1" y1="208.023" y2="208.023"/><linearGradient id="SVGID_13_" gradientUnits="userSpaceOnUse" x1="334.991" x2="369.093" xlink:href="#lg1" y1="214.06" y2="193.559"/><linearGradient id="SVGID_14_" gradientUnits="userSpaceOnUse" x1="433.392" x2="453.259" xlink:href="#lg1" y1="202.144" y2="202.144"/><linearGradient id="SVGID_15_" gradientUnits="userSpaceOnUse" x1="421.884" x2="455.985" xlink:href="#lg1" y1="208.181" y2="187.679"/><linearGradient id="SVGID_16_" gradientUnits="userSpaceOnUse" x1="395.269" x2="415.136" y1="180.049" y2="180.049"><stop offset="0" stop-color="#c62834"/><stop offset="1" stop-color="#ff4557"/></linearGradient><linearGradient id="SVGID_17_" gradientUnits="userSpaceOnUse" x1="383.76" x2="417.862" y1="186.086" y2="165.585"><stop offset="0" stop-color="#ff4557"/><stop offset="1" stop-color="#ff7b86"/></linearGradient><g><g><path d="m0 194.301v124.225c0 7.16 3.543 14.32 10.63 18.411l221.129 127.669c15.001 8.661 33.482 8.661 48.483 0l221.128-127.668c7.086-4.091 10.63-11.251 10.63-18.411v-125.053z" fill="url(#SVGID_1_)"/><path d="m10.63 175.062 221.128-127.668c15.001-8.661 33.482-8.661 48.483 0l221.129 127.668c14.173 8.183 14.173 28.64 0 36.822l-221.128 127.669c-15.001 8.661-33.482 8.661-48.483 0l-221.129-127.668c-14.173-8.183-14.173-28.64 0-36.823z" fill="url(#SVGID_2_)"/><path d="m269.505 230.063 137.335-78.752c4.476-2.584 9.991-2.584 14.468 0l65.987 38.098c4.229 2.442 4.229 8.546 0 10.988l-137.335 78.752c-4.476 2.585-9.992 2.585-14.468 0l-65.987-38.098c-4.229-2.442-4.229-8.546 0-10.988z" fill="#45356d"/></g><g><ellipse cx="325.327" cy="377.807" fill="#322650" rx="61.742" ry="34.93" transform="matrix(.392 -.92 .92 .392 -149.697 529.229)"/><path d="m359.606 358.016c0-25.243-15.348-36.845-34.28-25.915s-34.28 40.254-34.28 65.497 15.348 36.845 34.28 25.915 34.28-40.254 34.28-65.497z" fill="url(#SVGID_3_)"/><ellipse cx="326.559" cy="379.741" fill="#45356d" rx="45.656" ry="25.829" transform="matrix(.392 -.92 .92 .392 -150.727 531.538)"/><path d="m353.711 361.019c0-11.016-3.37-19.036-8.81-23.082-5.053-2.369-11.422-1.844-18.342 2.152-16.425 9.483-29.74 34.923-29.74 56.823 0 11.016 3.37 19.036 8.81 23.082 5.053 2.369 11.421 1.844 18.342-2.151 16.425-9.484 29.74-34.925 29.74-56.824z" fill="#5e4990"/><ellipse cx="323.971" cy="378.189" fill="#45356d" rx="24.925" ry="14.101" transform="matrix(.392 -.92 .92 .392 -150.873 528.213)"/><path d="m330.855 374.214c0-5.069-3.082-7.399-6.884-5.204s-6.884 8.084-6.884 13.153 3.082 7.399 6.884 5.204c3.802-2.194 6.884-8.083 6.884-13.153z" fill="#322650"/><path d="m319.571 365.684c0-5.069-3.082-7.399-6.884-5.204s-6.884 8.084-6.884 13.153 3.082 7.399 6.884 5.204 6.884-8.084 6.884-13.153z" fill="url(#SVGID_4_)"/><path d="m344.901 337.937c-5.053-2.369-11.422-1.844-18.342 2.152-16.425 9.483-29.74 34.923-29.74 56.823 0 5.185.754 9.696 2.112 13.451l53.489-60.166c-1.453-5.519-4.067-9.693-7.519-12.26z" fill="url(#SVGID_5_)"/></g><g fill="#322650"><path d="m382.443 315.839 112.341-64.86c2.155-1.244 4.849.311 4.849 2.8 0 3.93-2.097 7.562-5.5 9.527l-112.341 64.86c-2.155 1.244-4.849-.311-4.849-2.8 0-3.93 2.097-7.562 5.5-9.527z"/><path d="m382.443 340.441 112.341-64.86c2.155-1.244 4.849.311 4.849 2.8 0 3.93-2.097 7.561-5.5 9.527l-112.341 64.86c-2.155 1.244-4.849-.311-4.849-2.8 0-3.93 2.097-7.562 5.5-9.527z"/><path d="m382.443 365.043 112.341-64.86c2.155-1.244 4.849.311 4.849 2.8 0 3.93-2.097 7.562-5.5 9.527l-112.341 64.86c-2.155 1.244-4.849-.311-4.849-2.8 0-3.93 2.097-7.562 5.5-9.527z"/><g><path d="m216.867 366.28-196.299-113.337c-2.155-1.244-4.849.311-4.849 2.8 0 3.93 2.097 7.561 5.5 9.527l196.299 113.336c2.155 1.244 4.849-.311 4.849-2.8 0-3.93-2.097-7.561-5.5-9.526z"/><path d="m216.867 390.881-196.299-113.336c-2.155-1.244-4.849.311-4.849 2.8 0 3.93 2.097 7.562 5.5 9.527l196.299 113.336c2.155 1.244 4.849-.311 4.849-2.8 0-3.93-2.097-7.562-5.5-9.527z"/><path d="m216.867 415.483-196.299-113.336c-2.155-1.244-4.849.311-4.849 2.8 0 3.93 2.097 7.561 5.5 9.526l196.299 113.337c2.155 1.244 4.849-.311 4.849-2.8 0-3.93-2.097-7.562-5.5-9.527z"/></g></g><g><g><path d="m328.174 251.931 38.122-3.119v6.055l-.018.001c-.037 3.028-2.247 6.212-6.564 8.704-7.958 4.595-19.996 5.094-26.888 1.115-3.148-1.817-4.659-4.255-4.634-6.805l-.018.001z" fill="url(#SVGID_6_)"/><path d="m334.757 243.163c7.958-4.595 19.996-5.094 26.888-1.115s6.028 10.929-1.931 15.524c-7.958 4.594-19.996 5.094-26.888 1.115s-6.027-10.929 1.931-15.524z" fill="url(#SVGID_7_)"/></g><g><path d="m290.051 229.836 38.122-3.119v6.055l-.018.001c-.037 3.028-2.247 6.212-6.564 8.704-7.958 4.595-19.996 5.094-26.888 1.115-3.147-1.817-4.659-4.255-4.634-6.805l-.018.001z" fill="url(#SVGID_8_)"/><path d="m296.633 221.068c7.958-4.594 19.996-5.094 26.888-1.115s6.027 10.929-1.931 15.524-19.996 5.094-26.888 1.115c-6.891-3.979-6.027-10.929 1.931-15.524z" fill="url(#SVGID_9_)"/></g><g><path d="m376.944 223.957 38.122-3.119v6.054l-.018.002c-.037 3.028-2.247 6.212-6.564 8.704-7.958 4.595-19.996 5.094-26.888 1.115-3.148-1.817-4.659-4.256-4.634-6.805l-.018.001z" fill="url(#SVGID_10_)"/><path d="m383.526 215.189c7.958-4.595 19.996-5.094 26.888-1.115s6.028 10.929-1.931 15.524c-7.958 4.595-19.996 5.094-26.888 1.115s-6.027-10.93 1.931-15.524z" fill="url(#SVGID_11_)"/></g><g><path d="m338.82 201.862 38.122-3.119v6.055l-.018.001c-.037 3.028-2.247 6.212-6.564 8.704-7.958 4.595-19.996 5.094-26.888 1.115-3.148-1.817-4.659-4.255-4.634-6.805l-.018.001z" fill="url(#SVGID_12_)"/><path d="m345.403 193.094c7.958-4.594 19.996-5.094 26.888-1.115s6.028 10.929-1.93 15.524-19.996 5.094-26.888 1.115c-6.893-3.979-6.029-10.929 1.93-15.524z" fill="url(#SVGID_13_)"/></g><g><path d="m425.713 195.982 38.122-3.119v6.055l-.018.002c-.037 3.028-2.247 6.212-6.564 8.704-7.958 4.595-19.996 5.094-26.888 1.115-3.148-1.817-4.659-4.255-4.634-6.805l-.018.001z" fill="url(#SVGID_14_)"/><path d="m432.295 187.215c7.958-4.595 19.996-5.094 26.888-1.115s6.027 10.929-1.931 15.524c-7.958 4.594-19.996 5.094-26.888 1.115-6.891-3.979-6.027-10.93 1.931-15.524z" fill="url(#SVGID_15_)"/></g><g><path d="m387.589 173.888 38.122-3.119v6.055l-.018.001c-.037 3.028-2.247 6.212-6.564 8.704-7.958 4.595-19.996 5.094-26.888 1.115-3.148-1.817-4.659-4.255-4.634-6.805l-.018.001z" fill="url(#SVGID_16_)"/><path d="m394.172 165.12c7.958-4.595 19.996-5.094 26.888-1.115s6.028 10.929-1.931 15.524c-7.958 4.595-19.996 5.094-26.888 1.115s-6.027-10.929 1.931-15.524z" fill="url(#SVGID_17_)"/></g></g></g></svg>