<svg id="Capa_1" enable-background="new 0 0 512 512" height="512" viewBox="0 0 512 512" width="512" xmlns="http://www.w3.org/2000/svg" xmlns:xlink="http://www.w3.org/1999/xlink"><linearGradient id="SVGID_1_" gradientUnits="userSpaceOnUse" x1="206.844" x2="231.739" y1="185.992" y2="142.872"><stop offset=".0319" stop-color="#a996eb"/><stop offset=".2213" stop-color="#bfb3eb"/><stop offset=".4108" stop-color="#d1c9eb"/><stop offset=".5321" stop-color="#d7d1eb"/><stop offset="1" stop-color="#e9e5f6"/></linearGradient><linearGradient id="SVGID_2_" gradientUnits="userSpaceOnUse" x1="242.089" x2="242.089" y1="770.501" y2="24.829"><stop offset="0" stop-color="#dfdaef"/><stop offset="1" stop-color="#fff"/></linearGradient><linearGradient id="lg1"><stop offset="0" stop-color="#7662bd"/><stop offset="1" stop-color="#7662bd" stop-opacity="0"/></linearGradient><linearGradient id="SVGID_3_" gradientUnits="userSpaceOnUse" x1="319.392" x2="319.392" xlink:href="#lg1" y1="276.247" y2="332.074"/><linearGradient id="SVGID_4_" gradientUnits="userSpaceOnUse" x1="288.125" x2="338.223" xlink:href="#lg1" y1="323.401" y2="404.387"/><linearGradient id="lg2"><stop offset=".0319" stop-color="#ff7a85"/><stop offset=".1791" stop-color="#ff7f89"/><stop offset="1" stop-color="#ff959d"/></linearGradient><linearGradient id="SVGID_5_" gradientUnits="userSpaceOnUse" x1="274.743" x2="353.874" xlink:href="#lg2" y1="392.612" y2="255.553"/><linearGradient id="SVGID_6_" gradientUnits="userSpaceOnUse" x1="352.24" x2="371.564" xlink:href="#lg2" y1="247.913" y2="214.443"/><linearGradient id="SVGID_7_" gradientUnits="userSpaceOnUse" x1="292.484" x2="303.967" xlink:href="#lg2" y1="299.938" y2="280.049"/><linearGradient id="SVGID_8_" gradientUnits="userSpaceOnUse" x1="336.783" x2="336.783" y1="407.989" y2="182.764"><stop offset="0" stop-color="#ab2c37"/><stop offset="1" stop-color="#ff4757"/></linearGradient><linearGradient id="lg3"><stop offset=".0319" stop-color="#5d3645"/><stop offset="1" stop-color="#5d3645" stop-opacity="0"/></linearGradient><linearGradient id="SVGID_9_" gradientUnits="userSpaceOnUse" x1="307.53" x2="304.358" xlink:href="#lg3" y1="316.663" y2="330.122"/><linearGradient id="SVGID_10_" gradientUnits="userSpaceOnUse" x1="334.929" x2="365.617" xlink:href="#lg3" y1="341.769" y2="365.288"/><g><path d="m346.319 8.371-12.203-7.26c-2.408-1.576-5.625-1.533-9.162.509l-189.955 109.67c-7.459 4.307-13.506 15.861-13.506 25.806v355.875c0 5.875 2.111 9.874 5.377 11.275l5.768 3.505 5.061 2.963z" fill="url(#SVGID_1_)"/><path d="m337.067 400.708-189.956 109.671c-7.459 4.307-13.506-.265-13.506-10.21v-355.875c0-9.946 6.047-21.499 13.506-25.806l189.956-109.671c7.459-4.307 13.506.265 13.506 10.21v355.875c0 9.946-6.047 21.5-13.506 25.806z" fill="url(#SVGID_2_)"/><g><path d="m259.393 96.582-96.733 55.698c-4.197 2.423-7.599 8.923-7.599 14.519 0 5.596 3.402 8.167 7.599 5.745l96.733-55.698c4.197-2.423 7.599-8.923 7.599-14.519 0-5.596-3.402-8.167-7.599-5.745z" fill="#43386b"/></g><g><path d="m321.517 124.887-158.857 92.977c-4.197 2.423-7.599 8.923-7.599 14.519 0 5.596 3.402 8.167 7.599 5.745l158.857-92.977c4.197-2.423 7.599-8.923 7.599-14.519 0-5.596-3.402-8.168-7.599-5.745z" fill="#43386b"/></g><g><path d="m321.517 182.419-158.857 92.977c-4.197 2.423-7.599 8.923-7.599 14.519 0 5.596 3.402 8.167 7.599 5.745l158.857-92.977c4.197-2.423 7.599-8.923 7.599-14.519 0-5.596-3.402-8.168-7.599-5.745z" fill="#43386b"/></g><g><path d="m321.517 239.951-158.857 92.977c-4.197 2.423-7.599 8.923-7.599 14.519 0 5.596 3.402 8.168 7.599 5.745l158.857-92.977c4.197-2.423 7.599-8.923 7.599-14.519 0-5.596-3.402-8.168-7.599-5.745z" fill="#43386b"/></g><g><path d="m267.758 285.312v18.254c-.027.678-.023 1.339 0 1.988v.092h.005c.178 4.544 1.587 8.309 4.25 10.322l21.092 15.945s-25.781 53.412-25.257 58.855v15.672c-.144 1.662-.145 3.259 0 4.753v.039l.003-.014c.385 3.934 1.767 7.158 4.162 8.969 2.859 2.161 6.606 1.904 10.354-.26 3.747-2.163 7.495-6.234 10.354-11.696l28.729-54.891 28.728 21.718c2.859 2.162 6.606 1.904 10.354-.26 3.747-2.163 7.495-6.233 10.354-11.696 4.882-9.328-103.349-83.004-103.128-77.79z" fill="url(#SVGID_3_)"/><path d="m349.793 299.185-56.688 32.728-21.092 40.3c-3.309 6.322-4.689 13.113-4.164 18.555v15.672c-.144 1.662-.145 3.259 0 4.753v.039l.003-.014c.385 3.934 1.767 7.158 4.162 8.969 2.86 2.161 6.606 1.904 10.354-.26 3.747-2.163 7.495-6.234 10.354-11.696l28.729-54.891 28.728 21.718c.122.092.255.155.381.239.002-.132.015-.265.015-.396v-74.055c-.498-1.065-.782-1.661-.782-1.661z" fill="url(#SVGID_4_)"/><path d="m342.157 293.596 43.057-74.292-14.99-8.656.001.033c-5.75-3.476-14.541 1.85-20.046 12.37l-28.729 54.891-14.263-13.434-15.231-8.794.023.043c-5.752-3.375-14.485 1.953-19.964 12.422-5.718 10.926-5.718 23.287 0 27.61l28.728 21.718-28.728 54.891c-5.718 10.926-5.718 23.287 0 27.61.378.286 16.229 9.43 16.229 9.43l33.207-76.276 30.064 22.525 14.364 8.304z" fill="url(#SVGID_5_)"/><path d="m370.224 210.68c-5.75-3.476-14.541 1.85-20.046 12.37l-27.701 52.927 14.306 10.815 48.43-67.489-14.99-8.656z" fill="url(#SVGID_6_)"/><path d="m291.978 255.757c-5.752-3.375-14.485 1.953-19.964 12.422-5.718 10.926-5.718 23.287 0 27.61l28.728 21.718 15.334 8.851-8.89-61.85-15.231-8.794z" fill="url(#SVGID_7_)"/><path d="m357.491 302.447 28.728-54.891c5.718-10.926 5.718-23.287 0-27.61s-14.989 1.03-20.707 11.956l-28.729 54.891-28.728-21.718c-5.718-4.323-14.99 1.03-20.707 11.955-5.718 10.926-5.718 23.287 0 27.61l28.728 21.718-28.728 54.891c-5.718 10.926-5.718 23.287 0 27.61 2.859 2.162 6.606 1.904 10.354-.259 3.747-2.163 7.495-6.234 10.354-11.696l28.728-54.891 28.729 21.718c2.859 2.161 6.606 1.904 10.353-.26 3.747-2.163 7.495-6.233 10.354-11.696 5.718-10.926 5.718-23.287 0-27.61z" fill="url(#SVGID_8_)"/><path d="m293.105 331.914h20.063l2.908-5.556-15.334-8.851z" fill="url(#SVGID_9_)"/><path d="m335.792 343.907 15.722 11.779 13.959 8.069c.018-.011.04-.025.04-.025l-28.729-21.718z" fill="url(#SVGID_10_)"/></g></g></svg>