<svg id="Capa_1" enable-background="new 0 0 512 512" height="512" viewBox="0 0 512 512" width="512" xmlns="http://www.w3.org/2000/svg" xmlns:xlink="http://www.w3.org/1999/xlink"><linearGradient id="lg1"><stop offset="0" stop-color="#ab2c37"/><stop offset="1" stop-color="#ff4757"/></linearGradient><linearGradient id="SVGID_1_" gradientUnits="userSpaceOnUse" x1="418.502" x2="500.639" xlink:href="#lg1" y1="143.143" y2="95.72"/><linearGradient id="lg2"><stop offset="0" stop-color="#236568"/><stop offset="1" stop-color="#2f878a"/></linearGradient><linearGradient id="SVGID_00000045585643624601803050000008833755173471597204_" gradientUnits="userSpaceOnUse" x1="230.436" x2="279.171" xlink:href="#lg2" y1="298.014" y2="269.877"/><linearGradient id="SVGID_00000048503033043119615580000005167847043918457273_" gradientUnits="userSpaceOnUse" x1="339.767" x2="354.74" xlink:href="#lg1" y1="175.74" y2="149.806"/><linearGradient id="SVGID_00000129194286074903020240000016420918530343679658_" gradientUnits="userSpaceOnUse" x1="127.06" x2="170.432" xlink:href="#lg2" y1="311.934" y2="236.811"/><linearGradient id="SVGID_00000063609859683691271190000015223485428676741507_" gradientUnits="userSpaceOnUse" x1="31.347" x2="52.208" xlink:href="#lg2" y1="398.29" y2="362.157"/><linearGradient id="SVGID_00000066494686428546699480000014370676482976388999_" gradientUnits="userSpaceOnUse" x1="213.021" x2="256.85" xlink:href="#lg2" y1="224.438" y2="199.133"/><linearGradient id="SVGID_00000146471727333981724710000013571007085652744355_" gradientUnits="userSpaceOnUse" x1="420.717" x2="420.717" y1="420.178" y2="182.273"><stop offset="0" stop-color="#ff4757"/><stop offset="1" stop-color="#ff7a85"/></linearGradient><linearGradient id="SVGID_00000091704749696265337530000003694030767509995702_" gradientUnits="userSpaceOnUse" x1="162.331" x2="162.331" y1="420.178" y2="182.273"><stop offset="0" stop-color="#2f878a"/><stop offset="1" stop-color="#06daae"/></linearGradient><g><path d="m440.284 157.21 66.24-37.445-43.177-24.921-.004.002c-2.833-1.507-6.473-1.298-10.446.995l-35.663 20.59z" fill="url(#SVGID_1_)"/><path d="m276.476 291.575-43.055-24.838-13.747 17.764 5.009 46.387z" fill="url(#SVGID_00000045585643624601803050000008833755173471597204_)"/><path d="m422.805 119.63-5.571-3.198-37.725-21.795-.002.004c-11.272-6.355-25.908-5.678-41.909 3.56l-39.984 23.085c-6.041 3.488-10.939 12.846-10.939 20.901v142.835c0 4.627 1.621 7.806 4.141 9.023l-.003.007 42.717 24.663z" fill="url(#SVGID_00000048503033043119615580000005167847043918457273_)"/><path d="m233.079 266.54 43.616-50.934-77.577-10.42-20.417-11.786-.006.007c-1.907-1.055-4.371-.939-7.068.617l-39.984 23.085c-29.975 17.306-55.17 59.118-62.407 100.239l-52.892 30.537c-9.026 5.212-16.344 19.195-16.344 31.231 0 6.239 1.977 10.709 5.128 12.863l43.354 24.935 40.191-24.859 41.941 24.161z" fill="url(#SVGID_00000129194286074903020240000016420918530343679658_)"/><path d="m69.237 317.348-52.892 30.537c-9.027 5.212-16.345 19.195-16.345 31.231 0 6.239 1.977 10.709 5.128 12.863l43.354 24.935 63.513-74.884z" fill="url(#SVGID_00000063609859683691271190000015223485428676741507_)"/><path d="m223.231 244.503 52.9-29.223-43.007-24.826c-2.815-1.436-6.406-1.203-10.322 1.058l-23.684 13.674 22.871 13.235z" fill="url(#SVGID_00000066494686428546699480000014370676482976388999_)"/><path d="m495.655 120.523-52.892 30.537c-7.237-32.765-32.432-45.484-62.407-28.178l-39.984 23.085c-6.041 3.488-10.939 12.846-10.939 20.901v142.835c0 8.055 4.898 11.757 10.939 8.269l39.984-23.085c29.975-17.306 55.17-59.118 62.407-100.239l52.892-30.537c9.027-5.211 16.345-19.194 16.345-31.231 0-12.036-7.318-17.568-16.345-12.357z" fill="url(#SVGID_00000146471727333981724710000013571007085652744355_)"/><path d="m265.56 216.193-40.235 23.23v-12.448c0-8.055-4.898-11.758-10.939-8.27l-39.984 23.085c-29.975 17.306-55.17 59.118-62.407 100.239l-52.891 30.537c-9.028 5.212-16.346 19.195-16.346 31.231s7.318 17.569 16.346 12.357l52.891-30.537c7.237 32.765 32.432 45.484 62.407 28.178l39.984-23.085c6.041-3.488 10.939-12.846 10.939-20.901v-10.688l40.235-23.23c9.027-5.212 16.345-19.195 16.345-31.231s-7.318-17.569-16.345-12.357l-40.235 23.23v-32.524l40.235-23.23c9.027-5.212 16.345-19.194 16.345-31.231 0-12.034-7.318-17.566-16.345-12.355z" fill="url(#SVGID_00000091704749696265337530000003694030767509995702_)"/></g></svg>