<svg id="Capa_1" enable-background="new 0 0 512 512" height="512" viewBox="0 0 512 512" width="512" xmlns="http://www.w3.org/2000/svg" xmlns:xlink="http://www.w3.org/1999/xlink"><linearGradient id="SVGID_1_" gradientUnits="userSpaceOnUse" x1="226.811" x2="251.707" y1="185.992" y2="142.872"><stop offset=".0319" stop-color="#a996eb"/><stop offset=".2213" stop-color="#bfb3eb"/><stop offset=".4108" stop-color="#d1c9eb"/><stop offset=".5321" stop-color="#d7d1eb"/><stop offset="1" stop-color="#e9e5f6"/></linearGradient><linearGradient id="SVGID_2_" gradientUnits="userSpaceOnUse" x1="262.056" x2="262.056" y1="770.501" y2="24.829"><stop offset="0" stop-color="#dfdaef"/><stop offset="1" stop-color="#fff"/></linearGradient><g><g><path d="m366.287 8.371-12.203-7.26c-2.408-1.576-5.625-1.533-9.162.509l-189.956 109.67c-7.459 4.307-13.506 15.861-13.506 25.806v355.875c0 5.875 2.111 9.874 5.376 11.275l5.768 3.505 5.061 2.963z" fill="url(#SVGID_1_)"/><path d="m357.034 400.708-189.956 109.671c-7.459 4.307-13.506-.265-13.506-10.21v-355.875c0-9.946 6.047-21.499 13.506-25.806l189.956-109.671c7.459-4.307 13.506.265 13.506 10.21v355.875c0 9.946-6.047 21.5-13.506 25.806z" fill="url(#SVGID_2_)"/><g><path d="m279.361 96.582-96.733 55.698c-4.197 2.423-7.599 8.923-7.599 14.519 0 5.596 3.402 8.167 7.599 5.745l96.733-55.698c4.197-2.423 7.599-8.923 7.599-14.519-.001-5.596-3.403-8.167-7.599-5.745z" fill="#c5baeb"/></g><g><path d="m341.485 124.887-158.857 92.977c-4.197 2.423-7.599 8.923-7.599 14.519 0 5.596 3.402 8.167 7.599 5.745l158.857-92.977c4.197-2.423 7.599-8.923 7.599-14.519-.001-5.596-3.403-8.168-7.599-5.745z" fill="#c5baeb"/></g><g><path d="m341.485 182.419-158.857 92.977c-4.197 2.423-7.599 8.923-7.599 14.519 0 5.596 3.402 8.167 7.599 5.745l158.857-92.977c4.197-2.423 7.599-8.923 7.599-14.519-.001-5.596-3.403-8.168-7.599-5.745z" fill="#c5baeb"/></g><g><path d="m341.485 239.951-158.857 92.977c-4.197 2.423-7.599 8.923-7.599 14.519 0 5.596 3.402 8.168 7.599 5.745l158.857-92.977c4.197-2.423 7.599-8.923 7.599-14.519-.001-5.596-3.403-8.168-7.599-5.745z" fill="#c5baeb"/></g></g><g><g><path d="m412.318 294.15-312.636 180.501c-4.783 2.761-8.66-.17-8.66-6.547v-173.885c0-6.377 3.877-13.785 8.66-16.547l312.636-180.501c4.783-2.761 8.66.17 8.66 6.547v173.885c.001 6.377-3.877 13.786-8.66 16.547zm-303.976 152.407 295.316-170.501v-150.791l-295.316 170.501z" fill="#ab2c37"/></g><g fill="#ab2c37"><path d="m144.151 313.104v30.353l31.871-18.401c4.417-2.55 7.998.157 7.998 6.047 0 5.89-3.581 12.732-7.998 15.283l-31.871 18.401v28.549c0 7.34-4.462 15.866-9.967 19.044-5.505 3.178-9.967-.195-9.967-7.535v-101.56l57.097-32.965c4.417-2.55 7.998.157 7.998 6.047 0 5.89-3.581 12.732-7.998 15.283z"/><path d="m256.004 317.435-39.992 23.09-5.268 20.033c-1.43 5.436-4.803 10.392-8.545 12.552-6.695 3.865-11.171-2.744-8.445-12.471l28.584-102.009c2.439-8.705 7.87-16.54 13.861-19.999 5.985-3.455 11.411-1.898 13.854 3.976l28.678 68.958c2.735 6.576-1.741 18.365-8.441 22.233l-.473.273c-3.742 2.161-7.115 1.1-8.545-2.685zm-6.275-16.558-13.659-36.085-13.659 51.857z"/><path d="m303.498 199.776c5.506-3.179 9.968.195 9.968 7.535v88.27c0 7.34-4.463 15.866-9.967 19.044h-.001c-5.505 3.178-9.967-.195-9.967-7.535v-88.27c0-7.34 4.462-15.866 9.967-19.044z"/><path d="m343.857 176.474c5.505-3.178 9.967.195 9.967 7.535v79.903l35.071-20.248c4.485-2.59 8.122.159 8.122 6.14 0 5.98-3.636 12.928-8.122 15.518l-55.005 31.757v-101.56c0-7.34 4.462-15.866 9.967-19.045z"/></g></g></g></svg>