<svg id="Capa_1" enable-background="new 0 0 512 512" height="512" viewBox="0 0 512 512" width="512" xmlns="http://www.w3.org/2000/svg" xmlns:xlink="http://www.w3.org/1999/xlink"><linearGradient id="SVGID_1_" gradientUnits="userSpaceOnUse" x1="154.673" x2="179.198" y1="414.579" y2="414.579"><stop offset="0" stop-color="#b096ed"/><stop offset=".1013" stop-color="#b69fed"/><stop offset=".4532" stop-color="#c9bbec"/><stop offset=".7644" stop-color="#d5cbec"/><stop offset="1" stop-color="#d9d1ec"/></linearGradient><linearGradient id="SVGID_2_" gradientUnits="userSpaceOnUse" x1="165.25" x2="200.913" y1="395.674" y2="457.444"><stop offset="0" stop-color="#b096ed"/><stop offset=".2191" stop-color="#bba4ef"/><stop offset=".6301" stop-color="#d6c8f4"/><stop offset="1" stop-color="#f3eefa"/></linearGradient><linearGradient id="lg1"><stop offset="0" stop-color="#b096ed"/><stop offset=".0014" stop-color="#b096ed"/><stop offset=".299" stop-color="#cdbcf3"/><stop offset=".5742" stop-color="#e2d7f7"/><stop offset=".8165" stop-color="#efe8f9"/><stop offset="1" stop-color="#f3eefa"/></linearGradient><linearGradient id="SVGID_3_" gradientUnits="userSpaceOnUse" x1="91.941" x2="117.703" xlink:href="#lg1" y1="228.647" y2="184.026"/><linearGradient id="SVGID_4_" gradientUnits="userSpaceOnUse" x1="258.958" x2="149.257" xlink:href="#lg1" y1="370.331" y2="180.324"/><linearGradient id="SVGID_5_" gradientUnits="userSpaceOnUse" x1="217.677" x2="144.869" y1="394.216" y2="22.516"><stop offset="0" stop-color="#5e4990"/><stop offset=".378" stop-color="#6f56aa"/><stop offset=".7319" stop-color="#7a5fba"/><stop offset="1" stop-color="#7e62c0"/></linearGradient><linearGradient id="lg2"><stop offset="0" stop-color="#45356d"/><stop offset=".3855" stop-color="#544081"/><stop offset="1" stop-color="#7e62c0"/></linearGradient><linearGradient id="SVGID_6_" gradientUnits="userSpaceOnUse" x1="294.595" x2="313.562" xlink:href="#lg2" y1="380.759" y2="347.908"/><linearGradient id="lg3"><stop offset="0" stop-color="#322650"/><stop offset=".3855" stop-color="#45356d"/><stop offset="1" stop-color="#5e4990"/></linearGradient><linearGradient id="SVGID_7_" gradientUnits="userSpaceOnUse" x1="284.037" x2="303.001" xlink:href="#lg3" y1="374.641" y2="341.795"/><linearGradient id="SVGID_8_" gradientUnits="userSpaceOnUse" x1="330.568" x2="361.782" y1="417.153" y2="363.088"><stop offset="0" stop-color="#c9baec"/><stop offset=".3855" stop-color="#e8e3f3"/><stop offset="1" stop-color="#e8e3f3"/></linearGradient><linearGradient id="SVGID_9_" gradientUnits="userSpaceOnUse" x1="423.863" x2="388.727" y1="453.632" y2="254.98"><stop offset="0" stop-color="#c9baec"/><stop offset=".3855" stop-color="#e8e3f3"/><stop offset="1" stop-color="#fff"/></linearGradient><linearGradient id="SVGID_10_" gradientUnits="userSpaceOnUse" x1="245.323" x2="245.323" xlink:href="#lg3" y1="430.137" y2="386.322"/><linearGradient id="SVGID_11_" gradientTransform="matrix(.866 .5 0 1.155 -156.359 1207.209)" gradientUnits="userSpaceOnUse" x1="461.918" x2="446.684" xlink:href="#lg2" y1="-839.992" y2="-918.913"/><linearGradient id="SVGID_12_" gradientTransform="matrix(.866 .5 0 1.155 -156.359 1207.209)" gradientUnits="userSpaceOnUse" x1="458.596" x2="448.988" y1="-857.202" y2="-906.977"><stop offset="0" stop-color="#d9d1ec"/><stop offset=".3855" stop-color="#e8e3f3"/><stop offset="1" stop-color="#f3eefa"/></linearGradient><g><g><g><g><path d="m277.515 434.906v10.275c0 1.775-.947 3.416-2.485 4.303l-103.738 59.89c-6.065 3.501-13.537 3.501-19.602-.001l-40.429-23.344c-10.916-6.303-17.64-17.95-17.64-30.555v-68.316l121.245-70.001 8.432 4.868-30.905 100.829z" fill="url(#SVGID_1_)"/><path d="m274.83 430.727-33.891-19.567c-10.917-6.303-17.641-17.95-17.641-30.556v-58.579l-121.395 70.087v58.579c0 12.605 6.725 24.253 17.641 30.556l32.144 18.558c6.065 3.501 13.537 3.501 19.602 0l103.54-59.779c3.58-2.066 3.58-7.232 0-9.299z" fill="url(#SVGID_2_)"/></g><path d="m332.515 18.849-29.48-17.021-.007.009c-3.276-2.151-7.655-2.594-11.533-.355l-275.399 159.001c-8.494 4.904-13.726 13.967-13.726 23.775v256.059c0 4.05 2.108 7.357 5.099 9.259l31.407 18.148z" fill="url(#SVGID_3_)"/><path d="m32.758 457.872v-256.059c0-9.808 5.232-18.87 13.726-23.774l275.398-159.002c7.332-4.233 16.496 1.058 16.496 9.524v256.059c0 9.808-5.232 18.87-13.726 23.774l-275.398 159.002c-7.332 4.233-16.496-1.058-16.496-9.524z" fill="url(#SVGID_4_)"/><path d="m321.882 19.037-275.398 159.001c-8.494 4.904-13.726 13.967-13.726 23.774v231.321l305.621-176.45v-228.122c-.001-8.466-9.165-13.757-16.497-9.524z" fill="url(#SVGID_5_)"/><path d="m319.027 43.03v195.496c0 2.885-1.552 5.573-4.05 7.015l-262.868 151.767v-195.496c0-2.885 1.552-5.573 4.05-7.015z" fill="#45356d"/></g></g><g><path d="m377.947 242.945c-21.317 28.792-52.013 49.244-86.794 57.827l-26.529 6.547c-27.668 6.828-47.109 31.65-47.109 60.148v44.52c0 10.113 3.358 17.236 8.664 20.328l55.239 31.929 182.398-213.184-33.081-19.087c-17.827-10.292-40.539-5.571-52.788 10.972z" fill="url(#SVGID_6_)"/><path d="m229.437 418.916v-44.52c0-28.498 19.441-53.32 47.109-60.148l26.529-6.547c34.781-8.584 65.477-29.035 86.794-57.827 12.249-16.544 34.961-21.264 52.787-10.972l-11.922-6.928c-17.827-10.292-40.539-5.572-52.787 10.972-21.317 28.792-52.013 49.243-86.794 57.827l-26.529 6.547c-27.668 6.828-47.109 31.65-47.109 60.148v44.52c0 10.113 3.358 17.236 8.664 20.328l11.113 6.406c-4.833-3.326-7.855-10.219-7.855-19.806z" fill="url(#SVGID_7_)"/><path d="m320.225 486.585 180.019-214.592-36.428-20.933c-.461-.144-10.487-4.715-18.736.047l-147.384 85.092c-13.907 8.029-25.181 29.57-25.181 48.113v59.468c0 10.264 3.459 17.451 8.902 20.466 0 0-.003.001-.009.002z" fill="url(#SVGID_8_)"/><path d="m484.449 273.68-147.384 85.092c-13.907 8.029-25.181 29.57-25.181 48.113v59.468c0 18.543 11.274 27.066 25.181 19.036l147.384-85.092c13.907-8.029 25.181-29.57 25.181-48.113v-59.468c0-18.543-11.274-27.066-25.181-19.036z" fill="url(#SVGID_9_)"/><g><path d="m266.958 413.145c0-13.518-8.219-29.221-18.357-35.075-4.876-2.815-9.305-2.832-12.593-.594l-.002-.004-12.32 7.113 24.448 50.63 11.76-6.857-.001-.003c4.299-1.997 7.065-7.372 7.065-15.21z" fill="url(#SVGID_10_)"/><path d="m254.229 420.521c0-13.518-8.219-29.221-18.357-35.074s-18.357.36-18.357 13.878 8.219 29.221 18.357 35.074c10.139 5.853 18.357-.361 18.357-13.878z" fill="url(#SVGID_11_)"/><path d="m247.45 416.607c0-8.526-5.184-18.43-11.578-22.121-6.394-3.692-11.578.227-11.578 8.753s5.184 18.43 11.578 22.121 11.578-.228 11.578-8.753z" fill="url(#SVGID_12_)"/></g></g></g></svg>