<svg id="Capa_1" enable-background="new 0 0 512 512" height="512" viewBox="0 0 512 512" width="512" xmlns="http://www.w3.org/2000/svg" xmlns:xlink="http://www.w3.org/1999/xlink"><linearGradient id="lg1"><stop offset="0" stop-color="#a996eb"/><stop offset="1" stop-color="#c5baeb"/></linearGradient><linearGradient id="SVGID_1_" gradientUnits="userSpaceOnUse" x1="414.479" x2="500.79" xlink:href="#lg1" y1="192.087" y2="142.255"/><linearGradient id="SVGID_00000020390938649019193800000001317469523472503696_" gradientUnits="userSpaceOnUse" x1="231.396" x2="308.209" xlink:href="#lg1" y1="216.74" y2="83.694"/><linearGradient id="SVGID_00000151510705655885553510000017184785184003472801_" gradientUnits="userSpaceOnUse" x1="61.884" x2="98.83" xlink:href="#lg1" y1="369.68" y2="305.688"/><linearGradient id="SVGID_00000077319609276374280170000003879142210719980734_" gradientUnits="userSpaceOnUse" x1="383.636" x2="461.26" xlink:href="#lg1" y1="61.781" y2="16.964"/><linearGradient id="SVGID_00000045620718310438272010000018426249371150551720_" gradientUnits="userSpaceOnUse" x1="293.863" x2="293.863" y1="408.445" y2="-12.895"><stop offset="0" stop-color="#d7d1eb"/><stop offset="1" stop-color="#f2effa"/></linearGradient><linearGradient id="lg2"><stop offset="0" stop-color="#ab2c37"/><stop offset="1" stop-color="#ff4757"/></linearGradient><linearGradient id="SVGID_00000003107335309349353060000002214312088955815585_" gradientUnits="userSpaceOnUse" x1="121.799" x2="242.467" xlink:href="#lg2" y1="484.942" y2="275.938"/><linearGradient id="SVGID_00000101082829839967667230000005907719796398806711_" gradientUnits="userSpaceOnUse" x1="239.976" x2="269.443" xlink:href="#lg2" y1="264.288" y2="213.248"/><linearGradient id="SVGID_00000053511096506135405050000015126991190614659463_" gradientUnits="userSpaceOnUse" x1="148.853" x2="166.363" xlink:href="#lg2" y1="343.621" y2="313.292"/><linearGradient id="SVGID_00000103236623996287314950000008020799373380946097_" gradientUnits="userSpaceOnUse" x1="216.405" x2="216.405" y1="508.39" y2="164.94"><stop offset="0" stop-color="#ff4757"/><stop offset="1" stop-color="#ff7a85"/></linearGradient><g><g><path d="m496.018 180.684-76.253-43.989-24.346 31.461 8.871 82.153z" fill="url(#SVGID_1_)"/><path d="m419.16 136.346 77.246-90.207-137.392-18.455-36.16-20.872-.01.012c-3.377-1.869-7.742-1.664-12.517 1.093l-70.813 40.884c-53.087 30.65-97.708 104.7-110.526 177.528l-93.673 54.082c-15.988 9.231-28.949 33.995-28.949 55.311 0 11.05 3.501 18.967 9.081 22.781l76.781 44.161 71.18-44.027 74.279 42.79z" fill="url(#SVGID_00000020390938649019193800000001317469523472503696_)"/><path d="m128.989 226.329-93.673 54.082c-15.988 9.231-28.949 33.995-28.949 55.311 0 11.05 3.501 18.967 9.081 22.781l76.781 44.161 112.484-132.623z" fill="url(#SVGID_00000151510705655885553510000017184785184003472801_)"/><path d="m401.718 97.317 93.687-51.756-76.166-43.967c-4.985-2.543-11.345-2.13-18.28 1.874l-41.945 24.217 40.505 23.44z" fill="url(#SVGID_00000077319609276374280170000003879142210719980734_)"/><path d="m476.684 47.18-71.258 41.14v-22.045c0-14.266-8.674-20.823-19.373-14.646l-70.813 40.884c-53.088 30.65-97.709 104.701-110.526 177.528l-93.673 54.082c-15.988 9.231-28.949 33.995-28.949 55.312s12.96 31.115 28.949 21.885l93.673-54.082c12.818 58.027 57.438 80.554 110.526 49.904l70.813-40.884c10.699-6.177 19.373-22.75 19.373-37.016v-18.928l71.258-41.141c15.988-9.231 28.949-33.995 28.949-55.312s-12.961-31.115-28.949-21.885l-71.258 41.141v-57.6l71.258-41.141c15.988-9.23 28.949-33.994 28.949-55.311 0-21.318-12.961-31.116-28.949-21.885z" fill="url(#SVGID_00000045620718310438272010000018426249371150551720_)"/></g><g><path d="m224.599 333.95 65.658-113.289-22.859-13.2.002.051c-8.768-5.301-22.174 2.822-30.569 18.863l-43.809 83.704-21.75-20.485-23.226-13.41.035.065c-8.771-5.147-22.089 2.978-30.444 18.942-8.72 16.661-8.72 35.511 0 42.103l43.808 33.118-43.808 83.703c-8.72 16.661-8.72 35.511 0 42.103.576.435 24.748 14.38 24.748 14.38l50.638-116.315 45.845 34.349 21.904 12.662z" fill="url(#SVGID_00000003107335309349353060000002214312088955815585_)"/><path d="m267.4 207.511c-8.768-5.301-22.174 2.822-30.569 18.863l-42.241 80.709 21.815 16.492 73.852-102.914-22.859-13.2z" fill="url(#SVGID_00000101082829839967667230000005907719796398806711_)"/><path d="m148.081 276.249c-8.771-5.147-22.089 2.978-30.444 18.942-8.72 16.661-8.72 35.511 0 42.103l43.808 33.118 23.383 13.497-13.556-94.316-23.226-13.41z" fill="url(#SVGID_00000053511096506135405050000015126991190614659463_)"/><path d="m247.982 347.447 43.808-83.704c8.72-16.661 8.72-35.511 0-42.103-8.719-6.592-22.857 1.571-31.576 18.231l-43.809 83.704-43.808-33.118c-8.719-6.593-22.858 1.57-31.577 18.23-8.72 16.661-8.72 35.511 0 42.103l43.808 33.118-43.808 83.703c-8.72 16.661-8.72 35.511 0 42.103 4.36 3.297 10.073 2.904 15.788-.396 5.714-3.299 11.43-9.506 15.788-17.835l43.808-83.704 43.809 33.118c4.36 3.296 10.074 2.903 15.788-.396s11.429-9.505 15.788-17.835c8.72-16.661 8.72-35.511 0-42.103z" fill="url(#SVGID_00000103236623996287314950000008020799373380946097_)"/></g></g></svg>