<svg id="Capa_1" enable-background="new 0 0 512 512" height="512" viewBox="0 0 512 512" width="512" xmlns="http://www.w3.org/2000/svg" xmlns:xlink="http://www.w3.org/1999/xlink"><linearGradient id="SVGID_1_" gradientUnits="userSpaceOnUse" x1="236.013" x2="254.097" y1="190.771" y2="159.449"><stop offset="0" stop-color="#b096ed"/><stop offset=".2393" stop-color="#c4b1ef"/><stop offset=".5371" stop-color="#d8cdf1"/><stop offset=".8006" stop-color="#e4ddf3"/><stop offset="1" stop-color="#e8e3f3"/></linearGradient><linearGradient id="SVGID_2_" gradientUnits="userSpaceOnUse" x1="333.576" x2="180.28" y1="387.547" y2="122.03"><stop offset="0" stop-color="#b096ed"/><stop offset=".0014" stop-color="#b096ed"/><stop offset=".299" stop-color="#cdbcf3"/><stop offset=".5742" stop-color="#e2d7f7"/><stop offset=".8165" stop-color="#efe8f9"/><stop offset="1" stop-color="#f3eefa"/></linearGradient><linearGradient id="SVGID_3_" gradientUnits="userSpaceOnUse" x1="258.465" x2="258.465" y1="96.18" y2="421.256"><stop offset="0" stop-color="#45356d"/><stop offset=".2699" stop-color="#544081"/><stop offset="1" stop-color="#7e62c0"/></linearGradient><g><g><path d="m322.86 77.592-24.418-14.121-.007.009c-3.352-2.2-7.832-2.654-11.799-.363l-109.868 63.309c-8.689 5.017-14.042 14.288-14.042 24.322v261.957c0 4.143 2.156 7.527 5.216 9.472l26.389 15.275z" fill="url(#SVGID_1_)"/><path d="m188.072 427.373v-261.957c0-10.034 5.353-19.305 14.042-24.322l109.868-63.309c7.5-4.33 16.876 1.083 16.876 9.743v261.956c0 10.034-5.353 19.305-14.042 24.322l-109.868 63.309c-7.5 4.332-16.876-1.082-16.876-9.742z" fill="url(#SVGID_2_)"/><path d="m311.224 92.39-16.945 9.764c0 6.198-3.307 11.925-8.674 15.024l-51.599 29.791c-3.885 2.243-8.741-.561-8.741-5.047l-17.022 9.809c-4.866 2.809-7.895 8.055-7.895 13.685v253.998c0 2.749 2.975 4.469 5.357 3.096l102.981-59.34c4.866-2.81 7.895-8.055 7.895-13.685v-253.998c.001-2.75-2.974-4.469-5.357-3.097z" fill="url(#SVGID_3_)"/></g><g fill="#45356d"><path d="m340.582 28.632c-8.295-7.021-19.734-7.13-34.135-.378l8.057-14.234c2.8-4.946 3.045-10.813.547-13.104-2.498-2.292-6.792-.137-9.592 4.808l-27.072 47.827 23.573 19.314c1.334 1.094 3.122 1 4.914-.034 1.685-.973 3.374-2.78 4.69-5.213 2.714-5.022 2.814-10.812.223-12.935l-8.307-6.807c11.819-5.98 20.926-6.401 27.145-1.17 14.587 12.271 9.816 51.834 9.739 52.453-.68 5.306 1.754 8.622 5.44 7.407.419-.138.837-.33 1.249-.568 3.209-1.853 6.063-6.546 6.671-11.255.261-2.024 6.173-49.759-13.142-66.111z"/><path d="m210.039 439.134c-2.588-2.122-6.889.224-9.604 5.248-2.714 5.021-2.814 10.812-.223 12.934l8.306 6.807c-11.82 5.979-20.925 6.4-27.144 1.171-14.587-12.272-9.816-51.835-9.739-52.454.68-5.306-1.755-8.621-5.44-7.407-3.68 1.212-7.234 6.509-7.92 11.822-.261 2.025-6.174 49.761 13.141 66.113 8.294 7.022 19.734 7.129 34.135.376l-8.057 14.234c-2.8 4.946-3.045 10.813-.547 13.104 1.342 1.232 3.203 1.179 5.071.1 1.61-.929 3.225-2.62 4.52-4.908l27.072-47.827z"/></g></g></svg>