<svg id="Capa_1" enable-background="new 0 0 512 512" height="512" viewBox="0 0 512 512" width="512" xmlns="http://www.w3.org/2000/svg" xmlns:xlink="http://www.w3.org/1999/xlink"><linearGradient id="SVGID_1_" gradientUnits="userSpaceOnUse" x1="117.336" x2="313.052" y1="412.195" y2="412.195"><stop offset="0" stop-color="#ff4757"/><stop offset="1" stop-color="#ff7a85"/></linearGradient><linearGradient id="SVGID_00000124881508153440281550000001307677347868753281_" gradientUnits="userSpaceOnUse" x1="151.505" x2="383.275" y1="269.818" y2="403.631"><stop offset="0" stop-color="#ab2c37"/><stop offset="1" stop-color="#ff4757"/></linearGradient><linearGradient id="lg1"><stop offset="0" stop-color="#d7d1eb"/><stop offset="1" stop-color="#f2effa"/></linearGradient><linearGradient id="SVGID_00000098913032368524859020000003981625566388108962_" gradientUnits="userSpaceOnUse" x1="103.652" x2="408.348" xlink:href="#lg1" y1="322.922" y2="322.922"/><linearGradient id="SVGID_00000051374532975343639440000015419923923497866168_" gradientUnits="userSpaceOnUse" x1="117.336" x2="313.052" y1="301.159" y2="301.159"><stop offset="0" stop-color="#ffc538"/><stop offset="1" stop-color="#f7e041"/></linearGradient><linearGradient id="SVGID_00000067922442363806452740000003937450620682971783_" gradientUnits="userSpaceOnUse" x1="122.15" x2="416.443" y1="141.834" y2="311.744"><stop offset="0" stop-color="#e37a34"/><stop offset="1" stop-color="#ffa538"/></linearGradient><linearGradient id="SVGID_00000119813044130870612290000010298882407616218502_" gradientUnits="userSpaceOnUse" x1="103.652" x2="408.348" xlink:href="#lg1" y1="211.886" y2="211.886"/><linearGradient id="SVGID_00000023281249814687365950000006814827825040309132_" gradientUnits="userSpaceOnUse" x1="117.336" x2="313.052" y1="190.122" y2="190.122"><stop offset="0" stop-color="#236568"/><stop offset="1" stop-color="#2f878a"/></linearGradient><linearGradient id="SVGID_00000014612042699750557690000002216769701389178015_" gradientUnits="userSpaceOnUse" x1="48.678" x2="383.091" y1="-11.621" y2="181.452"><stop offset="0" stop-color="#2f878a"/><stop offset="1" stop-color="#06daae"/></linearGradient><g><path d="m68.806 343.68v73.923l.038-.003c-.747 25.471 14.246 49.888 45.653 68.021 67.68 39.075 185.898 34.174 264.048-10.945 41.571-24.001 63.428-54.547 64.597-83.766l.052-.004v-78.516z" fill="url(#SVGID_1_)"/><path d="m397.503 248.452c-67.68-39.075-185.898-34.174-264.048 10.945-78.15 45.12-86.638 113.373-18.958 152.448s185.898 34.174 264.048-10.945c78.15-45.12 86.638-113.373 18.958-152.448z" fill="url(#SVGID_00000124881508153440281550000001307677347868753281_)"/><path d="m103.652 253.203v88.078l.031-.002c-.608 20.73 11.594 40.602 37.155 55.359 55.081 31.801 151.293 27.813 214.896-8.908 33.833-19.533 51.621-44.393 52.572-68.173l.042-.003v-91.816z" fill="url(#SVGID_00000098913032368524859020000003981625566388108962_)"/><path d="m68.806 232.644v73.923l.038-.003c-.747 25.471 14.246 49.888 45.653 68.02 67.68 39.075 185.898 34.174 264.048-10.945 41.571-24.001 63.428-54.547 64.597-83.766l.052-.004v-78.516z" fill="url(#SVGID_00000051374532975343639440000015419923923497866168_)"/><path d="m397.503 137.416c-67.68-39.075-185.898-34.174-264.048 10.945-78.15 45.12-86.638 113.373-18.958 152.448s185.898 34.175 264.048-10.945 86.638-113.373 18.958-152.448z" fill="url(#SVGID_00000067922442363806452740000003937450620682971783_)"/><path d="m103.652 142.167v88.078l.031-.002c-.608 20.73 11.594 40.602 37.155 55.358 55.081 31.801 151.293 27.813 214.896-8.908 33.833-19.533 51.621-44.394 52.572-68.173l.042-.003v-91.816z" fill="url(#SVGID_00000119813044130870612290000010298882407616218502_)"/><path d="m68.806 121.607v73.923l.038-.003c-.747 25.471 14.246 49.888 45.653 68.02 67.68 39.075 185.898 34.174 264.048-10.945 41.571-24.001 63.428-54.547 64.597-83.766l.052-.004v-78.515z" fill="url(#SVGID_00000023281249814687365950000006814827825040309132_)"/><path d="m397.503 26.38c-67.68-39.075-185.898-34.175-264.048 10.945s-86.638 113.373-18.958 152.448 185.898 34.175 264.048-10.945 86.638-113.374 18.958-152.448z" fill="url(#SVGID_00000014612042699750557690000002216769701389178015_)"/></g></svg>