<svg id="Capa_1" enable-background="new 0 0 512 512" height="512" viewBox="0 0 512 512" width="512" xmlns="http://www.w3.org/2000/svg" xmlns:xlink="http://www.w3.org/1999/xlink"><linearGradient id="lg1"><stop offset="0" stop-color="#2f878a"/><stop offset=".2073" stop-color="#2a928f"/><stop offset=".5729" stop-color="#1bb09c"/><stop offset="1" stop-color="#06daae"/></linearGradient><linearGradient id="SVGID_1_" gradientUnits="userSpaceOnUse" x1="251.923" x2="221.337" xlink:href="#lg1" y1="455.176" y2="508.152"/><linearGradient id="SVGID_2_" gradientUnits="userSpaceOnUse" x1="254.778" x2="368.737" xlink:href="#lg1" y1="236.408" y2="170.614"/><linearGradient id="SVGID_3_" gradientUnits="userSpaceOnUse" x1="257.633" x2="186.405" y1="323.677" y2="447.049"><stop offset="0" stop-color="#2f878a"/><stop offset=".1332" stop-color="#2a928f"/><stop offset=".3681" stop-color="#1bb09c"/><stop offset=".6425" stop-color="#06daae"/><stop offset="1" stop-color="#2f878a"/></linearGradient><linearGradient id="SVGID_4_" gradientUnits="userSpaceOnUse" x1="168.983" x2="243.963" xlink:href="#lg1" y1="245.989" y2="116.12"/><linearGradient id="SVGID_5_" gradientUnits="userSpaceOnUse" x1="232.297" x2="266.629" xlink:href="#lg1" y1="71.103" y2="11.637"/><linearGradient id="SVGID_6_" gradientUnits="userSpaceOnUse" x1="300.44" x2="350.659" xlink:href="#lg1" y1="75.802" y2="46.808"/><linearGradient id="SVGID_7_" gradientUnits="userSpaceOnUse" x1="276.341" x2="276.341" y1="858.127" y2="118.673"><stop offset="0" stop-color="#06daae"/><stop offset=".1313" stop-color="#11dcb2"/><stop offset=".3631" stop-color="#2fe0bb"/><stop offset=".6679" stop-color="#5fe7cb"/><stop offset="1" stop-color="#9bf0df"/></linearGradient><g><g><path d="m212.611 459.695v12.214c0 6.618 3.721 11.928 8.834 14.647l-.021.019 38.922 22.367v-79.742s-56.869 21.962-47.735 30.495z" fill="url(#SVGID_1_)"/><path d="m320.448 197.579c-18.848-12.628-47.801-5.457-71.764-.844l-11.254 19.315 51.18 31.178 70.163-27.672-38.336-22.018c-.001.001.007.027.011.041z" fill="url(#SVGID_2_)"/><path d="m270.833 295.898c0 17.838-12.296 34.58-31.823 45.854-15.339 8.856-35.073 13.087-54.023 12.163-23.771-1.16-45.27 14.037-52.245 36.792l-.12.391c-5.213 17.008 3.059 33.975 17.357 41.463l-.017.006 38.68 22.322 163.499-142.951c-6.951-7.586-81.308-46.575-81.308-16.04z" fill="url(#SVGID_3_)"/><path d="m137.395 230.7c0 31.586 9.315 47.022 23.017 53.707-.001 0-.008.005-.008.005l38.949 22.551 57.016-201.31-43.758-19.148c-46.287 36.849-75.216 90.676-75.216 144.195z" fill="url(#SVGID_4_)"/><path d="m252.693 2.415-.001.021c-4.885-2.957-11.248-3.457-16.9-.194-14.345 8.282-23.181 23.588-23.181 40.151v44.11l40.683 23.457 28.689-60.577c-1.071-4.414 11.19-23.629 11.19-23.629z" fill="url(#SVGID_5_)"/><path d="m311.922 54.679.005.023c-6.018-3.96-13.29-6.116-21.028-5.652l10.489 32.662 28.227 9.507c13.157-8.372 21.888-13.776 21.888-13.776z" fill="url(#SVGID_6_)"/><g><path d="m301.387 422.598v47.001c0 16.564-8.836 31.87-23.181 40.151-11.072 6.393-24.912-1.598-24.912-14.383v-45.486c-15.285 6.006-30.351 9.352-44.508 10.075-24.39 1.246-42.636-22.051-35.48-45.401l.12-.391c6.974-22.754 28.473-37.952 52.245-36.792 18.95.924 38.684-3.307 54.023-12.163 19.527-11.274 31.823-28.016 31.823-45.855 0-57.378-133.437 54.378-133.437-65.197 0-53.519 28.928-107.346 75.215-144.196v-44.11c0-16.564 8.837-31.869 23.181-40.151 11.072-6.392 24.912 1.598 24.912 14.383v41.629c7.85-3.384 15.598-6.067 23.144-8.072 26.451-7.027 50.361 17.734 42.595 43.978-6.197 20.943-24.802 35.629-46.584 37.225-17.306 1.268-34.244 5.493-46.638 12.648-15.909 9.186-26.396 22.954-26.396 38.383 0 55.93 133.438-52.932 133.438 68.571 0 59.307-33.995 113.648-79.56 148.153z" fill="url(#SVGID_7_)"/></g></g></g></svg>