<svg id="Capa_1" enable-background="new 0 0 512 512" height="512" viewBox="0 0 512 512" width="512" xmlns="http://www.w3.org/2000/svg" xmlns:xlink="http://www.w3.org/1999/xlink"><linearGradient id="SVGID_1_" gradientUnits="userSpaceOnUse" x1="254.247" x2="254.247" y1="492.43" y2="-134.976"><stop offset="0" stop-color="#c5baeb"/><stop offset="1" stop-color="#f2effa"/></linearGradient><linearGradient id="lg1"><stop offset="0" stop-color="#a996eb"/><stop offset="1" stop-color="#a996eb" stop-opacity="0"/></linearGradient><linearGradient id="SVGID_00000033326668384438730560000013825786893961026473_" gradientUnits="userSpaceOnUse" x1="211.088" x2="201.355" xlink:href="#lg1" y1="124.308" y2="141.165"/><linearGradient id="SVGID_00000144309535616960755610000018314340294909127864_" gradientUnits="userSpaceOnUse" x1="330.518" x2="370.467" xlink:href="#lg1" y1="59.69" y2="-9.503"/><linearGradient id="SVGID_00000023996660352510291930000011959567544485730210_" gradientUnits="userSpaceOnUse" x1="231.84" x2="246.352" xlink:href="#lg1" y1="75.756" y2="50.621"/><linearGradient id="SVGID_00000000205870476329783220000001697687906101303456_" gradientUnits="userSpaceOnUse" x1="230.013" x2="230.013" xlink:href="#lg1" y1="448.921" y2="500.903"/><linearGradient id="SVGID_00000087371243495043694180000013567614754659735231_" gradientUnits="userSpaceOnUse" x1="97.68" x2="112.071" xlink:href="#lg1" y1="339.708" y2="314.784"/><linearGradient id="SVGID_00000094611807507770484500000012105550418564446377_" gradientUnits="userSpaceOnUse" x1="126.917" x2="138.011" xlink:href="#lg1" y1="228.092" y2="208.876"/><linearGradient id="SVGID_00000142868870952346413040000007679385780372290986_" gradientUnits="userSpaceOnUse" x1="177.154" x2="121.527" xlink:href="#lg1" y1="398.728" y2="491.743"/><linearGradient id="lg2"><stop offset="0" stop-color="#d7d1eb"/><stop offset="1" stop-color="#f2effa"/></linearGradient><linearGradient id="SVGID_00000095329090204909461100000015879706351900769723_" gradientTransform="matrix(.866 -.5 0 1.155 -52.124 158.243)" gradientUnits="userSpaceOnUse" x1="387.662" x2="387.662" xlink:href="#lg2" y1="496.425" y2="16.654"/><linearGradient id="SVGID_00000165945958212073901470000013144921164055698051_" gradientTransform="matrix(.866 -.5 0 1.155 -52.124 158.243)" gradientUnits="userSpaceOnUse" x1="387.662" x2="387.662" xlink:href="#lg2" y1="132.107" y2="418.675"/><linearGradient id="SVGID_00000103943190435922623060000014389828522738784654_" gradientUnits="userSpaceOnUse" x1="145.227" x2="132.277" xlink:href="#lg1" y1="250.482" y2="272.912"/><linearGradient id="SVGID_00000150070394691701461170000015594782408457302685_" gradientUnits="userSpaceOnUse" x1="236.213" x2="262.191" y1="364.405" y2="319.777"><stop offset="0" stop-color="#236568"/><stop offset="1" stop-color="#2f878a"/></linearGradient><linearGradient id="SVGID_00000053529848154374650910000008536671005743214772_" gradientUnits="userSpaceOnUse" x1="309.891" x2="309.891" y1="398.699" y2="233.47"><stop offset="0" stop-color="#2f878a"/><stop offset="1" stop-color="#06daae"/></linearGradient><g><g><path d="m256.51 508.532 192.969-368.271-54.319-31.164-5.095-76.074-55.792-32.292-.002.003c-3.516-2.008-8.581.183-12.687 5.601l-18.535 24.462-48.25-27.869c-2.011-1.324-4.688-1.264-7.572.402l-37.635 21.728c-4.979 2.875-9.353 9.804-10.716 16.976l-12.287 64.634c-4.155 4.36-8.211 8.94-12.151 13.726l-39.203-6.469c-4.35-.718-9.779 3.427-13.299 10.153l-26.612 50.846c-3.521 6.727-4.278 14.402-1.856 18.804l21.827 39.669c-1.883 6.341-3.562 12.719-5.033 19.107l-43.155 41.298c-4.788 4.582-8.091 12.322-8.091 18.96v50.179c0 4.338 1.417 7.506 3.731 8.924l-.001.003.146.085c.085.049.168.104.255.148l45.132 26.074-14.811 44.019c-2.422 7.198-1.664 13.999 1.856 16.661l83.068 52.725 24.851-33.801z" fill="url(#SVGID_1_)"/><path d="m174.437 120.394 55.183 31.891 12.151-13.727-55.182-31.891z" fill="url(#SVGID_00000033326668384438730560000013825786893961026473_)"/><path d="m322.545 95.606h24.5l43.02-62.582-55.792-32.293-.002.003c-3.516-2.008-8.581.183-12.687 5.601l-18.535 24.462 6.778 3.913z" fill="url(#SVGID_00000144309535616960755610000018314340294909127864_)"/><path d="m247.226 3.33-37.635 21.728c-4.979 2.875-9.353 9.804-10.716 16.976l-12.287 64.634 55.182 31.891 68.056-103.849-6.778-3.913-48.25-27.869c-2.01-1.324-4.687-1.264-7.572.402z" fill="url(#SVGID_00000023996660352510291930000011959567544485730210_)"/><path d="m203.243 477.779 27.105-32.726 26.434 2.437-.272 61.042z" fill="url(#SVGID_00000000205870476329783220000001697687906101303456_)"/><path d="m118.633 404.122 46.811-119.727-55.182-31.891-43.155 41.298c-4.788 4.582-8.091 12.322-8.091 18.96v50.179c0 4.338 1.417 7.506 3.731 8.924l-.001.003.146.085c.085.049.168.104.255.148l45.132 26.074z" fill="url(#SVGID_00000087371243495043694180000013567614754659735231_)"/><path d="m93.467 193.728 21.827 39.669 55.182 31.891 6.641-109.319-55.182-31.891-26.612 50.846c-3.52 6.727-4.278 14.402-1.856 18.804z" fill="url(#SVGID_00000094611807507770484500000012105550418564446377_)"/><path d="m174.417 383.4-55.784 20.722-10.355-5.947-14.811 44.019c-2.422 7.198-1.664 13.999 1.856 16.661l83.068 52.725 2.566-3.49z" fill="url(#SVGID_00000142868870952346413040000007679385780372290986_)"/><path d="m444.894 139.437-43.155 8.533c-1.471-4.691-3.15-9.13-5.033-13.296l21.827-64.873c2.422-7.198 1.664-13.999-1.856-16.66l-26.611-20.118c-3.521-2.662-8.949-.538-13.299 5.203l-39.203 51.737c-3.94-.236-7.996-.133-12.151.305l-12.287-50.447c-1.363-5.597-5.738-7.476-10.716-4.601l-37.634 21.728c-4.979 2.874-9.353 9.804-10.717 16.975l-12.287 64.634c-4.155 4.36-8.211 8.94-12.151 13.726l-39.203-6.469c-4.35-.718-9.779 3.427-13.299 10.153l-26.612 50.846c-3.521 6.726-4.278 14.402-1.856 18.804l21.827 39.669c-1.883 6.341-3.562 12.719-5.033 19.108l-43.155 41.298c-4.788 4.582-8.091 12.322-8.091 18.96v50.179c0 6.638 3.303 10.564 8.091 9.617l43.155-8.533c1.471 4.691 3.15 9.129 5.033 13.296l-21.827 64.873c-2.422 7.198-1.664 13.999 1.856 16.66l26.612 20.118c3.52 2.661 8.949.537 13.299-5.203l39.203-51.737c3.94.237 7.997.133 12.151-.305l12.287 50.447c1.363 5.597 5.738 7.475 10.717 4.601l37.634-21.728c4.979-2.874 9.353-9.804 10.716-16.975l12.287-64.634c4.155-4.359 8.211-8.94 12.151-13.726l39.203 6.469c4.35.718 9.779-3.427 13.299-10.154l26.611-50.846c3.521-6.727 4.278-14.402 1.856-18.804l-21.827-39.669c1.883-6.341 3.562-12.719 5.033-19.108l43.155-41.298c4.788-4.582 8.091-12.322 8.091-18.96v-50.179c0-6.637-3.303-10.563-8.091-9.616z" fill="url(#SVGID_00000095329090204909461100000015879706351900769723_)"/><path d="m387.005 212.237c0-76.152-46.3-111.154-103.414-78.179s-103.414 121.44-103.414 197.592 46.3 111.154 103.414 78.179 103.414-121.44 103.414-197.592z" fill="url(#SVGID_00000165945958212073901470000013144921164055698051_)"/><path d="m170.477 265.288-5.033 19.108-55.183-31.892 5.033-19.107z" fill="url(#SVGID_00000103943190435922623060000014389828522738784654_)"/></g><path d="m363.094 172.706c-9.48-6.695-24.85 1.706-34.331 19.82l-58.938 112.61-6.86-4.72-23.946-13.922-.005.049c-9.535-5.687-24.066 3.145-33.174 20.548-9.48 18.114-9.48 38.608 0 45.775l45.113 34.104c.885.669 1.836 1.154 2.814 1.549l-.02.04 24.058 14.013 107.675-216.878c.001 0-22.315-12.937-22.386-12.988z" fill="url(#SVGID_00000150070394691701461170000015594782408457302685_)"/><g><path d="m293.542 401.208c-6.213 3.587-12.426 4.014-17.165.43l-45.113-34.104c-9.48-7.167-9.48-27.661 0-45.775 9.48-18.113 24.851-26.989 34.331-19.821l27.948 21.127 60.644-115.87c9.481-18.114 24.851-26.988 34.331-19.82 9.48 7.167 9.48 27.661 0 45.775l-77.809 148.668c-4.741 9.057-10.954 15.803-17.167 19.39z" fill="url(#SVGID_00000053529848154374650910000008536671005743214772_)"/></g></g></svg>