<svg id="Capa_1" enable-background="new 0 0 512 512" height="512" viewBox="0 0 512 512" width="512" xmlns="http://www.w3.org/2000/svg" xmlns:xlink="http://www.w3.org/1999/xlink"><linearGradient id="lg1"><stop offset="0" stop-color="#00568d"/><stop offset=".9916" stop-color="#0197f8"/></linearGradient><linearGradient id="SVGID_1_" gradientUnits="userSpaceOnUse" x1="77.283" x2="430.416" xlink:href="#lg1" y1="250.881" y2="250.881"/><linearGradient id="SVGID_2_" gradientUnits="userSpaceOnUse" x1="315.189" x2="384.216" y1="407.043" y2="287.484"><stop offset="0" stop-color="#00568d"/><stop offset=".1672" stop-color="#005992"/><stop offset=".3714" stop-color="#0062a1"/><stop offset=".595" stop-color="#0071ba"/><stop offset=".8307" stop-color="#0186dc"/><stop offset=".9916" stop-color="#0197f8"/></linearGradient><linearGradient id="SVGID_3_" gradientUnits="userSpaceOnUse" x1="230.608" x2="377.311" xlink:href="#lg1" y1="303.763" y2="303.763"/><linearGradient id="SVGID_4_" gradientUnits="userSpaceOnUse" x1="242.643" x2="380.806" xlink:href="#lg1" y1="199.442" y2="199.442"/><linearGradient id="SVGID_5_" gradientUnits="userSpaceOnUse" x1="110.73" x2="172.47" xlink:href="#lg1" y1="331.002" y2="224.065"/><linearGradient id="SVGID_6_" gradientUnits="userSpaceOnUse" x1="161.112" x2="359.84" xlink:href="#lg1" y1="329.032" y2="-15.174"/><linearGradient id="SVGID_7_" gradientUnits="userSpaceOnUse" x1="138.1" x2="434.717" y1="273.625" y2="273.625"><stop offset="0" stop-color="#2f97f7"/><stop offset="1" stop-color="#59acf9"/></linearGradient><g><path d="m380.913 309.669c-7.24-10.293-1.537-32.749-3.602-45.697l-22.877-13.209 26.373-68.129-.001-.001c-.589-.423-61.449-35.652-61.449-35.652-4.097-2.562-9.505-2.465-15.457.971l-5.99 3.458c-11.501-37.38 137.946-98.677 128.235-105.416l-60.817-35.251c-25.488-15.533-57.852-14.75-93.456 5.805-64.149 37.528-119.614 132.144-140.062 230.762l-21.435 95.417-9.984 5.764c-12.763 7.369-23.108 27.136-23.108 44.153 0 10.116 3.672 16.944 9.318 19.302l-.024.019 58.152 33.687c3.593 2.802 8.393 3.308 13.756 1.052 10.16 11.701 81.932 53.973 81.932 53.973l.004-.002c25.446 15.864 197.051-147.016 189.768-158.243-3.622-5.323-49.276-32.763-49.276-32.763z" fill="url(#SVGID_1_)"/><path d="m430.191 342.432c-3.624-5.323-49.277-32.763-49.277-32.763l-138.469 88.794-6.355 45.15 75.635 16.158z" fill="url(#SVGID_2_)"/><path d="m354.434 250.764-123.824 71.49-.002 21.42v13.089l146.703-92.79z" fill="url(#SVGID_3_)"/><path d="m319.357 146.983c-4.097-2.562-9.505-2.466-15.457.971l-5.99 3.458-41.91 16.083-13.357 86.189c26.514 0 138.164-71.05 138.164-71.05-.59-.422-61.45-35.651-61.45-35.651z" fill="url(#SVGID_4_)"/><path d="m131.81 247.31-31.419 18.14c-12.763 7.369-23.108 27.135-23.108 44.153 0 10.102 3.662 16.927 9.295 19.293l23.798 13.832 34.119 19.699 48.133-79.865z" fill="url(#SVGID_5_)"/><path d="m426.145 45.994-60.817-35.25c-25.488-15.533-57.852-14.75-93.456 5.805-64.149 37.527-119.614 132.143-140.062 230.761l60.817 35.251s54.155-106.511 77.68-147.857c14.914-26.213 52.464-39.815 87.218-45.173 35.915-21.887 73.655-40.043 68.62-43.537z" fill="url(#SVGID_6_)"/><path d="m397.827 354.326c-18.206 32.734-40.053 57.079-65.138 71.561-27.914 16.116-53.806 13.777-72.824-2.401-6.865-6.281-12.75-14.711-17.421-25.022l122.274-70.594c12.763-7.369 23.108-27.135 23.108-44.153s-10.345-24.838-23.108-17.47l-134.109 77.428c-.164-3.448-.277-6.945-.277-10.547 0-3.613.114-7.24.279-10.873l134.108-77.427c12.763-7.369 23.108-27.136 23.108-44.153s-10.345-24.838-23.108-17.469l-122.075 70.48c4.639-15.437 10.453-30.551 17.222-45.019 19.018-38.142 44.91-70.375 72.824-86.491 25.084-14.482 47.336-15.603 65.138-3.658 9.304 5.74 24.273-5.37 32.364-25.473 7.282-19.64 5.665-40.311-4.046-47.049-25.488-15.533-57.852-14.751-93.456 5.805-64.15 37.526-119.615 132.142-140.063 230.759l-31.418 18.14c-12.763 7.369-23.108 27.136-23.108 44.153 0 17.018 10.345 24.839 23.108 17.47l23.221-13.406c-.126 3.624-.206 7.239-.218 10.838.012 3.585.092 7.105.217 10.582l-23.219 13.406c-12.763 7.369-23.108 27.135-23.108 44.153s10.345 24.839 23.108 17.469l31.348-18.099c20.39 75.485 75.909 106.07 140.133 68.99 35.604-20.556 67.967-57.144 93.456-102.108 9.711-17.333 11.328-40.49 4.046-51.716-8.093-10.146-23.062-3.97-32.366 11.894z" fill="url(#SVGID_7_)"/></g></svg>