<svg id="Capa_1" enable-background="new 0 0 512 512" height="512" viewBox="0 0 512 512" width="512" xmlns="http://www.w3.org/2000/svg" xmlns:xlink="http://www.w3.org/1999/xlink"><linearGradient id="SVGID_1_" gradientUnits="userSpaceOnUse" x1="166.473" x2="311.953" y1="275.503" y2="23.525"><stop offset="0" stop-color="#45356d"/><stop offset=".1612" stop-color="#544081"/><stop offset="1" stop-color="#7e62c0"/></linearGradient><linearGradient id="lg1"><stop offset="0" stop-color="#45356d"/><stop offset=".3855" stop-color="#544081"/><stop offset="1" stop-color="#7e62c0"/></linearGradient><linearGradient id="SVGID_2_" gradientTransform="matrix(.866 -.5 0 1.155 40.629 109.736)" gradientUnits="userSpaceOnUse" x1="327.644" x2="327.644" xlink:href="#lg1" y1="490.677" y2="136.989"/><linearGradient id="SVGID_3_" gradientUnits="userSpaceOnUse" x1="336.514" x2="336.514" xlink:href="#lg1" y1="493.278" y2="135.34"/><linearGradient id="SVGID_4_" gradientUnits="userSpaceOnUse" x1="332.479" x2="272.641" y1="339.279" y2="224.39"><stop offset="0" stop-color="#fff"/><stop offset=".648" stop-color="#fff" stop-opacity="0"/></linearGradient><linearGradient id="SVGID_5_" gradientUnits="userSpaceOnUse" x1="481.032" x2="301.391" y1="498.365" y2="257.451"><stop offset="0" stop-color="#fff"/><stop offset="1" stop-color="#fff" stop-opacity="0"/></linearGradient><linearGradient id="SVGID_6_" gradientUnits="userSpaceOnUse" x1="128.452" x2="180.832" y1="171.537" y2="171.537"><stop offset="0" stop-color="#7e62c0"/><stop offset=".4129" stop-color="#a28dd5"/><stop offset=".7923" stop-color="#beaee6"/><stop offset="1" stop-color="#c9baec"/></linearGradient><linearGradient id="SVGID_7_" gradientTransform="matrix(.993 -.121 .121 .993 -16.876 21.495)" gradientUnits="userSpaceOnUse" x1="112.574" x2="174.165" y1="154.653" y2="154.653"><stop offset="0" stop-color="#b096ed"/><stop offset=".0014" stop-color="#b096ed"/><stop offset=".299" stop-color="#cdbcf3"/><stop offset=".5742" stop-color="#e2d7f7"/><stop offset=".8165" stop-color="#efe8f9"/><stop offset="1" stop-color="#f3eefa"/></linearGradient><g><path d="m459.601 81.867-136.916-79.049c-4.103-2.808-9.255-3.614-15.077-1.982-79.015 22.148-160.937 69.445-239.952 138.537-14.686 12.841-25.131 36.244-25.131 56.305v209.266c0 13.436 4.69 22.952 12.198 26.54l136.126 78.593z" fill="url(#SVGID_1_)"/><path d="m204.392 218.304c-14.686 12.841-25.131 36.244-25.131 56.305v209.266c0 20.061 10.446 31.402 25.131 27.286 79.016-22.147 160.937-69.444 239.952-138.537 14.686-12.841 25.131-36.244 25.131-56.305v-209.266c0-20.061-10.446-31.402-25.131-27.286-79.015 22.147-160.937 69.445-239.952 138.537z" fill="url(#SVGID_2_)"/><g><ellipse cx="336.514" cy="303.646" fill="#322650" rx="150.326" ry="85.046" transform="matrix(.392 -.92 .92 .392 -74.65 494.398)"/><path d="m428.761 250.387c0-67.929-41.301-99.152-92.247-69.737-50.947 29.414-92.247 108.326-92.247 176.255s41.301 99.152 92.247 69.737c50.946-29.414 92.247-108.326 92.247-176.255z" fill="url(#SVGID_3_)"/><ellipse cx="339.828" cy="308.851" fill="#45356d" rx="122.861" ry="69.508" transform="matrix(.392 -.92 .92 .392 -77.423 500.615)"/><path d="m412.896 258.467c0-29.645-9.069-51.227-23.707-62.114-13.598-6.375-30.736-4.963-49.36 5.79-44.2 25.519-80.03 93.98-80.03 152.913 0 29.646 9.069 51.228 23.707 62.114 13.598 6.374 30.736 4.963 49.36-5.79 44.199-25.518 80.03-93.98 80.03-152.913z" fill="#5e4990"/><ellipse cx="332.865" cy="304.673" fill="#45356d" rx="67.074" ry="37.947" transform="matrix(.392 -.92 .92 .392 -77.815 491.667)"/><ellipse cx="332.865" cy="304.673" fill="#322650" rx="28.44" ry="16.09" transform="matrix(.392 -.92 .92 .392 -77.815 491.667)"/><path d="m321.024 271.02c0-13.642-8.294-19.912-18.526-14.005-10.231 5.907-18.525 21.754-18.525 35.396s8.294 19.912 18.525 14.005c10.232-5.907 18.526-21.754 18.526-35.396z" fill="url(#SVGID_4_)"/><path d="m389.188 196.354c-13.598-6.375-30.736-4.963-49.36 5.79-44.2 25.519-80.03 93.98-80.03 152.913 0 13.952 2.03 26.091 5.684 36.197l143.941-161.909c-3.91-14.852-10.945-26.083-20.235-32.991z" fill="url(#SVGID_5_)"/></g><ellipse cx="428.107" cy="137.555" fill="#ff4557" rx="28.44" ry="16.09" transform="matrix(.392 -.92 .92 .392 133.91 477.621)"/><path d="m439.438 336.079c0-8.344-5.073-12.18-11.332-8.566-6.258 3.613-11.331 13.307-11.331 21.651s5.073 12.18 11.331 8.566c6.259-3.614 11.332-13.307 11.332-21.651z" fill="#322650"/><path d="m175.112 167.931.001-10.26h-61.906v10.719h.021c.265 5.139 4.501 10.164 12.327 13.495 13.661 5.813 33.065 4.26 43.34-3.468 4.183-3.147 6.207-6.831 6.217-10.486z" fill="url(#SVGID_6_)"/><ellipse cx="144.16" cy="157.671" fill="url(#SVGID_7_)" rx="30.951" ry="17.51"/><path d="m318.511 25.221c-3.045-1.758-6.707-2.138-10.03-.988-49.777 17.229-100.444 44.151-150.581 79.957-2.255 1.61-2.079 5.021.32 6.407l62.735 36.22c3.954 2.283 8.844 2.17 12.687-.295 21.866-14.027 96.555-60.835 146.407-78.484 3.063-1.084 3.432-5.266.619-6.892z" fill="#45356d"/></g></svg>