<svg id="Capa_1" enable-background="new 0 0 512 512" height="512" viewBox="0 0 512 512" width="512" xmlns="http://www.w3.org/2000/svg" xmlns:xlink="http://www.w3.org/1999/xlink"><linearGradient id="SVGID_1_" gradientUnits="userSpaceOnUse" x1="349.265" x2="386.322" y1="58.278" y2="78.394"><stop offset="0" stop-color="#2f878a"/><stop offset="1" stop-color="#06daae"/></linearGradient><linearGradient id="lg1"><stop offset="0" stop-color="#c5baeb"/><stop offset="1" stop-color="#e9e5f6"/></linearGradient><linearGradient id="SVGID_00000039848876055478269270000015725877885150650023_" gradientTransform="matrix(.997 -.078 .078 .997 36.825 -73.169)" gradientUnits="userSpaceOnUse" x1="280.932" x2="317.001" xlink:href="#lg1" y1="220.141" y2="220.141"/><linearGradient id="SVGID_00000114061862938827582900000017370819078091463045_" gradientUnits="userSpaceOnUse" x1="249.606" x2="304.085" y1="288.089" y2="193.728"><stop offset="0" stop-color="#221c36"/><stop offset="1" stop-color="#43386b"/></linearGradient><linearGradient id="lg2"><stop offset="0" stop-color="#43386b"/><stop offset="1" stop-color="#594a8e"/></linearGradient><linearGradient id="SVGID_00000073717337442806099100000001457249053866889622_" gradientUnits="userSpaceOnUse" x1="135.298" x2="400.414" xlink:href="#lg2" y1="319.349" y2="319.349"/><linearGradient id="SVGID_00000132790823610315953160000009994052930723302318_" gradientUnits="userSpaceOnUse" x1="267.856" x2="267.856" y1="207.053" y2="443.781"><stop offset="0" stop-color="#d7d1eb"/><stop offset="1" stop-color="#f2effa"/></linearGradient><linearGradient id="SVGID_00000061449397603331781150000002918374191964504731_" gradientUnits="userSpaceOnUse" x1="249.328" x2="286.385" xlink:href="#lg2" y1="319.349" y2="319.349"/><linearGradient id="SVGID_00000091001743513848040050000018339736317347601543_" gradientUnits="userSpaceOnUse" x1="249.535" x2="278.562" xlink:href="#lg1" y1="97.319" y2="97.319"/><linearGradient id="SVGID_00000082362702392650490800000001185474099921713341_" gradientUnits="userSpaceOnUse" x1="231.806" x2="277.327" y1="63.102" y2="63.102"><stop offset=".0319" stop-color="#43386b"/><stop offset=".2653" stop-color="#4c407a"/><stop offset=".7109" stop-color="#6453a1"/><stop offset="1" stop-color="#7662bd"/></linearGradient><linearGradient id="SVGID_00000029040304604693367170000010629829250215633555_" gradientUnits="userSpaceOnUse" x1="215.837" x2="293.618" y1="-2.703" y2="42.204"><stop offset=".0319" stop-color="#43386b"/><stop offset=".1931" stop-color="#4f437a"/><stop offset=".5027" stop-color="#6e60a1"/><stop offset=".9254" stop-color="#a08ddf"/><stop offset="1" stop-color="#a996eb"/></linearGradient><linearGradient id="SVGID_00000029758514152672357000000015075387854628764804_" gradientTransform="matrix(.888 -.461 .461 .888 92.036 -556.959)" gradientUnits="userSpaceOnUse" x1="-273.36" x2="-244.334" xlink:href="#lg1" y1="683.193" y2="683.193"/><linearGradient id="SVGID_00000154395254652387609700000013961266663696889791_" gradientTransform="matrix(.888 -.461 .461 .888 92.036 -556.959)" gradientUnits="userSpaceOnUse" x1="-291.088" x2="-245.568" y1="648.978" y2="648.978"><stop offset="0" stop-color="#802129"/><stop offset="1" stop-color="#ff4757"/></linearGradient><linearGradient id="SVGID_00000135650840847031625610000004069421675830336169_" gradientTransform="matrix(.888 -.461 .461 .888 92.036 -556.959)" gradientUnits="userSpaceOnUse" x1="-307.056" x2="-229.278" y1="583.175" y2="628.081"><stop offset="0" stop-color="#ab2c37"/><stop offset=".0732" stop-color="#b3343f"/><stop offset=".4827" stop-color="#dc5a65"/><stop offset=".8056" stop-color="#f6717c"/><stop offset="1" stop-color="#ff7a85"/></linearGradient><linearGradient id="SVGID_00000023987731810653369540000008991381587927433406_" gradientUnits="userSpaceOnUse" x1="369.221" x2="215.952" y1="330.044" y2="309.575"><stop offset="0" stop-color="#fff"/><stop offset="1" stop-color="#fff" stop-opacity="0"/></linearGradient><g><g><path d="m399.234 129.906 29.486-46.376-.008-.004c3.325-4.906 3.43-11.57-.472-19.048-8.408-16.116-32.222-29.907-53.192-30.803-11.155-.477-19.257 2.791-23.132 8.38l-.011-.006-30.059 47.277z" fill="url(#SVGID_1_)"/><ellipse cx="360.804" cy="109.201" fill="#2f878a" rx="24.755" ry="43.757" transform="matrix(.431 -.903 .903 .431 106.911 387.846)"/><path d="m386.918 110.318c-5.783-11.084-22.162-20.569-36.585-21.186-8.172-.35-13.959 2.225-16.391 6.537h-.001l-17.051 26.787.005.003c-2.287 3.374-2.359 7.957.325 13.101 5.783 11.084 22.162 20.569 36.585 21.186 7.672.328 13.244-1.92 15.91-5.764l.007.004 17.43-27.415-.012-.006c2.387-3.387 2.5-8.029-.222-13.247z" fill="url(#SVGID_00000039848876055478269270000015725877885150650023_)"/></g><g><path d="m356.157 136.582.007-.014-58.162-33.484-.004.009c-22.959-12.166-52.452-10.433-84.629 8.144-73.209 42.268-132.557 155.664-132.557 253.277 0 53.666 17.962 91.338 46.281 107.403l-.02.043 53.142 30.681.055-.114c23.359 13.963 54.003 12.955 87.586-6.435 73.21-42.268 132.558-155.663 132.558-253.277.001-52.381-17.105-89.544-44.257-106.233z" fill="url(#SVGID_00000114061862938827582900000017370819078091463045_)"/><path d="m400.414 242.816c0-97.613-59.348-142.479-132.558-100.212-73.21 42.268-132.558 155.663-132.558 253.277 0 97.613 59.348 142.479 132.558 100.211 73.21-42.267 132.558-155.663 132.558-253.276z" fill="url(#SVGID_00000073717337442806099100000001457249053866889622_)"/><path d="m363.54 264.106c0-70.459-42.839-102.844-95.683-72.335s-95.683 112.361-95.683 182.82 42.839 102.845 95.683 72.335 95.683-112.361 95.683-182.82z" fill="url(#SVGID_00000132790823610315953160000009994052930723302318_)"/><g><path d="m260.637 331.851v-107.318c0-3.986 3.232-7.218 7.219-7.218s7.219 3.232 7.219 7.218v82.313l58.616-33.841c3.453-1.996 7.868-.809 9.86 2.642 1.992 3.453.809 7.867-2.644 9.861z" fill="#b096ed"/></g><path d="m286.385 308.651c0-13.644-8.295-19.915-18.528-14.007s-18.529 21.758-18.529 35.402 8.296 19.915 18.529 14.007c10.232-5.908 18.528-21.758 18.528-35.402z" fill="url(#SVGID_00000061449397603331781150000002918374191964504731_)"/></g><g><path d="m234.112 69.737v45.069h.006c-.12 4.075 2.279 7.981 7.303 10.881 10.827 6.251 29.738 5.467 42.24-1.751 6.65-3.839 10.147-8.726 10.334-13.4l.008-.001v-45.804z" fill="url(#SVGID_00000091001743513848040050000018339736317347601543_)"/><path d="m220.519 28.285v54.955l.009-.001c-.174 5.924 3.314 11.604 10.618 15.821 15.742 9.089 43.238 7.949 61.415-2.546 9.669-5.582 14.753-12.687 15.025-19.483l.012-.001v-56.023z" fill="url(#SVGID_00000082362702392650490800000001185474099921713341_)"/><path d="m296.97 6.136c-15.742-9.088-43.238-7.949-61.415 2.546-18.177 10.494-20.151 26.369-4.41 35.458 15.742 9.089 43.238 7.949 61.415-2.546s20.151-26.37 4.41-35.458z" fill="url(#SVGID_00000029040304604693367170000010629829250215633555_)"/></g><g><path d="m137.913 157.996 20.77 39.997.005-.003c1.772 3.671 5.701 6.032 11.496 6.291 12.489.558 28.911-8.853 36.68-21.021 4.132-6.472 4.983-12.42 2.995-16.655l.007-.004-21.109-40.649z" fill="url(#SVGID_00000029758514152672357000000015075387854628764804_)"/><path d="m106.745 127.473 25.327 48.772.008-.005c2.576 5.338 8.288 8.771 16.715 9.147 18.159.811 42.036-12.872 53.331-30.563 6.008-9.41 7.246-18.058 4.355-24.215l.01-.006-25.819-49.72z" fill="url(#SVGID_00000154395254652387609700000013961266663696889791_)"/><path d="m164.386 72.583c-18.159-.811-42.036 12.872-53.331 30.563s-5.731 32.689 12.428 33.5 42.036-12.872 53.331-30.563c11.295-17.69 5.731-32.688-12.428-33.5z" fill="url(#SVGID_00000135650840847031625610000004069421675830336169_)"/></g><path d="m267.857 191.771c-52.845 30.51-95.684 112.361-95.684 182.82 0 35.919 11.137 61.935 29.054 74.776l135.292-258.501c-17.389-13.848-41.723-14.648-68.662.905z" fill="url(#SVGID_00000023987731810653369540000008991381587927433406_)"/></g></svg>