<svg id="Capa_1" enable-background="new 0 0 512 512" height="512" viewBox="0 0 512 512" width="512" xmlns="http://www.w3.org/2000/svg" xmlns:xlink="http://www.w3.org/1999/xlink"><linearGradient id="lg1"><stop offset="0" stop-color="#c5baeb"/><stop offset=".9662" stop-color="#fff"/></linearGradient><linearGradient id="SVGID_1_" gradientUnits="userSpaceOnUse" x1="222.94" x2="222.94" xlink:href="#lg1" y1="165.827" y2="565.939"/><linearGradient id="SVGID_2_" gradientUnits="userSpaceOnUse" x1="181.332" x2="387.313" xlink:href="#lg1" y1="93.367" y2="-25.557"/><linearGradient id="SVGID_3_" gradientUnits="userSpaceOnUse" x1="226.245" x2="226.245" y1="681.725" y2="-17.22"><stop offset="0" stop-color="#c5baeb"/><stop offset=".0623" stop-color="#c9bfec"/><stop offset=".6642" stop-color="#f0edfa"/><stop offset=".9662" stop-color="#fff"/></linearGradient><linearGradient id="SVGID_4_" gradientTransform="matrix(.866 -.5 0 1.155 71.268 227.768)" gradientUnits="userSpaceOnUse" x1="121.03" x2="121.03" y1="147.983" y2="95.621"><stop offset="0" stop-color="#ff4757"/><stop offset="1" stop-color="#ff7a85"/></linearGradient><linearGradient id="SVGID_5_" gradientTransform="matrix(.866 -.5 0 1.155 71.268 227.768)" gradientUnits="userSpaceOnUse" x1="188.771" x2="188.771" y1="147.104" y2="75.796"><stop offset="0" stop-color="#ffc538"/><stop offset="1" stop-color="#f7e041"/></linearGradient><linearGradient id="SVGID_6_" gradientTransform="matrix(.866 -.5 0 1.155 71.268 227.768)" gradientUnits="userSpaceOnUse" x1="256.513" x2="256.513" y1="153.703" y2="34.49"><stop offset="0" stop-color="#2f878a"/><stop offset="1" stop-color="#06daae"/></linearGradient><linearGradient id="SVGID_7_" gradientUnits="userSpaceOnUse" x1="160.703" x2="181.463" y1="200.461" y2="236.419"><stop offset="0" stop-color="#7662bd"/><stop offset="1" stop-color="#7662bd" stop-opacity="0"/></linearGradient><linearGradient id="SVGID_8_" gradientUnits="userSpaceOnUse" x1="169.674" x2="144.007" y1="181.231" y2="166.412"><stop offset="0" stop-color="#c5baeb"/><stop offset=".2131" stop-color="#cbc1ed"/><stop offset=".5266" stop-color="#dcd5f3"/><stop offset=".9004" stop-color="#f7f5fc"/><stop offset="1" stop-color="#fff"/></linearGradient><linearGradient id="SVGID_9_" gradientUnits="userSpaceOnUse" x1="370.12" x2="132.178" y1="434.338" y2="245.706"><stop offset="0" stop-color="#43386b"/><stop offset="1" stop-color="#43386b" stop-opacity="0"/></linearGradient><linearGradient id="SVGID_10_" gradientUnits="userSpaceOnUse" x1="230.99" x2="358.478" y1="380.134" y2="159.318"><stop offset="0" stop-color="#001d2f"/><stop offset=".3104" stop-color="#00395e"/><stop offset=".6477" stop-color="#00568d"/><stop offset=".7544" stop-color="#005083"/><stop offset=".9328" stop-color="#00406a"/><stop offset="1" stop-color="#00395e"/></linearGradient><linearGradient id="SVGID_11_" gradientTransform="matrix(.997 -.073 .073 .997 -25.596 13.557)" gradientUnits="userSpaceOnUse" x1="205.079" x2="184.189" y1="464.682" y2="437.879"><stop offset="0" stop-color="#001d2f"/><stop offset="1" stop-color="#00395e"/></linearGradient><linearGradient id="SVGID_12_" gradientTransform="matrix(.997 -.073 .073 .997 -25.596 13.557)" gradientUnits="userSpaceOnUse" x1="249.067" x2="231.81" y1="413.688" y2="391.548"><stop offset="0" stop-color="#c5baeb"/><stop offset=".4538" stop-color="#d7d1eb"/><stop offset="1" stop-color="#f2effa"/></linearGradient><linearGradient id="SVGID_13_" gradientUnits="userSpaceOnUse" x1="330.684" x2="330.684" y1="493.909" y2="172.477"><stop offset="0" stop-color="#001d2f"/><stop offset=".4865" stop-color="#00395e"/><stop offset="1" stop-color="#00568d"/></linearGradient><linearGradient id="SVGID_14_" gradientUnits="userSpaceOnUse" x1="327.082" x2="327.082" y1="375.749" y2="216.371"><stop offset="0" stop-color="#d7d1eb"/><stop offset="1" stop-color="#f2effa"/></linearGradient><linearGradient id="SVGID_15_" gradientUnits="userSpaceOnUse" x1="305.617" x2="391.131" y1="381.842" y2="233.727"><stop offset="0" stop-color="#001d2f"/><stop offset=".3256" stop-color="#00395e"/><stop offset=".7568" stop-color="#00568d"/><stop offset="1" stop-color="#00395e"/></linearGradient><linearGradient id="SVGID_16_" gradientUnits="userSpaceOnUse" x1="351.706" x2="313.162" y1="322.212" y2="283.667"><stop offset="0" stop-color="#fff"/><stop offset="1" stop-color="#fff" stop-opacity="0"/></linearGradient><g><g><path d="m343.082 3.788-6.611-3.788-147.221 84.987-86.452 165.18v233.262l6.611 3.788z" fill="url(#SVGID_1_)"/><path d="m193.299 90.253-4.049-5.266 147.221-84.987 6.611 3.789z" fill="url(#SVGID_2_)"/><path d="m109.409 487.217v-233.261l83.89-163.703 149.783-86.464v348.517z" fill="url(#SVGID_3_)"/><g fill="#43386b"><path d="m157.865 377.572 152.771-88.202c2.819-1.628 6.343.407 6.343 3.662 0 3.827-2.042 7.363-5.356 9.276l-152.771 88.202c-2.819 1.628-6.343-.407-6.343-3.662 0-3.826 2.042-7.363 5.356-9.276z"/><path d="m157.865 163.111 152.771-88.202c2.819-1.628 6.343.407 6.343 3.662 0 3.827-2.042 7.363-5.356 9.276l-152.771 88.202c-2.819 1.628-6.343-.407-6.343-3.662 0-3.827 2.042-7.363 5.356-9.276z"/><path d="m157.865 407.883 152.771-88.202c2.819-1.628 6.343.407 6.343 3.662 0 3.827-2.042 7.363-5.356 9.276l-152.771 88.202c-2.819 1.628-6.343-.407-6.343-3.662 0-3.826 2.042-7.362 5.356-9.276z"/></g><g><path d="m199.65 263.888-47.141 27.217v53.328l47.141-27.217z" fill="url(#SVGID_4_)"/><path d="m258.315 195.162-47.141 27.217v88.184l47.141-27.217z" fill="url(#SVGID_5_)"/><path d="m316.979 117.108-47.141 27.217v132.368l47.141-27.216z" fill="url(#SVGID_6_)"/></g><path d="m102.798 250.167 6.611 20.92 86.451-49.913v-119.289z" fill="url(#SVGID_7_)"/><path d="m189.25 84.987-86.451 165.181c4.092 2.345 9.124 2.337 13.208-.021l79.853-46.104v-107.649c0-4.712-2.522-9.064-6.61-11.407z" fill="url(#SVGID_8_)"/></g><path d="m343.082 167.495-7.865-4.565c-13.858-8.383-32.09-7.812-52.069 3.723-43.364 25.036-78.518 92.203-78.518 150.022 0 14.622 2.254 27.239 6.316 37.534-.003-.001-.006-.002-.009-.004l-20.038 22.506-78.088 87.567c-.272.204-.492.454-.664.745l-.028.031.009.008c-1.162 2.031.033 6.06 3.826 11.43 1.116 1.58 2.4 3.177 3.785 4.76l95.691-55.247 13.619-15.778.062-.097c-.008.014-.01.032-.018.046l18.164-21.044c5.24 3.035 10.222 5.918 12.563 7.272.452.273.908.537 1.369.792.006.003.028.016.028.016v-.001c.715.394 1.447.751 2.184 1.098l79.681-46.004z" fill="url(#SVGID_9_)"/><g><path d="m284.748 379.695c-9.513-8.894-15.287-24.445-15.287-45.132 0-45.083 27.41-97.455 61.222-116.976 12.382-7.149 23.904-8.895 33.537-6.03l4.843 3.546s-1.595-.518 1.967 2.76l12.652-26.486-29.682-17.228c-13.858-8.383-32.09-7.812-52.069 3.723-43.364 25.036-78.517 92.204-78.517 150.022 0 30.511 9.792 52.317 25.412 62.434v.001l.011.006c1.088.704 31.164 18.095 31.164 18.095l12.218-25.578c-4.668-1.396-7.47-3.157-7.471-3.157z" fill="url(#SVGID_10_)"/><path d="m215.4 383.317-5.716 4.613-78.78 88.343 39.669 34.684 77.261-89.512 9.779-15.221z" fill="url(#SVGID_11_)"/><ellipse cx="150.926" cy="493.404" fill="#000e18" rx="8.153" ry="26.408" transform="matrix(.665 -.747 .747 .665 -317.89 277.91)"/><path d="m216.686 387.737c8.695 2.926 21.076 12.987 27.653 22.471 3.619 5.218 4.722 9.17 3.538 11.186l19.167-22.206c-1.641-4.037-3.834-7.84-6.619-11.192-8.241-9.919-18.521-18.08-30.704-22.572l-20.038 22.506c1.16-1.211 3.52-1.365 7.003-.193z" fill="url(#SVGID_12_)"/><path d="m330.684 194.526c-43.364 25.036-78.518 92.204-78.518 150.022s35.154 84.394 78.518 59.358 78.518-92.204 78.518-150.022c0-57.819-35.154-84.394-78.518-59.358zm41.687 125.187c-17.358 36.885-38.28 56.412-55.947 62.611s-31.674-2.629-31.675-2.63c-9.513-8.894-15.287-24.445-15.287-45.132 0-45.083 27.41-97.455 61.222-116.976 12.382-7.149 23.904-8.895 33.537-6.03l4.843 3.546s-2.114-.69 3.926 4.495c6.04 5.184 10.693 15.808 10.693 15.808s6.045 47.423-11.312 84.308z" fill="url(#SVGID_13_)"/><path d="m316.423 382.325c17.668-6.199 38.59-25.726 55.947-62.611s11.313-84.309 11.313-84.309-4.653-10.623-10.693-15.808-3.926-4.494-3.926-4.494l-4.843-3.546c-9.633-2.865-21.155-1.119-33.537 6.03-33.812 19.521-61.222 71.893-61.222 116.976 0 20.686 5.774 36.238 15.287 45.132 0 0 14.007 8.828 31.674 2.63z" fill="url(#SVGID_14_)" opacity=".6"/><path d="m364.221 211.557c9.513 8.894 15.287 24.446 15.287 45.132 0 45.083-27.41 97.455-61.222 116.976-12.382 7.149-23.904 8.895-33.537 6.03 11.219 10.489 27.638 11.715 45.936 1.151 33.812-19.521 61.222-71.893 61.222-116.976-.001-28.574-11.014-47.355-27.686-52.313z" fill="url(#SVGID_15_)"/><path d="m369.064 215.102-4.843-3.546c-9.633-2.865-21.155-1.119-33.537 6.03-33.812 19.521-61.222 71.893-61.222 116.976 0 20.686 5.774 36.238 15.287 45.132 0 0 .639.401 1.805.969l84.972-162.355c-4.179-3.758-2.462-3.206-2.462-3.206z" fill="url(#SVGID_16_)"/></g></g></svg>