<svg id="Capa_1" enable-background="new 0 0 512 512" height="512" viewBox="0 0 512 512" width="512" xmlns="http://www.w3.org/2000/svg" xmlns:xlink="http://www.w3.org/1999/xlink"><linearGradient id="SVGID_1_" gradientTransform="matrix(1 0 0 -1 0 514)" gradientUnits="userSpaceOnUse" x1="165.105" x2="383.297" y1="214.29" y2="592.209"><stop offset=".0319" stop-color="#a996eb"/><stop offset=".2213" stop-color="#bfb3eb"/><stop offset=".4108" stop-color="#d1c9eb"/><stop offset=".5321" stop-color="#d7d1eb"/><stop offset="1" stop-color="#e9e5f6"/></linearGradient><linearGradient id="SVGID_2_" gradientTransform="matrix(1 0 0 -1 0 514)" gradientUnits="userSpaceOnUse" x1="284.24" x2="284.24" y1="93.181" y2="774.94"><stop offset="0" stop-color="#dfdaef"/><stop offset="1" stop-color="#fff"/></linearGradient><g><path d="m391.614 42.915-56.25-32.044c-28.897-16.465-66.493-14.801-107.603 8.934-91.171 52.637-165.079 193.852-165.079 315.412 0 64.082 20.545 109.897 53.325 131.197l-.005.01 63.003 36.004c28.569 15.057 212.609-459.513 212.609-459.513z" fill="url(#SVGID_1_)"/><path d="m449.318 176.778c0-121.56-73.908-177.433-165.078-124.796s-165.078 193.852-165.078 315.412 73.908 177.434 165.078 124.796c91.17-52.637 165.078-193.852 165.078-315.412z" fill="url(#SVGID_2_)"/><g><g><path d="m389.488 316.499c-5.47-2.143-8.175-8.312-6.032-13.782 2.128-5.47 8.296-8.175 13.767-6.032 5.47 2.127 8.175 8.296 6.047 13.767-1.641 4.209-5.667 6.777-9.923 6.777-1.276-.001-2.581-.244-3.859-.73zm15.302-43.732c-5.713-1.383-9.224-7.126-7.841-12.839 1.383-5.714 7.127-9.224 12.84-7.841 5.713 1.367 9.224 7.126 7.841 12.839-1.186 4.863-5.53 8.129-10.332 8.129-.821.001-1.673-.091-2.508-.288zm9.087-45.433c-5.866-.486-10.227-5.607-9.74-11.472.47-5.85 5.606-10.211 11.457-9.74 5.849.486 10.211 5.607 9.74 11.472-.457 5.562-5.106 9.771-10.592 9.771-.288 0-.577-.016-.865-.031zm-10.363-55.568c-.714-5.82 3.434-11.138 9.254-11.853 5.835-.714 11.138 3.435 11.868 9.269.714 5.835-3.435 11.138-9.27 11.852-.441.061-.881.076-1.306.076-5.304.001-9.893-3.95-10.546-9.344zm-11.321-41.163c-2.537-5.288-.288-11.639 5.014-14.177 5.289-2.537 11.64-.303 14.177 4.999 2.537 5.303.304 11.655-4.999 14.193-1.488.699-3.054 1.033-4.588 1.033-3.967-.001-7.78-2.219-9.604-6.048zm-25.664-30.36c-4.984-3.115-6.504-9.679-3.389-14.647 3.115-4.984 9.679-6.504 14.664-3.389 4.984 3.115 6.488 9.679 3.388 14.664-2.021 3.221-5.484 4.999-9.04 4.999-1.916-.001-3.876-.533-5.623-1.627zm-49.337-17.413c-.64-5.835 3.57-11.092 9.42-11.73 5.835-.639 11.077 3.586 11.732 9.42.622 5.835-3.587 11.093-9.436 11.731-.38.045-.776.061-1.156.061-5.364 0-9.968-4.028-10.56-9.482z" fill="#43386b"/></g></g><g><path d="m232.015 473.599c-13.996.001-27.179-3.403-39.037-10.25-32.233-18.609-50.719-60.683-50.719-115.432 0-48.464 14.092-102.081 39.682-150.974 25.731-49.163 60.172-87.942 96.979-109.192 5.09-2.939 11.594-1.194 14.53 3.893 2.937 5.088 1.193 11.593-3.894 14.53-69.49 40.121-126.025 148.566-126.025 241.744 0 46.944 14.609 82.303 40.083 97.01 20.414 11.784 47.159 9.322 75.306-6.928 31.688-18.296 62.062-51.885 85.522-94.581 2.83-5.148 9.299-7.028 14.444-4.199 5.148 2.829 7.029 9.296 4.199 14.444-25.306 46.054-58.522 82.548-93.529 102.758-19.785 11.423-39.349 17.176-57.541 17.177z" fill="#43386b"/></g><g><path d="m329.892 325.609c-2.612 0-5.228-.955-7.281-2.884l-49.008-46.038v-102.252c0-5.875 4.762-10.637 10.637-10.637s10.637 4.762 10.637 10.637v93.049l42.301 39.736c4.281 4.022 4.492 10.754.469 15.035-2.094 2.228-4.922 3.354-7.755 3.354z" fill="#43386b"/></g><path d="m275.734 70.255 25.824 19.522-25.633 48.976z" fill="#43386b"/></g></svg>