<svg id="Capa_1" enable-background="new 0 0 512 512" height="512" viewBox="0 0 512 512" width="512" xmlns="http://www.w3.org/2000/svg" xmlns:xlink="http://www.w3.org/1999/xlink"><linearGradient id="SVGID_1_" gradientUnits="userSpaceOnUse" x1="202.814" x2="298.882" y1="425.794" y2="425.794"><stop offset="0" stop-color="#0073bf"/><stop offset="1" stop-color="#0097f9"/></linearGradient><linearGradient id="SVGID_2_" gradientUnits="userSpaceOnUse" x1="-47.112" x2="419.825" y1="514.59" y2="245.003"><stop offset="0" stop-color="#00adfb"/><stop offset=".3103" stop-color="#04b3fc"/><stop offset=".7192" stop-color="#0ec3fd"/><stop offset="1" stop-color="#17d3ff"/></linearGradient><linearGradient id="SVGID_3_" gradientUnits="userSpaceOnUse" x1="224.497" x2="315.497" y1="329.226" y2="329.226"><stop offset="0" stop-color="#c62834"/><stop offset="1" stop-color="#ff4557"/></linearGradient><linearGradient id="SVGID_4_" gradientUnits="userSpaceOnUse" x1="-184.377" x2="282.561" y1="497.272" y2="227.685"><stop offset="0" stop-color="#ff4557"/><stop offset="1" stop-color="#ff7b86"/></linearGradient><linearGradient id="SVGID_5_" gradientUnits="userSpaceOnUse" x1="211.221" x2="293.286" y1="232.658" y2="232.658"><stop offset="0" stop-color="#45356d"/><stop offset=".3855" stop-color="#544081"/><stop offset="1" stop-color="#7e62c0"/></linearGradient><linearGradient id="SVGID_6_" gradientUnits="userSpaceOnUse" x1="-5.048" x2="461.889" y1="297.168" y2="27.582"><stop offset="0" stop-color="#45356d"/><stop offset=".1612" stop-color="#544081"/><stop offset="1" stop-color="#7e62c0"/></linearGradient><linearGradient id="SVGID_7_" gradientUnits="userSpaceOnUse" x1="19.895" x2="492.165" y1="145.419" y2="145.419"><stop offset="0" stop-color="#00daac"/><stop offset=".0605" stop-color="#09dcb1"/><stop offset=".3404" stop-color="#2fe4c4"/><stop offset=".5994" stop-color="#4aead2"/><stop offset=".8274" stop-color="#5beedb"/><stop offset="1" stop-color="#61efde"/></linearGradient><g><g><path d="m10.274 340.382v25.166c0 6.873 3.401 13.745 10.203 17.672l212.254 122.545c14.399 8.313 32.139 8.313 46.537 0l212.255-122.545c6.802-3.927 10.203-10.8 10.203-17.672v-25.96z" fill="url(#SVGID_1_)"/><path d="m20.477 321.916 212.254-122.545c14.399-8.313 32.139-8.313 46.537 0l212.254 122.545c13.604 7.854 13.604 27.49 0 35.345l-212.253 122.544c-14.399 8.313-32.139 8.313-46.537 0l-212.255-122.545c-13.604-7.854-13.604-27.49 0-35.344z" fill="url(#SVGID_2_)"/></g><g><path d="m10.274 243.814v25.166c0 6.873 3.401 13.745 10.203 17.672l212.254 122.545c14.399 8.313 32.139 8.313 46.537 0l212.254-122.545c6.802-3.927 10.203-10.8 10.203-17.672v-25.96z" fill="url(#SVGID_3_)"/><path d="m20.477 225.348 212.254-122.545c14.399-8.313 32.139-8.313 46.537 0l212.254 122.545c13.604 7.854 13.604 27.49 0 35.345l-212.253 122.544c-14.399 8.313-32.139 8.313-46.537 0l-212.255-122.545c-13.604-7.854-13.604-27.49 0-35.344z" fill="url(#SVGID_4_)"/></g><g><path d="m10.274 147.246v25.166c0 6.873 3.401 13.745 10.203 17.672l212.254 122.545c14.399 8.313 32.139 8.313 46.537 0l212.254-122.545c6.802-3.927 10.203-10.8 10.203-17.672v-25.96z" fill="url(#SVGID_5_)"/><path d="m20.477 128.78 212.254-122.545c14.399-8.313 32.139-8.313 46.537 0l212.255 122.545c13.604 7.854 13.604 27.49 0 35.344l-212.254 122.545c-14.399 8.313-32.139 8.313-46.537 0l-212.255-122.545c-13.604-7.854-13.604-27.49 0-35.344z" fill="url(#SVGID_6_)"/></g><path d="m478.625 121.333-29.901 17.31-54.402-31.409 29.901-17.31-9.925-5.73-29.901 17.31-54.402-31.409 29.901-17.31-9.925-5.73-29.901 17.31-54.402-31.409 29.901-17.31-9.925-5.73-29.901 17.31-29.685-17.139-9.932 5.734 29.699 17.146-50.65 29.323-29.767-17.186-9.932 5.734 29.78 17.194-50.65 29.322-29.849-17.233-9.932 5.734 29.862 17.241-50.65 29.322-29.93-17.28-9.932 5.734 29.944 17.288-44.224 25.602c.195.121.382.247.583.363l9.319 5.38 44.247-25.615 54.402 31.409-44.247 25.615 9.925 5.73 44.247-25.615 54.402 31.409-44.247 25.615 9.925 5.73 44.247-25.615 54.402 31.409-44.247 25.615 9.925 5.73 44.247-25.615 33.284 19.216 9.932-5.734-33.297-19.224 50.651-29.322 33.366 19.264 9.932-5.734-33.379-19.271 50.65-29.322 33.447 19.311 9.932-5.734-33.461-19.318 50.651-29.322 33.529 19.358 9.264-5.349c.221-.128.428-.267.642-.4l-33.517-19.351 29.901-17.31zm-158.548-45.496 54.402 31.409-50.651 29.322-54.402-31.409zm-6.168 66.473-50.651 29.322-54.402-31.409 50.651-29.322zm-58.159-103.612 54.402 31.409-50.651 29.322-54.402-31.409zm-60.569 35.064 54.402 31.409-50.65 29.322-54.402-31.409zm-56.818 95.795-54.401-31.409 50.65-29.322 54.402 31.408zm64.327 37.139-54.402-31.409 50.65-29.322 54.402 31.409zm64.326 37.138-54.402-31.409 50.65-29.322 54.402 31.409zm60.569-35.063-54.402-31.409 50.651-29.322 54.402 31.409zm60.569-35.064-54.402-31.409 50.651-29.322 54.402 31.409z" fill="url(#SVGID_7_)" opacity=".4"/></g></svg>