<svg id="Capa_1" enable-background="new 0 0 512 512" height="512" viewBox="0 0 512 512" width="512" xmlns="http://www.w3.org/2000/svg" xmlns:xlink="http://www.w3.org/1999/xlink"><linearGradient id="lg1"><stop offset=".0319" stop-color="#43386b"/><stop offset=".0811" stop-color="#463a70"/><stop offset=".356" stop-color="#544686"/><stop offset=".5321" stop-color="#594a8e"/><stop offset="1" stop-color="#7662bd"/></linearGradient><linearGradient id="SVGID_1_" gradientUnits="userSpaceOnUse" x1="181.728" x2="204.228" xlink:href="#lg1" y1="254.991" y2="216.018"/><linearGradient id="lg2"><stop offset="0" stop-color="#594a8e"/><stop offset="1" stop-color="#a996eb"/></linearGradient><linearGradient id="SVGID_2_" gradientUnits="userSpaceOnUse" x1="340.445" x2="340.445" xlink:href="#lg2" y1="723.887" y2="112.678"/><linearGradient id="lg3"><stop offset="0" stop-color="#43386b"/><stop offset="1" stop-color="#43386b" stop-opacity="0"/></linearGradient><linearGradient id="SVGID_3_" gradientUnits="userSpaceOnUse" x1="258.944" x2="278.058" xlink:href="#lg3" y1="389.786" y2="422.892"/><linearGradient id="SVGID_4_" gradientUnits="userSpaceOnUse" x1="258.944" x2="278.058" xlink:href="#lg3" y1="300.701" y2="333.808"/><linearGradient id="SVGID_5_" gradientUnits="userSpaceOnUse" x1="391.278" x2="391.278" xlink:href="#lg3" y1="301.794" y2="392.336"/><linearGradient id="SVGID_6_" gradientUnits="userSpaceOnUse" x1="373.623" x2="435.714" xlink:href="#lg1" y1="299.987" y2="192.441"/><linearGradient id="SVGID_7_" gradientUnits="userSpaceOnUse" x1="407.525" x2="407.525" xlink:href="#lg2" y1="403.999" y2="165.078"/><linearGradient id="SVGID_8_" gradientUnits="userSpaceOnUse" x1="407.525" x2="407.525" xlink:href="#lg3" y1="285.1" y2="364.547"/><linearGradient id="SVGID_9_" gradientUnits="userSpaceOnUse" x1="394.634" x2="439.148" xlink:href="#lg1" y1="307.013" y2="229.912"/><linearGradient id="SVGID_10_" gradientUnits="userSpaceOnUse" x1="418.939" x2="418.939" xlink:href="#lg2" y1="458.174" y2="214.674"/><linearGradient id="SVGID_11_" gradientUnits="userSpaceOnUse" x1="273.912" x2="259.127" y1="327.638" y2="302.03"><stop offset=".0319" stop-color="#43386b"/><stop offset=".2515" stop-color="#4b3f78"/><stop offset=".6583" stop-color="#61519b"/><stop offset="1" stop-color="#7662bd"/></linearGradient><g><g><g><path d="m471.689 99.704-169.003-98.306c-3.032-1.985-7.083-1.931-11.537.641l-239.187 138.094c-9.393 5.423-17.007 19.971-17.007 32.494v226.248c0 7.398 2.658 12.432 6.77 14.198l7.263 4.413 160.01 92.894z" fill="url(#SVGID_1_)"/><path d="m460.039 371.864-239.188 138.095c-9.393 5.423-17.007-.333-17.007-12.857v-226.248c0-12.523 7.614-27.072 17.007-32.494l239.187-138.095c9.392-5.423 17.007.333 17.007 12.857v226.248c0 12.524-7.614 27.072-17.006 32.494z" fill="url(#SVGID_2_)"/><path d="m255.834 393.103v55.553l36.366-20.995v-44.531z" fill="url(#SVGID_3_)" opacity=".5"/><path d="m255.834 304.019v55.553l36.366-20.996v-44.531z" fill="url(#SVGID_4_)" opacity=".5"/><g><path d="m234.399 477.281c-1.787 0-3.574-.47-5.203-1.411-3.259-1.881-5.204-5.25-5.204-9.013v-196.003c0-5.297 1.149-12.115 6.439-14.671l.339-.286.384-.221 210.134-121.321c3.259-1.88 7.149-1.88 10.407 0 3.258 1.881 5.203 5.251 5.203 9.013v196.002c0 5.3-1.754 11.167-6.441 14.672l-.339.285-.383.221-210.133 121.323c-1.629.94-3.417 1.41-5.203 1.41zm2.342-213.199c-.946 1.137-2.676 2.581-2.676 6.772v196.003c0 .077 0 .193.167.289.166.097.267.039.333.001l209.584-121.005c2.676-2.135 2.676-4.688 2.676-6.772v-196.003c0-.077 0-.193-.167-.289s-.267-.038-.334 0z" fill="#594a8e"/></g><path d="m438.191 258.202-93.715 51.89s-.067-.06-.171-.156c0 .052-.003.105-.003.157v36.354c0 34.593 21.032 50.493 46.977 35.514s46.977-55.165 46.977-89.758c0-6.323-.71-12.014-2.016-17.013 1.145-5.707 1.799-11.406 1.951-16.988z" fill="url(#SVGID_5_)"/></g></g><g><path d="m438.081 226.91-16.007-9.119c-8.223-4.686-18.922-4.212-30.621 2.542-25.945 14.979-46.977 55.165-46.977 89.758 0 18.236 5.847 31.274 15.175 37.335l-.001.003 17.929 10.246c8.129 4.285 60.502-130.765 60.502-130.765z" fill="url(#SVGID_6_)"/><path d="m454.502 265.004c0-34.593-21.032-50.493-46.977-35.514s-46.977 55.165-46.977 89.758 21.032 50.493 46.977 35.514 46.977-55.165 46.977-89.758z" fill="url(#SVGID_7_)"/><path d="m439.696 290.134c.935-4.657 1.443-9.315 1.443-13.839 0-24.752-15.049-36.13-33.614-25.412-18.564 10.718-33.614 39.473-33.614 64.225v26.013c0 6.214.949 11.583 2.664 15.973 8.267 4.893 19.091 4.515 30.95-2.332s22.684-18.968 30.95-33.407c1.714-6.369 2.664-12.834 2.664-19.047 0-4.525-.508-8.597-1.443-12.174z" fill="url(#SVGID_8_)"/></g><g><path d="m440.845 254.623-11.476-6.537c-5.895-3.359-13.566-3.02-21.953 1.823-18.6 10.739-33.678 39.549-33.678 64.349 0 13.074 4.192 22.421 10.879 26.766l-.001.002 12.854 7.345c5.828 3.072 43.375-93.748 43.375-93.748z" fill="url(#SVGID_9_)"/><path d="m452.617 281.933c0-24.8-15.078-36.199-33.679-25.46-18.6 10.739-33.678 39.549-33.678 64.349s15.078 36.199 33.678 25.46c18.601-10.739 33.679-39.549 33.679-64.349z" fill="url(#SVGID_10_)"/></g><path d="m297.794 287.855-15.619-9.018-26.341 15.208 17.778 15.404 2.849 60.113-20.627 11.909 18.998 17.866 26.341-15.208c2.53-1.461 4.102-4.183 4.102-7.104v-76.211c0-5.329-2.866-10.294-7.481-12.959z" fill="url(#SVGID_11_)"/><path d="m271.453 303.063-15.619-9.018v11.633l10.582 6.109c1.508.871 2.445 2.493 2.445 4.234v72.971l-13.027-7.521v11.632l10.795 6.232c1.265.73 2.684 1.096 4.102 1.096s2.836-.365 4.101-1.095c2.53-1.461 4.102-4.183 4.102-7.104v-76.211c0-5.328-2.866-10.293-7.481-12.958z" fill="#594a8e"/></g></svg>