<svg id="Capa_1" enable-background="new 0 0 512 512" height="512" viewBox="0 0 512 512" width="512" xmlns="http://www.w3.org/2000/svg" xmlns:xlink="http://www.w3.org/1999/xlink"><linearGradient id="lg1"><stop offset="0" stop-color="#b096ed"/><stop offset=".3485" stop-color="#c7b6ef"/><stop offset=".7689" stop-color="#dfd7f2"/><stop offset="1" stop-color="#e8e3f3"/></linearGradient><linearGradient id="SVGID_1_" gradientUnits="userSpaceOnUse" x1="191.278" x2="345.491" xlink:href="#lg1" y1="435.805" y2="435.805"/><linearGradient id="lg2"><stop offset="0" stop-color="#b096ed"/><stop offset=".0014" stop-color="#b096ed"/><stop offset=".299" stop-color="#cdbcf3"/><stop offset=".5742" stop-color="#e2d7f7"/><stop offset=".8165" stop-color="#efe8f9"/><stop offset="1" stop-color="#f3eefa"/></linearGradient><linearGradient id="SVGID_2_" gradientUnits="userSpaceOnUse" x1="176.351" x2="379.586" xlink:href="#lg2" y1="341.775" y2="473.838"/><linearGradient id="SVGID_3_" gradientUnits="userSpaceOnUse" x1="246.213" x2="318.909" xlink:href="#lg1" y1="354.8" y2="354.8"/><linearGradient id="SVGID_4_" gradientUnits="userSpaceOnUse" x1="201.037" x2="312.551" xlink:href="#lg1" y1="211.848" y2="18.7"/><linearGradient id="SVGID_5_" gradientTransform="matrix(.866 -.5 0 1.155 40.629 406.76)" gradientUnits="userSpaceOnUse" x1="389.981" x2="159.883" xlink:href="#lg2" y1="97.594" y2="-300.94"/><linearGradient id="SVGID_6_" gradientUnits="userSpaceOnUse" x1="300.027" x2="359.352" xlink:href="#lg1" y1="290.338" y2="187.584"/><linearGradient id="SVGID_7_" gradientUnits="userSpaceOnUse" x1="369.347" x2="369.347" xlink:href="#lg2" y1="482.368" y2="240.81"/><linearGradient id="SVGID_8_" gradientUnits="userSpaceOnUse" x1="369.347" x2="369.347" y1="384.688" y2="162.365"><stop offset="0" stop-color="#45356d"/><stop offset=".3855" stop-color="#544081"/><stop offset="1" stop-color="#7e62c0"/></linearGradient><linearGradient id="SVGID_9_" gradientUnits="userSpaceOnUse" x1="459.11" x2="347.531" y1="387.847" y2="238.211"><stop offset="0" stop-color="#fff"/><stop offset="1" stop-color="#fff" stop-opacity="0"/></linearGradient><linearGradient id="SVGID_10_" gradientUnits="userSpaceOnUse" x1="366.841" x2="329.674" y1="289.036" y2="217.676"><stop offset="0" stop-color="#fff"/><stop offset=".648" stop-color="#fff" stop-opacity="0"/></linearGradient><radialGradient id="SVGID_11_" cx="427.622" cy="125.504" gradientTransform="matrix(.927 .375 -.52 1.286 96.517 -196.281)" gradientUnits="userSpaceOnUse" r="16.942"><stop offset="0" stop-color="#ff7b86"/><stop offset=".6145" stop-color="#ff4557"/><stop offset="1" stop-color="#c62834"/></radialGradient><g><path d="m390.475 429.95.004.001-2.821-8.262c-3.297-9.655-7.956-18.791-13.835-27.13-5.602-7.946-12.26-15.093-19.788-21.244l-4.664-3.81-173.834-9.896-7.595 7.377c-12.116 11.768-21.586 25.964-27.803 41.642-11.871 25.295 2.157 55.492 40.489 77.623 53.911 31.126 135.463 34.506 182.151 7.551 28.58-16.5 37.466-40.543 27.696-63.852z" fill="url(#SVGID_1_)"/><path d="m195.69 439.597c-44.305-25.58-49.117-64.274-10.748-86.427s105.39-19.375 149.696 6.205c44.305 25.58 49.117 64.274 10.748 86.427s-105.39 19.375-149.696-6.205z" fill="url(#SVGID_2_)"/><ellipse cx="265.164" cy="379.62" fill="#45356d" rx="26.349" ry="46.574" transform="matrix(.121 -.993 .993 .121 -143.748 596.909)"/><path d="m301.512 311.121h-72.678v62.699c-.336 6.012 3.915 12.434 12.531 17.409 15.177 8.763 38.137 9.714 51.281 2.126 5.856-3.381 8.768-7.888 8.863-12.62h.003z" fill="url(#SVGID_3_)"/><path d="m453.195 79.291-132.608-76.562c-3.974-2.719-8.963-3.5-14.603-1.919-76.529 21.45-155.873 67.26-232.402 134.178-14.224 12.437-24.34 35.104-24.34 54.533v84.812c0 13.014 4.543 22.229 11.814 25.705l131.843 76.12z" fill="url(#SVGID_4_)"/><path d="m206.016 211.435c-14.224 12.437-24.341 35.104-24.341 54.533v84.812c0 19.43 10.117 30.414 24.341 26.427 76.529-21.45 155.873-67.259 232.402-134.178 14.223-12.437 24.34-35.104 24.34-54.533v-84.812c0-19.43-10.117-30.414-24.34-26.427-76.529 21.45-155.873 67.26-232.402 134.178z" fill="url(#SVGID_5_)"/><g><path d="m414.944 172.788-40.333-23.065c-12.069-7.371-27.977-6.904-45.414 3.163-37.718 21.777-68.295 80.199-68.295 130.49 0 28.743 9.991 48.602 25.591 56.284l39.232 22.496z" fill="url(#SVGID_6_)"/><path d="m437.641 227.473c0-50.291-30.577-73.406-68.295-51.63-37.718 21.777-68.295 80.199-68.295 130.49s30.577 73.406 68.295 51.63c37.719-21.776 68.295-80.199 68.295-130.49z" fill="url(#SVGID_7_)"/><path d="m426.643 233.823c0-42.192-25.652-61.585-57.297-43.315-31.644 18.27-57.297 67.284-57.297 109.476s25.653 61.585 57.297 43.315c31.645-18.27 57.297-67.284 57.297-109.476z" fill="url(#SVGID_8_)"/><ellipse cx="371.405" cy="270.136" fill="#45356d" rx="76.312" ry="43.173" transform="matrix(.392 -.92 .92 .392 -22.587 506.115)"/><path d="m416.789 238.842c0-18.413-5.633-31.818-14.725-38.58-8.446-3.959-19.091-3.083-30.659 3.596-27.453 15.85-49.708 58.373-49.708 94.977 0 18.413 5.633 31.819 14.725 38.58 8.446 3.959 19.091 3.082 30.659-3.596 27.453-15.85 49.708-58.372 49.708-94.977z" fill="#5e4990"/><ellipse cx="367.08" cy="267.542" fill="#45356d" rx="41.661" ry="23.569" transform="matrix(.392 -.92 .92 .392 -22.83 500.557)"/><ellipse cx="367.081" cy="267.542" fill="#322650" rx="17.665" ry="9.994" transform="matrix(.392 -.92 .92 .392 -22.831 500.556)"/><path d="m402.064 200.262c-8.446-3.959-19.091-3.083-30.659 3.596-27.453 15.85-49.708 58.373-49.708 94.977 0 8.666 1.261 16.206 3.53 22.483l89.405-100.565c-2.428-9.224-6.798-16.2-12.568-20.491z" fill="url(#SVGID_9_)"/><path d="m359.726 246.639c0-8.473-5.152-12.368-11.507-8.699s-11.506 13.512-11.506 21.985 5.152 12.368 11.506 8.699c6.355-3.668 11.507-13.512 11.507-21.985z" fill="url(#SVGID_10_)"/></g><path d="m440.634 122.868c0-13.213-8.033-19.285-17.943-13.564-9.909 5.721-17.942 21.07-17.942 34.282s8.033 19.285 17.942 13.564c9.91-5.721 17.943-21.07 17.943-34.282z" fill="#fff"/><path d="m436.751 125.11c0-10.353-6.295-15.112-14.06-10.629s-14.06 16.51-14.06 26.864 6.295 15.112 14.06 10.629c7.765-4.484 14.06-16.511 14.06-26.864z" fill="url(#SVGID_11_)"/></g></svg>