<svg id="Capa_1" enable-background="new 0 0 512 512" height="512" viewBox="0 0 512 512" width="512" xmlns="http://www.w3.org/2000/svg" xmlns:xlink="http://www.w3.org/1999/xlink"><linearGradient id="SVGID_1_" gradientUnits="userSpaceOnUse" x1="89.108" x2="271.649" y1="358.246" y2="42.075"><stop offset="0" stop-color="#ffa627"/><stop offset=".246" stop-color="#feab29"/><stop offset=".5301" stop-color="#fcb92f"/><stop offset=".832" stop-color="#f9d03a"/><stop offset="1" stop-color="#f7e041"/></linearGradient><linearGradient id="SVGID_00000153697386931858262840000011097582764050444161_" gradientUnits="userSpaceOnUse" x1="252.218" x2="252.218" y1="688.247" y2="194.172"><stop offset="0" stop-color="#ffa627"/><stop offset="1" stop-color="#ffe026"/></linearGradient><linearGradient id="lg1"><stop offset="0" stop-color="#ab2c37"/><stop offset="1" stop-color="#ff4757"/></linearGradient><linearGradient id="SVGID_00000077312975842571198450000010585160783666836892_" gradientUnits="userSpaceOnUse" x1="308.878" x2="419.874" xlink:href="#lg1" y1="427.805" y2="235.555"/><linearGradient id="SVGID_00000000208885918767705320000005916158059903438271_" gradientUnits="userSpaceOnUse" x1="417.582" x2="444.688" xlink:href="#lg1" y1="224.839" y2="177.891"/><linearGradient id="SVGID_00000023999138570288710420000012798903203230015361_" gradientUnits="userSpaceOnUse" x1="333.764" x2="349.871" xlink:href="#lg1" y1="297.812" y2="269.914"/><linearGradient id="SVGID_00000060719533994860365040000001371997975531423885_" gradientUnits="userSpaceOnUse" x1="395.901" x2="395.901" y1="449.373" y2="133.455"><stop offset="0" stop-color="#ff4757"/><stop offset="1" stop-color="#ff7a85"/></linearGradient><g><path d="m272.234 25.688-40.66-23.676c-13.087-8.061-37.01 8.959-46.243 35.61l-140.853 405.75c-7.122 20.56-3.493 37.657 6.068 43.012l-.006.017 41.191 23.805z" fill="url(#SVGID_1_)"/><path d="m226.609 61.477-140.853 405.75c-10.626 30.674 2.657 53.679 23.908 41.41l285.108-164.607c21.251-12.269 34.534-50.612 23.908-69.016l-140.724-243.742c-10.626-18.405-40.721-.469-51.347 30.205z" fill="url(#SVGID_00000153697386931858262840000011097582764050444161_)"/><g><path d="m392.341 324.435-280.128 161.732c-4.713 2.721-8.781 1.923-11.16-2.188-2.378-4.126-2.398-10.411-.057-17.249l138.951-406.249c2.339-6.84 6.387-12.325 11.103-15.047 4.716-2.723 8.784-1.923 11.16 2.194l141.175 244.521c2.375 4.12 2.397 10.401.06 17.236-2.343 6.846-6.39 12.328-11.104 15.05zm-277.738 141.174 275.218-158.897-138.7-240.236z" fill="#43386b"/></g><path d="m299.877 106.763-126.145 225.937 49.495-28.576-42.351 138.279 126.146-225.936-49.495 28.576z" fill="#43386b"/><g><path d="m403.438 288.917 60.395-104.208-21.027-12.142.002.046c-8.065-4.876-20.396 2.596-28.119 17.351l-40.297 76.994-20.007-18.843-21.364-12.335.032.06c-8.068-4.734-20.318 2.739-28.004 17.424-8.021 15.325-8.021 32.665 0 38.728l40.297 30.463-40.296 76.995c-8.021 15.325-8.021 32.665 0 38.728.53.401 22.764 13.227 22.764 13.227l46.578-106.991 42.17 31.596 20.148 11.647z" fill="url(#SVGID_00000077312975842571198450000010585160783666836892_)"/><path d="m442.808 172.613c-8.065-4.876-20.396 2.596-28.119 17.351l-38.855 74.239 20.067 15.17 67.932-94.665-21.027-12.142z" fill="url(#SVGID_00000000208885918767705320000005916158059903438271_)"/><path d="m333.054 235.841c-8.068-4.734-20.318 2.739-28.004 17.424-8.021 15.325-8.021 32.665 0 38.728l40.297 30.463 21.509 12.415-12.469-86.755-21.364-12.335z" fill="url(#SVGID_00000023999138570288710420000012798903203230015361_)"/><path d="m424.947 301.332 40.296-76.994c8.021-15.325 8.021-32.664 0-38.728-8.02-6.063-21.025 1.445-29.045 16.77l-40.297 76.994-40.297-30.463c-8.021-6.064-21.026 1.444-29.046 16.769-8.021 15.326-8.021 32.664 0 38.728l40.297 30.463-40.297 76.994c-8.021 15.326-8.021 32.664 0 38.728 4.011 3.032 9.266 2.671 14.523-.364 5.256-3.034 10.513-8.744 14.523-16.405l40.297-76.994 40.297 30.464c4.01 3.032 9.266 2.671 14.523-.364 5.256-3.035 10.513-8.743 14.523-16.405 8.021-15.325 8.021-32.665 0-38.728z" fill="url(#SVGID_00000060719533994860365040000001371997975531423885_)"/></g></g></svg>