<svg id="Capa_1" enable-background="new 0 0 512 512" height="512" viewBox="0 0 512 512" width="512" xmlns="http://www.w3.org/2000/svg" xmlns:xlink="http://www.w3.org/1999/xlink"><radialGradient id="SVGID_1_" cx="309.118" cy="172.996" gradientUnits="userSpaceOnUse" r="398.561"><stop offset="0" stop-color="#5e4990"/><stop offset=".6145" stop-color="#45356d"/><stop offset="1" stop-color="#322650"/></radialGradient><radialGradient id="SVGID_2_" cx="313.418" cy="179.837" gradientUnits="userSpaceOnUse" r="367.026"><stop offset="0" stop-color="#61efde"/><stop offset=".5314" stop-color="#00daac"/><stop offset=".9916" stop-color="#00878a"/></radialGradient><linearGradient id="SVGID_3_" gradientUnits="userSpaceOnUse" x1="407.639" x2="434.576" y1="332.705" y2="286.049"><stop offset="0" stop-color="#c62834"/><stop offset="1" stop-color="#ff4557"/></linearGradient><linearGradient id="SVGID_4_" gradientUnits="userSpaceOnUse" x1="445.479" x2="445.479" y1="534.262" y2="287.605"><stop offset="0" stop-color="#ff4557"/><stop offset="1" stop-color="#ff7b86"/></linearGradient><g><circle cx="240.425" cy="256" fill="url(#SVGID_1_)" r="240.425"/><path d="m468.119 333.392c-.124-4.549-.357-9.083-.725-13.598 2.716-3.71 5.288-7.541 7.732-11.481 2.853-12.856 4.689-26.094 5.392-39.633-4.233 11.37-9.379 21.994-15.445 31.859-1.028-6.406-2.302-12.775-3.833-19.102-2.668-11.027-6.118-21.927-10.296-32.687 5.123-6.815 8.856-13.225 11.223-18.827 5.438-12.868 8.106-26.916 9.153-40.391.178.344.34.699.516 1.044-5.313-18.829-12.866-36.717-22.346-53.365-6.555-7.087-13.624-13.808-21.209-20.137-.451-4.804-1.331-9.592-2.618-14.344-8.968-10.826-18.874-20.845-29.581-29.95 8.423 10.507 14.23 21.58 17.335 32.845-6.78-4.817-13.883-9.377-21.332-13.646-9.219-5.283-18.388-9.827-27.275-13.737-1.384-12.721-8.119-24.844-19.292-35.381 2.056-.028 4.141-.021 6.239.007-33.288-17.424-71.154-27.293-111.331-27.293-40.889 0-79.387 10.22-113.099 28.226-3.806 3.977-6.979 8.151-9.458 12.48-5.822 1.415-12.035 3.1-18.58 5.08-17.863 12.975-33.876 28.341-47.555 45.641-3.873 13.488-5.227 28.573-1.104 44.079-13.303 14.749-24.483 30.503-33.431 47.158-1.901-7.993-2.951-15.584-3.468-22.463-3.251 9.186-5.959 18.627-8.086 28.287.951 3.633 2.066 7.335 3.372 11.084-3.204 7.407-5.966 14.983-8.336 22.702-.449 5.992-.681 12.044-.681 18.151 0 21.145 2.74 41.648 7.866 61.184 3.009 3.78 6.23 7.599 9.735 11.433 13.29 14.54 28.505 27.24 45.431 37.991-.6 17.889.53 35.332 3.379 52.272-.453-.234-.919-.47-1.366-.704-1.358-.709-2.694-1.419-4.013-2.129 8.946 10.02 18.717 19.284 29.21 27.689 30.07 12.473 68.133 23.899 112.516 28.181 1.659 8.151 3.66 15.667 6.037 22.433 4.591.603 9.221 1.079 13.889 1.42-2.827-6.637-5.176-14.301-7.09-22.836 7.909.498 15.992.777 24.262.777 1.42 0 2.847-.008 4.275-.024 31.21-.344 59.043-4.236 83.863-10.495-2.674 6.929-5.783 13.668-9.319 20.197 5.869-2.019 11.634-4.264 17.288-6.715 2.546-5.686 4.872-11.545 6.917-17.623 22.196-6.755 41.775-15.398 59.046-24.948 12.257-11.121 23.35-23.499 33.1-36.915-22.681 17.598-51.457 35.039-87.826 47.261 4.061-15.693 6.595-32.545 7.587-50.507 42.452-12.429 76.184-32.443 101.06-59.971.254 10.37-.174 20.841-1.263 31.409 5.249-10.256 9.782-20.942 13.535-31.988zm-39.946-199.944c11.893 10.859 22.244 22.756 31.03 35.682.517 17.585-1.101 38.26-8.564 55.922-1.313 3.108-3.111 6.5-5.392 10.089-8.962-19.813-20.514-39.095-34.574-57.717 5.682-7.764 10.134-16.053 13.18-24.792 2.213-6.347 3.639-12.759 4.32-19.184zm-41.937-30.395c10.718 6.166 20.654 12.872 29.817 20.101.216 8.506-1.108 17.011-4.018 25.356-2.268 6.507-5.449 12.739-9.431 18.665-1.192-1.462-2.372-2.927-3.596-4.38-15.311-18.175-31.487-33.795-46.813-46.856 6.322-7.544 10.401-15.723 12.042-24.208 7.237 3.32 14.617 7.076 21.999 11.322zm-178.349-17.738c.466.225.927.452 1.408.667 5.891 2.63 12.432 4.354 19.152 5.24-1.763 9.469-5.044 27.64-8.869 51.426-17.064-1.768-33.736-5.713-48.693-11.891 16.815-22.774 30.92-38.78 37.002-45.442zm-48.549 40.035c-12.302-6.551-21.779-14.39-27.845-22.911 27.96-16.243 52.205-25.155 61.924-28.407 1.119 1.497 2.429 2.932 3.914 4.293-7.081 7.848-21.342 24.297-37.993 47.025zm81.161 30.852c4.569 0 9.165-.142 13.76-.429 11.96-.746 23.447-2.455 34.225-5.02 8.676 20.472 18.02 44.597 26.453 70.765-6.136 1.58-12.473 2.962-19.018 4.109-26.626 4.666-52.193 6.056-76.015 4.832 3.345-27.268 7.004-52.769 10.367-74.498 3.393.158 6.804.241 10.228.241zm-8.276-12.651c3.951-24.724 7.273-43.174 8.841-51.651 6.389-.157 12.682-1.056 18.493-2.679 4.158 7.89 13.225 25.645 23.899 49.893-16.185 3.648-33.73 5.158-51.233 4.437zm39.028-58.975c1.712-.925 3.342-1.925 4.851-3.019.863-.626 1.669-1.276 2.44-1.94 8.533 4.731 29.891 17.275 54.894 37.194-1.046.843-2.122 1.677-3.249 2.495-9.672 7.012-21.46 12.552-34.493 16.574-10.646-24.321-19.825-42.477-24.443-51.304zm1.356-16.69c-.054.065-.11.126-.161.193-1.118 1.312-2.441 2.44-3.689 3.345-12.678 9.192-37.569 10.625-54.36 3.13-7.737-3.455-12.652-8.351-13.146-13.098-.474-4.551 3.172-8.221 6.313-10.499 12.68-9.192 37.571-10.624 54.36-3.13 7.738 3.454 12.652 8.351 13.146 13.098.276 2.655-.853 5.007-2.463 6.961zm-36.21 175.475c20.309 0 41.058-1.792 61.682-5.406 7.086-1.242 13.949-2.751 20.598-4.485 1.027 3.381 2.037 6.787 3.024 10.222 5.669 19.734 10.887 41.324 14.69 63.727-31.377 9.293-72.962 15.538-125.193 11.298 1.803-25.496 4.351-51.238 7.219-75.835 5.946.316 11.943.479 17.98.479zm64.25-95.952c14.086-4.46 26.608-10.521 36.884-17.971 2.03-1.472 3.928-2.996 5.744-4.549 15.247 12.898 31.351 28.35 46.414 46.271 1.718 2.044 3.394 4.096 5.045 6.153-15.564 17.508-38.899 31.597-67.76 40.763-8.379-26.038-17.657-50.11-26.327-70.667zm41.914-39.446c-24.946-20.064-46.463-32.917-56.461-38.493.17-.421.328-.845.47-1.272 11.009 1.678 36.424 6.496 65.77 18.398-.81 7.371-4.125 14.619-9.779 21.367zm8.258-35.466c-29.547-11.297-54.187-15.573-64.172-16.96-.493-1.566-1.162-3.096-2.016-4.576 8.998-2.288 24.023-5.517 42.151-7.129 12.323 8.375 20.632 18.245 24.037 28.665zm-87.786-51.09c15.663 2.128 30.85 6.116 44.517 12.022-15.687 2.444-27.462 5.637-32.844 7.239-2.297-1.573-4.858-3.009-7.682-4.27-3.936-1.757-8.161-3.118-12.537-4.091 2.062-3.124 4.891-6.949 8.546-10.9zm-27.467-1.854c4.097 0 8.203.135 12.301.38-3.208 4.215-5.504 7.949-6.988 10.597-7.952-.35-15.932.466-23.203 2.386-2.926-2.544-8.08-6.396-16.138-10.459 10.994-1.912 22.466-2.904 34.028-2.904zm-89.433 24.436c9.695-7.028 21.512-12.58 34.581-16.605 10.978 3.739 18.516 7.8 23.351 10.975-1.345.769-2.635 1.587-3.847 2.465-3.069 2.225-5.556 4.706-7.425 7.368-8.242-.549-28.04-.973-56.319 4.142 2.79-2.898 6.003-5.694 9.659-8.345zm-19.66 23.135c2.593-.58 5.105-1.11 7.513-1.585 25.998-5.126 45.196-5.368 54.719-5.01-.003.609.019 1.22.071 1.834-10.69 3.567-34.968 12.573-63.116 28.92-.872-2.549-1.457-5.131-1.728-7.734-.576-5.532.315-11.057 2.541-16.425zm-5.678 41.79c6.966 10.063 17.563 19.176 31.187 26.68-13.288 18.88-27.579 41.288-40.681 66.162-21.696-12.222-37.291-27.321-44.762-43.384-.652-1.401-1.239-2.804-1.77-4.208 7.566-7.881 15.808-15.49 24.758-22.81 10.392-8.499 20.98-15.953 31.268-22.44zm-44.094-26.559c12.865-4.966 24.793-8.787 35.561-11.712-1 4.658-1.277 9.409-.778 14.201.461 4.425 1.579 8.777 3.295 13.017-10.752 6.769-21.866 14.581-32.848 23.537-7.318 5.968-14.198 12.167-20.671 18.565-2.739-22.011 6.47-43.026 15.441-57.608zm-21.182 81.962c8.818 18.467 26.34 35.303 50.059 48.619-11.453 23.047-20.636 45.813-27.517 68.139-17.932-11.332-32.302-25.112-43.001-41.286-5.383-8.137-9.487-16.407-12.603-24.518 8.345-18.025 19.362-35.024 33.062-50.954zm140.507 231.008c-45.837-3.738-86.293-15.771-119.934-35.51 1.258-20.572 4.772-40.668 9.765-59.881 21.394 11.054 46.615 19.318 75.573 24.708 12.62 2.349 24.75 4.116 36.41 5.386-1.329 22.358-2.029 44.423-1.814 65.297zm-130.381-59.06c-.733 5.324-1.314 10.611-1.757 15.864-13.486-9.142-25.725-19.644-36.604-31.469-9.878-10.737-17.615-21.463-23.633-31.248 1.437-20.312 5.501-39.664 12.174-58.025 2.491 5.039 5.362 10.1 8.681 15.133 12.323 18.69 29.016 34.398 49.942 47.05-3.919 14.446-6.874 28.696-8.803 42.695zm14.883 89.545c-3.577-17.359-5.085-34.684-4.937-51.75 5.363 2.96 10.873 5.743 16.537 8.335 30.565 13.985 65.528 22.522 104.145 25.501.541 18.422 1.883 35.712 4.228 51.215-48.951-5.183-89.774-19.272-119.973-33.301zm118.12-108.278c-11.182-1.233-22.821-2.94-34.926-5.194-28.807-5.362-53.655-13.633-74.426-24.734 7.435-25 17.18-48.282 27.4-68.904 8.084 3.869 16.747 7.359 25.916 10.405 19.609 6.513 40.922 10.815 63.148 12.864-2.839 24.471-5.348 50.096-7.112 75.563zm-76.235-110.019c13.205-25.062 27.634-47.555 40.947-66.351 16.257 7.086 34.796 11.767 54.266 13.827-3.391 21.794-7.055 47.288-10.388 74.557-32.614-3.014-61.53-10.969-84.825-22.033zm210.464 241.358c-25.92 7.305-55.386 11.934-88.883 12.303-10.583.117-20.862-.231-30.841-.945-2.5-15.333-3.903-32.776-4.446-51.552 2.794.127 5.603.229 8.433.3 5.549.138 10.993.207 16.384.207 40.551 0 76.67-3.935 108.329-11.758-1.226 17.641-4.066 34.95-8.976 51.445zm9.597-64.614c-35.562 9.316-77.26 13.401-125.021 12.208-3.017-.075-6.007-.196-8.982-.339-.189-20.631.541-42.581 1.903-64.904 11.709.945 22.91 1.381 33.601 1.381 37.722 0 69.124-5.393 94.37-12.709 3.036 21.195 4.674 42.93 4.129 64.363zm-8.744-144.02c-.988-3.44-2-6.851-3.028-10.238 30.068-9.568 54.718-24.286 71.779-42.672 14.312 19.245 25.755 39 34.32 59.233-13.756 16.365-36.315 34.768-68.633 49.194-5.922 2.643-12.491 5.275-19.688 7.78-3.543-20.25-8.452-41.374-14.75-63.297zm21.498 140.362c.261-20.229-1.309-41.785-4.705-64.534 8.376-2.841 15.962-5.855 22.745-8.882 30.829-13.76 53.489-31.226 68.617-47.612 6.569 18.293 10.836 36.963 12.79 55.988-23.238 29.958-56.444 51.664-99.447 65.04z" fill="url(#SVGID_2_)"/><g><path d="m506.312 306.656.007-.01-45.454-26.384c-.786-.453-1.65-.788-2.602-.971l-100.182-19.28c-10.953-2.108-24.645 16.337-24.645 33.201v154.241c0 6.754 2.199 11.219 5.536 13.205l45.414 26.364c4.994 3.078 12.603.519 19.217-8.392l100.182-134.96c10.031-13.515 10.869-32.322 2.527-37.014z" fill="url(#SVGID_3_)"/><path d="m403.603 286.445 100.182 19.28c10.953 2.108 10.953 23.188 0 37.943l-100.182 134.961c-10.953 14.756-24.645 12.121-24.645-4.743v-154.24c0-16.864 13.692-35.309 24.645-33.201z" fill="url(#SVGID_4_)"/></g></g></svg>