<svg id="Capa_1" enable-background="new 0 0 512 512" height="512" viewBox="0 0 512 512" width="512" xmlns="http://www.w3.org/2000/svg" xmlns:xlink="http://www.w3.org/1999/xlink"><linearGradient id="lg1"><stop offset="0" stop-color="#2f97f7"/><stop offset="1" stop-color="#79d3fe"/></linearGradient><linearGradient id="SVGID_1_" gradientUnits="userSpaceOnUse" x1="229.692" x2="215.767" xlink:href="#lg1" y1="434.676" y2="515.649"/><linearGradient id="SVGID_00000116201823773748056230000004927873128751854261_" gradientUnits="userSpaceOnUse" x1="86.289" x2="40.665" xlink:href="#lg1" y1="348.457" y2="421.17"/><linearGradient id="SVGID_00000142866565262714958080000012431502904301289653_" gradientUnits="userSpaceOnUse" x1="81.827" x2="285.49" xlink:href="#lg1" y1="703.844" y2="182.178"/><linearGradient id="lg2"><stop offset="0" stop-color="#0072bc"/><stop offset="1" stop-color="#0072bc" stop-opacity="0"/></linearGradient><linearGradient id="SVGID_00000166669319905369676790000010232497127827874984_" gradientUnits="userSpaceOnUse" x1="298.968" x2="298.968" xlink:href="#lg2" y1="475.614" y2="13.357"/><linearGradient id="SVGID_00000111883863113830324100000003274964653704651698_" gradientUnits="userSpaceOnUse" x1="380.304" x2="380.304" xlink:href="#lg2" y1="475.615" y2="13.358"/><linearGradient id="SVGID_00000091701083564227966700000002799175216234250380_" gradientUnits="userSpaceOnUse" x1="76.921" x2="76.921" xlink:href="#lg2" y1="475.614" y2="13.357"/><linearGradient id="SVGID_00000103249954344888360030000009526784057348172446_" gradientUnits="userSpaceOnUse" x1="207.436" x2="207.436" xlink:href="#lg2" y1="475.614" y2="13.356"/><g><path d="m505.026 217.736c-29.098-102.231-147.099-182.396-269.546-203.238-122.447-20.843-226.657 61.223-221.446 214.282.242 7.114.836 13.998 1.743 20.664-10.003 11.19-15.777 25.814-15.777 41.269v7.112c0 44.685 18.772 87.667 52.618 116.844 3.844 3.313 7.728 6.29 11.59 8.835 9.291 29.709 27.672 81.789 41.009 76.875 10.915-4.021 18.113-36.755 22.192-63.044 14.538-.713 28.58-4.611 40.549-13.793 11.084 4.489 18.021 6.495 18.021 6.495 276.159 114.63 351.296-99 319.047-212.301z" fill="url(#SVGID_1_)"/><path d="m30.968 237.075c-19.163 11.064-30.968 31.51-30.968 53.638v7.111c0 44.685 18.772 87.667 52.618 116.844 9.119 7.861 18.471 13.986 27.198 16.345 36.148 9.77 81.089 13.678 105.513-27.355s-154.361-166.583-154.361-166.583z" fill="url(#SVGID_00000116201823773748056230000004927873128751854261_)"/><path d="m185.98 430.036s-166.736-48.197-171.947-201.256c-5.21-153.059 99-235.124 221.447-214.282s240.448 101.006 269.546 203.238c32.249 113.3-42.888 326.931-319.046 212.3z" fill="url(#SVGID_00000142866565262714958080000012431502904301289653_)"/><g><path d="m374.555 458.128c16.443-3.593 31.247-9.127 44.498-16.213l53.329-53.329c1.875-1.875 2.929-4.419 2.929-7.071v-67.455l23.741-13.707c4.783-2.761 6.422-8.877 3.66-13.66-2.761-4.784-8.877-6.422-13.66-3.66l-13.741 7.934v-52.282l21.365-12.335c4.783-2.761 6.422-8.877 3.66-13.66-2.761-4.784-8.877-6.422-13.66-3.66l-19.192 11.081-59.743-69.382 8.952-5.168c4.783-2.761 6.422-8.877 3.66-13.66-2.762-4.784-8.878-6.422-13.66-3.66l-14.407 8.318-149.69-86.425 14.9-8.602c4.783-2.761 6.422-8.877 3.66-13.66s-8.877-6.422-13.66-3.66l-24.9 14.375-24.899-14.375c-1.52-.878-3.245-1.34-5-1.34h-60.55c-13.623 5.065-26.448 11.754-38.265 20h96.136l12.579 7.262-19.975 11.533c-4.783 2.761-6.422 8.877-3.66 13.66 1.852 3.208 5.213 5.001 8.669 5.001 1.696 0 3.416-.432 4.991-1.341l29.975-17.306 149.689 86.423-42.809 24.716-61.925-35.752c-3.171-1.831-7.089-1.783-10.213.126l-59.942 36.617-28.121-16.236v-26.919l31.298-18.07c4.783-2.761 6.422-8.878 3.66-13.66-2.761-4.784-8.878-6.422-13.66-3.66l-36.298 20.957c-3.094 1.786-5 5.087-5 8.66v38.466c0 3.573 1.906 6.874 5 8.66l33.265 19.206v75.948l-23.702 13.685-41.932-24.209v-15.559c0-5.523-4.477-10-10-10s-10 4.477-10 10v21.332c0 3.573 1.906 6.874 5 8.66l51.932 29.982c1.547.893 3.273 1.34 5 1.34s3.453-.447 5-1.34l27.056-15.621 16.812 16.811c1.953 1.953 4.512 2.929 7.071 2.929s5.119-.976 7.071-2.929c3.905-3.905 3.905-10.237 0-14.143l-19.309-19.308v-77.743l55.155-33.692 56.781 32.782v46.935c0 5.523 4.477 10 10 10s10-4.477 10-10v-46.935l50.636-29.234 65.199 75.717v65.89l-22.035 12.722h-24.333l-34.927-34.927 35.706-20.615c4.783-2.761 6.422-8.878 3.66-13.66-2.761-4.784-8.878-6.422-13.66-3.66l-46.992 27.131-37.363 21.571-42.403-42.403v-37.95c0-5.523-4.477-10-10-10s-10 4.477-10 10v42.092c0 2.652 1.054 5.196 2.929 7.071l50.758 50.758c1.926 1.926 4.486 2.929 7.075 2.929 1.712 0 3.436-.439 4.997-1.34l37.363-21.571 41.645 41.646c1.875 1.875 4.419 2.929 7.071 2.929h31.154c1.755 0 3.48-.462 5-1.34l14.355-8.288v51.766z" fill="url(#SVGID_00000166669319905369676790000010232497127827874984_)"/><path d="m365.366 107.081c1.696 0 3.416-.432 4.991-1.341l34.897-20.148c-5.927-4.334-12.031-8.514-18.288-12.535l-26.608 15.362c-4.783 2.761-6.422 8.877-3.66 13.66 1.85 3.209 5.212 5.002 8.668 5.002z" fill="url(#SVGID_00000111883863113830324100000003274964653704651698_)"/><path d="m111.594 172.066v-76.737c0-5.523-4.477-10-10-10s-10 4.477-10 10v21.691h-21.381l-23.874-23.875c-3.627 5.791-6.983 11.871-10.056 18.229l22.717 22.717c1.875 1.875 4.419 2.929 7.071 2.929h25.523v35.045l-18.142 18.143h-34.287l-22.48-12.979c-1.017 7.067-1.769 14.334-2.239 21.801l17.04 9.838c1.52.878 3.245 1.34 5 1.34h41.109c2.652 0 5.196-1.054 7.071-2.929l16.929-16.929 20.73 20.73c1.953 1.953 4.512 2.929 7.071 2.929s5.119-.976 7.071-2.929c3.905-3.905 3.905-10.237 0-14.143z" fill="url(#SVGID_00000091701083564227966700000002799175216234250380_)"/><path d="m333.887 462.794-38.016-38.016v-12.778h48.955c5.523 0 10-4.477 10-10s-4.477-10-10-10h-92.037v-29.671l29.293-29.293c3.905-3.905 3.906-10.237.001-14.142-3.905-3.906-10.237-3.905-14.142 0l-32.223 32.222c-1.876 1.875-2.929 4.419-2.929 7.071v26.493l-152.743-88.188v-15.957c0-5.523-4.477-10-10-10s-10 4.477-10 10v21.73c0 3.573 1.906 6.874 5 8.66l122.39 70.662-20.354 11.752c-3.094 1.786-5 5.087-5 8.66v19.086c8.929 3.841 15.941 6.352 20 7.709v-21.021l25.353-14.638 30.353 17.524c.025.014.052.024.077.038.352.2.715.382 1.093.538.011.005.023.008.034.013.353.145.717.265 1.089.37.095.027.191.05.287.074.299.074.602.134.91.181.103.016.205.035.309.047.394.047.794.079 1.201.079h33.082v16.921c0 2.652 1.054 5.196 2.929 7.071l25.698 25.698c10.219.945 20.013 1.299 29.39 1.105z" fill="url(#SVGID_00000103249954344888360030000009526784057348172446_)"/></g><g fill="#f7e041"><circle cx="275.012" cy="325.147" r="17.589"/><circle cx="348.371" cy="399.177" r="17.589"/><circle cx="330.782" cy="241.079" r="17.589"/><ellipse cx="70.046" cy="270.256" rx="13.229" ry="23.384" transform="matrix(.92 -.392 .392 .92 -100.225 49.004)"/><ellipse cx="129.396" cy="204.01" rx="13.229" ry="23.384" transform="matrix(.92 -.392 .392 .92 -69.549 66.954)"/><ellipse cx="111.907" cy="241.079" rx="13.229" ry="23.384" transform="matrix(.92 -.392 .392 .92 -85.459 63.065)"/><ellipse cx="222.668" cy="295.173" rx="13.23" ry="23.384" transform="matrix(.92 -.392 .392 .92 -97.797 110.754)"/><ellipse cx="408.49" cy="250.289" rx="23.384" ry="13.23" transform="matrix(.392 -.92 .92 .392 18.24 528.163)"/><path d="m511.99 269.195c-2.794-2.923-7.032-3.371-11.778-.631-8.413 4.857-15.232 17.887-15.232 29.104 0 11.216 6.82 16.372 15.232 11.515 3.866-2.232 7.385-6.2 10.071-10.915 1.213-9.798 1.769-19.541 1.707-29.073z"/><path d="m494.052 237.999c5.043-2.912 9.5-8.767 12.272-15.401-.412-1.639-.843-3.262-1.299-4.862-2.101-7.38-4.679-14.642-7.675-21.778-1.063.301-2.166.767-3.299 1.422-8.413 4.857-15.232 17.887-15.232 29.104.001 11.216 6.82 16.371 15.233 11.515z"/><ellipse cx="101.594" cy="87.951" rx="23.384" ry="13.23" transform="matrix(.993 -.121 .121 .993 -9.895 12.938)"/><ellipse cx="187.622" cy="70.327" rx="23.384" ry="13.229" transform="matrix(.993 -.121 .121 .993 -7.13 23.216)"/><ellipse cx="195.58" cy="103.925" rx="23.384" ry="13.23" transform="matrix(.993 -.121 .121 .993 -11.137 24.426)"/><path d="m385.228 104.123c9.714-5.608 10.769-14.092 2.357-18.949-8.413-4.857-23.107-4.248-32.821 1.36s-10.769 14.092-2.357 18.949c8.413 4.858 23.107 4.249 32.821-1.36z"/><ellipse cx="419.422" cy="131.249" rx="23.384" ry="13.23" transform="matrix(.993 -.121 .121 .993 -12.798 51.708)"/><path d="m246.415 16.522c-.947.423-1.873.873-2.747 1.378-9.714 5.608-10.769 14.092-2.357 18.949 8.413 4.857 23.107 4.248 32.821-1.36 5.038-2.908 7.724-6.589 7.992-10.137-11.783-3.481-23.711-6.438-35.709-8.83z"/></g></g></svg>