<svg id="Capa_1" enable-background="new 0 0 512 512" height="512" viewBox="0 0 512 512" width="512" xmlns="http://www.w3.org/2000/svg" xmlns:xlink="http://www.w3.org/1999/xlink"><linearGradient id="lg1"><stop offset=".0319" stop-color="#43386b"/><stop offset=".0811" stop-color="#463a70"/><stop offset=".356" stop-color="#544686"/><stop offset=".5321" stop-color="#594a8e"/><stop offset="1" stop-color="#7662bd"/></linearGradient><linearGradient id="SVGID_1_" gradientTransform="matrix(-1 0 0 1 377.05 0)" gradientUnits="userSpaceOnUse" x1="122.129" x2="139.408" xlink:href="#lg1" y1="292.985" y2="263.057"/><linearGradient id="lg2"><stop offset="0" stop-color="#594a8e"/><stop offset="1" stop-color="#a996eb"/></linearGradient><linearGradient id="SVGID_2_" gradientTransform="matrix(-1 0 0 1 377.05 0)" gradientUnits="userSpaceOnUse" x1="248.699" x2="248.699" xlink:href="#lg2" y1="406.396" y2="326.399"/><linearGradient id="SVGID_3_" gradientUnits="userSpaceOnUse" x1="246.763" x2="246.763" y1="315.574" y2="133.638"><stop offset=".0319" stop-color="#a996eb"/><stop offset=".2213" stop-color="#bfb3eb"/><stop offset=".4108" stop-color="#d1c9eb"/><stop offset=".5321" stop-color="#d7d1eb"/><stop offset="1" stop-color="#e9e5f6"/></linearGradient><linearGradient id="SVGID_4_" gradientUnits="userSpaceOnUse" x1="255.312" x2="255.312" y1="511.046" y2="30.617"><stop offset="0" stop-color="#dfdaef"/><stop offset="1" stop-color="#fff"/></linearGradient><linearGradient id="SVGID_5_" gradientTransform="matrix(-1 0 0 1 377.05 0)" gradientUnits="userSpaceOnUse" x1="122.129" x2="139.408" xlink:href="#lg1" y1="85.595" y2="55.667"/><linearGradient id="SVGID_6_" gradientTransform="matrix(-1 0 0 1 377.05 0)" gradientUnits="userSpaceOnUse" x1="248.699" x2="248.699" xlink:href="#lg2" y1="199.006" y2="119.009"/><g><g><path d="m205.4 400.666c-.889 0-1.793-.127-2.688-.395-4.971-1.483-7.799-6.714-6.317-11.685l44.859-150.425c1.483-4.971 6.716-7.801 11.685-6.317 4.972 1.483 7.799 6.714 6.317 11.686l-44.859 150.425c-1.215 4.076-4.951 6.711-8.997 6.711z" fill="#d7d1eb"/></g><g><path d="m150.499 512c-.632 0-1.274-.064-1.917-.198-5.079-1.053-8.343-6.025-7.29-11.104l42.234-203.691 136.194-78.631 73.958 144.369c2.365 4.617.54 10.277-4.078 12.642-4.615 2.366-10.278.54-12.643-4.077l-64.95-126.789-111.796 64.545-40.526 195.447c-.918 4.435-4.827 7.487-9.186 7.487z" fill="#d7d1eb"/></g><g><path d="m121.153 339.523 239.927-131.404c1.937-1.104 4.457-.992 7.212.599 6.111 3.528 11.064 12.993 11.064 21.141 0 4.295-1.377 7.366-3.574 8.793v.001l-240.38 131.67c-1.913 1.008-14.249-30.8-14.249-30.8z" fill="url(#SVGID_1_)"/><path d="m117.286 348.495c0-8.148 4.954-11.892 11.064-8.365 6.111 3.528 11.064 12.993 11.064 21.141s-4.954 11.892-11.064 8.365c-6.11-3.528-11.064-12.993-11.064-21.141z" fill="url(#SVGID_2_)"/></g><g><path d="m351.448 12.898c-2.515-1.647-5.877-1.602-9.571.531l-198.437 114.568c-7.793 4.499-14.109 16.569-14.109 26.958v182.236l12.653 7.305 222.212-324.014z" fill="url(#SVGID_3_)"/><path d="m354.531 20.949-198.438 114.567c-7.792 4.499-14.109 16.568-14.109 26.958v182.021l226.656-130.858v-182.022c0-10.39-6.317-15.165-14.109-10.666z" fill="url(#SVGID_4_)"/><path d="m253.172 116.202-66.41 38.13c-4.384 2.531-7.938 9.322-7.938 15.167 0 5.845 3.554 8.532 7.938 6.001l66.41-38.13c4.384-2.531 7.938-9.322 7.938-15.167 0-5.845-3.554-8.532-7.938-6.001z" fill="#43386b"/><g><path d="m205.396 206.219-21.436 12.376v73.546l21.436-12.376z" fill="#06daae"/><path d="m237.943 208.342-21.436 12.376v52.632l21.436-12.376z" fill="#f7e041"/><path d="m270.49 202.622-21.437 12.376v39.562l21.437-12.377z" fill="#ff4757"/><path d="m303.037 149.846-21.437 12.377v73.546l21.437-12.377z" fill="#06daae"/><path d="m335.583 99.336-21.436 12.377v105.265l21.436-12.376z" fill="#59acf9"/></g></g><g><path d="m121.153 132.133 239.927-131.404c1.937-1.104 4.457-.992 7.212.599 6.111 3.528 11.064 12.993 11.064 21.141 0 4.295-1.377 7.366-3.574 8.793v.001l-240.38 131.67c-1.913 1.008-14.249-30.8-14.249-30.8z" fill="url(#SVGID_5_)"/><path d="m117.286 141.105c0-8.148 4.954-11.893 11.064-8.365 6.111 3.528 11.064 12.993 11.064 21.14 0 8.148-4.954 11.893-11.064 8.365-6.11-3.527-11.064-12.992-11.064-21.14z" fill="url(#SVGID_6_)"/></g></g></svg>