<svg id="Capa_1" enable-background="new 0 0 512 512" height="512" viewBox="0 0 512 512" width="512" xmlns="http://www.w3.org/2000/svg" xmlns:xlink="http://www.w3.org/1999/xlink"><linearGradient id="SVGID_1_" gradientUnits="userSpaceOnUse" x1="105.519" x2="299.569" y1="433.303" y2="97.199"><stop offset="0" stop-color="#7e62c0"/><stop offset=".113" stop-color="#b096ed"/><stop offset=".5259" stop-color="#b096ed"/><stop offset=".9916" stop-color="#d9d1ec"/></linearGradient><linearGradient id="SVGID_2_" gradientUnits="userSpaceOnUse" x1="292.496" x2="292.496" y1="417.882" y2="-68.652"><stop offset="0" stop-color="#e1daef"/><stop offset="1" stop-color="#fff"/></linearGradient><linearGradient id="SVGID_3_" gradientTransform="matrix(.866 -.5 0 1.155 34.128 583.435)" gradientUnits="userSpaceOnUse" x1="308.316" x2="308.316" y1="-23.982" y2="-244.747"><stop offset="0" stop-color="#5e4990"/><stop offset=".3855" stop-color="#7e62c0"/><stop offset="1" stop-color="#b096ed"/></linearGradient><linearGradient id="SVGID_4_" gradientUnits="userSpaceOnUse" x1="320.543" x2="228.948" y1="340.392" y2="164.53"><stop offset="0" stop-color="#fff"/><stop offset=".648" stop-color="#fff" stop-opacity="0"/></linearGradient><g><path d="m462.62 95.539-73.502-42.491-.028.03c-117.995-68.066-279.651 46.351-384.102 285.086-6.65 15.2-6.65 33.618 0 41.139v.001c14.371 16.253 29.832 28.871 46.106 38.069l-.019.02 72.017 41.55z" fill="url(#SVGID_1_)"/><path d="m507.012 132.658c-118.474-133.986-310.558-23.086-429.032 247.702-6.65 15.2-6.65 33.619 0 41.139v.001c118.474 133.985 310.558 23.086 429.032-247.702v-.002c6.65-15.198 6.65-33.617 0-41.138z" fill="url(#SVGID_2_)"/><path d="m386.971 227.518c0-63.212-38.433-92.266-85.841-64.895-47.409 27.372-85.841 100.804-85.841 164.016s38.433 92.266 85.841 64.895c47.409-27.371 85.841-100.804 85.841-164.016z" fill="url(#SVGID_3_)"/><ellipse cx="301.13" cy="277.079" fill="#45356d" rx="67.106" ry="37.965" transform="matrix(.392 -.92 .92 .392 -71.734 445.675)"/><path d="m303.008 235.907c0-20.881-12.696-30.479-28.357-21.437s-28.357 33.3-28.357 54.181c0 20.882 12.696 30.479 28.357 21.437 15.661-9.041 28.357-33.299 28.357-54.181z" fill="url(#SVGID_4_)"/></g></svg>