<svg id="Capa_1" enable-background="new 0 0 512 512" height="512" viewBox="0 0 512 512" width="512" xmlns="http://www.w3.org/2000/svg" xmlns:xlink="http://www.w3.org/1999/xlink"><linearGradient id="lg1"><stop offset="0" stop-color="#e37a34"/><stop offset="1" stop-color="#ffa538"/></linearGradient><linearGradient id="SVGID_1_" gradientUnits="userSpaceOnUse" x1="150.626" x2="158.462" xlink:href="#lg1" y1="467.923" y2="454.35"/><linearGradient id="lg2"><stop offset="0" stop-color="#ffc538"/><stop offset="1" stop-color="#f7e041"/></linearGradient><linearGradient id="SVGID_00000127729369060770879320000002812541629372688053_" gradientTransform="matrix(.866 -.5 0 1.155 290.687 1634.325)" gradientUnits="userSpaceOnUse" x1="-128.816" x2="-128.816" xlink:href="#lg2" y1="-1036.43" y2="-1096.089"/><linearGradient id="lg3"><stop offset="0" stop-color="#2f97f7"/><stop offset="1" stop-color="#79d3fe"/></linearGradient><linearGradient id="SVGID_00000105411749533495773370000015317579002620457612_" gradientUnits="userSpaceOnUse" x1="236.764" x2="236.764" xlink:href="#lg3" y1="405.12" y2=".896"/><linearGradient id="lg4"><stop offset="0" stop-color="#0072bc"/><stop offset="1" stop-color="#0072bc" stop-opacity="0"/></linearGradient><linearGradient id="SVGID_00000155865506980274758320000001566597294300016531_" gradientUnits="userSpaceOnUse" x1="208.957" x2="202.687" xlink:href="#lg4" y1="167.947" y2="178.808"/><linearGradient id="SVGID_00000116949211834095519480000005593596938958952335_" gradientUnits="userSpaceOnUse" x1="285.903" x2="311.642" xlink:href="#lg4" y1="126.316" y2="81.736"/><linearGradient id="SVGID_00000132055700872286507960000003483988979572032916_" gradientUnits="userSpaceOnUse" x1="222.327" x2="231.677" xlink:href="#lg4" y1="136.667" y2="120.472"/><linearGradient id="SVGID_00000014631686766742253910000017558819316251810701_" gradientUnits="userSpaceOnUse" x1="221.15" x2="221.15" xlink:href="#lg4" y1="377.088" y2="410.579"/><linearGradient id="SVGID_00000142154854391451256290000010301096470151270278_" gradientUnits="userSpaceOnUse" x1="135.891" x2="145.163" xlink:href="#lg4" y1="306.725" y2="290.667"/><linearGradient id="SVGID_00000032620723190027517140000018175237177113631674_" gradientUnits="userSpaceOnUse" x1="154.728" x2="161.876" xlink:href="#lg4" y1="234.813" y2="222.433"/><linearGradient id="SVGID_00000097471670898933685580000018303213809368795022_" gradientUnits="userSpaceOnUse" x1="187.095" x2="151.255" xlink:href="#lg4" y1="344.75" y2="404.678"/><linearGradient id="SVGID_00000101804528434964591200000005064696493991719071_" gradientTransform="matrix(.866 -.5 0 1.155 33.636 577.251)" gradientUnits="userSpaceOnUse" x1="256.39" x2="256.39" xlink:href="#lg3" y1="-12.827" y2="-321.933"/><linearGradient id="SVGID_00000170273225093691018230000008326343771619353277_" gradientUnits="userSpaceOnUse" x1="166.525" x2="158.181" xlink:href="#lg4" y1="249.238" y2="263.69"/><linearGradient id="lg5"><stop offset="0" stop-color="#ab2c37"/><stop offset="1" stop-color="#ff4757"/></linearGradient><linearGradient id="SVGID_00000110451409821940894350000003175805736097405629_" gradientUnits="userSpaceOnUse" x1="381.292" x2="407.488" xlink:href="#lg5" y1="117.033" y2="71.66"/><linearGradient id="lg6"><stop offset="0" stop-color="#ff4757"/><stop offset="1" stop-color="#ff7a85"/></linearGradient><linearGradient id="SVGID_00000051364618034821742210000012783365715257130382_" gradientUnits="userSpaceOnUse" x1="401.031" x2="401.031" xlink:href="#lg6" y1="175.859" y2="110.198"/><linearGradient id="SVGID_00000125587668837764048040000017381954953511017405_" gradientUnits="userSpaceOnUse" x1="110.279" x2="136.476" y1="397.108" y2="351.735"><stop offset="0" stop-color="#236568"/><stop offset="1" stop-color="#2f878a"/></linearGradient><linearGradient id="SVGID_00000158017367011334638930000012510244080761989565_" gradientUnits="userSpaceOnUse" x1="130.018" x2="130.018" y1="455.934" y2="390.272"><stop offset="0" stop-color="#2f878a"/><stop offset="1" stop-color="#06daae"/></linearGradient><linearGradient id="SVGID_00000051378808053920682040000012243623246013983131_" gradientUnits="userSpaceOnUse" x1="348.19" x2="374.386" y1="355.497" y2="310.123"><stop offset="0" stop-color="#c5baeb"/><stop offset="1" stop-color="#f2effa"/></linearGradient><linearGradient id="SVGID_00000153707609609793023730000004582727025218846088_" gradientUnits="userSpaceOnUse" x1="367.929" x2="367.929" y1="414.323" y2="348.661"><stop offset="0" stop-color="#d7d1eb"/><stop offset="1" stop-color="#f2effa"/></linearGradient><linearGradient id="SVGID_00000031915316840743169080000004076252618725981619_" gradientUnits="userSpaceOnUse" x1="106.011" x2="132.207" xlink:href="#lg5" y1="151.518" y2="106.145"/><linearGradient id="SVGID_00000150803779884004191880000017691207733328520596_" gradientUnits="userSpaceOnUse" x1="125.75" x2="125.75" xlink:href="#lg6" y1="210.344" y2="144.682"/><linearGradient id="SVGID_00000132076623677049790040000016682708506454692258_" gradientUnits="userSpaceOnUse" x1="298.21" x2="306.046" xlink:href="#lg1" y1="64.326" y2="50.753"/><linearGradient id="SVGID_00000121258291589368265410000012639666856016411036_" gradientTransform="matrix(.866 -.5 0 1.155 290.687 1634.325)" gradientUnits="userSpaceOnUse" x1="41.604" x2="41.604" xlink:href="#lg2" y1="-1312.162" y2="-1371.82"/><linearGradient id="SVGID_00000058579992639921909360000014458538046778243759_" gradientUnits="userSpaceOnUse" x1="241.689" x2="250.144" y1="266.695" y2="252.052"><stop offset="0" stop-color="#221c36"/><stop offset="1" stop-color="#43386b"/></linearGradient><linearGradient id="SVGID_00000083089504960764899000000004881846293781192615_" gradientTransform="matrix(.866 -.5 0 1.155 290.687 1634.327)" gradientUnits="userSpaceOnUse" x1="-18.398" x2="-18.398" y1="-1119.629" y2="-1226.891"><stop offset="0" stop-color="#43386b"/><stop offset="1" stop-color="#594a8e"/></linearGradient><g><g><path d="m218.193 412.706-14.844-8.523c-1.628-.897-3.73-.795-6.029.532l-65.349 37.729c-5.16 2.979-9.343 10.972-9.343 17.853v35.206c0 3.724 1.232 6.346 3.174 7.507l14.371 8.258z" fill="url(#SVGID_1_)"/><path d="m211.806 413.027-65.348 37.729c-5.16 2.979-9.344 10.972-9.344 17.853v35.206c0 6.881 4.183 10.043 9.344 7.064l65.348-37.729c5.16-2.979 9.344-10.972 9.344-17.853v-35.206c0-6.88-4.183-10.043-9.344-7.064z" fill="url(#SVGID_00000127729369060770879320000002812541629372688053_)"/></g><g><path d="m238.222 415.495 124.326-237.269-34.997-20.078-3.283-49.013-35.946-20.805-.001.002c-2.265-1.294-5.529.118-8.174 3.609l-11.942 15.76-31.086-17.955c-1.295-.853-3.02-.814-4.879.259l-24.247 13.999c-3.208 1.852-6.026 6.316-6.904 10.937l-7.916 41.642c-2.677 2.809-5.29 5.76-7.829 8.844l-25.258-4.168c-2.802-.463-6.3 2.208-8.568 6.542l-17.145 32.759c-2.268 4.334-2.756 9.279-1.196 12.115l14.063 25.558c-1.214 4.086-2.295 8.194-3.243 12.311l-27.804 26.607c-3.085 2.952-5.213 7.939-5.213 12.216v32.329c0 2.795.913 4.836 2.404 5.75l-.001.002.094.055c.055.031.108.067.164.095l29.077 16.799-9.542 28.361c-1.56 4.638-1.072 9.019 1.196 10.734l53.519 33.97 16.011-21.777z" fill="url(#SVGID_00000105411749533495773370000015317579002620457612_)"/><path d="m185.344 165.425 35.553 20.547 7.829-8.843-35.553-20.547z" fill="url(#SVGID_00000155865506980274758320000001566597294300016531_)"/><path d="m280.767 149.455h15.785l27.717-40.32-35.947-20.805-.001.002c-2.265-1.294-5.529.118-8.174 3.609l-11.942 15.76 4.367 2.521z" fill="url(#SVGID_00000116949211834095519480000005593596938958952335_)"/><path d="m232.24 90.004-24.247 13.999c-3.208 1.852-6.026 6.316-6.904 10.937l-7.916 41.642 35.553 20.547 43.847-66.907-4.367-2.521-31.086-17.955c-1.296-.854-3.021-.815-4.88.258z" fill="url(#SVGID_00000132055700872286507960000003483988979572032916_)"/><path d="m203.903 395.681 17.463-21.085 17.031 1.57-.175 39.329z" fill="url(#SVGID_00000014631686766742253910000017558819316251810701_)"/><path d="m149.391 348.225 30.159-77.137-35.553-20.547-27.804 26.607c-3.085 2.952-5.213 7.939-5.213 12.216v32.329c0 2.795.913 4.836 2.404 5.75l-.001.002.094.055c.055.031.108.067.164.095l29.077 16.799z" fill="url(#SVGID_00000142154854391451256290000010301096470151270278_)"/><path d="m133.177 212.673 14.063 25.558 35.553 20.547 4.278-70.432-35.553-20.547-17.145 32.759c-2.268 4.334-2.756 9.279-1.196 12.115z" fill="url(#SVGID_00000032620723190027517140000018175237177113631674_)"/><path d="m185.331 334.874-35.941 13.351-6.671-3.832-9.542 28.361c-1.56 4.638-1.072 9.019 1.196 10.734l53.519 33.97 1.653-2.249z" fill="url(#SVGID_00000097471670898933685580000018303213809368795022_)"/><path d="m359.593 177.695-27.804 5.498c-.947-3.022-2.029-5.882-3.243-8.566l14.063-41.796c1.56-4.638 1.072-9.019-1.196-10.734l-17.145-12.961c-2.268-1.715-5.766-.346-8.568 3.352l-25.258 33.333c-2.539-.152-5.152-.086-7.829.196l-7.916-32.502c-.878-3.606-3.697-4.816-6.904-2.964l-24.247 13.999c-3.208 1.852-6.026 6.316-6.904 10.937l-7.916 41.642c-2.677 2.809-5.29 5.76-7.829 8.843l-25.258-4.168c-2.802-.463-6.3 2.208-8.568 6.542l-17.145 32.759c-2.268 4.334-2.756 9.279-1.196 12.115l14.063 25.558c-1.213 4.086-2.295 8.194-3.243 12.311l-27.804 26.607c-3.085 2.952-5.213 7.939-5.213 12.216v32.329c0 4.277 2.128 6.806 5.213 6.196l27.804-5.498c.948 3.022 2.029 5.882 3.243 8.566l-14.063 41.796c-1.56 4.638-1.072 9.019 1.196 10.734l17.145 12.961c2.268 1.715 5.766.346 8.568-3.352l25.258-33.333c2.539.152 5.152.086 7.829-.196l7.916 32.501c.878 3.606 3.697 4.816 6.904 2.964l24.247-13.999c3.208-1.852 6.026-6.316 6.904-10.937l7.916-41.642c2.677-2.809 5.29-5.76 7.829-8.844l25.258 4.168c2.803.462 6.3-2.208 8.568-6.542l17.145-32.759c2.268-4.334 2.756-9.279 1.196-12.115l-14.063-25.558c1.214-4.085 2.295-8.194 3.243-12.311l27.804-26.607c3.085-2.952 5.213-7.939 5.213-12.216v-32.329c0-4.275-2.128-6.804-5.213-6.194z" fill="url(#SVGID_00000101804528434964591200000005064696493991719071_)"/><path d="m182.792 258.778-3.242 12.31-35.553-20.547 3.243-12.31z" fill="url(#SVGID_00000170273225093691018230000008326343771619353277_)"/></g><g><path d="m403.025 75.054-.005.01c-4.503-2.573-10.36-2.326-16.77 1.374-14.2 8.199-25.712 30.193-25.712 49.127 0 10.302 3.413 17.565 8.808 20.735l14.952 8.604 33.909-71.116z" fill="url(#SVGID_00000110451409821940894350000003175805736097405629_)"/><path d="m426.742 104.369c0-18.934-11.511-27.636-25.712-19.438-14.2 8.199-25.712 30.193-25.712 49.127s11.512 27.636 25.712 19.438c14.201-8.198 25.712-30.193 25.712-49.127z" fill="url(#SVGID_00000051364618034821742210000012783365715257130382_)"/></g><g><path d="m132.012 355.129-.005.01c-4.503-2.573-10.36-2.326-16.77 1.375-14.2 8.199-25.712 30.193-25.712 49.127 0 10.302 3.413 17.565 8.808 20.735l14.952 8.604 33.909-71.116z" fill="url(#SVGID_00000125587668837764048040000017381954953511017405_)"/><path d="m155.73 384.444c0-18.934-11.512-27.636-25.712-19.438s-25.712 30.193-25.712 49.127 11.512 27.636 25.712 19.438 25.712-30.193 25.712-49.127z" fill="url(#SVGID_00000158017367011334638930000012510244080761989565_)"/></g><g><path d="m369.923 313.517-.005.01c-4.503-2.573-10.36-2.326-16.77 1.374-14.2 8.199-25.712 30.193-25.712 49.127 0 10.302 3.413 17.565 8.808 20.735l14.952 8.604 33.909-71.116z" fill="url(#SVGID_00000051378808053920682040000012243623246013983131_)"/><path d="m393.64 342.833c0-18.934-11.512-27.636-25.712-19.438-14.2 8.199-25.712 30.193-25.712 49.127s11.512 27.636 25.712 19.438c14.201-8.199 25.712-30.194 25.712-49.127z" fill="url(#SVGID_00000153707609609793023730000004582727025218846088_)"/></g><g><path d="m127.744 109.539-.005.01c-4.503-2.573-10.36-2.326-16.77 1.375-14.2 8.198-25.712 30.193-25.712 49.127 0 10.302 3.413 17.565 8.808 20.735l14.952 8.604 33.909-71.116z" fill="url(#SVGID_00000031915316840743169080000004076252618725981619_)"/><path d="m151.462 138.854c0-18.934-11.512-27.636-25.712-19.438s-25.712 30.193-25.712 49.127 11.511 27.636 25.712 19.438c14.2-8.198 25.712-30.193 25.712-49.127z" fill="url(#SVGID_00000150803779884004191880000017691207733328520596_)"/></g><g><path d="m365.777 9.108-14.844-8.523c-1.628-.896-3.73-.795-6.029.532l-65.349 37.729c-5.16 2.979-9.343 10.972-9.343 17.853v35.206c0 3.724 1.232 6.346 3.174 7.507l14.371 8.258z" fill="url(#SVGID_00000132076623677049790040000016682708506454692258_)"/><path d="m359.39 9.43-65.348 37.729c-5.16 2.979-9.344 10.972-9.344 17.853v35.206c0 6.881 4.183 10.043 9.344 7.064l65.348-37.729c5.16-2.979 9.344-10.972 9.344-17.853v-35.206c0-6.881-4.183-10.043-9.344-7.064z" fill="url(#SVGID_00000121258291589368265410000012639666856016411036_)"/></g><g><g fill="#f7e041"><path d="m225.408 235.753v-24.295l12.95-7.477v24.295z"/><path d="m249.903 221.515v-24.295l12.951-7.477v24.295z"/><path d="m274.398 207.277v-24.295l12.951-7.477v24.295z"/><path d="m225.408 370.783v-24.295l12.95-7.477v24.295z"/><path d="m249.903 356.545v-24.295l12.951-7.477v24.295z"/><path d="m274.398 342.307v-24.295l12.951-7.477v24.296z"/><path d="m328.584 190.319-18.222 10.52v17.268l18.222-10.52z"/><path d="m328.655 222.939-18.221 10.52v17.267l18.221-10.52z"/><path d="m310.506 266.078v17.267l18.221-10.52v-17.267z"/><path d="m215.014 256.099-18.222 10.52v17.267l18.222-10.52z"/><path d="m215.085 288.718-18.221 10.52v17.267l18.221-10.52z"/><path d="m196.935 349.124 18.222-10.52v-17.267l-18.222 10.52z"/></g><path d="m319.545 202.698-17.009-9.742c-1.866-1.028-4.277-.912-6.913.61l-74.935 43.264c-5.917 3.416-10.714 12.582-10.714 20.472v79.525c0 4.27 1.412 7.277 3.64 8.608l16.466 9.438z" fill="url(#SVGID_00000058579992639921909360000014458538046778243759_)"/><path d="m312.221 203.067-74.935 43.264c-5.917 3.417-10.714 12.582-10.714 20.472v79.525c0 7.89 4.797 11.516 10.714 8.1l74.935-43.264c5.917-3.416 10.715-12.582 10.715-20.472v-79.525c0-7.889-4.797-11.516-10.715-8.1z" fill="url(#SVGID_00000083089504960764899000000004881846293781192615_)"/></g></g></svg>