<svg id="Capa_1" enable-background="new 0 0 512 512" height="512" viewBox="0 0 512 512" width="512" xmlns="http://www.w3.org/2000/svg" xmlns:xlink="http://www.w3.org/1999/xlink"><linearGradient id="SVGID_1_" gradientUnits="userSpaceOnUse" x1="363.433" x2="363.433" y1="580.255" y2="59.676"><stop offset="0" stop-color="#544081"/><stop offset="1" stop-color="#b096ed"/></linearGradient><linearGradient id="lg1"><stop offset="0" stop-color="#45356d"/><stop offset=".2699" stop-color="#544081"/><stop offset="1" stop-color="#7e62c0"/></linearGradient><linearGradient id="SVGID_2_" gradientUnits="userSpaceOnUse" x1="521.004" x2="211.327" xlink:href="#lg1" y1="599.544" y2="63.167"/><linearGradient id="SVGID_3_" gradientUnits="userSpaceOnUse" x1="60.48" x2="339.57" y1="479.186" y2="-4.212"><stop offset="0" stop-color="#45356d"/><stop offset=".2699" stop-color="#544081"/><stop offset="1" stop-color="#b096ed"/></linearGradient><linearGradient id="SVGID_4_" gradientUnits="userSpaceOnUse" x1="103.127" x2="478.149" xlink:href="#lg1" y1="467.542" y2="251.023"/><g><path d="m470.869 124.012-214.949-124.012-214.789 124.009 7.797 7.847 7.151.786 199.919 131.217 199.919-131.217 7.531-.595z" fill="#c9baec"/><path d="m41.131 124.009v263.906l214.867 124.085v-17.295l-199.919-362.063z" fill="#45356d"/><path d="m255.998 494.705v17.295l214.871-124.026v-263.962l-14.952 8.63z" fill="url(#SVGID_1_)"/><path d="m455.917 132.642-199.919-115.423v477.486l199.919-115.423z" fill="url(#SVGID_2_)"/><path d="m56.079 132.642 199.919-115.423v477.486l-199.919-115.423z" fill="url(#SVGID_3_)"/><path d="m56.079 379.282 199.919-115.423 199.919 115.423-199.919 115.423z" fill="url(#SVGID_4_)"/><path d="m255.998 82.661v-7.815l-47.008 27.14v-57.64l-5.944 3.432v57.64l-44.036 25.424v-57.64l-5.944 3.432v57.64l-44.036 25.424v-57.64l-5.944 3.432v57.64l-47.008 27.14v7.815l47.008-27.14v53.732l-47.008 27.14v7.815l47.008-27.14v53.732l-47.008 27.14v7.815l47.008-27.14v58.097l5.944-3.432v-58.097l44.036-25.424v58.098l5.944-3.432v-58.097l44.036-25.424v58.097l5.944-3.432v-58.097l47.008-27.14v-7.815l-47.008 27.14v-53.732l47.008-27.14v-7.815l-47.008 27.14v-53.732zm-102.932 174.708-44.036 25.424v-53.733l44.036-25.424zm0-61.548-44.036 25.424v-53.732l44.036-25.424zm49.98 32.692-44.036 25.424v-53.732l44.036-25.424zm0-61.548-44.036 25.424v-53.732l44.036-25.424z" fill="#61efde"/><path d="m303.005 109.801v53.732l-47.008-27.14v7.815l47.008 27.14v53.732l-47.008-27.14v7.815l47.008 27.14v58.09l5.944 3.432v-58.09l44.036 25.424v58.09l5.944 3.432v-58.09l44.036 25.424v58.09l5.944 3.432v-58.09l47.008 27.14v-7.815l-47.008-27.14v-53.732l47.008 27.14v-7.815l-47.008-27.14v-53.732l47.008 27.14v-7.815l-47.008-27.14v-57.64l-5.944-3.432v57.64l-44.036-25.424v-57.64l-5.944-3.432v57.64l-44.036-25.424v-57.64l-5.944-3.432v57.64l-47.008-27.14v7.815zm55.924 93.835 44.036 25.424v53.732l-44.036-25.424zm0-61.547 44.036 25.424v53.732l-44.036-25.424zm-49.98 32.691 44.036 25.424v53.732l-44.036-25.424zm0-61.547 44.036 25.424v53.732l-44.036-25.424z" fill="#00daac"/><path d="m408.913 352.123-5.944-3.432-47.021 27.147-44.111-25.467 47.017-27.145-5.944-3.432-47.017 27.145-43.953-25.376 47.006-27.138-5.944-3.432-47.006 27.138-47.006-27.138-5.944 3.432 47.006 27.138-43.953 25.376-47.017-27.145-5.944 3.432 47.017 27.145-44.111 25.467-47.021-27.147-5.944 3.432 47.021 27.147-47.021 27.148 5.944 3.432 47.021-27.148 43.953 25.376-47.01 27.141 5.944 3.432 47.01-27.141 44.111 25.468-47.006 27.138 5.944 3.432 47.006-27.139 47.006 27.139 5.944-3.432-47.006-27.138 44.111-25.468 47.01 27.141 5.944-3.432-47.01-27.141 43.953-25.376 47.021 27.148 5.944-3.432-47.021-27.148zm-152.917-27.127 43.953 25.376-43.953 25.376-43.953-25.376zm-94.008 54.275 44.111-25.467 43.953 25.376-44.111 25.467zm94.008 54.275-44.111-25.468 44.111-25.467 44.111 25.467zm50.055-28.899-44.111-25.467 43.953-25.376 44.111 25.467z" fill="#00878a"/></g></svg>