<svg id="Capa_1" enable-background="new 0 0 512 512" height="512" viewBox="0 0 512 512" width="512" xmlns="http://www.w3.org/2000/svg" xmlns:xlink="http://www.w3.org/1999/xlink"><linearGradient id="SVGID_1_" gradientUnits="userSpaceOnUse" x1="257.645" x2="224.704" y1="336.18" y2="279.125"><stop offset="0" stop-color="#06daae"/><stop offset="1" stop-color="#06daae"/></linearGradient><linearGradient id="lg1"><stop offset="0" stop-color="#221c36"/><stop offset="1" stop-color="#43386b"/></linearGradient><linearGradient id="SVGID_00000114047368533273683730000006005538590983268002_" gradientUnits="userSpaceOnUse" x1="323.463" x2="280.28" xlink:href="#lg1" y1="350.494" y2="275.698"/><linearGradient id="SVGID_00000147179720779145170710000007100186248737097637_" gradientUnits="userSpaceOnUse" x1="362.929" x2="255.85" y1="324.363" y2="310.062"><stop offset="0" stop-color="#fff"/><stop offset="1" stop-color="#fff" stop-opacity="0"/></linearGradient><linearGradient id="lg2"><stop offset="0" stop-color="#2f878a"/><stop offset="1" stop-color="#06daae"/></linearGradient><linearGradient id="SVGID_00000137092758586267673640000006395860836012800162_" gradientUnits="userSpaceOnUse" x1="349.881" x2="349.881" xlink:href="#lg2" y1="626.321" y2="271.76"/><linearGradient id="SVGID_00000154410868814716501930000016823475754521314978_" gradientUnits="userSpaceOnUse" x1="193.998" x2="193.998" xlink:href="#lg2" y1="626.321" y2="271.76"/><linearGradient id="SVGID_00000028297927542356573320000008731663447974752442_" gradientUnits="userSpaceOnUse" x1="216.55" x2="216.55" xlink:href="#lg1" y1="361.772" y2="247.397"/><linearGradient id="SVGID_00000008121518910794569340000010522760890609530554_" gradientUnits="userSpaceOnUse" x1="141.009" x2="141.009" xlink:href="#lg1" y1="361.772" y2="247.397"/><linearGradient id="lg3"><stop offset="0" stop-color="#43386b"/><stop offset="1" stop-color="#594a8e"/></linearGradient><linearGradient id="SVGID_00000005226689987055825200000013252948172236379016_" gradientUnits="userSpaceOnUse" x1="251.287" x2="251.287" xlink:href="#lg3" y1="523.974" y2="418.67"/><linearGradient id="SVGID_00000148659556441921044770000013167682051311241874_" gradientUnits="userSpaceOnUse" x1="242.03" x2="260.544" xlink:href="#lg3" y1="469.584" y2="469.584"/><linearGradient id="SVGID_00000026874193748484521540000012729039691853938862_" gradientUnits="userSpaceOnUse" x1="116.614" x2="116.614" xlink:href="#lg3" y1="446.645" y2="341.341"/><linearGradient id="SVGID_00000085228569738414625890000005664816009350087830_" gradientUnits="userSpaceOnUse" x1="107.357" x2="125.872" xlink:href="#lg3" y1="392.255" y2="392.255"/><linearGradient id="SVGID_00000111164071348817157600000001160874997280415671_" gradientUnits="userSpaceOnUse" x1="392.517" x2="384.579" xlink:href="#lg1" y1="437.079" y2="423.329"/><linearGradient id="lg4"><stop offset="0" stop-color="#2f97f7"/><stop offset="1" stop-color="#79d3fe"/></linearGradient><linearGradient id="SVGID_00000151513761126220091130000000882546684968731829_" gradientUnits="userSpaceOnUse" x1="256" x2="256" xlink:href="#lg4" y1="270.193" y2="-107.536"/><linearGradient id="SVGID_00000008109426998870823340000001582839497706776730_" gradientUnits="userSpaceOnUse" x1="256" x2="256" xlink:href="#lg4" y1="346.175" y2="-31.554"/><linearGradient id="SVGID_00000083779715479163219150000004608656660647318400_" gradientUnits="userSpaceOnUse" x1="256" x2="256" xlink:href="#lg4" y1="346.174" y2="-31.565"/><g><g><path d="m97.172 352.013 27.727-15.942.001.002c5.055-2.678 11.548-2.297 18.633 1.793 16.118 9.306 29.185 34.272 29.185 55.763 0 11.815-3.955 20.11-10.189 23.647l.004.009-26.623 15.325z" fill="#221c36"/><path d="m231.845 429.342 27.727-15.942.001.002c5.055-2.679 11.548-2.297 18.633 1.793 16.118 9.306 29.185 34.272 29.185 55.763 0 11.815-3.955 20.11-10.19 23.647l.004.01-26.621 15.325z" fill="#221c36"/><path d="m418.511 352.509-35.297-36.989-.239-.709c-16.88-50.02-50.939-91.443-85.057-103.446l-5.246-1.846c-10.583-3.724-20.643-4.352-29.62-1.953l.008-.009s-37.573 9.071-51.961 12.572c-3.635.885-7.119 2.279-10.361 4.146l-121.214 69.774 229.509 209.857c26.605-4.736 52.184-14.06 75.595-27.558l27.376-15.783c14.371-8.285 24.725-22.205 28.173-38.431.386-1.815.615-3.345.615-4.417v-10.356c0-18.879-8.929-40.86-22.281-54.852z" fill="url(#SVGID_1_)"/><path d="m378 322.953-.268-.795c-8.637-25.593-21.283-49.178-36.116-68.541-4.176-5.451-11.787-6.895-17.734-3.461l-87.593 50.572c-6.419 3.706-8.168 12.206-3.681 18.106 14.636 19.247 27.114 42.601 35.662 67.93l.114.338 110.147-63.593z" fill="url(#SVGID_00000114047368533273683730000006005538590983268002_)"/><path d="m337.052 249.818c-4.043-2.072-9.013-2.064-13.172.337l-87.593 50.572c-6.419 3.706-8.168 12.206-3.681 18.105 13.995 18.404 26.007 40.568 34.506 64.618z" fill="url(#SVGID_00000147179720779145170710000007100186248737097637_)"/><path d="m260.693 460.163 48.339 43.742c26.605-4.736 52.184-14.06 75.595-27.558l27.371-15.78c14.297-8.243 24.624-22.061 28.125-38.19.417-1.923.668-3.542.668-4.662v-10.356c0-18.878-8.929-40.86-22.281-54.852l-35.297-36.989-124.243 70.892s.919 36.378 1.723 73.753z" fill="url(#SVGID_00000137092758586267673640000006395860836012800162_)"/><path d="m294.506 424.108-35.297-36.989-.239-.708c-16.88-50.02-50.939-91.443-85.057-103.446l-5.246-1.846c-10.703-3.765-20.868-4.358-29.922-1.864l.068-.079-56.272 13.55.089.028c-6.967 1.883-11.422 9.642-11.422 21.089v13.506c0 13.631 6.597 29.513 16.328 39.309v.001c19.737 19.869 40.344 36.082 61.079 48.053l151.107 87.505c9.425 5.441 17.065-.335 17.065-12.901v-10.356c0-18.878-8.929-40.86-22.281-54.852z" fill="url(#SVGID_00000154410868814716501930000016823475754521314978_)"/><g><path d="m181.44 351.778 67.355 38.888c1.521.878 3.32-.595 2.758-2.259l-.239-.709c-12.896-38.216-37.318-71.43-63.735-86.682-2.042-1.179-4.093-2.247-6.139-3.198z" fill="url(#SVGID_00000028297927542356573320000008731663447974752442_)"/><path d="m166.069 292.242c-12.668-3.453-24.239-1.827-33.661 4.815l-14.84 10.461-1.618 1.14 38.786 27.702 11.333 6.543z" fill="url(#SVGID_00000008121518910794569340000010522760890609530554_)"/></g><g><path d="m222.102 452.734c0-21.491 13.066-31.369 29.185-22.063 16.118 9.306 29.185 34.272 29.185 55.763s-13.067 31.369-29.185 22.063c-16.118-9.305-29.185-34.271-29.185-55.763z" fill="url(#SVGID_00000005226689987055825200000013252948172236379016_)"/><path d="m233.116 459.093c0-13.381 8.135-19.531 18.171-13.737 10.035 5.794 18.171 21.338 18.171 34.719s-8.135 19.531-18.171 13.737c-10.035-5.794-18.171-21.338-18.171-34.719z" fill="#eae5f6"/><path d="m242.03 464.24c0-6.817 4.145-9.95 9.257-6.998 5.113 2.952 9.257 10.871 9.257 17.688s-4.145 9.95-9.257 6.998c-5.113-2.952-9.257-10.871-9.257-17.688z" fill="url(#SVGID_00000148659556441921044770000013167682051311241874_)"/></g><g><path d="m87.429 375.405c0-21.491 13.067-31.369 29.185-22.063s29.185 34.272 29.185 55.763-13.067 31.369-29.185 22.063-29.185-34.272-29.185-55.763z" fill="url(#SVGID_00000026874193748484521540000012729039691853938862_)"/><ellipse cx="116.614" cy="392.255" fill="#eae5f6" rx="15.782" ry="27.896" transform="matrix(.92 -.392 .392 .92 -144.277 76.98)"/><path d="m107.357 386.91c0-6.817 4.145-9.95 9.257-6.998 5.113 2.952 9.257 10.871 9.257 17.688s-4.145 9.95-9.257 6.998-9.257-10.871-9.257-17.688z" fill="url(#SVGID_00000085228569738414625890000005664816009350087830_)"/></g><path d="m344.455 448.699c2.197-1.389 2.088-4.617-.205-5.842-6.27-3.347-17.394-8.632-25.296-8.734-4.819-.063-9.477.08-13.274.268-6.646.329-12.849 3.689-16.501 9.251-.445.678-.812 1.326-1.06 1.912-.368.869-.535 1.783-.572 2.678-.164 3.898 2.295 7.405 5.868 8.974 3.679 1.615 9.912 3.192 19.825 2.637 12.879-.72 24.913-7.16 31.215-11.144z" fill="#fff"/><path d="m438.77 390.928s-10.377 13.392-16.243 10.684c-5.866-2.707 6.764-34.513 6.764-34.513s8.216 9.089 9.479 23.829z" fill="#fff"/><path d="m353.259 441.343 63.886-36.885c0 11.934-6.367 22.961-16.702 28.928l-30.482 17.599c-7.423 4.287-16.702-1.071-16.702-9.642z" fill="url(#SVGID_00000111164071348817157600000001160874997280415671_)"/></g><g><g><path d="m307.174 200.528c-3.923 2.265-7.845 2.535-10.838.272-22.241-16.814-58.43 4.08-80.671 46.575-5.986 11.437-15.691 17.04-21.677 12.515-5.985-4.525-5.985-17.465 0-28.902 34.195-65.333 89.831-97.454 124.024-71.605 5.986 4.525 5.986 17.465 0 28.902-2.993 5.719-6.916 9.979-10.838 12.243z" fill="url(#SVGID_00000151513761126220091130000000882546684968731829_)"/></g><g><path d="m336.977 130.049c-3.923 2.265-7.845 2.534-10.838.272-38.676-29.237-101.603 7.094-140.278 80.989-5.986 11.437-15.691 17.041-21.677 12.515s-5.986-17.465 0-28.903c24.525-46.859 57.132-83.693 91.816-103.718 34.683-20.024 67.291-20.842 91.815-2.301 5.986 4.525 5.986 17.465 0 28.902-2.992 5.719-6.915 9.979-10.838 12.244z" fill="url(#SVGID_00000008109426998870823340000001582839497706776730_)"/></g><g><path d="m367.07 58.777c-3.923 2.265-7.846 2.535-10.838.272-55.267-41.782-145.196 10.138-200.464 115.738-5.986 11.437-15.691 17.04-21.677 12.515-5.985-4.525-5.985-17.465 0-28.902 16.453-31.436 35.644-59.505 57.04-83.427 20.659-23.098 42.484-41.362 64.869-54.286 22.384-12.924 44.209-19.861 64.868-20.618 21.396-.784 40.587 5.125 57.04 17.563 5.986 4.525 5.986 17.465 0 28.902-2.992 5.718-6.915 9.978-10.838 12.243z" fill="url(#SVGID_00000083779715479163219150000004608656660647318400_)"/></g></g></g></svg>