<svg id="Capa_1" enable-background="new 0 0 512 512" height="512" viewBox="0 0 512 512" width="512" xmlns="http://www.w3.org/2000/svg" xmlns:xlink="http://www.w3.org/1999/xlink"><linearGradient id="SVGID_1_" gradientUnits="userSpaceOnUse" x1="0" x2="511.996" y1="348.768" y2="348.768"><stop offset="0" stop-color="#00568d"/><stop offset=".9916" stop-color="#0197f8"/></linearGradient><linearGradient id="SVGID_2_" gradientUnits="userSpaceOnUse" x1="373.358" x2="373.358" y1="225.548" y2="127.671"><stop offset="0" stop-color="#ab2c37"/><stop offset=".0732" stop-color="#b32f3a"/><stop offset=".4827" stop-color="#dc3c4a"/><stop offset=".8056" stop-color="#f64453"/><stop offset="1" stop-color="#ff4757"/></linearGradient><linearGradient id="SVGID_3_" gradientUnits="userSpaceOnUse" x1=".01" x2="512" y1="266.669" y2="266.669"><stop offset="0" stop-color="#2f97f7"/><stop offset="1" stop-color="#59acf9"/></linearGradient><linearGradient id="SVGID_4_" gradientUnits="userSpaceOnUse" x1="209.91" x2="357.792" y1="286.524" y2="81.991"><stop offset="0" stop-color="#ff4757"/><stop offset=".2821" stop-color="#ff505f"/><stop offset=".7494" stop-color="#ff6a76"/><stop offset="1" stop-color="#ff7a85"/></linearGradient><linearGradient id="SVGID_5_" gradientUnits="userSpaceOnUse" x1=".257" x2="256" y1="189.279" y2="189.279"><stop offset="0" stop-color="#06daae"/><stop offset=".0809" stop-color="#16dcb3"/><stop offset=".394" stop-color="#4fe5c6"/><stop offset=".6626" stop-color="#78ebd4"/><stop offset=".8732" stop-color="#92efdc"/><stop offset="1" stop-color="#9bf0df"/></linearGradient><g><path d="m511.989 300.849.007-.001v-73.646l-511.996 42.306v71.549l.056-.004c-1.099 34.9 19.404 68.364 62.43 93.205 92.557 53.438 254.228 46.736 361.104-14.968 58.695-33.888 88.647-77.319 88.399-118.441z" fill="url(#SVGID_1_)"/><path d="m276.601 117.083v146.286l193.515-111.727v-73.9c-.001-.001-181.669 38.366-193.515 39.341z" fill="url(#SVGID_2_)"/><path d="m449.515 136.906-193.515 111.725-72.76-53.62-182.983 68.343c-2.76 36.263 17.644 71.263 62.229 97.004 92.557 53.437 254.228 46.735 361.104-14.968 106.874-61.706 118.482-155.047 25.925-208.484z" fill="url(#SVGID_3_)"/><path d="m276.6 43.182v146.286l193.515-111.727c-50.598-29.212-121.85-40.452-193.515-34.559z" fill="url(#SVGID_4_)"/><path d="m179.93 115.205c-32.733 8.509-63.951 20.753-91.519 36.669-55.394 31.982-85.185 72.462-88.155 111.48l255.744-14.722-45.149-92.318z" fill="url(#SVGID_5_)"/><path d="m256 248.632v-146.286c-25.614 2.106-51.275 6.414-76.07 12.859z" fill="#f7e041"/></g></svg>