<svg id="Capa_1" enable-background="new 0 0 512 512" height="512" viewBox="0 0 512 512" width="512" xmlns="http://www.w3.org/2000/svg" xmlns:xlink="http://www.w3.org/1999/xlink"><linearGradient id="lg1"><stop offset="0" stop-color="#7e62c0"/><stop offset=".4057" stop-color="#b096ed"/><stop offset=".9916" stop-color="#d9d1ec"/></linearGradient><linearGradient id="SVGID_1_" gradientUnits="userSpaceOnUse" x1="202.355" x2="137.159" xlink:href="#lg1" y1="373.509" y2="257.908"/><linearGradient id="SVGID_2_" gradientUnits="userSpaceOnUse" x1="260.885" x2="286.839" xlink:href="#lg1" y1="319.226" y2="274.273"/><linearGradient id="SVGID_3_" gradientUnits="userSpaceOnUse" x1="224.948" x2="278.234" xlink:href="#lg1" y1="250.776" y2="158.482"/><linearGradient id="lg2"><stop offset=".0547" stop-color="#006568"/><stop offset=".1168" stop-color="#0f7a7a"/><stop offset=".2782" stop-color="#32aca5"/><stop offset=".4196" stop-color="#4cd1c4"/><stop offset=".5341" stop-color="#5be7d7"/><stop offset=".6072" stop-color="#61efde"/><stop offset=".8807" stop-color="#89f2e4"/></linearGradient><linearGradient id="SVGID_4_" gradientUnits="userSpaceOnUse" x1="227.047" x2="493.022" xlink:href="#lg2" y1="181.936" y2="181.936"/><linearGradient id="SVGID_5_" gradientUnits="userSpaceOnUse" x1="242.771" x2="292.84" xlink:href="#lg2" y1="286.03" y2="199.308"/><linearGradient id="SVGID_6_" gradientUnits="userSpaceOnUse" x1="396.531" x2="465.42" xlink:href="#lg2" y1="161.872" y2="42.554"/><linearGradient id="SVGID_7_" gradientUnits="userSpaceOnUse" x1="378.842" x2="378.842" y1="361.628" y2="34.246"><stop offset="0" stop-color="#00daac"/><stop offset="1" stop-color="#61efde"/></linearGradient><linearGradient id="SVGID_8_" gradientUnits="userSpaceOnUse" x1="35.077" x2="107.151" xlink:href="#lg1" y1="402.566" y2="277.731"/><linearGradient id="SVGID_9_" gradientUnits="userSpaceOnUse" x1="224.606" x2="119.669" y1="427.815" y2="162.175"><stop offset="0" stop-color="#e1daef"/><stop offset="1" stop-color="#fff"/></linearGradient><g><g><path d="m278.148 269.539c-2.947-1.605-7.229.608-10.423 5.469-8.941 13.608-20.075 23.5-31.457 27.478-1.483.519-10.121-48.684 20.15-92.436 18.927-27.355 56.378-30.998 56.378-30.998l-34.16-19.755c-.256-.16-.526-.296-.816-.401-10.211-3.698-22.183-1.583-34.154 5.329-16.383 9.459-32.765 27.899-44.636 52.716-6.898 14.422-11.355 29.374-13.392 43.497l-50.088 28.918-4.257-2.719-33.587-19.448-.007.016c-10.341-5.691-23.705-5.019-38.311 3.414-32.799 18.936-59.388 69.739-59.388 113.471 0 24.223 8.167 41.178 21.019 48.282l-.006.013 34.957 20.182 84.768-117.602s56.354-15.362 58.294-13.546c2.194 2.053 4.544 3.705 7.017 4.984l.002.004 32.726 18.967 29.856-4.382 43.782-51.639-34.265-19.815z" fill="url(#SVGID_1_)"/><path d="m278.149 269.538-.001.001c-2.947-1.605-7.229.608-10.423 5.469-8.941 13.608-20.075 23.5-31.457 27.478-.28.098 9.415 34.665 35.814 34.437l40.333-47.571z" fill="url(#SVGID_2_)"/><path d="m278.636 159.297c-.256-.16-.526-.296-.816-.401-10.211-3.698-22.183-1.583-34.154 5.329-16.383 9.459-32.765 27.899-44.636 52.716-6.898 14.422-11.355 29.374-13.392 43.497l34.105 19.723s10.093-22.238 22.842-43.672c3.309-8.738 7.784-17.695 13.834-26.439 16.08-23.241 45.518-29.363 54.014-30.68.968-.488 1.491-.606 1.491-.606s.539.133.558.102z" fill="url(#SVGID_3_)"/><path d="m458.016 60.537-.009.012c-10.497-6.418-24.33-6.025-39.5 2.733-28.562 16.49-52.405 57.143-58.092 96.249l-82.033 47.361-9.414-5.447c-25.026 23.052-38.835 75.965-41.921 88.954l29.93 17.311 24.552-41.852 87.921-50.459c2.99 4.11 6.554 7.321 10.578 9.57l.005.024 34.976 20.191 78.014-164.35z" fill="url(#SVGID_4_)"/><path d="m268.802 201.606c-24.92 23.133-38.676 75.833-41.754 88.793l29.93 17.311 43.954-87.553z" fill="url(#SVGID_5_)"/><path d="m458.007 60.548c-10.497-6.418-24.33-6.025-39.5 2.733-28.562 16.49-52.405 57.143-58.092 96.249l34.105 19.724 98.503-98.42-35.006-20.297z" fill="url(#SVGID_6_)"/><path d="m452.612 83.004c-28.562 16.49-52.405 57.143-58.092 96.249l-87.13 50.304c-4.839-12.656-16.277-16.911-29.619-9.208-17.722 10.231-32.088 37.681-32.088 61.31 0 23.628 14.366 34.489 32.088 24.257 13.342-7.702 24.776-25.165 29.615-43.408l87.133-50.306c5.687 32.54 29.531 45.66 58.092 29.17 32.8-18.936 59.389-69.739 59.389-113.471s-26.589-63.833-59.388-44.897z" fill="url(#SVGID_7_)"/><path d="m131.293 286.637-33.587-19.448-.007.016c-10.341-5.691-23.705-5.019-38.311 3.414-32.799 18.936-59.388 69.739-59.388 113.471 0 24.223 8.167 41.178 21.019 48.282l-.006.013 34.957 20.182 84.768-117.602-5.186-45.609z" fill="url(#SVGID_8_)"/></g><g><path d="m312.796 289.611c-2.943-2.225-7.57-.048-10.967 5.121-8.941 13.608-20.076 23.5-31.457 27.478-5.787 2.022-11.321 2.182-16.145.505-24.24-8.432-24.231-55.605.027-92.014 4.824-7.24 10.357-13.465 16.141-18.119 11.284-9.078 22.325-12.061 31.224-8.902 3.532 1.254 8.308-1.988 11.355-7.81v-.001c3.837-7.331 3.385-15.643-1.05-17.249-10.211-3.698-22.182-1.582-34.154 5.33-16.382 9.458-32.765 27.899-44.636 52.716-6.899 14.422-11.355 29.374-13.392 43.496l-68.158 39.351c-5.687-32.54-29.531-45.661-58.092-29.171-32.799 18.937-59.388 69.74-59.388 113.472s26.589 63.833 59.388 44.896c28.561-16.489 52.405-57.142 58.092-96.248l68.159-39.351c2.037 11.771 6.494 21.576 13.393 28.032 11.871 11.11 28.253 10.632 44.635 1.174 13.583-7.842 25.88-23.167 33.607-34.281 4.573-6.577 5.267-15.515 1.418-18.425z" fill="url(#SVGID_9_)"/></g></g></svg>