<svg id="Capa_1" enable-background="new 0 0 512 512" height="512" viewBox="0 0 512 512" width="512" xmlns="http://www.w3.org/2000/svg" xmlns:xlink="http://www.w3.org/1999/xlink"><linearGradient id="SVGID_1_" gradientUnits="userSpaceOnUse" x1="370.477" x2="318.114" y1="377.755" y2="296.831"><stop offset="0" stop-color="#43386b"/><stop offset="1" stop-color="#594a8e"/></linearGradient><linearGradient id="lg1"><stop offset="0" stop-color="#d7d1eb"/><stop offset="1" stop-color="#f2effa"/></linearGradient><linearGradient id="SVGID_00000051366506092239805370000016218345980551791029_" gradientUnits="userSpaceOnUse" x1="180.996" x2="143.708" xlink:href="#lg1" y1="249.897" y2="362.555"/><linearGradient id="lg2"><stop offset="0" stop-color="#c5baeb"/><stop offset="1" stop-color="#f2effa"/></linearGradient><linearGradient id="SVGID_00000093166240856339630310000004062393623923988651_" gradientUnits="userSpaceOnUse" x1="70.28" x2="50.041" xlink:href="#lg2" y1="265.594" y2="230.539"/><linearGradient id="SVGID_00000137840878097095951130000012706198016965036459_" gradientUnits="userSpaceOnUse" x1="41.644" x2="41.644" xlink:href="#lg1" y1="306.589" y2="200.557"/><linearGradient id="lg3"><stop offset="0" stop-color="#7662bd"/><stop offset="1" stop-color="#c5baeb"/></linearGradient><linearGradient id="SVGID_00000138557268259145081480000002142561865373564330_" gradientUnits="userSpaceOnUse" x1="35.415" x2="49.29" xlink:href="#lg3" y1="241.034" y2="265.067"/><linearGradient id="SVGID_00000049941095175589251450000007730719624538548099_" gradientUnits="userSpaceOnUse" x1="143.016" x2="122.777" xlink:href="#lg2" y1="307.235" y2="272.18"/><linearGradient id="SVGID_00000068643411110722688880000018201581373839320495_" gradientUnits="userSpaceOnUse" x1="114.381" x2="114.381" xlink:href="#lg1" y1="348.23" y2="242.198"/><linearGradient id="SVGID_00000003827123418822442070000014580661198807572905_" gradientUnits="userSpaceOnUse" x1="108.152" x2="122.027" xlink:href="#lg3" y1="282.675" y2="306.708"/><linearGradient id="SVGID_00000052783042680100719410000002769020189903133329_" gradientUnits="userSpaceOnUse" x1="215.753" x2="195.514" xlink:href="#lg2" y1="348.875" y2="313.821"/><linearGradient id="SVGID_00000169535700196676342110000008647839698794797469_" gradientUnits="userSpaceOnUse" x1="187.118" x2="187.118" xlink:href="#lg1" y1="389.871" y2="283.839"/><linearGradient id="SVGID_00000172424207722295674590000001490606342625799063_" gradientUnits="userSpaceOnUse" x1="180.889" x2="194.764" xlink:href="#lg3" y1="324.316" y2="348.349"/><linearGradient id="SVGID_00000108311365287251918710000011579869340292809352_" gradientUnits="userSpaceOnUse" x1="288.49" x2="268.251" xlink:href="#lg2" y1="390.516" y2="355.461"/><linearGradient id="SVGID_00000024684179885867398760000017765230294312966059_" gradientUnits="userSpaceOnUse" x1="259.854" x2="259.854" xlink:href="#lg1" y1="431.512" y2="325.48"/><linearGradient id="SVGID_00000128451343927019602700000006040277417242176681_" gradientUnits="userSpaceOnUse" x1="253.625" x2="267.5" xlink:href="#lg3" y1="365.957" y2="389.989"/><g><path d="m512 293.895c0-40.426-24.666-87.555-54.985-105.06l-211.621-122.179c-13.899-8.025-26.601-8.432-36.292-2.647l-.014-.014-190.464 109.902 283.738 274.418 191.097-110.272-.013-.013c11.369-6.877 18.554-22.33 18.554-44.135z" fill="url(#SVGID_1_)"/><g fill="#26203d"><path d="m350.838 127.534-11.129-6.425-216.017 124.717 5.565 9.639z"/><path d="m86.807 211.083 5.564 9.639 209.936-121.207-11.129-6.425z"/><path d="m511.639 302.039-203.519 117.502 5.565 9.638 195.155-112.673c1.365-4.338 2.322-9.166 2.799-14.467z"/><path d="m399.369 155.554-11.129-6.425-227.662 131.44 5.565 9.638z"/><path d="m503.746 250.557-232.512 134.24 5.565 9.638 230.447-133.049c-1.02-3.639-2.188-7.257-3.5-10.829z"/><path d="m55.486 185.979 198.29-114.483-8.382-4.839c-.952-.55-1.897-1.056-2.837-1.534l-192.635 111.218z"/><path d="m486.493 217.33c-2.182-3.116-4.468-6.09-6.844-8.899l-245.301 141.624 5.565 9.638z"/><path d="m447.9 183.573-11.129-6.425-239.308 138.164 5.565 9.639z"/></g><path d="m266.606 298.704-211.621-122.179c-30.319-17.504-54.985 1.143-54.985 41.568 0 40.426 24.666 87.555 54.985 105.06l211.621 122.179c30.319 17.505 54.985-1.142 54.985-41.568s-24.666-87.555-54.985-105.06z" fill="#26203d"/><path d="m266.606 311.555-211.621-122.179c-25.045-14.459-45.347.889-45.347 34.282 0 33.393 20.303 72.185 45.347 86.644l211.62 122.179c25.045 14.46 45.347-.889 45.347-34.282.001-33.392-20.302-72.184-45.346-86.644z" fill="url(#SVGID_00000051366506092239805370000016218345980551791029_)"/><g><path d="m22.068 211.303 12.413-7.183.001.002c5.09-2.697 11.628-2.313 18.761 1.805 16.23 9.37 29.386 34.509 29.386 56.148 0 11.897-3.982 20.249-10.26 23.81l.005.01-11.3 6.562z" fill="url(#SVGID_00000093166240856339630310000004062393623923988651_)"/><path d="m12.258 234.857c0-21.64 13.157-31.586 29.387-22.216s29.387 34.509 29.387 56.149-13.157 31.586-29.387 22.216c-16.23-9.371-29.387-34.509-29.387-56.149z" fill="url(#SVGID_00000137840878097095951130000012706198016965036459_)"/><path d="m23.348 241.26c0-13.473 8.192-19.666 18.297-13.832s18.296 21.486 18.296 34.959-8.192 19.666-18.296 13.832c-10.105-5.834-18.297-21.486-18.297-34.959z" fill="url(#SVGID_00000138557268259145081480000002142561865373564330_)"/></g><g><path d="m94.804 252.944 12.413-7.183.001.002c5.09-2.697 11.628-2.313 18.761 1.805 16.23 9.37 29.386 34.509 29.386 56.148 0 11.897-3.982 20.249-10.26 23.81l.005.01-11.3 6.562z" fill="url(#SVGID_00000049941095175589251450000007730719624538548099_)"/><path d="m84.994 276.498c0-21.64 13.157-31.586 29.387-22.216s29.387 34.509 29.387 56.149-13.157 31.586-29.387 22.216c-16.23-9.371-29.387-34.509-29.387-56.149z" fill="url(#SVGID_00000068643411110722688880000018201581373839320495_)"/><path d="m96.085 282.901c0-13.473 8.192-19.666 18.297-13.832s18.296 21.486 18.296 34.959-8.192 19.666-18.296 13.832c-10.106-5.834-18.297-21.486-18.297-34.959z" fill="url(#SVGID_00000003827123418822442070000014580661198807572905_)"/></g><g><path d="m167.541 294.585 12.413-7.183.001.002c5.09-2.697 11.628-2.313 18.761 1.805 16.23 9.37 29.386 34.509 29.386 56.148 0 11.897-3.982 20.249-10.26 23.81l.005.01-11.3 6.562z" fill="url(#SVGID_00000052783042680100719410000002769020189903133329_)"/><path d="m157.731 318.139c0-21.64 13.157-31.586 29.387-22.216s29.387 34.509 29.387 56.149-13.157 31.586-29.387 22.216c-16.23-9.371-29.387-34.509-29.387-56.149z" fill="url(#SVGID_00000169535700196676342110000008647839698794797469_)"/><path d="m168.821 324.542c0-13.473 8.192-19.666 18.296-13.832 10.105 5.834 18.296 21.486 18.296 34.959s-8.191 19.666-18.296 13.832c-10.104-5.834-18.296-21.486-18.296-34.959z" fill="url(#SVGID_00000172424207722295674590000001490606342625799063_)"/></g><g><path d="m240.278 336.226 12.413-7.183.001.002c5.09-2.697 11.628-2.313 18.761 1.805 16.23 9.37 29.386 34.509 29.386 56.148 0 11.897-3.982 20.249-10.26 23.81l.004.01-11.3 6.562z" fill="url(#SVGID_00000108311365287251918710000011579869340292809352_)"/><path d="m230.468 359.78c0-21.64 13.157-31.586 29.387-22.216s29.387 34.509 29.387 56.149-13.157 31.586-29.387 22.216c-16.23-9.371-29.387-34.509-29.387-56.149z" fill="url(#SVGID_00000024684179885867398760000017765230294312966059_)"/><path d="m241.558 366.183c0-13.473 8.192-19.666 18.296-13.832 10.105 5.834 18.296 21.486 18.296 34.959s-8.191 19.666-18.296 13.832c-10.104-5.835-18.296-21.486-18.296-34.959z" fill="url(#SVGID_00000128451343927019602700000006040277417242176681_)"/></g></g></svg>