<svg id="Capa_1" enable-background="new 0 0 512 512" height="512" viewBox="0 0 512 512" width="512" xmlns="http://www.w3.org/2000/svg" xmlns:xlink="http://www.w3.org/1999/xlink"><linearGradient id="SVGID_1_" gradientUnits="userSpaceOnUse" x1="354.288" x2="387.576" y1="211.471" y2="211.471"><stop offset="0" stop-color="#2f878a"/><stop offset="1" stop-color="#06daae"/></linearGradient><linearGradient id="SVGID_2_" gradientTransform="matrix(-1 0 0 1 -4813.107 0)" gradientUnits="userSpaceOnUse" x1="-5093.575" x2="-5235.827" y1="103.077" y2="20.948"><stop offset="0" stop-color="#06daae"/><stop offset=".0809" stop-color="#16dcb3"/><stop offset=".394" stop-color="#4fe5c6"/><stop offset=".6626" stop-color="#78ebd4"/><stop offset=".8732" stop-color="#92efdc"/><stop offset="1" stop-color="#9bf0df"/></linearGradient><linearGradient id="SVGID_3_" gradientUnits="userSpaceOnUse" x1="237.629" x2="270.917" y1="353.694" y2="353.694"><stop offset="0" stop-color="#802129"/><stop offset="1" stop-color="#ff4757"/></linearGradient><linearGradient id="SVGID_4_" gradientTransform="matrix(-1 0 0 1 -4813.107 0)" gradientUnits="userSpaceOnUse" x1="-4976.916" x2="-5119.168" y1="319.835" y2="237.706"><stop offset="0" stop-color="#ab2c37"/><stop offset=".0732" stop-color="#b3343f"/><stop offset=".4827" stop-color="#dc5a65"/><stop offset=".8056" stop-color="#f6717c"/><stop offset="1" stop-color="#ff7a85"/></linearGradient><linearGradient id="SVGID_5_" gradientUnits="userSpaceOnUse" x1="120.97" x2="154.258" y1="387.226" y2="387.226"><stop offset="0" stop-color="#cc8241"/><stop offset=".3876" stop-color="#e5a23d"/><stop offset=".7699" stop-color="#f8bc39"/><stop offset="1" stop-color="#ffc538"/></linearGradient><linearGradient id="SVGID_6_" gradientTransform="matrix(-1 0 0 1 -4813.107 0)" gradientUnits="userSpaceOnUse" x1="-4860.257" x2="-5002.509" y1="319.835" y2="237.706"><stop offset="0" stop-color="#ffc538"/><stop offset=".5463" stop-color="#fad73e"/><stop offset="1" stop-color="#f7e041"/></linearGradient><g><g><path d="m286.342 331.169-.025-277.136 172.685-8.34v277.626l-.017.001c-.048 2.304-1.738 4.722-5.02 6.617l-76.911 44.405c-6.088 3.515-15.298 3.897-20.571.853l-66.607-38.456c-2.557-1.477-3.707-3.489-3.53-5.57z" fill="url(#SVGID_1_)"/><path d="m388.835 2.055 66.607 38.456c5.273 3.044 4.611 8.361-1.477 11.877l-76.911 44.405c-6.088 3.515-15.298 3.897-20.571.853l-66.607-38.456c-5.273-3.044-4.611-8.361 1.477-11.877l76.911-44.405c6.088-3.515 15.298-3.897 20.571-.853z" fill="url(#SVGID_2_)"/></g><g><path d="m169.683 398.856-.025-128.064 172.685-8.34v128.554l-.017.001c-.048 2.304-1.738 4.722-5.02 6.617l-76.911 44.405c-6.088 3.515-15.298 3.897-20.571.853l-66.607-38.456c-2.557-1.477-3.707-3.489-3.53-5.57z" fill="url(#SVGID_3_)"/><path d="m272.176 218.814 66.607 38.456c5.273 3.044 4.611 8.362-1.477 11.877l-76.911 44.405c-6.088 3.515-15.298 3.897-20.571.853l-66.607-38.456c-5.273-3.044-4.611-8.362 1.477-11.877l76.911-44.405c6.088-3.515 15.298-3.897 20.571-.853z" fill="url(#SVGID_4_)"/></g><g><path d="m53.024 465.92-.025-195.128 172.685-8.34v195.618l-.017.001c-.048 2.304-1.738 4.722-5.02 6.617l-76.911 44.405c-6.088 3.515-15.298 3.897-20.571.853l-66.607-38.456c-2.557-1.477-3.707-3.489-3.53-5.57z" fill="url(#SVGID_5_)"/><path d="m155.517 218.814 66.607 38.456c5.273 3.044 4.611 8.362-1.477 11.877l-76.911 44.405c-6.088 3.515-15.298 3.897-20.571.853l-66.607-38.456c-5.273-3.044-4.611-8.362 1.477-11.877l76.911-44.405c6.089-3.515 15.298-3.897 20.571-.853z" fill="url(#SVGID_6_)"/></g></g></svg>