<svg id="Capa_1" enable-background="new 0 0 512 512" height="512" viewBox="0 0 512 512" width="512" xmlns="http://www.w3.org/2000/svg" xmlns:xlink="http://www.w3.org/1999/xlink"><linearGradient id="lg1"><stop offset="0" stop-color="#c5baeb"/><stop offset="1" stop-color="#f2effa"/></linearGradient><linearGradient id="SVGID_1_" gradientUnits="userSpaceOnUse" x1="391.837" x2="438.564" xlink:href="#lg1" y1="333.677" y2="440.483"/><linearGradient id="SVGID_00000182506398587385846220000002666410515445266340_" gradientUnits="userSpaceOnUse" x1="428.602" x2="402.496" xlink:href="#lg1" y1="401.277" y2="356.06"/><linearGradient id="SVGID_00000069369120179682983480000001539663558117440185_" gradientTransform="matrix(1 0 0 .581 0 -1626.227)" gradientUnits="userSpaceOnUse" x1="370.349" x2="484.689" xlink:href="#lg1" y1="3233.095" y2="3451.563"/><linearGradient id="SVGID_00000123429412860083798600000015742612858386443197_" gradientTransform="matrix(.612 1.17 -.612 .463 -281.405 1352.059)" gradientUnits="userSpaceOnUse" x1="-370.851" x2="-252.436" y1="-1414.583" y2="-1414.583"><stop offset="0" stop-color="#d7d1eb"/><stop offset="1" stop-color="#f2effa"/></linearGradient><linearGradient id="lg2"><stop offset="0" stop-color="#221c36"/><stop offset="1" stop-color="#43386b"/></linearGradient><linearGradient id="SVGID_00000173848396911554209310000016818957704229650086_" gradientUnits="userSpaceOnUse" x1="74.723" x2="223.805" xlink:href="#lg2" y1="435.701" y2="435.701"/><linearGradient id="lg3"><stop offset="0" stop-color="#43386b"/><stop offset="1" stop-color="#594a8e"/></linearGradient><linearGradient id="SVGID_00000065071675287260406120000006369253505904669336_" gradientUnits="userSpaceOnUse" x1="22.425" x2="277.156" xlink:href="#lg3" y1="281.754" y2="428.823"/><linearGradient id="lg4"><stop offset="0" stop-color="#e37a34"/><stop offset="1" stop-color="#ffa538"/></linearGradient><linearGradient id="SVGID_00000166670560954197018000000007265487273921730188_" gradientUnits="userSpaceOnUse" x1="212.522" x2="170.193" xlink:href="#lg4" y1="200.083" y2="126.767"/><linearGradient id="lg5"><stop offset="0" stop-color="#ffc538"/><stop offset="1" stop-color="#f7e041"/></linearGradient><linearGradient id="SVGID_00000009554236322006778210000017254594222474397339_" gradientUnits="userSpaceOnUse" x1="198.252" x2="198.252" xlink:href="#lg5" y1="395.763" y2="124.366"/><linearGradient id="SVGID_00000134239989001446234490000000687315601913531802_" gradientUnits="userSpaceOnUse" x1="206.966" x2="327.238" xlink:href="#lg5" y1="188.625" y2="-3.102"/><linearGradient id="SVGID_00000008838277247088565760000017651014391047437237_" gradientUnits="userSpaceOnUse" x1="230.993" x2="214.103" xlink:href="#lg4" y1="167.906" y2="94.455"/><linearGradient id="SVGID_00000132778094413629217130000014931442638343235718_" gradientUnits="userSpaceOnUse" x1="314.308" x2="276.833" xlink:href="#lg4" y1="58.961" y2="6.848"/><linearGradient id="SVGID_00000170982295722565552790000005244719513274561432_" gradientUnits="userSpaceOnUse" x1="261.365" x2="340.729" xlink:href="#lg4" y1="139.301" y2="139.301"/><linearGradient id="SVGID_00000106843442738829982250000000694551285766714257_" gradientTransform="matrix(-.612 .463 -.612 -1.17 -1502.507 587.239)" gradientUnits="userSpaceOnUse" x1="-2412.045" x2="-2365.395" xlink:href="#lg5" y1="-564.703" y2="-564.703"/><linearGradient id="SVGID_00000118361611967773964150000005957286379192924862_" gradientUnits="userSpaceOnUse" x1="232.611" x2="194.143" xlink:href="#lg4" y1="119.811" y2="66.317"/><linearGradient id="SVGID_00000167373285488918919680000008970536463342161821_" gradientUnits="userSpaceOnUse" x1="167.329" x2="268.464" xlink:href="#lg5" y1="183.238" y2="22.016"/><linearGradient id="SVGID_00000021102701648295059970000012541442756532393610_" gradientUnits="userSpaceOnUse" x1="148.389" x2="106.06" xlink:href="#lg4" y1="237.655" y2="164.339"/><linearGradient id="SVGID_00000108291374884398138070000002961074149296776621_" gradientUnits="userSpaceOnUse" x1="134.119" x2="134.119" xlink:href="#lg5" y1="433.335" y2="161.938"/><linearGradient id="SVGID_00000061437230679740029740000014062817850833786282_" gradientTransform="matrix(-1 0 0 1 -3273.881 0)" gradientUnits="userSpaceOnUse" x1="-3410.582" x2="-3396.227" xlink:href="#lg2" y1="174.176" y2="149.312"/><linearGradient id="SVGID_00000073000297638301377690000012536765337618419078_" gradientTransform="matrix(-1 0 0 1 -3273.881 0)" gradientUnits="userSpaceOnUse" x1="-3399.766" x2="-3399.766" xlink:href="#lg3" y1="206.412" y2="170.43"/><linearGradient id="SVGID_00000088133559232482987290000013981090858141521576_" gradientTransform="matrix(-1 0 0 1 -3273.881 0)" gradientUnits="userSpaceOnUse" x1="-3538.958" x2="-3524.603" xlink:href="#lg2" y1="79.265" y2="54.401"/><linearGradient id="SVGID_00000162339577340506396140000006367628748205716865_" gradientTransform="matrix(-1 0 0 1 -3273.881 0)" gradientUnits="userSpaceOnUse" x1="-3528.141" x2="-3528.141" xlink:href="#lg3" y1="111.501" y2="75.519"/><linearGradient id="SVGID_00000040555208024386803980000012282037479931094692_" gradientTransform="matrix(-1 0 0 1 -3273.881 0)" gradientUnits="userSpaceOnUse" x1="-3616.25" x2="-3601.895" xlink:href="#lg2" y1="227.908" y2="203.044"/><linearGradient id="SVGID_00000173880169961514266380000005852840451000763582_" gradientTransform="matrix(-1 0 0 1 -3273.881 0)" gradientUnits="userSpaceOnUse" x1="-3605.433" x2="-3605.433" xlink:href="#lg3" y1="260.144" y2="224.162"/><g><path d="m442.931 385.907c-1.571-8.723-7.595-16.841-13.459-18.132l-14.666-3.228-10.829-14.439-15.899-30.378 8.429-37.078-16.288-32.25-22.463 12.969-.953 51.269 24.352 61.078 37.018 35.337 21.981-12.708c2.629-2.063 3.82-6.649 2.777-12.44z" fill="url(#SVGID_1_)"/><path d="m442.932 385.907c-1.571-8.723-7.595-16.84-13.459-18.132l-14.666-3.228-25.682 11.877 29.051 34.63 21.981-12.708c2.626-2.062 3.817-6.648 2.775-12.439z" fill="url(#SVGID_00000182506398587385846220000002666410515445266340_)"/><path d="m471.024 330.4-32.003-61.147c-2.776-5.304-6.821-9.086-10.615-9.921l-43.716-9.622c-1.906-.419-3.601-.061-4.946.965l-20.775 11.994 64.018 42.542 18.26 88.171 23.262-13.44c1.296-1 2.285-2.629 2.796-4.878l6.563-28.868c1.017-4.469-.067-10.49-2.844-15.796z" fill="url(#SVGID_00000069369120179682983480000001539663558117440185_)"/><g><path d="m385.84 405.525c-2.877-1.661-5.683-4.789-7.771-8.779l-32.003-61.147c-2.776-5.305-3.861-11.326-2.844-15.796l11.714-51.526c1.016-4.47 3.978-6.709 7.771-5.875l43.716 9.621c3.794.834 7.839 4.617 10.615 9.921l32.003 61.147c2.776 5.305 3.861 11.326 2.844 15.796l-6.563 28.869c-1.571 6.91-7.596 8.071-13.46 2.591-5.863-5.479-9.342-15.523-7.771-22.432l4.92-21.645-23.03-44.002-31.459-6.924-8.429 37.079 23.03 44.003 18.364 4.042c5.865 1.292 11.889 9.409 13.459 18.132 1.571 8.724-1.908 14.75-7.771 13.46l-24.493-5.39c-.938-.209-1.894-.598-2.842-1.145z" fill="url(#SVGID_00000123429412860083798600000015742612858386443197_)"/></g><g><path d="m37.757 383.237v56.858l.029-.002c-.569 19.402 10.852 38.001 34.775 51.813 51.553 29.765 141.604 26.032 201.132-8.337 31.666-18.282 48.315-41.55 49.205-63.807l.039-.003v-60.356z" fill="url(#SVGID_00000173848396911554209310000016818957704229650086_)"/><path d="m288.133 310.7c-51.553-29.764-141.603-26.032-201.132 8.337s-65.994 86.359-14.441 116.124 141.604 26.032 201.132-8.337 65.995-86.36 14.441-116.124z" fill="url(#SVGID_00000065071675287260406120000006369253505904669336_)"/></g><g><path d="m219.669 80.828c-9.487-5.477-18.171-5.924-24.896-2.243l-.004-.011-21.908 12.623 64.032 299.368 21.417-12.365v-223.542c0-28.454-17.3-61.509-38.641-73.83z" fill="url(#SVGID_00000166670560954197018000000007265487273921730188_)"/><path d="m198.252 93.172c-21.341-12.321-38.641.757-38.641 29.212v223.562l77.282 44.619v-223.563c0-28.454-17.3-61.509-38.641-73.83z" fill="url(#SVGID_00000009554236322006778210000017254594222474397339_)"/></g><path d="m331.326 35.489c-14.478-27.662-37.581-41.772-52.759-32.798l-48.252 28.02-49.967 182.945 48-27.921.005-.017c1.132-.549 2.228-1.206 3.275-1.997l99.699-75.371c15.09-11.407 15.09-44.028-.001-72.861z" fill="url(#SVGID_00000134239989001446234490000000687315601913531802_)"/><path d="m282.096 124.144-90.724 49.149-11.024 40.363 48-27.921.005-.017c1.132-.549 2.228-1.206 3.275-1.997l49.513-37.431z" fill="url(#SVGID_00000008838277247088565760000017651014391047437237_)"/><path d="m331.326 35.503c-14.259-27.245-36.886-41.345-52.067-33.191l-11.272 6.523 4.212-1.494c14.873-3.495 34.541 10.381 47.402 34.955 15.09 28.833 15.09 61.454 0 72.862l11.724-6.792c15.092-11.409 15.092-44.03.001-72.863z" fill="url(#SVGID_00000132778094413629217130000014931442638343235718_)"/><path d="m382.185 177.038-66.183-126.455c-15.074-28.801-39.502-42.925-54.596-31.585l-19.72 11.064 116.949 233.456 21.654-12.352-.005-.011c.647-.382 1.285-.789 1.901-1.256 15.09-11.407 15.09-44.028 0-72.861z" fill="url(#SVGID_00000170982295722565552790000005244719513274561432_)"/><path d="m360.628 262.195c15.09-11.408 15.09-44.029 0-72.862l-66.183-126.455c-15.09-28.833-39.556-42.958-54.646-31.55-15.09 11.408-15.09 44.029 0 72.862l66.183 126.454c15.09 28.833 39.556 42.958 54.646 31.551z" fill="url(#SVGID_00000106843442738829982250000000694551285766714257_)"/><path d="m294.68 56.804c-14.496-27.698-37.64-41.809-52.817-32.765l-.005-.012-11.543 6.686-42.577 177.729c2.577-.606 5.015-1.72 7.244-3.405l99.699-75.371c15.089-11.408 15.089-44.03-.001-72.862z" fill="url(#SVGID_00000118361611967773964150000005957286379192924862_)"/><path d="m282.956 63.596c-15.09-28.833-39.556-42.958-54.646-31.55l-99.699 75.371c-15.09 11.408-15.09 44.029 0 72.862 15.09 28.833 39.556 42.958 54.646 31.55l99.699-75.371c15.09-11.408 15.09-44.03 0-72.862z" fill="url(#SVGID_00000167373285488918919680000008970536463342161821_)"/><path d="m155.536 118.4c-9.487-5.477-18.171-5.924-24.896-2.243l-.004-.011-21.908 12.623 64.032 299.368 21.417-12.365v-223.542c0-28.454-17.3-61.509-38.641-73.83z" fill="url(#SVGID_00000021102701648295059970000012541442756532393610_)"/><path d="m134.119 130.744c-21.341-12.321-38.641.757-38.641 29.212v223.562l77.282 44.619v-223.562c0-28.455-17.3-61.51-38.641-73.831z" fill="url(#SVGID_00000108291374884398138070000002961074149296776621_)"/><g><path d="m124.792 151.172.003.005c2.467-1.41 5.677-1.275 9.19.753 7.782 4.493 14.09 16.546 14.09 26.921 0 5.645-1.87 9.626-4.826 11.362l-8.193 4.715-18.581-38.971z" fill="url(#SVGID_00000061437230679740029740000014062817850833786282_)"/><path d="m111.795 167.237c0-10.375 6.308-15.144 14.09-10.652 7.782 4.493 14.09 16.546 14.09 26.921s-6.308 15.144-14.09 10.652c-7.782-4.493-14.09-16.546-14.09-26.921z" fill="url(#SVGID_00000073000297638301377690000012536765337618419078_)"/></g><g><path d="m253.168 56.261.003.005c2.467-1.41 5.677-1.275 9.19.753 7.782 4.493 14.09 16.546 14.09 26.921 0 5.645-1.87 9.625-4.827 11.362l-8.193 4.715-18.582-38.971z" fill="url(#SVGID_00000088133559232482987290000013981090858141521576_)"/><path d="m240.171 72.325c0-10.375 6.308-15.144 14.09-10.652 7.781 4.493 14.09 16.546 14.09 26.921s-6.308 15.144-14.09 10.652c-7.782-4.493-14.09-16.545-14.09-26.921z" fill="url(#SVGID_00000162339577340506396140000006367628748205716865_)"/></g><g><path d="m330.46 204.904.003.005c2.467-1.41 5.677-1.275 9.19.753 7.782 4.493 14.09 16.546 14.09 26.921 0 5.645-1.87 9.625-4.826 11.362l-8.193 4.715-18.584-38.97z" fill="url(#SVGID_00000040555208024386803980000012282037479931094692_)"/><path d="m317.462 220.968c0-10.375 6.308-15.144 14.09-10.652 7.782 4.493 14.09 16.546 14.09 26.921s-6.308 15.144-14.09 10.652c-7.781-4.492-14.09-16.545-14.09-26.921z" fill="url(#SVGID_00000173880169961514266380000005852840451000763582_)"/></g></g></svg>