<svg id="Capa_1" enable-background="new 0 0 512 512" height="512" viewBox="0 0 512 512" width="512" xmlns="http://www.w3.org/2000/svg" xmlns:xlink="http://www.w3.org/1999/xlink"><linearGradient id="SVGID_1_" gradientTransform="matrix(1 0 0 -1 0 514)" gradientUnits="userSpaceOnUse" x1="256" x2="256" y1="-72.688" y2="246.193"><stop offset=".0319" stop-color="#43386b"/><stop offset=".0811" stop-color="#463a70"/><stop offset=".356" stop-color="#544686"/><stop offset=".5321" stop-color="#594a8e"/><stop offset="1" stop-color="#7662bd"/></linearGradient><linearGradient id="SVGID_2_" gradientTransform="matrix(1 0 0 -1 0 514)" gradientUnits="userSpaceOnUse" x1="111.995" x2="150.647" y1="282.37" y2="349.318"><stop offset="0" stop-color="#cc8241"/><stop offset=".3876" stop-color="#e5a23d"/><stop offset=".7699" stop-color="#f8bc39"/><stop offset="1" stop-color="#ffc538"/></linearGradient><linearGradient id="SVGID_3_" gradientTransform="matrix(1 0 0 -1 0 514)" gradientUnits="userSpaceOnUse" x1="133.1" x2="133.1" y1="151.115" y2="362.55"><stop offset="0" stop-color="#ffc538"/><stop offset=".5463" stop-color="#fad73e"/><stop offset="1" stop-color="#f7e041"/></linearGradient><linearGradient id="SVGID_4_" gradientTransform="matrix(1 0 0 -1 0 514)" gradientUnits="userSpaceOnUse" x1="213.324" x2="251.976" y1="260.05" y2="326.998"><stop offset="0" stop-color="#802129"/><stop offset="1" stop-color="#ff4757"/></linearGradient><linearGradient id="SVGID_5_" gradientTransform="matrix(1 0 0 -1 0 514)" gradientUnits="userSpaceOnUse" x1="234.429" x2="234.429" y1="128.794" y2="340.229"><stop offset="0" stop-color="#ab2c37"/><stop offset=".0732" stop-color="#b3343f"/><stop offset=".4827" stop-color="#dc5a65"/><stop offset=".8056" stop-color="#f6717c"/><stop offset="1" stop-color="#ff7a85"/></linearGradient><linearGradient id="SVGID_6_" gradientTransform="matrix(1 0 0 -1 0 514)" gradientUnits="userSpaceOnUse" x1="314.653" x2="353.306" y1="356.065" y2="423.013"><stop offset="0" stop-color="#2f878a"/><stop offset="1" stop-color="#06daae"/></linearGradient><linearGradient id="SVGID_7_" gradientTransform="matrix(1 0 0 -1 0 514)" gradientUnits="userSpaceOnUse" x1="335.759" x2="335.759" y1="224.809" y2="436.244"><stop offset="0" stop-color="#06daae"/><stop offset=".0809" stop-color="#16dcb3"/><stop offset=".394" stop-color="#4fe5c6"/><stop offset=".6626" stop-color="#78ebd4"/><stop offset=".8732" stop-color="#92efdc"/><stop offset="1" stop-color="#9bf0df"/></linearGradient><linearGradient id="SVGID_8_" gradientTransform="matrix(1 0 0 -1 0 514)" gradientUnits="userSpaceOnUse" x1="415.983" x2="454.635" y1="460.907" y2="527.855"><stop offset="0" stop-color="#00568d"/><stop offset=".9916" stop-color="#0197f8"/></linearGradient><linearGradient id="SVGID_9_" gradientTransform="matrix(1 0 0 -1 0 514)" gradientUnits="userSpaceOnUse" x1="437.088" x2="437.088" y1="329.651" y2="541.086"><stop offset="0" stop-color="#2f97f7"/><stop offset="1" stop-color="#59acf9"/></linearGradient><g><g><g><path d="m26.767 341.828c-4.089 0-8.176-1.567-11.285-4.697-6.189-6.233-6.153-16.303.079-22.492l108.684-107.923 100.621 39.404 94.35-106.887 101.744-99.608c6.276-6.145 16.345-6.04 22.49.238 6.146 6.277 6.039 16.346-.238 22.49l-100.916 98.799-108.31 122.699-102.038-39.959-93.974 93.318c-3.102 3.08-7.155 4.618-11.207 4.618z" fill="#ff4757"/></g><g><path d="m46.62 512c-6.827 0-13.639-1.796-19.852-5.383-12.449-7.187-19.881-20.06-19.881-34.434v-381.482c0-10.98 8.9-19.88 19.88-19.88s19.88 8.9 19.88 19.88v381.483l428.548-250.579c9.477-5.54 21.653-2.352 27.196 7.128 5.542 9.478 2.351 21.653-7.128 27.196l-428.642 250.633c-6.282 3.628-13.149 5.438-20.001 5.438z" fill="url(#SVGID_1_)"/></g><g><path d="m152.121 186.139-9.965-5.677c-5.119-2.917-11.779-2.622-19.062 1.583-16.151 9.325-29.243 34.341-29.243 55.875 0 11.352 3.64 19.468 9.446 23.241l-.001.002 11.161 6.378c5.061 2.667 37.664-81.402 37.664-81.402z" fill="url(#SVGID_2_)"/><path d="m162.343 209.852c0-21.534-13.093-31.432-29.243-22.108-16.151 9.325-29.243 34.341-29.243 55.875s13.093 31.432 29.243 22.108 29.243-34.34 29.243-55.875z" fill="url(#SVGID_3_)"/></g><g><path d="m253.45 208.459-9.965-5.677c-5.119-2.917-11.779-2.622-19.062 1.583-16.151 9.325-29.243 34.341-29.243 55.875 0 11.352 3.64 19.468 9.447 23.241l-.001.002 11.161 6.378c5.06 2.668 37.663-81.402 37.663-81.402z" fill="url(#SVGID_4_)"/><path d="m263.672 232.173c0-21.534-13.093-31.432-29.243-22.108s-29.243 34.341-29.243 55.875 13.093 31.432 29.243 22.108 29.243-34.341 29.243-55.875z" fill="url(#SVGID_5_)"/></g><g><path d="m354.779 112.444-9.965-5.677c-5.119-2.917-11.779-2.622-19.062 1.583-16.151 9.325-29.243 34.341-29.243 55.875 0 11.352 3.64 19.468 9.447 23.242l-.001.002 11.161 6.378c5.061 2.667 37.663-81.403 37.663-81.403z" fill="url(#SVGID_6_)"/><path d="m365.002 136.158c0-21.534-13.093-31.432-29.243-22.108-16.151 9.325-29.243 34.341-29.243 55.875s13.093 31.432 29.243 22.108 29.243-34.341 29.243-55.875z" fill="url(#SVGID_7_)"/></g><g><path d="m456.109 7.602-9.965-5.677c-5.119-2.917-11.779-2.622-19.062 1.583-16.151 9.325-29.243 34.341-29.243 55.875 0 11.352 3.64 19.468 9.447 23.241l-.001.002 11.161 6.378c5.06 2.668 37.663-81.402 37.663-81.402z" fill="url(#SVGID_8_)"/><path d="m466.331 31.316c0-21.534-13.093-31.432-29.243-22.108-16.151 9.325-29.243 34.341-29.243 55.875s13.093 31.432 29.243 22.108 29.243-34.341 29.243-55.875z" fill="url(#SVGID_9_)"/></g><g><g><path d="m118.147 364.716c0-5.486 4.453-9.94 9.94-9.94 5.507 0 9.96 4.454 9.96 9.94 0 5.487-4.453 9.94-9.96 9.94-5.488.001-9.94-4.452-9.94-9.94zm0-41.986c0-5.487 4.453-9.94 9.94-9.94 5.507 0 9.96 4.453 9.96 9.94 0 5.486-4.453 9.94-9.96 9.94-5.488 0-9.94-4.453-9.94-9.94zm0-41.987c0-5.487 4.453-9.94 9.94-9.94 5.507 0 9.96 4.453 9.96 9.94 0 5.507-4.453 9.94-9.96 9.94-5.488 0-9.94-4.433-9.94-9.94z" fill="#d7d1eb"/></g></g><g><path d="m219.495 315.414c0-5.487 4.433-9.94 9.94-9.94 5.486 0 9.92 4.454 9.92 9.94 0 5.487-4.433 9.94-9.92 9.94-5.506 0-9.94-4.452-9.94-9.94z" fill="#d7d1eb"/></g><g><g><path d="m320.824 249.73c0-5.486 4.433-9.94 9.94-9.94 5.487 0 9.94 4.454 9.94 9.94 0 5.487-4.453 9.94-9.94 9.94-5.507 0-9.94-4.452-9.94-9.94zm0-40.773c0-5.487 4.433-9.94 9.94-9.94 5.487 0 9.94 4.453 9.94 9.94 0 5.507-4.453 9.96-9.94 9.96-5.507-.001-9.94-4.453-9.94-9.96z" fill="#d7d1eb"/></g></g><g><g><path d="m422.153 190.05c0-5.486 4.453-9.94 9.94-9.94 5.486 0 9.94 4.454 9.94 9.94 0 5.487-4.454 9.94-9.94 9.94-5.487 0-9.94-4.452-9.94-9.94zm0-42.344c0-5.487 4.453-9.94 9.94-9.94 5.486 0 9.94 4.453 9.94 9.94 0 5.486-4.454 9.94-9.94 9.94-5.487 0-9.94-4.454-9.94-9.94zm0-42.325c0-5.507 4.453-9.94 9.94-9.94 5.486 0 9.94 4.433 9.94 9.94 0 5.487-4.454 9.94-9.94 9.94-5.487 0-9.94-4.453-9.94-9.94z" fill="#d7d1eb"/></g></g></g><g fill="#d7d1eb"><circle cx="128.151" cy="406.66" r="9.984"/><circle cx="229.415" cy="348.599" r="9.984"/><circle cx="330.764" cy="290.498" r="9.984"/><circle cx="432.094" cy="232.398" r="9.984"/></g></g></svg>