<svg id="Capa_1" enable-background="new 0 0 512 512" height="512" viewBox="0 0 512 512" width="512" xmlns="http://www.w3.org/2000/svg" xmlns:xlink="http://www.w3.org/1999/xlink"><linearGradient id="SVGID_1_" gradientUnits="userSpaceOnUse" x1="305.541" x2="125.897" y1="138.046" y2="565.768"><stop offset="0" stop-color="#45356d"/><stop offset=".2699" stop-color="#544081"/><stop offset="1" stop-color="#7e62c0"/></linearGradient><g><path d="m423.737 340.605c-6.758 0-12.238 5.479-12.238 12.238 0 60.446-18.903 106.026-51.862 125.056-26.502 15.3-61.136 12.158-97.518-8.848-89.116-51.452-161.618-190.469-161.618-309.894 0-60.446 18.902-106.026 51.861-125.055 26.501-15.302 61.134-12.159 97.518 8.847 44.599 25.749 87.224 75.576 117.661 136.485l-14.991-7.023c-6.123-2.868-13.408-.23-16.274 5.891-2.867 6.121-.23 13.407 5.891 16.274l58.983 27.631 11.437-52.232c1.446-6.602-2.734-13.126-9.337-14.573-6.601-1.444-13.127 2.734-14.572 9.337l-.344 1.573c-12.983-25.63-28.167-49.747-44.797-70.999-25.156-32.144-52.548-56.893-81.417-73.561-44.277-25.562-87.602-28.704-121.995-8.847-40.736 23.519-64.1 76.826-64.1 146.252 0 61.679 17.943 129.931 50.524 192.183 32.744 62.562 76.543 111.894 123.332 138.907 25.059 14.468 49.809 21.753 72.812 21.753 17.64 0 34.254-4.286 49.181-12.905 40.737-23.519 64.1-76.826 64.1-146.252.001-6.759-5.479-12.238-12.237-12.238z" fill="url(#SVGID_1_)"/></g></svg>