<svg id="Capa_1" enable-background="new 0 0 512 512" height="512" viewBox="0 0 512 512" width="512" xmlns="http://www.w3.org/2000/svg" xmlns:xlink="http://www.w3.org/1999/xlink"><linearGradient id="SVGID_1_" gradientUnits="userSpaceOnUse" x1="186.136" x2="216.944" y1="437.227" y2="383.866"><stop offset="0" stop-color="#cc8241"/><stop offset=".3876" stop-color="#e5a23d"/><stop offset=".7699" stop-color="#f8bc39"/><stop offset="1" stop-color="#ffc538"/></linearGradient><linearGradient id="SVGID_2_" gradientUnits="userSpaceOnUse" x1="274.179" x2="274.179" y1="539.951" y2="296.624"><stop offset="0" stop-color="#ffc538"/><stop offset=".5463" stop-color="#fad73e"/><stop offset="1" stop-color="#f7e041"/></linearGradient><linearGradient id="SVGID_3_" gradientUnits="userSpaceOnUse" x1="209.403" x2="248.066" y1="304.216" y2="237.25"><stop offset="0" stop-color="#2f878a"/><stop offset="1" stop-color="#06daae"/></linearGradient><linearGradient id="SVGID_4_" gradientUnits="userSpaceOnUse" x1="312.964" x2="312.964" y1="417.969" y2="123.209"><stop offset="0" stop-color="#06daae"/><stop offset=".0809" stop-color="#16dcb3"/><stop offset=".394" stop-color="#4fe5c6"/><stop offset=".6626" stop-color="#78ebd4"/><stop offset=".8732" stop-color="#92efdc"/><stop offset="1" stop-color="#9bf0df"/></linearGradient><linearGradient id="SVGID_5_" gradientUnits="userSpaceOnUse" x1="169.231" x2="192.652" y1="149.169" y2="108.603"><stop offset="0" stop-color="#802129"/><stop offset="1" stop-color="#ff4757"/></linearGradient><linearGradient id="SVGID_6_" gradientUnits="userSpaceOnUse" x1="237.189" x2="237.189" y1="251.526" y2="55.893"><stop offset="0" stop-color="#ab2c37"/><stop offset=".0732" stop-color="#b3343f"/><stop offset=".4827" stop-color="#dc5a65"/><stop offset=".8056" stop-color="#f6717c"/><stop offset="1" stop-color="#ff7a85"/></linearGradient><linearGradient id="lg1"><stop offset=".0319" stop-color="#a996eb"/><stop offset=".2213" stop-color="#bfb3eb"/><stop offset=".4108" stop-color="#d1c9eb"/><stop offset=".5321" stop-color="#d7d1eb"/><stop offset="1" stop-color="#e9e5f6"/></linearGradient><linearGradient id="SVGID_7_" gradientUnits="userSpaceOnUse" x1="62.979" x2="104.57" xlink:href="#lg1" y1="326.683" y2="254.645"/><linearGradient id="lg2"><stop offset="0" stop-color="#dfdaef"/><stop offset="1" stop-color="#fff"/></linearGradient><linearGradient id="SVGID_8_" gradientUnits="userSpaceOnUse" x1="97.894" x2="97.894" xlink:href="#lg2" y1="475" y2="247.451"/><linearGradient id="SVGID_9_" gradientUnits="userSpaceOnUse" x1="62.979" x2="104.57" xlink:href="#lg1" y1="188.897" y2="116.86"/><linearGradient id="SVGID_10_" gradientUnits="userSpaceOnUse" x1="97.894" x2="97.894" xlink:href="#lg2" y1="337.215" y2="109.665"/><linearGradient id="SVGID_11_" gradientUnits="userSpaceOnUse" x1="62.979" x2="104.57" xlink:href="#lg1" y1="464.469" y2="392.431"/><linearGradient id="SVGID_12_" gradientUnits="userSpaceOnUse" x1="97.894" x2="97.894" xlink:href="#lg2" y1="612.786" y2="385.236"/><g><g><path d="m397.013 254.813-35.568-21c-3.492-2.286-8.158-2.224-13.287.738l-218.834 126.676c-10.817 6.245-19.586 23-19.586 37.423v31.379c0 8.52 3.062 14.318 7.797 16.351l26.238 15.554 7.338 4.296z" fill="url(#SVGID_1_)"/><path d="m383.596 339.068-218.834 126.677c-10.817 6.245-19.586-.384-19.586-14.807v-31.379c0-14.423 8.769-31.178 19.586-37.423l218.834-126.676c10.817-6.245 19.586.384 19.586 14.807v31.379c0 14.422-8.769 31.177-19.586 37.422z" fill="url(#SVGID_2_)"/></g><g><path d="m474.584 72.201-35.568-21c-3.492-2.286-8.158-2.224-13.286.738l-296.406 172.117c-10.817 6.245-19.586 23-19.586 37.423v31.379c0 8.52 3.062 14.318 7.797 16.351l26.238 15.554 7.338 4.296z" fill="url(#SVGID_3_)"/><path d="m461.167 156.456-296.405 172.118c-10.817 6.245-19.586-.384-19.586-14.807v-31.379c0-14.423 8.769-31.178 19.586-37.423l296.405-172.117c10.817-6.245 19.586.384 19.586 14.807v31.379c0 14.422-8.769 31.177-19.586 37.422z" fill="url(#SVGID_4_)"/></g><g><path d="m323.033 22.611-35.568-21c-3.492-2.286-8.158-2.224-13.286.738l-144.855 84.537c-10.817 6.245-19.586 23-19.586 37.423v31.379c0 8.52 3.062 14.318 7.797 16.351l26.238 15.554 7.338 4.296z" fill="url(#SVGID_5_)"/><path d="m309.616 106.866-144.855 84.538c-10.817 6.245-19.586-.384-19.586-14.807v-31.379c0-14.423 8.769-31.178 19.586-37.423l144.855-84.538c10.817-6.245 19.586.384 19.586 14.807v31.379c0 14.423-8.769 31.178-19.586 37.423z" fill="url(#SVGID_6_)"/></g><g><path d="m118.365 284.783-35.131-20.22c-5.509-3.139-12.677-2.822-20.515 1.703-17.382 10.035-31.472 36.958-31.472 60.134 0 12.217 3.917 20.952 10.167 25.013l-.001.002 36.419 20.975c5.446 2.87 40.533-87.607 40.533-87.607z" fill="url(#SVGID_7_)"/><path d="m129.367 310.304c0-23.176-14.091-33.828-31.472-23.793-17.382 10.035-31.472 36.958-31.472 60.134s14.091 33.828 31.472 23.793c17.381-10.036 31.472-36.958 31.472-60.134z" fill="url(#SVGID_8_)"/></g><g><path d="m118.365 146.997-35.131-20.22c-5.509-3.139-12.677-2.822-20.515 1.703-17.382 10.035-31.472 36.958-31.472 60.134 0 12.217 3.917 20.952 10.167 25.013l-.001.002 36.419 20.975c5.446 2.871 40.533-87.607 40.533-87.607z" fill="url(#SVGID_9_)"/><path d="m129.367 172.518c0-23.176-14.091-33.828-31.472-23.792-17.382 10.035-31.472 36.958-31.472 60.134s14.091 33.828 31.472 23.793c17.381-10.036 31.472-36.959 31.472-60.135z" fill="url(#SVGID_10_)"/></g><g><path d="m118.365 422.568-35.131-20.221c-5.509-3.139-12.677-2.822-20.515 1.703-17.382 10.035-31.472 36.958-31.472 60.134 0 12.217 3.917 20.952 10.167 25.013l-.001.002 36.419 20.975c5.446 2.872 40.533-87.606 40.533-87.606z" fill="url(#SVGID_11_)"/><path d="m129.367 448.09c0-23.176-14.091-33.828-31.472-23.793s-31.472 36.958-31.472 60.134 14.091 33.828 31.472 23.793c17.381-10.036 31.472-36.959 31.472-60.134z" fill="url(#SVGID_12_)"/></g></g></svg>