<svg id="Capa_1" enable-background="new 0 0 512 512" height="512" viewBox="0 0 512 512" width="512" xmlns="http://www.w3.org/2000/svg" xmlns:xlink="http://www.w3.org/1999/xlink"><linearGradient id="lg1"><stop offset="0" stop-color="#43386b"/><stop offset="1" stop-color="#594a8e"/></linearGradient><linearGradient id="SVGID_1_" gradientUnits="userSpaceOnUse" x1="298.211" x2="298.211" xlink:href="#lg1" y1="287.122" y2="175.371"/><linearGradient id="SVGID_00000058560712370811530650000010344230307851139741_" gradientUnits="userSpaceOnUse" x1="98.855" x2="98.855" xlink:href="#lg1" y1="175.972" y2="82.861"/><linearGradient id="SVGID_00000002343585474426466640000001852838635475988105_" gradientUnits="userSpaceOnUse" x1="401.848" x2="421.848" xlink:href="#lg1" y1="391.51" y2="391.51"/><linearGradient id="lg2"><stop offset="0" stop-color="#221c36"/><stop offset="1" stop-color="#43386b"/></linearGradient><linearGradient id="SVGID_00000111878777955580743480000002188515558503299503_" gradientUnits="userSpaceOnUse" x1="401.848" x2="421.848" xlink:href="#lg2" y1="410.468" y2="410.468"/><linearGradient id="SVGID_00000095297318039913200420000006279160969697532823_" gradientUnits="userSpaceOnUse" x1="401.848" x2="421.848" xlink:href="#lg2" y1="383.616" y2="383.616"/><linearGradient id="SVGID_00000079462387944785508310000005772481041852014729_" gradientUnits="userSpaceOnUse" x1="401.848" x2="421.848" xlink:href="#lg2" y1="356.765" y2="356.765"/><linearGradient id="SVGID_00000069361363301812855700000009477580139953786035_" gradientUnits="userSpaceOnUse" x1="386.276" x2="422.37" y1="321.711" y2="321.711"><stop offset="0" stop-color="#c5baeb"/><stop offset="1" stop-color="#f2effa"/></linearGradient><linearGradient id="SVGID_00000098218454394899277080000012708076778867731604_" gradientUnits="userSpaceOnUse" x1="58.787" x2="207.868" xlink:href="#lg2" y1="435.701" y2="435.701"/><linearGradient id="SVGID_00000111894269685926991800000015614926287714190526_" gradientUnits="userSpaceOnUse" x1="6.488" x2="261.219" xlink:href="#lg1" y1="281.754" y2="428.823"/><linearGradient id="lg3"><stop offset="0" stop-color="#e37a34"/><stop offset="1" stop-color="#ffa538"/></linearGradient><linearGradient id="SVGID_00000080899543401750154550000018153120943468464008_" gradientUnits="userSpaceOnUse" x1="196.585" x2="154.256" xlink:href="#lg3" y1="200.083" y2="126.767"/><linearGradient id="lg4"><stop offset="0" stop-color="#ffc538"/><stop offset="1" stop-color="#f7e041"/></linearGradient><linearGradient id="SVGID_00000161595485257865828940000000282869227054753978_" gradientUnits="userSpaceOnUse" x1="182.316" x2="182.316" xlink:href="#lg4" y1="395.763" y2="124.366"/><linearGradient id="SVGID_00000009570608774645190310000017560635573994161595_" gradientUnits="userSpaceOnUse" x1="191.029" x2="311.301" xlink:href="#lg4" y1="188.625" y2="-3.102"/><linearGradient id="SVGID_00000060030473371209314720000001816269987697738634_" gradientUnits="userSpaceOnUse" x1="215.056" x2="198.166" xlink:href="#lg3" y1="167.906" y2="94.455"/><linearGradient id="SVGID_00000034081663804347575970000013657540026942961282_" gradientUnits="userSpaceOnUse" x1="298.371" x2="260.897" xlink:href="#lg3" y1="58.961" y2="6.848"/><linearGradient id="SVGID_00000107569231272850792870000008812310646773837449_" gradientUnits="userSpaceOnUse" x1="245.428" x2="324.792" xlink:href="#lg3" y1="139.301" y2="139.301"/><linearGradient id="SVGID_00000033354991016653788700000002323725149175600540_" gradientTransform="matrix(-.612 .463 -.612 -1.17 2207.605 -1979.272)" gradientUnits="userSpaceOnUse" x1="3519.244" x2="3565.893" xlink:href="#lg4" y1="-411.654" y2="-411.654"/><linearGradient id="SVGID_00000125591325384297164380000000363051652142030209_" gradientUnits="userSpaceOnUse" x1="216.674" x2="178.206" xlink:href="#lg3" y1="119.811" y2="66.317"/><linearGradient id="SVGID_00000022554589012961728470000016287554714192843706_" gradientUnits="userSpaceOnUse" x1="151.392" x2="252.527" xlink:href="#lg4" y1="183.238" y2="22.016"/><linearGradient id="SVGID_00000088827964805549578240000013047459719347794352_" gradientUnits="userSpaceOnUse" x1="132.452" x2="90.123" xlink:href="#lg3" y1="237.655" y2="164.339"/><linearGradient id="SVGID_00000159460919253862262350000015378035399958013319_" gradientUnits="userSpaceOnUse" x1="118.182" x2="118.182" xlink:href="#lg4" y1="433.335" y2="161.938"/><linearGradient id="SVGID_00000158725226646778528040000004562082062509684662_" gradientTransform="matrix(-1 0 0 1 1814.245 0)" gradientUnits="userSpaceOnUse" x1="1693.481" x2="1707.836" xlink:href="#lg2" y1="174.176" y2="149.312"/><linearGradient id="SVGID_00000051358089158437311470000004436077025201332097_" gradientTransform="matrix(-1 0 0 1 1814.245 0)" gradientUnits="userSpaceOnUse" x1="1704.298" x2="1704.298" xlink:href="#lg1" y1="206.412" y2="170.43"/><linearGradient id="SVGID_00000078041269735048769900000013913168425579756956_" gradientTransform="matrix(-1 0 0 1 1814.245 0)" gradientUnits="userSpaceOnUse" x1="1565.105" x2="1579.46" xlink:href="#lg2" y1="79.265" y2="54.401"/><linearGradient id="SVGID_00000097497953686828100950000016922171360048411787_" gradientTransform="matrix(-1 0 0 1 1814.245 0)" gradientUnits="userSpaceOnUse" x1="1575.922" x2="1575.922" xlink:href="#lg1" y1="111.501" y2="75.519"/><linearGradient id="SVGID_00000104688792395682217170000007714627627790894510_" gradientTransform="matrix(-1 0 0 1 1814.245 0)" gradientUnits="userSpaceOnUse" x1="1487.813" x2="1502.169" xlink:href="#lg2" y1="227.908" y2="203.044"/><linearGradient id="SVGID_00000013153336167679900310000002007345617819153282_" gradientTransform="matrix(-1 0 0 1 1814.245 0)" gradientUnits="userSpaceOnUse" x1="1498.63" x2="1498.63" xlink:href="#lg1" y1="260.144" y2="224.162"/><linearGradient id="SVGID_00000052816207146860406530000004868578663162689675_" gradientTransform="matrix(-1 0 0 1 1421.691 0)" gradientUnits="userSpaceOnUse" x1="982.24" x2="999.988" xlink:href="#lg4" y1="280.871" y2="250.13"/><linearGradient id="SVGID_00000036931392167829879730000013378306288050086838_" gradientTransform="matrix(-.866 -.5 0 1.155 1392.094 464.494)" gradientUnits="userSpaceOnUse" x1="1176.774" x2="1176.774" xlink:href="#lg3" y1="388.269" y2="309.897"/><linearGradient id="SVGID_00000131325659562503253290000008196821825111816632_" gradientTransform="matrix(.866 .5 -.314 .974 207.215 -398.401)" gradientUnits="userSpaceOnUse" x1="357.523" x2="357.523" xlink:href="#lg1" y1="534.551" y2="512.623"/><linearGradient id="SVGID_00000166634646116200752710000006970171903570244510_" gradientTransform="matrix(.866 .5 -.314 .974 207.215 -398.401)" gradientUnits="userSpaceOnUse" x1="381.111" x2="381.111" xlink:href="#lg1" y1="534.55" y2="512.622"/><linearGradient id="SVGID_00000068679716205335951070000012475244015399285122_" gradientTransform="matrix(.866 .5 -.314 .974 207.215 -398.401)" gradientUnits="userSpaceOnUse" x1="404.699" x2="404.699" xlink:href="#lg1" y1="534.55" y2="512.622"/><g><g><path d="m333.516 287.122h-16.412c-29.886 0-54.199-24.314-54.199-54.2v-57.551h20v57.551c0 18.858 15.342 34.2 34.199 34.2h16.412z" fill="url(#SVGID_1_)"/></g><g><path d="m86.651 175.972-12.778-12.779c-9.125-9.125-14.15-21.257-14.15-34.162v-2.079c0-24.312 19.779-44.091 44.092-44.091 10.421 0 20.698 2.754 29.722 7.964l4.453 2.571-9.998 17.321-4.454-2.571c-5.988-3.458-12.808-5.285-19.722-5.285-13.284 0-24.092 10.807-24.092 24.091v2.079c0 7.562 2.945 14.672 8.293 20.02l12.778 12.779z" fill="url(#SVGID_00000058560712370811530650000010344230307851139741_)"/></g><g><g><path d="m421.848 433.689-10 11.643-10-11.643v-96.001h20z" fill="url(#SVGID_00000002343585474426466640000001852838635475988105_)"/></g><g><path d="m401.848 427.539 20-20v-14.142l-20 20z" fill="url(#SVGID_00000111878777955580743480000002188515558503299503_)"/><path d="m401.848 400.688 20-20v-14.143l-20 20z" fill="url(#SVGID_00000095297318039913200420000006279160969697532823_)"/><path d="m401.848 373.836 20-20v-14.142l-20 20z" fill="url(#SVGID_00000079462387944785508310000005772481041852014729_)"/></g></g><path d="m377.326 292.379v47.027h.007c-.138 4.697 2.627 9.2 8.419 12.544 12.481 7.206 34.283 6.302 48.695-2.018 7.666-4.426 11.697-10.06 11.913-15.448l.009-.001v-47.874z" fill="url(#SVGID_00000069361363301812855700000009477580139953786035_)"/><g><path d="m21.82 383.237v56.858l.029-.002c-.569 19.402 10.852 38.001 34.775 51.813 51.554 29.765 141.604 26.032 201.132-8.337 31.666-18.282 48.315-41.55 49.205-63.807l.039-.003v-60.356z" fill="url(#SVGID_00000098218454394899277080000012708076778867731604_)"/><path d="m272.197 310.7c-51.553-29.764-141.603-26.032-201.132 8.337s-65.995 86.36-14.441 116.124c51.554 29.765 141.604 26.032 201.132-8.337s65.994-86.36 14.441-116.124z" fill="url(#SVGID_00000111894269685926991800000015614926287714190526_)"/></g><g><path d="m203.732 80.828c-9.487-5.477-18.171-5.924-24.896-2.243l-.004-.011-21.909 12.623 64.032 299.368 21.417-12.365v-223.542c.001-28.454-17.299-61.509-38.64-73.83z" fill="url(#SVGID_00000080899543401750154550000018153120943468464008_)"/><path d="m182.316 93.172c-21.341-12.321-38.641.757-38.641 29.212v223.562l77.282 44.619v-223.563c-.001-28.454-17.301-61.509-38.641-73.83z" fill="url(#SVGID_00000161595485257865828940000000282869227054753978_)"/></g><path d="m315.389 35.489c-14.477-27.662-37.581-41.772-52.759-32.798l-48.253 28.02-49.967 182.946 48-27.921.004-.017c1.132-.549 2.228-1.206 3.276-1.997l99.699-75.371c15.091-11.408 15.091-44.029 0-72.862z" fill="url(#SVGID_00000009570608774645190310000017560635573994161595_)"/><path d="m266.159 124.144-90.724 49.149-11.024 40.363 48-27.921.004-.017c1.132-.549 2.228-1.206 3.276-1.997l49.513-37.431z" fill="url(#SVGID_00000060030473371209314720000001816269987697738634_)"/><path d="m315.389 35.503c-14.259-27.245-36.885-41.345-52.066-33.191l-11.271 6.523 4.212-1.494c14.873-3.495 34.541 10.381 47.402 34.955 15.09 28.833 15.09 61.454 0 72.862l11.724-6.792c15.09-11.409 15.09-44.03-.001-72.863z" fill="url(#SVGID_00000034081663804347575970000013657540026942961282_)"/><path d="m366.248 177.038-66.183-126.455c-15.074-28.801-39.502-42.925-54.596-31.585l-19.72 11.064 116.949 233.456 21.654-12.352-.005-.011c.647-.382 1.284-.789 1.901-1.256 15.09-11.407 15.09-44.028 0-72.861z" fill="url(#SVGID_00000107569231272850792870000008812310646773837449_)"/><path d="m344.691 262.195c15.09-11.408 15.09-44.029 0-72.862l-66.183-126.455c-15.09-28.833-39.556-42.958-54.646-31.55-15.09 11.408-15.09 44.029 0 72.862l66.183 126.454c15.09 28.833 39.556 42.958 54.646 31.551z" fill="url(#SVGID_00000033354991016653788700000002323725149175600540_)"/><path d="m278.743 56.804c-14.496-27.698-37.64-41.809-52.817-32.765l-.005-.012-11.543 6.686-42.578 177.728c2.577-.606 5.015-1.72 7.244-3.405l99.699-75.371c15.09-11.407 15.09-44.029 0-72.861z" fill="url(#SVGID_00000125591325384297164380000000363051652142030209_)"/><path d="m267.019 63.596c-15.09-28.833-39.556-42.958-54.646-31.55l-99.699 75.371c-15.09 11.408-15.09 44.029 0 72.862 15.09 28.833 39.556 42.958 54.646 31.55l99.699-75.371c15.09-11.408 15.09-44.03 0-72.862z" fill="url(#SVGID_00000022554589012961728470000016287554714192843706_)"/><path d="m139.599 118.4c-9.487-5.477-18.171-5.924-24.896-2.243l-.004-.011-21.909 12.623 64.032 299.368 21.417-12.365v-223.542c.001-28.454-17.299-61.509-38.64-73.83z" fill="url(#SVGID_00000088827964805549578240000013047459719347794352_)"/><path d="m118.182 130.744c-21.341-12.321-38.641.757-38.641 29.212v223.562l77.282 44.619v-223.562c0-28.455-17.3-61.51-38.641-73.831z" fill="url(#SVGID_00000159460919253862262350000015378035399958013319_)"/><g><path d="m108.855 151.172.003.005c2.467-1.41 5.677-1.275 9.19.753 7.782 4.493 14.09 16.546 14.09 26.921 0 5.645-1.87 9.626-4.827 11.362l-8.193 4.715-18.581-38.971z" fill="url(#SVGID_00000158725226646778528040000004562082062509684662_)"/><path d="m95.858 167.237c0-10.375 6.308-15.144 14.09-10.652 7.782 4.493 14.09 16.546 14.09 26.921s-6.308 15.144-14.09 10.652c-7.782-4.493-14.09-16.546-14.09-26.921z" fill="url(#SVGID_00000051358089158437311470000004436077025201332097_)"/></g><g><path d="m237.231 56.261.003.005c2.467-1.41 5.677-1.275 9.19.753 7.782 4.493 14.09 16.546 14.09 26.921 0 5.645-1.87 9.625-4.826 11.362l-8.193 4.715-18.581-38.971z" fill="url(#SVGID_00000078041269735048769900000013913168425579756956_)"/><path d="m224.234 72.325c0-10.375 6.308-15.144 14.09-10.652 7.782 4.493 14.09 16.546 14.09 26.921s-6.308 15.144-14.09 10.652c-7.782-4.493-14.09-16.545-14.09-26.921z" fill="url(#SVGID_00000097497953686828100950000016922171360048411787_)"/></g><g><path d="m314.523 204.904.003.005c2.467-1.41 5.677-1.275 9.19.753 7.782 4.493 14.09 16.546 14.09 26.921 0 5.645-1.87 9.625-4.826 11.362l-8.193 4.715-18.582-38.971z" fill="url(#SVGID_00000104688792395682217170000007714627627790894510_)"/><path d="m301.526 220.968c0-10.375 6.308-15.144 14.09-10.652 7.782 4.493 14.09 16.546 14.09 26.921s-6.308 15.144-14.09 10.652-14.09-16.545-14.09-26.921z" fill="url(#SVGID_00000013153336167679900310000002007345617819153282_)"/></g><path d="m333.516 224.827 71.003-40.992c3.425-1.899 7.857-1.684 12.702 1.113l53.316 30.782c10.848 6.263 19.643 23.066 19.643 37.531v49.934c0 2.615-.887 4.441-2.282 5.193l-70.85 40.915z" fill="url(#SVGID_00000052816207146860406530000004868578663162689675_)"/><path d="m346.35 225.875 53.316 30.782c10.848 6.263 19.643 23.066 19.643 37.531v49.934c0 4.689-2.851 6.844-6.368 4.814l-79.866-46.111c-3.517-2.03-6.368-7.478-6.368-12.167v-49.934c0-14.464 8.794-21.113 19.643-14.849z" fill="url(#SVGID_00000036931392167829879730000013378306288050086838_)"/><g><path d="m362.794 283.361-13.55-7.823-6.878 21.349 13.55 7.823z" fill="url(#SVGID_00000131325659562503253290000008196821825111816632_)"/><path d="m383.221 295.155-13.549-7.823-6.878 21.349 13.55 7.823z" fill="url(#SVGID_00000166634646116200752710000006970171903570244510_)"/><path d="m403.649 306.949-13.55-7.823-6.878 21.349 13.55 7.823z" fill="url(#SVGID_00000068679716205335951070000012475244015399285122_)"/></g></g></svg>