<svg id="Capa_1" enable-background="new 0 0 512 512" height="512" viewBox="0 0 512 512" width="512" xmlns="http://www.w3.org/2000/svg" xmlns:xlink="http://www.w3.org/1999/xlink"><linearGradient id="SVGID_1_" gradientUnits="userSpaceOnUse" x1="171.935" x2="329.517" y1="278.422" y2="5.483"><stop offset="0" stop-color="#b096ed"/><stop offset=".2393" stop-color="#c4b1ef"/><stop offset=".5371" stop-color="#d8cdf1"/><stop offset=".8006" stop-color="#e4ddf3"/><stop offset="1" stop-color="#e8e3f3"/></linearGradient><linearGradient id="SVGID_2_" gradientUnits="userSpaceOnUse" x1="285.269" x2="285.269" y1="718.782" y2="65.28"><stop offset="0" stop-color="#b096ed"/><stop offset=".0014" stop-color="#b096ed"/><stop offset=".299" stop-color="#cdbcf3"/><stop offset=".5742" stop-color="#e2d7f7"/><stop offset=".8165" stop-color="#efe8f9"/><stop offset="1" stop-color="#f3eefa"/></linearGradient><linearGradient id="lg1"><stop offset="0" stop-color="#45356d"/><stop offset=".2699" stop-color="#544081"/><stop offset="1" stop-color="#7e62c0"/></linearGradient><linearGradient id="SVGID_3_" gradientUnits="userSpaceOnUse" x1="285.269" x2="285.269" xlink:href="#lg1" y1="531.075" y2="-24.268"/><linearGradient id="SVGID_5_" gradientUnits="userSpaceOnUse" x1="397.456" x2="397.456" xlink:href="#lg1" y1="531.076" y2="-24.268"/><linearGradient id="SVGID_6_" gradientUnits="userSpaceOnUse" x1="173.082" x2="173.082" xlink:href="#lg1" y1="531.076" y2="-24.268"/><g><g><path d="m391.503 44.15-58.241-33.675c-28.705-16.003-65.882-14.238-106.531 9.23-90.847 52.451-164.493 193.166-164.493 314.296 0 68.561 23.608 116.128 60.562 135.011l55.811 32.473z" fill="url(#SVGID_1_)"/><path d="m449.762 177.965c0-121.13-73.646-176.805-164.493-124.355-90.848 52.451-164.494 193.166-164.494 314.295 0 121.13 73.647 176.806 164.494 124.355 90.847-52.45 164.493-193.165 164.493-314.295z" fill="url(#SVGID_2_)"/></g><g><path d="m285.269 79.658-41.085 111.109 82.17-47.442z" fill="url(#SVGID_3_)"/><path d="m285.269 466.212 41.085-111.108-82.17 47.441z" fill="url(#SVGID_3_)"/><path d="m430.227 189.244-65.541-16.941v109.561z" fill="url(#SVGID_5_)"/><path d="m140.311 356.626 65.541 16.941v-109.561z" fill="url(#SVGID_6_)"/></g></g></svg>