<svg id="Capa_1" enable-background="new 0 0 512 512" height="512" viewBox="0 0 512 512" width="512" xmlns="http://www.w3.org/2000/svg" xmlns:xlink="http://www.w3.org/1999/xlink"><linearGradient id="lg1"><stop offset="0" stop-color="#43386b"/><stop offset="1" stop-color="#594a8e"/></linearGradient><linearGradient id="SVGID_1_" gradientUnits="userSpaceOnUse" x1="164.083" x2="164.083" xlink:href="#lg1" y1="118.729" y2="12.125"/><linearGradient id="lg2"><stop offset="0" stop-color="#c5baeb"/><stop offset="1" stop-color="#f2effa"/></linearGradient><linearGradient id="SVGID_00000043435007720536841570000005677932070389058447_" gradientUnits="userSpaceOnUse" x1="387.125" x2="387.125" xlink:href="#lg2" y1="354.656" y2="412.64"/><linearGradient id="SVGID_00000116229025069056871820000000921478635281068673_" gradientUnits="userSpaceOnUse" x1="341.405" x2="282.576" xlink:href="#lg2" y1="378.268" y2="481.664"/><linearGradient id="SVGID_00000013185967405149066530000005998661122515756190_" gradientUnits="userSpaceOnUse" x1="340.893" x2="282.065" xlink:href="#lg2" y1="377.977" y2="481.373"/><linearGradient id="lg3"><stop offset="0" stop-color="#d7d1eb"/><stop offset="1" stop-color="#f2effa"/></linearGradient><linearGradient id="SVGID_00000074436599900143233560000001642495859366999436_" gradientUnits="userSpaceOnUse" x1="353.038" x2="322.223" xlink:href="#lg3" y1="342.76" y2="390.383"/><linearGradient id="SVGID_00000073696189082761677330000001217103385246732207_" gradientTransform="matrix(-1 0 0 1 721.834 0)" gradientUnits="userSpaceOnUse" x1="294.451" x2="235.622" xlink:href="#lg2" y1="375.539" y2="478.936"/><linearGradient id="SVGID_00000046322730237398589990000012650103209317355162_" gradientTransform="matrix(-1 0 0 1 721.834 0)" gradientUnits="userSpaceOnUse" x1="293.939" x2="235.111" xlink:href="#lg2" y1="375.248" y2="478.644"/><linearGradient id="SVGID_00000153700509741683101680000000786380920401969074_" gradientTransform="matrix(-1 0 0 1 721.834 0)" gradientUnits="userSpaceOnUse" x1="306.083" x2="275.268" xlink:href="#lg3" y1="340.031" y2="387.654"/><linearGradient id="SVGID_00000088823660773101159130000012511780172224465815_" gradientUnits="userSpaceOnUse" x1="347.001" x2="440.447" xlink:href="#lg2" y1="333.907" y2="333.907"/><linearGradient id="SVGID_00000148646494379988954270000001376913908376565407_" gradientUnits="userSpaceOnUse" x1="327.1" x2="424.031" xlink:href="#lg3" y1="277.042" y2="333.005"/><linearGradient id="SVGID_00000160189849117544231440000003221617254667545274_" gradientUnits="userSpaceOnUse" x1="365.562" x2="428.254" xlink:href="#lg2" y1="295.52" y2="295.52"/><linearGradient id="lg4"><stop offset="0" stop-color="#221c36"/><stop offset="1" stop-color="#43386b"/></linearGradient><linearGradient id="SVGID_00000071527957446520917480000014821087076750551941_" gradientUnits="userSpaceOnUse" x1="78.315" x2="204.127" xlink:href="#lg4" y1="447.611" y2="447.611"/><linearGradient id="SVGID_00000140722969411689346920000012460203082919658897_" gradientUnits="userSpaceOnUse" x1="34.179" x2="249.15" xlink:href="#lg1" y1="317.693" y2="441.806"/><linearGradient id="lg5"><stop offset="0" stop-color="#2f97f7"/><stop offset="1" stop-color="#79d3fe"/></linearGradient><linearGradient id="SVGID_00000054958268349592833080000016312779548112217013_" gradientUnits="userSpaceOnUse" x1="174.675" x2="129.309" xlink:href="#lg5" y1="214.435" y2="135.86"/><linearGradient id="SVGID_00000152962800955228254850000013816757916863559809_" gradientUnits="userSpaceOnUse" x1="159.381" x2="159.381" xlink:href="#lg5" y1="375.51" y2="127.614"/><linearGradient id="SVGID_00000096764223035089948100000001059368251566523276_" gradientUnits="userSpaceOnUse" x1="181.766" x2="117.999" xlink:href="#lg5" y1="361.358" y2="361.358"/><linearGradient id="SVGID_00000114757022188649838830000009064621319488532926_" gradientUnits="userSpaceOnUse" x1="160.918" x2="103.363" xlink:href="#lg5" y1="281.956" y2="353.772"/><linearGradient id="SVGID_00000127008327892996045830000008383084412186293416_" gradientUnits="userSpaceOnUse" x1="117.66" x2="140.669" xlink:href="#lg4" y1="254.645" y2="254.645"/><linearGradient id="SVGID_00000126288072149260648950000000796265146812124313_" gradientUnits="userSpaceOnUse" x1="142.97" x2="165.979" xlink:href="#lg2" y1="252.747" y2="252.747"/><linearGradient id="SVGID_00000026131927899906262960000000436774306369299866_" gradientUnits="userSpaceOnUse" x1="168.72" x2="297.62" xlink:href="#lg5" y1="202.156" y2="-3.325"/><linearGradient id="SVGID_00000026156720738593866840000008050242766442392759_" gradientUnits="userSpaceOnUse" x1="194.47" x2="176.369" xlink:href="#lg5" y1="179.95" y2="101.231"/><linearGradient id="SVGID_00000008130959387686211160000011678048549988540821_" gradientUnits="userSpaceOnUse" x1="283.762" x2="243.599" xlink:href="#lg5" y1="63.19" y2="7.339"/><linearGradient id="SVGID_00000169558333672343539800000011794517915746401429_" gradientUnits="userSpaceOnUse" x1="227.021" x2="312.078" xlink:href="#lg5" y1="149.293" y2="149.293"/><linearGradient id="SVGID_00000029004466124981771890000007140245328394062234_" gradientUnits="userSpaceOnUse" x1="231.896" x2="304.476" xlink:href="#lg5" y1="73.319" y2="239.109"/><linearGradient id="SVGID_00000065761818633224865540000018429178950460871093_" gradientTransform="matrix(-1 0 0 1 566.119 0)" gradientUnits="userSpaceOnUse" x1="252.283" x2="267.668" xlink:href="#lg2" y1="244.257" y2="217.609"/><linearGradient id="SVGID_00000125604509978921640830000007416588587677898646_" gradientTransform="matrix(-1 0 0 1 566.119 0)" gradientUnits="userSpaceOnUse" x1="263.875" x2="263.875" xlink:href="#lg3" y1="278.805" y2="240.242"/><linearGradient id="SVGID_00000152230444826136450890000000797778568773559471_" gradientUnits="userSpaceOnUse" x1="347.001" x2="403.73" xlink:href="#lg4" y1="253.333" y2="253.333"/><linearGradient id="SVGID_00000147932754737572346930000004200281873309692807_" gradientUnits="userSpaceOnUse" x1="327.1" x2="424.031" xlink:href="#lg1" y1="178.782" y2="234.745"/><linearGradient id="SVGID_00000112606614973979472010000017531272191905845659_" gradientUnits="userSpaceOnUse" x1="313.969" x2="313.969" xlink:href="#lg1" y1="224.194" y2="110.664"/><linearGradient id="SVGID_00000028294156058945611250000005050480957765120175_" gradientUnits="userSpaceOnUse" x1="196.205" x2="154.977" xlink:href="#lg5" y1="128.406" y2="71.074"/><linearGradient id="SVGID_00000031198658870936872120000010866630801309558932_" gradientUnits="userSpaceOnUse" x1="126.239" x2="234.63" xlink:href="#lg5" y1="196.382" y2="23.595"/><linearGradient id="SVGID_00000100359972535027173530000012076171776596687247_" gradientTransform="matrix(-1 0 0 1 566.119 0)" gradientUnits="userSpaceOnUse" x1="439.764" x2="470.483" xlink:href="#lg2" y1="169.942" y2="116.737"/><linearGradient id="SVGID_00000147901019656861676730000011704574897181204900_" gradientTransform="matrix(-1 0 0 1 566.119 0)" gradientUnits="userSpaceOnUse" x1="462.911" x2="462.911" xlink:href="#lg3" y1="238.923" y2="161.927"/><linearGradient id="SVGID_00000144321512562845776430000014984412545549937058_" gradientTransform="matrix(-1 0 0 1 566.119 0)" gradientUnits="userSpaceOnUse" x1="335.119" x2="350.504" xlink:href="#lg2" y1="84.951" y2="58.303"/><linearGradient id="SVGID_00000077315577070022812070000008802752328041488021_" gradientTransform="matrix(-1 0 0 1 566.119 0)" gradientUnits="userSpaceOnUse" x1="346.712" x2="346.712" xlink:href="#lg3" y1="119.499" y2="80.936"/><g><g><path d="m115.481 118.729h-21.435v-5.058c0-27.124 10.562-52.625 29.742-71.804 19.18-19.18 44.681-29.742 71.804-29.742h38.527v21.435h-38.527c-21.398 0-41.516 8.333-56.647 23.464s-23.464 35.249-23.464 56.648z" fill="url(#SVGID_1_)"/></g><path d="m376.076 318.054 20.682-1.906 1.412 56.631c.078 3.116-2.273 5.758-5.376 6.044l-8.863.817c-3.412.314-6.377-2.324-6.463-5.749z" fill="url(#SVGID_00000043435007720536841570000005677932070389058447_)"/><path d="m326.105 402.874s-17.987-10.385-17.987-10.385l-4.211 6.179 17.987 10.385 21.868 8.659c1.222.484 2.115-1.189 1.034-1.936 0 0-18.691-12.902-18.691-12.902z" fill="url(#SVGID_00000116229025069056871820000000921478635281068673_)"/><path d="m345.536 348.818 17.987 10.385-35.14 52.419-6.489-2.569z" fill="url(#SVGID_00000013185967405149066530000005998661122515756190_)"/><path d="m338.533 347.014 17.988 10.385-34.627 51.654-17.987-10.385z" fill="url(#SVGID_00000074436599900143233560000001642495859366999436_)"/><path d="m442.683 400.145s17.987-10.385 17.987-10.385l4.211 6.179s-17.987 10.385-17.987 10.385l-21.868 8.659c-1.222.484-2.116-1.189-1.034-1.936z" fill="url(#SVGID_00000073696189082761677330000001217103385246732207_)"/><path d="m423.253 346.089-17.988 10.385 35.14 52.419 6.489-2.569z" fill="url(#SVGID_00000046322730237398589990000012650103209317355162_)"/><path d="m430.255 344.285-17.987 10.385 34.626 51.654 17.988-10.385z" fill="url(#SVGID_00000153700509741683101680000000786380920401969074_)"/><g><path d="m332.934 316.271v16.98l.011-.001c-.217 7.383 4.129 14.46 13.233 19.716 19.617 11.326 53.884 9.906 76.536-3.173 12.049-6.957 18.385-15.811 18.724-24.28l.015-.001v-18.311z" fill="url(#SVGID_00000088823660773101159130000012511780172224465815_)"/><path d="m428.208 288.056c-19.617-11.326-53.884-9.906-76.536 3.173-22.652 13.078-25.112 32.862-5.495 44.188s53.884 9.906 76.536-3.172c22.653-13.079 25.113-32.863 5.495-44.189z" fill="url(#SVGID_00000148646494379988954270000001376913908376565407_)"/></g><path d="m357.992 270.709v39.779h.006c-.116 3.973 2.222 7.782 7.122 10.611 10.558 6.096 28.999 5.331 41.19-1.707 6.485-3.744 9.894-8.509 10.077-13.067l.008-.001v-40.495z" fill="url(#SVGID_00000160189849117544231440000003221617254667545274_)"/><g><path d="m47.118 403.336v47.983l.024-.002c-.48 16.374 9.158 32.07 29.347 43.726 43.507 25.119 119.501 21.968 169.738-7.036 26.723-15.428 40.773-35.065 41.525-53.847l.033-.002v-50.935z" fill="url(#SVGID_00000071527957446520917480000014821087076750551941_)"/><path d="m258.414 342.12c-43.507-25.118-119.501-21.968-169.738 7.036s-55.693 72.88-12.187 97.998c43.507 25.119 119.501 21.968 169.738-7.036 50.238-29.004 55.694-72.879 12.187-97.998z" fill="url(#SVGID_00000140722969411689346920000012460203082919658897_)"/></g><g><path d="m182.335 86.626c-10.168-5.87-19.474-6.35-26.682-2.404l-.004-.012-23.48 13.528 68.625 320.844 22.953-13.252v-239.578c0-30.495-18.541-65.921-41.412-79.126z" fill="url(#SVGID_00000054958268349592833080000016312779548112217013_)"/><path d="m159.381 99.856c-22.872-13.205-41.413.812-41.413 31.307v239.599l82.825-59.866v-131.914c.001-30.495-18.54-65.921-41.412-79.126z" fill="url(#SVGID_00000152962800955228254850000013816757916863559809_)"/></g><g><path d="m200.794 310.896-104.661-19.334v107.696l.013-.001c-.252 8.607 4.814 16.857 15.426 22.984 22.869 13.204 62.815 11.548 89.222-3.698z" fill="url(#SVGID_00000096764223035089948100000001059368251566523276_)"/><path d="m111.572 314.742c22.869 13.204 62.815 11.548 89.222-3.698l-82.816-47.814c-26.407 15.246-29.275 38.309-6.406 51.512z" fill="url(#SVGID_00000114757022188649838830000009064621319488532926_)"/><path d="m114.881 224.123v57.431h.002c-.043 1.458.816 2.856 2.614 3.894 3.875 2.237 10.643 1.957 15.118-.627 2.38-1.374 3.631-3.123 3.698-4.796h.003v-57.694z" fill="url(#SVGID_00000127008327892996045830000008383084412186293416_)"/><path d="m140.192 206.575v88.731h.002c-.043 1.458.816 2.856 2.614 3.894 3.875 2.237 10.643 1.957 15.117-.627 2.38-1.374 3.631-3.123 3.698-4.796h.003v-88.994z" fill="url(#SVGID_00000126288072149260648950000000796265146812124313_)"/></g><path d="m302.001 38.035c-15.516-29.647-40.277-44.769-56.544-35.151l-51.714 30.03-53.552 196.069 51.443-29.924.005-.018c1.213-.589 2.388-1.292 3.51-2.141l106.851-80.778c16.174-12.225 16.174-47.186.001-78.087z" fill="url(#SVGID_00000026131927899906262960000000436774306369299866_)"/><path d="m249.239 133.05-97.232 52.675-11.815 43.259 51.443-29.924.005-.018c1.213-.589 2.388-1.292 3.51-2.141l53.065-40.116z" fill="url(#SVGID_00000026156720738593866840000008050242766442392759_)"/><path d="m302.001 38.05c-15.282-29.2-39.531-44.311-55.802-35.572l-12.08 6.99 4.514-1.602c15.94-3.746 37.019 11.126 50.803 37.462 16.173 30.901 16.173 65.862 0 78.089l12.566-7.279c16.172-12.226 16.172-47.187-.001-78.088z" fill="url(#SVGID_00000008130959387686211160000011678048549988540821_)"/><path d="m356.508 189.738-70.931-135.526c-16.155-30.867-42.336-46.004-58.513-33.85l-21.134 11.858 125.338 250.202 23.207-13.239-.006-.012c.693-.409 1.377-.846 2.038-1.346 16.174-12.225 16.174-47.186.001-78.087z" fill="url(#SVGID_00000169558333672343539800000011794517915746401429_)"/><path d="m333.405 281.003c16.173-12.226 16.173-47.188 0-78.089l-70.931-135.525c-16.173-30.901-42.394-46.04-58.566-33.813-16.173 12.226-16.173 47.188 0 78.088l70.93 135.526c16.173 30.901 42.394 46.039 58.567 33.813z" fill="url(#SVGID_00000029004466124981771890000007140245328394062234_)"/><g><path d="m301.073 219.603.003.006c2.644-1.511 6.084-1.366 9.849.807 8.34 4.815 15.1 17.732 15.1 28.852 0 6.05-2.004 10.316-5.173 12.178l-8.781 5.053-19.914-41.766z" fill="url(#SVGID_00000065761818633224865540000018429178950460871093_)"/><path d="m287.143 236.82c0-11.12 6.761-16.231 15.1-11.416 8.34 4.815 15.1 17.732 15.1 28.852s-6.761 16.231-15.1 11.416-15.1-17.733-15.1-28.852z" fill="url(#SVGID_00000125604509978921640830000007416588587677898646_)"/></g><g><path d="m332.934 218.012v52.35l.011-.001c-.217 7.383 4.129 14.46 13.233 19.716 19.617 11.326 53.884 9.906 76.536-3.173 12.049-6.957 18.385-15.811 18.724-24.28l.015-.001v-53.681z" fill="url(#SVGID_00000152230444826136450890000000797778568773559471_)"/><path d="m428.208 189.797c-19.617-11.326-53.884-9.906-76.536 3.173-22.652 13.078-25.112 32.862-5.495 44.188s53.884 9.906 76.536-3.173c22.653-13.079 25.113-32.862 5.495-44.188z" fill="url(#SVGID_00000147932754737572346930000004200281873309692807_)"/></g><g><path d="m387.193 224.194c-5.919 0-10.717-4.798-10.717-10.717v-27.686c0-14.215-11.565-25.78-25.78-25.78h-42.566c-28.318 0-54.94-11.028-74.964-31.052-4.186-4.185-4.186-10.971 0-15.156 4.185-4.186 10.972-4.186 15.156 0 15.976 15.975 37.216 24.774 59.808 24.774h42.565c26.034 0 47.215 21.181 47.215 47.215v27.686c0 5.918-4.798 10.716-10.717 10.716z" fill="url(#SVGID_00000112606614973979472010000017531272191905845659_)"/></g><path d="m262.726 60.879c-15.536-29.685-40.34-44.808-56.606-35.116l-.006-.013-12.371 7.165-45.632 190.479c2.762-.649 5.375-1.843 7.763-3.649l106.851-80.777c16.174-12.227 16.174-47.189.001-78.089z" fill="url(#SVGID_00000028294156058945611250000005050480957765120175_)"/><path d="m250.161 68.158c-16.173-30.901-42.394-46.04-58.566-33.813l-106.852 80.777c-16.173 12.226-16.173 47.188 0 78.088 16.173 30.901 42.394 46.039 58.566 33.813l106.851-80.778c16.173-12.225 16.173-47.186.001-78.087z" fill="url(#SVGID_00000031198658870936872120000010866630801309558932_)"/><g><path d="m100.87 120.717.006.011c5.28-3.017 12.148-2.728 19.665 1.612 16.651 9.614 30.15 35.405 30.15 57.607 0 12.08-4.002 20.597-10.328 24.314l-17.533 10.089-39.762-83.392z" fill="url(#SVGID_00000100359972535027173530000012076171776596687247_)"/><path d="m73.059 155.093c0-22.202 13.499-32.407 30.15-22.793s30.15 35.405 30.15 57.607-13.498 32.406-30.15 22.793c-16.652-9.614-30.15-35.406-30.15-57.607z" fill="url(#SVGID_00000147901019656861676730000011704574897181204900_)"/></g><g><path d="m218.236 60.297.003.006c2.644-1.511 6.084-1.366 9.849.807 8.34 4.815 15.1 17.732 15.1 28.852 0 6.05-2.004 10.316-5.173 12.177l-8.781 5.053-19.914-41.766z" fill="url(#SVGID_00000144321512562845776430000014984412545549937058_)"/><path d="m204.307 77.513c0-11.12 6.761-16.231 15.1-11.416 8.34 4.815 15.1 17.732 15.1 28.852s-6.761 16.231-15.1 11.416c-8.34-4.814-15.1-17.732-15.1-28.852z" fill="url(#SVGID_00000077315577070022812070000008802752328041488021_)"/></g></g></svg>