<svg id="Capa_1" enable-background="new 0 0 512 512" height="512" viewBox="0 0 512 512" width="512" xmlns="http://www.w3.org/2000/svg" xmlns:xlink="http://www.w3.org/1999/xlink"><linearGradient id="SVGID_1_" gradientUnits="userSpaceOnUse" x1="168.326" x2="199.797" y1="249.325" y2="194.815"><stop offset="0" stop-color="#45356d"/><stop offset=".2699" stop-color="#544081"/><stop offset="1" stop-color="#b096ed"/></linearGradient><linearGradient id="SVGID_2_" gradientUnits="userSpaceOnUse" x1="271.136" x2="271.136" y1="521.951" y2="176.19"><stop offset="0" stop-color="#45356d"/><stop offset=".2699" stop-color="#544081"/><stop offset="1" stop-color="#7e62c0"/></linearGradient><linearGradient id="SVGID_3_" gradientUnits="userSpaceOnUse" x1="386.792" x2="404.083" y1="74.197" y2="44.248"><stop offset="0" stop-color="#c62834"/><stop offset=".1715" stop-color="#e03544"/><stop offset=".3507" stop-color="#ff4557"/><stop offset=".5048" stop-color="#ff717e"/><stop offset=".6463" stop-color="#ff959e"/><stop offset="1" stop-color="#ff7b86"/></linearGradient><linearGradient id="SVGID_4_" gradientTransform="matrix(.866 -.5 0 1.155 34.128 484.427)" gradientUnits="userSpaceOnUse" x1="423.199" x2="423.199" y1="-151.746" y2="-198.166"><stop offset="0" stop-color="#c62834"/><stop offset="1" stop-color="#ff4557"/></linearGradient><linearGradient id="lg1"><stop offset="0" stop-color="#e1daef"/><stop offset="1" stop-color="#fff"/></linearGradient><linearGradient id="SVGID_5_" gradientUnits="userSpaceOnUse" x1="401.774" x2="401.774" xlink:href="#lg1" y1="85.556" y2="49.173"/><linearGradient id="SVGID_6_" gradientUnits="userSpaceOnUse" x1="336.365" x2="353.656" y1="103.344" y2="73.395"><stop offset=".0319" stop-color="#b096ed"/><stop offset=".0645" stop-color="#b9a3ee"/><stop offset=".1414" stop-color="#cbbbf1"/><stop offset=".2286" stop-color="#d9cef3"/><stop offset=".3305" stop-color="#e3dbf5"/><stop offset=".4611" stop-color="#e8e3f6"/><stop offset=".719" stop-color="#eae5f6"/><stop offset=".7626" stop-color="#e0daf0"/><stop offset=".8254" stop-color="#dbd3ed"/><stop offset="1" stop-color="#d9d1ec"/></linearGradient><linearGradient id="SVGID_7_" gradientTransform="matrix(.866 -.5 0 1.155 34.128 484.427)" gradientUnits="userSpaceOnUse" x1="364.969" x2="364.969" xlink:href="#lg1" y1="-151.718" y2="-198.138"/><linearGradient id="lg2"><stop offset=".0319" stop-color="#b096ed"/><stop offset=".1442" stop-color="#b9a3ee"/><stop offset=".5109" stop-color="#d4c7f3"/><stop offset=".8092" stop-color="#e4ddf5"/><stop offset="1" stop-color="#eae5f6"/></linearGradient><linearGradient id="SVGID_8_" gradientUnits="userSpaceOnUse" x1="175.681" x2="186.871" xlink:href="#lg2" y1="457.935" y2="438.554"/><linearGradient id="SVGID_9_" gradientUnits="userSpaceOnUse" x1="224.316" x2="224.316" xlink:href="#lg1" y1="507.26" y2="353.329"/><linearGradient id="SVGID_10_" gradientUnits="userSpaceOnUse" x1="344.345" x2="362.868" xlink:href="#lg2" y1="214.421" y2="182.339"/><linearGradient id="SVGID_11_" gradientUnits="userSpaceOnUse" x1="366.67" x2="366.67" xlink:href="#lg1" y1="452.899" y2="114.857"/><linearGradient id="SVGID_12_" gradientUnits="userSpaceOnUse" x1="176.952" x2="192.701" xlink:href="#lg2" y1="294.981" y2="267.702"/><linearGradient id="SVGID_13_" gradientUnits="userSpaceOnUse" x1="224.316" x2="224.316" xlink:href="#lg1" y1="444.712" y2="190.258"/><g><path d="m421.803 19.304-30.401-17.699c-3.481-2.279-8.132-2.217-13.244.735l-274.586 158.532c-10.783 6.226-19.523 22.927-19.523 37.303v279.113c0 8.493 3.052 13.741 7.772 16.299l21.1 12.27 7.315 4.282z" fill="url(#SVGID_1_)"/><path d="m408.428 19.949-274.585 158.532c-10.782 6.225-19.523 22.927-19.523 37.303v279.113c0 14.377 8.741 20.985 19.523 14.759l274.586-158.532c10.782-6.225 19.523-22.927 19.523-37.303v-279.112c0-14.377-8.741-20.985-19.524-14.76z" fill="url(#SVGID_2_)"/><g><g><path d="m412.276 46.323-6.607-3.802c-3.15-1.756-7.229-1.562-11.689 1.013-9.968 5.755-18.049 21.196-18.049 34.487 0 7.523 2.59 12.743 6.645 14.814l6.341 3.67z" fill="url(#SVGID_3_)"/><path d="m418.668 61.006c0-13.291-8.081-19.4-18.049-13.645s-18.049 21.196-18.049 34.487 8.081 19.4 18.049 13.645 18.049-21.196 18.049-34.487z" fill="url(#SVGID_4_)"/><path d="m405.119 68.507 4.641-8.867c.924-1.765.924-3.762 0-4.46s-2.421.166-3.345 1.931l-4.641 8.867-4.641-3.508c-.924-.698-2.421.166-3.345 1.931s-.924 3.762 0 4.46l4.641 3.508-4.641 8.867c-.924 1.765-.924 3.762 0 4.46.462.349 1.067.308 1.673-.042.605-.349 1.211-1.007 1.672-1.889l4.641-8.867 4.641 3.508c.462.349 1.067.308 1.672-.042.605-.349 1.211-1.007 1.673-1.889.924-1.765.924-3.762 0-4.46z" fill="url(#SVGID_5_)"/></g></g><g><g><path d="m361.849 75.47-6.607-3.802c-3.15-1.756-7.229-1.562-11.69 1.013-9.968 5.755-18.049 21.196-18.049 34.487 0 7.523 2.59 12.743 6.645 14.814l6.341 3.67z" fill="url(#SVGID_6_)"/><path d="m368.241 90.153c0-13.291-8.081-19.4-18.049-13.645s-18.05 21.196-18.05 34.487 8.081 19.4 18.05 13.645c9.968-5.756 18.049-21.196 18.049-34.487z" fill="url(#SVGID_7_)"/></g></g><g><path d="m360.095 93.094-17.883 10.325c-1.299.75-2.352 2.762-2.352 4.494 0 1.732 1.053 2.528 2.352 1.778l17.883-10.325c1.299-.75 2.352-2.762 2.352-4.495 0-1.731-1.053-2.528-2.352-1.777z" fill="#7e62c0"/></g><g><path d="m288.37 357.92-18.698-10.886c-2.141-1.401-5.001-1.363-8.146.452l-111.656 65.157c-6.632 3.829-12.008 14.101-12.008 22.943v19.347c0 5.224 1.877 8.778 4.78 10.025l17.477 10.181z" fill="url(#SVGID_8_)"/><path d="m280.144 358.317-111.655 65.157c-6.632 3.829-12.008 14.101-12.008 22.943v19.347c0 8.842 5.376 12.906 12.008 9.078l111.655-65.157c6.632-3.829 12.008-14.101 12.008-22.943v-19.347c-.001-8.843-5.377-12.907-12.008-9.078z" fill="url(#SVGID_9_)"/></g><g><path d="m415.642 123.691-18.698-10.886c-2.141-1.401-5.002-1.363-8.146.452l-81.492 47.582c-6.632 3.829-12.008 14.101-12.008 22.943v179.74c0 5.224 1.877 8.779 4.78 10.025l17.477 10.181z" fill="url(#SVGID_10_)"/><path d="m407.416 124.088-81.492 47.582c-6.632 3.829-12.008 14.101-12.008 22.943v179.74c0 8.842 5.376 12.906 12.008 9.077l81.492-47.582c6.632-3.829 12.008-14.101 12.008-22.943v-179.74c0-8.842-5.376-12.906-12.008-9.077z" fill="url(#SVGID_11_)"/><g><path d="m404.208 151.192-69.067 40.113c-3.087 1.782-5.59 6.564-5.59 10.68 0 4.116 2.503 6.008 5.59 4.226l69.067-40.112c3.087-1.783 5.59-6.564 5.59-10.681 0-4.116-2.503-6.008-5.59-4.226z" fill="#7e62c0"/></g><g><path d="m404.208 187.905-69.067 40.113c-3.087 1.782-5.59 6.564-5.59 10.68 0 4.116 2.503 6.008 5.59 4.226l69.067-40.113c3.087-1.783 5.59-6.564 5.59-10.681 0-4.115-2.503-6.007-5.59-4.225z" fill="#7e62c0"/></g><g><path d="m404.208 224.618-69.067 40.112c-3.087 1.782-5.59 6.564-5.59 10.681 0 4.116 2.503 6.008 5.59 4.226l69.067-40.113c3.087-1.783 5.59-6.564 5.59-10.681 0-4.115-2.503-6.008-5.59-4.225z" fill="#7e62c0"/></g><g><path d="m404.208 261.331-69.067 40.113c-3.087 1.782-5.59 6.564-5.59 10.681 0 4.116 2.503 6.008 5.59 4.226l69.067-40.112c3.087-1.783 5.59-6.564 5.59-10.681 0-4.118-2.503-6.01-5.59-4.227z" fill="#7e62c0"/></g><g><path d="m404.208 298.044-69.067 40.112c-3.087 1.782-5.59 6.564-5.59 10.681 0 4.116 2.503 6.008 5.59 4.226l69.067-40.112c3.087-1.783 5.59-6.564 5.59-10.681 0-4.117-2.503-6.009-5.59-4.226z" fill="#7e62c0"/></g></g><g><path d="m288.37 197.166-18.698-10.886c-2.141-1.402-5.001-1.363-8.146.452l-111.656 65.157c-6.632 3.829-12.008 14.101-12.008 22.943v97.325c0 5.224 1.877 8.779 4.78 10.025l17.477 10.181z" fill="url(#SVGID_12_)"/><path d="m280.144 197.563-111.656 65.157c-6.632 3.829-12.008 14.101-12.008 22.943v97.325c0 8.842 5.376 12.906 12.008 9.078l111.655-65.157c6.632-3.829 12.008-14.101 12.008-22.943v-97.325c0-8.843-5.376-12.907-12.007-9.078z" fill="url(#SVGID_13_)"/><g fill="#7e62c0"><path d="m247.951 256.982-29.696 85.724 59.392-34.29z"/><path d="m197.16 306.168-21.095 60.897 42.19-24.359z"/></g></g><g><path d="m273.396 383.686-96.494 56.234c-3.087 1.782-5.59 6.564-5.59 10.681 0 4.116 2.503 6.008 5.59 4.226l96.494-56.234c3.087-1.783 5.59-6.564 5.59-10.681 0-4.116-2.503-6.008-5.59-4.226z" fill="#7e62c0"/></g></g></svg>