<svg id="Capa_1" enable-background="new 0 0 512 512" height="512" viewBox="0 0 512 512" width="512" xmlns="http://www.w3.org/2000/svg" xmlns:xlink="http://www.w3.org/1999/xlink"><linearGradient id="lg1"><stop offset="0" stop-color="#00568d"/><stop offset=".9916" stop-color="#0197f8"/></linearGradient><linearGradient id="SVGID_1_" gradientUnits="userSpaceOnUse" x1="197.452" x2="99.992" xlink:href="#lg1" y1="339.039" y2="706.214"/><linearGradient id="SVGID_2_" gradientUnits="userSpaceOnUse" x1="334.935" x2="423.016" xlink:href="#lg1" y1="326.956" y2="565.342"/><linearGradient id="lg2"><stop offset="0" stop-color="#2f97f7"/><stop offset="1" stop-color="#59acf9"/></linearGradient><linearGradient id="SVGID_3_" gradientUnits="userSpaceOnUse" x1="231.119" x2="165.664" xlink:href="#lg2" y1="301.219" y2="542.433"/><linearGradient id="SVGID_4_" gradientUnits="userSpaceOnUse" x1="314.519" x2="395.731" xlink:href="#lg2" y1="239.134" y2="430.65"/><linearGradient id="lg3"><stop offset="0" stop-color="#a996eb"/><stop offset="1" stop-color="#d7d1eb"/></linearGradient><linearGradient id="SVGID_5_" gradientUnits="userSpaceOnUse" x1="246.197" x2="246.197" xlink:href="#lg3" y1="344.321" y2="288.474"/><linearGradient id="SVGID_6_" gradientUnits="userSpaceOnUse" x1="241.266" x2="241.266" xlink:href="#lg3" y1="289.177" y2="-187.041"/><linearGradient id="SVGID_7_" gradientUnits="userSpaceOnUse" x1="152.681" x2="219.758" y1="172.328" y2="58.551"><stop offset="0" stop-color="#a996eb"/><stop offset=".4997" stop-color="#d7d1eb"/><stop offset="1" stop-color="#a996eb"/></linearGradient><linearGradient id="SVGID_8_" gradientUnits="userSpaceOnUse" x1="217.653" x2="258.861" xlink:href="#lg3" y1="94.861" y2="24.965"/><linearGradient id="SVGID_9_" gradientUnits="userSpaceOnUse" x1="294.318" x2="335.931" xlink:href="#lg3" y1="38.104" y2="14.078"/><linearGradient id="SVGID_10_" gradientTransform="matrix(.866 -.5 0 1.155 -51.648 461.452)" gradientUnits="userSpaceOnUse" x1="385.972" x2="385.972" y1="18.073" y2="-374.485"><stop offset="0" stop-color="#dfdaef"/><stop offset="1" stop-color="#fff"/></linearGradient><linearGradient id="SVGID_11_" gradientTransform="matrix(.866 -.5 0 1.155 -51.648 461.452)" gradientUnits="userSpaceOnUse" x1="385.972" x2="385.972" y1="-86.049" y2="-347.614"><stop offset="0" stop-color="#d7d1eb"/><stop offset="1" stop-color="#fff"/></linearGradient><linearGradient id="SVGID_12_" gradientUnits="userSpaceOnUse" x1="266.494" x2="353.161" xlink:href="#lg3" y1="268.307" y2="118.195"/><linearGradient id="SVGID_13_" gradientUnits="userSpaceOnUse" x1="242.727" x2="242.727" y1="190.105" y2="297.005"><stop offset="0" stop-color="#7662bd"/><stop offset="1" stop-color="#7662bd" stop-opacity="0"/></linearGradient><linearGradient id="SVGID_14_" gradientUnits="userSpaceOnUse" x1="238.441" x2="257.656" xlink:href="#lg1" y1="240.885" y2="207.875"/><linearGradient id="SVGID_15_" gradientUnits="userSpaceOnUse" x1="254.91" x2="227.866" y1="259.65" y2="237.371"><stop offset=".0319" stop-color="#2f878a"/><stop offset="1" stop-color="#2f878a" stop-opacity="0"/></linearGradient><linearGradient id="SVGID_16_" gradientUnits="userSpaceOnUse" x1="270.603" x2="311.222" xlink:href="#lg1" y1="209.566" y2="139.784"/><linearGradient id="SVGID_17_" gradientUnits="userSpaceOnUse" x1="292.938" x2="292.938" xlink:href="#lg2" y1="298.634" y2="109.822"/><g><path d="m276.578 235.618-116.338-2.424-67.262 255.902 39.745 22.904 37.027-32.75 7.918 7.723 39.745 22.904z" fill="url(#SVGID_1_)"/><path d="m360.108 190.445-39.697-23.03-84.689 95.668 58.913 155.944 39.697 23.031z" fill="url(#SVGID_2_)"/><path d="m191.889 287.642 84.689-2.122-59.166 224.357-33.113-33.984-51.576 36.107z" fill="url(#SVGID_3_)"/><path d="m360.108 190.445-84.689 95.668 58.913 155.945 33.114-72.22 51.576-23.448z" fill="url(#SVGID_4_)"/><path d="m269.077 351.791-45.759-26.419 13.385-12.887z" fill="url(#SVGID_5_)"/><g><path d="m349.651 77.343-6.86-5.176 22.718-44.415s-86.75-10.315-89.125-10.045l-70.865 33.738c-4.252 8.13-10.022 14.649-16.038 18.117l-44.039 84.144c.004 8.02-2.387 17.093-6.643 25.22l-15.132 28.889c-8.858 16.911-8.858 36.051 0 42.734l15.132 11.416c4.257 3.211 6.647 9.525 6.643 17.549l-.012 28.524c-.004 9.012 2.955 15.388 7.644 18.217l.014.008c.195.117 46.129 26.605 46.129 26.605l16.677-32.605 4.74 3.591c8.847 6.702 23.203-1.586 32.05-18.504l15.115-28.903c4.252-8.13 10.022-14.649 16.038-18.117l21.388-12.332c12.519-7.218 22.67-26.613 22.663-43.302l-.012-28.51c-.003-8.02 2.387-17.094 6.643-25.22l15.132-28.889c8.858-16.911 8.858-36.052 0-42.734z" fill="url(#SVGID_6_)"/></g><path d="m145.43 125.196.012 28.51 45.945 26.499 44.038-84.143-45.945-26.499-21.388 12.332c-12.518 7.217-22.669 26.612-22.662 43.301z" fill="url(#SVGID_7_)"/><path d="m220.634 22.542-15.115 28.903 45.945 26.499 44.697-48.831-19.776-11.406-23.7-13.669c-8.848-6.703-23.204 1.585-32.051 18.504z" fill="url(#SVGID_8_)"/><path d="m319.117 51.941 46.392-24.189-45.414-26.201c-3.981-2.32-9.178-2.121-14.87 1.17l-21.388 12.365c-2.562 1.481-5.078 2.352-7.453 2.622l22.245 12.83z" fill="url(#SVGID_9_)"/><path d="m298.629 30.537 15.115 11.45c4.252 3.221 10.022 3.076 16.038-.402l21.388-12.365c12.519-7.238 22.67.436 22.663 17.133l-.012 28.524c-.003 8.024 2.387 14.338 6.643 17.549l15.132 11.416c8.858 6.683 8.858 25.823 0 42.734l-15.132 28.889c-4.257 8.126-6.647 17.2-6.643 25.22l.012 28.51c.007 16.688-10.144 36.083-22.663 43.302l-21.388 12.332c-6.016 3.469-11.787 9.987-16.038 18.117l-15.115 28.903c-8.847 16.918-23.203 25.207-32.05 18.504l-15.115-11.45c-4.252-3.221-10.022-3.076-16.038.402l-21.388 12.365c-12.52 7.238-22.67-.436-22.663-17.133l.012-28.524c.003-8.024-2.387-14.338-6.643-17.549l-15.132-11.416c-8.858-6.683-8.858-25.823 0-42.734l15.132-28.889c4.257-8.126 6.647-17.2 6.643-25.22l-.012-28.51c-.007-16.688 10.143-36.083 22.663-43.302l21.388-12.332c6.016-3.469 11.787-9.987 16.038-18.117l15.115-28.903c8.847-16.918 23.203-25.206 32.05-18.504z" fill="url(#SVGID_10_)"/><path d="m362.318 144.422c0-58.7-35.689-85.68-79.714-60.263s-79.714 93.609-79.714 152.309 35.689 85.68 79.714 60.263c44.025-25.418 79.714-93.609 79.714-152.309z" fill="url(#SVGID_11_)"/><path d="m325.187 76c11.947 11.688 19.167 31.665 19.167 58.062 0 58.7-35.689 126.891-79.714 152.308-15.66 9.041-30.263 11.447-42.583 8.159 14.62 14.302 36.32 16.188 60.547 2.201 44.025-25.418 79.714-93.609 79.714-152.309 0-37.819-14.817-62.465-37.131-68.421z" fill="url(#SVGID_12_)"/><g><path d="m262.041 216.353-51.325 2.105v24.184l.044.032c-.254 6.682 1.471 12.332 5.215 15.162l33.369 25.226c3.506 2.651 8.101 2.335 12.697-.318 4.595-2.653 9.191-7.644 12.697-14.343z" fill="url(#SVGID_13_)"/><path d="m332.292 99.089c-7.012-4.952-18.381 1.262-25.394 14.661l-43.595 83.295-5.074-3.491-17.712-10.298-.004.036c-7.053-4.207-17.801 2.326-24.538 15.199-7.012 13.399-7.012 28.557 0 33.859l33.369 25.226c.655.495 1.358.853 2.081 1.145l-.015.03 17.795 10.365 79.645-160.42c.001 0-16.506-9.569-16.558-9.607z" fill="url(#SVGID_14_)"/><path d="m234.78 243.2-18.826-10.869c.008.006.014.013.022.02l33.369 25.226c.655.495 1.358.853 2.081 1.145l-.015.03 17.795 10.365.868-1.749z" fill="url(#SVGID_15_)"/><path d="m332.292 99.089c-7.012-4.952-18.381 1.262-25.394 14.661l-43.595 83.295 17.542 13.262 68.005-101.611c.001 0-16.506-9.569-16.558-9.607z" fill="url(#SVGID_16_)"/><g><path d="m280.846 268.108c-4.596 2.653-9.191 2.969-12.697.318l-33.369-25.226c-7.012-5.301-7.012-20.46 0-33.859 7.012-13.398 18.382-19.963 25.394-14.661l20.672 15.627 44.857-85.707c7.013-13.399 18.382-19.963 25.394-14.661 7.013 5.301 7.013 20.46 0 33.859l-57.554 109.967c-3.506 6.699-8.102 11.689-12.697 14.343z" fill="url(#SVGID_17_)"/></g></g></g></svg>