<svg id="Capa_1" enable-background="new 0 0 512 512" height="512" viewBox="0 0 512 512" width="512" xmlns="http://www.w3.org/2000/svg" xmlns:xlink="http://www.w3.org/1999/xlink"><linearGradient id="lg1"><stop offset="0" stop-color="#2f97f7"/><stop offset="1" stop-color="#79d3fe"/></linearGradient><linearGradient id="SVGID_1_" gradientUnits="userSpaceOnUse" x1="254.247" x2="254.247" xlink:href="#lg1" y1="492.43" y2="-134.976"/><linearGradient id="lg2"><stop offset="0" stop-color="#0072bc"/><stop offset="1" stop-color="#0072bc" stop-opacity="0"/></linearGradient><linearGradient id="SVGID_00000070088260816160253060000006212102098325014451_" gradientUnits="userSpaceOnUse" x1="211.088" x2="201.355" xlink:href="#lg2" y1="124.308" y2="141.165"/><linearGradient id="SVGID_00000149366110566064255610000000131075645291504566_" gradientUnits="userSpaceOnUse" x1="330.518" x2="370.467" xlink:href="#lg2" y1="59.69" y2="-9.503"/><linearGradient id="SVGID_00000142149244738440771440000011065827177627654276_" gradientUnits="userSpaceOnUse" x1="231.84" x2="246.352" xlink:href="#lg2" y1="75.756" y2="50.621"/><linearGradient id="SVGID_00000023270395665468178350000010038396763727535003_" gradientUnits="userSpaceOnUse" x1="230.013" x2="230.013" xlink:href="#lg2" y1="448.921" y2="500.903"/><linearGradient id="SVGID_00000116943503501892994120000002812454876152875711_" gradientUnits="userSpaceOnUse" x1="97.68" x2="112.071" xlink:href="#lg2" y1="339.708" y2="314.784"/><linearGradient id="SVGID_00000133502911277677854530000017270209187927831181_" gradientUnits="userSpaceOnUse" x1="126.917" x2="138.011" xlink:href="#lg2" y1="228.092" y2="208.876"/><linearGradient id="SVGID_00000003821321946147848960000016140881601373657746_" gradientUnits="userSpaceOnUse" x1="177.154" x2="121.527" xlink:href="#lg2" y1="398.728" y2="491.743"/><linearGradient id="SVGID_00000157281739061508250790000013211954207684177040_" gradientTransform="matrix(.866 -.5 0 1.155 -52.124 356.259)" gradientUnits="userSpaceOnUse" x1="387.662" x2="387.662" xlink:href="#lg1" y1="324.938" y2="-154.833"/><linearGradient id="SVGID_00000084507004523921527340000015773992487940256132_" gradientUnits="userSpaceOnUse" x1="145.227" x2="132.277" xlink:href="#lg2" y1="250.482" y2="272.912"/><linearGradient id="lg3"><stop offset="0" stop-color="#c5baeb"/><stop offset="1" stop-color="#f2effa"/></linearGradient><linearGradient id="SVGID_00000098211430144112571270000006800996902916884648_" gradientUnits="userSpaceOnUse" x1="301.291" x2="401.669" xlink:href="#lg3" y1="220.983" y2="47.124"/><linearGradient id="SVGID_00000176043901741948175810000005867122942927288723_" gradientUnits="userSpaceOnUse" x1="369.239" x2="394.501" xlink:href="#lg3" y1="168.858" y2="129.676"/><linearGradient id="SVGID_00000133527983367582794400000017179361262386260372_" gradientUnits="userSpaceOnUse" x1="253.58" x2="234.504" xlink:href="#lg3" y1="386.383" y2="428.659"/><linearGradient id="SVGID_00000021813975095191514670000003019974992667000764_" gradientUnits="userSpaceOnUse" x1="310.237" x2="310.237" y1="454.238" y2="151.031"><stop offset="0" stop-color="#d7d1eb"/><stop offset="1" stop-color="#f2effa"/></linearGradient><linearGradient id="SVGID_00000050627420513114604800000017837849386884743577_" gradientUnits="userSpaceOnUse" x1="310.238" x2="310.238" xlink:href="#lg3" y1="294.022" y2="141.559"/><g><g><path d="m256.51 508.532 192.969-368.271-54.319-31.164-5.095-76.074-55.792-32.292-.002.003c-3.516-2.008-8.581.183-12.687 5.601l-18.535 24.462-48.25-27.869c-2.011-1.324-4.688-1.264-7.572.402l-37.635 21.728c-4.979 2.875-9.353 9.804-10.716 16.976l-12.287 64.634c-4.155 4.36-8.211 8.94-12.151 13.726l-39.203-6.469c-4.35-.718-9.779 3.427-13.299 10.153l-26.612 50.846c-3.521 6.727-4.278 14.402-1.856 18.804l21.827 39.669c-1.883 6.341-3.562 12.719-5.033 19.107l-43.155 41.298c-4.788 4.582-8.091 12.322-8.091 18.96v50.179c0 4.338 1.417 7.506 3.731 8.924l-.001.003.146.085c.085.049.168.104.255.148l45.132 26.074-14.811 44.019c-2.422 7.198-1.664 13.999 1.856 16.661l83.068 52.725 24.851-33.801z" fill="url(#SVGID_1_)"/><path d="m174.437 120.394 55.183 31.891 12.151-13.727-55.182-31.891z" fill="url(#SVGID_00000070088260816160253060000006212102098325014451_)"/><path d="m322.545 95.606h24.5l43.02-62.582-55.792-32.293-.002.003c-3.516-2.008-8.581.183-12.687 5.601l-18.535 24.462 6.778 3.913z" fill="url(#SVGID_00000149366110566064255610000000131075645291504566_)"/><path d="m247.226 3.33-37.635 21.728c-4.979 2.875-9.353 9.804-10.716 16.976l-12.287 64.634 55.182 31.891 68.056-103.849-6.778-3.913-48.25-27.869c-2.01-1.324-4.687-1.264-7.572.402z" fill="url(#SVGID_00000142149244738440771440000011065827177627654276_)"/><path d="m203.243 477.779 27.105-32.726 26.434 2.437-.272 61.042z" fill="url(#SVGID_00000023270395665468178350000010038396763727535003_)"/><path d="m118.633 404.122 46.811-119.727-55.182-31.891-43.155 41.298c-4.788 4.582-8.091 12.322-8.091 18.96v50.179c0 4.338 1.417 7.506 3.731 8.924l-.001.003.146.085c.085.049.168.104.255.148l45.132 26.074z" fill="url(#SVGID_00000116943503501892994120000002812454876152875711_)"/><path d="m93.467 193.728 21.827 39.669 55.182 31.891 6.641-109.319-55.182-31.891-26.612 50.846c-3.52 6.727-4.278 14.402-1.856 18.804z" fill="url(#SVGID_00000133502911277677854530000017270209187927831181_)"/><path d="m174.417 383.4-55.784 20.722-10.355-5.947-14.811 44.019c-2.422 7.198-1.664 13.999 1.856 16.661l83.068 52.725 2.566-3.49z" fill="url(#SVGID_00000003821321946147848960000016140881601373657746_)"/><path d="m444.894 139.437-43.155 8.533c-1.471-4.691-3.15-9.13-5.033-13.296l21.827-64.873c2.422-7.198 1.664-13.999-1.856-16.66l-26.611-20.118c-3.521-2.662-8.949-.538-13.299 5.203l-39.203 51.737c-3.94-.236-7.996-.133-12.151.305l-12.287-50.447c-1.363-5.597-5.738-7.476-10.716-4.601l-37.634 21.728c-4.979 2.874-9.353 9.804-10.717 16.975l-12.287 64.634c-4.155 4.36-8.211 8.94-12.151 13.726l-39.203-6.469c-4.35-.718-9.779 3.427-13.299 10.153l-26.612 50.846c-3.521 6.726-4.278 14.402-1.856 18.804l21.827 39.669c-1.883 6.341-3.562 12.719-5.033 19.108l-43.155 41.298c-4.788 4.582-8.091 12.322-8.091 18.96v50.179c0 6.638 3.303 10.564 8.091 9.617l43.155-8.533c1.471 4.691 3.15 9.129 5.033 13.296l-21.827 64.873c-2.422 7.198-1.664 13.999 1.856 16.66l26.612 20.118c3.52 2.661 8.949.537 13.299-5.203l39.203-51.737c3.94.237 7.997.133 12.151-.305l12.287 50.447c1.363 5.597 5.738 7.475 10.717 4.601l37.634-21.728c4.979-2.874 9.353-9.804 10.716-16.975l12.287-64.634c4.155-4.359 8.211-8.94 12.151-13.726l39.203 6.469c4.35.718 9.779-3.427 13.299-10.154l26.611-50.846c3.521-6.727 4.278-14.402 1.856-18.804l-21.827-39.669c1.883-6.341 3.562-12.719 5.033-19.108l43.155-41.298c4.788-4.582 8.091-12.322 8.091-18.96v-50.179c0-6.637-3.303-10.563-8.091-9.616z" fill="url(#SVGID_00000157281739061508250790000013211954207684177040_)"/><path d="m170.477 265.288-5.033 19.108-55.183-31.892 5.033-19.107z" fill="url(#SVGID_00000084507004523921527340000015773992487940256132_)"/></g><g><path d="m380.997 98.276-14.529-8.37-.008.018c-.776-.412-1.773-.389-2.945.274-14.739 8.336-30.593 25.787-40.576 44.86-9.195 17.569-13.342 36.397-12.454 51.916.523 9.136-1.908 19.842-6.927 29.432l-42.91 81.986c-5.019 9.59-11.996 16.86-19.074 20.249-12.024 5.758-24.349 18.405-33.544 35.973-9.982 19.073-16.206 43.806-16.075 63.382.013 1.854.593 3.055 1.461 3.641l-.007.015 14.299 8.225 88.375-151.233z" fill="url(#SVGID_00000098211430144112571270000006800996902916884648_)"/><path d="m398.1 113.834c-1.756-.944-4.525.424-6.426 4.055l-16.569 31.658c-6.868 13.124-18.004 19.553-24.872 14.361-.506-.383 25.491 29.329 25.491 29.329 4.083-5.91 36.834-71.09 36.834-71.09l-14.453-8.326z" fill="url(#SVGID_00000176043901741948175810000005867122942927288723_)"/><path d="m242.925 373.057c5.376 6.096 4.905 19.672-1.439 31.793l-16.569 31.658c-2.059 3.935-1.689 7.832.133 9.051l-.003.003 14.684 8.455s14.264-32.254 32.554-72.966z" fill="url(#SVGID_00000133527983367582794400000017179361262386260372_)"/><path d="m406.052 126.171-16.569 31.658c-6.868 13.124-18.004 19.553-24.872 14.36-6.868-5.192-6.868-20.039 0-33.162l16.569-31.659c2.963-5.662.903-11.259-3.287-8.889-14.738 8.335-30.593 25.787-40.575 44.86-9.195 17.569-13.342 36.397-12.454 51.915.523 9.136-1.908 19.842-6.927 29.432l-42.909 81.986c-5.019 9.589-11.996 16.859-19.074 20.249-12.024 5.758-24.349 18.404-33.544 35.972-9.982 19.074-16.206 43.806-16.075 63.382.037 5.565 5.127 5.373 8.09-.288l16.57-31.659c6.868-13.123 18.004-19.552 24.872-14.36s6.868 20.04 0 33.163l-16.569 31.658c-2.963 5.662-.903 11.259 3.287 8.889 14.739-8.335 30.593-25.787 40.575-44.86 9.195-17.568 13.343-36.395 12.454-51.915-.523-9.137 1.908-19.842 6.927-29.432l42.909-81.986c5.019-9.59 11.996-16.86 19.074-20.249 12.024-5.759 24.349-18.404 33.544-35.973 9.982-19.073 16.206-43.806 16.075-63.382-.038-5.564-5.128-5.371-8.091.29z" fill="url(#SVGID_00000021813975095191514670000003019974992667000764_)"/><path d="m334.016 230.647c-3.951-2.986-10.356.711-14.307 8.26l-33.249 63.529c-3.951 7.549-3.951 16.089 0 19.076 3.951 2.986 10.356-.712 14.307-8.26l33.25-63.529c3.949-7.549 3.949-16.089-.001-19.076z" fill="url(#SVGID_00000050627420513114604800000017837849386884743577_)"/></g></g></svg>