<svg id="Capa_1" enable-background="new 0 0 512 512" height="512" viewBox="0 0 512 512" width="512" xmlns="http://www.w3.org/2000/svg" xmlns:xlink="http://www.w3.org/1999/xlink"><linearGradient id="lg1"><stop offset="0" stop-color="#ffa627"/><stop offset=".0916" stop-color="#ffae27"/><stop offset=".4474" stop-color="#ffca26"/><stop offset=".7618" stop-color="#ffda26"/><stop offset="1" stop-color="#ffe026"/></linearGradient><linearGradient id="SVGID_1_" gradientUnits="userSpaceOnUse" x1="255.94" x2="273.872" xlink:href="#lg1" y1="47.68" y2="16.621"/><linearGradient id="SVGID_2_" gradientUnits="userSpaceOnUse" x1="357.881" x2="387.08" xlink:href="#lg1" y1="48.758" y2="-1.816"/><linearGradient id="SVGID_3_" gradientUnits="userSpaceOnUse" x1="373.661" x2="404.335" xlink:href="#lg1" y1="205.649" y2="152.52"/><linearGradient id="SVGID_4_" gradientUnits="userSpaceOnUse" x1="349.625" x2="369.381" xlink:href="#lg1" y1="340.502" y2="306.282"/><linearGradient id="SVGID_5_" gradientUnits="userSpaceOnUse" x1="323.837" x2="232.853" xlink:href="#lg1" y1="210.553" y2="368.143"/><linearGradient id="SVGID_6_" gradientUnits="userSpaceOnUse" x1="206.174" x2="293.144" xlink:href="#lg1" y1="276.68" y2="126.044"/><linearGradient id="SVGID_7_" gradientUnits="userSpaceOnUse" x1="141.607" x2="161.364" xlink:href="#lg1" y1="183.244" y2="149.025"/><linearGradient id="SVGID_8_" gradientUnits="userSpaceOnUse" x1="79.48" x2="110.154" xlink:href="#lg1" y1="375.494" y2="322.365"/><linearGradient id="SVGID_9_" gradientUnits="userSpaceOnUse" x1="149.864" x2="179.063" xlink:href="#lg1" y1="446.213" y2="395.639"/><linearGradient id="SVGID_10_" gradientUnits="userSpaceOnUse" x1="255.94" x2="273.872" xlink:href="#lg1" y1="439.921" y2="408.862"/><linearGradient id="SVGID_11_" gradientUnits="userSpaceOnUse" x1="267.826" x2="267.826" xlink:href="#lg1" y1="593.834" y2="-25.408"/><linearGradient id="SVGID_12_" gradientUnits="userSpaceOnUse" x1="267.825" x2="267.825" xlink:href="#lg1" y1="593.834" y2="-25.408"/><linearGradient id="SVGID_13_" gradientUnits="userSpaceOnUse" x1="163.817" x2="163.817" xlink:href="#lg1" y1="593.834" y2="-25.408"/><linearGradient id="SVGID_14_" gradientUnits="userSpaceOnUse" x1="371.835" x2="371.835" xlink:href="#lg1" y1="751.092" y2="131.85"/><linearGradient id="SVGID_15_" gradientUnits="userSpaceOnUse" x1="120.735" x2="120.735" xlink:href="#lg1" y1="593.834" y2="-25.407"/><linearGradient id="SVGID_16_" gradientUnits="userSpaceOnUse" x1="163.817" x2="163.817" xlink:href="#lg1" y1="593.834" y2="-25.407"/><linearGradient id="SVGID_18_" gradientUnits="userSpaceOnUse" x1="371.834" x2="371.834" xlink:href="#lg1" y1="593.834" y2="-25.407"/><linearGradient id="SVGID_19_" gradientUnits="userSpaceOnUse" x1="414.916" x2="414.916" xlink:href="#lg1" y1="593.833" y2="-25.408"/><g><path d="m257.185 115.68 21.562-97.795-24.426-14.09c-2.777-1.379-6.303-1.137-10.147 1.082-8.946 5.165-16.198 19.021-16.198 30.949v53.117c0 6.394 2.096 10.911 5.407 12.954z" fill="url(#SVGID_1_)"/><path d="m372.999 1.177c-6.361-3.855-16.091 2.037-22.185 13.679l-28.169 53.823c-6.326 12.087-6.326 25.761 0 30.544.2.151 24.552 14.26 24.552 14.26l49.306-98.763z" fill="url(#SVGID_2_)"/><path d="m421.753 130.285c-2.838-1.628-6.526-1.486-10.569.848l-39.838 23.001c-8.946 5.165-16.198 19.021-16.198 30.949 0 6.682 2.278 11.338 5.852 13.236l23.339 13.494 61.044-67.892z" fill="url(#SVGID_3_)"/><path d="m367.988 308.151-22.988-13.285.004.04c-6.357-4.073-16.21 1.82-22.36 13.57-6.326 12.086-6.326 25.761 0 30.543l28.169 21.296c.371.28.757.516 1.153.724l23.474 13.578z" fill="url(#SVGID_4_)"/><path d="m291.44 180.889-.009.02c5.776 8.459 9.153 20.569 9.153 35.676 0 41.474-25.305 89.824-56.41 107.782-8.439 4.872-16.446 7.003-23.639 6.707l-.001.002s66.979 125.67 115.639-101.058c-2.429-67.517-44.733-49.129-44.733-49.129z" fill="url(#SVGID_5_)"/><path d="m194.1 352.909c-3.587-24.043 1.696-103.623 39.259-160.616 37.564-56.993 93.54-51.919 93.54-51.919s-24.995-14.45-24.995-14.45c-15.536-8.792-35.708-7.893-57.731 4.822-48.968 28.271-88.806 104.391-88.806 169.68 0 36.749 12.621 62.355 32.388 72.678l23.264 13.46s-13.528-10.926-16.919-33.655z" fill="url(#SVGID_6_)"/><path d="m159.971 150.893-22.988-13.285.004.04c-6.357-4.073-16.21 1.82-22.36 13.57-6.326 12.086-6.326 25.761 0 30.544l28.169 21.296c.371.28.757.516 1.153.724l23.474 13.578z" fill="url(#SVGID_7_)"/><path d="m127.572 300.131c-2.838-1.628-6.526-1.486-10.569.848l-39.838 23c-8.946 5.165-16.198 19.021-16.198 30.949 0 6.682 2.278 11.338 5.852 13.236l23.339 13.494 61.044-67.892z" fill="url(#SVGID_8_)"/><path d="m164.981 398.632c-6.361-3.855-16.091 2.037-22.185 13.68l-28.169 53.823c-6.326 12.087-6.326 25.761 0 30.544.2.151 24.552 14.26 24.552 14.26l49.306-98.763z" fill="url(#SVGID_9_)"/><path d="m257.185 507.922 21.562-97.795-24.426-14.09c-2.777-1.379-6.303-1.137-10.147 1.082-8.946 5.165-16.198 19.021-16.198 30.949v53.117c0 6.394 2.096 10.911 5.407 12.953z" fill="url(#SVGID_10_)"/><g><path d="m267.826 381.228c-48.968 28.271-88.806-1.846-88.806-67.136s39.839-141.409 88.806-169.681c48.968-28.272 88.806 1.846 88.806 67.136s-39.838 141.409-88.806 169.681zm0-193.622c-31.105 17.958-56.41 66.309-56.41 107.782s25.305 60.603 56.41 42.645c31.104-17.958 56.41-66.309 56.41-107.781 0-41.474-25.306-60.604-56.41-42.646z" fill="url(#SVGID_11_)"/></g><g><path d="m267.826 114.855c-8.946 5.165-16.198-.317-16.198-12.245v-53.118c0-11.928 7.252-25.785 16.198-30.949 8.946-5.165 16.198.317 16.198 12.246v53.117c-.001 11.927-7.253 25.784-16.198 30.949z" fill="url(#SVGID_12_)"/></g><g><path d="m177.902 216.436c-4.146 2.394-8.291 2.678-11.454.287l-28.17-21.296c-6.326-4.782-6.326-18.457 0-30.543 6.326-12.087 16.582-18.008 22.908-13.226l28.17 21.296c6.326 4.782 6.326 18.457 0 30.543-3.163 6.044-7.309 10.545-11.454 12.939z" fill="url(#SVGID_13_)"/></g><g><path d="m385.919 373.693c-4.146 2.394-8.291 2.678-11.454.287l-28.17-21.296c-6.326-4.782-6.326-18.457 0-30.543 6.326-12.087 16.582-18.008 22.908-13.226l28.169 21.296c6.326 4.782 6.326 18.457 0 30.543-3.162 6.044-7.307 10.546-11.453 12.939z" fill="url(#SVGID_14_)"/></g><g><path d="m140.654 357.839-39.838 23.001c-8.946 5.165-16.198-.317-16.198-12.246 0-11.928 7.252-25.784 16.198-30.949l39.838-23c8.946-5.165 16.198.317 16.198 12.245.001 11.928-7.251 25.784-16.198 30.949z" fill="url(#SVGID_15_)"/></g><g><path d="m149.732 510.056c-4.146 2.393-8.291 2.678-11.454.287-6.326-4.782-6.326-18.457 0-30.543l28.17-53.823c6.326-12.087 16.582-18.008 22.908-13.226s6.326 18.457 0 30.543l-28.17 53.823c-3.163 6.043-7.308 10.545-11.454 12.939z" fill="url(#SVGID_16_)"/></g><g><path d="m267.826 507.096c-8.946 5.165-16.198-.317-16.198-12.245v-53.117c0-11.928 7.252-25.784 16.198-30.949s16.198.318 16.198 12.246v53.117c-.001 11.927-7.253 25.783-16.198 30.948z" fill="url(#SVGID_12_)"/></g><g><path d="m357.749 112.601c-4.145 2.393-8.291 2.678-11.454.287-6.326-4.782-6.326-18.457 0-30.543l28.17-53.823c6.326-12.087 16.582-18.008 22.908-13.226s6.326 18.457 0 30.543l-28.169 53.823c-3.163 6.043-7.309 10.546-11.455 12.939z" fill="url(#SVGID_18_)"/></g><g><path d="m434.835 187.994-39.838 23.001c-8.946 5.165-16.198-.317-16.198-12.245s7.252-25.784 16.198-30.95l39.838-23c8.946-5.165 16.198.317 16.198 12.245 0 11.927-7.252 25.784-16.198 30.949z" fill="url(#SVGID_19_)"/></g></g></svg>