<svg id="Capa_1" enable-background="new 0 0 512 512" height="512" viewBox="0 0 512 512" width="512" xmlns="http://www.w3.org/2000/svg" xmlns:xlink="http://www.w3.org/1999/xlink"><linearGradient id="SVGID_1_" gradientUnits="userSpaceOnUse" x1="256" x2="256" y1="471.495" y2="-18.285"><stop offset="0" stop-color="#594a8e"/><stop offset="1" stop-color="#7662bd"/></linearGradient><linearGradient id="SVGID_2_" gradientUnits="userSpaceOnUse" x1="118.442" x2="118.442" y1="510.634" y2="280.905"><stop offset="0" stop-color="#a996eb"/><stop offset="1" stop-color="#d7d1eb"/></linearGradient><linearGradient id="SVGID_3_" gradientUnits="userSpaceOnUse" x1="209.981" x2="233.826" y1="193.896" y2="152.595"><stop offset="0" stop-color="#a996eb"/><stop offset=".116" stop-color="#b3a3ed"/><stop offset=".4948" stop-color="#d0c7f2"/><stop offset=".8029" stop-color="#e2ddf5"/><stop offset="1" stop-color="#e9e5f6"/></linearGradient><linearGradient id="lg1"><stop offset="0" stop-color="#dfdaef"/><stop offset="1" stop-color="#fff"/></linearGradient><linearGradient id="SVGID_4_" gradientUnits="userSpaceOnUse" x1="264.068" x2="264.068" xlink:href="#lg1" y1="301.031" y2="67.524"/><linearGradient id="SVGID_5_" gradientUnits="userSpaceOnUse" x1="306.735" x2="243.361" xlink:href="#lg1" y1="388.111" y2="278.344"/><linearGradient id="SVGID_6_" gradientUnits="userSpaceOnUse" x1="279.331" x2="223.854" xlink:href="#lg1" y1="447.335" y2="351.247"/><g><path d="m286.974 15.851c-15.166-12.948-38.423-8.504-47.748 9.122l-134.063 253.436v213.38c0 6.241 2.242 10.487 5.71 11.976l6.127 3.722 5.375 3.147 208.663-235.961 75.798-156.485z" fill="url(#SVGID_1_)"/><path d="m110.873 503.765 6.127 3.722 5.375 3.147 9.345-10.567-13.692-214.013-12.865-7.645v213.38c0 6.241 2.242 10.487 5.71 11.976z" fill="url(#SVGID_2_)"/><g><path d="m374.773 8.891-12.961-7.711c-2.557-1.674-5.975-1.629-9.731.54l-201.755 116.483c-7.923 4.574-14.345 16.846-14.345 27.409v312.994c0 6.241 2.242 10.487 5.71 11.976l6.127 3.722 5.375 3.147z" fill="url(#SVGID_3_)"/><path d="m364.946 360.612-201.755 116.484c-7.923 4.574-14.345-.281-14.345-10.845v-312.994c0-10.563 6.423-22.835 14.345-27.409l201.755-116.483c7.923-4.574 14.345.281 14.345 10.845v312.994c0 10.563-6.423 22.834-14.345 27.408z" fill="url(#SVGID_4_)"/><g><path d="m273.198 108.12-86.682 49.91c-3.761 2.171-6.809 7.996-6.809 13.01 0 5.014 3.049 7.319 6.809 5.148l86.682-49.91c3.761-2.171 6.809-7.996 6.809-13.01 0-5.015-3.048-7.319-6.809-5.148z" fill="#43386b"/></g><g><path d="m328.867 133.483-142.351 83.317c-3.761 2.171-6.809 7.996-6.809 13.01 0 5.014 3.049 7.319 6.809 5.148l142.351-83.316c3.761-2.171 6.809-7.996 6.809-13.01 0-5.015-3.048-7.32-6.809-5.149z" fill="#43386b"/></g><g><path d="m328.867 185.038-142.351 83.316c-3.761 2.171-6.809 7.996-6.809 13.01 0 5.014 3.049 7.319 6.809 5.148l142.351-83.316c3.761-2.171 6.809-7.996 6.809-13.01 0-5.015-3.048-7.319-6.809-5.148z" fill="#43386b"/></g><g><path d="m328.867 236.592-142.351 83.316c-3.761 2.171-6.809 7.996-6.809 13.01 0 5.014 3.049 7.319 6.809 5.148l142.351-83.316c3.761-2.171 6.809-7.996 6.809-13.01 0-5.015-3.048-7.319-6.809-5.148z" fill="#43386b"/></g></g><path d="m118.028 286.053v213.38c0 10.564 6.423 15.419 14.345 10.845l260.118-151.301c7.923-4.574 14.345-16.845 14.345-27.409v-213.38l-92.319 150.939-104.171 60.548z" fill="url(#SVGID_5_)"/><path d="m132.373 510.278 260.118-151.301c7.923-4.574 14.345-16.845 14.345-27.409l-92.319-62.441-104.171 60.548-92.319 169.759c.001 10.563 6.424 15.419 14.346 10.844z" fill="url(#SVGID_6_)"/></g></svg>