<svg id="Capa_1" enable-background="new 0 0 512 512" height="512" viewBox="0 0 512 512" width="512" xmlns="http://www.w3.org/2000/svg" xmlns:xlink="http://www.w3.org/1999/xlink"><linearGradient id="SVGID_1_" gradientTransform="matrix(.866 -.5 1 .577 -1042.241 -461.529)" gradientUnits="userSpaceOnUse" x1="31.82" x2="31.82" y1="1359.406" y2="1077.195"><stop offset="0" stop-color="#0072bc"/><stop offset="1" stop-color="#2f97f7"/></linearGradient><linearGradient id="SVGID_00000099639323020713143100000005959558734062876575_" gradientUnits="userSpaceOnUse" x1="271.921" x2="281.427" y1="103.238" y2="86.773"><stop offset="0" stop-color="#ab2c37"/><stop offset="1" stop-color="#ff4757"/></linearGradient><linearGradient id="lg1"><stop offset="0" stop-color="#c5baeb"/><stop offset="1" stop-color="#f2effa"/></linearGradient><linearGradient id="SVGID_00000090269088610991608930000014649239120763556252_" gradientUnits="userSpaceOnUse" x1="284.535" x2="294.914" xlink:href="#lg1" y1="111.411" y2="93.435"/><linearGradient id="SVGID_00000163053823922658784770000006843139342804744866_" gradientUnits="userSpaceOnUse" x1="336.106" x2="346.316" y1="144.019" y2="126.335"><stop offset="0" stop-color="#ffc538"/><stop offset="1" stop-color="#f7e041"/></linearGradient><linearGradient id="SVGID_00000111891686261362208180000013477206358332790713_" gradientUnits="userSpaceOnUse" x1="378.177" x2="426.033" y1="163.017" y2="163.017"><stop offset="0" stop-color="#e37a34"/><stop offset="1" stop-color="#ffa538"/></linearGradient><linearGradient id="SVGID_00000022526434668415957660000004706858328248960166_" gradientUnits="userSpaceOnUse" x1="222.145" x2="235.306" y1="396.043" y2="396.043"><stop offset="0" stop-color="#7662bd"/><stop offset="1" stop-color="#c5baeb"/></linearGradient><linearGradient id="SVGID_00000108304801709130369840000010095817972976433086_" gradientUnits="userSpaceOnUse" x1="207.081" x2="47.236" xlink:href="#lg1" y1="359.794" y2="452.081"/><g><path d="m278.491 109.847-276.076 159.392c-3.577 2.065-3.129 5.673 1.002 8.058l216.134 124.785c4.131 2.385 10.38 2.644 13.957.579l276.076-159.393c3.577-2.065 3.129-5.673-1.002-8.058l-216.134-124.785c-4.13-2.385-10.379-2.644-13.957-.578z" fill="url(#SVGID_1_)"/><path d="m304.833 128.428-2.171-1.253-13.114 7.571-16.238-9.375-1.88 1.085 16.238 9.375-28.386 16.389-16.238-9.375-1.88 1.085 16.238 9.375-28.385 16.388-16.238-9.375-1.88 1.085 16.238 9.375-28.386 16.389-16.238-9.375-1.88 1.085 16.238 9.375-28.385 16.388-16.238-9.375-1.88 1.085 16.238 9.375-28.386 16.389-16.238-9.375-1.88 1.085 16.238 9.375-28.385 16.388-16.238-9.375-1.88 1.085 16.238 9.375-28.386 16.389-16.238-9.375-1.88 1.085 16.238 9.375-28.386 16.389-16.238-9.375-1.88 1.085 16.238 9.375-13.112 7.57 2.171 1.253 13.112-7.57 32.777 18.927-13.112 7.57 2.171 1.253 13.112-7.57 32.777 18.924-13.112 7.57 2.171 1.253 13.112-7.57 32.777 18.924-13.112 7.57 2.171 1.253 13.112-7.57 32.777 18.924-13.112 7.57 2.171 1.253 13.112-7.57 32.777 18.924-13.112 7.57 2.171 1.253 13.112-7.57 16.238 9.375 1.88-1.085-16.238-9.375 28.386-16.389 16.238 9.375 1.88-1.085-16.238-9.375 28.386-16.389 16.238 9.375 1.88-1.085-16.238-9.375 28.385-16.388 16.238 9.375 1.88-1.085-16.238-9.375 28.386-16.389 16.238 9.375 1.88-1.085-16.238-9.375 28.385-16.388 16.238 9.375 1.88-1.085-16.238-9.375 28.386-16.389 16.238 9.375 1.88-1.085-16.238-9.375 28.386-16.388 16.238 9.375 1.88-1.085-16.238-9.375 28.386-16.389 16.238 9.375 1.88-1.085-16.238-9.375 13.114-7.571-2.171-1.253-13.114 7.571-32.777-18.924 13.114-7.571-2.171-1.253-13.114 7.571-32.777-18.924 13.114-7.571-2.171-1.253-13.114 7.571-32.777-18.924 13.114-7.571-2.171-1.253-13.114 7.571-32.777-18.924 13.114-7.571-2.171-1.253-13.114 7.571-32.778-18.926zm-45.26 26.131 32.777 18.924-28.385 16.388-32.777-18.924zm-49.287 109.164 28.386-16.389 32.777 18.924-28.386 16.389zm30.897 20.01-28.385 16.388-32.777-18.924 28.385-16.388zm-.631-37.484 28.385-16.388 32.777 18.924-28.385 16.388zm30.265-17.473 28.386-16.389 32.777 18.924-28.386 16.389zm-2.171-1.254-32.777-18.924 28.386-16.389 32.777 18.924zm-1.88 1.086-28.385 16.388-32.777-18.924 28.385-16.388zm-30.265 17.473-28.386 16.389-32.777-18.924 28.386-16.389zm-30.266 17.474-28.385 16.388-32.777-18.924 28.385-16.388zm-30.265 17.474-28.386 16.389-32.777-18.924 28.386-16.389zm2.17 1.253 32.777 18.924-28.386 16.389-32.777-18.924zm34.948 20.178 32.777 18.924-28.386 16.389-32.777-18.924zm1.88-1.086 28.385-16.388 32.777 18.924-28.385 16.388zm30.266-17.473 28.386-16.389 32.777 18.924-28.386 16.389zm30.266-17.474 28.385-16.388 32.777 18.924-28.385 16.388zm30.265-17.474 28.386-16.389 32.777 18.924-28.386 16.389zm30.266-17.474 28.385-16.388 32.777 18.924-28.385 16.388zm-2.171-1.253-32.777-18.924 28.385-16.388 32.777 18.924zm-34.948-20.178-32.777-18.924 28.385-16.388 32.777 18.924zm-69.605-38.015 32.777 18.924-28.386 16.389-32.777-18.924zm-30.265 17.474 32.777 18.924-28.385 16.388-32.777-18.924zm-30.266 17.474 32.777 18.924-28.386 16.389-32.777-18.924zm-30.266 17.474 32.777 18.924-28.385 16.388-32.777-18.924zm-30.265 17.473 32.777 18.924-28.386 16.389-32.777-18.924zm-58.652 33.863 28.386-16.389 32.777 18.924-28.386 16.389zm34.948 20.177 28.386-16.389 32.777 18.924-28.386 16.389zm34.948 20.177 28.386-16.389 32.777 18.924-28.386 16.389zm34.948 20.177 28.386-16.389 32.777 18.924-28.386 16.389zm67.724 39.101-32.777-18.924 28.386-16.389 32.777 18.924zm30.266-17.474-32.777-18.924 28.386-16.389 32.777 18.924zm30.266-17.474-32.777-18.924 28.385-16.388 32.777 18.924zm30.265-17.474-32.777-18.924 28.386-16.389 32.777 18.924zm30.266-17.474-32.777-18.924 28.385-16.388 32.777 18.924zm30.266-17.473-32.777-18.924 28.386-16.389 32.777 18.924zm30.265-17.474-32.777-18.924 28.385-16.388 32.777 18.924zm58.652-33.863-28.386 16.389-32.777-18.924 28.386-16.389zm-34.948-20.177-28.386 16.389-32.777-18.924 28.386-16.389zm-34.948-20.177-28.386 16.389-32.777-18.924 28.386-16.389zm-34.948-20.177-28.386 16.389-32.777-18.924 28.386-16.389zm-34.947-20.177-28.386 16.389-32.777-18.924 28.386-16.389z" fill="#2f97f7"/><g><path d="m254.601 320.275-10.785 6.227c-2.255 1.302-6.01 1.45-9.133.361l-16.479-5.75c-.904.202-1.821.388-2.743.559l-3.713 9.864c-.702 1.869-3.594 3.075-7.031 2.932l-16.432-.681c-3.436-.142-6.658-1.601-7.836-3.548l-6.218-10.276c-.974-.249-1.947-.514-2.91-.793l-15.213 4.437c-2.882.84-6.713.378-9.317-1.126l-12.452-7.19c-2.604-1.503-3.406-3.715-1.95-5.379l7.684-8.783c-.483-.556-.942-1.118-1.374-1.68l-17.799-3.59c-3.373-.681-5.899-2.541-6.146-4.525l-1.18-9.487c-.248-1.984 1.842-3.653 5.078-4.059l17.086-2.144c.295-.532.619-1.061.968-1.583l-9.96-9.514c-1.886-1.803-1.629-3.971.626-5.272l10.785-6.227c2.255-1.302 6.011-1.45 9.133-.361l16.477 5.75c.905-.201 1.822-.388 2.743-.559l3.713-9.865c.706-1.869 3.595-3.075 7.031-2.932l16.432.681c3.436.143 6.658 1.601 7.837 3.548l6.218 10.276c.974.249 1.947.514 2.91.793l15.213-4.436c2.881-.84 6.713-.378 9.317 1.126l12.453 7.19c2.604 1.503 3.405 3.715 1.949 5.38l-7.684 8.782c.483.556.943 1.118 1.374 1.68l17.799 3.59c3.373.681 5.899 2.541 6.146 4.525l1.18 9.487c.248 1.984-1.841 3.652-5.079 4.059l-17.086 2.144c-.295.532-.619 1.062-.968 1.584l9.96 9.514c1.888 1.801 1.632 3.969-.624 5.271zm-43.823-1.215c.277-.16.624-.279 1.023-.346 1.648-.275 3.289-.609 4.878-.994.809-.196 1.789-.137 2.632.157l17.8 6.211c.808.282 1.781.244 2.364-.093l10.785-6.227c.584-.337.65-.898.162-1.365l-10.759-10.278c-.51-.487-.611-1.053-.271-1.52.667-.917 1.246-1.864 1.721-2.815.245-.494.911-.85 1.787-.961l18.456-2.316c.836-.104 1.377-.537 1.315-1.051l-1.18-9.487c-.064-.513-.718-.995-1.591-1.171l-19.227-3.878c-.911-.184-1.674-.601-2.045-1.12-.719-1.001-1.541-2.006-2.442-2.987-.46-.5-.499-1.064-.106-1.513l8.301-9.487c.377-.431.169-1.004-.504-1.392l-12.454-7.19c-.674-.389-1.665-.509-2.411-.291-.001 0-.001 0-.001 0l-16.433 4.792c-.778.227-1.755.204-2.62-.061-1.699-.521-3.44-.995-5.174-1.41-.898-.215-1.621-.655-1.939-1.181l-6.718-11.101c-.305-.504-1.139-.882-2.028-.919l-16.432-.681c-.889-.036-1.638.276-1.82.759l-4.012 10.657c-.19.505-.808.89-1.664 1.032-1.645.274-3.286.608-4.877.994-.809.196-1.789.137-2.632-.157l-17.8-6.211c-.809-.282-1.781-.244-2.364.093l-10.785 6.226c-.584.337-.65.898-.162 1.365l10.759 10.277c.509.486.61 1.053.271 1.519-.667.917-1.245 1.865-1.721 2.815-.247.493-.913.85-1.787.961l-18.457 2.316c-.838.105-1.378.537-1.315 1.05l1.18 9.487c.064.513.718.995 1.591 1.171l19.227 3.878c.911.184 1.674.601 2.045 1.12.718 1 1.54 2.006 2.443 2.988.459.5.498 1.063.105 1.512l-8.301 9.487c-.376.431-.169 1.003.505 1.392l12.452 7.19c.674.389 1.665.509 2.412.291l16.433-4.792c.778-.227 1.754-.204 2.62.061 1.702.521 3.443.996 5.175 1.41.898.215 1.621.655 1.939 1.181l6.718 11.101c.305.504 1.139.882 2.028.918l16.432.681c.888.036 1.638-.275 1.82-.759l4.011-10.656c.104-.265.327-.5.642-.682z" fill="#79d3fe"/></g><g><path d="m215.164 303.732c-11.545 6.666-31.784 5.827-45.115-1.87s-14.784-19.382-3.239-26.047c11.545-6.666 31.784-5.827 45.115 1.87s14.784 19.382 3.239 26.047zm-44.013-25.41c-9.472 5.469-8.28 15.055 2.658 21.37 10.937 6.315 27.542 7.003 37.014 1.534s8.28-15.055-2.658-21.37c-10.937-6.315-27.542-7.003-37.014-1.534z" fill="#79d3fe"/></g><g><path d="m260.96 187.159-104.795 60.504-4.342-2.507 104.795-60.504z" fill="#79d3fe"/></g><g><path d="m373.063 251.881-104.796 60.504-4.341-2.507 104.795-60.503z" fill="#79d3fe"/></g><g><path d="m264.614 249.772-61.071 35.259-4.341-2.507 61.07-35.259z" fill="#79d3fe"/></g><g><path d="m316.818 158.669-38.53 22.245c-2.595 1.499-7.13 1.311-10.127-.42-2.997-1.73-3.323-4.348-.727-5.847l38.53-22.245c2.596-1.499 7.13-1.311 10.127.42s3.323 4.349.727 5.847z" fill="#79d3fe"/></g><g><path d="m320.57 176.697-24.793 14.314c-2.596 1.499-7.13 1.311-10.127-.42-2.997-1.73-3.323-4.348-.727-5.847l24.793-14.314c2.595-1.499 7.13-1.311 10.127.42 2.997 1.73 3.322 4.348.727 5.847z" fill="#79d3fe"/></g><g><path d="m322.613 220.046-43.556 25.147c-2.595 1.499-7.13 1.311-10.127-.42-2.997-1.73-3.323-4.348-.727-5.847l43.556-25.147c2.596-1.499 7.13-1.311 10.127.42s3.322 4.348.727 5.847z" fill="#79d3fe"/></g><g><path d="m428.921 223.392-38.53 22.245c-2.596 1.499-7.13 1.311-10.127-.42-2.997-1.73-3.323-4.348-.727-5.847l38.53-22.245c2.596-1.499 7.13-1.311 10.127.42 2.997 1.73 3.322 4.348.727 5.847z" fill="#79d3fe"/></g><g><path d="m430.574 244.077-21.443 12.38c-2.595 1.499-7.13 1.311-10.127-.42-2.997-1.73-3.323-4.348-.727-5.847l21.443-12.38c2.595-1.499 7.13-1.311 10.127.42 2.997 1.73 3.323 4.348.727 5.847z" fill="#79d3fe"/></g><g><path d="m499.859 238.857-273.991 158.189-213.727-123.395 273.991-158.189zm-274.573 153.512 266.471-153.847-205.043-118.383-266.472 153.848z" fill="#79d3fe"/></g><g><path d="m267.22 68.355c-2.302-1.44-5.352-1.367-8.697.565-7.173 4.141-12.987 15.251-12.987 24.814 0 5.418 1.867 9.177 4.789 10.665l43.217 24.507 17.451-35.72z" fill="url(#SVGID_00000099639323020713143100000005959558734062876575_)"/><path d="m288.087 78.134c-2.524-1.579-5.867-1.498-9.535.619-7.863 4.54-14.237 16.719-14.237 27.203 0 5.94 2.046 10.06 5.25 11.691l20.777 11.736c5.343 3.018 12.125.912 14.819-4.602l9.758-19.973c2.475-5.066.576-11.183-4.332-13.958z" fill="url(#SVGID_00000090269088610991608930000014649239120763556252_)"/><path d="m310.488 92.938c-2.33-1.457-5.416-1.383-8.801.572-7.258 4.19-13.141 15.432-13.141 25.109 0 5.482 1.889 9.285 4.846 10.791l88.946 50.317 17.658-36.144z" fill="url(#SVGID_00000163053823922658784770000006843139342804744866_)"/><path d="m422.347 183.372c2.905.202 4.731-3.071 3.033-5.437l-23.154-32.257c-.007-.01-.015-.021-.022-.031-2.363-3.284-6.357-4.033-10.885-1.418-7.258 4.19-13.141 15.432-13.141 25.109 0 7.194 3.253 11.495 7.904 11.508z" fill="url(#SVGID_00000111891686261362208180000013477206358332790713_)"/><path d="m411.106 182.589 11.241.783c2.905.202 4.731-3.071 3.033-5.437l-7.296-10.164-.004.008c-.984-1.616-2.772-2.049-4.822-.866-3.107 1.794-5.627 6.607-5.627 10.751 0 2.811 1.161 4.586 2.877 4.881l-.001.003.018.001c.188.031.381.045.581.04z" fill="#43386b"/></g><g><path d="m284.84 412.197.008.002v-8.708l-209.645-56.042v8.173c-.119 1.428.868 2.962 2.919 4.147l144.062 83.174c3.55 2.049 8.919 2.272 11.994.497l48.602-28.06c1.464-.845 2.134-1.992 2.06-3.183z" fill="url(#SVGID_00000022526434668415957660000004706858328248960166_)"/><path d="m125.863 316.09-48.602 28.06c-3.074 1.775-2.689 4.875.861 6.924l144.062 83.174c3.55 2.049 8.919 2.272 11.994.497l48.602-28.06c3.074-1.775 2.689-4.875-.861-6.924l-144.061-83.174c-3.551-2.049-8.921-2.272-11.995-.497z" fill="url(#SVGID_00000108304801709130369840000010095817972976433086_)"/><path d="m111.528 345.301c4.368-2.522 9.748-2.522 14.116 0l100.75 58.168c4.262 2.461 4.262 8.613 0 11.074-4.368 2.521-9.749 2.521-14.116 0l-100.75-58.168c-4.262-2.461-4.262-8.613 0-11.074z" fill="#e9e5f6"/><path d="m281.918 399.761-144.062-83.174c-3.55-2.049-8.919-2.272-11.993-.497l-17.118 9.883 156.916 90.596 17.118-9.883c3.074-1.775 2.689-4.876-.861-6.925z" fill="#e9e5f6"/><g fill="#43386b"><path d="m261.423 401.134 11.436-6.603 6.33 3.655-11.436 6.603c-1.514.874-4.158.764-5.906-.245-1.748-1.009-1.938-2.536-.424-3.41z"/><path d="m239.377 388.406 11.436-6.603 6.33 3.655-11.436 6.603c-1.514.874-4.158.764-5.906-.245-1.747-1.01-1.937-2.536-.424-3.41z"/><path d="m217.332 375.678 11.436-6.603 6.33 3.655-11.436 6.603c-1.514.874-4.158.764-5.906-.245-1.748-1.01-1.938-2.536-.424-3.41z"/><path d="m195.286 362.95 11.436-6.603 6.33 3.655-11.437 6.603c-1.514.874-4.158.764-5.906-.245-1.747-1.01-1.937-2.536-.423-3.41z"/><path d="m173.24 350.221 11.436-6.603 6.33 3.655-11.436 6.603c-1.514.874-4.158.764-5.906-.245-1.748-1.009-1.938-2.536-.424-3.41z"/><path d="m151.194 337.493 11.436-6.603 6.33 3.655-11.436 6.603c-1.514.874-4.158.764-5.906-.245-1.747-1.009-1.937-2.536-.424-3.41z"/><path d="m129.149 324.765 11.436-6.603 6.33 3.655-11.436 6.603c-1.514.874-4.158.764-5.906-.245-1.748-1.009-1.938-2.536-.424-3.41z"/></g></g></g></svg>