<svg id="Capa_1" enable-background="new 0 0 512 512" height="512" viewBox="0 0 512 512" width="512" xmlns="http://www.w3.org/2000/svg" xmlns:xlink="http://www.w3.org/1999/xlink"><linearGradient id="lg1"><stop offset="0" stop-color="#00395e"/><stop offset=".556" stop-color="#0072bc"/><stop offset=".9916" stop-color="#0197f8"/></linearGradient><linearGradient id="SVGID_1_" gradientUnits="userSpaceOnUse" x1="251.462" x2="237.671" xlink:href="#lg1" y1="406.836" y2="430.723"/><linearGradient id="SVGID_2_" gradientUnits="userSpaceOnUse" x1="381.434" x2="398.392" xlink:href="#lg1" y1="165.487" y2="136.115"/><linearGradient id="SVGID_3_" gradientUnits="userSpaceOnUse" x1="199.662" x2="231.274" xlink:href="#lg1" y1="253.297" y2="198.544"/><linearGradient id="SVGID_4_" gradientUnits="userSpaceOnUse" x1="127.674" x2="170.297" y1="332.832" y2="259.006"><stop offset="0" stop-color="#00395e"/><stop offset=".6623" stop-color="#0197f8"/><stop offset="1" stop-color="#00395e"/></linearGradient><linearGradient id="SVGID_5_" gradientUnits="userSpaceOnUse" x1="221.689" x2="255.795" xlink:href="#lg1" y1="148.345" y2="89.273"/><linearGradient id="SVGID_6_" gradientUnits="userSpaceOnUse" x1="186.43" x2="148.87" xlink:href="#lg1" y1="360.573" y2="425.629"/><linearGradient id="SVGID_7_" gradientUnits="userSpaceOnUse" x1="304.837" x2="329.003" xlink:href="#lg1" y1="105.997" y2="64.141"/><linearGradient id="lg2"><stop offset="0" stop-color="#2f97f7"/><stop offset="1" stop-color="#59acf9"/></linearGradient><linearGradient id="SVGID_8_" gradientUnits="userSpaceOnUse" x1="165.511" x2="408.236" xlink:href="#lg2" y1="260.307" y2="260.307"/><linearGradient id="SVGID_9_" gradientUnits="userSpaceOnUse" x1="339.59" x2="234.157" xlink:href="#lg1" y1="168.999" y2="351.615"/><linearGradient id="SVGID_10_" gradientUnits="userSpaceOnUse" x1="240.059" x2="291.409" xlink:href="#lg1" y1="286.006" y2="197.066"/><linearGradient id="SVGID_11_" gradientUnits="userSpaceOnUse" x1="243.177" x2="330.57" xlink:href="#lg2" y1="260.307" y2="260.307"/><linearGradient id="lg3"><stop offset=".0338" stop-color="#002b47"/><stop offset=".807" stop-color="#003659"/><stop offset="1" stop-color="#00395e"/></linearGradient><linearGradient id="SVGID_12_" gradientUnits="userSpaceOnUse" x1="62.745" x2="62.745" xlink:href="#lg3" y1="450.999" y2="297.534"/><linearGradient id="SVGID_13_" gradientUnits="userSpaceOnUse" x1="449.255" x2="449.255" xlink:href="#lg3" y1="194.462" y2="67.845"/><g><g><path d="m236.891 414.985s-11.993-39.2 15.238-22.491c27.231 16.71 10.225 37.731 10.225 37.731z" fill="url(#SVGID_1_)"/><path d="m401.13 158.281-.015-.01-22.297-12.886s-11.063 8.12-1.161 17.506c9.903 9.386 23.473-4.61 23.473-4.61z" fill="url(#SVGID_2_)"/><g><path d="m364.141 89.876c-.494-.373-63.432-36.701-63.432-36.701v.005c-7.497-3.587-18.379 3.268-25.384 16.375l-25.027-14.456-.001.002c-3.438-2.246-8.032-2.182-13.08.732l-24.181 13.961c-10.656 6.152-19.293 22.656-19.293 36.863v.001c0 12.942-11.735 26.198-18.598 21.01l-.001-.001c-7.535-5.696-19.751 1.357-27.285 15.753l-17.099 32.67c-7.534 14.396-7.534 30.684 0 36.38 6.863 5.189 2.003 23.642-7.704 29.246v.001c-10.655 6.152-19.293 22.656-19.293 36.863v32.242c0 7.763 2.583 13.226 6.66 15.588l-.002.003 22.757 13.148c-.526 2.009-1.321 4.099-2.418 6.196-7.535 14.396-7.535 30.684 0 36.38l80.083 49.397.001-.003c7.504 4.086 153.297-341.655 153.297-341.655z" fill="url(#SVGID_3_)"/><path d="m172.65 362.349 31.123-89.854-72.015-41.578c-1.906 4.516-4.936 8.625-8.701 10.799-10.655 6.152-19.293 22.656-19.293 36.863v32.241c0 7.762 2.583 13.226 6.66 15.588l-.002.003 22.757 13.148z" fill="url(#SVGID_4_)"/><path d="m269.973 163.344c17.329-23.661 42.496-72.274 42.496-72.274l-37.146-21.515-25.026-14.455-.001.002c-3.438-2.246-8.032-2.182-13.08.733l-24.181 13.961c-10.656 6.152-19.293 22.656-19.293 36.863v.001c0 12.21-10.445 24.693-17.39 21.707l60.539 34.978c0-.001 15.754 23.659 33.082-.001z" fill="url(#SVGID_5_)"/><path d="m172.65 362.349-39.471-22.789c-.526 2.009-1.321 4.099-2.418 6.196-7.535 14.397-7.535 30.684 0 36.38l80.083 49.397-10.803-75.036z" fill="url(#SVGID_6_)"/><path d="m364.141 89.876c-.494-.374-63.432-36.701-63.432-36.701v.005c-7.497-3.587-18.379 3.268-25.384 16.375l37.145 21.515s-6.963 27.261 14.389 31.748c21.35 4.488 37.281-32.94 37.282-32.942z" fill="url(#SVGID_7_)"/><path d="m388.943 159.532c-9.707 5.604-14.568-7.236-7.704-20.349v-.001c7.534-14.396 7.534-30.684 0-36.38l-17.098-12.926c-7.534-5.696-19.75 1.357-27.285 15.753l-.001.001c-6.863 13.113-18.598 13.407-18.598.466v-.001c0-14.207-8.638-20.737-19.293-14.585l-24.181 13.961c-10.655 6.152-19.293 22.656-19.293 36.863v.001c0 12.941-11.735 26.198-18.598 21.009-7.535-5.696-19.75 1.357-27.285 15.753l-17.098 32.67c-7.535 14.396-7.535 30.684 0 36.38 6.863 5.189 2.003 23.642-7.704 29.245h-.001c-10.655 6.152-19.293 22.656-19.293 36.863v32.242c0 14.207 8.638 20.737 19.293 14.585 9.706-5.604 14.567 7.237 7.704 20.35-7.534 14.396-7.534 30.684 0 36.38l17.098 12.926c7.535 5.696 19.75-1.357 27.285-15.753v-.001c6.863-13.113 18.598-13.408 18.598-.466v.001c0 14.207 8.638 20.737 19.293 14.585l24.181-13.961c10.655-6.152 19.293-22.656 19.293-36.863v-.001c0-12.941 11.735-26.198 18.598-21.009h.001c7.534 5.696 19.75-1.357 27.285-15.753l17.098-32.67c7.534-14.396 7.534-30.684 0-36.38-6.863-5.188-2.003-23.642 7.704-29.245 10.655-6.152 19.293-22.656 19.293-36.863v-32.242c.001-14.207-8.637-20.737-19.292-14.585z" fill="url(#SVGID_8_)"/><path d="m355.895 220.458c0 50.826-30.902 109.869-69.021 131.878-38.119 22.008-69.021-1.353-69.021-52.179s30.902-109.869 69.021-131.878c38.119-22.008 69.021 1.353 69.021 52.179z" fill="url(#SVGID_9_)"/><path d="m258.248 320.854 56.311-121.607-39.496-22.803c-31.873 25.73-56.264 76.28-57.183 121.104z" fill="url(#SVGID_10_)"/><path d="m330.57 235.079c0 32.177-19.564 69.557-43.696 83.49-24.133 13.933-43.696-.857-43.696-33.034s19.564-69.557 43.696-83.49 43.696.857 43.696 33.034z" fill="url(#SVGID_11_)"/></g></g><g><g><path d="m107.436 472.316c-3.789 0-7.608-1.189-10.863-3.65l-96.573-73.008 91.469-174.769c4.619-8.826 15.52-12.235 24.344-7.616 8.825 4.619 12.236 15.518 7.617 24.344l-77.3 147.694 72.196 54.579c7.946 6.007 9.518 17.319 3.511 25.264-3.546 4.692-8.941 7.161-14.401 7.162z" fill="url(#SVGID_12_)"/></g><g><path d="m404.535 300.788c-2.818 0-5.678-.662-8.348-2.06-8.826-4.619-12.236-15.518-7.617-24.344l77.298-147.695-72.195-54.579c-7.946-6.007-9.517-17.319-3.511-25.265 6.008-7.946 17.318-9.518 25.265-3.511l96.573 73.008-91.47 174.769c-3.222 6.155-9.498 9.677-15.995 9.677z" fill="url(#SVGID_13_)"/></g></g></g></svg>