<svg id="Capa_1" enable-background="new 0 0 512 512" height="512" viewBox="0 0 512 512" width="512" xmlns="http://www.w3.org/2000/svg" xmlns:xlink="http://www.w3.org/1999/xlink"><linearGradient id="lg1"><stop offset="0" stop-color="#7e62c0"/><stop offset=".3627" stop-color="#8d72cd"/><stop offset="1" stop-color="#b096ed"/></linearGradient><linearGradient id="SVGID_1_" gradientUnits="userSpaceOnUse" x1="484.63" x2="511.993" xlink:href="#lg1" y1="221.143" y2="221.143"/><linearGradient id="SVGID_2_" gradientUnits="userSpaceOnUse" x1="26.882" x2="484.63" y1="182.803" y2="182.803"><stop offset="0" stop-color="#00daac"/><stop offset=".0605" stop-color="#09dcb1"/><stop offset=".3404" stop-color="#2fe4c4"/><stop offset=".5994" stop-color="#4aead2"/><stop offset=".8274" stop-color="#5beedb"/><stop offset="1" stop-color="#61efde"/></linearGradient><linearGradient id="SVGID_3_" gradientUnits="userSpaceOnUse" x1="237.467" x2="250.213" y1="165.329" y2="165.329"><stop offset="0" stop-color="#c9baec"/><stop offset=".3855" stop-color="#c9baec"/><stop offset="1" stop-color="#e8e3f3"/></linearGradient><linearGradient id="lg2"><stop offset="0" stop-color="#c9baec"/><stop offset=".5529" stop-color="#e8e3f3"/><stop offset="1" stop-color="#e8e3f3"/></linearGradient><linearGradient id="SVGID_4_" gradientUnits="userSpaceOnUse" x1="277.858" x2="261.386" xlink:href="#lg2" y1="144.994" y2="116.464"/><linearGradient id="lg3"><stop offset="0" stop-color="#c9baec"/><stop offset=".3855" stop-color="#e8e3f3"/><stop offset="1" stop-color="#e8e3f3"/></linearGradient><linearGradient id="SVGID_5_" gradientUnits="userSpaceOnUse" x1="346.642" x2="438.867" xlink:href="#lg3" y1="260.175" y2="161.062"/><linearGradient id="lg4"><stop offset="0" stop-color="#c9baec"/><stop offset="1" stop-color="#e8e3f3"/></linearGradient><linearGradient id="SVGID_6_" gradientUnits="userSpaceOnUse" x1="310.345" x2="350.19" xlink:href="#lg4" y1="259.076" y2="259.076"/><linearGradient id="SVGID_7_" gradientUnits="userSpaceOnUse" x1="299.095" x2="299.095" y1="283.882" y2="219.105"><stop offset="0" stop-color="#c9baec"/><stop offset=".8488" stop-color="#e8e3f3"/></linearGradient><linearGradient id="SVGID_8_" gradientUnits="userSpaceOnUse" x1="131.625" x2="117.367" xlink:href="#lg2" y1="224.859" y2="200.163"/><linearGradient id="SVGID_9_" gradientUnits="userSpaceOnUse" x1="299.257" x2="96.749" xlink:href="#lg3" y1="219.243" y2="257.618"/><linearGradient id="SVGID_10_" gradientUnits="userSpaceOnUse" x1="153.709" x2="277.824" xlink:href="#lg3" y1="373.068" y2="259.886"/><linearGradient id="SVGID_11_" gradientUnits="userSpaceOnUse" x1="326.095" x2="258.634" y1="325.693" y2="350.649"><stop offset="0" stop-color="#c9baec"/><stop offset="1" stop-color="#c9baec" stop-opacity="0"/></linearGradient><linearGradient id="SVGID_12_" gradientUnits="userSpaceOnUse" x1="273.727" x2="297.4" xlink:href="#lg4" y1="297.899" y2="297.899"/><linearGradient id="SVGID_13_" gradientUnits="userSpaceOnUse" x1="411.77" x2="181.95" xlink:href="#lg3" y1="168.965" y2="212.515"/><linearGradient id="SVGID_14_" gradientUnits="userSpaceOnUse" x1="293.916" x2="25.006" xlink:href="#lg3" y1="239.341" y2="290.299"/><linearGradient id="SVGID_15_" gradientUnits="userSpaceOnUse" x1="289.001" x2="314.137" y1="157.685" y2="157.685"><stop offset="0" stop-color="#e2823a"/><stop offset="1" stop-color="#ffc51e"/></linearGradient><linearGradient id="SVGID_16_" gradientUnits="userSpaceOnUse" x1="359.708" x2="384.844" y1="198.4" y2="198.4"><stop offset="0" stop-color="#c62834"/><stop offset="1" stop-color="#ff4557"/></linearGradient><linearGradient id="SVGID_17_" gradientUnits="userSpaceOnUse" x1="354.972" x2="380.107" y1="160.353" y2="160.353"><stop offset="0" stop-color="#0073bf"/><stop offset="1" stop-color="#0097f9"/></linearGradient><linearGradient id="SVGID_18_" gradientUnits="userSpaceOnUse" x1="293.737" x2="318.873" y1="195.697" y2="195.697"><stop offset="0" stop-color="#006568"/><stop offset="1" stop-color="#00878a"/></linearGradient><linearGradient id="SVGID_19_" gradientUnits="userSpaceOnUse" x1="128.576" x2="184.998" y1="243.425" y2="243.425"><stop offset="0" stop-color="#45356d"/><stop offset=".2858" stop-color="#544081"/><stop offset="1" stop-color="#7e62c0"/></linearGradient><linearGradient id="lg5"><stop offset="0" stop-color="#45356d"/><stop offset=".2302" stop-color="#544081"/><stop offset="1" stop-color="#7e62c0"/></linearGradient><linearGradient id="SVGID_20_" gradientUnits="userSpaceOnUse" x1="156.995" x2="184.082" xlink:href="#lg5" y1="278.949" y2="278.949"/><linearGradient id="SVGID_21_" gradientUnits="userSpaceOnUse" x1="208.035" x2="244.119" y1="243.994" y2="243.994"><stop offset="0" stop-color="#45356d"/><stop offset=".3697" stop-color="#544081"/><stop offset="1" stop-color="#7e62c0"/></linearGradient><radialGradient id="SVGID_22_" cx="301.904" cy="144.579" gradientTransform="matrix(.989 .147 -.098 .663 17.48 4.421)" gradientUnits="userSpaceOnUse" r="24.172"><stop offset="0" stop-color="#ffe026"/><stop offset=".6145" stop-color="#ffc51e"/><stop offset="1" stop-color="#ffa627"/></radialGradient><radialGradient id="SVGID_23_" cx="304.089" cy="182.667" gradientTransform="matrix(.989 .147 -.098 .663 21.249 16.93)" gradientUnits="userSpaceOnUse" r="29.436"><stop offset="0" stop-color="#61efde"/><stop offset=".6145" stop-color="#00daac"/><stop offset="1" stop-color="#00878a"/></radialGradient><radialGradient id="SVGID_24_" cx="372.612" cy="185.401" gradientTransform="matrix(.989 .147 -.098 .663 22.259 7.801)" gradientUnits="userSpaceOnUse" r="24.172"><stop offset="0" stop-color="#ff7b86"/><stop offset=".6145" stop-color="#ff4557"/><stop offset="1" stop-color="#c62834"/></radialGradient><radialGradient id="SVGID_25_" cx="367.875" cy="147.313" gradientTransform="matrix(.989 .147 -.098 .663 18.463 -4.334)" gradientUnits="userSpaceOnUse" r="24.172"><stop offset="0" stop-color="#17d3ff"/><stop offset=".6145" stop-color="#00adfb"/><stop offset="1" stop-color="#0097f9"/></radialGradient><linearGradient id="lg6"><stop offset="0" stop-color="#45356d"/><stop offset=".3855" stop-color="#544081"/><stop offset="1" stop-color="#7e62c0"/></linearGradient><linearGradient id="SVGID_26_" gradientUnits="userSpaceOnUse" x1="235.486" x2="137.815" xlink:href="#lg6" y1="294.991" y2="219.592"/><linearGradient id="SVGID_27_" gradientUnits="userSpaceOnUse" x1="222.125" x2="124.454" xlink:href="#lg6" y1="312.298" y2="236.899"/><linearGradient id="SVGID_28_" gradientUnits="userSpaceOnUse" x1="255.427" x2="157.757" xlink:href="#lg6" y1="269.159" y2="193.76"/><linearGradient id="lg7"><stop offset="0" stop-color="#5e4990"/><stop offset=".6145" stop-color="#45356d"/><stop offset="1" stop-color="#322650"/></linearGradient><radialGradient id="SVGID_29_" cx="-4655.933" cy="257.317" gradientTransform="matrix(-1 0 0 .689 -4383.94 79.966)" gradientUnits="userSpaceOnUse" r="30.197" xlink:href="#lg7"/><linearGradient id="lg8"><stop offset="0" stop-color="#322650"/><stop offset=".4827" stop-color="#45356d"/></linearGradient><linearGradient id="SVGID_30_" gradientTransform="matrix(-1 0 0 1 -4383.94 0)" gradientUnits="userSpaceOnUse" x1="-4666.969" x2="-4651.555" xlink:href="#lg8" y1="259.58" y2="246.254"/><radialGradient id="SVGID_31_" cx="-4659.99" cy="238.025" gradientTransform="matrix(-1 0 0 .54 -4383.94 109.587)" gradientUnits="userSpaceOnUse" r="37.061" xlink:href="#lg7"/><radialGradient id="SVGID_32_" cx="-4717.002" cy="221.988" gradientTransform="matrix(-1 0 0 .689 -4383.94 68.987)" gradientUnits="userSpaceOnUse" r="30.197" xlink:href="#lg7"/><linearGradient id="SVGID_33_" gradientTransform="matrix(-1 0 0 1 -4383.94 0)" gradientUnits="userSpaceOnUse" x1="-4728.038" x2="-4712.624" xlink:href="#lg8" y1="224.251" y2="210.925"/><radialGradient id="SVGID_34_" cx="-4721.058" cy="202.695" gradientTransform="matrix(-1 0 0 .54 -4383.94 93.321)" gradientUnits="userSpaceOnUse" r="37.061" xlink:href="#lg7"/><linearGradient id="SVGID_35_" gradientUnits="userSpaceOnUse" x1="214.414" x2="249.883" xlink:href="#lg5" y1="276.007" y2="276.007"/><linearGradient id="SVGID_36_" gradientUnits="userSpaceOnUse" x1="242.066" x2="144.396" xlink:href="#lg6" y1="286.466" y2="211.067"/><linearGradient id="SVGID_37_" gradientUnits="userSpaceOnUse" x1="-16.157" x2="190.005" xlink:href="#lg1" y1="340.567" y2="340.567"/><g><path d="m407.424 56.357c-61.117-23.66-253.303-16.923-308.3 25.383-54.997 42.305-78.793 87.251-80.909 112.636-1.664 19.965 32.65 52.681 47.38 65.743l26.06 18.136c3.738-2.433 7.6-4.816 11.606-7.129 51.82-29.918 120.878-47.077 189.467-47.077 55.724 0 106.162 11.402 142.023 32.106 19.024 10.984 40.977 29.27 46.168 58.038 1.428 7.917 7.338 14.267 15.215 15.902l.7.145c7.952 1.651 15.353-4.548 15.149-12.626.001.001.009.01.009.01v-172.383c.001 0-43.452-65.225-104.568-88.884z" fill="#45356d"/><path d="m484.629 322.726c2.767 3.699 6.777 6.387 11.506 7.369l.7.145c7.952 1.651 15.353-4.548 15.149-12.626.001.001.009.01.009.01v-172.383s-10.084-15.133-27.364-33.463z" fill="url(#SVGID_1_)"/><path d="m477.29 104.251c-.051.244-.078.497-.078.757v52.281c-8.012-15.163-21.589-28.333-40.604-39.312-.465-.268-.943-.529-1.413-.794v-45.491c0-.527-.113-1.026-.311-1.48-1.204-.748-2.421-1.481-3.646-2.204-1.931.13-3.461 1.721-3.461 3.684v41.528c-14.504-7.329-30.969-13.303-48.902-17.812v-46.49c-2.38-.424-4.843-.821-7.356-1.201-.034.202-.062.406-.062.618v45.305c-18.693-4.19-38.842-6.834-59.917-7.821v-42.815c-2.457-.054-4.928-.098-7.418-.125v42.659c-3.772-.106-7.569-.164-11.392-.164-14.919 0-29.86.81-44.648 2.376v-43.241c-2.475.169-4.949.349-7.418.544v43.545c-17.886 2.21-35.494 5.54-52.514 9.892v-45.01c0-.732-.219-1.411-.586-1.986-2.269.384-4.514.784-6.743 1.194-.056.256-.089.519-.089.792v46.983c-17.102 4.724-33.544 10.495-48.989 17.239v-46.01c0-2.048-1.66-3.709-3.709-3.709s-3.709 1.661-3.709 3.709v49.366c-7.941 3.707-15.604 7.668-22.916 11.89-5.926 3.421-11.563 6.987-16.906 10.664v-28.79c0-2.048-1.66-3.709-3.709-3.709s-3.709 1.661-3.709 3.709v34.121c-10.521 7.887-19.65 16.224-27.132 24.798v-27.048c0-2.048-1.66-3.709-3.709-3.709s-3.709 1.661-3.709 3.709v36.365c-8.429 11.71-13.664 23.415-15.651 34.932 1.971 2.988 4.189 5.997 6.553 8.977.275-9.83 3.308-19.948 9.098-30.212v35.6c-.708.984-1.39 1.968-2.055 2.952 3.131 3.508 6.345 6.891 9.473 10.043v-10.557c7.029-9.349 16.188-18.515 27.132-27.198v39.942c-4.741 3.554-9.198 7.199-13.351 10.916.647.582 1.275 1.145 1.863 1.666l4.186 2.913c2.347-2.067 4.758-4.12 7.302-6.139v11.221l7.418 5.162v-22c6.387-4.616 13.273-9.07 20.615-13.309 6.163-3.558 12.58-6.929 19.207-10.115v32.263c2.443-1.157 4.919-2.285 7.418-3.391v-32.315c15.393-6.91 31.836-12.834 48.989-17.67v32.53c2.458-.686 4.933-1.346 7.418-1.987v-32.546c16.992-4.432 34.606-7.815 52.514-10.065v32.632c2.468-.308 4.94-.597 7.418-.862v-32.643c14.779-1.592 29.724-2.412 44.648-2.412 3.825 0 7.621.06 11.392.167v32.66c2.486.07 4.958.166 7.418.282v-32.659c21.144 1.007 41.301 3.714 59.917 7.997v32.567c2.501.568 4.972 1.168 7.418 1.792v-32.553c18.086 4.676 34.563 10.898 48.902 18.53v32.171c2.382 1.234 4.708 2.505 6.976 3.814.147.085.295.174.443.26v-32.034c23.93 14.415 38.074 32.506 42.017 53.823v22.961c1.611 4.084 2.877 8.42 3.709 13.029.145.805 1.075 3.757 1.078 3.756.666 1.72 1.548 3.328 2.632 4.777v-210.949c-2.322-2.461-4.77-4.978-7.342-7.526zm-400.206 93.99c-10.521 7.887-19.65 16.224-27.132 24.798v-37.542c7.029-9.349 16.188-18.515 27.132-27.198zm47.24 21.412c-7.941 3.707-15.604 7.668-22.916 11.89-5.926 3.421-11.563 6.986-16.906 10.663v-40.228c6.388-4.616 13.273-9.07 20.615-13.309 6.163-3.558 12.58-6.929 19.207-10.115zm0-49.297c-7.941 3.707-15.604 7.668-22.916 11.89-5.926 3.421-11.563 6.987-16.906 10.664v-40.228c6.388-4.616 13.273-9.07 20.615-13.309 6.163-3.558 12.58-6.93 19.207-10.115zm56.407 28.702c-17.102 4.724-33.544 10.495-48.989 17.239v-41.185c15.393-6.91 31.836-12.834 48.989-17.67zm0-49.298c-17.102 4.724-33.544 10.495-48.989 17.239v-41.185c15.393-6.91 31.836-12.834 48.989-17.67zm59.933 37.434c-17.886 2.21-35.494 5.54-52.514 9.892v-41.648c16.992-4.432 34.606-7.815 52.514-10.065zm0-49.297c-17.886 2.21-35.494 5.539-52.514 9.892v-41.649c16.992-4.432 34.606-7.815 52.514-10.065zm63.458 46.236c-3.772-.106-7.569-.164-11.392-.164-14.919 0-29.86.81-44.648 2.376v-41.844c14.779-1.592 29.724-2.412 44.648-2.412 3.825 0 7.621.06 11.392.167zm0-49.298c-3.772-.106-7.569-.164-11.392-.164-14.919 0-29.86.81-44.648 2.376v-41.843c14.779-1.591 29.724-2.412 44.648-2.412 3.825 0 7.621.06 11.392.167zm67.335 57.4c-18.693-4.19-38.842-6.834-59.917-7.821v-41.874c21.144 1.007 41.301 3.714 59.917 7.997zm0-49.298c-18.693-4.19-38.842-6.834-59.917-7.821v-41.873c21.144 1.007 41.301 3.714 59.917 7.997zm56.32 68.878c-14.504-7.329-30.969-13.303-48.902-17.812v-41.661c18.086 4.676 34.563 10.898 48.902 18.53zm0-49.298c-14.504-7.328-30.969-13.303-48.902-17.812v-41.661c18.086 4.676 34.563 10.898 48.902 18.53zm49.434 93.366c-8.012-15.163-21.589-28.333-40.604-39.312-.465-.268-.943-.529-1.413-.794v-40.695c23.93 14.415 38.074 32.505 42.017 53.823zm0-49.297c-8.012-15.163-21.589-28.333-40.604-39.311-.465-.268-.943-.529-1.413-.794v-40.695c23.931 14.415 38.074 32.506 42.017 53.823z" fill="url(#SVGID_2_)" opacity=".2"/><g><path d="m250.213 143.096-12.746 3.114v40.82c9.4 6.211 12.746-43.934 12.746-43.934z" fill="url(#SVGID_3_)"/><path d="m268.523 123.678-26.32 15.196c-7.046 4.068-6.162 11.174 1.974 15.871l18.212 10.515 51.836-29.928-18.212-10.514c-8.136-4.698-20.444-5.208-27.49-1.14z" fill="url(#SVGID_4_)"/><path d="m105.956 226.382-12.746 3.114v40.82c-.009.154-.002.309 0 .464v.225l.009-.001c.144 3.027 2.396 6.185 6.701 8.671z" fill="#c9baec"/><path d="m461.771 252.712c-16.985-29.37-41.571-82.419-41.571-82.419l-177.581 5.334.026 10.04c-.012 7.145 2.559 14.483 7.649 21.517-15.603 18.888 44.903 61.89 56.837 64.898-.792 4.31 1.216 8.958 5.89 13.012v.005l.005-.001c1.392 1.206 3.009 2.362 4.872 3.438 10.934 6.313 26.49 7.96 38.031 4.612 18.082 13.075 49.856 28.059 70.005 35.018 42.914 14.821 72.084-12.777 35.837-75.454z" fill="url(#SVGID_5_)"/><path d="m360.456 264.107 4.399-9.245c3.591-7.547 5.454-15.8 5.454-24.157l-63.177-7.394v8.689 43.77c.553 3.184 2.528 6.408 5.89 9.323v.005l.005-.001c1.392 1.206 3.009 2.362 4.872 3.438 10.934 6.313 26.49 7.96 38.031 4.612-.002-.001-.694-17.356 4.526-29.04z" fill="url(#SVGID_6_)"/><path d="m311.977 244.052-25.764 3.13 4.373 49.755 21.383-12.815.004-40.067z" fill="url(#SVGID_7_)"/><path d="m124.266 206.965-26.32 15.196c-7.046 4.068-6.162 11.174 1.974 15.871l18.212 10.515 51.836-29.928-18.212-10.515c-8.136-4.697-20.444-5.207-27.49-1.139z" fill="url(#SVGID_8_)"/><path d="m307.131 232c-11.934-3.008-23.328-7.407-33.35-13.193-20.877-12.054-31.421-27.531-31.136-42.142l-.026.009-90.935 52.501 93.031 53.711 67.262-38.834c-3.924-3.818-5.576-8.078-4.846-12.052z" fill="url(#SVGID_9_)"/><path d="m98.363 251.518v7.781l.026.002v.002l-.026-.002v41.284l.026.012c-.003 7.934 3.165 16.104 9.451 23.831h-.006s46.25 70.306 94.9 107.793c49.376 38.047 91.235 3.761 83.372-46.727-3.251-20.878-10.866-55.896-10.866-55.896 9.667 1.217 19.545-.059 26.379-4.005 5.352-3.09 7.889-7.258 7.725-11.602v-40.839l.009.001v-7.396z" fill="url(#SVGID_10_)"/><path d="m220.91 276.775s36.72 109.921 55.817 155.011c8.439-11.392 12.266-27.745 9.377-46.292-3.251-20.878-10.866-55.896-10.866-55.896s-7.698-20.603 0-48.771z" fill="url(#SVGID_11_)"/><path d="m301.618 325.593c5.352-3.09 7.889-7.258 7.725-11.602v-40.839l.009.001v-7.396s-31.605 5.888-34.114 15.069c-7.698 28.169 0 48.771 0 48.771 9.669 1.218 19.546-.058 26.38-4.004z" fill="url(#SVGID_12_)"/><g><path d="m391.919 141.91c-37.67-21.749-94.653-24.111-127.276-5.276s-28.532 51.734 9.138 73.483c10.022 5.786 21.417 10.186 33.35 13.193-1.027 5.594 2.641 11.762 10.767 16.454 13.229 7.638 33.241 8.467 44.698 1.853 6.927-3.999 9.133-9.804 6.876-15.458 11.766-2.01 22.602-5.58 31.585-10.766 32.623-18.835 28.532-51.735-9.138-73.483z" fill="url(#SVGID_13_)"/><path d="m298.409 251.015c-7.892-4.556-18.19-6.669-27.654-6.245-5.213-7.006-12.917-13.699-23.093-19.574-37.67-21.749-94.653-24.111-127.276-5.276s-28.532 51.734 9.138 73.483 94.653 24.111 127.276 5.276c8.813-5.088 14.923-11.208 18.439-17.853 9.667 1.217 19.545-.059 26.379-4.005 11.457-6.614 10.02-18.168-3.209-25.806z" fill="url(#SVGID_14_)"/></g><path d="m320.514 150.245-46.034-3.766v7.311l.022.002c.044 3.657 2.714 7.501 7.926 10.511 9.61 5.548 24.146 6.151 32.468 1.346 3.801-2.194 5.626-5.139 5.596-8.217l.022.002z" fill="url(#SVGID_15_)"/><path d="m391.221 190.96-46.034-3.766v7.311l.022.002c.044 3.657 2.714 7.501 7.926 10.511 9.61 5.548 24.146 6.151 32.468 1.346 3.801-2.194 5.626-5.139 5.595-8.217l.022.002v-7.189z" fill="url(#SVGID_16_)"/><path d="m386.484 152.912-46.034-3.766v7.311l.022.002c.044 3.657 2.714 7.501 7.926 10.511 9.61 5.548 24.146 6.151 32.468 1.346 3.801-2.194 5.626-5.139 5.596-8.217l.022.002z" fill="url(#SVGID_17_)"/><path d="m325.25 188.256-46.034-3.766v7.311l.022.002c.044 3.657 2.714 7.501 7.926 10.511 9.61 5.548 24.146 6.151 32.468 1.346 3.801-2.194 5.626-5.139 5.596-8.217l.022.002z" fill="url(#SVGID_18_)"/><path d="m180.267 245.747-51.453-13.391v7.282l.013.003c.014.679.499 1.391 1.467 1.949l19.069 11.01c.861.497 1.984.803 3.121.85l25.012 1.037c1.535.064 2.699-.558 2.753-1.412l.017.005v-7.333z" fill="url(#SVGID_19_)"/><path d="m183.582 272.38-50.513-5.839v7.394l.015.002c.038.663.527 1.352 1.469 1.896l25.404 14.667c1.794 1.036 4.508 1.148 6.061.251l16.515-9.535c.667-.385 1.016-.917 1.028-1.494l.021.002z" fill="url(#SVGID_20_)"/><path d="m244.117 237.374-50.511-5.793v7.408l.014.002c.002.031-.008.06-.004.09l1.796 14.441c.118.949 1.546 1.774 3.19 1.842l25.012 1.037c1.137.047 2.194-.168 2.94-.599l16.515-9.535c.704-.406 1.03-.952 1.03-1.521l.018.002z" fill="url(#SVGID_21_)"/><path d="m312.565 139.591c-9.61-5.548-24.146-6.151-32.468-1.346s-7.278 13.197 2.331 18.746c9.61 5.548 24.146 6.151 32.468 1.346 8.322-4.806 7.278-13.198-2.331-18.746z" fill="url(#SVGID_22_)"/><path d="m317.301 177.679c-9.61-5.548-24.146-6.151-32.468-1.346s-7.279 13.197 2.331 18.746c9.61 5.548 24.146 6.151 32.468 1.346 8.323-4.805 7.279-13.198-2.331-18.746z" fill="url(#SVGID_23_)"/><path d="m383.272 180.413c-9.609-5.548-24.146-6.151-32.468-1.346s-7.279 13.197 2.331 18.745 24.146 6.151 32.468 1.346c8.323-4.804 7.279-13.196-2.331-18.745z" fill="url(#SVGID_24_)"/><path d="m378.536 142.325c-9.61-5.548-24.146-6.151-32.468-1.346s-7.279 13.198 2.331 18.746 24.146 6.151 32.468 1.346 7.278-13.198-2.331-18.746z" fill="url(#SVGID_25_)"/><path d="m180.26 245.582-1.796-14.441c-.082-.656-.611-1.304-1.473-1.802l-19.07-11.01c-1.794-1.036-4.508-1.148-6.061-.251l-22.001 12.702c-1.554.897-1.359 2.464.435 3.499l19.069 11.01c.861.497 1.984.803 3.121.85l25.012 1.037c1.645.069 2.882-.645 2.764-1.594z" fill="url(#SVGID_26_)"/><path d="m178.585 255.925-25.012-1.037c-1.137-.047-2.195.168-2.941.599l-16.515 9.535c-1.554.897-1.359 2.464.435 3.499l25.404 14.667c1.794 1.036 4.508 1.148 6.061.251l16.515-9.535c.746-.431 1.119-1.041 1.038-1.698l-1.796-14.441c-.117-.947-1.545-1.772-3.189-1.84z" fill="url(#SVGID_27_)"/><path d="m198.602 248.052 25.012 1.037c1.137.047 2.194-.168 2.94-.599l16.515-9.535c1.554-.897 1.359-2.464-.435-3.499l-25.404-14.667c-1.794-1.036-4.508-1.148-6.061-.251l-16.515 9.535c-.746.431-1.119 1.041-1.038 1.698l1.796 14.441c.118.947 1.546 1.772 3.19 1.84z" fill="url(#SVGID_28_)"/><g><path d="m288.694 230.704-12.858 7.424 7.771 4.487 12.859-7.424z" fill="#5e4990"/></g><path d="m261.552 272.274c-10.217-5.899-11.327-14.822-2.479-19.931 8.849-5.109 24.304-4.468 34.522 1.431 10.217 5.899 11.327 14.822 2.479 19.931-8.849 5.108-24.305 4.468-34.522-1.431z" fill="url(#SVGID_29_)"/><path d="m268.933 250.227 17.28 1.437v6.306h-.001c-.037 1.111-.73 2.168-2.107 2.963-3.124 1.804-8.582 1.578-12.189-.505-1.969-1.137-2.977-2.591-2.982-3.971z" fill="url(#SVGID_30_)"/><path d="m263.414 254.257c-9.03-5.213-10.011-13.1-2.19-17.615 7.82-4.515 21.48-3.949 30.51 1.265 9.03 5.213 10.011 13.1 2.19 17.615-7.82 4.514-21.48 3.948-30.51-1.265z" fill="url(#SVGID_31_)"/><path d="m322.621 236.945c-10.217-5.899-11.327-14.822-2.479-19.931s24.304-4.468 34.522 1.431c10.217 5.899 11.327 14.822 2.478 19.931-8.848 5.108-24.304 4.468-34.521-1.431z" fill="url(#SVGID_32_)"/><path d="m330.001 214.898 17.28 1.437v6.306h-.001c-.037 1.111-.73 2.168-2.107 2.963-3.124 1.804-8.581 1.578-12.189-.505-1.969-1.137-2.977-2.591-2.982-3.971z" fill="url(#SVGID_33_)"/><path d="m324.482 218.928c-9.03-5.214-10.011-13.1-2.191-17.615s21.48-3.949 30.51 1.265c9.03 5.213 10.011 13.1 2.19 17.615-7.819 4.514-21.479 3.948-30.509-1.265z" fill="url(#SVGID_34_)"/><path d="m248.376 271.782-51.457-13.583v7.384l.014.004c0 .04-.011.078-.006.12l1.796 14.441c.082.656.611 1.305 1.473 1.802l19.07 11.01c1.794 1.036 4.508 1.148 6.061.251l22.001-12.702c.698-.403 1.025-.944 1.03-1.508z" fill="url(#SVGID_35_)"/><path d="m196.927 258.395 1.796 14.441c.082.656.611 1.304 1.473 1.802l19.069 11.01c1.794 1.036 4.508 1.148 6.061.251l22.001-12.702c1.554-.897 1.359-2.464-.435-3.499l-19.069-11.01c-.862-.497-1.984-.803-3.121-.85l-25.012-1.037c-1.644-.069-2.881.645-2.763 1.594z" fill="url(#SVGID_36_)"/></g><path d="m232.577 478.606.006.001v-171.772c-135.574 14.627-232.583-115.719-232.583-115.719v173.54l.028.038c.523 33.465 21.069 65.35 62.468 89.251 42.451 24.509 99.441 36.361 159.015 36.067 6.6-.032 11.231-5.534 11.066-11.406z" fill="url(#SVGID_37_)"/><path d="m230.89 300.675c-4.784-7.642-13.156-12.3-22.173-12.283-25.529.047-81.18-3.55-131.385-32.536-21.742-12.553-47.659-33.996-47.659-64.866 0-14.343 5.562-29.188 16.53-44.121 12.677-17.259 32.408-33.905 57.059-48.137 51.82-29.918 120.878-47.077 189.467-47.077 55.724 0 106.162 11.402 142.023 32.106 19.024 10.984 40.977 29.27 46.168 58.038 1.429 7.917 7.338 14.267 15.215 15.902l.7.145c8.03 1.667 15.508-4.666 15.153-12.859-1.417-32.614-21.961-63.577-62.399-86.924-92.572-53.445-254.27-46.743-361.163 14.972s-118.502 155.071-25.93 208.517c42.451 24.509 99.441 36.362 159.015 36.066 8.694-.042 13.992-9.574 9.379-16.943z" fill="#eae5f6"/></g></svg>