<svg id="Capa_1" enable-background="new 0 0 512 512" height="512" viewBox="0 0 512 512" width="512" xmlns="http://www.w3.org/2000/svg" xmlns:xlink="http://www.w3.org/1999/xlink"><linearGradient id="SVGID_1_" gradientUnits="userSpaceOnUse" x1="159.189" x2="316.469" y1="278.35" y2="5.933"><stop offset="0" stop-color="#b096ed"/><stop offset=".0408" stop-color="#b49ced"/><stop offset=".2295" stop-color="#c3b2ec"/><stop offset=".3505" stop-color="#c9baec"/><stop offset=".9089" stop-color="#d9d1ec"/></linearGradient><linearGradient id="SVGID_2_" gradientTransform="matrix(.866 -.5 0 1.155 -308.912 -1092.597)" gradientUnits="userSpaceOnUse" x1="672.272" x2="672.272" y1="1771.204" y2="1324.063"><stop offset="0" stop-color="#b096ed"/><stop offset=".0014" stop-color="#b096ed"/><stop offset=".299" stop-color="#cdbcf3"/><stop offset=".5742" stop-color="#e2d7f7"/><stop offset=".8165" stop-color="#efe8f9"/><stop offset="1" stop-color="#f3eefa"/></linearGradient><linearGradient id="SVGID_3_" gradientUnits="userSpaceOnUse" x1="294.092" x2="325.638" y1="253.411" y2="198.772"><stop offset="0" stop-color="#c62834"/><stop offset="1" stop-color="#ff4557"/></linearGradient><linearGradient id="SVGID_4_" gradientUnits="userSpaceOnUse" x1="338.407" x2="338.407" y1="489.456" y2="200.595"><stop offset="0" stop-color="#ff4557"/><stop offset="1" stop-color="#ff7b86"/></linearGradient><g><g><g><path d="m379.308 45.038-60.101-34.583c-28.65-15.973-65.758-14.211-106.329 9.212-90.675 52.352-164.181 192.799-164.181 313.7 0 68.431 23.563 115.908 60.447 134.755l57.676 33.383z" fill="url(#SVGID_1_)"/><path d="m437.457 178.599c0-120.9-73.507-176.47-164.182-124.118s-164.181 192.798-164.181 313.698 73.507 176.47 164.182 124.118 164.181-192.798 164.181-313.698z" fill="url(#SVGID_2_)"/></g><g><path d="m409.649 222.905.008-.011-53.232-30.899c-.921-.531-1.933-.923-3.048-1.138l-117.324-22.579c-12.827-2.469-28.862 19.132-28.862 38.881v180.632c0 7.91 2.576 13.138 6.483 15.464l53.185 30.875c5.848 3.604 14.759.608 22.505-9.828l117.325-158.052c11.748-15.825 12.729-37.85 2.96-43.345z" fill="url(#SVGID_3_)"/><path d="m289.365 199.235 117.324 22.579c12.827 2.469 12.827 27.155 0 44.436l-117.324 158.053c-12.827 17.281-28.862 14.195-28.862-5.554v-180.632c.001-19.749 16.035-41.35 28.862-38.882z" fill="url(#SVGID_4_)"/></g></g><path d="m476.725 183.092 17.052 1.67c4.327.421 8.163-2.735 8.586-7.054.423-4.318-2.735-8.163-7.053-8.585l-42.089-4.123c-.138-.018-.277-.03-.415-.04l-9.725-.953 4.754 37.869c.499 3.974 3.883 6.879 7.786 6.879.326 0 .656-.02.988-.062 4.305-.541 7.358-4.469 6.817-8.774l-1.128-8.988c19.833 18.354 29.705 39.838 28.713 62.925-1.564 36.411-30.689 73.591-79.906 102.007-99.095 57.212-249.296 63.584-334.825 14.205-32.23-18.608-51.163-42.737-54.753-69.778-3.554-26.774 8.015-54.432 33.457-79.985 3.062-3.075 3.051-8.05-.024-11.111-3.076-3.062-8.051-3.051-11.112.024-28.6 28.724-42.059 61.802-37.899 93.14 4.256 32.059 25.859 60.179 62.474 81.318 39.765 22.958 93.397 35.294 152.536 35.294 5.934 0 11.928-.124 17.964-.375 65.969-2.734 129.908-20.18 180.039-49.124 27.231-15.721 48.705-33.808 63.826-53.758 14.978-19.762 23.027-40.346 23.923-61.183 1.115-25.948-9.398-50.665-29.986-71.438z" fill="#45356d"/></g></svg>