<svg id="Capa_1" enable-background="new 0 0 512 512" height="512" viewBox="0 0 512 512" width="512" xmlns="http://www.w3.org/2000/svg" xmlns:xlink="http://www.w3.org/1999/xlink"><linearGradient id="SVGID_1_" gradientUnits="userSpaceOnUse" x1="239.1" x2="239.1" y1="462.978" y2="42.707"><stop offset="0" stop-color="#c5baeb"/><stop offset=".5323" stop-color="#dfd9f4"/><stop offset="1" stop-color="#f2effa"/></linearGradient><linearGradient id="SVGID_2_" gradientUnits="userSpaceOnUse" x1="239.225" x2="239.225" y1="462.975" y2="117.74"><stop offset="0" stop-color="#d7d1eb"/><stop offset=".2276" stop-color="#ded9ef"/><stop offset="1" stop-color="#f2effa"/></linearGradient><linearGradient id="SVGID_3_" gradientUnits="userSpaceOnUse" x1="285.78" x2="150.828" y1="-8.023" y2="350.023"><stop offset=".0319" stop-color="#7662bd"/><stop offset="1" stop-color="#7662bd" stop-opacity="0"/></linearGradient><linearGradient id="SVGID_4_" gradientUnits="userSpaceOnUse" x1="254.656" x2="322.7" y1="144.718" y2="262.575"><stop offset="0" stop-color="#f2effa"/><stop offset="1" stop-color="#fff"/></linearGradient><linearGradient id="SVGID_5_" gradientUnits="userSpaceOnUse" x1="351.367" x2="351.367" y1="214.143" y2="413.135"><stop offset="0" stop-color="#7662bd"/><stop offset="1" stop-color="#7662bd" stop-opacity="0"/></linearGradient><linearGradient id="SVGID_6_" gradientUnits="userSpaceOnUse" x1="311.735" x2="400.154" y1="375.113" y2="221.967"><stop offset="0" stop-color="#802129"/><stop offset=".5609" stop-color="#ab2c37"/><stop offset="1" stop-color="#ff4757"/></linearGradient><linearGradient id="lg1"><stop offset="0" stop-color="#802129"/><stop offset="1" stop-color="#ab2c37"/></linearGradient><linearGradient id="SVGID_7_" gradientUnits="userSpaceOnUse" x1="399.584" x2="417.116" xlink:href="#lg1" y1="218.732" y2="260.861"/><linearGradient id="SVGID_8_" gradientUnits="userSpaceOnUse" x1="402.609" x2="377.695" xlink:href="#lg1" y1="253.125" y2="296.278"/><linearGradient id="SVGID_9_" gradientUnits="userSpaceOnUse" x1="345.898" x2="376.107" xlink:href="#lg1" y1="305.895" y2="253.571"/><linearGradient id="SVGID_10_" gradientUnits="userSpaceOnUse" x1="382.346" x2="382.346" y1="376.526" y2="194.361"><stop offset="0" stop-color="#ab2c37"/><stop offset=".0732" stop-color="#b3343f"/><stop offset=".4827" stop-color="#dc5a65"/><stop offset=".8056" stop-color="#f6717c"/><stop offset="1" stop-color="#ff7a85"/></linearGradient><g><g><path d="m394.357 330.076-310.514 179.275c-12.193 7.04-22.078-.433-22.078-16.691v-268.551c0-16.258 9.885-35.144 22.078-42.184l310.514-179.276c12.193-7.04 22.078.433 22.078 16.691v268.551c0 16.258-9.885 35.145-22.078 42.185z" fill="url(#SVGID_1_)"/><path d="m83.843 509.351 310.513-179.275c12.193-7.04 22.078-25.926 22.078-42.184v-9.563l-170.185-22.329-184.234 240.711c1.531 13.381 10.706 19.061 21.828 12.64z" fill="url(#SVGID_2_)"/><path d="m391.405 7.289-310.514 179.274c-4.283 2.473-8.268 6.427-11.653 11.196-4.574 8.034-7.473 17.568-7.473 26.349v5.856l168.933 69.611c11.97 4.932 25.74.198 32.146-11.052l150.639-264.544c0-16.258-9.885-23.73-22.078-16.69z" fill="url(#SVGID_3_)"/><path d="m394.357 2.649-310.514 179.276c-12.193 7.04-22.078 25.926-22.078 42.184l171.885 70.828c11.97 4.932 25.74.198 32.146-11.052l150.639-264.545c0-16.258-9.885-23.73-22.078-16.691z" fill="url(#SVGID_4_)"/></g><g><path d="m414.945 299.382c.497-3.935.997-8.022 1.49-12.158v-87.888c-10.459-25.862-34.365-34.48-62.345-18.327-36.949 21.333-66.894 78.127-67.751 127.367-.026.154-.04.239-.04.239v44.162c0 14.251 2.44 26.301 6.789 35.767l101.27-58.468c9.38-5.416 17.389-17.846 20.587-30.694z" fill="url(#SVGID_5_)"/><g><path d="m427.684 193.948.013-.003-30.533-17.353s-.007.003-.008.004c-11.708-6.009-26.688-5.048-43.066 4.408-37.489 21.644-67.792 79.802-67.792 129.529 0 28.719 9.91 48.484 25.393 56.175l-.05.003 25.52 14.542-.014-.029c11.976 7.376 27.766 6.975 45.101-2.914 5.827-3.364 11.46-7.652 16.899-12.606 5.827-5.436 9.13-15.113 7.77-22.097-.488-2.415-1.584-4.102-3.04-5.044l.003-.002-.024-.013c-.162-.103-.33-.193-.5-.278l-10.903-6.059c2.537-2.414 4.967-5.092 7.277-8.023.583 2.253 1.554 4.282 3.108 5.975 2.719 3.869 8.547 4.907 14.763 1.06 1.748-1.009 3.302-2.166 5.05-3.693 7.186-6.481 11.849-14.87 15.151-21.179 2.914-6.085 4.468-11.126 4.856-11.869v-.259c5.05-15.348 7.575-31.051 7.575-46.072.002-26.626-8.692-45.625-22.549-54.203zm-79.53 142.249c-2.596 1.054-5.124 1.776-7.568 2.192-1.105-2.429-2.014-5.122-2.733-8.037zm47.804-115.632c1.162 2.551 2.122 5.372 2.854 8.45l-10.765-6.108c2.719-1.124 5.364-1.91 7.911-2.342z" fill="url(#SVGID_6_)"/><path d="m430.609 259.298c-1.832-41.867-23.119-52.084-34.651-38.733 1.162 2.551 2.122 5.372 2.854 8.45l-1.722-.977 1.722 11.373 18.714 71.174s14.915-9.42 13.083-51.287z" fill="url(#SVGID_7_)"/><path d="m372.78 318.697s-22.862-14.392-6.459-40.297 24.243-24.035 32.49-16.335 1.444 32.297-4.313 42.764c-5.756 10.466-21.718 13.868-21.718 13.868z" fill="url(#SVGID_8_)"/><path d="m362.539 231.299s-30.579 47.464-30.579 48.264c0 .799 5.893 50.789 5.893 50.789l17.591 9.563 4.559-56.636 2.536-9.981 46.71-38.001-21.203-12.389z" fill="url(#SVGID_9_)"/><g><path d="m450.235 248.151c0 15.022-2.525 30.724-7.575 46.072v.259c-.389.743-1.942 5.783-4.856 11.868-3.302 6.309-7.964 14.699-15.151 21.179-1.748 1.527-3.302 2.684-5.05 3.693-6.216 3.847-12.044 2.809-14.763-1.06-1.554-1.693-2.525-3.722-3.108-5.975-5.244 6.653-11.072 12.09-17.482 15.791-10.489 6.056-20.202 5.706-26.806-.064-6.605-5.769-10.684-16.363-10.684-30.868 0-13.985 4.079-29.549 10.684-42.686 6.604-13.396 16.317-25.219 26.806-31.275 10.684-6.168 20.202-5.448 27 .21 6.605 5.51 10.684 16.364 10.684 30.35v2.072 1.035 30.82c.389-.742.777-1.225 1.359-2.339 1.165-2.227 2.331-4.971 2.526-5.602 3.107-10.082 4.856-20.674 4.856-31.034 0-33.928-20.59-49.752-46.425-34.837-25.446 14.691-46.23 54.403-46.23 88.331 0 34.446 20.784 49.9 46.23 35.209 4.079-2.355 7.964-5.116 11.655-8.284 5.633-5.324 11.654-4.138 13.014 2.587 1.359 6.985-1.943 16.661-7.77 22.097-5.439 4.954-11.072 9.242-16.899 12.606-37.489 21.386-67.792-1.523-67.792-51.768 0-49.727 30.302-107.884 67.792-129.528 37.683-21.753 67.985 1.414 67.985 51.141zm-51.863 29.943c0-6.734-1.943-11.569-4.857-14.289-3.108-2.091-6.799-2.55-11.266.029-4.273 2.467-8.158 7.301-11.072 12.867-3.108 6.197-4.856 13.163-4.856 19.897 0 6.994 1.748 11.941 4.856 14.549 2.914 2.462 6.799 2.55 11.072.083 4.468-2.579 8.159-7.041 11.266-12.98 2.914-6.084 4.857-13.163 4.857-20.156z" fill="url(#SVGID_10_)"/></g></g></g></g></svg>