<svg id="Capa_1" enable-background="new 0 0 512 512" height="512" viewBox="0 0 512 512" width="512" xmlns="http://www.w3.org/2000/svg" xmlns:xlink="http://www.w3.org/1999/xlink"><linearGradient id="SVGID_1_" gradientUnits="userSpaceOnUse" x1="217.685" x2="257.371" y1="323.856" y2="323.856"><stop offset="0" stop-color="#0d2627"/><stop offset="1" stop-color="#1a4c4e"/></linearGradient><linearGradient id="SVGID_00000045601434230407419610000013893410400779043512_" gradientTransform="matrix(.866 .5 -1 .577 26.487 932.871)" gradientUnits="userSpaceOnUse" x1="-880.92" x2="-252.099" y1="-706.121" y2="-706.121"><stop offset="0" stop-color="#236568"/><stop offset="1" stop-color="#06daae"/></linearGradient><g><path d="m511.993 237.889-511.985 23.666.001 12.41c.003 4.26 2.575 8.328 7.839 11.367l207.774 119.958c11.625 6.712 31.932 5.87 45.356-1.88l239.917-138.516c7.392-4.267 11.146-9.739 11.095-14.916z" fill="url(#SVGID_1_)"/><path d="m504.152 226.667-207.775-119.958c-11.625-6.712-31.932-5.87-45.356 1.88l-239.916 138.516c-13.424 7.75-14.882 19.474-3.256 26.186l207.774 119.958c11.625 6.712 31.932 5.87 45.356-1.88l239.917-138.516c13.423-7.75 14.881-19.474 3.256-26.186z" fill="url(#SVGID_00000045601434230407419610000013893410400779043512_)"/><g><g><path d="m415.025 276.373c-1.984 0-3.895-.415-5.355-1.259l-50.814-29.266c-1.738-1.003-2.733-2.549-2.733-4.242 0-1.912 1.258-3.734 3.45-4.999l52.922-30.555c3.568-2.06 8.841-2.241 12.005-.415l50.814 29.267c.001.001.001.001.002.001 1.735 1.002 2.73 2.548 2.732 4.24 0 1.912-1.258 3.734-3.45 5l-52.923 30.555c-1.92 1.108-4.335 1.673-6.65 1.673zm4.155-68.002c-1.629 0-3.38.391-4.685 1.144l-52.922 30.555c-1.147.662-1.45 1.294-1.45 1.536 0 .215.287.52.732.777l50.814 29.267c1.942 1.121 5.682.929 8.007-.414l52.923-30.555c1.146-.662 1.45-1.294 1.45-1.536 0-.215-.287-.52-.732-.776l-50.814-29.267c-.853-.492-2.051-.731-3.323-.731z" fill="#06daae"/></g><g><path d="m95.389 292.039c-14.845 0-29.028-2.995-39.61-9.103-10.567-6.101-16.388-14.635-16.388-24.031 0-11.203 8.301-22.419 22.772-30.775 26.83-15.491 67.619-17.144 90.926-3.686 10.568 6.101 16.389 14.635 16.389 24.031 0 11.202-8.301 22.419-22.772 30.775-14.65 8.457-33.462 12.789-51.317 12.789zm18.088-72.762c-17.125 0-35.211 4.175-49.313 12.317-13.201 7.622-20.772 17.576-20.772 27.311 0 7.906 5.109 15.21 14.388 20.566 22.205 12.82 61.201 11.166 86.927-3.686l1 1.732-1-1.732c13.201-7.621 20.772-17.576 20.772-27.31 0-7.906-5.11-15.21-14.389-20.566-10.034-5.794-23.497-8.632-37.613-8.632z" fill="#06daae"/></g><g><path d="m221.476 219.244c-14.846 0-29.029-2.995-39.61-9.104-10.568-6.101-16.389-14.635-16.389-24.031 0-11.202 8.301-22.419 22.772-30.775 26.83-15.49 67.619-17.143 90.927-3.686 10.567 6.101 16.388 14.635 16.388 24.031 0 11.202-8.301 22.42-22.772 30.775l-1-1.732 1 1.732c-14.649 8.457-33.462 12.79-51.316 12.79zm18.088-72.762c-17.125 0-35.212 4.175-49.314 12.317-13.201 7.622-20.772 17.576-20.772 27.311 0 7.906 5.11 15.21 14.389 20.566 22.205 12.82 61.2 11.167 86.926-3.686 13.201-7.621 20.772-17.576 20.772-27.311 0-7.906-5.109-15.21-14.388-20.566-10.034-5.793-23.497-8.631-37.613-8.631z" fill="#06daae"/></g><g><path d="m137.496 322.335c-.346 0-.69-.089-1-.268l-20.193-11.659c-.619-.358-1-1.018-1-1.733s.383-1.375 1.002-1.732l40.983-23.594c.617-.356 1.379-.355 1.998.001l20.193 11.659c.619.358 1 1.018 1 1.733s-.383 1.375-1.002 1.732l-40.983 23.594c-.308.178-.653.267-.998.267zm-16.189-13.656 16.19 9.348 36.979-21.288-16.19-9.348z" fill="#06daae"/></g><g><path d="m173.32 343.108c-.346 0-.69-.089-1-.268l-20.193-11.659c-.619-.358-1-1.018-1-1.733s.383-1.375 1.002-1.732l40.982-23.594c.618-.356 1.38-.355 1.998.001l20.194 11.659c.619.358 1 1.018 1 1.733s-.383 1.375-1.002 1.732l-40.983 23.594c-.308.178-.653.267-.998.267zm-16.189-13.656 16.19 9.348 36.979-21.288-16.191-9.348z" fill="#06daae"/></g><g><path d="m311.051 295.918c-.346 0-.69-.089-1-.268l-20.193-11.659c-.619-.357-1-1.018-1-1.733s.383-1.375 1.002-1.732l40.983-23.594c.618-.356 1.38-.355 1.998.001l20.193 11.659c.619.357 1 1.018 1 1.733s-.383 1.375-1.002 1.732l-40.983 23.594c-.309.178-.653.267-.998.267zm-16.19-13.656 16.19 9.348 36.978-21.288-16.19-9.348z" fill="#06daae"/></g><g><path d="m346.875 316.691c-.346 0-.69-.089-1-.268l-20.193-11.659c-.619-.357-1-1.018-1-1.733s.383-1.375 1.002-1.732l40.982-23.594c.618-.356 1.38-.355 1.998.001l20.194 11.659c.619.357 1 1.018 1 1.733s-.383 1.375-1.002 1.732l-40.983 23.594c-.308.179-.653.267-.998.267zm-16.189-13.656 16.19 9.348 36.979-21.288-16.191-9.348z" fill="#06daae"/></g><g><path d="m383.192 208.706c-.345 0-.689-.089-.998-.267l-40.983-23.594c-.619-.357-1.002-1.017-1.002-1.732s.381-1.376 1-1.733l20.193-11.659c.618-.357 1.378-.357 1.998-.001l40.983 23.594c.619.357 1.002 1.017 1.002 1.732s-.381 1.376-1 1.733l-20.193 11.659c-.309.178-.654.268-1 .268zm-36.979-25.597 36.978 21.288 16.19-9.348-36.978-21.288z" fill="#06daae"/></g><g><path d="m347.368 229.479c-.345 0-.689-.089-.998-.267l-40.983-23.594c-.619-.357-1.002-1.017-1.002-1.732s.381-1.376 1-1.733l20.194-11.659c.618-.357 1.38-.357 1.998-.001l40.983 23.594c.619.357 1.002 1.017 1.002 1.732s-.381 1.376-1 1.733l-20.193 11.659c-.31.178-.655.268-1.001.268zm-36.979-25.597 36.979 21.288 16.19-9.348-36.978-21.288z" fill="#06daae"/></g><g><path d="m279.966 266.309c-.345 0-.689-.089-.998-.267l-40.983-23.594c-.619-.357-1.002-1.017-1.002-1.732s.381-1.376 1-1.733l20.194-11.659c.618-.357 1.378-.357 1.998-.001l40.983 23.594c.619.357 1.002 1.017 1.002 1.732s-.381 1.376-1 1.733l-20.194 11.659c-.31.179-.654.268-1 .268zm-36.98-25.597 36.979 21.288 16.191-9.348-36.979-21.288z" fill="#06daae"/></g><g><path d="m244.142 287.082c-.345 0-.689-.089-.998-.267l-40.983-23.594c-.619-.357-1.002-1.017-1.002-1.732s.381-1.376 1-1.733l20.194-11.659c.618-.357 1.378-.357 1.998-.001l40.983 23.594c.619.357 1.002 1.017 1.002 1.732s-.381 1.376-1 1.733l-20.194 11.659c-.31.179-.655.268-1 .268zm-36.98-25.596 36.979 21.288 16.191-9.348-36.979-21.288z" fill="#06daae"/></g><g><path d="m209.145 363.881c-.346 0-.69-.089-1-.268l-20.193-11.659c-.619-.357-1-1.018-1-1.733s.383-1.375 1.002-1.732l40.982-23.594c.618-.356 1.38-.355 1.998.001l20.194 11.659c.619.358 1 1.018 1 1.733s-.383 1.375-1.002 1.732l-40.983 23.594c-.309.179-.654.267-.998.267zm-16.19-13.656 16.19 9.348 36.979-21.288-16.191-9.348z" fill="#06daae"/></g><g><path d="m149.708 215.292h35.537v4h-35.537z" fill="#06daae" transform="matrix(.866 -.5 .5 .866 -86.206 112.844)"/></g><g><path d="m232.521 144.496h-4v-11.06c0-.715.381-1.375 1-1.732l32.752-18.91c.619-.357 1.381-.357 2 0l27.659 15.969-2 3.464-26.659-15.391-30.752 17.755z" fill="#06daae"/></g><g><path d="m352.367 178.401-38.761-22.378h-16.923c-.351 0-.696-.092-1-.268l-35.958-20.76 2-3.464 35.494 20.492h16.923c.351 0 .696.092 1 .268l39.225 22.646z" fill="#06daae"/></g><g><path d="m316.262 199.336-12.439-7.181c-.619-.357-1-1.018-1-1.732v-15.166c0-.714.381-1.375 1-1.732l7.64-4.411 2 3.464-6.64 3.833v12.856l11.439 6.604z" fill="#06daae"/></g><g><path d="m335.886 336.314h-58.807c-.352 0-.696-.092-1-.268l-17.114-9.881-15.917 9.19-2-3.464 16.917-9.767c.619-.357 1.381-.357 2 0l17.65 10.19h57.734l97.317-56.186-7.732-4.465 2-3.464 10.732 6.197c.619.357 1 1.017 1 1.732s-.381 1.375-1 1.732l-100.781 58.186c-.303.176-.649.268-.999.268z" fill="#06daae"/></g><g><path d="m321.445 319.94h-37.594v-4h37.058l15.064-8.697 2 3.464-15.528 8.965c-.303.175-.649.268-1 .268z" fill="#06daae"/></g><g><path d="m280.972 290.771h20.566v4h-20.566z" fill="#06daae" transform="matrix(.866 -.5 .5 .866 -107.362 184.842)"/></g><g><path d="m357.27 256.496c-.346 0-.69-.089-1-.268l-17.448-10.074h-21.56v-4h22.096c.352 0 .696.092 1 .268l16.912 9.764 9.292-5.365 2 3.464-10.292 5.942c-.31.18-.655.269-1 .269z" fill="#06daae"/></g><g><path d="m243.71 301.024c-.346 0-.691-.089-1-.268l-28.942-16.709h-13.084v-4h13.62c.351 0 .696.092 1 .268l28.406 16.4 20.148-11.633-8.858-5.115 2-3.464 11.858 6.846c.619.357 1 1.017 1 1.732s-.381 1.375-1 1.732l-24.148 13.942c-.31.18-.654.269-1 .269z" fill="#06daae"/></g><g><path d="m180.48 267.456h-4v-14.902c0-.715.381-1.375 1-1.732l15.747-9.092c.619-.357 1.381-.357 2 0l20.077 11.591-2 3.464-19.077-11.014-13.747 7.937z" fill="#06daae"/></g><g><path d="m138.55 203.416h-4v-17.176c0-.715.381-1.375 1-1.732l16.577-9.571 2 3.464-15.577 8.993z" fill="#06daae"/></g><g><path d="m113.832 324.703c-.346 0-.69-.089-1-.268l-27.892-16.103 2-3.464 26.892 15.526 12.891-7.435 1.998 3.465-13.89 8.012c-.308.178-.654.267-.999.267z" fill="#06daae"/></g><g><path d="m230.861 374.223h-16.558c-.351 0-.696-.093-1-.268l-21.609-12.476c-.619-.357-1-1.017-1-1.732s.381-1.375 1-1.732l6.376-3.681 2 3.464-3.376 1.949 18.145 10.476h15.485l28.142-16.247 2 3.464-28.606 16.515c-.302.175-.648.268-.999.268z" fill="#06daae"/></g><g><path d="m241.41 387.506h-18.801c-.352 0-.696-.092-1-.268l-73.736-42.572c-.619-.357-1-1.018-1-1.732 0-.715.382-1.375 1.001-1.732l13.811-7.967 1.998 3.465-10.81 6.235 70.271 40.571h17.729l51.571-29.775 2 3.464-52.035 30.042c-.303.177-.648.269-.999.269z" fill="#06daae"/></g><g><path d="m298.077 252.698h4v23.869h-4z" fill="#06daae" transform="matrix(.5 -.866 .866 .5 -79.142 392.184)"/></g><g><path d="m295.564 229.056h-4v-10.609l-20.772-11.993 2-3.464 21.772 12.57c.619.357 1 1.017 1 1.732z" fill="#06daae"/></g></g><g fill="#ffc538"><path d="m156.913 178.856c2.415-1.394 2.677-3.503.586-4.711-2.091-1.207-5.745-1.056-8.159.338-2.415 1.394-2.677 3.503-.586 4.711 2.091 1.207 5.744 1.056 8.159-.338z"/><path d="m294.718 132.11c2.415-1.394 2.677-3.503.586-4.711-2.091-1.207-5.744-1.056-8.159.338s-2.677 3.503-.586 4.711 5.744 1.056 8.159-.338z"/><path d="m316.618 173.033c2.415-1.394 2.677-3.503.586-4.711s-5.745-1.056-8.16.338-2.677 3.503-.586 4.711c2.092 1.208 5.745 1.056 8.16-.338z"/><path d="m171.264 292.274c2.415-1.394 2.677-3.503.586-4.711-2.091-1.207-5.745-1.056-8.159.338-2.415 1.394-2.677 3.503-.586 4.711s5.744 1.056 8.159-.338z"/><path d="m131.508 316.957c2.415-1.394 2.677-3.503.586-4.711s-5.744-1.056-8.159.338-2.677 3.503-.586 4.711c2.091 1.207 5.744 1.056 8.159-.338z"/><path d="m206.53 312.548c2.415-1.394 2.677-3.503.586-4.711s-5.745-1.056-8.159.338c-2.415 1.394-2.677 3.503-.586 4.711s5.744 1.056 8.159-.338z"/><path d="m166.774 337.231c2.415-1.394 2.677-3.503.586-4.711-2.091-1.207-5.744-1.056-8.159.338s-2.677 3.503-.586 4.711c2.091 1.207 5.744 1.056 8.159-.338z"/><path d="m244.824 334.401c2.415-1.394 2.677-3.503.586-4.711s-5.745-1.056-8.16.338-2.677 3.503-.586 4.711c2.092 1.207 5.745 1.056 8.16-.338z"/><path d="m205.068 359.083c2.415-1.394 2.677-3.503.586-4.711-2.091-1.207-5.745-1.056-8.16.338s-2.677 3.503-.586 4.711c2.092 1.208 5.745 1.057 8.16-.338z"/><path d="m342.89 266.137c2.415-1.394 2.677-3.503.586-4.711s-5.745-1.056-8.159.338c-2.415 1.394-2.677 3.503-.586 4.711 2.091 1.207 5.744 1.056 8.159-.338z"/><path d="m303.135 290.819c2.415-1.394 2.677-3.503.586-4.711s-5.745-1.056-8.159.338c-2.415 1.394-2.677 3.503-.586 4.711s5.744 1.057 8.159-.338z"/><path d="m259.787 280.422c2.415-1.394 2.677-3.503.586-4.711-2.091-1.207-5.745-1.056-8.159.338-2.415 1.394-2.677 3.503-.586 4.711 2.091 1.207 5.744 1.056 8.159-.338z"/><path d="m216.378 257.089c2.415-1.394 2.677-3.503.586-4.711-2.091-1.207-5.745-1.056-8.16.338s-2.677 3.503-.586 4.711c2.092 1.208 5.745 1.056 8.16-.338z"/><path d="m295.063 260.535c2.415-1.394 2.677-3.503.586-4.711s-5.745-1.056-8.159.338c-2.415 1.394-2.677 3.503-.586 4.711 2.09 1.208 5.743 1.057 8.159-.338z"/><path d="m251.653 237.202c2.415-1.394 2.677-3.503.586-4.711s-5.744-1.056-8.159.338-2.677 3.503-.586 4.711 5.744 1.056 8.159-.338z"/><path d="m362.465 223.705c2.415-1.394 2.677-3.503.586-4.711s-5.745-1.056-8.159.338c-2.415 1.394-2.677 3.503-.586 4.711s5.744 1.056 8.159-.338z"/><path d="m319.056 200.372c2.415-1.394 2.677-3.503.586-4.711s-5.745-1.056-8.159.338c-2.415 1.394-2.677 3.503-.586 4.711s5.744 1.056 8.159-.338z"/><path d="m398.289 202.932c2.415-1.394 2.677-3.503.586-4.711s-5.744-1.056-8.159.338-2.677 3.503-.586 4.711c2.091 1.207 5.744 1.056 8.159-.338z"/><path d="m354.88 179.599c2.415-1.394 2.677-3.503.586-4.711-2.091-1.207-5.745-1.056-8.159.338-2.415 1.394-2.677 3.503-.586 4.711 2.091 1.207 5.744 1.056 8.159-.338z"/><path d="m380.935 286.91c2.415-1.394 2.677-3.503.586-4.711s-5.745-1.056-8.159.338c-2.415 1.394-2.677 3.503-.586 4.711 2.09 1.208 5.743 1.056 8.159-.338z"/><path d="m341.179 311.592c2.415-1.394 2.677-3.503.586-4.711s-5.745-1.056-8.159.338c-2.415 1.394-2.677 3.503-.586 4.711s5.744 1.057 8.159-.338z"/><path d="m422.52 266.058c2.415-1.394 2.677-3.503.586-4.711s-5.745-1.056-8.159.338c-2.415 1.394-2.677 3.503-.586 4.711 2.091 1.207 5.744 1.056 8.159-.338z"/><path d="m436.094 258.186c2.415-1.394 2.677-3.503.586-4.711s-5.745-1.056-8.16.338-2.677 3.503-.586 4.711c2.092 1.208 5.745 1.057 8.16-.338z"/><path d="m449.668 250.315c2.415-1.394 2.677-3.503.586-4.711s-5.745-1.056-8.159.338c-2.415 1.394-2.677 3.503-.586 4.711s5.744 1.056 8.159-.338z"/><path d="m463.242 242.444c2.415-1.394 2.677-3.503.586-4.711s-5.745-1.056-8.159.338c-2.415 1.394-2.677 3.503-.586 4.711 2.091 1.207 5.744 1.056 8.159-.338z"/><path d="m379.034 241.472c2.415-1.394 2.677-3.503.586-4.711s-5.745-1.056-8.159.338c-2.415 1.394-2.677 3.503-.586 4.711s5.744 1.056 8.159-.338z"/><path d="m392.609 233.601c2.415-1.394 2.677-3.503.586-4.711s-5.745-1.056-8.159.338c-2.415 1.394-2.677 3.503-.586 4.711 2.091 1.207 5.744 1.056 8.159-.338z"/><path d="m406.183 225.729c2.415-1.394 2.677-3.503.586-4.711s-5.745-1.056-8.159.338c-2.415 1.394-2.677 3.503-.586 4.711s5.744 1.057 8.159-.338z"/><path d="m419.757 217.858c2.415-1.394 2.677-3.503.586-4.711s-5.745-1.056-8.159.338c-2.415 1.394-2.677 3.503-.586 4.711s5.744 1.056 8.159-.338z"/><path d="m454.194 269.993c2.415-1.394 2.677-3.503.586-4.711-2.091-1.207-5.745-1.056-8.16.338s-2.677 3.503-.586 4.711c2.092 1.208 5.745 1.057 8.16-.338z"/><path d="m467.769 262.122c2.415-1.394 2.677-3.503.586-4.711-2.091-1.207-5.745-1.056-8.159.338-2.415 1.394-2.677 3.503-.586 4.711s5.744 1.056 8.159-.338z"/><path d="m481.343 254.251c2.415-1.394 2.677-3.503.586-4.711s-5.745-1.056-8.159.338c-2.415 1.394-2.677 3.503-.586 4.711 2.091 1.207 5.744 1.056 8.159-.338z"/><path d="m81.072 271.619c2.415-1.394 2.677-3.503.586-4.711-2.091-1.207-5.745-1.056-8.159.338-2.415 1.394-2.677 3.503-.586 4.711 2.091 1.207 5.744 1.056 8.159-.338z"/><path d="m135.369 240.134c2.415-1.394 2.677-3.503.586-4.711s-5.744-1.056-8.159.338-2.677 3.503-.586 4.711c2.091 1.207 5.744 1.056 8.159-.338z"/><path d="m207.158 198.823c2.415-1.394 2.677-3.503.586-4.711s-5.745-1.056-8.159.338c-2.415 1.394-2.677 3.503-.586 4.711s5.744 1.056 8.159-.338z"/><path d="m261.455 167.338c2.415-1.394 2.677-3.503.586-4.711-2.091-1.207-5.745-1.056-8.16.338s-2.677 3.503-.586 4.711c2.092 1.207 5.745 1.056 8.16-.338z"/><path d="m264.513 135.45c2.415-1.394 2.677-3.503.586-4.711s-5.745-1.056-8.159.338c-2.415 1.394-2.677 3.503-.586 4.711 2.091 1.207 5.744 1.056 8.159-.338z"/><path d="m140.337 205.602c2.415-1.394 2.677-3.503.586-4.711s-5.744-1.056-8.159.338-2.677 3.503-.586 4.711 5.744 1.057 8.159-.338z"/><path d="m182.266 269.642c2.415-1.394 2.677-3.503.586-4.711-2.091-1.207-5.745-1.056-8.159.338-2.415 1.394-2.677 3.503-.586 4.711 2.091 1.207 5.744 1.056 8.159-.338z"/><path d="m89.727 308.786c2.415-1.394 2.677-3.503.586-4.711-2.091-1.207-5.744-1.056-8.159.338s-2.677 3.503-.586 4.711 5.744 1.057 8.159-.338z"/><path d="m204.47 283.762c2.415-1.394 2.677-3.503.586-4.711s-5.745-1.056-8.159.338c-2.415 1.394-2.677 3.503-.586 4.711 2.091 1.207 5.744 1.056 8.159-.338z"/><path d="m297.35 231.242c2.415-1.394 2.677-3.503.586-4.711s-5.745-1.056-8.159.338c-2.415 1.394-2.677 3.503-.586 4.711s5.744 1.056 8.159-.338z"/><path d="m321.049 246.341c2.415-1.394 2.677-3.503.586-4.711s-5.744-1.056-8.159.338-2.677 3.503-.586 4.711c2.091 1.207 5.744 1.056 8.159-.338z"/><path d="m286.136 300.099c2.415-1.394 2.677-3.503.586-4.711-2.091-1.207-5.745-1.056-8.159.338-2.415 1.394-2.677 3.503-.586 4.711s5.744 1.056 8.159-.338z"/><path d="m287.638 320.296c2.415-1.394 2.677-3.503.586-4.711s-5.745-1.056-8.159.338c-2.415 1.394-2.677 3.503-.586 4.711s5.744 1.057 8.159-.338z"/><path d="m263.254 357.894c2.415-1.394 2.677-3.503.586-4.711s-5.745-1.056-8.159.338c-2.415 1.394-2.677 3.503-.586 4.711 2.091 1.207 5.744 1.056 8.159-.338z"/><path d="m297.232 357.894c2.415-1.394 2.677-3.503.586-4.711s-5.745-1.056-8.159.338c-2.415 1.394-2.677 3.503-.586 4.711 2.091 1.207 5.744 1.056 8.159-.338z"/></g><path d="m241.262 227.336-2.009-1.16 2.009-1.16c.957-.552 1.284-1.776.732-2.732-.554-.956-1.774-1.284-2.732-.732l-4.01 2.315-4.01-2.315c-.96-.552-2.18-.224-2.732.732s-.225 2.18.732 2.732l2.009 1.16-2.009 1.16c-.957.552-1.284 1.776-.732 2.732.371.642 1.043 1 1.734 1 .339 0 .683-.087.998-.268l4.01-2.315 4.01 2.315c.315.182.659.268.998.268.691 0 1.363-.359 1.734-1 .553-.956.225-2.179-.732-2.732z" fill="#fff"/><path d="m378.807 268.127-2.009-1.16 2.009-1.16c.957-.552 1.284-1.776.732-2.732-.554-.956-1.774-1.284-2.732-.732l-4.01 2.315-4.01-2.315c-.96-.552-2.18-.224-2.732.732-.552.957-.225 2.18.732 2.732l2.009 1.16-2.009 1.16c-.957.552-1.284 1.776-.732 2.732.371.642 1.043 1 1.734 1 .339 0 .683-.086.998-.268l4.01-2.315 4.01 2.315c.315.182.659.268.998.268.691 0 1.363-.359 1.734-1 .552-.956.225-2.18-.732-2.732z" fill="#fff"/><path d="m212.478 296.629-2.009-1.16 2.009-1.16c.957-.552 1.284-1.776.732-2.732-.554-.956-1.774-1.285-2.732-.732l-4.01 2.315-4.01-2.315c-.96-.552-2.18-.224-2.732.732s-.225 2.18.732 2.732l2.009 1.16-2.009 1.16c-.957.552-1.284 1.776-.732 2.732.371.642 1.043 1 1.734 1 .339 0 .683-.086.998-.268l4.01-2.315 4.01 2.315c.315.182.659.268.998.268.691 0 1.363-.359 1.734-1 .552-.957.225-2.18-.732-2.732z" fill="#fff"/></g></svg>