<svg id="Capa_1" enable-background="new 0 0 512 512" height="512" viewBox="0 0 512 512" width="512" xmlns="http://www.w3.org/2000/svg" xmlns:xlink="http://www.w3.org/1999/xlink"><linearGradient id="SVGID_1_" gradientUnits="userSpaceOnUse" x1="140.794" x2="351.912" y1="379.405" y2="-56.597"><stop offset=".0788" stop-color="#e2823a"/><stop offset=".2033" stop-color="#efa95c"/><stop offset=".5386" stop-color="#efaa5e"/><stop offset=".6926" stop-color="#f0ae66"/><stop offset=".8095" stop-color="#f1b472"/><stop offset=".907" stop-color="#f3be84"/><stop offset=".9927" stop-color="#f6ca9c"/><stop offset="1" stop-color="#f6cb9e"/></linearGradient><linearGradient id="SVGID_2_" gradientUnits="userSpaceOnUse" x1="360.108" x2="296.023" y1="422.587" y2="60.261"><stop offset="0" stop-color="#9e4311"/><stop offset=".648" stop-color="#e2823a"/></linearGradient><linearGradient id="SVGID_3_" gradientUnits="userSpaceOnUse" x1="172.039" x2="125.484" y1="473.175" y2="125.124"><stop offset="0" stop-color="#76310a"/><stop offset=".799" stop-color="#76310a" stop-opacity="0"/></linearGradient><linearGradient id="SVGID_4_" gradientUnits="userSpaceOnUse" x1="327.775" x2="220.138" y1="275.556" y2="89.124"><stop offset=".2389" stop-color="#e2823a"/><stop offset=".3541" stop-color="#efa95c"/><stop offset=".9781" stop-color="#f6cb9e"/></linearGradient><linearGradient id="SVGID_5_" gradientUnits="userSpaceOnUse" x1="210.56" x2="115.973" y1="514.037" y2="154.164"><stop offset="0" stop-color="#d35c1a"/><stop offset=".1975" stop-color="#d56320"/><stop offset=".4791" stop-color="#dc7530"/><stop offset=".8096" stop-color="#e7944a"/><stop offset="1" stop-color="#efa95c"/></linearGradient><linearGradient id="SVGID_6_" gradientUnits="userSpaceOnUse" x1="443.607" x2="453.393" y1="288.62" y2="271.67"><stop offset="0" stop-color="#efa95c"/><stop offset=".1904" stop-color="#e7944a"/><stop offset=".5209" stop-color="#dc7530"/><stop offset=".8025" stop-color="#d56320"/><stop offset="1" stop-color="#d35c1a"/></linearGradient><linearGradient id="SVGID_7_" gradientUnits="userSpaceOnUse" x1="451.014" x2="450.439" y1="104.029" y2="387.388"><stop offset="0" stop-color="#1f1634"/><stop offset="1" stop-color="#1f1634" stop-opacity="0"/></linearGradient><linearGradient id="SVGID_8_" gradientUnits="userSpaceOnUse" x1="449.059" x2="437.513" y1="220.047" y2="197.878"><stop offset="0" stop-color="#fff"/><stop offset=".648" stop-color="#fff" stop-opacity="0"/></linearGradient><linearGradient id="SVGID_9_" gradientUnits="userSpaceOnUse" x1="56.041" x2="131.742" y1="431.042" y2="299.925"><stop offset="0" stop-color="#9e4311"/><stop offset=".2075" stop-color="#c96b2b"/><stop offset=".3172" stop-color="#e2823a"/><stop offset=".4818" stop-color="#e4873e"/><stop offset=".6664" stop-color="#e8944a"/><stop offset=".8493" stop-color="#efa95c"/></linearGradient><linearGradient id="SVGID_10_" gradientUnits="userSpaceOnUse" x1="108.012" x2="108.012" y1="501.685" y2="288.575"><stop offset="0" stop-color="#9e4311"/><stop offset=".8157" stop-color="#e2823a"/></linearGradient><linearGradient id="lg1"><stop offset=".0788" stop-color="#e2823a"/><stop offset=".2337" stop-color="#e38640"/><stop offset=".443" stop-color="#e79351"/><stop offset=".6835" stop-color="#eca86e"/><stop offset=".9454" stop-color="#f4c495"/><stop offset="1" stop-color="#f6cb9e"/></linearGradient><linearGradient id="SVGID_11_" gradientUnits="userSpaceOnUse" x1="162.702" x2="197.298" xlink:href="#lg1" y1="270.775" y2="210.853"/><linearGradient id="SVGID_12_" gradientUnits="userSpaceOnUse" x1="354.239" x2="388.835" xlink:href="#lg1" y1="159.924" y2="100.002"/><g><path d="m371.7 31.885-41.647-24.045c-8.691-5.017-19.783-2.441-25.373 5.893l-25.003 37.28c-37.162 50.193-90.673 85.845-151.307 100.809l-117.13 28.907c-6.601 1.629-11.24 7.552-11.24 14.351v182.251c0 17.63 5.854 30.047 15.103 35.438l157.651 91.184 331.065-395.784z" fill="url(#SVGID_1_)"/><path d="m167.275 492.994v-173.689c0-14.422 7.694-27.748 20.183-34.958l303.988-175.507c9.135-5.274 20.554 1.319 20.554 11.867v173.688c0 14.422-7.694 27.748-20.183 34.959l-303.988 175.507c-9.135 5.274-20.554-1.319-20.554-11.867z" fill="url(#SVGID_2_)"/><path d="m180.645 506.705c2.265.06 4.595-.469 6.808-1.661l6.193-228.979-102.261-47.219 89.26 59.749z" fill="url(#SVGID_3_)"/><g><path d="m487.38 95.683-82.483-47.629c-2.06-1.189-4.374-1.05-6.186-.027l-.003-.002-.041.024c-.007.004-.015.008-.022.013l-304.824 175.837 96.374 58.868 2.667 222.152 304.107-175.355v-.008c1.709-.909 2.951-2.684 2.951-4.894v-207.264c0-8.959-4.78-17.237-12.54-21.715z" fill="url(#SVGID_4_)"/><path d="m91.385 228.846 90.821 52.469c3.25 1.876 5.252 5.344 5.252 9.097v214.449c3.701 2.123 8.312-.549 8.312-4.815v-207.263c0-8.959-4.78-17.237-12.54-21.715l-82.483-47.629c-4.161-2.402-9.362.602-9.362 5.407z" fill="url(#SVGID_5_)"/></g><path d="m431.902 322.786c.299-.097.597-.217.886-.385l31.988-18.468c2.876-1.66 4.647-4.729 4.647-8.049v-118.416c0-.36-.049-.703-.125-1.032-.268.022-1.135.475-2.438 1.28l-30.436 17.572c-2.876 1.66-4.647 4.729-4.647 8.049v118.416c0 .749.207 1.387.125 1.033z" fill="#eae5f6"/><path d="m469.298 176.435c.076.329.125.672.125 1.032v118.416c0 3.321-1.772 6.389-4.647 8.049l-31.988 18.468c-.289.167-.587.288-.886.385.656 2.842 3.943 4.426 6.636 2.872l31.988-18.468c2.876-1.66 4.647-4.729 4.647-8.049v-118.416c.001-3.136-3.066-5.199-5.875-4.289z" fill="url(#SVGID_6_)"/><path d="m431.902 322.786c.299-.097.597-.217.886-.385l31.988-18.468c2.876-1.66 4.647-4.729 4.647-8.049v-118.416c0-.36-.049-.703-.125-1.032-.506.06-2.438 1.28-2.438 1.28v116.714c0 3.32-1.772 6.389-4.647 8.049l-30.436 17.572v1.703c0 .748.207 1.386.125 1.032z" fill="url(#SVGID_7_)"/><g><ellipse cx="449.134" cy="213.369" fill="#5e4990" rx="23.707" ry="13.412" transform="matrix(.392 -.92 .92 .392 76.941 543.097)"/><ellipse cx="449.134" cy="213.369" fill="#45356d" rx="12.943" ry="7.322" transform="matrix(.392 -.92 .92 .392 76.94 543.096)"/><path d="m452.709 211.305c0-2.632-1.6-3.842-3.575-2.702-1.974 1.14-3.575 4.198-3.575 6.83s1.6 3.842 3.575 2.702c1.974-1.14 3.575-4.197 3.575-6.83z" fill="#322650"/><path d="m446.849 206.876c0-2.632-1.6-3.842-3.575-2.702-1.974 1.14-3.574 4.198-3.574 6.83s1.6 3.842 3.574 2.702c1.975-1.14 3.575-4.198 3.575-6.83z" fill="url(#SVGID_8_)"/></g><g><path d="m104.577 297.705-13.199 7.621c-8.615 4.974-15.599 18.318-15.599 29.805v69.755c0 6.536 2.265 11.053 5.801 12.824l-.002.01 17.451 10.092 23.382-119.81z" fill="url(#SVGID_9_)"/><path d="m109.212 315.622c-8.615 4.974-15.599 18.318-15.599 29.805v69.755c0 11.487 6.984 16.767 15.599 11.793l13.199-7.621v-111.353z" fill="url(#SVGID_10_)"/><path d="m227.198 179.83c-.059-.032-.115-.07-.175-.1l-.048-.027-.005.005c-2.682-1.355-6.098-1.128-9.821 1.022l-52.317 30.205c-8.615 4.974-15.599 18.318-15.599 29.805v2.05l18.041 10.32 78.199-62.834z" fill="url(#SVGID_11_)"/><path d="m235.19 191.05-52.317 30.205c-8.615 4.974-15.599 18.318-15.599 29.805v2.05l83.515-48.217v-2.05c.001-11.488-6.983-16.767-15.599-11.793z" fill="#e2823a"/><path d="m418.735 68.979c-.059-.032-.115-.07-.175-.1l-.048-.027-.005.005c-2.682-1.355-6.098-1.128-9.821 1.022l-52.317 30.205c-8.615 4.974-15.599 18.318-15.599 29.805v2.05l18.041 10.32 78.199-62.834z" fill="url(#SVGID_12_)"/><path d="m426.728 80.199-52.317 30.205c-8.615 4.974-15.599 18.318-15.599 29.805v2.05l83.515-48.217v-2.05c0-11.487-6.984-16.767-15.599-11.793z" fill="#e2823a"/></g></g></svg>