<svg id="Capa_1" enable-background="new 0 0 512 512" height="512" viewBox="0 0 512 512" width="512" xmlns="http://www.w3.org/2000/svg" xmlns:xlink="http://www.w3.org/1999/xlink"><linearGradient id="lg1"><stop offset="0" stop-color="#2f97f7"/><stop offset="1" stop-color="#79d3fe"/></linearGradient><linearGradient id="SVGID_1_" gradientUnits="userSpaceOnUse" x1="109.305" x2="190.033" xlink:href="#lg1" y1="275.926" y2="275.926"/><linearGradient id="SVGID_00000034803950339176555490000011975356483556146343_" gradientUnits="userSpaceOnUse" x1="460.9" x2="496.45" xlink:href="#lg1" y1="277.153" y2="277.153"/><linearGradient id="SVGID_00000119814716185603735940000005104722034735862165_" gradientUnits="userSpaceOnUse" x1="414.335" x2="432.962" xlink:href="#lg1" y1="337.457" y2="337.457"/><linearGradient id="SVGID_00000123401609794636865440000003745630194129083573_" gradientUnits="userSpaceOnUse" x1="277.609" x2="310.549" xlink:href="#lg1" y1="347.899" y2="347.899"/><linearGradient id="SVGID_00000125600752074021233330000014878439222677297825_" gradientUnits="userSpaceOnUse" x1="195.019" x2="213.953" xlink:href="#lg1" y1="326.048" y2="326.048"/><linearGradient id="SVGID_00000031885826491718265840000002306404602309945487_" gradientUnits="userSpaceOnUse" x1="161.957" x2="447.909" xlink:href="#lg1" y1="154.807" y2="319.901"/><linearGradient id="SVGID_00000183937926349910923470000015704263506105483396_" gradientUnits="userSpaceOnUse" x1="264.943" x2="242.95" xlink:href="#lg1" y1="328.137" y2="328.137"/><linearGradient id="SVGID_00000013872810830840692170000001171599318255238332_" gradientUnits="userSpaceOnUse" x1="374.469" x2="354.529" xlink:href="#lg1" y1="332.554" y2="332.554"/><linearGradient id="SVGID_00000181794444276550242610000018160736676654065065_" gradientTransform="matrix(-1 0 0 1 -3328 0)" gradientUnits="userSpaceOnUse" x1="-3705.701" x2="-3608.508" xlink:href="#lg1" y1="253.842" y2="253.842"/><linearGradient id="SVGID_00000164497167891732477100000013225440427836742838_" gradientUnits="userSpaceOnUse" x1="238.871" x2="389.806" xlink:href="#lg1" y1="181.858" y2="269"/><linearGradient id="SVGID_00000088830659074341264850000016674914311322959292_" gradientUnits="userSpaceOnUse" x1="331.478" x2="264.259" xlink:href="#lg1" y1="235.325" y2="196.516"/><linearGradient id="lg2"><stop offset="0" stop-color="#ab2c37"/><stop offset="1" stop-color="#ff4757"/></linearGradient><linearGradient id="SVGID_00000000209684924557392850000016132215934464368519_" gradientUnits="userSpaceOnUse" x1="357.792" x2="384.352" xlink:href="#lg2" y1="67.151" y2="21.147"/><linearGradient id="SVGID_00000119832672345224648080000010254340265422256557_" gradientUnits="userSpaceOnUse" x1="377.805" x2="377.805" y1="126.794" y2="60.22"><stop offset="0" stop-color="#ff4757"/><stop offset="1" stop-color="#ff7a85"/></linearGradient><linearGradient id="lg3"><stop offset="0" stop-color="#e37a34"/><stop offset="1" stop-color="#ffa538"/></linearGradient><linearGradient id="SVGID_00000064322422733846834820000006950354685725905563_" gradientUnits="userSpaceOnUse" x1="440.496" x2="448.441" xlink:href="#lg3" y1="100.094" y2="86.332"/><linearGradient id="lg4"><stop offset="0" stop-color="#ffc538"/><stop offset="1" stop-color="#f7e041"/></linearGradient><linearGradient id="SVGID_00000147931444419694246120000001352935367049363865_" gradientTransform="matrix(.866 -.5 0 1.155 33.407 774.312)" gradientUnits="userSpaceOnUse" x1="503.455" x2="503.455" xlink:href="#lg4" y1="-335.996" y2="-396.483"/><linearGradient id="SVGID_00000162347743922345877350000001523291369799298994_" gradientUnits="userSpaceOnUse" x1="28.387" x2="36.332" y1="248.532" y2="234.771"><stop offset="0" stop-color="#236568"/><stop offset="1" stop-color="#2f878a"/></linearGradient><linearGradient id="SVGID_00000003067250006327312960000004918083628947157932_" gradientTransform="matrix(.866 -.5 0 1.155 33.407 774.312)" gradientUnits="userSpaceOnUse" x1="27.578" x2="27.578" y1="-413.505" y2="-473.992"><stop offset="0" stop-color="#2f878a"/><stop offset="1" stop-color="#06daae"/></linearGradient><linearGradient id="SVGID_00000056394178648459672110000004245615066775753379_" gradientUnits="userSpaceOnUse" x1="146.684" x2="161.705" xlink:href="#lg2" y1="362.503" y2="336.488"/><linearGradient id="SVGID_00000132809406569054753230000013969908914615722632_" gradientUnits="userSpaceOnUse" x1="166.615" x2="183.013" y1="375.417" y2="347.015"><stop offset="0" stop-color="#c5baeb"/><stop offset="1" stop-color="#f2effa"/></linearGradient><linearGradient id="SVGID_00000178171750837680731120000017050277772593855671_" gradientUnits="userSpaceOnUse" x1="248.098" x2="264.23" xlink:href="#lg4" y1="426.938" y2="398.997"/><linearGradient id="SVGID_00000101793001843378025790000015963383817767145624_" gradientUnits="userSpaceOnUse" x1="314.571" x2="390.183" xlink:href="#lg3" y1="456.955" y2="456.955"/><g><g><g><path d="m308.839 367.298c-.325 0-.659-.03-.994-.101-.325-.061-.639-.162-.943-.284-.304-.132-.598-.284-.872-.466-.284-.193-.538-.405-.771-.639-.943-.943-1.49-2.241-1.49-3.579s.548-2.646 1.49-3.589c.233-.233.487-.446.771-.629.274-.182.568-.334.872-.466.304-.121.618-.223.943-.284.659-.132 1.328-.132 1.987 0 .324.061.639.162.943.284.314.132.608.284.882.466.274.183.538.396.771.629.943.943 1.48 2.251 1.48 3.589 0 .324-.031.659-.101.994-.061.314-.162.639-.284.943-.132.304-.284.598-.466.872-.183.284-.395.537-.629.771-.233.233-.497.446-.771.639-.274.182-.568.335-.882.466-.305.122-.619.223-.943.284-.324.07-.658.1-.993.1z" fill="#43386b"/></g><g><path d="m303.77 429.216c0-2.798 2.271-5.069 5.069-5.069 2.798 0 5.069 2.271 5.069 5.069 0 2.799-2.271 5.069-5.069 5.069-2.799.001-5.069-2.27-5.069-5.069zm0-22.325c0-2.808 2.271-5.079 5.069-5.079 2.798 0 5.069 2.271 5.069 5.079 0 2.798-2.271 5.069-5.069 5.069-2.799 0-5.069-2.271-5.069-5.069zm0-22.336c0-2.798 2.271-5.069 5.069-5.069 2.798 0 5.069 2.271 5.069 5.069 0 2.799-2.271 5.069-5.069 5.069-2.799 0-5.069-2.271-5.069-5.069z" fill="#43386b"/></g><g><path d="m308.839 456.611c-.325 0-.659-.03-.994-.101-.325-.061-.639-.162-.943-.284-.304-.132-.598-.284-.872-.466-.284-.183-.538-.396-.771-.629s-.446-.496-.639-.77c-.182-.274-.335-.568-.466-.882-.122-.304-.223-.618-.284-.943-.071-.324-.102-.659-.102-.994 0-1.328.548-2.636 1.49-3.579.233-.233.487-.446.771-.639.274-.183.568-.335.872-.466.304-.122.618-.223.943-.284.659-.132 1.328-.132 1.987 0 .324.061.639.162.943.284.314.132.608.284.882.466.274.193.538.405.771.639.943.943 1.48 2.251 1.48 3.579 0 .335-.031.669-.101.994-.061.325-.162.639-.284.943-.132.314-.284.608-.466.882-.183.274-.395.537-.629.77-.233.233-.497.446-.771.629s-.568.335-.882.466c-.305.122-.619.223-.943.284-.323.071-.657.101-.992.101z" fill="#43386b"/></g></g><g><g><path d="m492.437 296.453v-40.062l-46.132-36.496v-40.258l-303.435-13.696v40.79l-30.364 9.298v39.359c-.032.306-.04.616 0 .934l3.006 24.173c.398 3.198 4.422 6.16 9.858 7.256l33.262 6.709v38.657c.171 1.899 1.654 3.841 4.276 5.355l31.731 18.32c4.198 2.423 10.298 3.16 14.944 1.806l41.871-12.212c4.577 1.403 9.223 2.669 13.921 3.794l17.116 28.286c1.899 3.138 7.03 5.461 12.569 5.691l41.869 1.736c5.539.23 10.142-1.69 11.276-4.703l10.222-27.152c4.466-.745 8.843-1.637 13.117-2.673l45.358 15.828c5.033 1.756 11.012 1.52 14.647-.579l27.48-15.866c1.809-1.045 2.818-2.425 3.002-3.905.038-.304.032-.612 0-.923v-39.37l-1.387-.955 23.632-2.965c5.032-.632 8.294-3.13 8.161-6.177z" fill="url(#SVGID_1_)"/><path d="m484.273 302.63c5.035-.632 8.297-3.13 8.163-6.177v-40.062l-56.239-7.681-3.582 27.1 28.026 29.785z" fill="url(#SVGID_00000034803950339176555490000011975356483556146343_)"/><path d="m431.547 366.613 27.48-15.866c1.809-1.045 2.818-2.425 3.002-3.905.038-.304.032-.612 0-.923v-39.37l-90.487 4.522v40.293l45.358 15.828c5.032 1.757 11.011 1.52 14.647-.579z" fill="url(#SVGID_00000119814716185603735940000005104722034735862165_)"/><path d="m295.058 384.157 41.869 1.736c5.539.23 10.142-1.69 11.276-4.703l10.222-27.152v-40.294l-93.051-3.857v40.294l17.116 28.286c1.899 3.137 7.03 5.46 12.568 5.69z" fill="url(#SVGID_00000123401609794636865440000003745630194129083573_)"/><path d="m158.632 292.825s-.217.545-.605 1.514l.605.122v38.657c.171 1.899 1.654 3.841 4.276 5.355l31.731 18.32c4.198 2.423 10.298 3.16 14.944 1.806l41.871-12.212v-40.293z" fill="url(#SVGID_00000125600752074021233330000014878439222677297825_)"/><path d="m395.343 153.55-41.871 12.212c-4.577-1.403-9.223-2.669-13.92-3.793l-17.116-28.286c-1.899-3.139-7.03-5.462-12.569-5.691l-41.869-1.736c-5.539-.23-10.142 1.69-11.276 4.703l-10.222 27.152c-4.465.744-8.842 1.637-13.116 2.673l-45.358-15.828c-5.033-1.756-11.012-1.52-14.647.579l-27.48 15.866c-3.635 2.099-4.045 5.551-1.003 8.457l27.415 26.187c-1.794 2.467-3.34 4.995-4.629 7.573l-47.029 5.902c-5.218.655-8.543 3.312-8.146 6.51l3.006 24.173c.398 3.198 4.422 6.16 9.858 7.257l48.992 9.882c1.947 2.712 4.141 5.394 6.57 8.037l-21.152 24.174c-2.347 2.682-1.07 6.204 3.127 8.628l31.731 18.32c4.198 2.424 10.298 3.161 14.944 1.806l41.871-12.212c4.577 1.402 9.223 2.669 13.921 3.793l17.116 28.285c1.899 3.138 7.03 5.462 12.569 5.691l41.869 1.736c5.539.23 10.142-1.69 11.276-4.703l10.222-27.152c4.465-.744 8.843-1.637 13.117-2.672l45.358 15.828c5.033 1.756 11.012 1.52 14.647-.579l27.48-15.866c3.635-2.099 4.045-5.551 1.003-8.457l-27.415-26.187c1.794-2.467 3.34-4.995 4.629-7.573l47.029-5.902c5.218-.655 8.543-3.312 8.146-6.51l-3.006-24.173c-.398-3.198-4.422-6.16-9.858-7.257l-48.992-9.882c-1.947-2.712-4.141-5.394-6.57-8.037l21.152-24.174c2.347-2.682 1.07-6.204-3.127-8.628l-31.731-18.32c-4.2-2.424-10.301-3.161-14.946-1.806z" fill="url(#SVGID_00000031885826491718265840000002306404602309945487_)"/><path d="m265.374 350.18-13.921-3.793v-40.294l13.921 3.794z" fill="url(#SVGID_00000183937926349910923470000015704263506105483396_)"/><path d="m358.425 354.037v-40.293l13.117-2.673v40.294z" fill="url(#SVGID_00000013872810830840692170000001171599318255238332_)"/></g><g><path d="m401.801 230.024v16.297l-.019-.001c.371 12.649-7.075 24.775-22.671 33.779-33.61 19.405-92.317 16.971-131.127-5.435-20.644-11.919-31.499-27.088-32.079-41.598l-.026-.002v-18.578z" fill="url(#SVGID_00000181794444276550242610000018160736676654065065_)"/><path d="m238.57 181.684c33.61-19.405 92.317-16.971 131.127 5.436 38.809 22.407 43.024 56.301 9.414 75.706s-92.317 16.971-131.127-5.435c-38.809-22.407-43.024-56.302-9.414-75.707z" fill="url(#SVGID_00000164497167891732477100000013225440427836742838_)"/><path d="m274.202 202.257c16.567-9.565 45.505-8.365 64.635 2.679 19.13 11.045 21.208 27.752 4.641 37.317s-45.505 8.365-64.635-2.679c-19.13-11.045-21.208-27.752-4.641-37.317z" fill="url(#SVGID_00000088830659074341264850000016674914311322959292_)"/></g></g><g><path d="m462.528 244.698c-2.8 0-5.069-2.27-5.069-5.069v-120.52c0-2.8 2.27-5.069 5.069-5.069s5.069 2.27 5.069 5.069v120.519c0 2.8-2.27 5.07-5.069 5.07z" fill="#43386b"/></g><g><g><path d="m308.839 247.488c-1.328 0-2.636-.538-3.579-1.48-.233-.233-.446-.497-.639-.771-.182-.274-.335-.568-.466-.872-.122-.314-.223-.629-.284-.953-.071-.324-.102-.659-.102-.994 0-1.328.548-2.636 1.49-3.579.233-.233.487-.446.771-.628.274-.183.568-.345.872-.466.304-.132.618-.223.943-.294.659-.132 1.328-.132 1.987 0 .324.071.639.162.943.294.314.121.608.284.882.466s.538.395.771.628c.943.943 1.48 2.251 1.48 3.579 0 .335-.031.669-.101.994-.061.324-.162.639-.284.953-.132.304-.284.598-.466.872-.183.274-.395.538-.629.771-.233.233-.497.446-.771.629-.274.182-.578.345-.882.466-.305.132-.619.223-.943.294-.324.06-.658.091-.993.091z" fill="#43386b"/></g><g><path d="m303.77 222.718c0-2.809 2.271-5.069 5.069-5.069 2.798 0 5.069 2.261 5.069 5.069 0 2.799-2.271 5.069-5.069 5.069-2.799.001-5.069-2.27-5.069-5.069zm0-19.71c0-2.798 2.271-5.069 5.069-5.069 2.798 0 5.069 2.271 5.069 5.069 0 2.799-2.271 5.07-5.069 5.07-2.799 0-5.069-2.271-5.069-5.07zm0-19.709c0-2.798 2.271-5.07 5.069-5.07 2.798 0 5.069 2.271 5.069 5.07 0 2.798-2.271 5.069-5.069 5.069-2.799 0-5.069-2.271-5.069-5.069zm0-19.71c0-2.799 2.271-5.069 5.069-5.069 2.798 0 5.069 2.271 5.069 5.069 0 2.798-2.271 5.069-5.069 5.069-2.799 0-5.069-2.271-5.069-5.069zm0-19.7c0-2.808 2.271-5.069 5.069-5.069 2.798 0 5.069 2.261 5.069 5.069 0 2.799-2.271 5.069-5.069 5.069-2.799 0-5.069-2.271-5.069-5.069zm0-19.71c0-2.798 2.271-5.069 5.069-5.069 2.798 0 5.069 2.271 5.069 5.069 0 2.799-2.271 5.069-5.069 5.069-2.799 0-5.069-2.271-5.069-5.069zm0-19.71c0-2.798 2.271-5.069 5.069-5.069 2.798 0 5.069 2.271 5.069 5.069 0 2.799-2.271 5.069-5.069 5.069-2.799 0-5.069-2.27-5.069-5.069zm0-19.71c0-2.799 2.271-5.069 5.069-5.069 2.798 0 5.069 2.271 5.069 5.069 0 2.798-2.271 5.069-5.069 5.069-2.799.001-5.069-2.271-5.069-5.069zm0-19.7c0-2.808 2.271-5.069 5.069-5.069 2.798 0 5.069 2.261 5.069 5.069 0 2.799-2.271 5.069-5.069 5.069-2.799.001-5.069-2.27-5.069-5.069z" fill="#43386b"/></g><g><path d="m308.839 50.419c-.325 0-.659-.041-.994-.102-.325-.061-.639-.162-.943-.294-.304-.121-.598-.284-.872-.466-.284-.182-.538-.395-.771-.628-.943-.943-1.49-2.251-1.49-3.579 0-.335.03-.669.102-.994.061-.324.162-.639.284-.943.132-.314.284-.608.466-.882.193-.274.406-.538.639-.771 1.176-1.176 2.93-1.713 4.573-1.379.324.061.639.162.943.284.304.132.608.284.882.466.274.183.538.396.771.629s.446.497.629.771c.182.274.334.568.466.882.121.304.223.619.284.943.071.324.101.659.101.994 0 1.328-.538 2.636-1.48 3.579-.233.233-.497.446-.771.628-.274.183-.568.345-.882.466-.305.132-.619.233-.943.294-.325.061-.659.102-.994.102z" fill="#43386b"/></g></g><g><path d="m52.104 337.76c-.875 0-1.751-.226-2.535-.679-1.568-.906-2.535-2.579-2.535-4.39v-89.817c0-2.799 2.27-5.069 5.069-5.069s5.069 2.27 5.069 5.069v81.036l90.311-52.145c2.425-1.4 5.525-.569 6.925 1.855s.569 5.525-1.855 6.925l-97.914 56.535c-.785.453-1.66.68-2.535.68z" fill="#43386b"/></g><g><path d="m379.827 24.589-.005.01c-4.565-2.609-10.504-2.359-17.003 1.394-14.397 8.312-26.069 30.613-26.069 49.809 0 10.445 3.46 17.809 8.93 21.023l15.159 8.724 34.38-72.104z" fill="url(#SVGID_00000000209684924557392850000016132215934464368519_)"/><path d="m403.874 54.311c0-19.196-11.671-28.02-26.069-19.708-14.397 8.312-26.069 30.613-26.069 49.809s11.671 28.02 26.069 19.707c14.398-8.311 26.069-30.611 26.069-49.808z" fill="url(#SVGID_00000119832672345224648080000010254340265422256557_)"/></g><g><path d="m509.001 44.109-15.05-8.642c-1.65-.909-3.782-.806-6.113.54l-66.255 38.253c-5.232 3.021-9.473 11.125-9.473 18.101v35.695c0 3.776 1.249 6.434 3.218 7.612l14.57 8.372z" fill="url(#SVGID_00000064322422733846834820000006950354685725905563_)"/><path d="m502.526 44.436-66.256 38.253c-5.232 3.021-9.473 11.125-9.473 18.101v35.695c0 6.976 4.241 10.182 9.473 7.162l66.256-38.253c5.232-3.021 9.474-11.125 9.474-18.101v-35.696c0-6.976-4.241-10.182-9.474-7.161z" fill="url(#SVGID_00000147931444419694246120000001352935367049363865_)"/></g><g><path d="m96.892 192.548-15.05-8.642c-1.65-.909-3.782-.806-6.113.54l-66.256 38.253c-5.232 3.021-9.473 11.125-9.473 18.101v35.695c0 3.776 1.249 6.434 3.218 7.611l14.57 8.372z" fill="url(#SVGID_00000162347743922345877350000001523291369799298994_)"/><path d="m90.417 192.874-66.256 38.253c-5.232 3.021-9.473 11.125-9.473 18.101v35.695c0 6.976 4.241 10.182 9.474 7.162l66.256-38.253c5.232-3.021 9.474-11.125 9.474-18.101v-35.695c-.002-6.976-4.243-10.182-9.475-7.162z" fill="url(#SVGID_00000003067250006327312960000004918083628947157932_)"/></g><g><path d="m139.257 307.387c-3.638-2.276-8.456-2.159-13.742.893-11.333 6.543-20.52 24.097-20.52 39.207 0 8.561 2.95 14.499 7.567 16.85l68.284 38.722 27.573-56.438z" fill="url(#SVGID_00000056394178648459672110000004245615066775753379_)"/><path d="m172.227 322.839c-3.988-2.495-9.27-2.367-15.065.979-12.424 7.173-22.495 26.416-22.495 42.981 0 9.385 3.233 15.895 8.295 18.472l32.828 18.543c8.443 4.769 19.158 1.441 23.414-7.271l15.417-31.558c3.911-8.004.911-17.67-6.845-22.053z" fill="url(#SVGID_00000132809406569054753230000013969908914615722632_)"/><path d="m207.621 346.228c-3.681-2.303-8.557-2.185-13.905.903-11.467 6.62-20.764 24.383-20.764 39.672 0 8.662 2.985 14.671 7.657 17.05l140.536 79.501 27.9-57.108z" fill="url(#SVGID_00000178171750837680731120000017050277772593855671_)"/><path d="m384.36 489.116c4.59.319 7.475-4.853 4.792-8.59l-36.583-50.966c-.012-.016-.023-.032-.035-.049-3.734-5.188-10.043-6.372-17.199-2.241-11.467 6.621-20.764 24.383-20.764 39.673 0 11.367 5.14 18.161 12.488 18.182z" fill="url(#SVGID_00000101793001843378025790000015963383817767145624_)"/><path d="m366.598 487.879 17.761 1.237c4.589.319 7.475-4.853 4.792-8.59l-11.528-16.06-.007.013c-1.554-2.553-4.38-3.238-7.618-1.368-4.91 2.835-8.89 10.439-8.89 16.986 0 4.441 1.835 7.247 4.546 7.712l-.002.004.029.002c.297.049.602.072.917.064z" fill="#43386b"/></g></g></svg>