<svg id="Capa_1" enable-background="new 0 0 512 512" height="512" viewBox="0 0 512 512" width="512" xmlns="http://www.w3.org/2000/svg" xmlns:xlink="http://www.w3.org/1999/xlink"><linearGradient id="SVGID_1_" gradientUnits="userSpaceOnUse" x1="213.668" x2="236.932" y1="329.318" y2="289.023"><stop offset="0" stop-color="#c5baeb"/><stop offset="1" stop-color="#f2effa"/></linearGradient><linearGradient id="SVGID_2_" gradientUnits="userSpaceOnUse" x1="169.46" x2="187.817" y1="297.708" y2="265.914"><stop offset="0" stop-color="#59acf9"/><stop offset="1" stop-color="#79d3fe"/></linearGradient><linearGradient id="SVGID_3_" gradientTransform="matrix(.866 -.5 0 1.155 286.805 1526.899)" gradientUnits="userSpaceOnUse" x1="-26.361" x2="-26.361" y1="-878.914" y2="-1163.673"><stop offset="0" stop-color="#c5baeb"/><stop offset="1" stop-color="#e9e5f6"/></linearGradient><linearGradient id="SVGID_4_" gradientUnits="userSpaceOnUse" x1="296.487" x2="234.784" y1="85.652" y2="192.525"><stop offset="0" stop-color="#00568d"/><stop offset=".9916" stop-color="#0197f8"/></linearGradient><g><path d="m440.14 11.691-.006-.003c-.314-.19-.628-.379-.952-.548l-15.633-8.998-.003.003c-6.024-3.305-13.805-2.908-22.307 2.001l-306.429 176.917c-19.111 11.034-34.603 40.634-34.603 66.115v225.336c0 14.554 5.059 24.605 12.955 28.502l14.307 8.26c6.148 3.916 14.321 3.75 23.292-1.429l306.429-176.916c19.11-11.034 34.603-40.634 34.603-66.115v-225.336c0-13.737-4.508-23.462-11.653-27.789z" fill="url(#SVGID_1_)"/><path d="m76.158 286.406 375.635-216.873v-.001-30.052c0-13.737-4.508-23.462-11.653-27.789l-.006-.004c-.314-.19-.628-.379-.952-.548l-15.633-8.998-.003.004c-6.024-3.305-13.805-2.908-22.307 2.001l-306.429 176.917c-19.111 11.034-34.603 40.634-34.603 66.115v30.019z" fill="url(#SVGID_2_)"/><path d="m417.19 330.93-306.429 176.918c-19.11 11.033-34.603-.678-34.603-26.159v-225.337c0-25.481 15.492-55.081 34.603-66.115l306.429-176.917c19.111-11.033 34.603.678 34.603 26.159v225.336c0 25.481-15.492 55.082-34.603 66.115z" fill="url(#SVGID_3_)"/><path d="m417.19 13.32-306.43 176.917c-19.111 11.033-34.603 40.634-34.603 66.115v30.054l375.636-216.873v-30.053c0-25.481-15.492-37.193-34.603-26.16z" fill="#0197f8"/><g fill="#43386b"><path d="m235.1 249.866c0 5.088 5.508 8.268 9.914 5.724l170.092-98.202c7.207-4.161 11.646-11.85 11.646-20.171 0-5.088-5.508-8.268-9.914-5.724l-170.092 98.203c-7.206 4.159-11.646 11.849-11.646 20.17z"/><path d="m235.1 303.66c0 5.088 5.508 8.268 9.914 5.724l170.092-98.202c7.207-4.161 11.646-11.85 11.646-20.171 0-5.088-5.508-8.267-9.914-5.724l-170.092 98.202c-7.206 4.16-11.646 11.85-11.646 20.171z"/><path d="m235.1 356.203c0 5.088 5.508 8.267 9.914 5.724l128.572-73.767c7.207-4.161 11.646-11.85 11.646-20.171 0-5.088-5.508-8.267-9.914-5.724l-128.572 73.767c-7.206 4.16-11.646 11.85-11.646 20.171z"/></g><g><path d="m105.832 311.051 103.1-59.524v150.616l-103.1 59.525z" fill="#0197f8"/><path d="m168.264 379.627-.384.058v-8.174c9.113-10.639 15.474-26.465 15.474-40.607 0-19.125-11.628-27.915-25.972-19.634-14.344 8.282-25.972 30.499-25.972 49.624 0 13.876 6.124 22.304 14.962 22.727v8.705c-14.922 15.057-25.04 39.43-25.04 60.357l36.05-20.814 36.05-20.813c0-20.989-10.175-33.695-25.168-31.429z" fill="#fff"/></g><path d="m234.591 134.414 59.55-34.381c9.262-5.347 20.838 1.337 20.838 12.031 0 10.22-5.452 19.664-14.303 24.774l-59.55 34.381c-9.262 5.347-20.838-1.337-20.838-12.031 0-10.22 5.453-19.663 14.303-24.774z" fill="url(#SVGID_4_)"/><path d="m234.591 134.415c-8.851 5.11-14.303 14.554-14.303 24.774 0 1.708.298 3.313.832 4.784 1.542-.273 3.081-.817 4.56-1.671l59.55-34.381c8.851-5.11 14.303-14.554 14.303-24.774 0-1.709-.298-3.313-.833-4.784-1.542.273-3.081.817-4.56 1.671z" fill="#fff"/></g></svg>