<svg id="Capa_1" enable-background="new 0 0 512 512" height="512" viewBox="0 0 512 512" width="512" xmlns="http://www.w3.org/2000/svg" xmlns:xlink="http://www.w3.org/1999/xlink"><linearGradient id="SVGID_1_" gradientUnits="userSpaceOnUse" x1="296.9" x2="350.744" y1="371.499" y2="371.499"><stop offset="0" stop-color="#b096ed"/><stop offset=".2393" stop-color="#c4b1ef"/><stop offset=".5371" stop-color="#d8cdf1"/><stop offset=".8006" stop-color="#e4ddf3"/><stop offset="1" stop-color="#e8e3f3"/></linearGradient><linearGradient id="SVGID_2_" gradientUnits="userSpaceOnUse" x1="74.224" x2="404.632" y1="429.852" y2="190.307"><stop offset="0" stop-color="#b096ed"/><stop offset=".0014" stop-color="#b096ed"/><stop offset=".299" stop-color="#cdbcf3"/><stop offset=".5742" stop-color="#e2d7f7"/><stop offset=".8165" stop-color="#efe8f9"/><stop offset="1" stop-color="#f3eefa"/></linearGradient><linearGradient id="SVGID_3_" gradientUnits="userSpaceOnUse" x1="648.534" x2="110.706" y1="542.047" y2="207.97"><stop offset="0" stop-color="#45356d"/><stop offset=".2699" stop-color="#544081"/><stop offset="1" stop-color="#7e62c0"/></linearGradient><linearGradient id="SVGID_4_" gradientUnits="userSpaceOnUse" x1="392.55" x2="330.828" y1="303.875" y2="196.97"><stop offset="0" stop-color="#00daac"/><stop offset="1" stop-color="#61efde"/></linearGradient><linearGradient id="SVGID_5_" gradientUnits="userSpaceOnUse" x1="184.165" x2="247.918" y1="287.151" y2="176.727"><stop offset="0" stop-color="#ff4557"/><stop offset="1" stop-color="#ff7b86"/></linearGradient><linearGradient id="SVGID_6_" gradientUnits="userSpaceOnUse" x1="161.487" x2="323.937" y1="12.374" y2="141.784"><stop offset="0" stop-color="#ffe026"/><stop offset=".1385" stop-color="#ffe12c"/><stop offset=".3214" stop-color="#ffe33d"/><stop offset=".5292" stop-color="#ffe758"/><stop offset=".7555" stop-color="#ffeb7e"/><stop offset=".9942" stop-color="#fff2af"/><stop offset="1" stop-color="#fff2b0"/></linearGradient><g><g><path d="m511.991 367.233v-31.917l-511.99-74.404v32.808.015s0 9.887 8.556 14.831l290.608 168.002c12.713 7.349 28.382 7.358 41.104.021l163.16-94.093c8.562-4.94 8.562-15.263 8.562-15.263z" fill="url(#SVGID_1_)"/><path d="m171.732 152.172-163.16 94.094c-11.422 6.587-11.431 23.069-.016 29.668l290.608 168.002c12.713 7.35 28.382 7.358 41.104.022l163.16-94.094c11.422-6.587 11.431-23.069.016-29.668l-290.609-168.002c-12.713-7.35-28.382-7.358-41.103-.022z" fill="url(#SVGID_2_)"/><path d="m481.063 328.359-287.368-166.156c-2.655-1.533-10.397-.895-13.941 1.148l-25.208 14.533c5.985 3.455 4.756 8.422-3.224 13.029l-76.709 44.288c-5.776 3.335-18.41 4.377-22.742 1.876l-25.323 14.599c-7.235 4.177-8.361 8.726-2.924 11.865l287.368 166.156c2.655 1.533 10.397.895 13.941-1.148l153.207-88.325c7.234-4.177 8.359-8.726 2.923-11.865z" fill="url(#SVGID_3_)"/></g><g><g><path d="m421.541 109.595-138.011 79.681v170.265l138.011-79.681z" fill="url(#SVGID_4_)"/><path d="m145.518 109.595 138.012 79.681v170.265l-138.012-79.681z" fill="url(#SVGID_5_)"/><path d="m145.518 109.595 138.012-79.681 138.011 79.681-138.011 79.681z" fill="url(#SVGID_6_)"/></g></g><path d="m450.472 139.192 12.669 1.241c3.215.313 6.065-2.032 6.379-5.241s-2.032-6.065-5.241-6.379l-38.805-3.802 3.532 28.137c.37 2.952 2.884 5.111 5.785 5.111.243 0 .488-.015.734-.046 3.199-.401 5.467-3.32 5.065-6.519l-.837-6.669c14.731 13.636 22.069 29.594 21.332 46.745-1.162 27.053-22.802 54.678-59.37 75.79-73.627 42.508-185.226 47.243-248.773 10.554-23.947-13.826-38.014-31.753-40.681-51.844-2.641-19.893 5.955-40.443 24.858-59.429 2.275-2.285 2.267-5.98-.018-8.255-2.286-2.275-5.982-2.267-8.256.018-21.249 21.341-31.25 45.918-28.159 69.203 3.162 23.82 19.213 44.712 46.418 60.418 29.545 17.058 69.394 26.224 113.333 26.223 4.409 0 8.863-.092 13.347-.278 49.014-2.032 96.521-14.994 133.768-36.499 20.233-11.681 36.188-25.12 47.423-39.943 11.129-14.683 17.109-29.977 17.774-45.458.831-19.279-6.979-37.645-22.277-53.078z" fill="#45356d"/></g></svg>