<svg id="Capa_1" enable-background="new 0 0 512 512" height="512" viewBox="0 0 512 512" width="512" xmlns="http://www.w3.org/2000/svg" xmlns:xlink="http://www.w3.org/1999/xlink"><linearGradient id="lg1"><stop offset="0" stop-color="#c5baeb"/><stop offset=".9662" stop-color="#fff"/></linearGradient><linearGradient id="SVGID_1_" gradientUnits="userSpaceOnUse" x1="256" x2="256" xlink:href="#lg1" y1="174.262" y2="594.726"/><linearGradient id="SVGID_2_" gradientUnits="userSpaceOnUse" x1="212.275" x2="428.734" xlink:href="#lg1" y1="98.116" y2="-26.857"/><linearGradient id="SVGID_3_" gradientUnits="userSpaceOnUse" x1="259.473" x2="259.473" y1="716.403" y2="-18.096"><stop offset="0" stop-color="#c5baeb"/><stop offset=".0623" stop-color="#c9bfec"/><stop offset=".6642" stop-color="#f0edfa"/><stop offset=".9662" stop-color="#fff"/></linearGradient><linearGradient id="SVGID_4_" gradientUnits="userSpaceOnUse" x1="190.597" x2="212.413" y1="210.658" y2="248.445"><stop offset="0" stop-color="#7662bd"/><stop offset="1" stop-color="#7662bd" stop-opacity="0"/></linearGradient><linearGradient id="SVGID_5_" gradientUnits="userSpaceOnUse" x1="200.024" x2="173.052" y1="190.45" y2="174.877"><stop offset="0" stop-color="#c5baeb"/><stop offset=".2131" stop-color="#cbc1ed"/><stop offset=".5266" stop-color="#dcd5f3"/><stop offset=".9004" stop-color="#f7f5fc"/><stop offset="1" stop-color="#fff"/></linearGradient><g><path d="m382.253 3.981-6.947-3.981-154.71 89.31-90.849 173.583v245.126l6.947 3.981z" fill="url(#SVGID_1_)"/><path d="m224.851 94.844-4.255-5.534 154.71-89.31 6.947 3.981z" fill="url(#SVGID_2_)"/><path d="m136.694 512v-245.126l88.157-172.03 157.402-90.863v366.245z" fill="url(#SVGID_3_)"/><g><g><path d="m280.542 137.667-101.653 58.531c-4.41 2.546-7.986 9.377-7.986 15.257 0 5.88 3.575 8.583 7.986 6.037l101.653-58.531c4.41-2.546 7.985-9.377 7.985-15.257 0-5.881-3.575-8.584-7.985-6.037z" fill="#43386b"/></g><g><path d="m345.826 167.411-166.937 97.706c-4.41 2.546-7.986 9.377-7.986 15.257 0 5.88 3.575 8.583 7.986 6.037l166.937-97.706c4.41-2.546 7.985-9.377 7.985-15.257 0-5.881-3.575-8.583-7.985-6.037z" fill="#43386b"/></g><g><path d="m345.826 227.87-166.937 97.706c-4.41 2.546-7.986 9.377-7.986 15.257 0 5.88 3.575 8.583 7.986 6.037l166.937-97.706c4.41-2.546 7.985-9.377 7.985-15.257 0-5.881-3.575-8.584-7.985-6.037z" fill="#43386b"/></g><g><path d="m345.826 288.328-166.937 97.706c-4.41 2.546-7.986 9.377-7.986 15.257 0 5.88 3.575 8.583 7.986 6.037l166.937-97.707c4.41-2.546 7.985-9.377 7.985-15.257 0-5.88-3.575-8.582-7.985-6.036z" fill="#43386b"/></g></g><path d="m129.747 262.893 6.947 21.983 90.848-52.452v-125.356z" fill="url(#SVGID_4_)"/><path d="m220.596 89.31-90.849 173.583c4.301 2.465 9.588 2.456 13.88-.022l83.915-48.449v-113.125c0-4.952-2.65-9.525-6.946-11.987z" fill="url(#SVGID_5_)"/></g></svg>