<svg id="Capa_1" enable-background="new 0 0 512 512" height="512" viewBox="0 0 512 512" width="512" xmlns="http://www.w3.org/2000/svg" xmlns:xlink="http://www.w3.org/1999/xlink"><linearGradient id="SVGID_1_" gradientUnits="userSpaceOnUse" x1="168.326" x2="199.797" y1="249.325" y2="194.815"><stop offset=".0319" stop-color="#b096ed"/><stop offset=".1442" stop-color="#b9a3ee"/><stop offset=".5109" stop-color="#d4c7f3"/><stop offset=".8092" stop-color="#e4ddf5"/><stop offset="1" stop-color="#eae5f6"/></linearGradient><linearGradient id="lg1"><stop offset="0" stop-color="#e1daef"/><stop offset="1" stop-color="#fff"/></linearGradient><linearGradient id="SVGID_00000057109037947745930560000002954871544175519618_" gradientUnits="userSpaceOnUse" x1="271.136" x2="271.136" xlink:href="#lg1" y1="521.951" y2="176.19"/><linearGradient id="lg2"><stop offset="0" stop-color="#221c36"/><stop offset="1" stop-color="#43386b"/></linearGradient><linearGradient id="SVGID_00000027563875231070610220000012470052616039218073_" gradientUnits="userSpaceOnUse" x1="174.411" x2="190.091" xlink:href="#lg2" y1="238.785" y2="211.626"/><linearGradient id="lg3"><stop offset="0" stop-color="#45356d"/><stop offset=".2699" stop-color="#544081"/><stop offset="1" stop-color="#7e62c0"/></linearGradient><linearGradient id="SVGID_00000016766734738905440600000000312534365570066835_" gradientUnits="userSpaceOnUse" x1="389.548" x2="246.261" xlink:href="#lg3" y1="352.244" y2="108.442"/><linearGradient id="SVGID_00000112600879840852283910000002864037364307574673_" gradientUnits="userSpaceOnUse" x1="386.792" x2="404.083" y1="74.197" y2="44.248"><stop offset="0" stop-color="#c62834"/><stop offset=".1715" stop-color="#e03544"/><stop offset=".3507" stop-color="#ff4557"/><stop offset=".5048" stop-color="#ff717e"/><stop offset=".6463" stop-color="#ff959e"/><stop offset="1" stop-color="#ff7b86"/></linearGradient><linearGradient id="SVGID_00000128487351705141420790000000929911718297188020_" gradientTransform="matrix(.866 -.5 0 1.155 34.128 682.443)" gradientUnits="userSpaceOnUse" x1="423.199" x2="423.199" y1="-323.233" y2="-369.653"><stop offset="0" stop-color="#c62834"/><stop offset="1" stop-color="#ff4557"/></linearGradient><linearGradient id="SVGID_00000173878746704650272820000010322543335222007228_" gradientUnits="userSpaceOnUse" x1="401.774" x2="401.774" xlink:href="#lg1" y1="85.556" y2="49.173"/><linearGradient id="SVGID_00000016073076168365616380000001858919797900479935_" gradientUnits="userSpaceOnUse" x1="336.365" x2="353.656" y1="103.344" y2="73.395"><stop offset=".0319" stop-color="#b096ed"/><stop offset=".0645" stop-color="#b9a3ee"/><stop offset=".1414" stop-color="#cbbbf1"/><stop offset=".2286" stop-color="#d9cef3"/><stop offset=".3305" stop-color="#e3dbf5"/><stop offset=".4611" stop-color="#e8e3f6"/><stop offset=".719" stop-color="#eae5f6"/><stop offset=".7626" stop-color="#e0daf0"/><stop offset=".8254" stop-color="#dbd3ed"/><stop offset="1" stop-color="#d9d1ec"/></linearGradient><linearGradient id="SVGID_00000175293325869986405380000007621045629424109483_" gradientTransform="matrix(.866 -.5 0 1.155 34.128 682.443)" gradientUnits="userSpaceOnUse" x1="364.969" x2="364.969" xlink:href="#lg1" y1="-323.205" y2="-369.625"/><linearGradient id="SVGID_00000056410980803054570480000017018033530283055747_" gradientUnits="userSpaceOnUse" x1="180.737" x2="192.632" y1="309.2" y2="288.599"><stop offset="0" stop-color="#e37a34"/><stop offset="1" stop-color="#ffa538"/></linearGradient><linearGradient id="SVGID_00000023262927517919251800000004293449579054025901_" gradientTransform="matrix(.866 -.5 0 1.155 376.447 2152.343)" gradientUnits="userSpaceOnUse" x1="-177.602" x2="-177.602" y1="-1573.034" y2="-1723.972"><stop offset="0" stop-color="#ffc538"/><stop offset="1" stop-color="#f7e041"/></linearGradient><linearGradient id="SVGID_00000095323943907989786550000008891771095673855647_" gradientUnits="userSpaceOnUse" x1="188.277" x2="188.277" xlink:href="#lg2" y1="387.061" y2="298.812"/><linearGradient id="SVGID_00000012435112157074996480000007287164612257402269_" gradientUnits="userSpaceOnUse" x1="260.486" x2="260.486" xlink:href="#lg2" y1="355.644" y2="267.422"/><linearGradient id="SVGID_00000023255010707799958900000015789477315171280785_" gradientUnits="userSpaceOnUse" x1="225.512" x2="225.512" xlink:href="#lg2" y1="377.251" y2="278.326"/><linearGradient id="SVGID_00000016061692365476847250000016616533690124911502_" gradientTransform="matrix(.866 -.5 0 1.155 377.103 1962.443)" gradientUnits="userSpaceOnUse" x1="-211.219" x2="-211.219" xlink:href="#lg3" y1="-1451.027" y2="-1521.229"/><linearGradient id="SVGID_00000114767027692778331290000016504471724537355177_" gradientTransform="matrix(.866 -.5 0 1.155 377.103 1962.443)" gradientUnits="userSpaceOnUse" x1="-123.55" x2="-123.55" xlink:href="#lg3" y1="-1451.026" y2="-1521.229"/><linearGradient id="SVGID_00000049200527607856002060000001913359724912815757_" gradientTransform="matrix(.866 -.5 0 1.155 377.103 1962.443)" gradientUnits="userSpaceOnUse" x1="-168.234" x2="-168.234" xlink:href="#lg3" y1="-1451.027" y2="-1521.229"/><linearGradient id="lg4"><stop offset="0" stop-color="#2f97f7"/><stop offset="1" stop-color="#79d3fe"/></linearGradient><linearGradient id="SVGID_00000008131447052906392220000011745165912195093159_" gradientUnits="userSpaceOnUse" x1="358.847" x2="358.847" xlink:href="#lg4" y1="351.61" y2="177.048"/><linearGradient id="lg5"><stop offset="0" stop-color="#0072bc"/><stop offset="1" stop-color="#0072bc" stop-opacity="0"/></linearGradient><linearGradient id="SVGID_00000082356965943680516250000012486582074204233885_" gradientUnits="userSpaceOnUse" x1="346.839" x2="344.131" xlink:href="#lg5" y1="249.188" y2="253.878"/><linearGradient id="SVGID_00000153686405703587925610000003865180609131607702_" gradientUnits="userSpaceOnUse" x1="380.068" x2="391.183" xlink:href="#lg5" y1="231.21" y2="211.958"/><linearGradient id="SVGID_00000054263550783014453910000010176180552579259029_" gradientUnits="userSpaceOnUse" x1="352.613" x2="356.651" xlink:href="#lg5" y1="235.68" y2="228.686"/><linearGradient id="SVGID_00000060746280185585670320000014824708544288575894_" gradientUnits="userSpaceOnUse" x1="352.105" x2="352.105" xlink:href="#lg5" y1="339.505" y2="353.968"/><linearGradient id="SVGID_00000107583478417024255160000013430854213218286991_" gradientUnits="userSpaceOnUse" x1="315.286" x2="319.29" xlink:href="#lg5" y1="309.119" y2="302.184"/><linearGradient id="SVGID_00000136381567196667266050000002038020378488712360_" gradientUnits="userSpaceOnUse" x1="323.421" x2="326.507" xlink:href="#lg5" y1="278.064" y2="272.718"/><linearGradient id="SVGID_00000052071359561957027200000005113870718648153772_" gradientUnits="userSpaceOnUse" x1="337.398" x2="321.921" xlink:href="#lg5" y1="325.539" y2="351.419"/><linearGradient id="SVGID_00000018232986918595928230000007686769627234753674_" gradientTransform="matrix(.866 -.5 0 1.155 119.396 1095.267)" gradientUnits="userSpaceOnUse" x1="285.931" x2="285.931" xlink:href="#lg4" y1="-509.323" y2="-642.808"/><linearGradient id="SVGID_00000065780919556202843800000012839996345554654851_" gradientTransform="matrix(.866 -.5 0 1.155 119.396 1095.267)" gradientUnits="userSpaceOnUse" x1="285.93" x2="285.93" xlink:href="#lg4" y1="-610.686" y2="-530.955"/><linearGradient id="SVGID_00000052818382393018143590000001265012623852461739_" gradientUnits="userSpaceOnUse" x1="382.014" x2="353.599" xlink:href="#lg4" y1="283.544" y2="332.76"/><linearGradient id="SVGID_00000119833584155692213690000001996506730586138256_" gradientUnits="userSpaceOnUse" x1="328.515" x2="324.912" xlink:href="#lg5" y1="284.293" y2="290.534"/><g><path d="m421.803 19.304-30.401-17.699c-3.481-2.279-8.132-2.217-13.244.735l-274.586 158.532c-10.783 6.226-19.523 22.927-19.523 37.303v279.113c0 8.493 3.052 13.741 7.772 16.299l21.1 12.27 7.315 4.282z" fill="url(#SVGID_1_)"/><path d="m408.428 19.949-274.585 158.532c-10.782 6.225-19.523 22.927-19.523 37.303v279.113c0 14.377 8.741 20.984 19.523 14.759l274.586-158.532c10.782-6.225 19.523-22.927 19.523-37.303v-279.112c0-14.377-8.741-20.985-19.524-14.76z" fill="url(#SVGID_00000057109037947745930560000002954871544175519618_)"/><path d="m114.319 273.887 307.484-254.583-30.401-17.699c-3.481-2.279-8.132-2.217-13.244.735l-274.586 158.532c-10.782 6.226-19.523 22.927-19.523 37.303v58.234z" fill="url(#SVGID_00000027563875231070610220000012470052616039218073_)"/><path d="m408.428 19.949-274.585 158.532c-10.782 6.225-19.523 22.927-19.523 37.303v58.102l313.632-181.075v-58.102c0-14.377-8.741-20.985-19.524-14.76z" fill="url(#SVGID_00000016766734738905440600000000312534365570066835_)"/><g><g><path d="m412.276 46.323-6.607-3.802c-3.15-1.756-7.229-1.562-11.689 1.013-9.969 5.755-18.049 21.196-18.049 34.487 0 7.523 2.59 12.743 6.645 14.814l6.341 3.67z" fill="url(#SVGID_00000112600879840852283910000002864037364307574673_)"/><path d="m418.668 61.006c0-13.291-8.081-19.401-18.049-13.645-9.969 5.755-18.049 21.196-18.049 34.487s8.081 19.4 18.049 13.645 18.049-21.196 18.049-34.487z" fill="url(#SVGID_00000128487351705141420790000000929911718297188020_)"/><path d="m405.119 68.507 4.641-8.867c.924-1.765.924-3.762 0-4.46s-2.421.166-3.345 1.931l-4.641 8.867-4.641-3.508c-.924-.698-2.421.166-3.345 1.931s-.924 3.762 0 4.46l4.641 3.508-4.641 8.867c-.924 1.765-.924 3.762 0 4.46.462.349 1.067.308 1.673-.042.605-.35 1.211-1.007 1.672-1.889l4.641-8.867 4.641 3.508c.462.349 1.067.308 1.673-.042.605-.35 1.211-1.007 1.672-1.889.924-1.765.924-3.762 0-4.46z" fill="url(#SVGID_00000173878746704650272820000010322543335222007228_)"/></g></g><g><g><path d="m361.849 75.47-6.607-3.802c-3.15-1.756-7.229-1.562-11.689 1.013-9.968 5.755-18.049 21.196-18.049 34.487 0 7.523 2.59 12.743 6.645 14.814l6.341 3.67z" fill="url(#SVGID_00000016073076168365616380000001858919797900479935_)"/><path d="m368.241 90.153c0-13.291-8.081-19.4-18.049-13.645-9.969 5.755-18.05 21.196-18.05 34.487s8.081 19.4 18.05 13.645c9.968-5.756 18.049-21.196 18.049-34.487z" fill="url(#SVGID_00000175293325869986405380000007621045629424109483_)"/></g></g><g><path d="m360.095 93.094-17.883 10.325c-1.299.75-2.352 2.762-2.352 4.494 0 1.732 1.053 2.528 2.352 1.778l17.883-10.325c1.299-.75 2.352-2.762 2.352-4.495 0-1.731-1.053-2.527-2.352-1.777z" fill="#7e62c0"/></g><g><g><path d="m387.999 143.283-69.067 40.113c-3.087 1.782-5.59 6.564-5.59 10.68 0 4.116 2.503 6.008 5.59 4.226l69.067-40.112c3.087-1.783 5.59-6.564 5.59-10.681 0-4.117-2.503-6.009-5.59-4.226z" fill="#403566"/></g><g><path d="m387.999 167.963-69.067 40.112c-3.087 1.782-5.59 6.564-5.59 10.681 0 4.116 2.503 6.008 5.59 4.226l69.067-40.113c3.087-1.783 5.59-6.564 5.59-10.681 0-4.115-2.503-6.007-5.59-4.225z" fill="#403566"/></g></g><g><path d="m285.673 216.509-14.693-8.432c-2.627-1.447-6.019-1.283-9.729.859l-105.448 60.88c-8.326 4.808-15.077 17.705-15.077 28.808v111.906c0 6.009 1.988 10.24 5.122 12.114l13.93 8.003z" fill="url(#SVGID_00000056410980803054570480000017018033530283055747_)"/><path d="m275.368 217.028-105.447 60.88c-8.327 4.808-15.077 17.705-15.077 28.808v111.906c0 11.103 6.75 16.206 15.077 11.398l105.447-60.88c8.327-4.807 15.077-17.705 15.077-28.808v-111.906c0-11.102-6.75-16.206-15.077-11.398z" fill="url(#SVGID_00000023262927517919251800000004293449579054025901_)"/><g><g><path d="m189.842 350.925 19.64-44.405-9.339-5.387c-2.663-1.838-6.87.638-9.482 5.629l-21.598 41.267c-2.654 5.071-2.654 10.808 0 12.814l21.998 16.596 9.615 5.566z" fill="url(#SVGID_00000095323943907989786550000008891771095673855647_)"/><path d="m277.979 299.818-14.235-24.736-9.623-5.57v.001c-2.669-1.373-6.613 1.107-9.104 5.867-2.654 5.071-2.654 10.808 0 12.814l16.792 12.695-16.826 32.15c-2.654 5.071-2.654 10.808 0 12.814.092.07 9.854 5.737 9.854 5.737z" fill="url(#SVGID_00000012435112157074996480000007287164612257402269_)"/><path d="m235.123 280.748s-1.245-.533-2.003-.501c-3.482.146-7.44 4.683-8.838 10.135l-17.359 67.662c-1.09 4.248-.298 7.787 1.749 9.077l9.617 5.586 26.302-86.477z" fill="url(#SVGID_00000023255010707799958900000015789477315171280785_)"/></g><g><g><path d="m205.004 382.582c-1.739 1.004-3.478 1.124-4.805.12l-21.632-16.353c-2.654-2.006-2.654-7.743 0-12.814l21.598-41.267c2.653-5.07 6.956-7.555 9.61-5.548 2.654 2.006 2.654 7.743 0 12.814l-16.792 32.086 16.826 12.721c2.654 2.006 2.654 7.743 0 12.814-1.327 2.534-3.066 4.423-4.805 5.427z" fill="url(#SVGID_00000016061692365476847250000016616533690124911502_)"/></g><g><path d="m259.293 351.238c-1.739 1.004-3.478 1.123-4.805.12-2.654-2.006-2.654-7.743 0-12.814l16.826-32.15-16.792-12.695c-2.654-2.006-2.654-7.743 0-12.814s6.957-7.555 9.61-5.549l21.598 16.328c2.654 2.006 2.654 7.743 0 12.814l-21.632 41.331c-1.327 2.536-3.065 4.425-4.805 5.429z" fill="url(#SVGID_00000114767027692778331290000016504471724537355177_)"/></g><g><path d="m222.731 372.35c-.843.487-1.7.771-2.53.806-3.483.146-5.173-4.155-3.774-9.606l17.359-67.662c1.398-5.452 5.357-9.989 8.838-10.135 3.483-.146 5.173 4.155 3.774 9.606l-17.359 67.662c-1.065 4.151-3.615 7.774-6.308 9.329z" fill="url(#SVGID_00000049200527607856002060000001913359724912815757_)"/></g></g></g></g><g><path d="m359.477 356.09 53.689-102.463-15.113-8.671-1.418-21.166-15.523-8.985-.001.001c-.978-.559-2.388.051-3.53 1.558l-5.157 6.806-13.424-7.754c-.559-.368-1.304-.352-2.107.112l-10.471 6.045c-1.385.8-2.602 2.728-2.982 4.723l-3.419 17.983c-1.156 1.213-2.284 2.487-3.381 3.819l-10.907-1.8c-1.21-.2-2.721.953-3.7 2.825l-7.404 14.147c-.979 1.871-1.19 4.007-.517 5.232l6.073 11.037c-.524 1.764-.991 3.539-1.4 5.316l-12.007 11.49c-1.332 1.275-2.251 3.428-2.251 5.275v13.961c0 1.207.394 2.088 1.038 2.483l-.001.001.041.024c.024.014.047.029.071.041l12.557 7.255-4.121 12.247c-.674 2.003-.463 3.895.517 4.635l23.112 14.67 6.914-9.404z" fill="url(#SVGID_00000008131447052906392220000011745165912195093159_)"/><path d="m336.642 248.099 15.353 8.873 3.381-3.819-15.353-8.873z" fill="url(#SVGID_00000082356965943680516250000012486582074204233885_)"/><path d="m377.85 241.202h6.817l11.969-17.412-15.523-8.985-.001.001c-.978-.559-2.388.051-3.53 1.558l-5.157 6.806 1.886 1.089z" fill="url(#SVGID_00000153686405703587925610000003865180609131607702_)"/><path d="m356.894 215.529-10.471 6.045c-1.385.8-2.602 2.728-2.982 4.723l-3.419 17.983 15.353 8.873 18.935-28.893-1.886-1.089-13.424-7.754c-.559-.369-1.304-.352-2.106.112z" fill="url(#SVGID_00000054263550783014453910000010176180552579259029_)"/><path d="m344.656 347.534 7.542-9.106 7.355.678-.076 16.984z" fill="url(#SVGID_00000060746280185585670320000014824708544288575894_)"/><path d="m321.116 327.04 13.024-33.311-15.353-8.873-12.007 11.49c-1.332 1.275-2.251 3.428-2.251 5.275v13.961c0 1.207.394 2.088 1.038 2.483l-.001.001.041.024c.024.014.047.029.071.041l12.557 7.255z" fill="url(#SVGID_00000107583478417024255160000013430854213218286991_)"/><path d="m314.114 268.503 6.073 11.037 15.353 8.873 1.848-30.416-15.353-8.873-7.404 14.147c-.98 1.872-1.191 4.007-.517 5.232z" fill="url(#SVGID_00000136381567196667266050000002038020378488712360_)"/><path d="m336.636 321.275-15.521 5.766-2.881-1.655-4.121 12.247c-.674 2.003-.463 3.895.517 4.635l23.112 14.67.714-.971z" fill="url(#SVGID_00000052071359561957027200000005113870718648153772_)"/><path d="m411.89 253.398-12.007 2.374c-.409-1.305-.876-2.54-1.4-3.699l6.073-18.049c.674-2.003.463-3.895-.517-4.635l-7.404-5.597c-.979-.74-2.49-.15-3.7 1.448l-10.907 14.395c-1.096-.066-2.225-.037-3.381.085l-3.419-14.036c-.379-1.557-1.596-2.08-2.982-1.28l-10.471 6.045c-1.385.8-2.602 2.728-2.982 4.723l-3.418 17.983c-1.156 1.213-2.285 2.487-3.381 3.819l-10.907-1.8c-1.21-.2-2.721.953-3.7 2.825l-7.404 14.147c-.979 1.871-1.19 4.007-.516 5.232l6.073 11.037c-.524 1.764-.991 3.539-1.4 5.316l-12.007 11.49c-1.332 1.275-2.251 3.428-2.251 5.275v13.961c0 1.847.919 2.939 2.251 2.676l12.007-2.374c.409 1.305.876 2.54 1.4 3.699l-6.073 18.049c-.674 2.003-.463 3.895.516 4.635l7.404 5.597c.979.741 2.49.15 3.7-1.448l10.907-14.395c1.096.066 2.225.037 3.381-.085l3.418 14.036c.379 1.557 1.596 2.08 2.982 1.28l10.471-6.046c1.385-.8 2.602-2.728 2.982-4.723l3.419-17.983c1.156-1.213 2.284-2.487 3.381-3.819l10.907 1.8c1.21.2 2.721-.953 3.7-2.825l7.404-14.147c.979-1.871 1.19-4.007.517-5.232l-6.073-11.037c.524-1.764.991-3.539 1.4-5.316l12.007-11.49c1.332-1.275 2.251-3.428 2.251-5.275v-13.961c.001-1.847-.918-2.939-2.251-2.675z" fill="url(#SVGID_00000018232986918595928230000007686769627234753674_)"/><path d="m395.784 273.653c0-21.188-12.882-30.926-28.773-21.752s-28.773 33.788-28.773 54.975c0 21.188 12.882 30.926 28.773 21.752s28.773-33.788 28.773-54.975z" fill="url(#SVGID_00000065780919556202843800000012839996345554654851_)"/><path d="m383.587 249.334c4.851 4.067 7.825 11.601 7.825 21.779 0 21.188-12.882 45.801-28.773 54.975-6.172 3.563-11.889 4.272-16.575 2.567 5.247 4.398 12.691 4.74 20.948-.027 15.891-9.174 28.773-33.788 28.773-54.975-.001-12.959-4.82-21.633-12.198-24.319z" fill="url(#SVGID_00000052818382393018143590000001265012623852461739_)"/><path d="m335.54 288.413-1.4 5.316-15.354-8.873 1.401-5.316z" fill="url(#SVGID_00000119833584155692213690000001996506730586138256_)"/></g></g></svg>