<svg id="Capa_1" enable-background="new 0 0 512 512" height="512" viewBox="0 0 512 512" width="512" xmlns="http://www.w3.org/2000/svg" xmlns:xlink="http://www.w3.org/1999/xlink"><linearGradient id="SVGID_1_" gradientUnits="userSpaceOnUse" x1="61.122" x2="220.278" y1="307.657" y2="307.657"><stop offset="0" stop-color="#8b451c"/><stop offset="1" stop-color="#ba5c25"/></linearGradient><linearGradient id="SVGID_2_" gradientUnits="userSpaceOnUse" x1="69.655" x2="221.843" y1="343.399" y2="343.399"><stop offset="0" stop-color="#683415"/><stop offset="1" stop-color="#8b451c"/></linearGradient><linearGradient id="lg1"><stop offset="0" stop-color="#a996eb"/><stop offset="1" stop-color="#d7d1eb"/></linearGradient><linearGradient id="SVGID_3_" gradientUnits="userSpaceOnUse" x1="47.856" x2="217.849" xlink:href="#lg1" y1="192.721" y2="192.721"/><linearGradient id="lg2"><stop offset="0" stop-color="#dfdaef"/><stop offset="1" stop-color="#fff"/></linearGradient><linearGradient id="SVGID_4_" gradientUnits="userSpaceOnUse" x1="93.095" x2="418.905" xlink:href="#lg2" y1="122.24" y2="122.24"/><linearGradient id="SVGID_5_" gradientUnits="userSpaceOnUse" x1="68.757" x2="221.68" xlink:href="#lg1" y1="135.276" y2="135.276"/><linearGradient id="SVGID_6_" gradientUnits="userSpaceOnUse" x1="109.454" x2="402.547" xlink:href="#lg2" y1="84.609" y2="84.609"/><linearGradient id="SVGID_7_" gradientUnits="userSpaceOnUse" x1="208.866" x2="532.427" xlink:href="#lg2" y1="111.69" y2="-74.211"/><linearGradient id="SVGID_8_" gradientUnits="userSpaceOnUse" x1="336.993" x2="119.362" xlink:href="#lg1" y1="36.71" y2="143.761"/><g><g><path d="m408.48 103.314-304.968 24.939 16.505 316.619.008-.001c.06 17.977 10.942 35.134 33.16 47.961 49.176 28.391 135.072 24.831 191.856-7.953 31.001-17.898 46.875-40.803 46.934-62.536z" fill="url(#SVGID_1_)"/></g><path d="m117.69 400.227c4.596 12.887 15.063 24.811 31.667 34.397 51.007 29.448 140.102 25.755 198.999-8.25 24.631-14.22 40.043-31.488 45.941-48.922l7.51-145.157c-6.029 18.588-22.339 37.036-48.594 52.194-61.995 35.793-155.776 39.68-209.465 8.683-17.749-10.247-28.843-23.03-33.559-36.838z" fill="url(#SVGID_2_)"/><g><path d="m418.859 169.566c-.007-.498.021-.998 0-1.494v-60.456l-325.727 29.87v59.94l.009-.001c.072 21.531 13.106 42.081 39.716 57.444 58.898 34.005 161.777 29.74 229.787-9.526 37.13-21.437 56.143-48.871 56.214-74.9h.001z" fill="url(#SVGID_3_)"/><path d="m362.645 183.811c68.01-39.266 75.396-98.663 16.498-132.668s-161.778-29.74-229.788 9.525c-68.01 39.266-75.396 98.663-16.498 132.668 58.899 34.005 161.778 29.741 229.788-9.525z" fill="url(#SVGID_4_)"/></g><g><path d="m402.505 101.986c-.007-.448.018-.898 0-1.344v-29.464l-293.018 26.87v29l.008-.001c.065 19.369 11.79 37.855 35.728 51.675 52.983 30.59 145.532 26.754 206.712-8.569 33.401-19.284 50.505-43.963 50.569-67.379h.001z" fill="url(#SVGID_5_)"/><path d="m351.936 139.997c61.18-35.323 67.825-88.755 14.841-119.346-52.984-30.59-145.532-26.753-206.713 8.569-61.18 35.322-67.825 88.755-14.841 119.346s145.532 26.754 206.713-8.569z" fill="url(#SVGID_6_)"/><path d="m325.512 124.742c44.329-25.594 49.144-64.309 10.754-86.474-38.391-22.165-105.448-19.385-149.778 6.209-44.329 25.594-49.144 64.309-10.754 86.474 38.391 22.164 105.449 19.384 149.778-6.209z" fill="url(#SVGID_7_)"/><path d="m186.488 78.008c44.33-25.593 111.387-28.373 149.778-6.209 10.432 6.023 17.647 13.273 21.773 21.145 9.543-19.834 2.618-40.596-21.773-54.678-38.39-22.165-105.448-19.385-149.778 6.208-32.284 18.64-43.583 44.233-32.526 65.33 5.477-11.383 16.361-22.462 32.526-31.796z" fill="url(#SVGID_8_)"/></g></g></svg>