<svg id="Capa_1" enable-background="new 0 0 512 512" height="512" viewBox="0 0 512 512" width="512" xmlns="http://www.w3.org/2000/svg" xmlns:xlink="http://www.w3.org/1999/xlink"><linearGradient id="SVGID_1_" gradientUnits="userSpaceOnUse" x1="240.299" x2="264.824" y1="414.579" y2="414.579"><stop offset="0" stop-color="#b096ed"/><stop offset=".1013" stop-color="#b69fed"/><stop offset=".4532" stop-color="#c9bbec"/><stop offset=".7644" stop-color="#d5cbec"/><stop offset="1" stop-color="#d9d1ec"/></linearGradient><linearGradient id="SVGID_2_" gradientUnits="userSpaceOnUse" x1="250.875" x2="286.539" y1="395.674" y2="457.444"><stop offset="0" stop-color="#b096ed"/><stop offset=".2191" stop-color="#bba4ef"/><stop offset=".6301" stop-color="#d6c8f4"/><stop offset="1" stop-color="#f3eefa"/></linearGradient><linearGradient id="lg1"><stop offset="0" stop-color="#b096ed"/><stop offset=".0014" stop-color="#b096ed"/><stop offset=".299" stop-color="#cdbcf3"/><stop offset=".5742" stop-color="#e2d7f7"/><stop offset=".8165" stop-color="#efe8f9"/><stop offset="1" stop-color="#f3eefa"/></linearGradient><linearGradient id="SVGID_3_" gradientUnits="userSpaceOnUse" x1="177.567" x2="203.329" xlink:href="#lg1" y1="228.647" y2="184.026"/><linearGradient id="SVGID_4_" gradientUnits="userSpaceOnUse" x1="344.584" x2="234.883" xlink:href="#lg1" y1="370.331" y2="180.324"/><linearGradient id="SVGID_5_" gradientUnits="userSpaceOnUse" x1="303.302" x2="230.495" y1="394.216" y2="22.516"><stop offset="0" stop-color="#5e4990"/><stop offset=".378" stop-color="#6f56aa"/><stop offset=".7319" stop-color="#7a5fba"/><stop offset="1" stop-color="#7e62c0"/></linearGradient><linearGradient id="SVGID_6_" gradientUnits="userSpaceOnUse" x1="293.649" x2="247.092" y1="357.226" y2="83.393"><stop offset="0" stop-color="#00daac"/><stop offset=".0605" stop-color="#09dcb1"/><stop offset=".3404" stop-color="#2fe4c4"/><stop offset=".5994" stop-color="#4aead2"/><stop offset=".8274" stop-color="#5beedb"/><stop offset="1" stop-color="#61efde"/></linearGradient><g><g><path d="m363.141 434.906v10.275c0 1.775-.947 3.416-2.485 4.303l-103.738 59.89c-6.065 3.501-13.537 3.501-19.602-.001l-40.429-23.344c-10.916-6.303-17.64-17.95-17.64-30.555v-68.316l121.245-70.001 8.432 4.868-30.905 100.829z" fill="url(#SVGID_1_)"/><path d="m360.456 430.727-33.891-19.567c-10.917-6.303-17.641-17.95-17.641-30.556v-58.579l-121.395 70.087v58.579c0 12.605 6.725 24.253 17.641 30.556l32.144 18.558c6.065 3.501 13.537 3.501 19.601 0l103.541-59.779c3.579-2.066 3.579-7.232 0-9.299z" fill="url(#SVGID_2_)"/></g><path d="m418.14 18.849-29.48-17.021-.007.009c-3.276-2.151-7.655-2.594-11.533-.355l-275.398 159.001c-8.494 4.904-13.726 13.967-13.726 23.774v256.059c0 4.05 2.108 7.357 5.099 9.259l31.407 18.148z" fill="url(#SVGID_3_)"/><path d="m118.383 457.872v-256.059c0-9.808 5.232-18.87 13.726-23.774l275.399-159.002c7.332-4.233 16.496 1.058 16.496 9.524v256.059c0 9.808-5.232 18.87-13.726 23.774l-275.398 159.002c-7.332 4.233-16.497-1.058-16.497-9.524z" fill="url(#SVGID_4_)"/><path d="m407.508 19.037-275.398 159.001c-8.494 4.904-13.726 13.967-13.726 23.774v231.321l305.621-176.45v-228.122c-.001-8.466-9.165-13.757-16.497-9.524z" fill="url(#SVGID_5_)"/><path d="m404.653 43.03v195.496c0 2.885-1.552 5.573-4.05 7.015l-262.868 151.767v-195.496c0-2.885 1.552-5.573 4.05-7.015z" fill="#45356d"/><path d="m404.653 81.471v-5.586l-33.324 19.24v-32.855l-4.838 2.793v32.854l-44.02 25.415v-32.853l-4.838 2.793v32.854l-44.02 25.415v-32.854l-4.838 2.793v32.854l-44.02 25.415v-32.854l-4.838 2.793v32.854l-44.02 25.415v-32.854l-4.838 2.793v32.854l-33.324 19.24v5.586l33.324-19.24v40.694l-33.324 19.24v5.586l33.324-19.24v40.694l-33.324 19.24v5.586l33.324-19.24v40.694l-33.324 19.24v5.586l33.324-19.24v22.891l4.838-2.793v-22.891l44.02-25.415v22.891l4.838-2.793v-22.891l44.02-25.414v22.891l4.838-2.793v-22.891l44.02-25.415v22.891l4.838-2.793v-22.891l44.02-25.415v22.891l4.838-2.793v-22.891l33.324-19.24v-5.586l-33.324 19.24v-40.694l33.324-19.24v-5.586l-33.324 19.24v-40.694l33.324-19.24v-5.586l-33.324 19.24v-40.696zm-184.736 239.912-44.02 25.415v-40.695l44.02-25.415zm0-46.28-44.02 25.415v-40.694l44.02-25.415zm0-46.281-44.02 25.415v-40.694l44.02-25.415zm48.858 64.353-44.02 25.415v-40.694l44.02-25.415zm0-46.28-44.02 25.414v-40.694l44.02-25.415zm0-46.281-44.02 25.414v-40.694l44.02-25.415zm48.857 64.354-44.02 25.415v-40.694l44.02-25.415zm0-46.281-44.02 25.415v-40.694l44.02-25.415zm0-46.281-44.02 25.415v-40.695l44.02-25.415zm48.858 64.353-44.02 25.415v-40.694l44.02-25.415zm0-46.28-44.02 25.415v-40.694l44.02-25.415zm0-46.281-44.02 25.415v-40.695l44.02-25.415z" fill="url(#SVGID_6_)" opacity=".2"/></g></svg>