<svg id="Capa_1" enable-background="new 0 0 512 512" height="512" viewBox="0 0 512 512" width="512" xmlns="http://www.w3.org/2000/svg" xmlns:xlink="http://www.w3.org/1999/xlink"><linearGradient id="lg1"><stop offset="0" stop-color="#2f97f7"/><stop offset="1" stop-color="#79d3fe"/></linearGradient><linearGradient id="SVGID_1_" gradientUnits="userSpaceOnUse" x1="253.132" x2="253.132" xlink:href="#lg1" y1="-2.825" y2="334.78"/><linearGradient id="SVGID_00000156559688309254075760000012579622003156986008_" gradientTransform="matrix(.866 -.5 0 1.155 42.416 135.139)" gradientUnits="userSpaceOnUse" x1="492.24" x2="208.422" xlink:href="#lg1" y1="358.862" y2="194.999"/><linearGradient id="SVGID_00000108278408594317201480000012420855314957055129_" gradientUnits="userSpaceOnUse" x1="90.306" x2="191.945" y1="330.527" y2="330.527"><stop offset="0" stop-color="#0072bc"/><stop offset="1" stop-color="#2f97f7"/></linearGradient><linearGradient id="SVGID_00000163777170636362673780000004165356425921591198_" gradientUnits="userSpaceOnUse" x1="90.29" x2="404.934" xlink:href="#lg1" y1="94.152" y2="94.152"/><linearGradient id="lg2"><stop offset="0" stop-color="#c5baeb"/><stop offset=".5922" stop-color="#dfdaef"/><stop offset="1" stop-color="#f2edff"/></linearGradient><linearGradient id="SVGID_00000074412035666941744370000008514391413084261038_" gradientUnits="userSpaceOnUse" x1="161.731" x2="510.063" xlink:href="#lg2" y1="155.818" y2="-44.618"/><linearGradient id="SVGID_00000111913680024937701630000015701546576440820902_" gradientUnits="userSpaceOnUse" x1="158.267" x2="446.792" xlink:href="#lg2" y1="135.112" y2="-36.775"/><linearGradient id="SVGID_00000029043942791903234660000007108722737429445041_" gradientTransform="matrix(.866 -.5 0 1.155 24.558 80.579)" gradientUnits="userSpaceOnUse" x1="193.288" x2="193.288" y1="122.75" y2="72.333"><stop offset="0" stop-color="#c62834"/><stop offset="1" stop-color="#ff4557"/></linearGradient><g><g><path d="m340.009 17.464c-.002-4.17-1.119-6.894-3.141-8.049-2.021-1.155-7.473-3.214-11.092-1.113l-224.446 125.629v331.973l226.575-130.871c5.444-3.14 12.252-14.931 12.249-21.216l64.779-265.081-8.862-4.033-56.039 20.703z" fill="url(#SVGID_1_)"/><path d="m121.223 142.706c-23.317 15.509-.489 51.016 23.763 37.014l11.386-6.574 213.706-123.564 3.468-2.008c3.607-2.094 6.524-2.51 8.545-1.368l-43.946-25.345-.02.011c-2.027-1.397-5.061-1.075-8.876 1.139l-206.183 119.55c-.632.367-1.247.749-1.843 1.145z" fill="#f2edff"/><path d="m408.32 56.895c-.004-8.341-4.469-10.893-11.707-6.69l-204.668 118.758v323.75l204.271-118.249c5.444-3.14 12.251-14.931 12.249-21.216z" fill="url(#SVGID_00000156559688309254075760000012579622003156986008_)"/><path d="m405.571 49.123.015-.008-.151-.088c.046.031.091.064.136.096z" fill="#e37a34"/><path d="m191.945 168.963s-30.762 8.917-61.788 4.032c-31.025-4.886-39.834-23.941-39.834-23.941v323.986c-.023.721-.023 1.441 0 2.161v.239s.007.003.008.003c.42 10.801 5.963 21.426 16.657 27.6 20.717 11.96 46.245 11.942 66.944-.048l16.859-9.767c.739-.323 1.154-.515 1.154-.515z" fill="url(#SVGID_00000108278408594317201480000012420855314957055129_)"/><g><path d="m337.019 9.504-.129-.074c.041.023.076.057.116.082z" fill="#e37a34"/><path d="m390.049 40.084c-.03-.018-.061-.036-.092-.053l-.11-.064-.014.008c-2.014-1.043-4.874-.611-8.397 1.436l-216.512 125.477c-13.629 7.869-30.421 7.869-44.05 0l-8.108-4.681c-9.796-5.655-10.332-19.308-1.638-25.86l213.706-123.565 3.468-2.008c3.607-2.094 6.524-2.51 8.545-1.368l-14.826-8.577-.02.011c-2.027-1.397-5.061-1.075-8.876 1.14l-206.183 119.55c-22.224 12.877-22.198 44.974.045 57.817 20.717 11.96 46.245 11.942 66.944-.048l219.214-127.081v-.001l3.468-2.012c3.48-2.02 6.31-2.464 8.32-1.469z" fill="url(#SVGID_00000163777170636362673780000004165356425921591198_)"/></g><path d="m421.695 69.155.015-.008-.151-.088c.046.031.09.064.136.096z" fill="#e37a34"/><g><path d="m382.262 46.305-.129-.075c.041.023.076.057.116.083z" fill="#e37a34"/></g><g><path d="m156.236 154.89c-2.371 1.369-2.371 3.055 0 4.424 1.588.917 5.558.917 7.146 0l207.37-119.68-7.404-4.275z" fill="url(#SVGID_00000074412035666941744370000008514391413084261038_)"/><path d="m135.043 142.677c-2.371 1.369-2.371 3.056 0 4.424 1.588.917 5.558.917 7.146 0l207.37-119.68-7.404-4.275z" fill="url(#SVGID_00000111913680024937701630000015701546576440820902_)"/></g><path d="m218.262 39.838-26.518 43.229-26.116-12.84v69.317l52.634-30.389z" fill="url(#SVGID_00000029043942791903234660000007108722737429445041_)"/></g><g fill="#00395e"><path d="m257.035 206.522v-14.586c0-2.065 1.256-4.465 2.805-5.359l.07-.04c1.549-.894 2.805.055 2.805 2.12v14.305c0 6.218 2.034 7.615 5.47 5.631 3.471-2.004 5.47-5.729 5.47-11.947v-14.305c0-2.066 1.256-4.465 2.805-5.359 1.549-.894 2.805.055 2.805 2.12v14.586c0 9.63-4.137 17.348-11.115 21.377-6.977 4.028-11.115 1.087-11.115-8.543z"/><path d="m283.802 199.704.007-.024c.539-1.906 1.948-3.398 3.139-3.353 1.809.068 3.951-.474 6.024-1.671 3.366-1.943 4.733-4.229 4.733-6.239 0-6.124-14.27 6.322-14.27-5.833 0-5.563 3.366-12.135 10.343-16.163 2.204-1.273 4.444-2.065 6.374-2.194 1.225-.082 1.821 1.427 1.327 3.332-.485 1.87-1.838 3.408-3.038 3.479-1.596.095-3.189.609-4.699 1.48-3.366 1.943-4.663 4.375-4.663 6.432 0 6.031 14.27-6.369 14.27 5.645 0 5.47-3.401 12.108-10.413 16.157-2.873 1.659-5.765 2.488-7.957 2.41-1.179-.039-1.71-1.574-1.177-3.458z"/><path d="m326.243 177.831v.187c0 1.626-.989 3.516-2.209 4.22l-14.557 8.405c-1.236.713-2.237-.044-2.237-1.691v-26.758c0-1.647 1.002-3.561 2.237-4.275l14.102-8.142c1.22-.704 2.209.043 2.209 1.67v.187c0 1.627-.989 3.516-2.209 4.221l-10.694 6.174v7.106l9.186-5.304c1.22-.704 2.209.043 2.209 1.67 0 1.627-.989 3.516-2.209 4.221l-9.186 5.304v7.573l11.15-6.437c1.219-.705 2.208.043 2.208 1.669z"/><path d="m347.711 168.569c-.82.474-1.588.38-2.055-.249l-3.988-5.378-.28.162-4.944 2.854v6.171c0 1.627-.989 3.516-2.209 4.221l-1.262.729c-1.22.704-2.209-.043-2.209-1.67v-26.796c0-1.647 1.002-3.561 2.237-4.275l8.387-4.842c6.556-3.785 10.659-1.619 10.659 5.721 0 4.909-1.858 9.581-5.049 13.246l2.763 3.684c1.156 1.541-.03 5.256-2.05 6.422zm-6.639-22.72-4.628 2.672v11.407l4.628-2.672c3.471-2.004 5.224-5.167 5.224-8.72.001-3.6-1.753-4.691-5.224-2.687z"/><path d="m247.32 270.477-.03-16.679-6.564 18.491c-.408 1.15-1.147 2.137-1.945 2.597-.79.456-1.523.33-1.934-.333l-6.526-10.537v16.269c0 1.627-.989 3.516-2.209 4.22l-.912.526c-1.22.704-2.209-.043-2.209-1.67v-25.81c0-2.192 1.333-4.738 2.977-5.687l.04-.023c1.044-.603 2.011-.432 2.55.449l8.318 13.612 8.181-23.115c.536-1.515 1.509-2.815 2.56-3.422 1.641-.947 2.972.054 2.977 2.239l.055 25.781c.003 1.628-.986 3.523-2.209 4.229l-.91.526c-1.219.703-2.207-.041-2.21-1.663z"/><path d="m274.636 250.632-11.395 6.579-1.501 5.708c-.407 1.549-1.368 2.961-2.435 3.577-1.908 1.101-3.183-.782-2.406-3.553l8.144-29.065c.695-2.48 2.242-4.713 3.949-5.698 1.705-.984 3.251-.541 3.947 1.133l8.171 19.648c.779 1.874-.496 5.233-2.405 6.335l-.135.078c-1.066.616-2.027.314-2.435-.765zm-1.788-4.717-3.892-10.282-3.892 14.776z"/><path d="m307.837 208.697v25.81c0 2.192-1.333 4.738-2.977 5.687l-.279.161c-.891.514-1.735.47-2.3-.122l-11.344-11.869v16.923c0 1.627-.989 3.516-2.209 4.22l-1.192.688c-1.22.704-2.209-.043-2.209-1.67v-25.81c0-2.192 1.333-4.738 2.976-5.687l.312-.18c.892-.515 1.738-.469 2.303.125l11.308 11.885v-16.923c0-1.627.989-3.516 2.209-4.221l1.192-.688c1.221-.703 2.21.044 2.21 1.671z"/><path d="m313.445 220.839v-14.586c0-2.066 1.256-4.465 2.805-5.359l.07-.041c1.549-.894 2.805.055 2.805 2.121v14.305c0 6.218 2.034 7.615 5.47 5.631 3.471-2.004 5.47-5.729 5.47-11.947v-14.305c0-2.065 1.256-4.465 2.805-5.359 1.549-.894 2.805.055 2.805 2.12v14.586c0 9.63-4.137 17.348-11.115 21.377-6.978 4.028-11.115 1.088-11.115-8.543z"/><path d="m356.92 203.126-11.395 6.579-1.501 5.708c-.407 1.549-1.368 2.961-2.435 3.577-1.908 1.101-3.183-.782-2.406-3.553l8.145-29.066c.695-2.48 2.242-4.713 3.949-5.698 1.705-.985 3.251-.541 3.947 1.133l8.171 19.648c.779 1.874-.496 5.233-2.405 6.335l-.135.078c-1.066.616-2.027.313-2.435-.765zm-1.788-4.718-3.892-10.282-3.892 14.776z"/><path d="m369.82 169.966 1.262-.729c1.22-.704 2.209.043 2.209 1.67v23.608l10.098-5.83c1.22-.704 2.209.043 2.209 1.67v.281c0 1.627-.989 3.516-2.209 4.221l-13.541 7.818c-1.236.713-2.237-.044-2.237-1.691v-26.796c0-1.628.989-3.518 2.209-4.222z"/></g></g></svg>