<svg id="Capa_1" enable-background="new 0 0 512 512" height="512" viewBox="0 0 512 512" width="512" xmlns="http://www.w3.org/2000/svg" xmlns:xlink="http://www.w3.org/1999/xlink"><linearGradient id="SVGID_1_" gradientUnits="userSpaceOnUse" x1="256" x2="256" y1="713.554" y2="49.158"><stop offset="0" stop-color="#b096ed"/><stop offset=".0014" stop-color="#b096ed"/><stop offset=".299" stop-color="#cdbcf3"/><stop offset=".5742" stop-color="#e2d7f7"/><stop offset=".8165" stop-color="#efe8f9"/><stop offset="1" stop-color="#f3eefa"/></linearGradient><linearGradient id="lg1"><stop offset="0" stop-color="#b096ed"/><stop offset="1" stop-color="#b096ed" stop-opacity="0"/></linearGradient><linearGradient id="SVGID_2_" gradientUnits="userSpaceOnUse" x1="306.768" x2="267.645" xlink:href="#lg1" y1="55.076" y2="314.377"/><linearGradient id="SVGID_3_" gradientUnits="userSpaceOnUse" x1="347.848" x2="301.263" xlink:href="#lg1" y1="-83.387" y2="225.376"/><linearGradient id="SVGID_4_" gradientUnits="userSpaceOnUse" x1="234.739" x2="282.502" xlink:href="#lg1" y1="478.317" y2="326.476"/><g><g><path d="m200.379 512c-9.382 0-18.323-2.337-26.459-7.036-20.596-11.892-32.409-37.462-32.409-70.156v-221.518c0-77.688 46.191-165.212 105.158-199.258 29.059-16.777 57.956-18.571 81.365-5.054 26.98 15.577 42.455 49.715 42.455 93.66v198.29c0 10.306-8.354 18.66-18.66 18.66s-18.661-8.354-18.661-18.66v-198.29c0-29.807-8.895-52.737-23.795-61.338-14.583-8.42-32-1.899-44.044 5.054-46.887 27.071-86.498 103.518-86.498 166.937v221.518c0 18.721 5.14 32.865 13.749 37.835 8.233 4.753 19.213-.167 25.026-3.522 31.133-17.975 57.436-68.993 57.436-111.407v-213.596c0-9.461-2.73-13.212-3.406-13.633-.308-.056-2.218.085-5.44 1.944-14.653 8.461-27.507 33.798-27.507 54.225v191.065c0 10.306-8.354 18.66-18.66 18.66s-18.661-8.354-18.661-18.66v-191.064c0-34.144 19.848-71.35 46.168-86.545 14.66-8.462 30.246-9.172 42.763-1.943 14.024 8.095 22.065 24.844 22.065 45.952v213.594c0 55.959-33.426 119.093-76.097 143.729-12.168 7.024-24.359 10.556-35.888 10.557z" fill="url(#SVGID_1_)"/></g><path d="m274.629 366.972c6.206-10.686 13.658-26.34 15.005-41.694 2.376-27.089 3.327-146.851 0-173.465s-17.997-21.325-17.997-21.325c.676.421 3.406 4.171 3.406 13.633v213.594c0 3.044-.151 6.137-.414 9.257z" fill="url(#SVGID_2_)"/><path d="m340.994 59.555c-25.002-55.896-75.664-13.201-75.664-13.201 12.044-6.954 29.46-13.474 44.044-5.055 14.9 8.601 23.794 31.532 23.794 61.338v198.29c0 9.691 7.388 17.652 16.838 18.569-.526-64.517 11.873-213.251-9.012-259.941z" fill="url(#SVGID_3_)"/><path d="m290.551 308.66-15.509-6.443v55.496c0 42.415-26.303 93.433-57.436 111.407 80.766-20.591 72.945-160.46 72.945-160.46z" fill="url(#SVGID_4_)"/></g></svg>