<svg id="Capa_1" enable-background="new 0 0 512 512" height="512" viewBox="0 0 512 512" width="512" xmlns="http://www.w3.org/2000/svg" xmlns:xlink="http://www.w3.org/1999/xlink"><linearGradient id="lg1"><stop offset="0" stop-color="#236568"/><stop offset="1" stop-color="#2f878a"/></linearGradient><linearGradient id="SVGID_1_" gradientUnits="userSpaceOnUse" x1="272.855" x2="309.302" xlink:href="#lg1" y1="59.317" y2="-3.81"/><linearGradient id="SVGID_00000141425987025042873580000001771431297735967409_" gradientUnits="userSpaceOnUse" x1="138.885" x2="160.925" xlink:href="#lg1" y1="381.717" y2="343.543"/><linearGradient id="SVGID_00000181047189933969024080000011703494802240585600_" gradientUnits="userSpaceOnUse" x1="131.402" x2="150.125" xlink:href="#lg1" y1="166.121" y2="133.693"/><linearGradient id="SVGID_00000124155968606597710790000013878665725358838406_" gradientUnits="userSpaceOnUse" x1="340.563" x2="264.113" xlink:href="#lg1" y1="222.386" y2="354.801"/><linearGradient id="SVGID_00000160902944123083215710000006989444189846882985_" gradientUnits="userSpaceOnUse" x1="274.804" x2="274.804" y1="519.39" y2="24.702"><stop offset="0" stop-color="#2f878a"/><stop offset="1" stop-color="#06daae"/></linearGradient><g><path d="m280.044 63.359 106.276-29.57-38.056-21.974-.018.007c-30.75-18.225-69.764-15.362-111.05 8.474-26.682 15.405-52.213 38.221-75.883 67.813-6.072 7.591-11.955 15.596-17.622 23.927l18.787 10.842 8.728 49.922z" fill="url(#SVGID_1_)"/><path d="m138.48 326.43s-37.983-21.925-37.985-21.923c-3.384-1.923-7.782-1.733-12.594 1.045-10.681 6.167-19.339 22.71-19.339 36.951 0 60.059 17.541 106.395 49.391 130.474 4.153 3.14 8.489 5.841 12.982 8.127.001.001.005.012.005.012l37.746 21.777z" fill="url(#SVGID_00000141425987025042873580000001771431297735967409_)"/><path d="m162.478 122.878-18.787-10.842-19.084-10.997c-3.595-1.737-8.212-1.205-13.15 2.03-10.663 6.982-18.805 23.876-18.186 37.735l4.527 101.349 37.607 21.705z" fill="url(#SVGID_00000181047189933969024080000011703494802240585600_)"/><path d="m321.161 64.528c28.115 15.577 45.992 52.685 45.992 105.585 0 95.544-58.298 206.933-129.956 248.305-30.831 17.8-59.186 19.778-81.49 8.646 0 0 94.901 120.404 219.891-74.327 37.103-57.805 45.645-139.582 39.914-199.367-6.705-69.934-94.351-88.842-94.351-88.842z" fill="url(#SVGID_00000124155968606597710790000013878665725358838406_)"/><path d="m274.803 42.002c-26.682 15.405-52.212 38.22-75.883 67.813-10.179 12.726-19.844 26.595-28.81 41.257l-.618-13.844c-.619-13.86-9.779-19.429-20.427-12.454-10.663 6.982-18.805 23.877-18.186 37.736l4.527 101.348 77.318-50.624c10.663-6.982 18.805-23.877 18.186-37.736-.619-13.86-9.771-19.441-20.427-12.454l-12.389 8.112c21.964-34.18 48.589-61.348 76.71-77.584 71.658-41.372 129.956 2.7 129.956 98.244s-58.298 206.933-129.956 248.305-129.956-2.701-129.956-98.245c0-14.241-8.658-20.786-19.339-14.62-10.681 6.167-19.339 22.71-19.339 36.951 0 60.058 17.541 106.395 49.392 130.474 31.851 24.078 74.199 23.017 119.243-2.989 45.043-26.006 87.391-73.844 119.243-134.7 31.85-60.857 49.392-127.448 49.392-187.506s-17.543-106.394-49.394-130.473c-31.851-24.078-74.199-23.016-119.243 2.989z" fill="url(#SVGID_00000160902944123083215710000006989444189846882985_)"/></g></svg>