<svg id="Capa_1" enable-background="new 0 0 512 512" height="512" viewBox="0 0 512 512" width="512" xmlns="http://www.w3.org/2000/svg" xmlns:xlink="http://www.w3.org/1999/xlink"><radialGradient id="SVGID_1_" cx="-22.912" cy="398.193" gradientTransform="matrix(.978 -.207 .207 .978 196.617 -232.109)" gradientUnits="userSpaceOnUse" r="208.199"><stop offset="0" stop-color="#79d3fe"/><stop offset="1" stop-color="#2f97f7"/></radialGradient><linearGradient id="lg1"><stop offset="0" stop-color="#06daae"/><stop offset=".2214" stop-color="#0ccda8"/><stop offset=".6285" stop-color="#1dab9a"/><stop offset="1" stop-color="#2f878a"/></linearGradient><radialGradient id="SVGID_2_" cx="246.455" cy="163.458" gradientUnits="userSpaceOnUse" r="526.257" xlink:href="#lg1"/><linearGradient id="SVGID_3_" gradientUnits="userSpaceOnUse" x1="361.237" x2="361.237" y1="276.61" y2="470.961"><stop offset="0" stop-color="#00395e"/><stop offset="1" stop-color="#00395e" stop-opacity="0"/></linearGradient><radialGradient id="SVGID_4_" cx="105.373" cy="64.457" gradientUnits="userSpaceOnUse" r="56.743" xlink:href="#lg1"/><radialGradient id="SVGID_5_" cx="255.166" cy="368.167" gradientUnits="userSpaceOnUse" r="201.337" xlink:href="#lg1"/><radialGradient id="SVGID_6_" cx="268.03" cy="145.789" gradientUnits="userSpaceOnUse" r="677.648" xlink:href="#lg1"/><linearGradient id="SVGID_7_" gradientUnits="userSpaceOnUse" x1="365.695" x2="418.747" y1="387.839" y2="295.95"><stop offset="0" stop-color="#594a8e"/><stop offset=".1142" stop-color="#5d4d92"/><stop offset=".2317" stop-color="#67579e"/><stop offset=".3505" stop-color="#7968b3"/><stop offset=".4696" stop-color="#9180d0"/><stop offset=".5613" stop-color="#a996eb"/><stop offset=".5799" stop-color="#ac9aeb"/><stop offset=".7507" stop-color="#c3b8eb"/><stop offset=".8967" stop-color="#d2caeb"/><stop offset="1" stop-color="#d7d1eb"/></linearGradient><linearGradient id="SVGID_8_" gradientUnits="userSpaceOnUse" x1="425.722" x2="425.722" y1="476.797" y2="276.512"><stop offset="0" stop-color="#dfdaef"/><stop offset="1" stop-color="#fff"/></linearGradient><g><circle cx="225.563" cy="251.695" fill="url(#SVGID_1_)" r="225.517"/><g><g><path d="m446.209 205.077c-21.043-99.595-104.82-169.822-201.256-178.108l-45.624 35.416-12.723-29.783 22.619 2.849c.374-2.966.272-5.882-.24-8.674-9.965.747-19.995 2.151-30.041 4.273-17.565 3.711-34.212 9.384-49.772 16.724 6.895 2.271 11.447 9.164 10.506 16.635l-1.989 15.791 26.362-6.217c1.367 6.109-2.577 12.141-8.721 13.338l-21.226 4.134c-2.019 16.027-16.649 27.384-32.676 25.366l-5.975-.753 1.828-14.51c-6.992-.881-13.375 4.074-14.255 11.066l-.233 1.85-3.699-.466c-14.456-1.821-27.651 8.421-29.472 22.878l-16.218-2.043-.143 1.137c-1.227 9.743 5.676 18.635 15.418 19.863-.831 6.6-6.855 11.275-13.455 10.445l-17.468-2.201c-2.187 5.175-4.183 10.437-5.984 15.778.644.229 1.32.398 2.026.487-1.47 11.667 6.797 22.317 18.464 23.787 5.303.668 10.144-3.09 10.812-8.393l1.129-8.962c10.685 1.346 20.438-6.225 21.784-16.91l.251-1.991 19.347 2.437c-1.366 10.842 6.316 20.739 17.159 22.105l5.974.752-1.075 8.535-3.749.451c-4.9.589-8.213 5.29-7.119 10.103l21.354-4.319 4.122-32.719c5.427.684 9.374 5.488 8.993 10.945l-.868 12.418c-.609 8.707 3.215 17.134 10.169 22.408l2.936 2.227 8.828-13.575c9.579 10.5 24.051 15.061 37.92 11.95l3.15-.706 2.265 9.582c1.98 8.375-3.181 16.774-11.547 18.791l-15.575 3.757-31.596-23.965c-10.965 8.964-26.255 10.426-38.719 3.702l-12.961-6.991 3.345-20.822-84.786 8.83c-.177 3.641-.915 7.143-2.13 10.421-2.956 24.081-2.055 49.052 3.241 74.118 3.752 17.76 9.512 34.578 16.97 50.286 2.692.032 5.404-.068 8.133-.335l14.689-1.443 5.696 13.29c7.882.037 14.229 6.483 14.144 14.365l-.254 23.37 10.282 7.798 2.769 16.024c28.84 25.11 63.848 42.738 101.709 50.738l8.234-6.392 6.209-49.292 57.8-44.867c6.023-4.675 3.387-14.3-4.179-15.253l-14.336-1.806c-12.096-1.524-22.341-9.648-26.58-21.08l-20.825-56.167c-2.955-7.971.893-16.855 8.729-20.153l25.679 62.489-2.043 16.217c7.963 6.04 18.771 6.715 27.423 1.714l52.954-30.608-1.43-1.967c-8.605-11.839-25.166-14.483-37.03-5.912l-7.274-9.371c-8.24-10.615-6.315-25.902 4.301-34.141l7.103 9.151c12.537 16.149 32.451 24.782 52.808 22.89l21.075 27.15 14.724 1.855-2.5 19.845 12.496 16.098-4.274 33.928c13.553 1.707 25.923-7.896 27.63-21.448l2.285-18.138c11.785 1.484 22.542-6.865 24.026-18.651l.861-6.828 20.485 2.581-.538 4.268c-.455 3.61-.203 7.144.635 10.471 17.206-40.885 22.57-87.236 12.707-133.917z" fill="url(#SVGID_2_)"/><path d="m435.953 332.931-20.331-15.369s-128.694-30.599-129.064-23.622l-.038-.078v79.749l.03.017c-.049 1.354.056 2.735.37 4.12l19.232 84.596c60.848-23.192 107.232-71.123 129.801-129.413z" fill="url(#SVGID_3_)"/><path d="m122.214 79.149 3.759-29.841c-16.472 8.092-31.677 18.079-45.406 29.622 5.768 1.752 12.131 1.571 18.048-.918l1.301-.547-2.652 21.054c12.237 1.541 23.408-7.13 24.95-19.37z" fill="url(#SVGID_4_)"/></g><path d="m218.203 472.841c-5.424-2.028-11.004-.356-14.567 3.354 10.317 1.005 20.784 1.292 31.341.838 1.108-5.349.858-11.014-.978-16.453z" fill="url(#SVGID_5_)"/><path d="m370.649 395.683 3.606 4.645c3.365 4.335 9.607 5.121 13.941 1.756l-5.471-7.048 4.164-3.232c3.053-2.37 3.606-6.764 1.237-9.816z" fill="url(#SVGID_6_)"/></g><g><path d="m433.676 254.06-.015.03c-3.101-2.032-6.999-2.961-11.204-2.035l-123.418 27.163c-8.64 1.901-14.079 10.475-12.118 19.102l33.116 145.666c1.172 5.156 4.575 8.66 8.674 10.351l-.005.011 49.286 28.201 27.319-44.618 49.861 29.383s7.687-147.474 8.265-148.341 22.315-35.07 22.315-35.07z" fill="url(#SVGID_7_)"/><path d="m468.546 347.916 23.127-44.188c5.831-11.141-4.011-24.018-16.292-21.315l-123.418 27.163c-8.64 1.902-14.079 10.475-12.118 19.103l33.116 145.666c3.05 13.418 21.161 15.773 27.542 3.582l19.221-36.726 31.623 23.906c8.797 6.65 21.461 3.81 26.574-5.961l32.043-61.224c4.046-7.73 1.91-17.251-5.05-22.512z" fill="url(#SVGID_8_)"/></g></g></svg>