<svg id="Capa_1" enable-background="new 0 0 512 512" height="512" viewBox="0 0 512 512" width="512" xmlns="http://www.w3.org/2000/svg" xmlns:xlink="http://www.w3.org/1999/xlink"><linearGradient id="lg1"><stop offset="0" stop-color="#8b451c"/><stop offset="1" stop-color="#ba5c25"/></linearGradient><linearGradient id="SVGID_1_" gradientUnits="userSpaceOnUse" x1="204.802" x2="294.942" xlink:href="#lg1" y1="423.525" y2="423.525"/><linearGradient id="SVGID_2_" gradientUnits="userSpaceOnUse" x1="178.202" x2="353.036" y1="295.594" y2="396.534"><stop offset="0" stop-color="#ba5c25"/><stop offset="1" stop-color="#cc8241"/></linearGradient><linearGradient id="SVGID_3_" gradientUnits="userSpaceOnUse" x1="208.75" x2="315.057" y1="313.23" y2="374.607"><stop offset="0" stop-color="#683415"/><stop offset="1" stop-color="#8b451c"/></linearGradient><linearGradient id="SVGID_4_" gradientUnits="userSpaceOnUse" x1="268.094" x2="191.079" y1="370.459" y2="325.995"><stop offset="0" stop-color="#6a2e0d"/><stop offset="1" stop-color="#6a2e0d" stop-opacity="0"/></linearGradient><linearGradient id="SVGID_5_" gradientUnits="userSpaceOnUse" x1="210.916" x2="316.669" xlink:href="#lg1" y1="309.381" y2="370.438"/><linearGradient id="lg2"><stop offset="0" stop-color="#2f878a"/><stop offset="1" stop-color="#06daae"/></linearGradient><linearGradient id="SVGID_6_" gradientTransform="matrix(.989 -.148 .148 .989 -33.396 50.184)" gradientUnits="userSpaceOnUse" x1="268.441" x2="398.603" xlink:href="#lg2" y1="239.499" y2="239.499"/><linearGradient id="SVGID_7_" gradientUnits="userSpaceOnUse" x1="262.58" x2="262.58" xlink:href="#lg2" y1="203.538" y2="356.803"/><linearGradient id="SVGID_8_" gradientUnits="userSpaceOnUse" x1="262.579" x2="262.579" y1="194.481" y2="242.668"><stop offset="0" stop-color="#1a4c4e"/><stop offset="1" stop-color="#1a4c4e" stop-opacity="0"/></linearGradient><linearGradient id="lg3"><stop offset="0" stop-color="#e37a34"/><stop offset="1" stop-color="#ffc538"/></linearGradient><linearGradient id="SVGID_9_" gradientUnits="userSpaceOnUse" x1="216.73" x2="262.423" xlink:href="#lg3" y1="150.271" y2="71.129"/><linearGradient id="lg4"><stop offset="0" stop-color="#f7e041"/><stop offset="1" stop-color="#fcf3b3"/></linearGradient><linearGradient id="SVGID_10_" gradientUnits="userSpaceOnUse" x1="281.752" x2="281.752" xlink:href="#lg4" y1="183.903" y2="-109.511"/><linearGradient id="lg5"><stop offset="0" stop-color="#fff"/><stop offset="1" stop-color="#fff" stop-opacity="0"/></linearGradient><linearGradient id="SVGID_11_" gradientUnits="userSpaceOnUse" x1="364.102" x2="284.599" xlink:href="#lg5" y1="169.957" y2="124.056"/><linearGradient id="SVGID_12_" gradientUnits="userSpaceOnUse" x1="330.775" x2="198.82" xlink:href="#lg5" y1="148.161" y2="71.976"/><linearGradient id="SVGID_13_" gradientUnits="userSpaceOnUse" x1="281.752" x2="281.752" y1="151.401" y2="-39.794"><stop offset="0" stop-color="#ffc538"/><stop offset="1" stop-color="#f7e041"/></linearGradient><linearGradient id="SVGID_14_" gradientUnits="userSpaceOnUse" x1="262.609" x2="330.616" xlink:href="#lg3" y1="189.321" y2="71.531"/><linearGradient id="SVGID_15_" gradientUnits="userSpaceOnUse" x1="276.009" x2="267.925" xlink:href="#lg3" y1="172.532" y2="186.533"/><linearGradient id="SVGID_16_" gradientUnits="userSpaceOnUse" x1="276.764" x2="306.882" xlink:href="#lg3" y1="114.713" y2="97.324"/><linearGradient id="SVGID_17_" gradientUnits="userSpaceOnUse" x1="277.518" x2="258.693" y1="137.778" y2="170.384"><stop offset="0" stop-color="#ba5c25"/><stop offset=".1538" stop-color="#c56625"/><stop offset=".4241" stop-color="#e38226"/><stop offset=".6425" stop-color="#ff9c27"/><stop offset="1" stop-color="#ba5c25"/></linearGradient><linearGradient id="SVGID_18_" gradientUnits="userSpaceOnUse" x1="254.089" x2="273.905" xlink:href="#lg3" y1="117.246" y2="82.922"/><linearGradient id="SVGID_19_" gradientUnits="userSpaceOnUse" x1="270.822" x2="279.896" xlink:href="#lg3" y1="71.025" y2="55.308"/><linearGradient id="SVGID_20_" gradientUnits="userSpaceOnUse" x1="288.832" x2="302.104" xlink:href="#lg3" y1="72.267" y2="64.604"/><linearGradient id="SVGID_21_" gradientUnits="userSpaceOnUse" x1="282.463" x2="282.463" xlink:href="#lg4" y1="203.817" y2="8.385"/><linearGradient id="SVGID_22_" gradientUnits="userSpaceOnUse" x1="319.804" x2="282.582" xlink:href="#lg5" y1="165.115" y2="143.625"/><linearGradient id="SVGID_23_" gradientUnits="userSpaceOnUse" x1="268.262" x2="252.308" xlink:href="#lg5" y1="164.806" y2="155.595"/><linearGradient id="SVGID_24_" gradientUnits="userSpaceOnUse" x1="317.816" x2="241.095" xlink:href="#lg5" y1="121.201" y2="76.906"/><linearGradient id="SVGID_25_" gradientUnits="userSpaceOnUse" x1="253.293" x2="113.822" xlink:href="#lg2" y1="307.885" y2="262.994"/><g><path d="m381.177 335.049-231.15 21.442c.099 4.265.914 8.471 2.463 12.554l30.21 107.558.013-.001c1.996 8.869 8.504 17.142 19.719 23.617 30.221 17.449 83.009 15.261 117.906-4.887 16.04-9.261 25.42-20.702 28.035-32.06l.051-.003 31.624-117.206-.026.002c.912-3.689 1.293-7.374 1.155-11.016z" fill="url(#SVGID_1_)"/><g><path d="m341.311 389.765c-48.271 27.869-121.291 30.896-163.094 6.761-41.804-24.135-36.561-66.294 11.71-94.163s121.291-30.896 163.095-6.76c41.803 24.135 36.56 66.292-11.711 94.162z" fill="url(#SVGID_2_)"/></g><g><path d="m323.358 379.399c-36.821 21.259-92.522 23.568-124.41 5.157s-27.889-50.569 8.932-71.828c36.822-21.259 92.521-23.568 124.41-5.157 31.888 18.411 27.889 50.569-8.932 71.828z" fill="url(#SVGID_3_)"/></g><path d="m247.638 371.056 31.249-6.773-78.414-45.273-5.613 2.808c-4.638 3.938-8.358 8.083-11.153 12.327z" fill="url(#SVGID_4_)"/><path d="m207.88 332.062c36.821-21.259 92.521-23.568 124.41-5.157 10.453 6.035 17.024 13.551 19.873 21.672 4.994-15.088-1.416-30.35-19.873-41.006-31.888-18.411-87.588-16.102-124.41 5.157-24.752 14.291-34.647 33.502-28.804 50.156 3.634-10.979 13.295-21.868 28.804-30.822z" fill="url(#SVGID_5_)"/><path d="m274.22 291.974s3.261-42.057 35.899-74.083 79.175-36.437 79.175-36.437-3.889 69.95-55.381 93.677c-51.493 23.727-59.693 16.843-59.693 16.843z" fill="url(#SVGID_6_)"/><path d="m278.887 364.283v-164.842c0-9.007-7.302-16.309-16.308-16.309-9.007 0-16.308 7.302-16.308 16.309v167.594c-.156 2.299 1.131 4.515 3.958 6.147 5.907 3.411 16.225 2.983 23.046-.955 3.929-2.27 5.828-5.208 5.612-7.944z" fill="url(#SVGID_7_)"/><path d="m269.334 233.827c3.241-1.872 6.426-4.026 9.552-6.392v-27.994c0-9.007-7.302-16.309-16.308-16.309-9.007 0-16.308 7.302-16.308 16.309v42.575c7.234-.867 14.988-3.526 23.064-8.189z" fill="url(#SVGID_8_)"/><g><path d="m327.964 21.261-28.744-16.582c-12.437-7.086-28.617-6.37-46.31 3.845-39.238 22.654-71.046 83.43-71.046 135.746 0 27.58 8.842 47.297 22.95 56.464l-.002.004 31.65 18.287c12.295 6.481 91.502-197.764 91.502-197.764z" fill="url(#SVGID_9_)"/><path d="m352.798 78.873c0-52.317-31.808-76.364-71.046-53.71s-71.046 83.43-71.046 135.747 31.808 76.363 71.046 53.71c39.237-22.655 71.046-83.43 71.046-135.747z" fill="url(#SVGID_10_)"/><path d="m352.798 78.873c0-16.485-3.161-30.16-8.714-40.454l-96.446 184.278c10.126 1.559 21.75-.939 34.114-8.077 5.194-2.999 10.256-6.671 15.133-10.898l54.292-103.735c1.058-7.114 1.621-14.189 1.621-21.114z" fill="url(#SVGID_11_)"/><path d="m281.752 25.163c-3.138 1.812-6.227 3.869-9.257 6.145l-61.189 116.913c-.394 4.268-.6 8.506-.6 12.689 0 27.49 8.785 47.168 22.813 56.374l100.391-191.817c-12.978-11.21-31.541-12.207-52.158-.304z" fill="url(#SVGID_12_)"/><path d="m338.279 87.255c0-41.625-25.308-60.758-56.527-42.734s-56.527 66.38-56.527 108.006c0 41.625 25.308 60.758 56.527 42.734s56.527-66.38 56.527-108.006z" fill="url(#SVGID_13_)"/><path d="m312.789 38.976c8.844 8.196 14.217 22.592 14.217 41.765 0 41.625-25.308 89.981-56.527 108.006-11.464 6.618-22.128 8.221-31.037 5.546 10.356 9.597 25.472 10.69 42.311.968 31.219-18.024 56.527-66.38 56.527-108.006-.001-26.34-10.138-43.668-25.491-48.279z" fill="url(#SVGID_14_)"/><g><g><path d="m265.619 173.726v3.228c0 1.749.983 3.153 2.335 3.871l-.006.005 10.287 5.911v-21.075c0 .001-15.03 5.805-12.616 8.06z" fill="url(#SVGID_15_)"/><path d="m294.12 104.451c-4.981-3.337-12.633-1.442-18.967-.223l-2.974 5.105 13.526 8.24 18.544-7.313-10.132-5.819s.001.006.003.01z" fill="url(#SVGID_16_)"/><path d="m281.007 130.436c0 4.715-3.25 9.139-8.41 12.119-4.054 2.341-9.27 3.459-14.278 3.215-6.282-.307-11.965 3.71-13.808 9.724l-.032.103c-1.378 4.495.809 8.979 4.587 10.958l-.005.001 10.223 5.9 43.211-37.781c-1.836-2.005-21.488-12.309-21.488-4.239z" fill="url(#SVGID_17_)"/><path d="m245.74 113.205c0 8.348 2.462 12.428 6.083 14.194 0 0-.002.001-.002.001l10.294 5.96 15.069-53.204-11.565-5.061c-12.233 9.739-19.879 23.965-19.879 38.11z" fill="url(#SVGID_18_)"/><path d="m276.212 52.871v.006c-1.291-.781-2.973-.914-4.466-.051-3.791 2.189-6.127 6.234-6.127 10.612v11.658l10.752 6.199 7.582-16.01c-.283-1.167 2.957-6.245 2.957-6.245z" fill="url(#SVGID_19_)"/><path d="m291.866 66.684.001.006c-1.591-1.047-3.512-1.616-5.558-1.494l2.772 8.632 7.46 2.513c3.477-2.213 5.785-3.641 5.785-3.641z" fill="url(#SVGID_20_)"/><g><path d="m289.082 163.922v12.422c0 4.378-2.335 8.423-6.127 10.612-2.926 1.69-6.584-.422-6.584-3.801v-12.021c-4.04 1.587-8.022 2.472-11.763 2.663-6.446.329-11.268-5.828-9.377-11.999l.032-.103c1.843-6.014 7.525-10.03 13.808-9.724 5.008.244 10.224-.874 14.278-3.215 5.161-2.98 8.41-7.404 8.41-12.119 0-15.164-35.266 14.372-35.266-17.231 0-14.145 7.645-28.371 19.879-38.11v-11.659c0-4.378 2.335-8.423 6.127-10.612 2.926-1.689 6.584.422 6.584 3.801v11.002c2.075-.894 4.122-1.603 6.117-2.133 6.991-1.857 13.31 4.687 11.258 11.623-1.638 5.535-6.555 9.416-12.312 9.838-4.574.335-9.051 1.452-12.326 3.343-4.205 2.428-6.976 6.067-6.976 10.144 0 14.782 35.267-13.989 35.267 18.123-.002 15.675-8.987 30.036-21.029 39.156z" fill="url(#SVGID_21_)"/></g><path d="m305.874 111.424-14.371 27.458c-.443 2.013-1.469 3.934-2.966 5.666l-14.318 27.357c.715-.238 1.432-.491 2.151-.774v12.022c0 3.379 3.658 5.491 6.584 3.801 3.791-2.189 6.127-6.234 6.127-10.611v-12.422c12.042-9.119 21.027-23.481 21.027-39.155.001-6.942-1.65-11.035-4.234-13.342z" fill="url(#SVGID_22_)"/><g><path d="m255.263 161.693-.032.103c-1.085 3.541.043 7.075 2.417 9.384l10.05-19.203c-5.723.294-10.727 4.144-12.435 9.716z" fill="url(#SVGID_23_)"/><path d="m295.199 71.695c-1.994.53-4.042 1.239-6.117 2.133v-11.002c0-3.379-3.658-5.491-6.584-3.801-3.791 2.189-6.127 6.234-6.127 10.612v11.658c-12.233 9.739-19.879 23.965-19.879 38.11 0 17.732 11.103 16.216 20.849 14.148l12.507-23.896c-7.859 1.47-15.006 3.642-15.006-3.013 0-4.078 2.771-7.717 6.976-10.144 3.276-1.891 7.753-3.008 12.326-3.343 1.785-.131 3.488-.596 5.039-1.338l7.255-13.863c-1.387-4.488-6.132-7.618-11.239-6.261z" fill="url(#SVGID_24_)"/></g></g></g></g><path d="m256.493 297.898s-3.939-17.826-45.787-30.719-88-3.902-88-3.902 4.646 40.057 66.741 49.123 67.046-14.502 67.046-14.502z" fill="url(#SVGID_25_)"/></g></svg>