<svg id="Capa_1" enable-background="new 0 0 512 512" height="512" viewBox="0 0 512 512" width="512" xmlns="http://www.w3.org/2000/svg" xmlns:xlink="http://www.w3.org/1999/xlink"><linearGradient id="lg1"><stop offset="0" stop-color="#ab2c37"/><stop offset="1" stop-color="#ff4757"/></linearGradient><linearGradient id="SVGID_1_" gradientUnits="userSpaceOnUse" x1="359.111" x2="276.349" xlink:href="#lg1" y1="211.859" y2="355.207"/><linearGradient id="SVGID_00000051373547406860289480000015033554960856126867_" gradientUnits="userSpaceOnUse" x1="279.516" x2="300.566" xlink:href="#lg1" y1="75.833" y2="39.375"/><linearGradient id="SVGID_00000107587695455475993710000004194119791707001788_" gradientUnits="userSpaceOnUse" x1="311.655" x2="330.196" xlink:href="#lg1" y1="87.374" y2="55.259"/><linearGradient id="SVGID_00000117641176629933283970000013209781474900750739_" gradientUnits="userSpaceOnUse" x1="212.101" x2="264.145" xlink:href="#lg1" y1="230.677" y2="140.534"/><linearGradient id="lg2"><stop offset="0" stop-color="#ff4757"/><stop offset="1" stop-color="#ff7a85"/></linearGradient><linearGradient id="SVGID_00000066479654483678120160000011040725982639572871_" gradientUnits="userSpaceOnUse" x1="255.501" x2="291.536" xlink:href="#lg2" y1="139.74" y2="139.74"/><linearGradient id="SVGID_00000158003890801841421920000017690009959110873022_" gradientUnits="userSpaceOnUse" x1="116.34" x2="430.697" xlink:href="#lg2" y1="283.538" y2="283.538"/><g><path d="m407.716 268.123c7.923-36.833-22.503-165.388-30.014-196.088l-52.446 28.4c21.628 17.118 34.37 49.921 34.37 92.902 0 89.065-54.345 192.901-121.143 231.467-32.587 18.814-62.205 18.664-84.001 3.245l51.737 62.915c58.234-21.043 170.652-79.447 201.497-222.841z" fill="url(#SVGID_1_)"/><path d="m262.216 258.301 22.777-237.042-34.374-19.835c-3.202-2.046-7.461-1.962-12.137.738-9.95 5.744-18.018 21.157-18.018 34.425v186.666c0 6.946 2.213 11.921 5.748 14.267z" fill="url(#SVGID_00000051373547406860289480000015033554960856126867_)"/><path d="m281.596 85.941 35.204 20.326 59.259-40.867-33.643-19.408-.005.003c-12.235-7.31-26.27-11.184-41.784-11.14-9.137.028-19.739 11.768-23.677 26.227-3.165 11.627-1.054 21.465 4.646 24.859z" fill="url(#SVGID_00000107587695455475993710000004194119791707001788_)"/><path d="m131.533 302.417 99.499-182.138-35.289-20.389-.004.009c-5.072-3.36-12.635-1.079-19.402 6.715-57.73 66.494-95.032 163.609-95.032 247.412 0 55.979 16.349 99.167 46.037 121.61 3.423 2.588 6.981 4.849 10.652 6.814l32.71 18.943z" fill="url(#SVGID_00000117641176629933283970000013209781474900750739_)"/><path d="m273.519 257.096c9.95-5.745 18.017-21.158 18.017-34.425v-186.667c0-13.267-8.067-19.366-18.017-13.621s-18.017 21.158-18.017 34.425v186.666c-.001 13.269 8.066 19.367 18.017 13.622z" fill="url(#SVGID_00000066479654483678120160000011040725982639572871_)"/><path d="m335.664 55.076c-9.138.028-19.739 11.767-23.677 26.226-3.937 14.458.279 26.157 9.418 26.131 44.502-.128 73.257 41.528 73.257 106.126 0 89.065-54.345 192.901-121.143 231.467-66.799 38.567-121.144-2.518-121.144-91.583 0-64.598 28.755-139.457 73.257-190.716 9.138-10.526 13.355-27.093 9.418-37.005-3.939-9.912-14.54-9.412-23.677 1.113-57.73 66.494-95.032 163.609-95.032 247.412 0 55.978 16.349 99.167 46.036 121.61s69.158 21.454 111.142-2.786c41.984-24.239 81.454-68.827 111.141-125.55s46.036-118.79 46.036-174.768c.001-83.801-37.302-137.844-95.032-137.677z" fill="url(#SVGID_00000158003890801841421920000017690009959110873022_)"/></g></svg>