<svg id="Capa_1" enable-background="new 0 0 512 512" height="512" viewBox="0 0 512 512" width="512" xmlns="http://www.w3.org/2000/svg" xmlns:xlink="http://www.w3.org/1999/xlink"><linearGradient id="SVGID_1_" gradientUnits="userSpaceOnUse" x1="161.955" x2="191.417" y1="274.046" y2="223.017"><stop offset="0" stop-color="#b096ed"/><stop offset=".0014" stop-color="#b096ed"/><stop offset=".299" stop-color="#cdbcf3"/><stop offset=".5742" stop-color="#e2d7f7"/><stop offset=".8165" stop-color="#efe8f9"/><stop offset="1" stop-color="#f3eefa"/></linearGradient><linearGradient id="SVGID_2_" gradientUnits="userSpaceOnUse" x1="342.758" x2="173.063" y1="393.212" y2="99.293"><stop offset="0" stop-color="#f3edff"/><stop offset=".4953" stop-color="#f7f3ff"/><stop offset="1" stop-color="#fff"/></linearGradient><g><path d="m450.344 14.58-21.427-12.303-.008.011c-4.082-2.679-9.537-3.232-14.368-.442l-343.09 198.083c-10.581 6.109-17.1 17.399-17.1 29.618v255.763c0 5.046 2.626 9.166 6.352 11.535l23.827 13.707z" fill="url(#SVGID_1_)"/><path d="m76.908 498.279v-255.763c0-12.218 6.519-23.509 17.1-29.618l343.09-198.083c9.134-5.274 20.551 1.318 20.551 11.865v255.763c0 12.219-6.518 23.509-17.1 29.618l-343.089 198.083c-9.134 5.273-20.552-1.318-20.552-11.865z" fill="url(#SVGID_2_)"/><g fill="#7e62c0"><path d="m206.833 273.952-43.692 126.13 87.385-50.452z"/><path d="m132.102 346.322-31.039 89.601 62.078-35.841z"/></g><g fill="#7e62c0"><path d="m400.893 161.443-43.693 126.13 87.386-50.452z"/><path d="m326.162 233.812-31.039 89.602 62.077-35.841z"/></g><path d="m261.983 415.156 10.592-6.115v-299.238l-10.592 6.115z" fill="#45356d"/></g></svg>