<svg id="Capa_1" enable-background="new 0 0 512 512" height="512" viewBox="0 0 512 512" width="512" xmlns="http://www.w3.org/2000/svg" xmlns:xlink="http://www.w3.org/1999/xlink"><linearGradient id="lg1"><stop offset="0" stop-color="#b096ed"/><stop offset=".3485" stop-color="#c7b6ef"/><stop offset=".7689" stop-color="#dfd7f2"/><stop offset="1" stop-color="#e8e3f3"/></linearGradient><linearGradient id="SVGID_1_" gradientUnits="userSpaceOnUse" x1="423.241" x2="296.472" xlink:href="#lg1" y1="510.097" y2="290.527"/><linearGradient id="SVGID_2_" gradientUnits="userSpaceOnUse" x1="128.328" x2="242.575" xlink:href="#lg1" y1="441.561" y2="243.679"/><linearGradient id="SVGID_3_" gradientUnits="userSpaceOnUse" x1="-24.3" x2="272.906" y1="376" y2="204.409"><stop offset="0" stop-color="#b096ed"/><stop offset=".0014" stop-color="#b096ed"/><stop offset=".299" stop-color="#cdbcf3"/><stop offset=".5742" stop-color="#e2d7f7"/><stop offset=".8165" stop-color="#efe8f9"/><stop offset="1" stop-color="#f3eefa"/></linearGradient><g><g><path d="m256 154.589c-3.861 0-6.99-3.13-6.99-6.99v-126.818c0-3.861 3.129-6.99 6.99-6.99s6.99 3.13 6.99 6.99v126.817c.001 3.861-3.129 6.991-6.99 6.991z" fill="#45356d"/></g><g><path d="m269.597 41.421c-1.788 0-3.578-.682-4.942-2.047l-8.708-8.707-8.601 8.602c-2.729 2.73-7.156 2.73-9.886 0s-2.73-7.156 0-9.886l18.488-18.488 18.593 18.592c2.731 2.73 2.731 7.156 0 9.886-1.365 1.365-3.155 2.048-4.944 2.048z" fill="#45356d"/></g><g><path d="m503.444 468.016c-1.185 0-2.388-.302-3.488-.938l-106.885-61.71c-3.344-1.93-4.489-6.206-2.559-9.549 1.929-3.342 6.203-4.49 9.549-2.559l106.885 61.71c3.344 1.93 4.489 6.206 2.559 9.549-1.295 2.243-3.645 3.497-6.061 3.497z" fill="#45356d"/></g><g><path d="m484.933 473.297c-3.051 0-5.857-2.015-6.724-5.098-1.047-3.716 1.118-7.577 4.835-8.623l11.71-3.297-3.337-11.852c-1.047-3.716 1.117-7.577 4.833-8.623 3.714-1.046 7.577 1.117 8.623 4.834l7.127 25.31-25.169 7.085c-.632.179-1.27.264-1.898.264z" fill="#45356d"/></g><g><path d="m8.556 468.016c-2.417 0-4.766-1.253-6.061-3.496-1.931-3.343-.785-7.619 2.558-9.549l106.885-61.71c3.345-1.931 7.62-.785 9.549 2.559 1.931 3.343.785 7.619-2.559 9.549l-106.885 61.71c-1.1.635-2.302.937-3.487.937z" fill="#45356d"/></g><path d="m414.436 214.169-158.436 91.473v195.463l158.436-91.473z" fill="url(#SVGID_1_)"/><path d="m97.564 214.169 158.436 91.473v195.463l-158.436-91.473z" fill="url(#SVGID_2_)"/><path d="m97.564 214.169 158.436-91.473 158.436 91.473-158.436 91.473z" fill="url(#SVGID_3_)"/><g><path d="m27.066 473.297c-.627 0-1.264-.085-1.898-.263l-25.168-7.085 7.126-25.31c1.046-3.716 4.905-5.88 8.623-4.835 3.716 1.047 5.88 4.907 4.835 8.623l-3.337 11.852 11.71 3.297c3.716 1.046 5.88 4.907 4.835 8.623-.869 3.083-3.674 5.098-6.726 5.098z" fill="#45356d"/></g></g></svg>