<svg id="Capa_1" enable-background="new 0 0 512 512" height="512" viewBox="0 0 512 512" width="512" xmlns="http://www.w3.org/2000/svg" xmlns:xlink="http://www.w3.org/1999/xlink"><linearGradient id="SVGID_1_" gradientUnits="userSpaceOnUse" x1="221.645" x2="236.108" y1="240.599" y2="215.548"><stop offset="0" stop-color="#221c36"/><stop offset="1" stop-color="#43386b"/></linearGradient><linearGradient id="SVGID_00000088118785066695310450000008370830326672745378_" gradientTransform="matrix(.866 -.5 0 1.155 33.407 872.343)" gradientUnits="userSpaceOnUse" x1="282.685" x2="282.685" y1="-300.253" y2="-483.756"><stop offset="0" stop-color="#43386b"/><stop offset="1" stop-color="#594a8e"/></linearGradient><g><g><g fill="#c5baeb"><path d="m193.791 187.664v-41.564l22.155-12.791v41.564z"/><path d="m235.697 163.306v-109.996l22.156-12.791v109.996z"/><path d="m277.604 138.948v-41.564l22.155-12.792v41.564z"/><path d="m193.791 425.381v-41.564l22.155-12.791v41.564z"/><path d="m235.697 469.455v-109.996l22.156-12.791v109.995z"/><path d="m277.604 376.665v-41.564l22.155-12.792v41.564z"/><path d="m373.962 108.09-31.173 17.998v29.541l31.173-17.998z"/><path d="m417.834 137.102-74.922 44.791v29.54l74.922-44.791z"/><path d="m343.034 237.698v29.54l31.173-17.998v-29.54z"/><path d="m171.13 225.216-31.173 17.998v29.541l31.173-17.998z"/><path d="m171.253 281.021-76.607 41.034v29.541l76.607-41.035z"/><path d="m140.202 384.364 31.173-17.998v-29.541l-31.173 17.998z"/></g><path d="m354.839 131.115-29.099-16.667c-3.193-1.759-7.317-1.56-11.827 1.044l-128.199 74.015c-10.122 5.845-18.329 21.525-18.329 35.023v136.051c0 7.306 2.417 12.449 6.227 14.727l28.171 16.146z" fill="url(#SVGID_1_)"/><path d="m342.311 131.746-128.198 74.015c-10.123 5.845-18.33 21.525-18.33 35.023v136.051c0 13.498 8.207 19.702 18.33 13.857l128.198-74.015c10.124-5.845 18.33-21.525 18.33-35.023v-136.051c0-13.498-8.207-19.702-18.33-13.857z" fill="url(#SVGID_00000088118785066695310450000008370830326672745378_)"/></g><g fill="#f7e041"><ellipse cx="246.775" cy="29.932" rx="31.617" ry="17.887" transform="matrix(.392 -.92 .92 .392 122.607 245.283)"/><ellipse cx="246.775" cy="482.068" rx="31.617" ry="17.887" transform="matrix(.392 -.92 .92 .392 -293.428 520.384)"/><ellipse cx="204.869" cy="439.523" rx="31.617" ry="17.887" transform="matrix(.392 -.92 .92 .392 -279.778 455.938)"/><ellipse cx="288.682" cy="390.526" rx="31.617" ry="17.887" transform="matrix(.392 -.92 .92 .392 -183.698 503.246)"/><ellipse cx="385.783" cy="111.77" rx="31.617" ry="17.887" transform="matrix(.392 -.92 .92 .392 131.882 422.987)"/><ellipse cx="125.2" cy="264.624" rx="31.617" ry="17.887" transform="matrix(.392 -.92 .92 .392 -167.317 276.213)"/><ellipse cx="125.2" cy="379.419" rx="31.617" ry="17.887" transform="matrix(.392 -.92 .92 .392 -272.946 346.059)"/><ellipse cx="79.263" cy="346.668" rx="31.617" ry="17.887" transform="matrix(.392 -.92 .92 .392 -270.761 283.863)"/><ellipse cx="432.737" cy="141.702" rx="31.617" ry="17.887" transform="matrix(.392 -.92 .92 .392 132.909 484.403)"/><ellipse cx="388.832" cy="225.243" rx="31.617" ry="17.887" transform="matrix(.392 -.92 .92 .392 29.325 494.834)"/><ellipse cx="204.869" cy="119.367" rx="31.617" ry="17.887" transform="matrix(.392 -.92 .92 .392 14.816 261.14)"/><ellipse cx="288.682" cy="70.45" rx="31.617" ry="17.887" transform="matrix(.392 -.92 .92 .392 110.822 308.497)"/></g><g fill="#fff"><path d="m273.871 295.477-39.734 22.941-5.238 19.907c-1.421 5.402-4.773 10.325-8.492 12.471-6.654 3.842-11.102-2.727-8.393-12.395l28.403-101.36c2.424-8.649 7.82-16.435 13.773-19.872 5.947-3.433 11.338-1.886 13.766 3.951l28.362 68.199c2.78 6.686-1.77 18.672-8.582 22.605-3.805 2.197-7.235 1.118-8.688-2.732zm-6.233-16.46-13.58-35.847-13.57 51.522z"/><path d="m321.122 178.526c5.471-3.159 9.906.194 9.906 7.489v87.706c0 7.295-4.435 15.769-9.906 18.928-5.471 3.159-9.906-.194-9.906-7.489v-87.706c0-7.295 4.435-15.77 9.906-18.928z"/></g></g></svg>