<svg id="Capa_1" enable-background="new 0 0 512 512" height="512" viewBox="0 0 512 512" width="512" xmlns="http://www.w3.org/2000/svg" xmlns:xlink="http://www.w3.org/1999/xlink"><linearGradient id="lg1"><stop offset="0" stop-color="#c5baeb"/><stop offset="1" stop-color="#f2effa"/></linearGradient><linearGradient id="SVGID_1_" gradientUnits="userSpaceOnUse" x1="200.161" x2="200.161" xlink:href="#lg1" y1="309.083" y2="-84.72"/><linearGradient id="lg2"><stop offset="0" stop-color="#a996eb"/><stop offset="1" stop-color="#a996eb" stop-opacity="0"/></linearGradient><linearGradient id="SVGID_00000005982883310014744090000012095374758871404732_" gradientUnits="userSpaceOnUse" x1="173.072" x2="166.963" xlink:href="#lg2" y1="78.024" y2="88.605"/><linearGradient id="SVGID_00000106844511948026509610000013052103606920159163_" gradientUnits="userSpaceOnUse" x1="248.034" x2="273.109" xlink:href="#lg2" y1="37.466" y2="-5.965"/><linearGradient id="SVGID_00000124152975502743959350000006310636742437756802_" gradientUnits="userSpaceOnUse" x1="186.097" x2="195.206" xlink:href="#lg2" y1="47.55" y2="31.773"/><linearGradient id="SVGID_00000075123944846240649270000003451321149885765538_" gradientUnits="userSpaceOnUse" x1="184.95" x2="184.95" xlink:href="#lg2" y1="281.773" y2="314.401"/><linearGradient id="SVGID_00000125570999153084311220000002630031834337971866_" gradientUnits="userSpaceOnUse" x1="101.889" x2="110.922" xlink:href="#lg2" y1="213.224" y2="197.58"/><linearGradient id="SVGID_00000113323708187289517300000010859268487558979463_" gradientUnits="userSpaceOnUse" x1="120.241" x2="127.204" xlink:href="#lg2" y1="143.166" y2="131.105"/><linearGradient id="SVGID_00000086676831130507341400000012273014206350491013_" gradientUnits="userSpaceOnUse" x1="151.772" x2="116.857" xlink:href="#lg2" y1="250.269" y2="308.651"/><linearGradient id="lg3"><stop offset="0" stop-color="#d7d1eb"/><stop offset="1" stop-color="#f2effa"/></linearGradient><linearGradient id="SVGID_00000145016346586992132490000007358561237265012866_" gradientTransform="matrix(.866 -.5 0 1.155 119.396 1194.275)" gradientUnits="userSpaceOnUse" x1="114.531" x2="114.531" xlink:href="#lg3" y1="-692.434" y2="-993.571"/><linearGradient id="SVGID_00000077294041484579568780000014943457512959778440_" gradientTransform="matrix(.866 -.5 0 1.155 119.396 1194.275)" gradientUnits="userSpaceOnUse" x1="114.531" x2="114.531" xlink:href="#lg3" y1="-921.105" y2="-741.236"/><linearGradient id="lg4"><stop offset="0" stop-color="#a996eb"/><stop offset="1" stop-color="#d7d1eb"/></linearGradient><linearGradient id="SVGID_00000033337390510774032770000017412461626670519702_" gradientUnits="userSpaceOnUse" x1="252.425" x2="188.323" xlink:href="#lg4" y1="155.529" y2="266.558"/><linearGradient id="SVGID_00000093898940557487019630000006002711315312607874_" gradientUnits="userSpaceOnUse" x1="220.023" x2="235.893" xlink:href="#lg1" y1="185.036" y2="157.548"/><linearGradient id="SVGID_00000171687209429674261690000011895758244110782359_" gradientUnits="userSpaceOnUse" x1="251.548" x2="251.548" xlink:href="#lg3" y1="253.798" y2="183.839"/><linearGradient id="SVGID_00000119811698366330894650000015179820024240737962_" gradientUnits="userSpaceOnUse" x1="261.349" x2="245.04" xlink:href="#lg4" y1="176.469" y2="204.717"/><linearGradient id="SVGID_00000013905998122213641060000001298660829022500515_" gradientUnits="userSpaceOnUse" x1="131.733" x2="123.605" xlink:href="#lg2" y1="157.219" y2="171.298"/><linearGradient id="SVGID_00000151519980417561176110000009764282971905236907_" gradientUnits="userSpaceOnUse" x1="407.889" x2="418.648" xlink:href="#lg1" y1="290.763" y2="272.127"/><linearGradient id="SVGID_00000065034387403800361930000004451565744621968283_" gradientUnits="userSpaceOnUse" x1="439.57" x2="458.104" xlink:href="#lg1" y1="313.149" y2="281.047"/><linearGradient id="SVGID_00000168080854983637655720000004107080271665225095_" gradientUnits="userSpaceOnUse" x1="464.392" x2="464.392" xlink:href="#lg3" y1="386.487" y2="305.031"/><g><g><path d="m201.582 319.189 121.12-231.151-34.094-19.561-3.198-47.749-35.019-20.269-.001.002c-2.207-1.26-5.386.115-7.963 3.516l-11.635 15.353-30.285-17.492c-1.262-.831-2.942-.793-4.753.252l-23.622 13.638c-3.125 1.804-5.871 6.154-6.726 10.655l-7.712 40.569c-2.608 2.737-5.154 5.611-7.627 8.616l-24.607-4.06c-2.73-.451-6.138 2.151-8.347 6.373l-16.703 31.915c-2.21 4.222-2.685 9.04-1.165 11.803l13.7 24.899c-1.182 3.98-2.236 7.983-3.159 11.993l-27.087 25.919c-3.006 2.876-5.079 7.734-5.079 11.901v31.496c0 2.723.889 4.711 2.342 5.602l-.001.002.092.053c.053.031.105.065.16.093l28.328 16.366-9.296 27.629c-1.52 4.518-1.045 8.787 1.165 10.457l52.139 33.094 15.598-21.216z" fill="url(#SVGID_1_)"/><path d="m150.067 75.567 34.636 20.017 7.627-8.615-34.636-20.017z" fill="url(#SVGID_00000005982883310014744090000012095374758871404732_)"/><path d="m243.03 60.009h15.378l27.002-39.281-35.019-20.269-.001.002c-2.207-1.26-5.386.115-7.963 3.516l-11.635 15.353 4.255 2.456z" fill="url(#SVGID_00000106844511948026509610000013052103606920159163_)"/><path d="m195.755 2.09-23.622 13.638c-3.125 1.804-5.871 6.154-6.726 10.655l-7.712 40.569 34.636 20.017 42.716-65.182-4.255-2.456-30.285-17.493c-1.262-.831-2.942-.794-4.752.252z" fill="url(#SVGID_00000124152975502743959350000006310636742437756802_)"/><path d="m168.148 299.886 17.013-20.541 16.592 1.53-.171 38.314z" fill="url(#SVGID_00000075123944846240649270000003451321149885765538_)"/><path d="m115.041 253.654 29.382-75.148-34.636-20.017-27.088 25.921c-3.006 2.876-5.079 7.734-5.079 11.901v31.496c0 2.723.889 4.711 2.342 5.602l-.001.002.092.053c.053.031.105.065.16.093l28.328 16.366z" fill="url(#SVGID_00000125570999153084311220000002630031834337971866_)"/><path d="m99.245 121.597 13.7 24.899 34.636 20.017 4.168-68.616-34.636-20.017-16.703 31.915c-2.21 4.221-2.685 9.039-1.165 11.802z" fill="url(#SVGID_00000113323708187289517300000010859268487558979463_)"/><path d="m150.055 240.648-35.014 13.007-6.499-3.733-9.296 27.629c-1.52 4.518-1.045 8.787 1.165 10.457l52.139 33.094 1.611-2.191z" fill="url(#SVGID_00000086676831130507341400000012273014206350491013_)"/><path d="m319.824 87.52-27.087 5.356c-.923-2.944-1.977-5.73-3.159-8.345l13.7-40.718c1.52-4.518 1.045-8.787-1.165-10.457l-16.703-12.628c-2.21-1.671-5.617-.337-8.348 3.266l-24.607 32.474c-2.473-.148-5.019-.083-7.627.191l-7.712-31.664c-.856-3.513-3.601-4.692-6.726-2.888l-23.622 13.638c-3.125 1.804-5.871 6.153-6.726 10.655l-7.712 40.569c-2.608 2.736-5.154 5.611-7.627 8.615l-24.607-4.06c-2.73-.451-6.138 2.151-8.347 6.373l-16.703 31.915c-2.21 4.222-2.685 9.04-1.165 11.803l13.7 24.899c-1.182 3.98-2.236 7.983-3.159 11.993l-27.087 25.921c-3.006 2.876-5.079 7.734-5.079 11.901v31.496c0 4.167 2.073 6.631 5.079 6.036l27.087-5.356c.923 2.944 1.977 5.73 3.159 8.345l-13.7 40.719c-1.52 4.518-1.044 8.787 1.165 10.457l16.703 12.627c2.21 1.671 5.617.337 8.347-3.266l24.606-32.474c2.473.148 5.019.084 7.627-.191l7.712 31.664c.856 3.513 3.601 4.692 6.726 2.888l23.622-13.638c3.125-1.804 5.871-6.154 6.726-10.655l7.712-40.569c2.608-2.736 5.154-5.611 7.627-8.616l24.606 4.061c2.73.451 6.138-2.151 8.348-6.373l16.703-31.915c2.21-4.222 2.685-9.04 1.165-11.803l-13.7-24.899c1.182-3.98 2.236-7.983 3.159-11.993l27.087-25.921c3.005-2.876 5.079-7.734 5.079-11.901v-31.496c.002-4.166-2.071-6.63-5.077-6.036z" fill="url(#SVGID_00000145016346586992132490000007358561237265012866_)"/><path d="m283.489 133.214c0-47.798-29.061-69.768-64.91-49.071s-64.91 76.224-64.91 124.022 29.061 69.768 64.91 49.071 64.91-76.223 64.91-124.022z" fill="url(#SVGID_00000077294041484579568780000014943457512959778440_)"/><path d="m255.972 78.353c10.944 9.174 17.653 26.171 17.653 49.132 0 47.798-29.061 103.325-64.91 124.022-13.924 8.039-26.822 9.638-37.393 5.79 11.837 9.923 28.63 10.693 47.257-.062 35.849-20.697 64.91-76.224 64.91-124.022 0-29.232-10.871-48.801-27.517-54.86z" fill="url(#SVGID_00000033337390510774032770000017412461626670519702_)"/><path d="m232.685 134.222c-4.797-2.742-11.038-2.479-17.867 1.464-15.129 8.735-27.394 32.169-27.394 52.342 0 10.976 3.636 18.714 9.384 22.091l36.912 21.352 36.127-75.769z" fill="url(#SVGID_00000093898940557487019630000006002711315312607874_)"/><path d="m278.942 177.63c0-20.173-12.265-29.444-27.394-20.71-15.129 8.735-27.394 32.169-27.394 52.342s12.265 29.444 27.394 20.71c15.129-8.736 27.394-32.17 27.394-52.342z" fill="url(#SVGID_00000171687209429674261690000011895758244110782359_)"/><path d="m270.635 182.426c0-14.055-8.545-20.515-19.087-14.429-10.541 6.086-19.087 22.414-19.087 36.469s8.545 20.515 19.087 14.429c10.541-6.086 19.087-22.414 19.087-36.469z" fill="url(#SVGID_00000119811698366330894650000015179820024240737962_)"/><path d="m147.581 166.513-3.159 11.993-34.636-20.017 3.159-11.993z" fill="url(#SVGID_00000013905998122213641060000001298660829022500515_)"/></g><g><g><path d="m243.992 193.812c-1.242 0-2.454-.504-3.334-1.384-.22-.22-.408-.455-.582-.723-.173-.251-.314-.535-.44-.818-.11-.283-.204-.581-.267-.88s-.094-.614-.094-.912c0-.315.031-.629.094-.928s.157-.598.267-.88c.126-.283.267-.567.44-.818.174-.252.362-.504.582-.724 1.101-1.085 2.721-1.588 4.262-1.273.299.047.597.141.881.267.283.11.566.251.818.425.252.173.503.377.723.581.204.22.409.472.582.724.173.251.314.534.425.818.126.283.22.581.267.88.063.299.094.613.094.928 0 .299-.031.613-.094.912-.047.299-.141.597-.267.88-.111.283-.252.567-.425.818-.173.268-.378.504-.582.723-.22.22-.471.409-.723.582-.252.174-.535.315-.818.441-.283.11-.582.204-.881.267-.299.062-.614.094-.928.094z" fill="#43386b"/></g><g><path d="m336.516 247.945c-2.265-1.305-3.036-4.184-1.73-6.448 1.306-2.249 4.184-3.02 6.448-1.714 2.249 1.289 3.02 4.183 1.73 6.432-.881 1.526-2.47 2.359-4.105 2.359-.787 0-1.605-.205-2.343-.629zm-13.558-7.817c-2.265-1.305-3.036-4.199-1.73-6.448 1.306-2.265 4.184-3.036 6.448-1.73 2.249 1.305 3.036 4.183 1.73 6.448-.881 1.51-2.47 2.359-4.089 2.359-.802.001-1.619-.204-2.359-.629zm-13.557-7.832c-2.249-1.305-3.035-4.183-1.73-6.448 1.306-2.248 4.2-3.02 6.448-1.729 2.265 1.306 3.036 4.199 1.73 6.448-.881 1.51-2.454 2.359-4.089 2.359-.801-.001-1.619-.206-2.359-.63zm-13.557-7.816c-2.249-1.305-3.02-4.199-1.714-6.448 1.289-2.265 4.184-3.036 6.432-1.73 2.265 1.305 3.036 4.184 1.73 6.448-.865 1.51-2.453 2.359-4.089 2.359-.801 0-1.604-.205-2.359-.629zm-13.541-7.832c-2.265-1.305-3.035-4.184-1.73-6.448 1.306-2.249 4.184-3.036 6.448-1.73 2.249 1.305 3.02 4.199 1.714 6.448-.865 1.51-2.453 2.359-4.089 2.359-.801 0-1.603-.205-2.343-.629zm-13.557-7.832c-2.265-1.305-3.035-4.184-1.729-6.433 1.305-2.265 4.183-3.035 6.448-1.729 2.249 1.305 3.036 4.183 1.73 6.448-.881 1.51-2.469 2.359-4.089 2.359-.802-.001-1.62-.205-2.36-.645zm-13.556-7.817c-2.249-1.305-3.02-4.184-1.73-6.448 1.305-2.249 4.199-3.035 6.448-1.73 2.265 1.305 3.035 4.2 1.729 6.448-.88 1.51-2.469 2.359-4.089 2.359-.801 0-1.619-.205-2.358-.629z" fill="#43386b"/></g><g><path d="m352.431 256.406c-.314 0-.629-.031-.928-.095-.299-.063-.597-.157-.881-.267-.283-.126-.566-.267-.818-.44-.251-.174-.503-.362-.723-.582-.865-.881-1.368-2.092-1.368-3.334s.504-2.469 1.368-3.334c.22-.22.472-.425.723-.597.252-.157.535-.314.818-.425.283-.126.582-.204.881-.267.614-.126 1.227-.126 1.84 0 .299.063.598.141.881.267.283.111.566.267.818.425.252.173.504.378.723.597.865.881 1.384 2.092 1.384 3.334 0 1.243-.518 2.454-1.384 3.334-.22.22-.472.409-.723.582-.252.173-.534.314-.818.44-.283.11-.582.204-.881.267s-.613.095-.912.095z" fill="#43386b"/></g></g><path d="m390.9 241.874c-3.238-1.85-7.449-1.673-12.058.988-10.211 5.895-18.488 21.71-18.488 35.325 0 7.408 2.454 12.63 6.333 14.909l76.001 43.564 24.382-51.136z" fill="url(#SVGID_00000151519980417561176110000009764282971905236907_)"/><path d="m466.226 260.657c-5.586-3.192-12.852-2.886-20.804 1.705-17.616 10.171-31.896 37.456-31.896 60.944 0 12.78 4.234 21.79 10.926 25.722l19.182 11.463 42.065-88.222z" fill="url(#SVGID_00000065034387403800361930000004451565744621968283_)"/><path d="m496.288 297.801c0-23.488-14.28-34.284-31.896-24.113s-31.896 37.456-31.896 60.944 14.28 34.283 31.896 24.113c17.616-10.171 31.896-37.457 31.896-60.944z" fill="url(#SVGID_00000168080854983637655720000004107080271665225095_)"/><g><g><path d="m20.43 64.723c-1.243 0-2.47-.503-3.334-1.384-.22-.22-.425-.456-.597-.708-.157-.267-.315-.535-.425-.818-.126-.283-.205-.582-.267-.881-.063-.314-.094-.614-.094-.928 0-1.243.503-2.454 1.384-3.334.22-.22.456-.409.708-.582.267-.173.535-.314.817-.44.283-.11.582-.204.881-.267.614-.126 1.242-.126 1.841 0 .314.063.598.157.896.267.283.126.551.267.802.44.268.174.504.362.723.582.881.881 1.385 2.092 1.385 3.334 0 .314-.031.614-.094.928-.063.299-.157.597-.267.881-.126.283-.268.551-.441.818-.173.252-.362.488-.582.708s-.455.425-.723.597c-.251.158-.518.314-.802.425-.299.126-.582.204-.896.267-.302.063-.616.095-.915.095z" fill="#43386b"/></g><g><path d="m81.247 100.565c-2.249-1.29-3.02-4.184-1.73-6.433 1.305-2.265 4.199-3.035 6.448-1.729 2.265 1.305 3.035 4.183 1.73 6.448-.881 1.51-2.47 2.359-4.089 2.359-.802-.001-1.62-.205-2.359-.645zm-12.629-7.298c-2.265-1.289-3.035-4.184-1.729-6.432 1.305-2.265 4.183-3.036 6.448-1.73 2.249 1.305 3.02 4.184 1.715 6.448-.865 1.51-2.453 2.359-4.089 2.359-.788 0-1.606-.204-2.345-.645zm-12.645-7.281c-2.249-1.305-3.02-4.199-1.729-6.448 1.306-2.265 4.199-3.036 6.448-1.73 2.265 1.305 3.036 4.184 1.73 6.448-.881 1.51-2.453 2.359-4.089 2.359-.803 0-1.604-.205-2.36-.629zm-12.629-7.298c-2.265-1.306-3.036-4.199-1.73-6.448 1.306-2.248 4.184-3.035 6.448-1.729 2.249 1.305 3.02 4.183 1.73 6.448-.881 1.51-2.47 2.359-4.089 2.359-.801-.001-1.619-.205-2.359-.63zm-12.644-7.297c-2.249-1.305-3.02-4.183-1.714-6.448 1.289-2.249 4.183-3.036 6.432-1.73 2.265 1.305 3.036 4.199 1.73 6.448-.865 1.51-2.454 2.359-4.089 2.359-.802 0-1.605-.205-2.359-.629z" fill="#43386b"/></g><g><path d="m96.251 108.507c-.315 0-.629-.031-.928-.094s-.597-.157-.88-.267c-.283-.126-.567-.267-.818-.44-.252-.174-.504-.378-.723-.582-.866-.881-1.368-2.092-1.368-3.334 0-.314.031-.629.078-.928.063-.299.158-.597.283-.881.11-.283.251-.566.425-.818.173-.252.377-.503.582-.723.22-.204.471-.409.723-.582.251-.173.534-.314.818-.44.283-.11.581-.204.88-.267 1.541-.299 3.162.204 4.263 1.289.22.22.409.471.581.723.174.252.315.534.441.818.11.283.204.582.267.881s.094.614.094.928c0 1.243-.504 2.453-1.384 3.334-.881.88-2.092 1.383-3.334 1.383z" fill="#43386b"/></g></g><g><path d="m218.58 418.957c-2.606 0-4.718-2.113-4.718-4.718v-88.146c0-2.606 2.113-4.718 4.718-4.718 2.606 0 4.718 2.113 4.718 4.718v88.146c0 2.605-2.113 4.718-4.718 4.718z" fill="#43386b"/></g><g><path d="m424.16 240.695c-2.606 0-4.718-2.113-4.718-4.718v-122.206c0-2.606 2.112-4.718 4.718-4.718s4.718 2.113 4.718 4.718v122.205c0 2.606-2.112 4.719-4.718 4.719z" fill="#43386b"/></g><g><path d="m229.963 479.28-23.039 13.302-3.035 11.541c-.823 3.132-2.767 5.986-4.922 7.231-3.857 2.227-6.435-1.581-4.865-7.184l16.467-58.767c1.405-5.015 4.534-9.529 7.985-11.521 3.448-1.99 6.574-1.093 7.981 2.291l16.521 39.726c1.576 3.788-1.003 10.58-4.863 12.808l-.273.158c-2.156 1.245-4.099.634-4.922-1.547zm-3.615-9.538-7.869-20.788-7.869 29.874z" fill="#43386b"/></g><g><path d="m446.916 59.11c0 11.436-6.805 21.982-19.849 29.513l-19.445 11.227c-3.434 1.983-6.217-.122-6.217-4.7v-49.586c0-4.578 2.784-9.897 6.217-11.879l18.027-10.408c12.406-7.162 18.786-3.946 18.786 6.356 0 6.617-2.552 13.194-6.593 18.363 5.53-.829 9.074 2.795 9.074 11.114zm-34.098-16.893v15.596l11.413-6.589c5.6-3.233 8.649-7.64 8.649-12.838 0-5.199-3.049-5.991-8.649-2.757zm22.543 21.956c0-5.577-3.19-6.381-9.145-2.943l-13.398 7.735v16.352l13.398-7.735c5.955-3.438 9.145-7.737 9.145-13.409z" fill="#43386b"/></g></g></svg>