<svg id="Capa_1" enable-background="new 0 0 512 512" height="512" viewBox="0 0 512 512" width="512" xmlns="http://www.w3.org/2000/svg" xmlns:xlink="http://www.w3.org/1999/xlink"><linearGradient id="lg1"><stop offset="0" stop-color="#e37a34"/><stop offset=".0221" stop-color="#e37c34"/><stop offset=".6897" stop-color="#f1c43d"/><stop offset="1" stop-color="#f7e041"/></linearGradient><linearGradient id="SVGID_1_" gradientUnits="userSpaceOnUse" x1="-21.877" x2="148.435" xlink:href="#lg1" y1="446.751" y2="348.421"/><linearGradient id="lg2"><stop offset="0" stop-color="#f7e041"/><stop offset="1" stop-color="#fcf3b3"/></linearGradient><linearGradient id="SVGID_2_" gradientTransform="matrix(.866 .5 -1 .577 -3136.698 -1113.77)" gradientUnits="userSpaceOnUse" x1="3259.516" x2="3384.804" xlink:href="#lg2" y1="-356.597" y2="-356.597"/><linearGradient id="lg3"><stop offset="0" stop-color="#e37a34"/><stop offset="1" stop-color="#ffc538"/></linearGradient><linearGradient id="SVGID_3_" gradientUnits="userSpaceOnUse" x1="146.742" x2="47.54" xlink:href="#lg3" y1="312.629" y2="369.903"/><linearGradient id="SVGID_4_" gradientUnits="userSpaceOnUse" x1="296.344" x2="466.656" xlink:href="#lg1" y1="269.193" y2="170.863"/><linearGradient id="SVGID_5_" gradientTransform="matrix(.866 .5 -1 .577 -3136.698 -1113.77)" gradientUnits="userSpaceOnUse" x1="3265.699" x2="3390.986" xlink:href="#lg2" y1="-669.464" y2="-669.464"/><linearGradient id="SVGID_6_" gradientUnits="userSpaceOnUse" x1="464.963" x2="365.761" xlink:href="#lg3" y1="135.071" y2="192.345"/><linearGradient id="SVGID_7_" gradientUnits="userSpaceOnUse" x1="151.785" x2="364.912" xlink:href="#lg3" y1="455.79" y2="455.79"/><linearGradient id="SVGID_8_" gradientUnits="userSpaceOnUse" x1="125.523" x2="365.107" xlink:href="#lg1" y1="349.755" y2="488.079"/><linearGradient id="lg4"><stop offset="0" stop-color="#8b451c"/><stop offset="1" stop-color="#8b451c" stop-opacity="0"/></linearGradient><linearGradient id="SVGID_9_" gradientUnits="userSpaceOnUse" x1="209.833" x2="176.327" xlink:href="#lg4" y1="429.031" y2="409.686"/><linearGradient id="SVGID_10_" gradientUnits="userSpaceOnUse" x1="177.906" x2="338.79" xlink:href="#lg3" y1="425.017" y2="425.017"/><linearGradient id="SVGID_11_" gradientUnits="userSpaceOnUse" x1="158.082" x2="338.937" xlink:href="#lg1" y1="344.975" y2="449.392"/><linearGradient id="SVGID_12_" gradientUnits="userSpaceOnUse" x1="265.055" x2="207.184" xlink:href="#lg4" y1="404.371" y2="370.959"/><linearGradient id="SVGID_13_" gradientUnits="userSpaceOnUse" x1="237.301" x2="279.395" xlink:href="#lg3" y1="266.349" y2="266.349"/><linearGradient id="SVGID_14_" gradientUnits="userSpaceOnUse" x1="280.585" x2="232.745" xlink:href="#lg4" y1="167.586" y2="139.965"/><linearGradient id="lg5"><stop offset="0" stop-color="#f7e041"/><stop offset="1" stop-color="#ffc538"/></linearGradient><radialGradient id="SVGID_15_" cx="415.635" cy="21.889" gradientUnits="userSpaceOnUse" r="29.864" xlink:href="#lg5"/><linearGradient id="lg6"><stop offset="0" stop-color="#fff"/><stop offset="1" stop-color="#fff" stop-opacity="0"/></linearGradient><radialGradient id="SVGID_16_" cx="425.185" cy="14.193" gradientUnits="userSpaceOnUse" r="29.864" xlink:href="#lg6"/><linearGradient id="lg7"><stop offset=".0319" stop-color="#43386b"/><stop offset=".0811" stop-color="#463a70"/><stop offset=".356" stop-color="#544686"/><stop offset=".5321" stop-color="#594a8e"/><stop offset="1" stop-color="#7662bd"/></linearGradient><linearGradient id="SVGID_17_" gradientTransform="matrix(-1 0 0 1 1657.049 0)" gradientUnits="userSpaceOnUse" x1="1393.036" x2="1414.017" xlink:href="#lg7" y1="123.605" y2="87.265"/><radialGradient id="SVGID_18_" cx="259.003" cy="108.653" gradientUnits="userSpaceOnUse" r="37.267" xlink:href="#lg5"/><radialGradient id="SVGID_19_" cx="270.92" cy="99.05" gradientUnits="userSpaceOnUse" r="37.267" xlink:href="#lg6"/><linearGradient id="SVGID_20_" gradientTransform="matrix(-1 0 0 1 1657.049 0)" gradientUnits="userSpaceOnUse" x1="1479.32" x2="1498.391" xlink:href="#lg7" y1="170.028" y2="136.996"/><radialGradient id="SVGID_21_" cx="97.414" cy="199.447" gradientUnits="userSpaceOnUse" r="29.864" xlink:href="#lg5"/><radialGradient id="SVGID_22_" cx="106.964" cy="191.751" gradientUnits="userSpaceOnUse" r="29.864" xlink:href="#lg6"/><g><g><path d="m14.218 351.508v5.427c0 45.713 37.058 82.771 82.771 82.771 45.713 0 82.771-37.058 82.771-82.771v-22.8z" fill="url(#SVGID_1_)"/><path d="m151.14 372.733c34.597-19.974 38.354-50.19 8.393-67.488-29.962-17.298-82.296-15.129-116.893 4.845s-38.354 50.19-8.393 67.488c29.961 17.299 82.296 15.129 116.893-4.845z" fill="url(#SVGID_2_)"/><path d="m140.487 366.583c27.803-16.052 30.823-40.335 6.745-54.236-24.078-13.902-66.136-12.158-93.94 3.894-27.803 16.052-30.823 40.334-6.745 54.236 24.079 13.901 66.137 12.158 93.94-3.894z" fill="url(#SVGID_3_)"/></g><g><path d="m41.366 379.413c-.508 0-1.024-.08-1.532-.249-2.546-.846-3.924-3.595-3.078-6.141l58.999-177.592 61.966 110.939c1.308 2.342.47 5.301-1.872 6.609-2.343 1.308-5.301.47-6.609-1.872l-51.217-91.694-52.048 156.673c-.677 2.038-2.574 3.327-4.609 3.327z" fill="#594a8e"/></g><g><path d="m332.439 173.95v5.427c0 45.713 37.058 82.771 82.771 82.771 45.713 0 82.771-37.058 82.771-82.771v-22.8z" fill="url(#SVGID_4_)"/><path d="m469.361 195.175c34.597-19.974 38.354-50.19 8.392-67.488-29.961-17.298-82.296-15.129-116.893 4.845s-38.354 50.19-8.393 67.488c29.962 17.299 82.297 15.129 116.894-4.845z" fill="url(#SVGID_5_)"/><path d="m458.708 189.025c27.803-16.052 30.823-40.335 6.745-54.236-24.078-13.902-66.136-12.158-93.94 3.894s-30.823 40.335-6.745 54.236c24.079 13.901 66.137 12.158 93.94-3.894z" fill="url(#SVGID_6_)"/></g><g><path d="m359.586 201.855c-.507 0-1.023-.08-1.532-.249-2.546-.846-3.924-3.595-3.078-6.141l58.999-177.593 61.966 110.939c1.308 2.342.47 5.301-1.872 6.609-2.343 1.308-5.301.47-6.609-1.872l-51.217-91.694-52.049 156.673c-.675 2.038-2.572 3.328-4.608 3.328z" fill="#594a8e"/></g><g><path d="m356.389 418.486.019-.001-.329-.408c-.026-.031-.051-.063-.076-.094l-14.882-18.404-166.712 15.417-12.366 17.291.028-.002c-17.559 22.609-12.84 48.211 15.711 64.695 38.534 22.247 105.841 19.457 150.336-6.232 35.904-20.728 45.964-50.029 28.271-72.262z" fill="url(#SVGID_7_)"/><path d="m317.179 460.408c37.519-21.661 41.594-54.429 9.101-73.189-32.492-18.759-89.248-16.407-126.767 5.255s-41.594 54.429-9.102 73.189c32.494 18.759 89.249 16.407 126.768-5.255z" fill="url(#SVGID_8_)"/><path d="m201.449 391.405c-.646.356-1.3.703-1.935 1.069-22.558 13.024-33.008 30.061-30.707 45.656l19.458 11.234z" fill="url(#SVGID_9_)"/><path d="m332.356 396.858.014-.001-.249-.308c-.019-.024-.038-.048-.058-.071l-11.234-13.893-125.846 11.638-9.334 13.053.021-.002c-13.255 17.067-9.693 36.393 11.86 48.837 29.088 16.794 79.896 14.688 113.484-4.704 27.104-15.648 34.698-37.766 21.342-54.549z" fill="url(#SVGID_10_)"/><path d="m302.758 428.504c28.322-16.352 31.398-41.087 6.87-55.248-24.527-14.161-67.371-12.385-95.693 3.967s-31.398 41.087-6.871 55.248c24.529 14.16 67.372 12.384 95.694-3.967z" fill="url(#SVGID_11_)"/><path d="m241.798 415.25v-48.614c-9.984 2.254-19.55 5.787-27.862 10.586-6.716 3.878-11.994 8.229-15.84 12.797z" fill="url(#SVGID_12_)"/></g><path d="m279.395 113.781-42.094 3.76v290.884c-.032 2.819 1.651 5.515 5.132 7.525 7.611 4.394 20.904 3.843 29.692-1.231 4.934-2.848 7.398-6.517 7.264-9.964h.006z" fill="url(#SVGID_13_)"/><path d="m237.301 168.855c21.949-5.797 38.524-17.331 38.524-17.331l-22.82-26.121s-6.896 3.886-15.705 9.415v34.037z" fill="url(#SVGID_14_)"/><g><circle cx="415.11" cy="29.864" fill="url(#SVGID_15_)" r="29.864"/></g><circle cx="415.11" cy="29.864" fill="url(#SVGID_16_)" opacity=".5" r="29.864"/><g><path d="m101.586 180.114 291.332-159.558c2.352-1.34 5.412-1.205 8.757.727 7.42 4.284 13.435 15.777 13.435 25.67 0 5.215-1.672 8.944-4.34 10.678v.001l-291.881 159.88c-2.325 1.226-17.303-37.398-17.303-37.398z" fill="url(#SVGID_17_)"/></g><g><circle cx="258.348" cy="118.606" fill="url(#SVGID_18_)" r="37.267"/></g><circle cx="258.348" cy="118.606" fill="url(#SVGID_19_)" opacity=".5" r="37.267"/><g><path d="m101.586 180.114 119.495-65.448c2.352-1.34 5.412-1.205 8.757.727 7.42 4.284 13.435 15.777 13.435 25.67 0 5.215-1.672 8.944-4.34 10.678v.001l-120.045 65.771c-2.324 1.225-17.302-37.399-17.302-37.399z" fill="url(#SVGID_20_)"/></g><g><circle cx="96.89" cy="207.422" fill="url(#SVGID_21_)" r="29.864"/></g><circle cx="96.89" cy="207.422" fill="url(#SVGID_22_)" opacity=".5" r="29.864"/></g></svg>