<svg id="Capa_1" enable-background="new 0 0 512 512" height="512" viewBox="0 0 512 512" width="512" xmlns="http://www.w3.org/2000/svg" xmlns:xlink="http://www.w3.org/1999/xlink"><linearGradient id="lg1"><stop offset="0" stop-color="#322650"/><stop offset=".3855" stop-color="#45356d"/><stop offset="1" stop-color="#5e4990"/></linearGradient><linearGradient id="SVGID_1_" gradientUnits="userSpaceOnUse" x1="254.063" x2="319.089" xlink:href="#lg1" y1="132.821" y2="132.821"/><linearGradient id="lg2"><stop offset="0" stop-color="#45356d"/><stop offset=".3855" stop-color="#544081"/><stop offset="1" stop-color="#7e62c0"/></linearGradient><linearGradient id="SVGID_2_" gradientUnits="userSpaceOnUse" x1="398.119" x2="309.253" xlink:href="#lg2" y1="434.011" y2="-26.389"/><linearGradient id="SVGID_3_" gradientUnits="userSpaceOnUse" x1="254.063" x2="319.089" xlink:href="#lg1" y1="165.952" y2="165.952"/><linearGradient id="SVGID_4_" gradientUnits="userSpaceOnUse" x1="192.281" x2="220.481" xlink:href="#lg2" y1="290.963" y2="242.119"/><linearGradient id="SVGID_5_" gradientUnits="userSpaceOnUse" x1="176.584" x2="204.78" xlink:href="#lg1" y1="281.867" y2="233.03"/><linearGradient id="SVGID_6_" gradientUnits="userSpaceOnUse" x1="245.766" x2="292.176" y1="345.074" y2="264.689"><stop offset="0" stop-color="#c9baec"/><stop offset=".3855" stop-color="#e8e3f3"/><stop offset="1" stop-color="#e8e3f3"/></linearGradient><linearGradient id="SVGID_7_" gradientUnits="userSpaceOnUse" x1="384.48" x2="332.239" y1="399.312" y2="103.952"><stop offset="0" stop-color="#c9baec"/><stop offset=".3855" stop-color="#e8e3f3"/><stop offset="1" stop-color="#fff"/></linearGradient><linearGradient id="SVGID_8_" gradientUnits="userSpaceOnUse" x1="141.121" x2="-25.306" xlink:href="#lg1" y1="338.913" y2="242.826"/><linearGradient id="SVGID_9_" gradientUnits="userSpaceOnUse" x1="187.577" x2="98.711" xlink:href="#lg2" y1="474.65" y2="14.251"/><linearGradient id="SVGID_10_" gradientUnits="userSpaceOnUse" x1="119.022" x2="119.022" xlink:href="#lg1" y1="364.379" y2="299.233"/><linearGradient id="SVGID_11_" gradientTransform="matrix(.866 .5 0 1.155 15.161 -125.847)" gradientUnits="userSpaceOnUse" x1="117.08" x2="94.431" xlink:href="#lg2" y1="422.899" y2="305.558"/><linearGradient id="SVGID_12_" gradientTransform="matrix(.866 .5 0 1.155 15.161 -125.847)" gradientUnits="userSpaceOnUse" x1="112.142" x2="97.857" y1="397.312" y2="323.305"><stop offset="0" stop-color="#d9d1ec"/><stop offset=".3855" stop-color="#e8e3f3"/><stop offset="1" stop-color="#f3eefa"/></linearGradient><g><path d="m268.086 67.7c-3.848.872-10.679 3.723-19.695 8.047v3.926 52.941l6.203-3.581c14.341-8.28 32.01-8.279 46.35.002l120.695 69.698 10.001-5.799v-52.941l-71.851-36.369c-.001.001-60.317-43.034-91.703-35.924z" fill="url(#SVGID_1_)"/><path d="m431.638 139.994-122.079-70.483c-19.704-11.376-43.98-11.375-63.684.002l-7.542 4.355 10.057 5.806 6.203-3.581c14.341-8.28 32.01-8.279 46.35.002l120.695 69.698z" fill="url(#SVGID_2_)"/><path d="m254.593 76.093-247.432 137.249 2.836 22.636s21.398 17.748 25.011 19.834l213.382-123.196z" fill="url(#SVGID_3_)"/><path d="m316.212 86.059c-31.695 42.809-77.334 73.216-129.048 85.979l-39.444 9.734c-41.137 10.152-70.042 47.058-70.042 89.43v66.193c0 15.036 4.993 25.627 12.881 30.225l82.13 47.473 271.193-316.969-49.186-28.379c-26.504-15.303-60.273-8.284-78.484 16.314z" fill="url(#SVGID_4_)"/><path d="m95.404 347.696v-66.193c0-42.371 28.905-79.277 70.042-89.43l39.444-9.734c51.713-12.763 97.353-43.17 129.048-85.979 18.212-24.597 51.98-31.617 78.485-16.314l-17.726-10.301c-26.505-15.303-60.274-8.284-78.485 16.314-31.695 42.809-77.334 73.216-129.048 85.979l-39.444 9.734c-41.137 10.152-70.042 47.058-70.042 89.43v66.193c0 15.036 4.993 25.627 12.881 30.225l16.523 9.525c-7.186-4.946-11.678-15.195-11.678-29.449z" fill="url(#SVGID_5_)"/><path d="m230.389 448.308 267.656-319.06-54.163-31.124c-.686-.215-15.592-7.011-27.857.07l-219.132 126.517c-20.677 11.938-37.439 43.965-37.439 71.535v88.418c0 15.262 5.142 25.946 13.236 30.43 0 0-.005.001-.014.003z" fill="url(#SVGID_6_)"/><path d="m474.561 131.755-219.134 126.517c-20.677 11.938-37.439 43.965-37.439 71.535v88.418c0 27.57 16.762 40.242 37.439 28.304l219.133-126.517c20.678-11.939 37.44-43.966 37.44-71.536v-88.418c0-27.569-16.762-40.241-37.439-28.303z" fill="url(#SVGID_7_)"/><path d="m31.899 251.734-31.899-27.573v53.25l.005.005c-.052 7.717 3.737 15.457 11.375 19.867l119.783 69.158 10.019-5.785v-52.941z" fill="url(#SVGID_8_)"/><path d="m16.871 213.342 233.944-135.068-12.481-4.406-226.955 131.052c-15.172 8.761-15.172 30.661.001 39.421l119.783 69.158 10.019-5.785-124.312-71.788c-8.692-5.019-8.692-17.566.001-22.584z" fill="url(#SVGID_9_)"/><g><path d="m151.19 339.115c0-20.098-12.22-43.447-27.294-52.149-7.251-4.186-13.836-4.211-18.723-.884l-.003-.006-18.317 10.575 36.35 75.278 17.485-10.195-.002-.004c6.391-2.97 10.504-10.962 10.504-22.615z" fill="url(#SVGID_10_)"/><path d="m132.265 350.082c0-20.099-12.22-43.447-27.293-52.149-15.074-8.703-27.294.535-27.294 20.633s12.22 43.446 27.294 52.149c15.073 8.703 27.293-.535 27.293-20.633z" fill="url(#SVGID_11_)"/><path d="m122.185 344.262c0-12.676-7.707-27.402-17.214-32.89-9.507-5.489-17.214.337-17.214 13.013s7.707 27.402 17.214 32.891c9.507 5.488 17.214-.338 17.214-13.014z" fill="url(#SVGID_12_)"/></g></g></svg>