<svg id="Capa_1" enable-background="new 0 0 512 512" height="512" viewBox="0 0 512 512" width="512" xmlns="http://www.w3.org/2000/svg" xmlns:xlink="http://www.w3.org/1999/xlink"><linearGradient id="lg1"><stop offset="0" stop-color="#7e62c0"/><stop offset=".3627" stop-color="#8d72cd"/><stop offset="1" stop-color="#b096ed"/></linearGradient><linearGradient id="SVGID_1_" gradientUnits="userSpaceOnUse" x1="484.63" x2="511.993" xlink:href="#lg1" y1="221.143" y2="221.143"/><linearGradient id="SVGID_2_" gradientUnits="userSpaceOnUse" x1="26.882" x2="484.63" y1="182.803" y2="182.803"><stop offset="0" stop-color="#00daac"/><stop offset=".0605" stop-color="#09dcb1"/><stop offset=".3404" stop-color="#2fe4c4"/><stop offset=".5994" stop-color="#4aead2"/><stop offset=".8274" stop-color="#5beedb"/><stop offset="1" stop-color="#61efde"/></linearGradient><linearGradient id="SVGID_3_" gradientUnits="userSpaceOnUse" x1="394.777" x2="191.006" y1="414.959" y2="247.853"><stop offset=".0084" stop-color="#7e62c0"/><stop offset=".4686" stop-color="#d9d1ec"/><stop offset="1" stop-color="#fff"/></linearGradient><radialGradient id="SVGID_4_" cx="259.409" cy="162.368" gradientUnits="userSpaceOnUse" r="132.58"><stop offset="0" stop-color="#fff"/><stop offset=".5314" stop-color="#d9d1ec"/><stop offset=".9916" stop-color="#7e62c0"/></radialGradient><linearGradient id="SVGID_5_" gradientUnits="userSpaceOnUse" x1="-16.157" x2="190.005" xlink:href="#lg1" y1="340.567" y2="340.567"/><g><path d="m407.424 56.357c-61.117-23.66-253.303-16.923-308.3 25.383-54.997 42.305-78.793 87.251-80.909 112.636-1.664 19.965 32.65 52.681 47.38 65.743l26.06 18.136c3.738-2.433 7.6-4.816 11.606-7.129 51.82-29.918 120.878-47.077 189.467-47.077 55.724 0 106.162 11.402 142.023 32.106 19.024 10.984 40.977 29.27 46.168 58.038 1.428 7.917 7.338 14.267 15.215 15.902l.7.145c7.952 1.651 15.353-4.548 15.149-12.626.001.001.009.01.009.01v-172.383c.001 0-43.452-65.225-104.568-88.884z" fill="#45356d"/><path d="m484.629 322.726c2.767 3.699 6.777 6.387 11.506 7.369l.7.145c7.952 1.651 15.353-4.548 15.149-12.626.001.001.009.01.009.01v-172.383s-10.084-15.133-27.364-33.463z" fill="url(#SVGID_1_)"/><path d="m477.29 104.251c-.051.244-.078.497-.078.757v52.281c-8.012-15.163-21.589-28.333-40.604-39.312-.465-.268-.943-.529-1.413-.794v-45.491c0-.527-.113-1.026-.311-1.48-1.204-.748-2.421-1.481-3.646-2.204-1.931.13-3.461 1.721-3.461 3.684v41.528c-14.504-7.329-30.969-13.303-48.902-17.812v-46.49c-2.38-.424-4.843-.821-7.356-1.201-.034.202-.062.406-.062.618v45.305c-18.693-4.19-38.842-6.834-59.917-7.821v-42.815c-2.457-.054-4.928-.098-7.418-.125v42.659c-3.772-.106-7.569-.164-11.392-.164-14.919 0-29.86.81-44.648 2.376v-43.241c-2.475.169-4.949.349-7.418.544v43.545c-17.886 2.21-35.494 5.54-52.514 9.892v-45.01c0-.732-.219-1.411-.586-1.986-2.269.384-4.514.784-6.743 1.194-.056.256-.089.519-.089.792v46.983c-17.102 4.724-33.544 10.495-48.989 17.239v-46.01c0-2.048-1.66-3.709-3.709-3.709s-3.709 1.661-3.709 3.709v49.366c-7.941 3.707-15.604 7.668-22.916 11.89-5.926 3.421-11.563 6.987-16.906 10.664v-28.79c0-2.048-1.66-3.709-3.709-3.709s-3.709 1.661-3.709 3.709v34.121c-10.521 7.887-19.65 16.224-27.132 24.798v-27.048c0-2.048-1.66-3.709-3.709-3.709s-3.709 1.661-3.709 3.709v36.365c-8.429 11.71-13.664 23.415-15.651 34.932 1.971 2.988 4.189 5.997 6.553 8.977.275-9.83 3.308-19.948 9.098-30.212v35.6c-.708.984-1.39 1.968-2.055 2.952 3.131 3.508 6.345 6.891 9.473 10.043v-10.557c7.029-9.349 16.188-18.515 27.132-27.198v39.942c-4.741 3.554-9.198 7.199-13.351 10.916.647.582 1.275 1.145 1.863 1.666l4.186 2.913c2.347-2.067 4.758-4.12 7.302-6.139v11.221l7.418 5.162v-22c6.387-4.616 13.273-9.07 20.615-13.309 6.163-3.558 12.58-6.929 19.207-10.115v32.263c2.443-1.157 4.919-2.285 7.418-3.391v-32.315c15.393-6.91 31.836-12.834 48.989-17.67v32.53c2.458-.686 4.933-1.346 7.418-1.987v-32.546c16.992-4.432 34.606-7.815 52.514-10.065v32.632c2.468-.308 4.94-.597 7.418-.862v-32.643c14.779-1.592 29.724-2.412 44.648-2.412 3.825 0 7.621.06 11.392.167v32.66c2.486.07 4.958.166 7.418.282v-32.659c21.144 1.007 41.301 3.714 59.917 7.997v32.567c2.501.568 4.972 1.168 7.418 1.792v-32.553c18.086 4.676 34.563 10.898 48.902 18.53v32.171c2.382 1.234 4.708 2.505 6.976 3.814.147.085.295.174.443.26v-32.034c23.93 14.415 38.074 32.506 42.017 53.823v22.961c1.611 4.084 2.877 8.42 3.709 13.029.145.805 1.075 3.757 1.078 3.756.666 1.72 1.548 3.328 2.632 4.777v-210.949c-2.322-2.461-4.77-4.978-7.342-7.526zm-400.206 93.99c-10.521 7.887-19.65 16.224-27.132 24.798v-37.542c7.029-9.349 16.188-18.515 27.132-27.198zm47.24 21.412c-7.941 3.707-15.604 7.668-22.916 11.89-5.926 3.421-11.563 6.986-16.906 10.663v-40.228c6.388-4.616 13.273-9.07 20.615-13.309 6.163-3.558 12.58-6.929 19.207-10.115zm0-49.297c-7.941 3.707-15.604 7.668-22.916 11.89-5.926 3.421-11.563 6.987-16.906 10.664v-40.228c6.388-4.616 13.273-9.07 20.615-13.309 6.163-3.558 12.58-6.93 19.207-10.115zm56.407 28.702c-17.102 4.724-33.544 10.495-48.989 17.239v-41.185c15.393-6.91 31.836-12.834 48.989-17.67zm0-49.298c-17.102 4.724-33.544 10.495-48.989 17.239v-41.185c15.393-6.91 31.836-12.834 48.989-17.67zm59.933 37.434c-17.886 2.21-35.494 5.54-52.514 9.892v-41.648c16.992-4.432 34.606-7.815 52.514-10.065zm0-49.297c-17.886 2.21-35.494 5.539-52.514 9.892v-41.649c16.992-4.432 34.606-7.815 52.514-10.065zm63.458 46.236c-3.772-.106-7.569-.164-11.392-.164-14.919 0-29.86.81-44.648 2.376v-41.844c14.779-1.592 29.724-2.412 44.648-2.412 3.825 0 7.621.06 11.392.167zm0-49.298c-3.772-.106-7.569-.164-11.392-.164-14.919 0-29.86.81-44.648 2.376v-41.843c14.779-1.591 29.724-2.412 44.648-2.412 3.825 0 7.621.06 11.392.167zm67.335 57.4c-18.693-4.19-38.842-6.834-59.917-7.821v-41.874c21.144 1.007 41.301 3.714 59.917 7.997zm0-49.298c-18.693-4.19-38.842-6.834-59.917-7.821v-41.873c21.144 1.007 41.301 3.714 59.917 7.997zm56.32 68.878c-14.504-7.329-30.969-13.303-48.902-17.812v-41.661c18.086 4.676 34.563 10.898 48.902 18.53zm0-49.298c-14.504-7.328-30.969-13.303-48.902-17.812v-41.661c18.086 4.676 34.563 10.898 48.902 18.53zm49.434 93.366c-8.012-15.163-21.589-28.333-40.604-39.312-.465-.268-.943-.529-1.413-.794v-40.695c23.93 14.415 38.074 32.505 42.017 53.823zm0-49.297c-8.012-15.163-21.589-28.333-40.604-39.311-.465-.268-.943-.529-1.413-.794v-40.695c23.931 14.415 38.074 32.506 42.017 53.823z" fill="url(#SVGID_2_)" opacity=".2"/><g><path d="m287.673 225.107c-58.835 0-106.531 47.695-106.531 106.53v23.736l.03-.003c-.009 14.131 8.514 27.624 25.972 37.704 38.516 22.238 105.793 19.449 150.268-6.229 24.324-14.043 36.759-32.023 36.761-49.072l.03-.003v-6.133c0-58.835-47.695-106.53-106.53-106.53z" fill="url(#SVGID_3_)"/><circle cx="287.673" cy="197.481" fill="url(#SVGID_4_)" r="68.176"/></g><path d="m232.577 478.606.006.001v-171.772c-135.574 14.627-232.583-115.719-232.583-115.719v173.54l.028.038c.523 33.465 21.069 65.35 62.468 89.251 42.451 24.509 99.441 36.361 159.015 36.067 6.6-.032 11.231-5.534 11.066-11.406z" fill="url(#SVGID_5_)"/><path d="m230.89 300.675c-4.784-7.642-13.156-12.3-22.173-12.283-25.529.047-81.18-3.55-131.385-32.536-21.742-12.553-47.659-33.996-47.659-64.866 0-14.343 5.562-29.188 16.53-44.121 12.677-17.259 32.408-33.905 57.059-48.137 51.82-29.918 120.878-47.077 189.467-47.077 55.724 0 106.162 11.402 142.023 32.106 19.024 10.984 40.977 29.27 46.168 58.038 1.429 7.917 7.338 14.267 15.215 15.902l.7.145c8.03 1.667 15.508-4.666 15.153-12.859-1.417-32.614-21.961-63.577-62.399-86.924-92.572-53.445-254.27-46.743-361.163 14.972s-118.502 155.071-25.93 208.517c42.451 24.509 99.441 36.362 159.015 36.066 8.694-.042 13.992-9.574 9.379-16.943z" fill="#eae5f6"/></g></svg>