<svg id="Capa_1" enable-background="new 0 0 512 512" height="512" viewBox="0 0 512 512" width="512" xmlns="http://www.w3.org/2000/svg" xmlns:xlink="http://www.w3.org/1999/xlink"><linearGradient id="SVGID_1_" gradientUnits="userSpaceOnUse" x1="314.7" x2="450.309" y1="307.974" y2="307.974"><stop offset="0" stop-color="#ffc538"/><stop offset=".3492" stop-color="#f7e041"/><stop offset="1" stop-color="#fcf3b3"/></linearGradient><linearGradient id="SVGID_2_" gradientUnits="userSpaceOnUse" x1="384.596" x2="332.124" y1="262.857" y2="262.857"><stop offset=".0319" stop-color="#8b451c"/><stop offset="1" stop-color="#8b451c" stop-opacity="0"/></linearGradient><radialGradient id="SVGID_3_" cx="391.89" cy="216.541" gradientUnits="userSpaceOnUse" r="61.618"><stop offset="0" stop-color="#fcf3b3"/><stop offset=".1714" stop-color="#fbf1a6"/><stop offset=".488" stop-color="#faeb84"/><stop offset=".912" stop-color="#f8e24d"/><stop offset="1" stop-color="#f7e041"/></radialGradient><linearGradient id="SVGID_4_" gradientUnits="userSpaceOnUse" x1="61.691" x2="197.3" y1="453.769" y2="453.769"><stop offset="0" stop-color="#ff4757"/><stop offset=".4762" stop-color="#ff7a85"/><stop offset="1" stop-color="#ff959d"/></linearGradient><linearGradient id="SVGID_5_" gradientUnits="userSpaceOnUse" x1="131.588" x2="79.116" y1="408.652" y2="408.652"><stop offset=".0319" stop-color="#5d3645"/><stop offset="1" stop-color="#5d3645" stop-opacity="0"/></linearGradient><radialGradient id="SVGID_6_" cx="138.882" cy="362.336" gradientUnits="userSpaceOnUse" r="61.618"><stop offset="0" stop-color="#ff959d"/><stop offset=".2328" stop-color="#ff8891"/><stop offset=".6609" stop-color="#ff6673"/><stop offset="1" stop-color="#ff4757"/></radialGradient><linearGradient id="SVGID_7_" gradientUnits="userSpaceOnUse" x1="187.021" x2="322.631" y1="119.217" y2="119.217"><stop offset="0" stop-color="#0072bc"/><stop offset=".3492" stop-color="#59acf9"/><stop offset="1" stop-color="#79d3fe"/></linearGradient><linearGradient id="SVGID_8_" gradientUnits="userSpaceOnUse" x1="256.918" x2="204.446" y1="74.1" y2="74.1"><stop offset=".0319" stop-color="#00395e"/><stop offset="1" stop-color="#00395e" stop-opacity="0"/></linearGradient><radialGradient id="SVGID_9_" cx="264.212" cy="27.784" gradientUnits="userSpaceOnUse" r="61.618"><stop offset="0" stop-color="#59acf9"/><stop offset=".2112" stop-color="#4ca9f9"/><stop offset=".6012" stop-color="#2aa1f8"/><stop offset="1" stop-color="#0197f8"/></radialGradient><g><g><path d="m364.658 290.303c-2.592 0-5.131-1.275-6.641-3.615l-112.544-174.444c-2.363-3.663-1.311-8.549 2.353-10.913 3.665-2.363 8.549-1.31 10.912 2.354l112.544 174.444c2.363 3.663 1.309 8.549-2.353 10.912-1.322.854-2.805 1.262-4.271 1.262z" fill="#594a8e"/></g><g><path d="m382.504 249.742c-37.448 0-67.805 30.357-67.805 67.805v15.107l.019-.002c-.005 8.994 5.419 17.582 16.531 23.998 24.515 14.154 67.336 12.379 95.643-3.965 15.482-8.938 23.396-20.382 23.397-31.233l.019-.002v-3.904c.001-37.447-30.356-67.804-67.804-67.804z" fill="url(#SVGID_1_)"/><path d="m329.262 275.56h53.242l-7.474-25.406c-18.524 2.032-34.804 11.522-45.768 25.406z" fill="url(#SVGID_2_)"/><circle cx="382.504" cy="232.159" fill="url(#SVGID_3_)" r="43.393"/></g><g><path d="m129.496 448.398 115.128-342.945c1.388-4.133 5.863-6.361 9.995-4.972 4.133 1.388 6.359 5.863 4.971 9.995l-101.846 303.383 174.476-100.733c3.776-2.181 8.603-.885 10.783 2.889 2.179 3.776.885 8.604-2.89 10.783z" fill="#594a8e"/></g><g><path d="m129.496 395.537c-37.448 0-67.805 30.357-67.805 67.805v15.107l.019-.002c-.005 8.994 5.419 17.582 16.531 23.998 24.515 14.154 67.335 12.379 95.643-3.965 15.482-8.938 23.396-20.382 23.397-31.233l.019-.002v-3.904c0-37.447-30.357-67.804-67.804-67.804z" fill="url(#SVGID_4_)"/><path d="m76.253 421.355h53.242l-7.474-25.406c-18.524 2.031-34.803 11.521-45.768 25.406z" fill="url(#SVGID_5_)"/><circle cx="129.496" cy="377.953" fill="url(#SVGID_6_)" r="43.393"/></g><g><path d="m254.826 60.985c-37.448 0-67.805 30.357-67.805 67.805v15.107l.019-.002c-.005 8.994 5.419 17.582 16.531 23.998 24.515 14.154 67.336 12.379 95.643-3.964 15.482-8.938 23.396-20.382 23.397-31.233l.019-.002v-3.904c.001-37.448-30.357-67.805-67.804-67.805z" fill="url(#SVGID_7_)"/><path d="m201.584 86.803h53.242l-7.474-25.406c-18.525 2.032-34.804 11.522-45.768 25.406z" fill="url(#SVGID_8_)"/><circle cx="254.826" cy="43.402" fill="url(#SVGID_9_)" r="43.393"/></g></g></svg>