<svg id="Capa_1" enable-background="new 0 0 512 512" height="512" viewBox="0 0 512 512" width="512" xmlns="http://www.w3.org/2000/svg" xmlns:xlink="http://www.w3.org/1999/xlink"><linearGradient id="lg1"><stop offset="0" stop-color="#c5baeb"/><stop offset="1" stop-color="#f2effa"/></linearGradient><linearGradient id="SVGID_1_" gradientUnits="userSpaceOnUse" x1="166.126" x2="326.603" xlink:href="#lg1" y1="289.943" y2="289.943"/><linearGradient id="lg2"><stop offset="0" stop-color="#a996eb"/><stop offset="1" stop-color="#d7d1eb"/></linearGradient><linearGradient id="SVGID_00000151501859604090874310000005442039049057063860_" gradientUnits="userSpaceOnUse" x1="328.623" x2="100.324" xlink:href="#lg2" y1="294.087" y2="294.087"/><linearGradient id="SVGID_00000025423088024700037110000003341714543275737785_" gradientUnits="userSpaceOnUse" x1="133.187" x2="328.492" xlink:href="#lg2" y1="357.783" y2="470.542"/><linearGradient id="SVGID_00000034799625309995437930000013050748910508149913_" gradientUnits="userSpaceOnUse" x1="166.126" x2="326.603" xlink:href="#lg1" y1="135.183" y2="135.183"/><linearGradient id="lg3"><stop offset="0" stop-color="#d7d1eb"/><stop offset="1" stop-color="#f2effa"/></linearGradient><linearGradient id="SVGID_00000067956542938530785930000008642326536794255757_" gradientUnits="userSpaceOnUse" x1="112.961" x2="321.416" xlink:href="#lg3" y1="19.417" y2="139.769"/><linearGradient id="SVGID_00000175285393238759753240000015985918718378012557_" gradientUnits="userSpaceOnUse" x1="125.547" x2="642.957" xlink:href="#lg3" y1="26.684" y2="325.411"/><linearGradient id="SVGID_00000062173553692539453410000006519288761392546184_" gradientUnits="userSpaceOnUse" x1="106.848" x2="234.789" xlink:href="#lg2" y1="79.529" y2="79.529"/><linearGradient id="SVGID_00000062874422986068667560000008158198460011283875_" gradientUnits="userSpaceOnUse" x1="116.262" x2="249.21" xlink:href="#lg3" y1="-12.802" y2="63.956"/><linearGradient id="lg4"><stop offset="0" stop-color="#ab2c37"/><stop offset="1" stop-color="#ff4757"/></linearGradient><linearGradient id="SVGID_00000002349229258751050420000004682658950587774351_" gradientUnits="userSpaceOnUse" x1="270.442" x2="381.438" xlink:href="#lg4" y1="487.111" y2="294.861"/><linearGradient id="SVGID_00000042733156867629068570000007017485490846585757_" gradientUnits="userSpaceOnUse" x1="379.146" x2="406.252" xlink:href="#lg4" y1="284.145" y2="237.197"/><linearGradient id="SVGID_00000072991495599481549800000016244168789171232131_" gradientUnits="userSpaceOnUse" x1="295.328" x2="311.434" xlink:href="#lg4" y1="357.118" y2="329.22"/><linearGradient id="SVGID_00000031175139560664238600000007069687550285155517_" gradientUnits="userSpaceOnUse" x1="357.465" x2="357.465" y1="508.679" y2="192.761"><stop offset="0" stop-color="#ff4757"/><stop offset="1" stop-color="#ff7a85"/></linearGradient><g><g><path d="m355.048 67.885-275.705 22.2v354.029l.09-.008c.123 18.166 11.088 35.501 33.546 48.467 49.843 28.776 136.904 25.169 194.459-8.061 31.621-18.257 47.653-41.651 47.505-63.805l.099-.008z" fill="url(#SVGID_1_)"/><path d="m325.571 119.317-216.754 17.453v278.714l.071-.006c.097 14.282 8.717 27.91 26.373 38.104 39.186 22.623 107.631 19.787 152.881-6.337 24.86-14.353 37.464-32.745 37.348-50.162l.077-.007z" fill="url(#SVGID_00000151501859604090874310000005442039049057063860_)"/><g><path d="m288.141 447.245c45.248-26.123 50.162-65.641 10.976-88.265-39.185-22.624-107.632-19.787-152.881 6.337-45.248 26.123-50.162 65.642-10.976 88.265 39.186 22.624 107.632 19.787 152.881-6.337z" fill="url(#SVGID_00000025423088024700037110000003341714543275737785_)"/></g><path d="m354.943 67.968-275.6 23.406c-.373 3.22 0 43.145 0 43.145l.09-.008c.123 18.166 11.088 35.501 33.546 48.467 49.843 28.776 136.904 25.169 194.459-8.061 31.621-18.257 47.653-41.651 47.505-63.804l.098-.008v-43.145z" fill="url(#SVGID_00000034799625309995437930000013050748910508149913_)"/><path d="m307.437 131.698c57.554-33.228 63.804-83.494 13.961-112.27-49.842-28.778-136.904-25.168-194.459 8.06-57.554 33.228-63.805 83.494-13.961 112.27 49.843 28.778 136.905 25.169 194.459-8.06z" fill="url(#SVGID_00000067956542938530785930000008642326536794255757_)"/><path d="m296.539 125.406c50.604-29.216 56.1-73.411 12.275-98.713-43.823-25.303-120.372-22.129-170.977 7.087-50.604 29.216-56.1 73.412-12.275 98.713 43.824 25.302 120.373 22.13 170.977-7.087z" fill="url(#SVGID_00000175285393238759753240000015985918718378012557_)"/><path d="m286.97 39.177-139.559 12.928v33.413l.046-.004c.062 9.196 5.613 17.97 16.98 24.533 25.23 14.566 69.299 12.74 98.434-4.08 16.006-9.241 24.122-21.084 24.046-32.297l.05-.004z" fill="url(#SVGID_00000062173553692539453410000006519288761392546184_)"/><path d="m262.87 71.842c29.134-16.82 32.297-42.264 7.067-56.83-25.23-14.567-69.3-12.74-98.434 4.08-29.133 16.82-32.297 42.264-7.067 56.83 25.231 14.567 69.301 12.74 98.434-4.08z" fill="url(#SVGID_00000062874422986068667560000008158198460011283875_)"/></g><g><path d="m365.002 348.223 60.395-104.208-21.027-12.142.002.046c-8.065-4.876-20.396 2.596-28.119 17.351l-40.297 76.994-20.007-18.843-21.364-12.335.032.06c-8.068-4.734-20.318 2.739-28.004 17.424-8.021 15.325-8.021 32.664 0 38.728l40.297 30.463-40.297 76.994c-8.021 15.325-8.021 32.665 0 38.728.53.401 22.764 13.227 22.764 13.227l46.579-106.991 42.17 31.596 20.148 11.647z" fill="url(#SVGID_00000002349229258751050420000004682658950587774351_)"/><path d="m404.372 231.919c-8.065-4.876-20.396 2.596-28.119 17.351l-38.855 74.239 20.067 15.17 67.932-94.665-21.027-12.142z" fill="url(#SVGID_00000042733156867629068570000007017485490846585757_)"/><path d="m294.618 295.147c-8.068-4.734-20.318 2.739-28.004 17.424-8.021 15.325-8.021 32.664 0 38.728l40.297 30.463 21.509 12.415-12.47-86.755-21.364-12.335z" fill="url(#SVGID_00000072991495599481549800000016244168789171232131_)"/><path d="m386.511 360.638 40.296-76.994c8.021-15.325 8.021-32.665 0-38.728-8.02-6.063-21.025 1.445-29.045 16.77l-40.297 76.994-40.297-30.464c-8.02-6.064-21.026 1.444-29.046 16.769-8.021 15.326-8.021 32.664 0 38.728l40.297 30.463-40.297 76.994c-8.021 15.326-8.021 32.664 0 38.728 4.011 3.032 9.266 2.671 14.523-.364 5.256-3.034 10.513-8.744 14.523-16.405l40.297-76.994 40.297 30.464c4.01 3.032 9.266 2.671 14.523-.364 5.256-3.035 10.513-8.743 14.523-16.405 8.021-15.325 8.021-32.665 0-38.728z" fill="url(#SVGID_00000031175139560664238600000007069687550285155517_)"/></g></g></svg>