<svg id="Capa_1" enable-background="new 0 0 512 512" height="512" viewBox="0 0 512 512" width="512" xmlns="http://www.w3.org/2000/svg" xmlns:xlink="http://www.w3.org/1999/xlink"><linearGradient id="lg1"><stop offset="0" stop-color="#c5baeb"/><stop offset="1" stop-color="#f2effa"/></linearGradient><linearGradient id="SVGID_1_" gradientUnits="userSpaceOnUse" x1="373.011" x2="373.011" xlink:href="#lg1" y1="425.745" y2="113.247"/><linearGradient id="lg2"><stop offset="0" stop-color="#a996eb"/><stop offset="1" stop-color="#a996eb" stop-opacity="0"/></linearGradient><linearGradient id="SVGID_00000000942386932178875140000003624196465309185718_" gradientUnits="userSpaceOnUse" x1="351.514" x2="346.666" xlink:href="#lg2" y1="242.391" y2="250.787"/><linearGradient id="SVGID_00000113346025402221832180000001103288085630216340_" gradientUnits="userSpaceOnUse" x1="410.999" x2="430.897" xlink:href="#lg2" y1="210.206" y2="175.742"/><linearGradient id="SVGID_00000008117541219011956330000006769446361396918657_" gradientUnits="userSpaceOnUse" x1="361.85" x2="369.078" xlink:href="#lg2" y1="218.209" y2="205.689"/><linearGradient id="SVGID_00000064355687916608030590000008658757824597052092_" gradientUnits="userSpaceOnUse" x1="360.94" x2="360.94" xlink:href="#lg2" y1="404.074" y2="429.966"/><linearGradient id="SVGID_00000142157480995821402290000016795406065725070210_" gradientUnits="userSpaceOnUse" x1="295.028" x2="302.195" xlink:href="#lg2" y1="349.678" y2="337.263"/><linearGradient id="SVGID_00000050661164075651116470000013169695430745850289_" gradientUnits="userSpaceOnUse" x1="309.59" x2="315.116" xlink:href="#lg2" y1="294.084" y2="284.513"/><linearGradient id="SVGID_00000156565081750218357280000000190483475762468001_" gradientUnits="userSpaceOnUse" x1="334.612" x2="306.905" xlink:href="#lg2" y1="379.074" y2="425.403"/><linearGradient id="lg3"><stop offset="0" stop-color="#d7d1eb"/><stop offset="1" stop-color="#f2effa"/></linearGradient><linearGradient id="SVGID_00000065782726658936890240000016262653845841332653_" gradientTransform="matrix(.866 -.5 0 1.155 -52.124 554.275)" gradientUnits="userSpaceOnUse" x1="507.795" x2="507.795" xlink:href="#lg3" y1="128.07" y2="-110.894"/><linearGradient id="SVGID_00000039133135680487456880000009238731383523503513_" gradientTransform="matrix(.866 -.5 0 1.155 -52.124 554.275)" gradientUnits="userSpaceOnUse" x1="507.795" x2="507.795" xlink:href="#lg3" y1="-53.389" y2="89.345"/><linearGradient id="lg4"><stop offset="0" stop-color="#a996eb"/><stop offset="1" stop-color="#d7d1eb"/></linearGradient><linearGradient id="SVGID_00000121278278809674389490000003293736050535456395_" gradientUnits="userSpaceOnUse" x1="414.484" x2="363.616" xlink:href="#lg4" y1="303.894" y2="392"/><linearGradient id="SVGID_00000102532346509225471180000000349950711137621159_" gradientUnits="userSpaceOnUse" x1="388.773" x2="401.368" xlink:href="#lg1" y1="327.306" y2="305.49"/><linearGradient id="SVGID_00000091725690805292415640000006843590968505690250_" gradientUnits="userSpaceOnUse" x1="413.788" x2="413.788" xlink:href="#lg3" y1="381.874" y2="326.36"/><linearGradient id="SVGID_00000108990875858409617320000014686270099182921890_" gradientUnits="userSpaceOnUse" x1="421.566" x2="408.624" xlink:href="#lg4" y1="320.511" y2="342.927"/><linearGradient id="SVGID_00000054981336522045901000000008756411650008108425_" gradientUnits="userSpaceOnUse" x1="318.71" x2="312.26" xlink:href="#lg2" y1="305.236" y2="316.408"/><linearGradient id="lg5"><stop offset="0" stop-color="#ab2c37"/><stop offset="1" stop-color="#ff4757"/></linearGradient><linearGradient id="SVGID_00000139292009773110367570000010291280225323162034_" gradientUnits="userSpaceOnUse" x1="341.16" x2="341.16" xlink:href="#lg5" y1="234.035" y2="-64.15"/><linearGradient id="lg6"><stop offset="0" stop-color="#ab2c37"/><stop offset="1" stop-color="#ab2c37" stop-opacity="0"/></linearGradient><linearGradient id="SVGID_00000144300449028052489270000012522096862862413715_" gradientUnits="userSpaceOnUse" x1="320.648" x2="316.022" xlink:href="#lg6" y1="59.079" y2="67.091"/><linearGradient id="SVGID_00000080898349811828889850000014540125639910606493_" gradientUnits="userSpaceOnUse" x1="377.409" x2="396.395" xlink:href="#lg6" y1="28.369" y2="-4.517"/><linearGradient id="SVGID_00000106114573308802138060000012127494038291014284_" gradientUnits="userSpaceOnUse" x1="330.511" x2="337.408" xlink:href="#lg6" y1="36.005" y2="24.058"/><linearGradient id="SVGID_00000088096570223679594430000015537022096953941931_" gradientUnits="userSpaceOnUse" x1="329.642" x2="329.642" xlink:href="#lg6" y1="213.357" y2="238.062"/><linearGradient id="SVGID_00000001662885688312797170000010671844422674461860_" gradientUnits="userSpaceOnUse" x1="266.749" x2="273.588" xlink:href="#lg6" y1="161.452" y2="149.606"/><linearGradient id="SVGID_00000112602956174761605270000012916049624995182507_" gradientUnits="userSpaceOnUse" x1="280.645" x2="285.917" xlink:href="#lg6" y1="108.404" y2="99.272"/><linearGradient id="SVGID_00000147198327370055026890000000844054699651690413_" gradientUnits="userSpaceOnUse" x1="304.52" x2="278.083" xlink:href="#lg6" y1="189.502" y2="233.709"/><linearGradient id="lg7"><stop offset="0" stop-color="#ff4757"/><stop offset="1" stop-color="#ff7a85"/></linearGradient><linearGradient id="SVGID_00000158742756803208566900000006883966775347326396_" gradientTransform="matrix(.866 -.5 0 1.155 -52.124 554.275)" gradientUnits="userSpaceOnUse" x1="470.243" x2="470.243" xlink:href="#lg7" y1="-55.109" y2="-283.128"/><linearGradient id="SVGID_00000101803071180288924680000013604757141060771752_" gradientTransform="matrix(.866 -.5 0 1.155 -52.124 554.275)" gradientUnits="userSpaceOnUse" x1="470.243" x2="470.243" xlink:href="#lg7" y1="-228.257" y2="-92.061"/><linearGradient id="SVGID_00000094601908432539400540000005173677046265914285_" gradientUnits="userSpaceOnUse" x1="380.734" x2="332.196" xlink:href="#lg5" y1="117.766" y2="201.836"/><linearGradient id="SVGID_00000018218354748224161570000002721639511121767354_" gradientUnits="userSpaceOnUse" x1="356.201" x2="368.219" xlink:href="#lg5" y1="140.105" y2="119.288"/><linearGradient id="SVGID_00000163041900535977383910000012600847546195497872_" gradientUnits="userSpaceOnUse" x1="380.07" x2="380.07" xlink:href="#lg7" y1="192.174" y2="139.202"/><linearGradient id="SVGID_00000162329146059625088110000016907010681645624477_" gradientUnits="userSpaceOnUse" x1="387.491" x2="375.142" xlink:href="#lg5" y1="133.621" y2="155.011"/><linearGradient id="SVGID_00000142159315158362589580000003203390101713082812_" gradientUnits="userSpaceOnUse" x1="289.347" x2="283.192" xlink:href="#lg6" y1="119.046" y2="129.706"/><linearGradient id="lg8"><stop offset="0" stop-color="#e37a34"/><stop offset="1" stop-color="#ffa538"/></linearGradient><linearGradient id="SVGID_00000049180530448613470690000008145162161801904014_" gradientUnits="userSpaceOnUse" x1="171.923" x2="171.923" xlink:href="#lg8" y1="498.777" y2="74.83"/><linearGradient id="lg9"><stop offset="0" stop-color="#e37a34"/><stop offset="1" stop-color="#e37a34" stop-opacity="0"/></linearGradient><linearGradient id="SVGID_00000053537309566393265820000003896895181512586932_" gradientUnits="userSpaceOnUse" x1="142.76" x2="136.183" xlink:href="#lg9" y1="250.032" y2="261.422"/><linearGradient id="SVGID_00000121959226986085523460000012225700994428969877_" gradientUnits="userSpaceOnUse" x1="223.46" x2="250.454" xlink:href="#lg9" y1="206.369" y2="159.614"/><linearGradient id="SVGID_00000178886463068561532360000005377559897327283882_" gradientUnits="userSpaceOnUse" x1="156.782" x2="166.588" xlink:href="#lg9" y1="217.225" y2="200.24"/><linearGradient id="SVGID_00000101097776702456791380000015479864065382959804_" gradientUnits="userSpaceOnUse" x1="155.547" x2="155.547" xlink:href="#lg9" y1="469.377" y2="504.502"/><linearGradient id="SVGID_00000121978802717181673330000010863392374329938847_" gradientUnits="userSpaceOnUse" x1="66.129" x2="75.853" xlink:href="#lg9" y1="395.58" y2="378.738"/><linearGradient id="SVGID_00000003095655475526628500000016050094631963569060_" gradientUnits="userSpaceOnUse" x1="85.885" x2="93.381" xlink:href="#lg9" y1="320.16" y2="307.176"/><linearGradient id="SVGID_00000121984733841887937330000011138799994470941595_" gradientUnits="userSpaceOnUse" x1="119.83" x2="82.242" xlink:href="#lg9" y1="435.461" y2="498.312"/><linearGradient id="lg10"><stop offset="0" stop-color="#ffc538"/><stop offset="1" stop-color="#f7e041"/></linearGradient><linearGradient id="SVGID_00000011724125907597802190000005637018394803374508_" gradientTransform="matrix(.866 -.5 0 1.155 -52.124 554.275)" gradientUnits="userSpaceOnUse" x1="281.611" x2="281.611" xlink:href="#lg10" y1="100.331" y2="-223.856"/><linearGradient id="SVGID_00000083088946010923613060000014679065475986057914_" gradientTransform="matrix(.866 -.5 0 1.155 -52.124 554.275)" gradientUnits="userSpaceOnUse" x1="281.611" x2="281.611" xlink:href="#lg10" y1="-101.655" y2="300.395"/><linearGradient id="SVGID_00000044889755828348204660000000965677867616025530_" gradientUnits="userSpaceOnUse" x1="228.187" x2="159.178" xlink:href="#lg8" y1="333.469" y2="452.997"/><linearGradient id="SVGID_00000029016953116823864380000000483253093733553828_" gradientUnits="userSpaceOnUse" x1="193.307" x2="210.394" y1="365.23" y2="335.634"><stop offset="0" stop-color="#ffa538"/><stop offset="1" stop-color="#ffc538"/></linearGradient><linearGradient id="SVGID_00000183937026857033046910000003645988577645397679_" gradientUnits="userSpaceOnUse" x1="227.243" x2="227.243" xlink:href="#lg10" y1="439.26" y2="363.946"/><linearGradient id="SVGID_00000137133740428690412710000010049081692402942849_" gradientUnits="userSpaceOnUse" x1="237.795" x2="220.237" xlink:href="#lg8" y1="356.012" y2="386.422"/><linearGradient id="SVGID_00000046306135503298852030000011912423781563168155_" gradientUnits="userSpaceOnUse" x1="98.257" x2="89.506" xlink:href="#lg9" y1="335.289" y2="350.446"/><g><g><path d="m374.138 433.765 96.114-183.428-27.055-15.522-2.538-37.891-27.789-16.084-.001.001c-1.751-1-4.274.091-6.319 2.79l-9.232 12.184-24.032-13.881c-1.001-.66-2.335-.629-3.771.2l-18.745 10.822c-2.48 1.432-4.659 4.883-5.338 8.455l-6.12 32.193c-2.07 2.171-4.09 4.453-6.052 6.837l-19.526-3.222c-2.167-.357-4.87 1.707-6.624 5.057l-13.255 25.326c-1.754 3.35-2.131 7.173-.925 9.366l10.872 19.758c-.938 3.158-1.774 6.335-2.507 9.517l-21.495 20.57c-2.385 2.282-4.03 6.137-4.03 9.444v24.993c0 2.161.706 3.739 1.858 4.445l-.001.001.073.042c.043.024.083.052.127.074l22.479 12.987-7.377 21.925c-1.206 3.585-.829 6.973.925 8.298l41.375 26.262 12.378-16.836z" fill="url(#SVGID_1_)"/><path d="m333.259 240.441 27.485 15.885 6.052-6.837-27.485-15.884z" fill="url(#SVGID_00000000942386932178875140000003624196465309185718_)"/><path d="m407.028 228.095h12.203l21.427-31.171-27.788-16.084-.001.001c-1.751-1-4.274.091-6.319 2.79l-9.232 12.184 3.376 1.949z" fill="url(#SVGID_00000113346025402221832180000001103288085630216340_)"/><path d="m369.514 182.134-18.745 10.822c-2.48 1.432-4.659 4.883-5.338 8.455l-6.12 32.193 27.485 15.884 33.897-51.725-3.376-1.949-24.032-13.881c-1.001-.659-2.335-.628-3.771.201z" fill="url(#SVGID_00000008117541219011956330000006769446361396918657_)"/><path d="m347.606 418.448 13.501-16.301 13.166 1.214-.135 30.404z" fill="url(#SVGID_00000064355687916608030590000008658757824597052092_)"/><path d="m305.464 381.761 23.315-59.633-27.485-15.884-21.495 20.57c-2.385 2.282-4.03 6.137-4.03 9.444v24.993c0 2.161.706 3.739 1.858 4.445l-.001.001.073.042c.043.024.083.052.127.074l22.479 12.987z" fill="url(#SVGID_00000142157480995821402290000016795406065725070210_)"/><path d="m292.929 276.968 10.872 19.758 27.485 15.884 3.308-54.45-27.485-15.884-13.255 25.326c-1.754 3.35-2.131 7.173-.925 9.366z" fill="url(#SVGID_00000050661164075651116470000013169695430745850289_)"/><path d="m333.249 371.439-27.785 10.321-5.158-2.962-7.377 21.925c-1.206 3.585-.829 6.973.925 8.298l41.375 26.262 1.278-1.738z" fill="url(#SVGID_00000156565081750218357280000000190483475762468001_)"/><path d="m467.968 249.926-21.495 4.25c-.733-2.336-1.569-4.547-2.507-6.622l10.872-32.312c1.206-3.585.829-6.973-.925-8.298l-13.255-10.02c-1.754-1.326-4.457-.268-6.624 2.592l-19.526 25.769c-1.963-.118-3.983-.066-6.052.152l-6.12-25.126c-.679-2.788-2.858-3.724-5.338-2.292l-18.745 10.822c-2.48 1.432-4.659 4.883-5.338 8.455l-6.12 32.193c-2.07 2.171-4.09 4.453-6.052 6.837l-19.526-3.222c-2.167-.357-4.871 1.707-6.624 5.057l-13.255 25.326c-1.754 3.35-2.131 7.173-.925 9.366l10.872 19.758c-.938 3.158-1.774 6.335-2.507 9.517l-21.495 20.569c-2.385 2.282-4.03 6.137-4.03 9.444v24.993c0 3.306 1.645 5.262 4.03 4.79l21.495-4.25c.733 2.336 1.569 4.547 2.507 6.622l-10.872 32.312c-1.206 3.585-.829 6.973.925 8.298l13.255 10.02c1.754 1.326 4.457.268 6.624-2.592l19.526-25.769c1.963.118 3.983.066 6.052-.152l6.12 25.126c.679 2.788 2.858 3.723 5.338 2.292l18.745-10.822c2.48-1.432 4.659-4.883 5.338-8.455l6.12-32.193c2.069-2.171 4.09-4.453 6.052-6.837l19.526 3.222c2.167.357 4.871-1.707 6.624-5.057l13.255-25.326c1.753-3.35 2.131-7.174.925-9.366l-10.872-19.758c.938-3.158 1.774-6.335 2.507-9.517l21.495-20.57c2.385-2.282 4.03-6.137 4.03-9.444v-24.993c0-3.305-1.645-5.26-4.03-4.789z" fill="url(#SVGID_00000065782726658936890240000016262653845841332653_)"/><path d="m439.135 286.187c0-37.93-23.061-55.364-51.509-38.94-28.447 16.424-51.509 60.487-51.509 98.416s23.061 55.364 51.509 38.94 51.509-60.486 51.509-98.416z" fill="url(#SVGID_00000039133135680487456880000009238731383523503513_)"/><path d="m417.299 242.652c8.684 7.28 14.008 20.767 14.008 38.988 0 37.93-23.061 81.992-51.509 98.417-11.049 6.379-21.284 7.648-29.673 4.595 9.393 7.874 22.719 8.485 37.5-.049 28.447-16.424 51.509-60.487 51.509-98.417.001-23.197-8.626-38.726-21.835-43.534z" fill="url(#SVGID_00000121278278809674389490000003293736050535456395_)"/><path d="m398.823 286.978-.004.008c-3.807-2.176-8.759-1.967-14.178 1.162-12.006 6.931-21.738 25.527-21.738 41.535 0 8.71 2.885 14.851 7.447 17.53l29.292 16.944 28.669-60.126z" fill="url(#SVGID_00000102532346509225471180000000349950711137621159_)"/><path d="m435.526 321.432c0-16.008-9.733-23.365-21.738-16.434-12.006 6.932-21.738 25.527-21.738 41.535s9.733 23.365 21.738 16.434c12.006-6.931 21.738-25.527 21.738-41.535z" fill="url(#SVGID_00000091725690805292415640000006843590968505690250_)"/><path d="m428.934 325.238c0-11.153-6.781-16.28-15.146-11.45-8.365 4.829-15.146 17.786-15.146 28.939s6.781 16.28 15.146 11.45c8.365-4.829 15.146-17.786 15.146-28.939z" fill="url(#SVGID_00000108990875858409617320000014686270099182921890_)"/><path d="m331.286 312.61-2.507 9.517-27.485-15.884 2.507-9.517z" fill="url(#SVGID_00000054981336522045901000000008756411650008108425_)"/></g><g><path d="m342.236 241.688 91.712-175.027-25.817-14.811-2.422-36.155-26.516-15.347-.001.001c-1.671-.954-4.078.087-6.03 2.662l-8.809 11.626-22.931-13.245c-.956-.629-2.228-.601-3.599.191l-17.886 10.327c-2.366 1.366-4.445 4.66-5.093 8.068l-5.84 30.718c-1.975 2.072-3.902 4.249-5.775 6.524l-18.632-3.074c-2.067-.341-4.647 1.629-6.321 4.826l-12.648 24.166c-1.673 3.197-2.033 6.845-.882 8.937l10.374 18.853c-.895 3.014-1.693 6.045-2.392 9.081l-20.51 19.627c-2.276 2.178-3.846 5.856-3.846 9.011v23.848c0 2.062.673 3.567 1.773 4.241l-.001.002.07.04c.041.023.08.049.121.07l21.45 12.392-7.039 20.921c-1.151 3.421-.791 6.653.882 7.918l39.48 25.059 11.811-16.064z" fill="url(#SVGID_00000139292009773110367570000010291280225323162034_)"/><path d="m303.229 57.219 26.226 15.157 5.776-6.524-26.227-15.157z" fill="url(#SVGID_00000144300449028052489270000012522096862862413715_)"/><path d="m373.62 45.438h11.644l20.446-29.743-26.517-15.347-.001.001c-1.671-.954-4.078.087-6.03 2.662l-8.809 11.626 3.221 1.86z" fill="url(#SVGID_00000080898349811828889850000014540125639910606493_)"/><path d="m337.823 1.582-17.886 10.327c-2.366 1.366-4.445 4.66-5.093 8.068l-5.84 30.718 26.226 15.157 32.344-49.355-3.221-1.86-22.931-13.245c-.956-.63-2.228-.601-3.599.19z" fill="url(#SVGID_00000106114573308802138060000012127494038291014284_)"/><path d="m316.92 227.072 12.882-15.554 12.563 1.159-.129 29.011z" fill="url(#SVGID_00000088096570223679594430000015537022096953941931_)"/><path d="m276.707 192.066 22.248-56.902-26.226-15.157-20.51 19.627c-2.276 2.178-3.846 5.856-3.846 9.011v23.848c0 2.062.673 3.567 1.773 4.241l-.001.002.07.04c.041.023.08.049.121.07l21.45 12.392z" fill="url(#SVGID_00000001662885688312797170000010671844422674461860_)"/><path d="m264.747 92.072 10.374 18.853 26.226 15.157 3.156-51.956-26.226-15.156-12.648 24.166c-1.673 3.196-2.033 6.844-.882 8.936z" fill="url(#SVGID_00000112602956174761605270000012916049624995182507_)"/><path d="m303.22 182.217-26.512 9.849-4.921-2.827-7.039 20.921c-1.151 3.421-.791 6.653.882 7.918l39.48 25.059 1.219-1.659z" fill="url(#SVGID_00000147198327370055026890000000844054699651690413_)"/><path d="m431.768 66.27-20.51 4.056c-.699-2.229-1.497-4.339-2.392-6.319l10.374-30.832c1.151-3.421.791-6.653-.882-7.918l-12.648-9.561c-1.673-1.265-4.253-.255-6.321 2.473l-18.632 24.589c-1.873-.112-3.8-.063-5.775.145l-5.839-23.976c-.648-2.66-2.727-3.553-5.093-2.187l-17.886 10.327c-2.366 1.366-4.445 4.66-5.093 8.068l-5.839 30.718c-1.975 2.072-3.902 4.249-5.775 6.524l-18.632-3.075c-2.067-.341-4.647 1.629-6.321 4.826l-12.648 24.165c-1.673 3.197-2.033 6.845-.882 8.937l10.374 18.853c-.895 3.014-1.693 6.045-2.392 9.081l-20.51 19.627c-2.276 2.178-3.845 5.856-3.845 9.011v23.848c0 3.155 1.57 5.021 3.845 4.571l20.51-4.056c.699 2.229 1.497 4.339 2.392 6.319l-10.374 30.832c-1.151 3.421-.791 6.653.882 7.918l12.648 9.561c1.673 1.265 4.253.255 6.321-2.473l18.632-24.589c1.873.112 3.8.063 5.775-.145l5.839 23.975c.648 2.66 2.727 3.553 5.093 2.187l17.886-10.327c2.366-1.366 4.445-4.659 5.093-8.068l5.839-30.718c1.975-2.072 3.902-4.249 5.775-6.524l18.632 3.075c2.067.341 4.647-1.629 6.321-4.826l12.648-24.166c1.673-3.197 2.033-6.845.882-8.937l-10.374-18.853c.895-3.014 1.693-6.045 2.392-9.081l20.51-19.627c2.276-2.178 3.846-5.856 3.846-9.011v-23.847c0-3.155-1.57-5.02-3.846-4.57z" fill="url(#SVGID_00000158742756803208566900000006883966775347326396_)"/><path d="m404.256 100.869c0-36.192-22.005-52.828-49.149-37.156s-49.149 57.716-49.149 93.909 22.005 52.828 49.149 37.156 49.149-57.716 49.149-93.909z" fill="url(#SVGID_00000101803071180288924680000013604757141060771752_)"/><path d="m383.42 59.329c8.287 6.946 13.367 19.816 13.367 37.203 0 36.193-22.005 78.237-49.149 93.909-10.543 6.087-20.31 7.298-28.314 4.384 8.963 7.514 21.678 8.097 35.783-.047 27.144-15.672 49.149-57.716 49.149-93.909 0-22.135-8.232-36.953-20.836-41.54z" fill="url(#SVGID_00000094601908432539400540000005173677046265914285_)"/><path d="m365.79 101.624-.004.008c-3.633-2.076-8.358-1.877-13.529 1.109-11.456 6.614-20.743 24.358-20.743 39.633 0 8.311 2.753 14.171 7.105 16.728l27.95 16.168 27.355-57.372z" fill="url(#SVGID_00000018218354748224161570000002721639511121767354_)"/><path d="m400.812 134.5c0-15.274-9.287-22.295-20.743-15.681s-20.743 24.358-20.743 39.633c0 15.274 9.287 22.295 20.743 15.681s20.743-24.358 20.743-39.633z" fill="url(#SVGID_00000163041900535977383910000012600847546195497872_)"/><path d="m394.522 138.132c0-10.642-6.47-15.534-14.452-10.926s-14.452 16.971-14.452 27.614c0 10.642 6.471 15.534 14.452 10.926 7.981-4.609 14.452-16.972 14.452-27.614z" fill="url(#SVGID_00000162329146059625088110000016907010681645624477_)"/><path d="m301.347 126.082-2.392 9.082-26.226-15.157 2.392-9.081z" fill="url(#SVGID_00000142159315158362589580000003203390101713082812_)"/></g><g><path d="m173.452 509.657 130.392-248.845-36.704-21.058-3.443-51.404-37.7-21.82-.001.002c-2.376-1.357-5.799.124-8.573 3.785l-12.525 16.529-32.603-18.831c-1.359-.895-3.168-.854-5.117.271l-25.43 14.682c-3.364 1.942-6.32 6.624-7.241 11.471l-8.302 43.674c-2.808 2.946-5.548 6.041-8.211 9.275l-26.49-4.371c-2.939-.485-6.607 2.316-8.986 6.861l-17.982 34.357c-2.379 4.545-2.891 9.732-1.254 12.706l14.749 26.805c-1.273 4.285-2.407 8.594-3.401 12.911l-29.16 27.905c-3.236 3.096-5.467 8.326-5.467 12.812v33.907c0 2.932.957 5.072 2.521 6.03l-.001.002.099.057c.058.033.113.07.173.1l30.496 17.618-10.008 29.744c-1.637 4.864-1.125 9.459 1.254 11.258l56.13 35.627 16.792-22.84z" fill="url(#SVGID_00000049180530448613470690000008145162161801904014_)"/><path d="m117.994 247.387 37.288 21.549 8.211-9.275-37.288-21.549z" fill="url(#SVGID_00000053537309566393265820000003896895181512586932_)"/><path d="m218.073 230.637h16.555l29.069-42.287-37.7-21.82-.001.002c-2.376-1.357-5.799.124-8.573 3.785l-12.525 16.529 4.58 2.644z" fill="url(#SVGID_00000121959226986085523460000012225700994428969877_)"/><path d="m167.179 168.285-25.43 14.682c-3.364 1.942-6.32 6.624-7.241 11.471l-8.302 43.674 37.287 21.549 45.986-70.172-4.58-2.644-32.603-18.831c-1.359-.895-3.168-.854-5.117.271z" fill="url(#SVGID_00000178886463068561532360000005377559897327283882_)"/><path d="m137.459 488.876 18.315-22.113 17.862 1.647-.184 41.247z" fill="url(#SVGID_00000101097776702456791380000015479864065382959804_)"/><path d="m80.287 439.106 31.631-80.901-37.288-21.549-29.16 27.905c-3.236 3.096-5.467 8.326-5.467 12.812v33.907c0 2.932.957 5.072 2.521 6.03l-.001.002.099.057c.058.033.113.07.173.1l30.496 17.618z" fill="url(#SVGID_00000121978802717181673330000010863392374329938847_)"/><path d="m63.282 296.94 14.749 26.805 37.287 21.549 4.487-73.868-37.287-21.549-17.982 34.357c-2.379 4.545-2.891 9.731-1.254 12.706z" fill="url(#SVGID_00000003095655475526628500000016050094631963569060_)"/><path d="m117.981 425.103-37.694 14.002-6.997-4.019-10.008 29.744c-1.637 4.864-1.125 9.459 1.254 11.258l56.13 35.627 1.734-2.358z" fill="url(#SVGID_00000121984733841887937330000011138799994470941595_)"/><path d="m300.745 260.255-29.161 5.766c-.994-3.17-2.128-6.169-3.401-8.984l14.749-43.835c1.637-4.864 1.124-9.459-1.254-11.258l-17.982-13.594c-2.379-1.798-6.047-.363-8.986 3.516l-26.49 34.959c-2.662-.16-5.403-.09-8.211.206l-8.302-34.087c-.921-3.782-3.877-5.051-7.241-3.109l-25.43 14.682c-3.364 1.942-6.32 6.624-7.241 11.471l-8.302 43.674c-2.807 2.946-5.548 6.041-8.211 9.275l-26.49-4.371c-2.939-.485-6.608 2.316-8.986 6.861l-17.982 34.357c-2.379 4.545-2.891 9.732-1.254 12.706l14.749 26.805c-1.273 4.285-2.407 8.594-3.401 12.911l-29.16 27.905c-3.236 3.096-5.467 8.326-5.467 12.812v33.907c0 4.486 2.232 7.138 5.467 6.498l29.16-5.766c.994 3.169 2.128 6.169 3.401 8.984l-14.749 43.835c-1.636 4.864-1.124 9.459 1.254 11.258l17.982 13.594c2.379 1.798 6.047.363 8.986-3.516l26.49-34.959c2.663.16 5.403.09 8.211-.206l8.302 34.087c.921 3.782 3.877 5.051 7.241 3.109l25.43-14.682c3.364-1.942 6.32-6.625 7.241-11.471l8.302-43.674c2.808-2.946 5.548-6.041 8.211-9.275l26.49 4.371c2.939.485 6.608-2.315 8.986-6.861l17.982-34.357c2.379-4.545 2.891-9.732 1.254-12.706l-14.749-26.805c1.273-4.285 2.407-8.594 3.401-12.911l29.16-27.905c3.236-3.096 5.467-8.326 5.467-12.812v-33.907c.002-4.486-2.23-7.138-5.466-6.498z" fill="url(#SVGID_00000011724125907597802190000005637018394803374508_)"/><path d="m261.629 309.447c0-51.457-31.285-75.108-69.878-52.827s-69.878 82.058-69.878 133.515 31.285 75.108 69.878 52.827c38.593-22.282 69.878-82.058 69.878-133.515z" fill="url(#SVGID_00000083088946010923613060000014679065475986057914_)"/><path d="m232.006 250.386c11.782 9.876 19.004 28.174 19.004 52.893 0 51.457-31.286 111.234-69.878 133.515-14.99 8.654-28.875 10.376-40.255 6.233 12.743 10.683 30.821 11.512 50.874-.066 38.593-22.281 69.878-82.058 69.878-133.515 0-31.47-11.704-52.537-29.623-59.06z" fill="url(#SVGID_00000044889755828348204660000000965677867616025530_)"/><path d="m206.941 310.52-.005.011c-5.165-2.952-11.883-2.668-19.235 1.577-16.287 9.404-29.491 34.631-29.491 56.348 0 11.816 3.914 20.147 10.102 23.783l39.738 22.987 38.893-81.569z" fill="url(#SVGID_00000029016953116823864380000000483253093733553828_)"/><path d="m256.734 357.262c0-21.717-13.204-31.698-29.491-22.295-16.287 9.404-29.491 34.631-29.491 56.348 0 21.716 13.204 31.698 29.491 22.295 16.287-9.404 29.491-34.632 29.491-56.348z" fill="url(#SVGID_00000183937026857033046910000003645988577645397679_)"/><path d="m247.791 362.425c0-15.131-9.199-22.086-20.548-15.534-11.348 6.552-20.548 24.129-20.548 39.26s9.2 22.086 20.548 15.534 20.548-24.129 20.548-39.26z" fill="url(#SVGID_00000137133740428690412710000010049081692402942849_)"/><path d="m115.318 345.294-3.401 12.911-37.287-21.549 3.401-12.912z" fill="url(#SVGID_00000046306135503298852030000011912423781563168155_)"/></g></g></svg>