<svg id="Capa_1" enable-background="new 0 0 512 512" height="512" viewBox="0 0 512 512" width="512" xmlns="http://www.w3.org/2000/svg" xmlns:xlink="http://www.w3.org/1999/xlink"><linearGradient id="SVGID_1_" gradientUnits="userSpaceOnUse" x1="156.946" x2="255.122" y1="339.912" y2="169.868"><stop offset="0" stop-color="#7e62c0"/><stop offset=".113" stop-color="#b096ed"/><stop offset=".5259" stop-color="#b096ed"/><stop offset=".9916" stop-color="#d9d1ec"/></linearGradient><linearGradient id="SVGID_2_" gradientUnits="userSpaceOnUse" x1="251.544" x2="251.544" y1="332.11" y2="85.959"><stop offset="0" stop-color="#e1daef"/><stop offset="1" stop-color="#fff"/></linearGradient><linearGradient id="SVGID_3_" gradientTransform="matrix(.866 -.5 0 1.155 -308.912 -696.565)" gradientUnits="userSpaceOnUse" x1="652.221" x2="652.221" y1="1166.139" y2="1054.448"><stop offset="0" stop-color="#5e4990"/><stop offset=".3855" stop-color="#7e62c0"/><stop offset="1" stop-color="#b096ed"/></linearGradient><linearGradient id="SVGID_4_" gradientUnits="userSpaceOnUse" x1="265.733" x2="219.393" y1="292.906" y2="203.932"><stop offset="0" stop-color="#fff"/><stop offset=".648" stop-color="#fff" stop-opacity="0"/></linearGradient><g><g><path d="m337.615 169.028-37.187-21.497-.014.015c-59.698-34.436-141.484 23.45-194.329 144.234-3.364 7.69-3.364 17.008 0 20.813v.001c7.271 8.223 15.093 14.607 23.326 19.26l-.01.01 36.436 21.021z" fill="url(#SVGID_1_)"/><path d="m360.074 187.807c-59.94-67.787-157.121-11.68-217.06 125.32-3.365 7.69-3.365 17.009 0 20.813v.001c59.939 67.787 157.121 11.68 217.06-125.32v-.001c3.364-7.689 3.364-17.008 0-20.813z" fill="url(#SVGID_2_)"/><path d="m299.342 235.8c0-31.981-19.444-46.68-43.43-32.832s-43.43 51-43.43 82.98 19.444 46.68 43.43 32.832c23.985-13.848 43.43-50.999 43.43-82.98z" fill="url(#SVGID_3_)"/><ellipse cx="255.912" cy="260.874" fill="#5e4990" rx="33.951" ry="19.207" transform="matrix(.392 -.92 .92 .392 -84.336 394.207)"/><path d="m256.862 240.044c0-10.564-6.423-15.42-14.347-10.846-7.923 4.575-14.347 16.847-14.347 27.412s6.423 15.42 14.347 10.846c7.924-4.575 14.347-16.848 14.347-27.412z" fill="url(#SVGID_4_)"/></g><g fill="#45356d"><path d="m124.82 222.715c2.433 0 4.405-1.972 4.405-4.405v-59.312l44.19-25.514c2.107-1.216 2.829-3.911 1.612-6.017-1.215-2.107-3.91-2.829-6.017-1.612l-46.393 26.785c-1.363.787-2.203 2.241-2.203 3.815v61.856c.001 2.432 1.973 4.404 4.406 4.404z"/><path d="m343.987 35.004 39.784-22.969v54.226c0 2.433 1.973 4.405 4.405 4.405s4.405-1.972 4.405-4.405v-61.856c0-1.574-.84-3.028-2.203-3.815-1.364-.787-3.042-.787-4.405 0l-46.392 26.784c-2.107 1.216-2.828 3.91-1.612 6.017 1.216 2.109 3.91 2.831 6.018 1.613z"/><path d="m388.177 289.285c-2.433 0-4.405 1.972-4.405 4.405v59.312l-44.189 25.513c-2.107 1.216-2.828 3.911-1.612 6.017.815 1.413 2.296 2.203 3.819 2.203.747 0 1.505-.19 2.198-.591l46.392-26.784c1.363-.787 2.203-2.241 2.203-3.815v-61.855c-.001-2.432-1.974-4.405-4.406-4.405z"/><path d="m169.011 476.995-39.785 22.97v-54.226c0-2.433-1.972-4.405-4.405-4.405s-4.405 1.973-4.405 4.405v61.856c0 1.574.84 3.028 2.203 3.815 1.364.787 3.041.787 4.405.001l46.393-26.784c2.107-1.217 2.829-3.911 1.612-6.018-1.216-2.108-3.912-2.828-6.018-1.614z"/><path d="m407.848 168.618c-1.215-2.107-3.912-2.829-6.017-1.612l-48.386 27.936c-1.569-33.812-13.788-59.559-34.074-71.271-16.55-9.555-37.097-9.017-58.467 1.377v-65.76c0-2.433-1.972-4.405-4.405-4.405s-4.405 1.972-4.405 4.405v70.583c-50.689 30.808-91.685 109.096-92.694 177.104l-52.638 30.391c-2.107 1.216-2.829 3.911-1.612 6.018 1.222 2.126 3.948 2.818 6.017 1.612l48.386-27.936c1.569 33.812 13.788 59.559 34.074 71.272 7.879 4.549 16.662 6.809 26.01 6.809 10.288 0 21.26-2.751 32.456-8.195v65.769c0 2.433 1.973 4.405 4.405 4.405 2.433 0 4.405-1.973 4.405-4.405v-70.582c50.69-30.809 91.685-109.097 92.694-177.104l52.638-30.391c2.107-1.218 2.829-3.913 1.613-6.02zm-114.502-42.924c7.832 0 15.131 1.862 21.619 5.607 18.498 10.68 29.297 35.619 29.821 68.64l-83.882 48.429v-113.413c11.314-6.157 22.323-9.263 32.442-9.263zm-41.253 14.636v113.127l-83.723 48.337c2.818-61.921 38.768-131.149 83.723-161.464zm-54.061 240.37c-18.498-10.68-29.297-35.619-29.821-68.64l83.882-48.429v113.386c-20.071 10.923-39.195 12.264-54.061 3.683zm62.872-9.03v-113.126l83.723-48.338c-2.818 61.921-38.768 131.149-83.723 161.464z"/></g></g></svg>