<svg id="Capa_1" enable-background="new 0 0 512 512" height="512" viewBox="0 0 512 512" width="512" xmlns="http://www.w3.org/2000/svg" xmlns:xlink="http://www.w3.org/1999/xlink"><linearGradient id="SVGID_1_" gradientUnits="userSpaceOnUse" x1="263.854" x2="337.302" y1="242.392" y2="115.176"><stop offset=".0319" stop-color="#43386b"/><stop offset=".0811" stop-color="#463a70"/><stop offset=".356" stop-color="#544686"/><stop offset=".5321" stop-color="#594a8e"/><stop offset="1" stop-color="#7662bd"/></linearGradient><linearGradient id="SVGID_2_" gradientUnits="userSpaceOnUse" x1="273.882" x2="273.882" y1="500.802" y2="3.505"><stop offset="0" stop-color="#594a8e"/><stop offset="1" stop-color="#a996eb"/></linearGradient><linearGradient id="lg1"><stop offset="0" stop-color="#a996eb"/><stop offset=".0426" stop-color="#ac9aeb"/><stop offset=".4317" stop-color="#c3b8eb"/><stop offset=".7645" stop-color="#d2caeb"/><stop offset="1" stop-color="#d7d1eb"/></linearGradient><linearGradient id="SVGID_3_" gradientUnits="userSpaceOnUse" x1="202.688" x2="216.187" xlink:href="#lg1" y1="318.344" y2="294.962"/><linearGradient id="lg2"><stop offset="0" stop-color="#dfdaef"/><stop offset="1" stop-color="#fff"/></linearGradient><linearGradient id="SVGID_4_" gradientUnits="userSpaceOnUse" x1="206.264" x2="206.264" xlink:href="#lg2" y1="366.854" y2="275.523"/><linearGradient id="SVGID_5_" gradientUnits="userSpaceOnUse" x1="275.325" x2="288.825" xlink:href="#lg1" y1="276.167" y2="252.786"/><linearGradient id="SVGID_6_" gradientUnits="userSpaceOnUse" x1="278.902" x2="278.902" xlink:href="#lg2" y1="324.677" y2="233.346"/><linearGradient id="SVGID_7_" gradientUnits="userSpaceOnUse" x1="349.129" x2="373.531" y1="279.266" y2="236.999"><stop offset="0" stop-color="#8b451c"/><stop offset="1" stop-color="#cc8241"/></linearGradient><linearGradient id="SVGID_8_" gradientUnits="userSpaceOnUse" x1="351.54" x2="351.54" y1="374.934" y2="187.873"><stop offset="0" stop-color="#e37a34"/><stop offset="1" stop-color="#ffa538"/></linearGradient><linearGradient id="SVGID_9_" gradientUnits="userSpaceOnUse" x1="202.688" x2="216.187" xlink:href="#lg1" y1="412.933" y2="389.551"/><linearGradient id="SVGID_10_" gradientUnits="userSpaceOnUse" x1="206.264" x2="206.264" xlink:href="#lg2" y1="461.443" y2="370.112"/><linearGradient id="SVGID_11_" gradientUnits="userSpaceOnUse" x1="275.325" x2="288.825" xlink:href="#lg1" y1="370.756" y2="347.375"/><linearGradient id="SVGID_12_" gradientUnits="userSpaceOnUse" x1="278.902" x2="278.902" xlink:href="#lg2" y1="419.266" y2="327.935"/><g><path d="m403.74 22.711.006-.013-32.96-18.712c-5.142-4.279-12.699-5.518-19.309-1.702l-229.796 132.672c-13.802 7.968-22.303 22.694-22.303 38.63v300.83c0 6.259 3.271 11.366 7.905 14.285l-.009.019.288.166c.19.114.38.224.574.331l33.054 18.766c5.143 4.297 12.713 5.546 19.333 1.724l229.797-132.673c13.801-7.968 22.303-22.694 22.303-38.63v-300.83c-.001-6.692-3.734-12.074-8.883-14.863z" fill="url(#SVGID_1_)"/><path d="m157.445 155.594 229.796-132.673c11.28-6.513 25.381 1.628 25.381 14.653v300.83c0 15.936-8.502 30.662-22.303 38.63l-229.796 132.674c-11.28 6.513-25.381-1.628-25.381-14.654v-300.83c0-15.937 8.502-30.662 22.303-38.63z" fill="url(#SVGID_2_)"/><path d="m162.142 200.871 226.325-130.669v70.368l-226.325 130.669z" fill="#43386b"/><g><g><path d="m230.113 279.05.001-.002-9.525-5.538c-.944-.786-2.332-1.013-3.546-.313l-42.203 24.366c-2.535 1.463-4.096 4.168-4.096 7.095v55.249c0 1.149.601 2.087 1.452 2.624l-.002.003.053.03c.035.021.07.041.105.061l9.542 5.547c.945.789 2.335 1.019 3.551.317l42.203-24.366c2.535-1.463 4.096-4.168 4.096-7.095v-55.248c.001-1.229-.685-2.218-1.631-2.73z" fill="url(#SVGID_3_)"/><path d="m184.88 303.455 42.203-24.366c2.072-1.196 4.661.299 4.661 2.691v55.249c0 2.927-1.561 5.631-4.096 7.095l-42.203 24.366c-2.072 1.196-4.661-.299-4.661-2.691v-55.249c0-2.928 1.561-5.632 4.096-7.095z" fill="url(#SVGID_4_)"/></g><g><path d="m302.751 236.873.001-.002-9.525-5.538c-.944-.786-2.332-1.014-3.546-.313l-42.203 24.366c-2.535 1.463-4.096 4.168-4.096 7.095v55.249c0 1.149.601 2.087 1.452 2.623l-.002.004.053.031c.035.021.07.041.105.061l9.542 5.547c.944.789 2.335 1.018 3.551.317l42.203-24.366c2.535-1.464 4.096-4.168 4.096-7.095v-55.249c0-1.229-.685-2.217-1.631-2.73z" fill="url(#SVGID_5_)"/><path d="m257.518 261.278 42.203-24.366c2.072-1.196 4.661.299 4.661 2.691v55.249c0 2.927-1.561 5.631-4.096 7.095l-42.203 24.366c-2.072 1.196-4.661-.299-4.661-2.691v-55.249c0-2.927 1.561-5.632 4.096-7.095z" fill="url(#SVGID_6_)"/></g><g><path d="m375.389 194.697.001-.002-9.525-5.538c-.944-.786-2.332-1.014-3.546-.313l-42.203 24.366c-2.535 1.463-4.096 4.168-4.096 7.095v149.838c0 1.15.601 2.087 1.452 2.624l-.002.003.053.031c.035.021.07.041.105.061l9.542 5.547c.944.789 2.335 1.019 3.551.317l42.203-24.366c2.535-1.463 4.096-4.168 4.096-7.095v-149.839c0-1.229-.686-2.217-1.631-2.729z" fill="url(#SVGID_7_)"/><path d="m330.155 219.101 42.203-24.366c2.072-1.196 4.661.299 4.661 2.691v149.838c0 2.927-1.561 5.631-4.096 7.095l-42.203 24.366c-2.072 1.196-4.661-.299-4.661-2.691v-149.838c0-2.927 1.562-5.631 4.096-7.095z" fill="url(#SVGID_8_)"/></g><g><path d="m230.113 373.639.001-.002-9.525-5.538c-.944-.786-2.332-1.013-3.546-.313l-42.203 24.366c-2.535 1.463-4.096 4.168-4.096 7.095v55.249c0 1.15.601 2.087 1.452 2.624l-.002.004.053.03c.035.021.07.041.105.061l9.542 5.547c.945.789 2.335 1.019 3.551.317l42.203-24.366c2.535-1.463 4.096-4.168 4.096-7.095v-55.249c.001-1.229-.685-2.218-1.631-2.73z" fill="url(#SVGID_9_)"/><path d="m184.88 398.044 42.203-24.366c2.072-1.196 4.661.299 4.661 2.691v55.249c0 2.927-1.561 5.631-4.096 7.095l-42.203 24.366c-2.072 1.196-4.661-.299-4.661-2.691v-55.249c0-2.927 1.561-5.632 4.096-7.095z" fill="url(#SVGID_10_)"/></g><g><path d="m302.751 331.462.001-.002-9.525-5.538c-.944-.786-2.332-1.014-3.546-.313l-42.203 24.366c-2.535 1.463-4.096 4.168-4.096 7.095v55.249c0 1.149.601 2.087 1.452 2.624l-.002.004.053.03c.035.021.07.041.105.061l9.542 5.547c.944.789 2.335 1.019 3.551.317l42.203-24.366c2.535-1.463 4.096-4.168 4.096-7.095v-55.249c0-1.229-.685-2.217-1.631-2.73z" fill="url(#SVGID_11_)"/><path d="m257.518 355.867 42.203-24.366c2.072-1.196 4.661.299 4.661 2.691v55.249c0 2.927-1.561 5.631-4.096 7.095l-42.203 24.366c-2.072 1.196-4.661-.299-4.661-2.691v-55.249c0-2.927 1.561-5.632 4.096-7.095z" fill="url(#SVGID_12_)"/></g></g></g></svg>