<svg id="Capa_1" enable-background="new 0 0 512 512" height="512" viewBox="0 0 512 512" width="512" xmlns="http://www.w3.org/2000/svg" xmlns:xlink="http://www.w3.org/1999/xlink"><linearGradient id="SVGID_1_" gradientTransform="matrix(-1 0 0 1 512 0)" gradientUnits="userSpaceOnUse" x1="384.565" x2="566.62" y1="179.439" y2="179.439"><stop offset="0" stop-color="#b096ed"/><stop offset=".378" stop-color="#e8e3f3"/><stop offset=".6409" stop-color="#e8e3f3"/><stop offset=".9851" stop-color="#c9baec"/></linearGradient><linearGradient id="SVGID_2_" gradientTransform="matrix(-1 0 0 1 512 0)" gradientUnits="userSpaceOnUse" x1="46.661" x2="347.734" y1="329.305" y2="329.305"><stop offset="0" stop-color="#b096ed"/><stop offset=".3855" stop-color="#e8e3f3"/><stop offset=".7151" stop-color="#e8e3f3"/><stop offset=".9916" stop-color="#c9baec"/></linearGradient><linearGradient id="SVGID_3_" gradientTransform="matrix(-1 0 0 1 512 0)" gradientUnits="userSpaceOnUse" x1="-48.933" x2="487.185" y1="513.28" y2="-22.839"><stop offset="0" stop-color="#c9baec"/><stop offset=".3855" stop-color="#e8e3f3"/><stop offset="1" stop-color="#fff"/></linearGradient><linearGradient id="SVGID_4_" gradientTransform="matrix(-1 0 0 1 512 0)" gradientUnits="userSpaceOnUse" x1="454.654" x2="183.951" y1="84.461" y2="135.758"><stop offset="0" stop-color="#c9baec"/><stop offset=".3855" stop-color="#e8e3f3"/><stop offset="1" stop-color="#e8e3f3"/></linearGradient><linearGradient id="lg1"><stop offset="0" stop-color="#5e4990"/><stop offset=".6145" stop-color="#45356d"/><stop offset="1" stop-color="#322650"/></linearGradient><radialGradient id="SVGID_5_" cx="383.948" cy="80.74" gradientTransform="matrix(-1 0 0 .689 512 25.091)" gradientUnits="userSpaceOnUse" r="111.183" xlink:href="#lg1"/><linearGradient id="SVGID_6_" gradientTransform="matrix(-1 0 0 1 512 0)" gradientUnits="userSpaceOnUse" x1="411.264" x2="302.399" y1="69.302" y2="98.611"><stop offset="0" stop-color="#1f1634"/><stop offset="1" stop-color="#1f1634" stop-opacity="0"/></linearGradient><linearGradient id="SVGID_7_" gradientTransform="matrix(-1 0 0 1 512 0)" gradientUnits="userSpaceOnUse" x1="343.313" x2="400.067" y1="89.073" y2="40.008"><stop offset="0" stop-color="#322650"/><stop offset=".4827" stop-color="#45356d"/></linearGradient><radialGradient id="SVGID_8_" cx="367.051" cy="37.996" gradientTransform="matrix(-1 0 0 .54 512 17.494)" gradientUnits="userSpaceOnUse" r="88.795" xlink:href="#lg1"/><linearGradient id="lg2"><stop offset="0" stop-color="#c9baec"/><stop offset=".3117" stop-color="#ccbeed"/><stop offset=".6254" stop-color="#d5caef"/><stop offset=".9391" stop-color="#e4def2"/><stop offset="1" stop-color="#e8e3f3"/></linearGradient><linearGradient id="SVGID_9_" gradientTransform="matrix(-1 0 0 1 512 0)" gradientUnits="userSpaceOnUse" x1="190.664" x2="121.856" xlink:href="#lg2" y1="174.769" y2="214.496"/><linearGradient id="lg3"><stop offset="0" stop-color="#45356d"/><stop offset=".3855" stop-color="#544081"/><stop offset="1" stop-color="#7e62c0"/></linearGradient><linearGradient id="SVGID_10_" gradientTransform="matrix(-1 0 0 1 512 0)" gradientUnits="userSpaceOnUse" x1="138.328" x2="180.002" xlink:href="#lg3" y1="190.479" y2="190.479"/><linearGradient id="SVGID_11_" gradientTransform="matrix(-1 0 0 1 512 0)" gradientUnits="userSpaceOnUse" x1="262.494" x2="193.686" xlink:href="#lg2" y1="216.265" y2="255.992"/><linearGradient id="SVGID_12_" gradientTransform="matrix(-1 0 0 1 512 0)" gradientUnits="userSpaceOnUse" x1="210.158" x2="251.831" xlink:href="#lg3" y1="231.975" y2="231.975"/><linearGradient id="SVGID_13_" gradientTransform="matrix(-1 0 0 1 512 0)" gradientUnits="userSpaceOnUse" x1="123.273" x2="54.465" xlink:href="#lg2" y1="255.67" y2="295.396"/><linearGradient id="SVGID_14_" gradientTransform="matrix(-1 0 0 1 512 0)" gradientUnits="userSpaceOnUse" x1="70.938" x2="112.611" xlink:href="#lg3" y1="271.38" y2="271.38"/><linearGradient id="SVGID_15_" gradientTransform="matrix(-1 0 0 1 512 0)" gradientUnits="userSpaceOnUse" x1="195.562" x2="126.753" xlink:href="#lg2" y1="297.166" y2="336.892"/><linearGradient id="SVGID_16_" gradientTransform="matrix(-1 0 0 1 512 0)" gradientUnits="userSpaceOnUse" x1="143.226" x2="184.899" xlink:href="#lg3" y1="312.875" y2="312.875"/><g><path d="m.003 171.509v-82.379s314.656 128.658 260.929 159.677-147.573 27.129-209.612-8.689c-34.003-19.632-51.391-44.781-51.317-68.609z" fill="url(#SVGID_1_)"/><path d="m511.986 352.354v81.87l-.002-.001c-.112 18.763-9.746 37.18-27.531 47.448-45.297 26.152-102.854 15.805-136.206-24.487l-105.115-126.986c-14.515-17.535-32.04-32.341-51.754-43.722l-29.177-16.846v-107.062z" fill="url(#SVGID_2_)"/><path d="m36.271 36.899c53.727-31.019 147.573-27.129 209.612 8.689 31.761 18.338 49.021 41.488 51.1 63.88l29.304 16.919c19.713 11.381 37.239 26.187 51.754 43.722l121.301 146.541c21.741 26.265 14.638 65.774-14.889 82.822-45.297 26.152-102.854 15.805-136.206-24.487l-105.115-126.986c-14.515-17.535-32.04-32.341-51.754-43.722l-29.217-16.869c-38.846-1.172-79.024-11.12-110.84-29.489-62.039-35.818-68.777-90.001-15.05-121.02z" fill="url(#SVGID_3_)"/><path d="m81.147 140.698c-43.017-24.836-47.689-62.406-10.435-83.914s102.326-18.811 145.344 6.025c43.017 24.836 47.689 62.406 10.435 83.914s-102.327 18.811-145.344-6.025z" fill="url(#SVGID_4_)"/><path d="m89.611 135.812c-37.62-21.72-41.706-54.576-9.126-73.386s89.488-16.451 127.108 5.269 41.706 54.576 9.126 73.385c-32.581 18.81-89.488 16.451-127.108-5.268z" fill="url(#SVGID_5_)"/><path d="m138.228 96.5s79.274 24.753 82.365 5.253c3.09-19.499-51.607-31.242-51.607-31.242z" fill="url(#SVGID_6_)"/><path d="m116.786 54.635 63.626 5.292v23.219h-.002c-.136 4.092-2.688 7.982-7.757 10.909-11.503 6.641-31.597 5.809-44.88-1.86-7.248-4.185-10.962-9.54-10.979-14.622z" fill="url(#SVGID_7_)"/><path d="m114.676 76.887c-21.635-12.491-23.985-31.386-5.248-42.203 18.736-10.817 51.464-9.461 73.098 3.03 21.635 12.491 23.984 31.386 5.248 42.203-18.735 10.818-51.463 9.461-73.098-3.03z" fill="url(#SVGID_8_)"/><g><path d="m328.178 195.415c-7.15-13.171-2.112-25.067 11.252-26.572s29.993 7.952 37.143 21.123 2.112 25.067-11.252 26.572c-13.363 1.505-29.993-7.953-37.143-21.123z" fill="url(#SVGID_9_)"/><path d="m334.283 193.025c-5.234-10.115-1.172-19.454 9.073-20.86 10.246-1.406 22.795 5.654 28.029 15.768s1.172 19.454-9.073 20.86-22.794-5.654-28.029-15.768z" fill="url(#SVGID_10_)"/><path d="m256.349 236.911c-7.15-13.171-2.112-25.067 11.252-26.572s29.993 7.952 37.143 21.123 2.112 25.067-11.252 26.572-29.993-7.953-37.143-21.123z" fill="url(#SVGID_11_)"/><path d="m262.454 234.52c-5.235-10.114-1.172-19.454 9.073-20.86 10.246-1.406 22.795 5.654 28.029 15.768 5.235 10.115 1.172 19.454-9.073 20.86-10.245 1.407-22.794-5.653-28.029-15.768z" fill="url(#SVGID_12_)"/><path d="m395.569 276.315c-7.15-13.171-2.112-25.067 11.252-26.572s29.993 7.952 37.143 21.123 2.112 25.067-11.252 26.572c-13.363 1.505-29.993-7.952-37.143-21.123z" fill="url(#SVGID_13_)"/><path d="m401.674 273.925c-5.234-10.114-1.172-19.454 9.073-20.86 10.246-1.406 22.795 5.654 28.029 15.768 5.235 10.114 1.172 19.454-9.073 20.86s-22.794-5.653-28.029-15.768z" fill="url(#SVGID_14_)"/><path d="m323.281 317.811c-7.15-13.171-2.112-25.067 11.252-26.572s29.993 7.953 37.143 21.123c7.15 13.171 2.112 25.067-11.252 26.572-13.363 1.505-29.993-7.952-37.143-21.123z" fill="url(#SVGID_15_)"/><path d="m329.386 315.421c-5.234-10.115-1.172-19.454 9.073-20.86s22.795 5.654 28.029 15.768c5.234 10.115 1.172 19.454-9.073 20.86s-22.794-5.653-28.029-15.768z" fill="url(#SVGID_16_)"/></g></g></svg>