<svg id="Capa_1" enable-background="new 0 0 512 512" height="512" viewBox="0 0 512 512" width="512" xmlns="http://www.w3.org/2000/svg" xmlns:xlink="http://www.w3.org/1999/xlink"><linearGradient id="lg1"><stop offset="0" stop-color="#2f97f7"/><stop offset="1" stop-color="#79d3fe"/></linearGradient><linearGradient id="SVGID_1_" gradientUnits="userSpaceOnUse" x1="340.699" x2="351.831" xlink:href="#lg1" y1="253.975" y2="234.693"/><linearGradient id="lg2"><stop offset="0" stop-color="#c5baeb"/><stop offset="1" stop-color="#f2effa"/></linearGradient><linearGradient id="SVGID_00000049221922995608668800000007427206151084288918_" gradientTransform="matrix(-1 0 0 1 -776.894 0)" gradientUnits="userSpaceOnUse" x1="-1128.772" x2="-1097.303" xlink:href="#lg2" y1="194.506" y2="194.506"/><linearGradient id="SVGID_00000155131230888550869650000010345137250207767206_" gradientUnits="userSpaceOnUse" x1="336.622" x2="345.601" xlink:href="#lg1" y1="160.137" y2="144.585"/><linearGradient id="lg3"><stop offset="0" stop-color="#00adfb"/><stop offset="1" stop-color="#17d3ff"/></linearGradient><linearGradient id="SVGID_00000118388059401904172530000010655142287899746981_" gradientUnits="userSpaceOnUse" x1="308.028" x2="324.659" xlink:href="#lg3" y1="438.464" y2="438.464"/><linearGradient id="SVGID_00000122709540154197626700000002366520433237936013_" gradientUnits="userSpaceOnUse" x1="298.749" x2="310.798" xlink:href="#lg2" y1="371.577" y2="371.577"/><linearGradient id="SVGID_00000127743277110310724150000010064428508250503089_" gradientUnits="userSpaceOnUse" x1="240.81" x2="257.442" xlink:href="#lg3" y1="477.372" y2="477.372"/><linearGradient id="SVGID_00000112611315938408891790000004480458426249410707_" gradientUnits="userSpaceOnUse" x1="231.531" x2="243.581" xlink:href="#lg2" y1="410.485" y2="410.485"/><linearGradient id="lg4"><stop offset="0" stop-color="#d7d1eb"/><stop offset="1" stop-color="#f2effa"/></linearGradient><linearGradient id="SVGID_00000127040841672088149340000008956489434339837339_" gradientUnits="userSpaceOnUse" x1="251.528" x2="251.528" xlink:href="#lg4" y1="337.416" y2="200.437"/><linearGradient id="SVGID_00000053544463536846904820000015926873537659072944_" gradientUnits="userSpaceOnUse" x1="312.433" x2="312.433" xlink:href="#lg1" y1="271.332" y2="167.684"/><linearGradient id="SVGID_00000061449889200450224730000009443772604879080104_" gradientUnits="userSpaceOnUse" x1="318.292" x2="318.292" xlink:href="#lg1" y1="276.886" y2="241.345"/><linearGradient id="SVGID_00000167381746230409627600000008981449374316752525_" gradientUnits="userSpaceOnUse" x1="118.633" x2="272.723" xlink:href="#lg4" y1="106.794" y2="106.794"/><linearGradient id="SVGID_00000084522034221811554640000007209707251247796634_" gradientUnits="userSpaceOnUse" x1="244.272" x2="317.25" xlink:href="#lg1" y1="119.36" y2="119.36"/><linearGradient id="SVGID_00000140712674376032177370000014246088049673030799_" gradientTransform="matrix(-1 0 0 1 909.814 0)" gradientUnits="userSpaceOnUse" x1="721.13" x2="731.168" y1="136.37" y2="118.983"><stop offset="0" stop-color="#0072bc"/><stop offset="1" stop-color="#2f97f7"/></linearGradient><linearGradient id="SVGID_00000052092003755211050520000007821451308918042801_" gradientTransform="matrix(-1 0 0 1 909.814 0)" gradientUnits="userSpaceOnUse" x1="734.574" x2="734.574" xlink:href="#lg1" y1="176.091" y2="131.973"/><linearGradient id="SVGID_00000056405906504279023580000013951770928444205732_" gradientUnits="userSpaceOnUse" x1="164.511" x2="175.643" xlink:href="#lg1" y1="364.172" y2="344.89"/><linearGradient id="SVGID_00000049200016799580953270000004811762445808241038_" gradientUnits="userSpaceOnUse" x1="154.084" x2="176.955" xlink:href="#lg2" y1="304.703" y2="304.703"/><linearGradient id="SVGID_00000003793685789115614670000011670480444679526572_" gradientTransform="matrix(-1 0 0 1 909.814 0)" gradientUnits="userSpaceOnUse" x1="737.55" x2="750.549" xlink:href="#lg1" y1="257.609" y2="235.094"/><linearGradient id="SVGID_00000022550045553878886860000001560378396948215448_" gradientUnits="userSpaceOnUse" x1="174.561" x2="177.101" xlink:href="#lg1" y1="7.873" y2="3.474"/><g><g><g><path d="m358.58 335.791c-2.837 0-5.639-1.283-7.483-3.721-3.121-4.128-2.304-10.006 1.823-13.126 2.872-2.172 4.047-13.993-2.65-26.792-4.365-8.341-9.921-12.882-13.488-13.683-1.071-.24-1.371-.015-1.517.094-2.87 2.171-4.045 13.992 2.652 26.791 2.4 4.585.628 10.248-3.957 12.649-4.587 2.397-10.25.628-12.648-3.958-10.352-19.781-9.214-41.462 2.65-50.433 4.757-3.595 10.766-4.814 16.922-3.431 9.796 2.197 19.512 10.9 25.991 23.28 10.354 19.782 9.214 41.463-2.65 50.433-1.691 1.278-3.677 1.897-5.645 1.897z" fill="#d7d1eb"/></g><circle cx="343.675" cy="248.82" fill="url(#SVGID_1_)" r="29.353"/><path d="m327.941 151.728h31.461v74.882c.145 2.602-1.695 5.382-5.425 7.536-6.57 3.793-16.509 4.205-22.198.92-2.535-1.464-3.796-3.415-3.837-5.463h-.001z" fill="url(#SVGID_00000049221922995608668800000007427206151084288918_)"/></g><path d="m314.245 143.096 30.324 43.428 8.162-4.963c11.514-7.002 15.883-21.567 10.124-33.751-6.679-14.129-24.122-19.365-37.478-11.25z" fill="url(#SVGID_00000155131230888550869650000010345137250207767206_)"/><g><g><path d="m250.804 403.836v27.163l.012-.003c.06 2.73 1.432 5.434 4.134 6.994l56.101 32.015c7.128 4.116 15.911 4.116 23.039 0l12.758-7.558c2.729-1.576 4.104-4.318 4.139-7.074l.007-.002v-26.496z" fill="url(#SVGID_00000118388059401904172530000010655142287899746981_)"/><path d="m346.848 421.22-56.101-32.015c-7.128-4.115-15.911-4.115-23.039 0l-12.758 7.558c-5.528 3.191-5.528 11.169 0 14.361l56.101 32.015c7.128 4.116 15.911 4.116 23.039 0l12.758-7.558c5.528-3.192 5.528-11.17 0-14.361z" fill="#7ce7ff"/></g><path d="m257.292 311.374v91.677l.008-.002c.043 1.966 1.032 3.915 2.978 5.038l37.717 21.47c5.135 2.965 11.462 2.965 16.597 0l12.298-7.242c1.966-1.135 2.957-3.11 2.982-5.096l.005-.001v-91.196z" fill="url(#SVGID_00000122709540154197626700000002366520433237936013_)"/><g><path d="m183.587 442.744v27.163l.012-.003c.06 2.73 1.432 5.434 4.134 6.994l56.101 32.015c7.128 4.116 15.911 4.116 23.039 0l12.758-7.558c2.729-1.575 4.104-4.318 4.139-7.074l.007-.002v-26.496z" fill="url(#SVGID_00000127743277110310724150000010064428508250503089_)"/><path d="m279.631 460.127-56.101-32.015c-7.128-4.115-15.911-4.115-23.039 0l-12.758 7.558c-5.527 3.191-5.527 11.169 0 14.361l56.101 32.016c7.128 4.116 15.911 4.116 23.039 0l12.758-7.558c5.527-3.192 5.527-11.17 0-14.362z" fill="#7ce7ff"/></g><path d="m190.074 350.282v91.677l.008-.002c.044 1.966 1.032 3.915 2.978 5.038l37.717 21.47c5.135 2.965 11.462 2.965 16.597 0l12.298-7.242c1.966-1.135 2.957-3.11 2.982-5.096l.005-.001v-91.196z" fill="url(#SVGID_00000112611315938408891790000004480458426249410707_)"/></g><path d="m144.685 276.622v-42.479c0-59.008 47.835-106.843 106.843-106.843 59.008 0 106.843 47.835 106.843 106.843v42.479c0 59.083-47.952 106.949-107.035 106.843-58.933-.105-106.651-47.91-106.651-106.843z" fill="url(#SVGID_00000127040841672088149340000008956489434339837339_)"/><path d="m322.731 221.425c-2.887-19.249-11.062-37.467-23.769-52.456l-1.091-1.285-8.573 7.278 1.089 1.282c12.457 14.696 20.053 32.868 21.856 51.922-6.553 7.055-11.226 18.155-11.226 28.035 0 12.721 7.735 18.568 17.275 13.06 9.541-5.508 17.276-20.287 17.276-33.008 0-10.674-5.451-16.478-12.837-14.828z" fill="url(#SVGID_00000053544463536846904820000015926873537659072944_)"/><path d="m332.209 238.19c0-10.248-6.231-14.959-13.917-10.521s-13.917 16.343-13.917 26.591 6.231 14.959 13.917 10.521c7.686-4.437 13.917-16.342 13.917-26.591z" fill="url(#SVGID_00000061449889200450224730000009443772604879080104_)"/><path d="m243.776 18.39c-43.226 4.004-76.289 40.272-76.289 83.683v52.104l.055-.005c.075 11.075 6.76 21.643 20.451 29.548 30.387 17.544 83.464 15.344 118.553-4.914 19.278-11.13 29.052-25.393 28.961-38.899l.06-.005.001-37.827c.002-49.477-42.526-88.249-91.792-83.685z" fill="url(#SVGID_00000167381746230409627600000008981449374316752525_)"/><path d="m335.508 105.168.06-.005s-.001-1.245-.004-3.275c-.018-8.358-1.272-16.398-3.544-23.985-4.375 8.862-12.878 17.472-25.474 24.744-23.262 13.43-54.426 18.915-81.648 15.98v41.42c27.222 2.934 58.386-2.55 81.648-15.98 19.278-11.131 29.052-25.393 28.962-38.899z" fill="url(#SVGID_00000084522034221811554640000007209707251247796634_)"/><path d="m174.247 107.94c3.025-1.729 6.961-1.563 11.268.924 9.541 5.508 17.276 20.287 17.276 33.008 0 6.922-2.293 11.802-5.918 13.932l-10.389 6.208-22.784-47.783z" fill="url(#SVGID_00000140712674376032177370000014246088049673030799_)"/><path d="m157.965 128.057c0-12.721 7.735-18.569 17.275-13.06 9.541 5.508 17.276 20.287 17.276 33.008s-7.735 18.569-17.276 13.06c-9.541-5.508-17.275-20.286-17.275-33.008z" fill="url(#SVGID_00000052092003755211050520000007821451308918042801_)"/><g><path d="m275.191 144.893c-1.21 0-2.192-.981-2.192-2.192 0-9.798 5.82-20.834 13.251-25.123 3.631-2.097 7.233-2.325 10.147-.641 3.367 1.944 5.298 6.219 5.298 11.728 0 1.211-.982 2.192-2.192 2.192s-2.192-.981-2.192-2.192c0-3.844-1.162-6.809-3.105-7.931-1.924-1.112-4.196-.265-5.763.641-5.994 3.461-11.059 13.227-11.059 21.327-.001 1.21-.983 2.191-2.193 2.191z" fill="#fff"/></g><g><path d="m312.505 122.898c-1.018 0-1.844-.825-1.844-1.844 0-8.24 4.895-17.521 11.145-21.13 3.053-1.763 6.083-1.955 8.534-.539 2.832 1.635 4.455 5.23 4.455 9.864 0 1.018-.826 1.844-1.844 1.844s-1.844-.825-1.844-1.844c0-3.233-.977-5.727-2.612-6.671-1.618-.935-3.529-.223-4.847.539-5.041 2.911-9.301 11.125-9.301 17.936.002 1.02-.824 1.845-1.842 1.845z" fill="#fff"/></g><g><path d="m182.392 445.988c-2.837 0-5.639-1.283-7.482-3.721-3.121-4.128-2.304-10.006 1.823-13.126 2.872-2.172 4.047-13.993-2.65-26.792-4.365-8.341-9.921-12.882-13.488-13.683-1.071-.24-1.371-.015-1.517.094-2.87 2.171-4.045 13.992 2.652 26.791 2.4 4.585.628 10.248-3.957 12.649-4.587 2.397-10.25.628-12.648-3.958-10.352-19.781-9.214-41.462 2.65-50.433 4.757-3.595 10.766-4.814 16.922-3.431 9.796 2.197 19.512 10.9 25.991 23.28 10.354 19.781 9.214 41.463-2.65 50.433-1.693 1.278-3.678 1.897-5.646 1.897z" fill="#d7d1eb"/></g><circle cx="167.487" cy="359.017" fill="url(#SVGID_00000056405906504279023580000013951770928444205732_)" r="29.353"/><path d="m151.753 261.925h31.461v74.882c.145 2.602-1.695 5.382-5.425 7.536-6.57 3.793-16.509 4.205-22.198.92-2.535-1.464-3.796-3.414-3.837-5.463h-.001z" fill="url(#SVGID_00000049200016799580953270000004811762445808241038_)"/><path d="m161.708 216.2c3.926-2.244 9.033-2.028 14.622 1.198 12.381 7.148 22.418 26.326 22.418 42.834 0 8.982-2.976 15.315-7.679 18.079l-.596.331c-17.281 9.594-39.072 2.625-47.579-15.216-7.795-16.347-1.527-35.938 14.309-44.725z" fill="url(#SVGID_00000003793685789115614670000011670480444679526572_)"/><g><path d="m175.239 112.547c-1.036 0-1.874-.839-1.874-1.874v-101.943c0-1.035.838-1.874 1.874-1.874s1.874.839 1.874 1.874v101.942c.001 1.036-.838 1.875-1.874 1.875z" fill="#43386b"/></g><circle cx="175.24" cy="6.697" fill="url(#SVGID_00000022550045553878886860000001560378396948215448_)" r="6.697"/></g></svg>