<svg id="Capa_1" enable-background="new 0 0 512 512" height="512" viewBox="0 0 512 512" width="512" xmlns="http://www.w3.org/2000/svg" xmlns:xlink="http://www.w3.org/1999/xlink"><linearGradient id="SVGID_1_" gradientUnits="userSpaceOnUse" x1="152.781" x2="332.95" y1="427.836" y2="427.836"><stop offset="0" stop-color="#45356d"/><stop offset=".1612" stop-color="#544081"/><stop offset="1" stop-color="#7e62c0"/></linearGradient><radialGradient id="SVGID_2_" cx="256" cy="357.783" gradientTransform="matrix(.989 -.149 .093 .618 -30.476 175.064)" gradientUnits="userSpaceOnUse" r="245.419"><stop offset="0" stop-color="#61efde"/><stop offset="1" stop-color="#45356d"/></radialGradient><linearGradient id="SVGID_3_" gradientUnits="userSpaceOnUse" x1="256" x2="256" y1="491.691" y2="23.843"><stop offset="0" stop-color="#00daac"/><stop offset="1" stop-color="#00daac" stop-opacity="0"/></linearGradient><g><g><path d="m83.135 371.958 345.73-28.287v54.908l-.166.014c-.335 27.462-20.381 56.337-59.526 78.938-72.172 41.668-181.345 46.194-243.848 10.108-28.546-16.481-42.251-38.593-42.025-61.712l-.166.014v-53.983z" fill="url(#SVGID_1_)"/><path d="m142.83 292.444c72.172-41.668 181.345-46.194 243.848-10.107 62.502 36.085 54.664 99.117-17.508 140.785-72.171 41.667-181.345 46.194-243.848 10.107-62.501-36.085-54.663-99.117 17.508-140.785z" fill="url(#SVGID_2_)"/><g><path d="m129.444 0h253.112v340.823l-.121.01c-.245 20.105-14.921 41.245-43.579 57.791-52.837 30.506-132.764 33.819-178.523 7.4-20.898-12.066-30.932-28.254-30.767-45.18l-.122.01z" fill="url(#SVGID_3_)"/></g><ellipse cx="256" cy="351.308" fill="#61efde" opacity=".8" rx="126.29" ry="71.448" transform="matrix(.993 -.121 .121 .993 -40.622 33.552)"/></g><g><g><image height="334" overflow="visible" transform="translate(109 66)" width="294"/></g><path d="m362.717 165.318-104.717-60.458c-1.238-.715-2.763-.715-4 0l-104.716 60.458c-1.238.714-2 2.035-2 3.464v129.189c0 1.429.762 2.75 2 3.464l104.716 60.458c.619.357 1.31.536 2 .536s1.381-.179 2-.536l104.717-60.458c1.237-.714 2-2.035 2-3.464v-129.189c0-1.429-.763-2.749-2-3.464zm-106.717-52.375 96.717 55.839-96.717 55.84-96.716-55.839zm-100.716 62.767 96.716 55.84v119.95l-96.716-55.839zm201.433 119.951-96.717 55.839v-119.95l96.717-55.839z" fill="#fff"/></g></g></svg>