<svg id="Capa_1" enable-background="new 0 0 512 512" height="512" viewBox="0 0 512 512" width="512" xmlns="http://www.w3.org/2000/svg" xmlns:xlink="http://www.w3.org/1999/xlink"><linearGradient id="SVGID_1_" gradientUnits="userSpaceOnUse" x1="289.08" x2="309.863" y1="317.283" y2="317.283"><stop offset="0" stop-color="#dea861"/><stop offset="1" stop-color="#fcf3b3"/></linearGradient><linearGradient id="SVGID_00000183927373416000370760000006589302182594885817_" gradientUnits="userSpaceOnUse" x1="-152.72" x2="363.63" y1="14.079" y2="312.194"><stop offset="0" stop-color="#fcf3b3"/><stop offset="1" stop-color="#fefae1"/></linearGradient><g><path d="m511.996 287.383c0-.007 0-.014 0-.021v-11.942l-511.99-50.601v11.674c-.001.028.001.056 0 .083v.074h.003c-.017 2.012 1.438 4.137 4.31 5.795l285.456 164.808c5.221 3.015 13.12 3.342 17.642.731l201.53-116.354c1.975-1.14 2.979-2.653 3.048-4.246v-.001z" fill="url(#SVGID_1_)"/><path d="m204.583 104.015-201.53 116.354c-4.522 2.611-3.955 7.171 1.267 10.185l285.456 164.808c5.221 3.015 13.12 3.342 17.642.731l201.53-116.354c4.522-2.611 3.955-7.171-1.267-10.186l-285.456-164.807c-5.221-3.014-13.12-3.342-17.642-.731z" fill="url(#SVGID_00000183927373416000370760000006589302182594885817_)"/><g><path d="m51.129 222.351-11.494 6.636 13.272 7.663 11.495-6.636z" fill="#ebcba0"/><path d="m51.436 224.819-7.527 4.346 8.691 5.017 7.527-4.345z" fill="#46230e"/><path d="m68.576 212.278-11.494 6.636 13.272 7.663 11.495-6.636z" fill="#ebcba0"/><path d="m68.883 214.746-7.527 4.345 8.691 5.018 7.527-4.345z" fill="#46230e"/><g fill="#ebcba0"><path d="m69.616 233.024-11.494 6.637 13.272 7.663 11.495-6.637z"/><path d="m87.063 222.951-11.494 6.637 13.272 7.663 11.495-6.637z"/><path d="m88.103 243.698-11.494 6.636 13.272 7.663 11.495-6.636z"/><path d="m105.55 233.625-11.494 6.636 13.272 7.663 11.495-6.636z"/><path d="m106.59 254.371-11.494 6.637 13.272 7.663 11.495-6.637z"/><path d="m124.037 244.298-11.494 6.637 13.272 7.663 11.495-6.637z"/><path d="m143.564 275.718-11.494 6.637 13.272 7.663 11.495-6.637z"/><path d="m161.011 265.645-11.494 6.637 13.272 7.663 11.495-6.637z"/><path d="m162.051 286.392-11.494 6.636 13.272 7.663 11.495-6.636z"/><path d="m179.498 276.319-11.494 6.636 13.272 7.663 11.495-6.636z"/><path d="m180.538 297.065-11.494 6.637 13.272 7.663 11.495-6.637z"/><path d="m197.985 286.992-11.494 6.637 13.272 7.663 11.495-6.637z"/><path d="m199.025 307.739-11.494 6.636 13.272 7.663 11.495-6.636z"/><path d="m216.472 297.666-11.494 6.636 13.272 7.663 11.495-6.636z"/><path d="m109.029 188.922-11.494 6.637 13.273 7.663 11.494-6.637z"/><path d="m126.476 178.849-11.494 6.637 13.273 7.663 11.494-6.637z"/><path d="m127.516 199.596-11.494 6.636 13.273 7.663 11.494-6.636z"/><path d="m144.963 189.523-11.494 6.636 13.273 7.663 11.494-6.636z"/><path d="m146.003 210.269-11.494 6.637 13.273 7.663 11.494-6.637z"/><path d="m163.45 200.196-11.494 6.637 13.273 7.663 11.494-6.637z"/><path d="m164.49 220.943-11.494 6.636 13.273 7.663 11.494-6.636z"/><path d="m181.937 210.87-11.494 6.636 13.273 7.663 11.494-6.636z"/><path d="m201.464 242.29-11.494 6.636 13.273 7.663 11.494-6.636z"/><path d="m218.911 232.217-11.494 6.636 13.273 7.663 11.494-6.636z"/><path d="m219.951 252.963-11.494 6.637 13.273 7.663 11.494-6.637z"/><path d="m237.398 242.89-11.494 6.636 13.273 7.663 11.494-6.636z"/><path d="m238.438 263.637-11.494 6.636 13.273 7.663 11.494-6.636z"/><path d="m255.885 253.564-11.494 6.636 13.273 7.663 11.494-6.636z"/><path d="m256.925 274.31-11.494 6.636 13.273 7.663 11.494-6.636z"/><path d="m274.372 264.237-11.494 6.636 13.273 7.663 11.494-6.636z"/><path d="m143.923 168.776-11.494 6.637 13.273 7.663 11.494-6.637z"/><path d="m161.37 158.703-11.494 6.636 13.273 7.663 11.494-6.636z"/><path d="m162.41 179.45-11.494 6.636 13.273 7.663 11.494-6.636z"/><path d="m179.857 169.377-11.494 6.636 13.273 7.663 11.494-6.636z"/><path d="m180.897 190.123-11.494 6.636 13.273 7.663 11.494-6.636z"/><path d="m198.344 180.05-11.494 6.636 13.273 7.663 11.494-6.636z"/><path d="m199.384 200.797-11.494 6.636 13.273 7.663 11.494-6.636z"/><path d="m216.831 190.724-11.494 6.636 13.273 7.663 11.494-6.636z"/><path d="m236.358 222.144-11.494 6.636 13.273 7.663 11.494-6.636z"/><path d="m253.806 212.071-11.495 6.636 13.273 7.663 11.494-6.636z"/><path d="m254.845 232.817-11.494 6.636 13.273 7.663 11.494-6.636z"/><path d="m272.293 222.744-11.495 6.636 13.273 7.663 11.494-6.636z"/><path d="m273.332 243.491-11.494 6.636 13.273 7.663 11.494-6.636z"/><path d="m290.78 233.417-11.495 6.637 13.273 7.663 11.494-6.637z"/><path d="m291.82 254.164-11.495 6.636 13.273 7.663 11.494-6.636z"/><path d="m309.267 244.091-11.495 6.636 13.273 7.663 11.494-6.636z"/><path d="m236.236 329.223-11.494 6.636 13.272 7.663 11.495-6.636z"/><path d="m253.683 319.15-11.494 6.636 13.273 7.663 11.494-6.637z"/><path d="m254.723 339.896-11.494 6.636 13.272 7.663 11.495-6.636z"/><path d="m272.17 329.823-11.494 6.636 13.273 7.663 11.494-6.636z"/><path d="m273.21 350.57-11.494 6.636 13.272 7.663 11.495-6.636z"/><path d="m290.657 340.497-11.494 6.636 13.273 7.663 11.494-6.636z"/><path d="m291.697 361.243-11.494 6.636 13.272 7.663 11.495-6.636z"/><path d="m309.144 351.17-11.494 6.636 13.273 7.663 11.494-6.636z"/><path d="m294.136 295.794-11.494 6.636 13.273 7.663 11.494-6.636z"/><path d="m311.583 285.721-11.494 6.636 13.273 7.663 11.494-6.636z"/><path d="m312.623 306.467-11.494 6.637 13.273 7.663 11.494-6.637z"/><path d="m330.07 296.394-11.494 6.637 13.273 7.663 11.494-6.637z"/><path d="m331.11 317.141-11.494 6.636 13.273 7.663 11.494-6.636z"/><path d="m348.557 307.068-11.494 6.636 13.273 7.663 11.494-6.636z"/><path d="m349.598 327.814-11.495 6.637 13.273 7.663 11.494-6.637z"/><path d="m367.044 317.741-11.494 6.637 13.273 7.663 11.494-6.637z"/><path d="m329.031 275.648-11.495 6.636 13.273 7.663 11.494-6.636z"/><path d="m346.478 265.575-11.495 6.636 13.273 7.663 11.494-6.636z"/><path d="m347.518 286.321-11.495 6.637 13.273 7.663 11.494-6.637z"/><path d="m364.965 276.248-11.495 6.637 13.273 7.663 11.494-6.637z"/><path d="m366.005 296.995-11.495 6.636 13.273 7.663 11.494-6.636z"/><path d="m383.452 286.922-11.495 6.636 13.273 7.663 11.494-6.636z"/><path d="m384.492 307.668-11.495 6.637 13.273 7.663 11.494-6.637z"/><path d="m401.939 297.595-11.495 6.637 13.273 7.663 11.494-6.637z"/></g><g><g><path d="m288.572 378.374-2.304 1.329-253.84-146.555 2.303-1.33z" fill="#ff7a85"/></g><g><path d="m329.624 354.672-2.304 1.33-253.841-146.555 2.304-1.33z" fill="#59acf9"/></g></g><g><path d="m28.45 228.192-2.303 1.33-7.466-4.31 2.303-1.33z" fill="#ff7a85"/></g><g><path d="m28.129 225.603-6.466 3.733-2.66-1.536 6.466-3.733z" fill="#ff7a85"/></g><g><path d="m69.18 201.902-6.465 3.733-2.66-1.536 6.466-3.733z" fill="#59acf9"/></g><g><path d="m302.319 386.31-2.304 1.33-7.466-4.31 2.304-1.33z" fill="#ff7a85"/></g><g><path d="m301.997 383.721-6.466 3.733-2.66-1.535 6.466-3.734z" fill="#ff7a85"/></g><g><path d="m343.049 360.02-6.466 3.733-2.66-1.536 6.466-3.733z" fill="#59acf9"/></g><g><g><path d="m439.507 291.231-2.303 1.33-253.841-146.555 2.303-1.33z" fill="#ff7a85"/></g><g><path d="m480.559 267.53-2.303 1.329-253.841-146.555 2.303-1.33z" fill="#59acf9"/></g></g><g><path d="m179.386 141.049-2.304 1.33-7.466-4.31 2.304-1.33z" fill="#ff7a85"/></g><g><path d="m179.064 138.461-6.466 3.733-2.66-1.536 6.466-3.733z" fill="#ff7a85"/></g><g><path d="m220.116 114.759-6.466 3.733-2.66-1.535 6.466-3.733z" fill="#59acf9"/></g><g><path d="m453.254 299.168-2.303 1.33-7.466-4.311 2.303-1.33z" fill="#ff7a85"/></g><g><path d="m452.932 296.579-6.466 3.733-2.66-1.536 6.466-3.733z" fill="#ff7a85"/></g><g><path d="m493.984 272.877-6.466 3.733-2.66-1.535 6.466-3.733z" fill="#59acf9"/></g><g><g><path d="m96.78 186.157-4.044 2.335 1.368 1.796-.798.461-5.063-6.754.757-.439 11.699 2.923-.809.467zm-.998-.253-6.244-1.593 2.76 3.605z" fill="#46230e"/></g><g><path d="m92.121 200.733 8.381 4.839-.747.431-7.615-4.396-1.711.988-.766-.442z" fill="#46230e"/></g><g><path d="m120.075 214.711.766.442-5.091 2.939-.611-.353-.395-3.712c-.115-1.012-.522-1.427-1.097-1.759-.97-.56-2.159-.564-3.269.076-.85.491-1.204 1.041-1.046 1.683l-1.056.001c-.206-.766.265-1.535 1.374-2.176 1.472-.85 3.268-.891 4.668-.083.802.463 1.303 1.004 1.43 2.202l.334 3.042z" fill="#46230e"/></g><g><path d="m136.767 224.504c1.401.809 1.597 1.94-.155 2.952-1.047.605-2.472.943-3.69.886l-.32-.604c1.029.055 2.277-.194 3.22-.739 1.203-.695 1.22-1.451.178-2.052-1.006-.581-2.276-.608-3.624.171l-.518.299-.635-.366-.898-2.841-3.712 2.143-.766-.442 4.666-2.694.611.352.928 2.907c1.65-.843 3.374-.746 4.715.028z" fill="#46230e"/></g><g><path d="m156.304 234.783-1.451.838 2.203 1.272-.746.431-2.203-1.272-4.096 2.365-.623-.359-1.708-5.428.829-.479 1.7 5.268 3.152-1.82-1.939-1.12.726-.419 1.939 1.12 1.451-.838z" fill="#46230e"/></g><g><path d="m192.223 256.39c1.425.823 1.678 1.962-.095 2.986-1.047.605-2.462.937-3.68.88l-.319-.604c1.029.056 2.266-.188 3.199-.727 1.234-.712 1.193-1.491.175-2.078-1.078-.622-2.329-.674-4.174.392l-1.545.892-3.829-2.642 3.971-2.293.766.442-3.318 1.916 2.421 1.685.933-.539c2.187-1.262 4.01-1.167 5.495-.31z" fill="#46230e"/></g><g><path d="m210.96 266.854c1.568.905 1.506 2.103.096 2.917-1.929 1.113-4.521.827-7.167-.701-2.85-1.645-2.986-3.28-1.016-4.418.654-.377 1.397-.654 2.176-.731l.394.575c-.66.049-1.266.275-1.805.586-1.566.904-1.41 2.155.865 3.468.192.111.441.243.714.376-.559-.742-.224-1.53.782-2.111 1.441-.832 3.429-.846 4.961.039zm-.712.439c-1.102-.636-2.513-.637-3.633.01-1.11.641-1.076 1.534-.035 2.135.922.532 2.46.654 3.714-.071 1.048-.604 1.067-1.431-.046-2.074z" fill="#46230e"/></g><g><path d="m223.321 274.254.611.353 4.732 6.24-.809.467-4.629-6.12-3.733 2.155 1.568.906-.736.425-2.335-1.348z" fill="#46230e"/></g><g><path d="m248.036 288.29c1.485.857 1.318 2.018-.414 3.018-1.742 1.006-3.721 1.084-5.206.227-1.006-.581-1.214-1.276-.66-1.997-1.071.231-2.11.098-2.984-.406-1.365-.788-1.209-1.859.325-2.745 1.535-.886 3.411-.988 4.776-.2.874.505 1.094 1.11.683 1.735 1.26-.327 2.487-.206 3.48.368zm-.779.436c-1.03-.594-2.443-.525-3.729.217s-1.396 1.553-.366 2.147c1.042.601 2.445.538 3.731-.205 1.285-.741 1.406-1.557.364-2.159zm-4.411-.176c1.13-.653 1.218-1.38.308-1.906-.946-.546-2.236-.465-3.325.164-1.099.635-1.219 1.367-.285 1.907.921.532 2.171.487 3.302-.165z" fill="#46230e"/></g><g><path d="m282.851 308.612c2.849 1.645 2.987 3.28 1.016 4.418-.653.377-1.397.654-2.176.731l-.394-.574c.661-.05 1.266-.275 1.805-.586 1.566-.904 1.41-2.155-.865-3.468-.192-.111-.441-.243-.713-.376.559.742.224 1.53-.782 2.111-1.441.832-3.429.846-4.961-.039-1.569-.906-1.506-2.103-.096-2.917 1.929-1.114 4.52-.827 7.166.7zm-2.69-.368c-.922-.532-2.46-.654-3.714.071-1.047.605-1.067 1.432.047 2.074 1.102.636 2.513.637 3.633-.01 1.108-.64 1.075-1.534.034-2.135z" fill="#46230e"/></g><g fill="#46230e"><g><path d="m291.829 319.997 8.381 4.839-.747.431-7.615-4.396-1.711.988-.766-.442z"/><path d="m297.751 321.417c-2.67-1.542-3.049-3.161-1.369-4.131s4.496-.757 7.165.784c2.67 1.542 3.039 3.168 1.359 4.137-1.68.971-4.485.752-7.155-.79zm5.028-2.903c-2.239-1.293-4.343-1.502-5.608-.771-1.265.73-.903 1.945 1.336 3.238s4.343 1.502 5.608.771.903-1.945-1.336-3.238z"/></g><g><path d="m311.857 329.759 8.381 4.839-.746.431-7.615-4.396-1.711.988-.766-.442z"/><path d="m315.599 327.598 8.381 4.839-.746.431-7.615-4.396-1.711.988-.766-.442z"/></g><g><path d="m329.251 341.04 8.381 4.839-.746.431-7.615-4.396-1.711.988-.766-.442z"/><path d="m343.553 341.576.766.442-5.091 2.939-.611-.352-.395-3.712c-.115-1.012-.522-1.427-1.097-1.758-.97-.56-2.159-.564-3.269.076-.85.491-1.204 1.041-1.046 1.683l-1.056.001c-.206-.766.265-1.535 1.374-2.176 1.472-.85 3.268-.891 4.668-.082.802.463 1.303 1.004 1.43 2.202l.334 3.042z"/></g></g><g><path d="m171.556 154.871 8.381 4.839-.746.431-7.615-4.396-1.711.988-.766-.442z" fill="#46230e"/></g><g><path d="m199.51 168.849.766.442-5.091 2.939-.611-.353-.395-3.712c-.115-1.012-.522-1.427-1.097-1.758-.97-.56-2.16-.564-3.269.076-.85.491-1.204 1.041-1.046 1.683l-1.056.001c-.206-.766.265-1.535 1.374-2.176 1.472-.85 3.268-.891 4.668-.083.802.463 1.303 1.004 1.43 2.202l.334 3.042z" fill="#46230e"/></g><g><path d="m216.202 178.642c1.401.809 1.597 1.94-.155 2.952-1.047.605-2.472.943-3.69.886l-.32-.603c1.03.055 2.277-.195 3.22-.739 1.203-.695 1.22-1.451.178-2.052-1.006-.581-2.276-.607-3.624.171l-.518.299-.635-.366-.898-2.841-3.712 2.143-.766-.442 4.666-2.694.61.352.928 2.907c1.651-.844 3.375-.747 4.716.027z" fill="#46230e"/></g><g><path d="m235.739 188.922-1.452.838 2.203 1.272-.747.431-2.203-1.272-4.096 2.365-.623-.36-1.708-5.428.829-.479 1.7 5.268 3.152-1.82-1.939-1.12.726-.419 1.939 1.12 1.451-.838z" fill="#46230e"/></g><g><path d="m271.658 210.528c1.425.823 1.678 1.962-.095 2.986-1.047.605-2.462.937-3.68.881l-.319-.604c1.029.056 2.266-.188 3.199-.727 1.234-.712 1.193-1.49.175-2.078-1.078-.622-2.329-.674-4.174.392l-1.545.892-3.829-2.642 3.971-2.293.766.442-3.318 1.916 2.421 1.685.933-.539c2.187-1.263 4.01-1.168 5.495-.311z" fill="#46230e"/></g><g><path d="m290.395 220.992c1.568.906 1.506 2.103.096 2.917-1.929 1.114-4.521.827-7.167-.701-2.85-1.645-2.986-3.281-1.016-4.418.654-.377 1.397-.654 2.176-.731l.394.575c-.66.049-1.266.275-1.805.586-1.566.904-1.41 2.155.865 3.468.192.111.441.243.714.376-.559-.742-.224-1.53.782-2.111 1.441-.832 3.429-.845 4.961.039zm-.712.439c-1.102-.636-2.513-.637-3.633.01-1.109.641-1.076 1.534-.035 2.135.922.532 2.46.654 3.714-.071 1.048-.604 1.068-1.431-.046-2.074z" fill="#46230e"/></g><g><path d="m302.756 228.392.611.352 4.732 6.24-.809.467-4.629-6.12-3.733 2.155 1.568.906-.736.425-2.335-1.348z" fill="#46230e"/></g><g><path d="m327.472 242.428c1.485.857 1.318 2.018-.414 3.018-1.742 1.006-3.721 1.084-5.206.227-1.006-.581-1.214-1.276-.66-1.997-1.071.231-2.11.099-2.984-.406-1.365-.788-1.209-1.859.325-2.745 1.535-.886 3.411-.988 4.776-.2.874.505 1.094 1.111.683 1.735 1.259-.327 2.486-.206 3.48.368zm-.78.436c-1.03-.594-2.443-.525-3.729.217s-1.396 1.553-.366 2.147c1.042.601 2.445.538 3.731-.205 1.285-.741 1.406-1.557.364-2.159zm-4.411-.176c1.13-.653 1.218-1.38.308-1.906-.946-.546-2.236-.465-3.325.164-1.099.635-1.219 1.367-.285 1.907.922.532 2.172.487 3.302-.165z" fill="#46230e"/></g><g><path d="m362.286 262.75c2.849 1.645 2.987 3.281 1.016 4.418-.653.377-1.397.654-2.176.731l-.394-.574c.661-.05 1.266-.275 1.805-.586 1.566-.904 1.41-2.155-.865-3.468-.191-.111-.441-.243-.713-.376.559.742.224 1.53-.782 2.111-1.441.832-3.429.846-4.961-.039-1.569-.906-1.506-2.103-.096-2.917 1.929-1.114 4.52-.827 7.166.7zm-2.69-.368c-.922-.532-2.46-.654-3.714.071-1.047.605-1.067 1.432.047 2.074 1.102.636 2.513.637 3.633-.01 1.109-.64 1.076-1.534.034-2.135z" fill="#46230e"/></g><g fill="#46230e"><path d="m371.265 274.135 8.381 4.839-.746.431-7.615-4.396-1.711.988-.766-.442z"/><path d="m377.186 275.555c-2.67-1.541-3.049-3.161-1.369-4.131s4.496-.757 7.165.785c2.67 1.542 3.039 3.167 1.359 4.137s-4.485.751-7.155-.791zm5.028-2.903c-2.239-1.293-4.343-1.501-5.608-.771s-.903 1.945 1.336 3.238 4.343 1.502 5.608.771.903-1.945-1.336-3.238z"/></g><g fill="#46230e"><path d="m391.292 283.897 8.381 4.839-.747.431-7.615-4.396-1.711.988-.766-.442z"/><path d="m395.034 281.736 8.381 4.839-.747.431-7.615-4.396-1.711.988-.766-.442z"/></g><g fill="#46230e"><path d="m408.687 295.178 8.381 4.839-.747.431-7.615-4.396-1.711.988-.766-.442z"/><path d="m422.988 295.714.766.442-5.091 2.939-.611-.352-.395-3.712c-.115-1.012-.522-1.427-1.097-1.759-.97-.56-2.159-.564-3.269.076-.85.491-1.204 1.041-1.046 1.683l-1.056.001c-.206-.766.265-1.535 1.374-2.176 1.472-.85 3.268-.891 4.668-.082.802.463 1.303 1.004 1.43 2.202l.334 3.042z"/></g><g><path d="m115.549 175.32c1.425.822 1.326 1.819-.488 2.867l-3.339 1.928-8.381-4.839 3.131-1.808c1.617-.934 3.341-1.016 4.706-.228.958.553 1.147 1.177.794 1.74 1.173-.401 2.44-.316 3.577.34zm-10.71-.065 3.041 1.756 2.312-1.335c1.161-.671 1.32-1.357.314-1.937-1.006-.581-2.194-.489-3.355.182zm9.871.467c-1.09-.629-2.263-.504-3.538.232l-2.561 1.479 3.149 1.818 2.561-1.479c1.275-.737 1.491-1.414.389-2.05z" fill="#46230e"/></g><g><path d="m124.518 167.889c-2.454-1.417-2.645-3.395-.457-4.658 1.058-.611 2.418-.926 3.876-.827l.075.606c-1.285-.06-2.311.187-3.14.666-1.752 1.012-1.584 2.629.403 3.777 1.988 1.148 4.789 1.244 6.541.233.829-.479 1.256-1.071 1.141-1.82l1.05.044c.171.841-.363 1.634-1.432 2.251-2.177 1.255-5.602 1.145-8.057-.272z" fill="#46230e"/></g><g><path d="m137.863 155.345 2.955-1.706c2.323-1.341 5.612-1.249 8.079.174 2.466 1.424 2.625 3.323.302 4.664l-2.955 1.706zm10.528 2.715c1.928-1.113 1.76-2.648-.251-3.809s-4.669-1.258-6.597-.145l-2.146 1.239 6.848 3.954z" fill="#46230e"/></g><g><path d="m369.776 343.771-4.044 2.335 1.368 1.796-.798.461-5.063-6.754.757-.437 11.699 2.923-.809.467zm-.999-.253-6.244-1.593 2.76 3.605z" fill="#46230e"/></g><g><path d="m388.545 332.934c1.425.823 1.326 1.819-.488 2.867l-3.339 1.928-8.381-4.839 3.131-1.808c1.617-.934 3.341-1.016 4.706-.228.958.553 1.147 1.177.794 1.74 1.173-.401 2.44-.316 3.577.34zm-10.71-.065 3.041 1.756 2.312-1.335c1.161-.671 1.32-1.357.315-1.937-1.006-.581-2.194-.489-3.356.182zm9.871.467c-1.089-.629-2.263-.504-3.538.232l-2.561 1.479 3.149 1.818 2.561-1.479c1.275-.736 1.49-1.414.389-2.05z" fill="#46230e"/></g><g><path d="m397.514 325.503c-2.454-1.417-2.645-3.395-.457-4.658 1.058-.611 2.418-.926 3.876-.828l.075.606c-1.285-.06-2.311.187-3.14.666-1.752 1.012-1.585 2.629.403 3.776s4.789 1.244 6.541.233c.829-.479 1.256-1.071 1.141-1.82l1.05.044c.171.841-.363 1.634-1.431 2.25-2.178 1.258-5.604 1.148-8.058-.269z" fill="#46230e"/></g><g><path d="m410.859 312.96 2.955-1.706c2.323-1.341 5.612-1.249 8.079.174 2.467 1.424 2.625 3.323.302 4.664l-2.955 1.706zm10.528 2.714c1.928-1.113 1.76-2.648-.251-3.809s-4.669-1.258-6.597-.145l-2.146 1.239 6.848 3.954z" fill="#46230e"/></g></g><path d="m69.923 235.492-7.527 4.346 8.691 5.018 7.527-4.346z" fill="#46230e"/><path d="m87.37 225.419-7.527 4.346 8.691 5.018 7.527-4.346z" fill="#46230e"/><path d="m88.41 246.166-7.527 4.345 8.691 5.018 7.527-4.345z" fill="#46230e"/><path d="m105.857 236.093-7.527 4.345 8.691 5.018 7.527-4.345z" fill="#46230e"/><path d="m106.897 256.839-7.527 4.346 8.691 5.018 7.527-4.346z" fill="#46230e"/><path d="m124.344 246.766-7.527 4.346 8.692 5.018 7.526-4.346z" fill="#46230e"/><path d="m143.871 278.186-7.527 4.346 8.691 5.018 7.527-4.346z" fill="#46230e"/><path d="m161.318 268.113-7.527 4.346 8.691 5.018 7.527-4.346z" fill="#46230e"/><path d="m162.358 288.86-7.527 4.345 8.692 5.018 7.526-4.345z" fill="#46230e"/><path d="m179.805 278.787-7.527 4.345 8.691 5.018 7.527-4.345z" fill="#46230e"/><path d="m180.845 299.533-7.527 4.346 8.692 5.018 7.526-4.346z" fill="#46230e"/><path d="m198.292 289.46-7.527 4.346 8.692 5.018 7.526-4.346z" fill="#46230e"/><path d="m199.332 310.207-7.527 4.345 8.692 5.018 7.526-4.345z" fill="#46230e"/><path d="m216.779 300.134-7.527 4.345 8.692 5.018 7.526-4.345z" fill="#46230e"/><path d="m236.306 331.554-7.527 4.345 8.692 5.018 7.526-4.345z" fill="#46230e"/><path d="m253.753 321.481-7.527 4.345 8.692 5.018 7.526-4.345z" fill="#46230e"/><path d="m254.793 342.227-7.527 4.346 8.692 5.018 7.526-4.346z" fill="#46230e"/><path d="m272.24 332.154-7.527 4.346 8.692 5.018 7.526-4.346z" fill="#46230e"/><path d="m273.28 352.901-7.527 4.345 8.692 5.018 7.526-4.345z" fill="#46230e"/><path d="m290.727 342.828-7.527 4.345 8.692 5.018 7.526-4.345z" fill="#46230e"/><path d="m291.767 363.574-7.527 4.346 8.692 5.018 7.526-4.346z" fill="#46230e"/><path d="m309.214 353.501-7.527 4.346 8.692 5.018 7.526-4.346z" fill="#46230e"/><path d="m201.784 135.37-11.494 6.636 13.272 7.664 11.495-6.637z" fill="#ebcba0"/><path d="m202.091 137.838-7.527 4.346 8.692 5.018 7.527-4.346z" fill="#46230e"/><path d="m219.231 125.297-11.494 6.636 13.273 7.663 11.494-6.636z" fill="#ebcba0"/><path d="m219.538 127.765-7.527 4.346 8.692 5.018 7.527-4.346z" fill="#46230e"/><path d="m220.271 146.044-11.494 6.636 13.272 7.663 11.495-6.636z" fill="#ebcba0"/><path d="m237.718 135.971-11.494 6.636 13.273 7.663 11.494-6.636z" fill="#ebcba0"/><path d="m238.758 156.717-11.494 6.636 13.272 7.663 11.495-6.636z" fill="#ebcba0"/><path d="m256.205 146.644-11.494 6.636 13.272 7.663 11.495-6.636z" fill="#ebcba0"/><path d="m257.245 167.391-11.494 6.636 13.272 7.663 11.495-6.636z" fill="#ebcba0"/><path d="m274.692 157.318-11.494 6.636 13.273 7.663 11.494-6.636z" fill="#ebcba0"/><path d="m294.219 188.738-11.494 6.636 13.272 7.663 11.495-6.636z" fill="#ebcba0"/><path d="m311.666 178.664-11.494 6.637 13.273 7.663 11.494-6.636z" fill="#ebcba0"/><path d="m312.706 199.411-11.494 6.636 13.273 7.663 11.494-6.636z" fill="#ebcba0"/><path d="m330.153 189.338-11.494 6.636 13.273 7.663 11.494-6.636z" fill="#ebcba0"/><path d="m331.193 210.085-11.494 6.636 13.273 7.663 11.494-6.636z" fill="#ebcba0"/><path d="m348.64 200.011-11.494 6.637 13.273 7.663 11.494-6.637z" fill="#ebcba0"/><path d="m349.68 220.758-11.494 6.636 13.273 7.663 11.494-6.636z" fill="#ebcba0"/><path d="m367.127 210.685-11.494 6.636 13.273 7.663 11.494-6.636z" fill="#ebcba0"/><path d="m386.891 242.242-11.494 6.636 13.273 7.663 11.494-6.636z" fill="#ebcba0"/><path d="m404.338 232.169-11.494 6.636 13.273 7.663 11.494-6.636z" fill="#ebcba0"/><path d="m405.378 252.915-11.494 6.637 13.273 7.663 11.494-6.637z" fill="#ebcba0"/><path d="m422.826 242.842-11.495 6.637 13.273 7.663 11.494-6.637z" fill="#ebcba0"/><path d="m423.865 263.589-11.494 6.636 13.273 7.663 11.494-6.636z" fill="#ebcba0"/><path d="m441.312 253.516-11.494 6.636 13.273 7.663 11.494-6.636z" fill="#ebcba0"/><path d="m442.352 274.262-11.494 6.637 13.273 7.663 11.494-6.637z" fill="#ebcba0"/><path d="m459.799 264.189-11.494 6.637 13.273 7.663 11.494-6.637z" fill="#ebcba0"/><path d="m220.578 148.512-7.527 4.345 8.692 5.018 7.527-4.346z" fill="#46230e"/><path d="m238.025 138.438-7.527 4.346 8.692 5.018 7.527-4.346z" fill="#46230e"/><path d="m239.065 159.185-7.527 4.346 8.692 5.018 7.527-4.346z" fill="#46230e"/><path d="m256.512 149.112-7.527 4.346 8.692 5.018 7.526-4.346z" fill="#46230e"/><path d="m257.552 169.858-7.527 4.346 8.692 5.018 7.526-4.346z" fill="#46230e"/><path d="m274.999 159.785-7.527 4.346 8.692 5.018 7.526-4.346z" fill="#46230e"/><path d="m294.526 191.205-7.527 4.346 8.692 5.018 7.526-4.346z" fill="#46230e"/><path d="m311.973 181.132-7.527 4.346 8.692 5.018 7.527-4.346z" fill="#46230e"/><path d="m313.013 201.879-7.527 4.346 8.692 5.017 7.526-4.345z" fill="#46230e"/><path d="m330.46 191.806-7.527 4.346 8.692 5.017 7.527-4.345z" fill="#46230e"/><path d="m331.5 212.552-7.527 4.346 8.692 5.018 7.526-4.346z" fill="#46230e"/><path d="m348.947 202.479-7.527 4.346 8.692 5.018 7.527-4.346z" fill="#46230e"/><path d="m349.987 223.226-7.527 4.346 8.692 5.017 7.527-4.345z" fill="#46230e"/><path d="m367.434 213.153-7.527 4.345 8.692 5.018 7.527-4.345z" fill="#46230e"/><path d="m386.961 244.573-7.527 4.346 8.692 5.017 7.527-4.345z" fill="#46230e"/><path d="m404.408 234.5-7.526 4.345 8.691 5.018 7.527-4.345z" fill="#46230e"/><path d="m405.448 255.246-7.527 4.346 8.692 5.018 7.527-4.346z" fill="#46230e"/><path d="m422.895 245.173-7.527 4.346 8.692 5.018 7.527-4.346z" fill="#46230e"/><path d="m423.935 265.92-7.527 4.345 8.692 5.018 7.527-4.345z" fill="#46230e"/><path d="m441.382 255.847-7.527 4.345 8.692 5.018 7.527-4.345z" fill="#46230e"/><path d="m442.422 276.593-7.526 4.346 8.691 5.018 7.527-4.346z" fill="#46230e"/><path d="m459.869 266.52-7.527 4.346 8.692 5.018 7.527-4.346z" fill="#46230e"/><path d="m109.332 191.393-7.527 4.345 8.691 5.018 7.527-4.345z" fill="#46230e"/><path d="m126.783 181.317-7.527 4.346 8.692 5.018 7.527-4.346z" fill="#46230e"/><path d="m144.235 171.242-7.527 4.345 8.691 5.018 7.527-4.346z" fill="#46230e"/><path d="m161.686 161.166-7.527 4.346 8.691 5.018 7.527-4.346z" fill="#46230e"/><path d="m127.819 202.066-7.527 4.346 8.691 5.018 7.527-4.346z" fill="#46230e"/><path d="m145.27 191.991-7.527 4.345 8.692 5.018 7.527-4.345z" fill="#46230e"/><path d="m162.722 181.915-7.527 4.346 8.691 5.018 7.527-4.346z" fill="#46230e"/><path d="m180.173 171.839-7.527 4.346 8.691 5.018 7.527-4.346z" fill="#46230e"/><path d="m146.306 212.74-7.527 4.345 8.691 5.018 7.527-4.345z" fill="#46230e"/><path d="m163.757 202.664-7.527 4.346 8.692 5.018 7.527-4.346z" fill="#46230e"/><path d="m181.209 192.589-7.527 4.345 8.691 5.018 7.527-4.346z" fill="#46230e"/><path d="m198.66 182.513-7.527 4.346 8.691 5.017 7.527-4.345z" fill="#46230e"/><path d="m164.793 223.413-7.527 4.346 8.691 5.018 7.527-4.346z" fill="#46230e"/><path d="m182.244 213.338-7.527 4.345 8.692 5.018 7.527-4.346z" fill="#46230e"/><path d="m199.696 203.262-7.527 4.346 8.691 5.018 7.527-4.346z" fill="#46230e"/><path d="m217.147 193.186-7.527 4.346 8.692 5.018 7.526-4.346z" fill="#46230e"/><path d="m201.767 244.76-7.527 4.346 8.691 5.018 7.527-4.346z" fill="#46230e"/><path d="m219.218 234.685-7.527 4.345 8.692 5.018 7.527-4.346z" fill="#46230e"/><path d="m236.67 224.609-7.527 4.346 8.691 5.018 7.527-4.346z" fill="#46230e"/><path d="m254.121 214.533-7.527 4.346 8.692 5.018 7.526-4.346z" fill="#46230e"/><path d="m220.254 255.434-7.527 4.345 8.691 5.018 7.527-4.346z" fill="#46230e"/><path d="m237.705 245.358-7.527 4.346 8.692 5.018 7.527-4.346z" fill="#46230e"/><path d="m255.157 235.282-7.527 4.346 8.691 5.018 7.527-4.346z" fill="#46230e"/><path d="m272.608 225.207-7.527 4.346 8.691 5.017 7.527-4.345z" fill="#46230e"/><path d="m238.741 266.107-7.527 4.346 8.691 5.018 7.527-4.346z" fill="#46230e"/><path d="m256.192 256.031-7.527 4.346 8.692 5.018 7.527-4.346z" fill="#46230e"/><path d="m273.644 245.956-7.527 4.346 8.691 5.017 7.527-4.345z" fill="#46230e"/><path d="m291.095 235.88-7.527 4.346 8.691 5.018 7.527-4.346z" fill="#46230e"/><path d="m257.228 276.781-7.527 4.345 8.691 5.018 7.527-4.346z" fill="#46230e"/><path d="m274.679 266.705-7.527 4.346 8.692 5.018 7.527-4.346z" fill="#46230e"/><path d="m292.131 256.629-7.527 4.346 8.691 5.018 7.527-4.346z" fill="#46230e"/><path d="m309.582 246.554-7.527 4.345 8.691 5.018 7.527-4.345z" fill="#46230e"/><path d="m294.202 298.127-7.527 4.346 8.691 5.018 7.527-4.346z" fill="#46230e"/><path d="m311.653 288.052-7.527 4.346 8.692 5.017 7.527-4.345z" fill="#46230e"/><path d="m329.105 277.976-7.527 4.346 8.691 5.018 7.527-4.346z" fill="#46230e"/><path d="m346.556 267.901-7.527 4.345 8.692 5.018 7.526-4.345z" fill="#46230e"/><path d="m312.689 308.801-7.527 4.346 8.691 5.018 7.527-4.346z" fill="#46230e"/><path d="m330.14 298.725-7.527 4.346 8.692 5.018 7.527-4.346z" fill="#46230e"/><path d="m347.592 288.65-7.527 4.345 8.691 5.018 7.527-4.345z" fill="#46230e"/><path d="m365.043 278.574-7.527 4.346 8.692 5.018 7.526-4.346z" fill="#46230e"/><path d="m331.176 319.474-7.527 4.346 8.691 5.018 7.527-4.346z" fill="#46230e"/><path d="m348.627 309.399-7.527 4.346 8.692 5.017 7.527-4.345z" fill="#46230e"/><path d="m366.079 299.323-7.527 4.346 8.691 5.018 7.527-4.346z" fill="#46230e"/><path d="m383.53 289.248-7.527 4.345 8.692 5.018 7.526-4.345z" fill="#46230e"/><path d="m349.663 330.148-7.527 4.345 8.691 5.018 7.527-4.345z" fill="#46230e"/><path d="m367.114 320.072-7.527 4.346 8.692 5.018 7.527-4.346z" fill="#46230e"/><path d="m384.566 309.997-7.527 4.345 8.691 5.018 7.527-4.345z" fill="#46230e"/><path d="m402.017 299.921-7.527 4.346 8.692 5.018 7.526-4.346z" fill="#46230e"/></g><g fill="#ebcba0"><path d="m58.896 188.127-3.968 2.291 304.364 175.725 3.968-2.291z"/><path d="m152.708 133.965-3.968 2.291 304.364 175.725 3.968-2.291z"/></g></g></svg>