<svg id="Capa_1" enable-background="new 0 0 512 512" height="512" viewBox="0 0 512 512" width="512" xmlns="http://www.w3.org/2000/svg" xmlns:xlink="http://www.w3.org/1999/xlink"><linearGradient id="SVGID_1_" gradientUnits="userSpaceOnUse" x1="120.089" x2="159.296" y1="281.431" y2="281.431"><stop offset="0" stop-color="#8b451c"/><stop offset="1" stop-color="#ba5c25"/></linearGradient><linearGradient id="SVGID_2_" gradientUnits="userSpaceOnUse" x1="214.252" x2="328.482" y1="99.955" y2="297.807"><stop offset="0" stop-color="#231107"/><stop offset="1" stop-color="#231107" stop-opacity="0"/></linearGradient><linearGradient id="SVGID_3_" gradientUnits="userSpaceOnUse" x1="293.001" x2="303.213" y1="282.568" y2="264.88"><stop offset="0" stop-color="#e37a34"/><stop offset="1" stop-color="#ffc538"/></linearGradient><linearGradient id="SVGID_4_" gradientUnits="userSpaceOnUse" x1="304.471" x2="304.471" y1="303.915" y2="238.764"><stop offset="0" stop-color="#f7e041"/><stop offset="1" stop-color="#fcf3b3"/></linearGradient><linearGradient id="SVGID_5_" gradientUnits="userSpaceOnUse" x1="246.182" x2="265.591" y1="32.958" y2="66.576"><stop offset="0" stop-color="#ba5c25"/><stop offset="1" stop-color="#8b451c"/></linearGradient><g><path d="m429.43 329.723v-278.862l-311.11 140.586c-2.233-2.13-4.696-4.05-7.436-5.631-10.225-5.904-23.007 1.475-23.007 13.283v36.307l.019.06v251.303c-.307 7.136 3.038 14.412 10.109 18.494 15.545 8.976 34.695 8.985 50.25.027l271.097-156.244c7.353-4.236 10.688-11.922 10.078-19.323z" fill="url(#SVGID_1_)"/><path d="m122.11 265.101v19.646c0 41.668 45.144 67.682 81.195 46.786l172.707-100.099c27.882-16.161 45.047-45.948 45.047-78.175v-54.142z" fill="url(#SVGID_2_)"/><path d="m160.538 172.37-62.478 35.98c-6.783 3.906-10.178 10.752-10.183 17.599v.013c-.002 6.848 3.386 13.697 10.164 17.61 15.545 8.974 34.695 8.985 50.25.027z" fill="#46230e"/><path d="m144.86 188.606-42.325 24.374c-4.595 2.646-6.895 7.283-6.898 11.922v.009c-.001 4.639 2.294 9.278 6.886 11.93 10.531 6.079 23.503 6.087 34.041.018z" fill="#231107"/><path d="m130.552 272.367v-52.518c0-14.039-7.49-27.014-19.65-34.033-2.769-1.599-5.72-2.204-8.557-2.027-.007 0-.019.005-.027.005-.089.006-.178.016-.266.022-.765.06-1.52.187-2.261.36-.166.038-.33.083-.495.127-.774.209-1.537.458-2.267.783l.104-.06c-5.284 2.296-9.256 7.491-9.256 14.072v23.839c0-5.669 3.099-40.46 23.175-28.123 4.67 2.87 11.012 10.274 11.012 19.921v52.518c0 22.333 12.972 40.156 30.556 48.682-13.109-9.586-22.068-25.018-22.068-43.568z" fill="#683415"/><path d="m82.499 179.889c.01-.006.021-.013.031-.021l-.031.019z" fill="#683415"/><g fill="#8b451c"><path d="m429.5 46.579c0-14.039-7.49-27.014-19.649-34.033-6.288-3.63-13.531-2.226-18.186 2.13l-294.636 170.41c4.224-1.881 9.301-1.911 13.873.73 12.16 7.019 19.65 19.994 19.65 34.033v52.519c0 41.669 45.143 67.682 81.195 46.787l172.707-100.1c27.882-16.16 45.047-45.948 45.047-78.175v-94.301z"/><path d="m94.172 186.739c.01-.006.021-.013.031-.021l-.031.019z"/></g><g><path d="m325.968 241.352.001-.002-8.586-4.992c-.851-.708-2.102-.914-3.197-.282l-38.042 21.964c-2.285 1.319-3.692 3.757-3.692 6.395v32.831c0 1.036.542 1.882 1.309 2.365l-.001.003.048.027c.031.019.063.037.095.055l8.601 5c.851.711 2.105.918 3.201.285l38.042-21.964c2.285-1.319 3.692-3.757 3.692-6.395v-32.831c0-1.106-.618-1.997-1.471-2.459z" fill="url(#SVGID_3_)"/><path d="m285.195 263.35 38.042-21.964c1.867-1.078 4.202.27 4.202 2.426v32.831c0 2.638-1.407 5.076-3.692 6.395l-38.042 21.964c-1.867 1.078-4.202-.27-4.202-2.426v-32.831c0-2.638 1.407-5.075 3.692-6.395z" fill="url(#SVGID_4_)"/></g><g><path d="m208.661 147.375c-9.014 0-16.322-7.308-16.322-16.322v-60.41c0-5.844 3.124-11.241 8.191-14.152l94.542-54.321c5.05-2.902 11.265-2.893 16.307.026 5.042 2.918 8.147 8.301 8.147 14.127v60.411c0 9.014-7.308 16.322-16.322 16.322s-16.322-7.308-16.322-16.322v-32.21l-61.898 35.564v50.965c-.001 9.015-7.309 16.322-16.323 16.322z" fill="#e9e5f6"/></g><path d="m224.79 84.709c-8.077 0-15.93-4.201-20.241-11.707-6.415-11.167-2.562-25.419 8.605-31.833l56.814-32.633c11.167-6.414 25.419-2.561 31.832 8.606 6.414 11.167 2.562 25.419-8.605 31.833l-56.814 32.633c-3.66 2.102-7.652 3.101-11.591 3.101z" fill="url(#SVGID_5_)"/><g><path d="m208.661 147.375c-9.014 0-16.322-7.308-16.322-16.322v-60.41c0-5.831 3.111-11.219 8.161-14.135l7.82-4.515c7.805-4.507 17.789-1.833 22.296 5.974 4.441 7.692 1.909 17.496-5.633 22.094v50.993c0 9.014-7.308 16.321-16.322 16.321z" fill="#e9e5f6"/></g></g></svg>