<svg id="Capa_1" enable-background="new 0 0 512 512" height="512" viewBox="0 0 512 512" width="512" xmlns="http://www.w3.org/2000/svg" xmlns:xlink="http://www.w3.org/1999/xlink"><linearGradient id="SVGID_1_" gradientUnits="userSpaceOnUse" x1="191.166" x2="216.263" y1="246.011" y2="202.542"><stop offset=".0319" stop-color="#a996eb"/><stop offset=".2213" stop-color="#bfb3eb"/><stop offset=".4108" stop-color="#d1c9eb"/><stop offset=".5321" stop-color="#d7d1eb"/><stop offset="1" stop-color="#e9e5f6"/></linearGradient><linearGradient id="SVGID_2_" gradientUnits="userSpaceOnUse" x1="269.658" x2="269.658" y1="459.959" y2="-179.595"><stop offset="0" stop-color="#dfdaef"/><stop offset="1" stop-color="#fff"/></linearGradient><linearGradient id="lg1"><stop offset="0" stop-color="#7662bd"/><stop offset="1" stop-color="#7662bd" stop-opacity="0"/></linearGradient><linearGradient id="SVGID_3_" gradientUnits="userSpaceOnUse" x1="250.801" x2="250.801" xlink:href="#lg1" y1="227.086" y2="401.295"/><linearGradient id="SVGID_4_" gradientUnits="userSpaceOnUse" x1="328.457" x2="328.457" xlink:href="#lg1" y1="195.693" y2="334.547"/><linearGradient id="SVGID_5_" gradientUnits="userSpaceOnUse" x1="345.782" x2="361.826" y1="166.062" y2="138.271"><stop offset="0" stop-color="#ab2c37"/><stop offset="1" stop-color="#ff4757"/></linearGradient><linearGradient id="SVGID_6_" gradientUnits="userSpaceOnUse" x1="262.601" x2="284.44" y1="255.964" y2="218.137"><stop offset="0" stop-color="#a996eb"/><stop offset=".4278" stop-color="#bbadeb"/><stop offset="1" stop-color="#d7d1eb"/></linearGradient><linearGradient id="lg2"><stop offset="0" stop-color="#a996eb"/><stop offset=".4278" stop-color="#bbadeb" stop-opacity=".572"/><stop offset="1" stop-color="#d7d1eb" stop-opacity="0"/></linearGradient><linearGradient id="SVGID_7_" gradientUnits="userSpaceOnUse" x1="218.998" x2="239.428" xlink:href="#lg2" y1="250.318" y2="214.931"/><linearGradient id="SVGID_8_" gradientUnits="userSpaceOnUse" x1="218.565" x2="232.725" xlink:href="#lg2" y1="273.401" y2="248.875"/><linearGradient id="SVGID_9_" gradientUnits="userSpaceOnUse" x1="218.079" x2="231.853" xlink:href="#lg2" y1="301.815" y2="277.958"/><linearGradient id="SVGID_10_" gradientUnits="userSpaceOnUse" x1="365.623" x2="365.623" y1="232.287" y2="151.043"><stop offset="0" stop-color="#ff4757"/><stop offset="1" stop-color="#ff7a85"/></linearGradient><g><g><path d="m405.612 17.419-27.432-15.971c-3.141-2.056-7.338-2-11.951.663l-247.773 143.052c-9.729 5.618-17.617 20.688-17.617 33.661v251.858c0 7.664 2.754 12.879 7.013 14.708l19.039 11.072 6.601 3.864 9.695.803v29.38c0 2.268 1.169 3.958 2.765 4.894l-.007.008 27.412 15.814z" fill="url(#SVGID_1_)"/><path d="m393.544 18.001-247.773 143.052c-9.729 5.617-17.617 20.688-17.617 33.661v251.858c0 12.973 7.887 18.935 17.617 13.318l24.732-14.279v60.666c0 5.857 7.763 7.922 10.673 2.839l59.59-104.072 152.777-88.206c9.729-5.617 17.617-20.688 17.617-33.66v-251.859c.001-12.973-7.887-18.935-17.616-13.318z" fill="url(#SVGID_2_)"/><path d="m298.87 204.397-75.432 43.551c-4.901 2.829-9.371 9.416-11.007 16.52-.025.11-.05.221-.075.333-2.489 11.173-.912 16.292-.912 16.292s-6.691 10.773-8.043 18.626c-1.831 10.64.201 16.436.201 16.436s-4.522 8.198-5.518 16.296 1.992 12.956 1.992 12.956-4.37 13.476-2.434 21.43 7.744 10.132 17.037 6.537c9.294-3.595 30.867-17.821 30.867-17.821s-2.821 28.402 1.659 40.64c.553 1.509 1.187 2.853 1.888 4.045l27.811-16.057c-.009-.823-.012-1.586.006-2.262.159-6.241 1.08-47.062 24.38-74.961 1.961-2.348 3.168-5.737 3.168-8.62v-89.716c-.002-4.116-2.503-6.007-5.588-4.225z" fill="url(#SVGID_3_)"/><path d="m339.57 180.899-22.224 12.831c-3.086 1.782-5.587 6.561-5.587 10.675v93.521c0 4.114 2.501 6.005 5.587 4.224l22.224-12.831c3.085-1.781 5.587-6.561 5.587-10.675v-93.521c-.001-4.115-2.502-6.005-5.587-4.224z" fill="url(#SVGID_4_)"/></g><path d="m343.334 109.362-.004.018c-.994-.64-2.306-.641-3.76.198l-22.224 12.831c-3.086 1.782-5.587 6.561-5.587 10.675v93.521c0 2.186.719 3.718 1.844 4.431l-.007.028 37.263 21.512 29.592-121.805z" fill="url(#SVGID_5_)"/><path d="m302.63 132.846-.015.025c-.992-.631-2.299-.63-3.746.206l-75.432 43.551c-4.901 2.829-9.371 9.416-11.007 16.52-.025.11-.05.221-.075.333-2.489 11.173-.912 16.292-.912 16.292s-6.691 10.773-8.043 18.626c-1.831 10.64.201 16.436.201 16.436s-4.522 8.198-5.518 16.296 1.992 12.956 1.992 12.956-4.37 13.476-2.434 21.43c.827 3.399 2.368 5.733 4.578 7.023l-.001.001.015.008c.077.045.154.091.232.134l36.224 20.857 6.827-6.026c.389 2.768.933 5.296 1.688 7.359 1.965 5.366 4.951 8.657 8.398 10.361v.001l36.88 21.267 47.337-202.188z" fill="url(#SVGID_6_)"/><path d="m248.608 231.225-37.165-21.452s-6.691 10.773-8.043 18.626c-1.831 10.64.201 16.436.201 16.436l37.165 21.452z" fill="url(#SVGID_7_)"/><path d="m240.767 266.286-37.165-21.452s-4.522 8.198-5.518 16.296 1.992 12.956 1.992 12.956l37.165 21.452z" fill="url(#SVGID_8_)"/><path d="m237.24 295.538-37.165-21.452s-4.37 13.476-2.434 21.43c.827 3.398 2.367 5.733 4.578 7.023v.001l.015.008c.077.045.153.091.232.134l36.224 20.857 1.756-1.55z" fill="url(#SVGID_9_)"/><path d="m336.035 154.529-75.432 43.551c-4.901 2.829-9.371 9.416-11.007 16.52-.025.11-.051.221-.075.333-2.489 11.173-.912 16.292-.912 16.292s-6.691 10.773-8.043 18.626c-1.831 10.64.201 16.436.201 16.436s-4.522 8.198-5.518 16.296 1.991 12.956 1.991 12.956-4.37 13.476-2.434 21.43 7.744 10.132 17.037 6.537 30.867-17.821 30.867-17.821-2.821 28.402 1.659 40.64c4.481 12.238 14.272 13.693 22.735 10.107s6.804-17.868 6.97-24.38c.159-6.241 1.08-47.062 24.38-74.961 1.961-2.348 3.168-5.737 3.168-8.62v-89.716c0-4.117-2.501-6.008-5.587-4.226z" fill="#fff"/><path d="m376.735 131.031-22.224 12.831c-3.086 1.781-5.587 6.561-5.587 10.675v93.521c0 4.114 2.501 6.005 5.587 4.224l22.224-12.831c3.085-1.781 5.587-6.561 5.587-10.675v-93.521c0-4.115-2.502-6.006-5.587-4.224z" fill="url(#SVGID_10_)"/></g></svg>