<svg id="Capa_1" enable-background="new 0 0 512 512" height="512" viewBox="0 0 512 512" width="512" xmlns="http://www.w3.org/2000/svg" xmlns:xlink="http://www.w3.org/1999/xlink"><linearGradient id="lg1"><stop offset="0" stop-color="#43386b"/><stop offset="1" stop-color="#594a8e"/></linearGradient><linearGradient id="SVGID_1_" gradientUnits="userSpaceOnUse" x1="338.714" x2="321.61" xlink:href="#lg1" y1="435.226" y2="408.792"/><linearGradient id="lg2"><stop offset="0" stop-color="#d7d1eb"/><stop offset="1" stop-color="#f2effa"/></linearGradient><linearGradient id="SVGID_00000037669508117579114210000000164706012728824966_" gradientUnits="userSpaceOnUse" x1="276.819" x2="264.639" xlink:href="#lg2" y1="393.46" y2="430.261"/><linearGradient id="lg3"><stop offset="0" stop-color="#c5baeb"/><stop offset="1" stop-color="#f2effa"/></linearGradient><linearGradient id="SVGID_00000034048694901133790350000003645195173691402393_" gradientUnits="userSpaceOnUse" x1="240.653" x2="234.042" xlink:href="#lg3" y1="398.588" y2="387.137"/><linearGradient id="SVGID_00000052822352926283676120000016253171335506715837_" gradientUnits="userSpaceOnUse" x1="231.299" x2="231.299" xlink:href="#lg2" y1="411.979" y2="377.343"/><linearGradient id="lg4"><stop offset="0" stop-color="#7662bd"/><stop offset="1" stop-color="#c5baeb"/></linearGradient><linearGradient id="SVGID_00000147222477798089887200000011670846895036520595_" gradientUnits="userSpaceOnUse" x1="229.264" x2="233.797" xlink:href="#lg4" y1="390.565" y2="398.416"/><linearGradient id="SVGID_00000181065161096003235300000010133976415222407354_" gradientUnits="userSpaceOnUse" x1="264.413" x2="257.802" xlink:href="#lg3" y1="412.19" y2="400.739"/><linearGradient id="SVGID_00000101092628387382914940000010176042124079914636_" gradientUnits="userSpaceOnUse" x1="255.059" x2="255.059" xlink:href="#lg2" y1="425.581" y2="390.945"/><linearGradient id="SVGID_00000013185394069603492830000010379487229420358278_" gradientUnits="userSpaceOnUse" x1="253.024" x2="257.557" xlink:href="#lg4" y1="404.167" y2="412.018"/><linearGradient id="SVGID_00000067235315911247645890000012742833811900552889_" gradientUnits="userSpaceOnUse" x1="288.173" x2="281.562" xlink:href="#lg3" y1="425.792" y2="414.341"/><linearGradient id="SVGID_00000057855451673277311210000013610262449889612419_" gradientUnits="userSpaceOnUse" x1="278.819" x2="278.819" xlink:href="#lg2" y1="439.184" y2="404.548"/><linearGradient id="SVGID_00000011008325524981606040000002884607557855877541_" gradientUnits="userSpaceOnUse" x1="276.784" x2="281.317" xlink:href="#lg4" y1="417.77" y2="425.62"/><linearGradient id="SVGID_00000045580808204653832390000015355130857846888895_" gradientUnits="userSpaceOnUse" x1="311.933" x2="305.322" xlink:href="#lg3" y1="439.394" y2="427.944"/><linearGradient id="SVGID_00000144339437903161109160000013573665383690919811_" gradientUnits="userSpaceOnUse" x1="302.579" x2="302.579" xlink:href="#lg2" y1="452.786" y2="418.15"/><linearGradient id="SVGID_00000103977234180978427540000017691885831365075855_" gradientUnits="userSpaceOnUse" x1="300.544" x2="305.076" xlink:href="#lg4" y1="431.372" y2="439.222"/><linearGradient id="lg5"><stop offset="0" stop-color="#a996eb"/><stop offset="1" stop-color="#d7d1eb"/></linearGradient><linearGradient id="SVGID_00000033347377387774052270000006517066948714422436_" gradientUnits="userSpaceOnUse" x1="343.125" x2="323.322" xlink:href="#lg5" y1="377.725" y2="341.127"/><linearGradient id="SVGID_00000134969872753307905420000014376386103596274619_" gradientUnits="userSpaceOnUse" x1="330.733" x2="317.246" xlink:href="#lg5" y1="357.935" y2="330.094"/><linearGradient id="SVGID_00000155847684139037293590000002126460558472456883_" gradientUnits="userSpaceOnUse" x1="316.907" x2="322.126" xlink:href="#lg5" y1="355.044" y2="389.024"/><linearGradient id="SVGID_00000021082205459418347520000002106557950431919008_" gradientUnits="userSpaceOnUse" x1="320.612" x2="320.612" xlink:href="#lg2" y1="384.336" y2="322.174"/><linearGradient id="SVGID_00000033327536537415691650000008709917509928047489_" gradientUnits="userSpaceOnUse" x1="322.559" x2="322.559" xlink:href="#lg5" y1="394.481" y2="383.599"/><linearGradient id="SVGID_00000115516801728437087460000010760678669564822157_" gradientUnits="userSpaceOnUse" x1="339.648" x2="339.648" xlink:href="#lg5" y1="381.562" y2="370.68"/><linearGradient id="SVGID_00000092438136521691377290000005255920687210244995_" gradientUnits="userSpaceOnUse" x1="258.802" x2="270.98" y1="402.492" y2="402.492"><stop offset="0" stop-color="#ffa627"/><stop offset="1" stop-color="#ffe026"/></linearGradient><linearGradient id="SVGID_00000136376384656873544180000000868628438399098024_" gradientUnits="userSpaceOnUse" x1="268.307" x2="364.961" y1="410.644" y2="410.644"><stop offset="0" stop-color="#e37a34"/><stop offset="1" stop-color="#ffa538"/></linearGradient><linearGradient id="SVGID_00000015320523105400496090000006116644329903613321_" gradientUnits="userSpaceOnUse" x1="248.075" x2="230.97" xlink:href="#lg1" y1="487.777" y2="461.343"/><linearGradient id="SVGID_00000038379663165391359570000017367757244525608591_" gradientUnits="userSpaceOnUse" x1="186.18" x2="173.999" xlink:href="#lg2" y1="446.011" y2="482.812"/><linearGradient id="SVGID_00000160169514752816922440000004035869993482888332_" gradientUnits="userSpaceOnUse" x1="150.014" x2="143.402" xlink:href="#lg3" y1="451.139" y2="439.688"/><linearGradient id="SVGID_00000091718990015614206000000016304491122926293920_" gradientUnits="userSpaceOnUse" x1="140.66" x2="140.66" xlink:href="#lg2" y1="464.53" y2="429.894"/><linearGradient id="SVGID_00000025422183070448535650000013849874936866061718_" gradientUnits="userSpaceOnUse" x1="138.625" x2="143.157" xlink:href="#lg4" y1="443.116" y2="450.967"/><linearGradient id="SVGID_00000066495023314905211150000011573642531755871114_" gradientUnits="userSpaceOnUse" x1="173.773" x2="167.162" xlink:href="#lg3" y1="464.741" y2="453.29"/><linearGradient id="SVGID_00000163072118973628732420000007504290675628090797_" gradientUnits="userSpaceOnUse" x1="164.42" x2="164.42" xlink:href="#lg2" y1="478.133" y2="443.497"/><linearGradient id="SVGID_00000166656367400989568370000001885296694768186036_" gradientUnits="userSpaceOnUse" x1="162.385" x2="166.917" xlink:href="#lg4" y1="456.719" y2="464.569"/><linearGradient id="SVGID_00000013173241990721931200000001943409740260592780_" gradientUnits="userSpaceOnUse" x1="197.533" x2="190.922" xlink:href="#lg3" y1="478.343" y2="466.892"/><linearGradient id="SVGID_00000158011036682058446140000000272945835225760651_" gradientUnits="userSpaceOnUse" x1="188.179" x2="188.179" xlink:href="#lg2" y1="491.735" y2="457.099"/><linearGradient id="SVGID_00000132771360760221147540000008603533795325687948_" gradientUnits="userSpaceOnUse" x1="186.145" x2="190.677" xlink:href="#lg4" y1="470.321" y2="478.171"/><linearGradient id="SVGID_00000165206653175495826540000015873699502662395824_" gradientUnits="userSpaceOnUse" x1="221.293" x2="214.682" xlink:href="#lg3" y1="491.946" y2="480.495"/><linearGradient id="SVGID_00000023996168789568898160000009794577956660049545_" gradientUnits="userSpaceOnUse" x1="211.939" x2="211.939" xlink:href="#lg2" y1="505.337" y2="470.701"/><linearGradient id="SVGID_00000172405003230914807930000009310897139798202028_" gradientUnits="userSpaceOnUse" x1="209.905" x2="214.437" xlink:href="#lg4" y1="483.923" y2="491.774"/><linearGradient id="lg6"><stop offset="0" stop-color="#ff7b2a"/><stop offset="1" stop-color="#ffe026"/></linearGradient><linearGradient id="SVGID_00000046322191817298309610000012470867428099282082_" gradientUnits="userSpaceOnUse" x1="221.159" x2="250.671" xlink:href="#lg6" y1="338.127" y2="338.127"/><linearGradient id="SVGID_00000150801223467935149140000008727300433645042318_" gradientUnits="userSpaceOnUse" x1="149.571" x2="327.348" xlink:href="#lg6" y1="254.669" y2="254.669"/><linearGradient id="SVGID_00000098932726515978076440000005496270996789054093_" gradientUnits="userSpaceOnUse" x1="154.289" x2="196.066" xlink:href="#lg1" y1="339.124" y2="339.124"/><linearGradient id="SVGID_00000176035436698650663860000006805370150615916189_" gradientUnits="userSpaceOnUse" x1="217.877" x2="198.074" xlink:href="#lg5" y1="450.156" y2="413.559"/><linearGradient id="SVGID_00000034778210000079964340000007648556271777185458_" gradientUnits="userSpaceOnUse" x1="208.969" x2="176.594" xlink:href="#lg5" y1="438.995" y2="372.165"/><linearGradient id="SVGID_00000075133436032174663360000006314747010988313533_" gradientUnits="userSpaceOnUse" x1="191.659" x2="196.878" xlink:href="#lg5" y1="427.476" y2="461.456"/><linearGradient id="SVGID_00000065041856401543578980000015464672181763137452_" gradientUnits="userSpaceOnUse" x1="190.542" x2="159.78" xlink:href="#lg5" y1="375.049" y2="321.767"/><linearGradient id="SVGID_00000128457029028692583030000014497971133178338180_" gradientUnits="userSpaceOnUse" x1="183.178" x2="183.178" xlink:href="#lg2" y1="527.616" y2="332.638"/><linearGradient id="SVGID_00000058554386772370938010000009459359945111909761_" gradientUnits="userSpaceOnUse" x1="197.311" x2="197.311" xlink:href="#lg5" y1="466.913" y2="456.031"/><linearGradient id="SVGID_00000055673341317925459260000010425826392984054679_" gradientUnits="userSpaceOnUse" x1="214.4" x2="214.4" xlink:href="#lg5" y1="453.993" y2="443.112"/><linearGradient id="SVGID_00000069360401050754448370000012912937814363316358_" gradientUnits="userSpaceOnUse" x1="211.494" x2="246.599" xlink:href="#lg5" y1="221.204" y2="221.204"/><linearGradient id="SVGID_00000031924230921116725560000002035534642256446385_" gradientTransform="matrix(-1 0 0 1 764.059 0)" gradientUnits="userSpaceOnUse" x1="557.166" x2="532.401" xlink:href="#lg2" y1="230.06" y2="191.787"/><linearGradient id="SVGID_00000026849749549211867190000012689037064357984688_" gradientUnits="userSpaceOnUse" x1="263.832" x2="266.924" xlink:href="#lg6" y1="9.585" y2="4.229"/><g><g><path d="m384.944 407.832c0-13.205-8.057-28.6-17.961-34.318l-69.127-39.911c-4.54-2.621-8.689-2.755-11.855-.865l-.005-.005-62.216 35.9 92.685 89.64 62.423-36.021-.004-.004c3.713-2.245 6.06-7.293 6.06-14.416z" fill="url(#SVGID_1_)"/><g fill="#26203d"><path d="m332.299 353.49-3.635-2.099-70.564 40.739 1.818 3.149z"/><path d="m246.052 380.781 1.817 3.149 68.577-39.593-3.635-2.099z"/><path d="m384.826 410.493-66.481 38.383 1.818 3.148 63.749-36.805c.445-1.418.758-2.995.914-4.726z"/><path d="m348.152 362.642-3.635-2.099-74.367 42.936 1.817 3.149z"/><path d="m382.248 393.676-75.952 43.85 1.818 3.148 75.277-43.461c-.333-1.189-.715-2.37-1.143-3.537z"/><path d="m235.821 372.581 64.773-37.397-2.738-1.581c-.311-.18-.62-.345-.927-.501l-62.926 36.33z"/><path d="m376.612 382.822c-.713-1.018-1.459-1.989-2.236-2.907l-80.129 46.263 1.818 3.148z"/><path d="m364.005 371.795-3.635-2.099-78.172 45.132 1.818 3.149z"/></g><path d="m304.784 409.403-69.127-39.911c-9.904-5.718-17.961.373-17.961 13.578s8.057 28.6 17.961 34.319l69.127 39.911c9.904 5.718 17.961-.373 17.961-13.578s-8.057-28.601-17.961-34.319z" fill="#26203d"/><path d="m304.784 413.601-69.127-39.911c-8.181-4.723-14.813.29-14.813 11.198 0 10.908 6.632 23.58 14.813 28.303l69.127 39.911c8.181 4.723 14.813-.29 14.813-11.198 0-10.908-6.632-23.58-14.813-28.303z" fill="url(#SVGID_00000037669508117579114210000000164706012728824966_)"/><g><path d="m224.904 380.853 4.055-2.346v.001c1.663-.881 3.798-.755 6.129.59 5.302 3.061 9.599 11.272 9.599 18.341 0 3.886-1.301 6.614-3.352 7.778l.001.003-3.691 2.144z" fill="url(#SVGID_00000034048694901133790350000003645195173691402393_)"/><path d="m221.7 388.547c0-7.069 4.298-10.318 9.599-7.257s9.599 11.272 9.599 18.341-4.298 10.318-9.599 7.257c-5.302-3.06-9.599-11.272-9.599-18.341z" fill="url(#SVGID_00000052822352926283676120000016253171335506715837_)"/><path d="m225.322 390.639c0-4.401 2.676-6.424 5.977-4.518s5.977 7.018 5.977 11.419-2.676 6.424-5.977 4.518c-3.301-1.905-5.977-7.018-5.977-11.419z" fill="url(#SVGID_00000147222477798089887200000011670846895036520595_)"/></g><g><path d="m248.664 394.456 4.055-2.346v.001c1.663-.881 3.798-.756 6.128.59 5.302 3.061 9.599 11.272 9.599 18.341 0 3.886-1.301 6.614-3.352 7.778l.001.003-3.691 2.144z" fill="url(#SVGID_00000181065161096003235300000010133976415222407354_)"/><path d="m245.46 402.15c0-7.069 4.298-10.318 9.599-7.257s9.599 11.272 9.599 18.341-4.298 10.318-9.599 7.257c-5.302-3.061-9.599-11.273-9.599-18.341z" fill="url(#SVGID_00000101092628387382914940000010176042124079914636_)"/><path d="m249.082 404.241c0-4.401 2.676-6.424 5.977-4.518s5.977 7.018 5.977 11.419-2.676 6.424-5.977 4.518c-3.301-1.905-5.977-7.018-5.977-11.419z" fill="url(#SVGID_00000013185394069603492830000010379487229420358278_)"/></g><g><path d="m272.424 408.058 4.055-2.346v.001c1.663-.881 3.798-.755 6.129.59 5.301 3.061 9.599 11.273 9.599 18.341 0 3.886-1.301 6.614-3.351 7.778l.001.003-3.691 2.144z" fill="url(#SVGID_00000067235315911247645890000012742833811900552889_)"/><path d="m269.22 415.752c0-7.069 4.298-10.318 9.599-7.257 5.302 3.061 9.599 11.272 9.599 18.341s-4.298 10.318-9.599 7.257c-5.302-3.061-9.599-11.272-9.599-18.341z" fill="url(#SVGID_00000057855451673277311210000013610262449889612419_)"/><path d="m272.842 417.843c0-4.401 2.676-6.424 5.977-4.518s5.977 7.018 5.977 11.419-2.676 6.424-5.977 4.518c-3.301-1.905-5.977-7.017-5.977-11.419z" fill="url(#SVGID_00000011008325524981606040000002884607557855877541_)"/></g><g><path d="m296.184 421.66 4.055-2.346v.001c1.663-.881 3.798-.755 6.128.59 5.302 3.061 9.599 11.272 9.599 18.341 0 3.886-1.301 6.614-3.352 7.778l.001.003-3.691 2.143z" fill="url(#SVGID_00000045580808204653832390000015355130857846888895_)"/><path d="m292.979 429.354c0-7.069 4.298-10.318 9.599-7.257 5.302 3.061 9.599 11.272 9.599 18.341s-4.298 10.318-9.599 7.257c-5.301-3.06-9.599-11.272-9.599-18.341z" fill="url(#SVGID_00000144339437903161109160000013573665383690919811_)"/><path d="m296.602 431.446c0-4.401 2.676-6.424 5.977-4.518s5.977 7.018 5.977 11.419-2.676 6.424-5.977 4.518-5.977-7.018-5.977-11.419z" fill="url(#SVGID_00000103977234180978427540000017691885831365075855_)"/></g></g><g><path d="m338.652 358.398c-1.928-3.684-4.213-6.795-6.639-9.251l-7.851 4.604 14.864 24.968 7.851-4.604z" fill="url(#SVGID_00000033347377387774052270000006517066948714422436_)"/><path d="m325.438 337.562-8.06 4.235 6.784 11.954 7.851-4.604z" fill="url(#SVGID_00000134969872753307905420000014376386103596274619_)"/><path d="m329.788 387.034-7.394-14.127c-1.585-3.028-2.296-6.27-2.145-8.946l-.001-.001s.001-.007.001-.007c.008-.142-5.153-5.528-5.845-4.708-9.667 16.35 7.532 32.393 7.532 32.393z" fill="url(#SVGID_00000155847684139037293590000002126460558472456883_)"/><path d="m330.801 363.002c-1.928-3.684-4.213-6.796-6.639-9.251l-6.785-11.953-15.181 20.449c-.008 5.727 1.627 12.405 4.906 18.671l8.226 15.717 6.608-4.996-7.394-14.127c-2.894-5.53-2.894-11.786 0-13.974s7.586.521 10.481 6.051l7.394 14.127 6.608-4.996z" fill="url(#SVGID_00000021082205459418347520000002106557950431919008_)"/><path d="m315.329 396.634 7.851-4.604 6.608-4.996-7.851 4.604z" fill="url(#SVGID_00000033327536537415691650000008709917509928047489_)"/><path d="m332.418 383.715 7.851-4.604 6.609-4.996-7.851 4.604z" fill="url(#SVGID_00000115516801728437087460000010760678669564822157_)"/></g><path d="m229.26 376.136 44.247 52.712 26.381-15.662c1.604-1.03 2.733-2.81 2.733-4.988v-19.738z" fill="url(#SVGID_00000092438136521691377290000005255920687210244995_)"/><path d="m276.483 403.961v19.737c0 4.575-4.953 7.434-8.915 5.147l-64.446-37.208z" fill="url(#SVGID_00000136376384656873544180000000868628438399098024_)"/><g><path d="m294.304 460.384c0-13.205-8.057-28.6-17.961-34.318l-69.127-39.91c-4.54-2.621-8.689-2.755-11.855-.865l-.005-.005-62.216 35.9 92.685 89.64 62.423-36.021-.004-.004c3.713-2.247 6.06-7.294 6.06-14.417z" fill="url(#SVGID_00000015320523105400496090000006116644329903613321_)"/><g fill="#26203d"><path d="m241.66 406.041-3.636-2.099-70.563 40.74 1.818 3.148z"/><path d="m155.412 433.333 1.818 3.148 68.577-39.593-3.636-2.099z"/><path d="m294.186 463.044-66.481 38.383 1.818 3.148 63.749-36.805c.446-1.417.759-2.994.914-4.726z"/><path d="m257.513 415.194-3.636-2.099-74.367 42.936 1.818 3.148z"/><path d="m291.608 446.227-75.952 43.85 1.818 3.148 75.277-43.461c-.333-1.188-.714-2.37-1.143-3.537z"/><path d="m145.181 425.132 64.773-37.397-2.738-1.581c-.311-.18-.62-.345-.927-.501l-62.926 36.33z"/><path d="m285.973 435.373c-.713-1.018-1.459-1.989-2.236-2.907l-80.129 46.263 1.818 3.148z"/><path d="m273.366 424.346-3.636-2.099-78.171 45.133 1.818 3.148z"/></g><path d="m214.145 461.955-69.127-39.911c-9.904-5.718-17.961.373-17.961 13.578s8.057 28.6 17.961 34.318l69.127 39.911c9.904 5.718 17.961-.373 17.961-13.578s-8.057-28.6-17.961-34.318z" fill="#26203d"/><path d="m214.145 466.152-69.127-39.911c-8.181-4.723-14.813.29-14.813 11.198 0 10.908 6.632 23.58 14.813 28.303l69.127 39.911c8.181 4.723 14.813-.29 14.813-11.198 0-10.908-6.632-23.579-14.813-28.303z" fill="url(#SVGID_00000038379663165391359570000017367757244525608591_)"/><g><path d="m134.265 433.405 4.055-2.346v.001c1.663-.881 3.798-.755 6.128.59 5.302 3.061 9.599 11.272 9.599 18.341 0 3.886-1.301 6.614-3.352 7.778l.001.003-3.691 2.144z" fill="url(#SVGID_00000160169514752816922440000004035869993482888332_)"/><path d="m131.06 441.099c0-7.069 4.298-10.318 9.599-7.257 5.302 3.061 9.599 11.272 9.599 18.341s-4.298 10.318-9.599 7.257-9.599-11.273-9.599-18.341z" fill="url(#SVGID_00000091718990015614206000000016304491122926293920_)"/><path d="m134.683 443.19c0-4.401 2.676-6.424 5.977-4.518s5.977 7.018 5.977 11.419-2.676 6.424-5.977 4.518c-3.301-1.905-5.977-7.018-5.977-11.419z" fill="url(#SVGID_00000025422183070448535650000013849874936866061718_)"/></g><g><path d="m158.025 447.007 4.055-2.346v.001c1.663-.881 3.798-.755 6.129.59 5.301 3.061 9.599 11.272 9.599 18.341 0 3.886-1.301 6.614-3.352 7.778l.001.003-3.691 2.143z" fill="url(#SVGID_00000066495023314905211150000011573642531755871114_)"/><path d="m154.82 454.701c0-7.069 4.298-10.318 9.599-7.257 5.302 3.061 9.599 11.272 9.599 18.341s-4.298 10.318-9.599 7.257-9.599-11.272-9.599-18.341z" fill="url(#SVGID_00000163072118973628732420000007504290675628090797_)"/><path d="m158.443 456.792c0-4.401 2.676-6.424 5.977-4.518s5.977 7.018 5.977 11.419-2.676 6.424-5.977 4.518-5.977-7.018-5.977-11.419z" fill="url(#SVGID_00000166656367400989568370000001885296694768186036_)"/></g><g><path d="m181.785 460.609 4.055-2.346v.001c1.663-.881 3.798-.756 6.128.59 5.302 3.061 9.599 11.272 9.599 18.341 0 3.886-1.301 6.614-3.352 7.778l.001.003-3.691 2.143z" fill="url(#SVGID_00000013173241990721931200000001943409740260592780_)"/><path d="m178.58 468.303c0-7.069 4.298-10.318 9.599-7.257 5.302 3.061 9.599 11.272 9.599 18.341s-4.298 10.318-9.599 7.257-9.599-11.272-9.599-18.341z" fill="url(#SVGID_00000158011036682058446140000000272945835225760651_)"/><path d="m182.203 470.395c0-4.401 2.676-6.424 5.977-4.518s5.977 7.018 5.977 11.419-2.676 6.424-5.977 4.518-5.977-7.018-5.977-11.419z" fill="url(#SVGID_00000132771360760221147540000008603533795325687948_)"/></g><g><path d="m205.544 474.211 4.055-2.346v.001c1.663-.881 3.798-.756 6.128.59 5.301 3.061 9.599 11.272 9.599 18.341 0 3.886-1.301 6.614-3.351 7.778l.001.003-3.691 2.144z" fill="url(#SVGID_00000165206653175495826540000015873699502662395824_)"/><path d="m202.34 481.905c0-7.069 4.298-10.318 9.599-7.257s9.599 11.272 9.599 18.341-4.298 10.318-9.599 7.257c-5.301-3.06-9.599-11.272-9.599-18.341z" fill="url(#SVGID_00000023996168789568898160000009794577956660049545_)"/><path d="m205.963 483.997c0-4.401 2.676-6.424 5.977-4.518s5.977 7.018 5.977 11.419-2.676 6.424-5.977 4.518c-3.301-1.905-5.977-7.018-5.977-11.419z" fill="url(#SVGID_00000172405003230914807930000009310897139798202028_)"/></g></g><path d="m149.571 256.974.014 115.957c.076 3.455 1.813 6.879 5.233 8.854l66.278 37.728c9.024 5.21 20.141 5.21 29.165 0l71.838-42.606c3.454-1.994 5.196-5.465 5.24-8.955l.008-.002v-115.117z" fill="url(#SVGID_00000046322191817298309610000012470867428099282082_)"/><path d="m322.1 243.14-66.278-37.728c-9.024-5.21-20.141-5.21-29.165 0l-71.838 42.606c-6.997 4.04-6.997 14.139 0 18.179l66.278 37.728c9.024 5.21 20.141 5.21 29.165 0l71.838-42.605c6.998-4.04 6.998-14.14 0-18.18z" fill="url(#SVGID_00000150801223467935149140000008727300433645042318_)"/><g><g><path d="m172.196 303.749c3.696-2.278 8.561-2.175 13.912.915 11.536 6.661 20.889 24.53 20.889 39.911 0 8.398-2.8 14.293-7.209 16.854l-10.815 6.573-27.485-57.808z" fill="#26203d"/><path d="m154.289 327.064c0 15.382 9.352 33.251 20.889 39.911 11.536 6.66 20.888-.41 20.888-15.791 0-15.382-9.352-33.251-20.888-39.911-11.537-6.661-20.889.409-20.889 15.791z" fill="url(#SVGID_00000098932726515978076440000005496270996789054093_)"/></g><path d="m213.404 430.83c-1.928-3.683-4.213-6.795-6.639-9.251l-7.851 4.604 14.864 24.968 7.851-4.604z" fill="url(#SVGID_00000176035436698650663860000006805370150615916189_)"/><path d="m198.915 426.182 7.851-4.604-16.284-28.688-7.851 4.604z" fill="url(#SVGID_00000034778210000079964340000007648556271777185458_)"/><path d="m204.541 459.466-7.394-14.127c-1.585-3.028-2.296-6.27-2.145-8.946l-.001-.001s.001-.007.001-.007c.008-.142-5.153-5.528-5.845-4.707-9.667 16.35 7.533 32.393 7.533 32.393z" fill="url(#SVGID_00000075133436032174663360000006314747010988313533_)"/><path d="m182.631 397.494 7.851-4.604v-44.63c.001-.099.012-.189.012-.289 0-11.065-6.728-23.92-15.027-28.712-3.849-2.222-7.349-2.297-10.008-.658l-7.704 4.636z" fill="url(#SVGID_00000065041856401543578980000015464672181763137452_)"/><path d="m205.553 435.434c-1.928-3.684-4.213-6.795-6.639-9.252l-16.284-28.688v-44.768c0-11.066-6.728-23.92-15.027-28.712s-15.027.294-15.027 11.36v38.991c0 7.276 1.679 14.454 4.906 20.975l19.466 39.337c-.008 5.727 1.627 12.405 4.907 18.671l8.226 15.717 6.608-4.996-7.394-14.127c-2.894-5.53-2.894-11.786 0-13.974s7.587.521 10.481 6.051l7.394 14.127 6.608-4.996z" fill="url(#SVGID_00000128457029028692583030000014497971133178338180_)"/><path d="m190.081 469.066 7.851-4.604 6.609-4.996-7.851 4.604z" fill="url(#SVGID_00000058554386772370938010000009459359945111909761_)"/><path d="m207.171 456.146 7.851-4.604 6.608-4.995-7.851 4.604z" fill="url(#SVGID_00000055673341317925459260000010425826392984054679_)"/></g><g><path d="m260.497 171.956-46.443 4.162v83.116h.001c.106 2.98 1.969 5.812 5.662 7.944 8.397 4.848 23.065 4.24 32.762-1.358 5.34-3.083 8.052-7.036 8.014-10.776l.003-.001v-83.087z" fill="url(#SVGID_00000069360401050754448370000012912937814363316358_)"/></g><g><path d="m139.96 190.398c0-19.119 11.666-41.41 26.005-49.688l100.087-57.785c6.574-3.795 12.581-3.988 17.165-1.252l.007-.007 90.08 51.978-134.196 129.787-90.38-52.153.006-.006c-5.376-3.252-8.774-10.561-8.774-20.874z" fill="url(#SVGID_00000031924230921116725560000002035534642256446385_)"/><path d="m256.02 192.673 100.087-57.785c14.339-8.279 26.005.54 26.005 19.66s-11.666 41.41-26.005 49.688l-100.087 57.785c-14.339 8.279-26.005-.54-26.005-19.66-.001-19.119 11.665-41.409 26.005-49.688z" fill="#26203d"/></g><g><path d="m264.657 137.027c-1.261 0-2.282-1.022-2.282-2.282v-124.116c0-1.26 1.021-2.282 2.282-2.282s2.282 1.022 2.282 2.282v124.116c0 1.26-1.02 2.282-2.282 2.282z" fill="#26203d"/></g><circle cx="264.658" cy="8.153" fill="url(#SVGID_00000026849749549211867190000012689037064357984688_)" r="8.153"/><g><path d="m302.035 200.871c0 13.881-8.439 30.006-18.85 36.017-10.411 6.01-18.85-.37-18.85-14.25 0-13.881 8.439-30.006 18.85-36.017s18.85.37 18.85 14.25z" fill="#fff"/><path d="m291.085 207.193c0 5.818-3.537 12.576-7.9 15.095s-7.9-.155-7.9-5.972c0-5.818 3.537-12.576 7.9-15.095s7.9.155 7.9 5.972z" fill="#26203d"/><path d="m358.578 167.222c0 13.881-8.44 30.006-18.85 36.017-10.411 6.01-18.85-.369-18.85-14.25s8.439-30.006 18.85-36.017c10.41-6.011 18.85.37 18.85 14.25z" fill="#fff"/><path d="m347.628 173.544c0 5.817-3.537 12.576-7.9 15.095s-7.9-.155-7.9-5.972c0-5.818 3.537-12.576 7.9-15.095s7.9.155 7.9 5.972z" fill="#26203d"/></g><path d="m256.632 327.291 59.814-34.534v24.713l-59.814 34.534z" fill="#26203d"/></g></svg>