<svg id="Capa_1" enable-background="new 0 0 512 512" height="512" viewBox="0 0 512 512" width="512" xmlns="http://www.w3.org/2000/svg" xmlns:xlink="http://www.w3.org/1999/xlink"><linearGradient id="lg1"><stop offset="0" stop-color="#ffa627"/><stop offset=".0916" stop-color="#ffae27"/><stop offset=".4474" stop-color="#ffca26"/><stop offset=".7618" stop-color="#ffda26"/><stop offset="1" stop-color="#ffe026"/></linearGradient><linearGradient id="SVGID_1_" gradientUnits="userSpaceOnUse" x1="268.537" x2="347.452" xlink:href="#lg1" y1="148.194" y2="11.51"/><linearGradient id="SVGID_2_" gradientUnits="userSpaceOnUse" x1="307.803" x2="427.021" xlink:href="#lg1" y1="114.463" y2="69.226"/><linearGradient id="SVGID_3_" gradientUnits="userSpaceOnUse" x1="118.006" x2="145.854" y1="321.824" y2="273.589"><stop offset="0" stop-color="#ffa627"/><stop offset=".3618" stop-color="#ffc127"/><stop offset=".7526" stop-color="#ffd826"/><stop offset="1" stop-color="#ffe026"/></linearGradient><linearGradient id="SVGID_4_" gradientUnits="userSpaceOnUse" x1="147.67" x2="166.99" xlink:href="#lg1" y1="505.562" y2="317.074"/><linearGradient id="SVGID_5_" gradientTransform="matrix(.866 -.5 0 1.155 27.899 71.93)" gradientUnits="userSpaceOnUse" x1="301.251" x2="301.251" xlink:href="#lg1" y1="505.305" y2="94.002"/><linearGradient id="SVGID_6_" gradientUnits="userSpaceOnUse" x1="482.965" x2="195.519" y1="451.438" y2="214.884"><stop offset="0" stop-color="#fff"/><stop offset="1" stop-color="#fff" stop-opacity="0"/></linearGradient><g><path d="m447.567 97.168-65.868-38.035-.041.032c-1.733-.907-3.823-1.151-6.262-.449l-61.345 17.639-15.665-37.595-65.565-37.867-.015.049c-6.686-3.781-17.534 4.141-22.364 17.968l-47.432 135.774-91.97 79.752c-11.068 9.598-15.436 30.046-7.896 36.961l62.655 57.467-9.408 130.293c-.524 7.255 1.66 12.073 5.167 14.002l-.005.045 65.538 37.85z" fill="url(#SVGID_1_)"/><path d="m381.658 59.165c-1.733-.907-3.823-1.151-6.262-.449l-61.345 17.639 34.94 46.672 98.577-25.86-65.868-38.035z" fill="url(#SVGID_2_)"/><path d="m63.143 271.397 62.655 57.467 65.565 37.865 37.211-174.181-65.565-37.865-91.97 79.752c-11.068 9.599-15.436 30.047-7.896 36.962z" fill="url(#SVGID_3_)"/><path d="m125.798 328.865-9.408 130.293c-.524 7.255 1.66 12.073 5.167 14.002l-.005.045 65.538 37.85 4.273-144.326z" fill="url(#SVGID_4_)"/><path d="m301.558 42.023 47.432 81.004 91.97-26.446c11.068-3.183 15.436 12.221 7.896 27.844l-62.656 129.816 9.409 119.429c1.132 14.373-10.304 32.054-20.672 31.961l-86.155-.773-86.155 100.257c-10.368 12.066-21.805 7.59-20.672-8.091l9.409-130.294-62.656-57.467c-7.54-6.916-3.172-27.363 7.896-36.961l91.97-79.752 47.432-135.774c5.708-16.34 19.844-24.501 25.552-14.753z" fill="url(#SVGID_5_)"/><path d="m191.363 366.73-7.202 99.731 173.889-346.039-9.059 2.605-47.432-81.004c-5.708-9.748-19.844-1.587-25.552 14.753l-47.432 135.773-91.971 79.753c-11.068 9.598-15.436 30.045-7.896 36.961z" fill="url(#SVGID_6_)"/></g></svg>