<svg id="Capa_1" enable-background="new 0 0 512 512" height="512" viewBox="0 0 512 512" width="512" xmlns="http://www.w3.org/2000/svg" xmlns:xlink="http://www.w3.org/1999/xlink"><linearGradient id="lg1"><stop offset="0" stop-color="#236568"/><stop offset="1" stop-color="#06daae"/></linearGradient><linearGradient id="SVGID_1_" gradientUnits="userSpaceOnUse" x1="484.953" x2="474.029" xlink:href="#lg1" y1="221.358" y2="240.278"/><linearGradient id="SVGID_00000070114306105867623140000010416901384804584634_" gradientUnits="userSpaceOnUse" x1="174.043" x2="189.468" y1="362.36" y2="335.642"><stop offset="0" stop-color="#236568"/><stop offset=".252" stop-color="#1a8a7e"/><stop offset=".5857" stop-color="#0fb598"/><stop offset=".8464" stop-color="#08d0a8"/><stop offset="1" stop-color="#06daae"/></linearGradient><linearGradient id="SVGID_00000135681903298572155150000007327880994782156940_" gradientUnits="userSpaceOnUse" x1="55.049" x2="44.125" xlink:href="#lg1" y1="474.782" y2="493.702"/><linearGradient id="SVGID_00000047746548448591893210000013454169479820668836_" gradientTransform="matrix(.866 -.5 0 1.155 376.447 1459.287)" gradientUnits="userSpaceOnUse" x1="-131.335" x2="-131.335" xlink:href="#lg1" y1="-835.559" y2="-1384.135"/><linearGradient id="lg2"><stop offset="0" stop-color="#a996eb"/><stop offset="1" stop-color="#d7d1eb"/></linearGradient><linearGradient id="SVGID_00000044894330047658647020000009658494118109847472_" gradientUnits="userSpaceOnUse" x1="468.283" x2="470.61" xlink:href="#lg2" y1="113.128" y2="109.098"/><linearGradient id="lg3"><stop offset="0" stop-color="#43386b"/><stop offset="1" stop-color="#594a8e"/></linearGradient><linearGradient id="SVGID_00000039848974310398304680000016973038360076892801_" gradientTransform="matrix(.866 -.5 0 1.155 376.447 1459.287)" gradientUnits="userSpaceOnUse" x1="116.261" x2="116.261" xlink:href="#lg3" y1="-1109.783" y2="-1124.33"/><linearGradient id="lg4"><stop offset="0" stop-color="#43386b"/><stop offset="1" stop-color="#7662bd"/></linearGradient><linearGradient id="SVGID_00000146488302700741198180000011129747085261067403_" gradientUnits="userSpaceOnUse" x1="471.345" x2="475.551" xlink:href="#lg4" y1="96.218" y2="103.503"/><linearGradient id="SVGID_00000087402145971779950850000007064170869437768365_" gradientUnits="userSpaceOnUse" x1="468.283" x2="470.61" xlink:href="#lg2" y1="93.078" y2="89.048"/><linearGradient id="SVGID_00000132769758858640621560000009756161534432159646_" gradientTransform="matrix(.866 -.5 0 1.155 376.447 1459.287)" gradientUnits="userSpaceOnUse" x1="116.261" x2="116.261" xlink:href="#lg3" y1="-1127.147" y2="-1141.693"/><linearGradient id="SVGID_00000031183168508821366070000006931407116192605842_" gradientUnits="userSpaceOnUse" x1="471.345" x2="475.551" xlink:href="#lg4" y1="76.168" y2="83.454"/><linearGradient id="SVGID_00000044138059945382297170000013888667392458345867_" gradientUnits="userSpaceOnUse" x1="360.122" x2="362.449" xlink:href="#lg2" y1="237.688" y2="233.658"/><linearGradient id="SVGID_00000132066545296743174890000016890898404976131514_" gradientTransform="matrix(.866 -.5 0 1.155 376.447 1459.287)" gradientUnits="userSpaceOnUse" x1="-8.636" x2="-8.636" xlink:href="#lg3" y1="-1055.993" y2="-1070.539"/><linearGradient id="SVGID_00000057834915758241288960000002544459007096051383_" gradientUnits="userSpaceOnUse" x1="363.184" x2="367.39" xlink:href="#lg4" y1="220.779" y2="228.064"/><linearGradient id="SVGID_00000149378459116314599230000014257561168548148880_" gradientUnits="userSpaceOnUse" x1="360.122" x2="362.449" xlink:href="#lg2" y1="217.638" y2="213.608"/><linearGradient id="SVGID_00000029046079584732345160000007706107848963047298_" gradientTransform="matrix(.866 -.5 0 1.155 376.447 1459.287)" gradientUnits="userSpaceOnUse" x1="-8.636" x2="-8.636" xlink:href="#lg3" y1="-1073.356" y2="-1087.903"/><linearGradient id="SVGID_00000014621654043586107550000015203327798561999277_" gradientUnits="userSpaceOnUse" x1="363.184" x2="367.39" xlink:href="#lg4" y1="200.729" y2="208.014"/><linearGradient id="SVGID_00000169544867714519113760000007210332318325876873_" gradientUnits="userSpaceOnUse" x1="244.542" x2="246.869" xlink:href="#lg2" y1="330.368" y2="326.338"/><linearGradient id="SVGID_00000067930172261175976300000005154785676819963832_" gradientTransform="matrix(.866 -.5 0 1.155 376.447 1459.287)" gradientUnits="userSpaceOnUse" x1="-142.1" x2="-142.1" xlink:href="#lg3" y1="-1033.521" y2="-1048.067"/><linearGradient id="SVGID_00000181076394593411228230000006210944056457619329_" gradientUnits="userSpaceOnUse" x1="247.604" x2="251.81" xlink:href="#lg4" y1="313.459" y2="320.744"/><linearGradient id="SVGID_00000174562372737881896200000016597644685423322815_" gradientUnits="userSpaceOnUse" x1="244.542" x2="246.869" xlink:href="#lg2" y1="310.319" y2="306.289"/><linearGradient id="SVGID_00000111911932577991286460000001182103937904070569_" gradientTransform="matrix(.866 -.5 0 1.155 376.447 1459.287)" gradientUnits="userSpaceOnUse" x1="-142.1" x2="-142.1" xlink:href="#lg3" y1="-1050.884" y2="-1065.431"/><linearGradient id="SVGID_00000021826574870079866980000007861397240804501663_" gradientUnits="userSpaceOnUse" x1="247.604" x2="251.81" xlink:href="#lg4" y1="293.409" y2="300.694"/><linearGradient id="SVGID_00000070113332386569247450000012724962091925670585_" gradientUnits="userSpaceOnUse" x1="154.786" x2="157.113" xlink:href="#lg2" y1="335.637" y2="331.607"/><linearGradient id="SVGID_00000000216641154550557300000015496685791811050880_" gradientTransform="matrix(.866 -.5 0 1.155 376.447 1459.287)" gradientUnits="userSpaceOnUse" x1="-245.745" x2="-245.745" xlink:href="#lg3" y1="-1073.838" y2="-1088.384"/><linearGradient id="SVGID_00000109719462137957092060000005480923194068840123_" gradientUnits="userSpaceOnUse" x1="157.848" x2="162.054" xlink:href="#lg4" y1="318.728" y2="326.013"/><linearGradient id="SVGID_00000170957463270269521860000005846200598621316746_" gradientUnits="userSpaceOnUse" x1="154.786" x2="157.113" xlink:href="#lg2" y1="315.588" y2="311.558"/><linearGradient id="SVGID_00000090269318750875633840000012303655138913557131_" gradientTransform="matrix(.866 -.5 0 1.155 376.447 1459.287)" gradientUnits="userSpaceOnUse" x1="-245.745" x2="-245.745" xlink:href="#lg3" y1="-1091.201" y2="-1105.747"/><linearGradient id="SVGID_00000090282965688893434930000001288708585558837155_" gradientUnits="userSpaceOnUse" x1="157.848" x2="162.054" xlink:href="#lg4" y1="298.678" y2="305.963"/><linearGradient id="lg5"><stop offset="0" stop-color="#221c36"/><stop offset="1" stop-color="#43386b"/></linearGradient><linearGradient id="SVGID_00000054969670550637830020000008381512948764519064_" gradientUnits="userSpaceOnUse" x1="103.169" x2="110.311" xlink:href="#lg5" y1="303.562" y2="291.193"/><linearGradient id="SVGID_00000023268908305518104240000004583391091346141333_" gradientTransform="matrix(.866 -.5 0 1.155 376.447 1459.287)" gradientUnits="userSpaceOnUse" x1="-294.893" x2="-294.893" xlink:href="#lg3" y1="-1051.863" y2="-1157.65"/><linearGradient id="SVGID_00000126297375750320713800000005538778276757885569_" gradientUnits="userSpaceOnUse" x1="205.27" x2="212.412" xlink:href="#lg5" y1="244.611" y2="232.241"/><linearGradient id="SVGID_00000176737641574007062070000008617778499476096941_" gradientTransform="matrix(.866 -.5 0 1.155 376.447 1459.287)" gradientUnits="userSpaceOnUse" x1="-176.993" x2="-176.993" xlink:href="#lg3" y1="-1051.864" y2="-1157.652"/><linearGradient id="SVGID_00000131343627171725643630000015654683845504915597_" gradientUnits="userSpaceOnUse" x1="307.371" x2="314.513" xlink:href="#lg5" y1="185.659" y2="173.29"/><linearGradient id="SVGID_00000103265894808621890380000016806374039305226628_" gradientTransform="matrix(.866 -.5 0 1.155 376.447 1459.287)" gradientUnits="userSpaceOnUse" x1="-59.094" x2="-59.094" xlink:href="#lg3" y1="-1051.865" y2="-1157.653"/><linearGradient id="SVGID_00000121271781046320564420000012637886674284825784_" gradientUnits="userSpaceOnUse" x1="409.472" x2="416.614" xlink:href="#lg5" y1="126.708" y2="114.339"/><linearGradient id="SVGID_00000068663668646161680840000005596539904895177868_" gradientTransform="matrix(.866 -.5 0 1.155 376.447 1459.287)" gradientUnits="userSpaceOnUse" x1="58.806" x2="58.806" xlink:href="#lg3" y1="-1051.867" y2="-1157.654"/><linearGradient id="SVGID_00000032644760646494054740000008878459466291138959_" gradientUnits="userSpaceOnUse" x1="49.701" x2="52.028" xlink:href="#lg2" y1="354.796" y2="350.766"/><linearGradient id="SVGID_00000107574095470108867580000010904705851204512959_" gradientTransform="matrix(.866 -.5 0 1.155 376.447 1459.287)" gradientUnits="userSpaceOnUse" x1="-367.089" x2="-367.089" xlink:href="#lg3" y1="-1109.79" y2="-1124.336"/><linearGradient id="SVGID_00000101066659503290373250000013028211447364213124_" gradientUnits="userSpaceOnUse" x1="52.763" x2="56.969" xlink:href="#lg4" y1="337.886" y2="345.171"/><linearGradient id="SVGID_00000175293433986753383620000011495353435660210854_" gradientUnits="userSpaceOnUse" x1="49.701" x2="52.028" xlink:href="#lg2" y1="334.746" y2="330.716"/><linearGradient id="SVGID_00000006673923114624677350000014500551460259198863_" gradientTransform="matrix(.866 -.5 0 1.155 376.447 1459.287)" gradientUnits="userSpaceOnUse" x1="-367.089" x2="-367.089" xlink:href="#lg3" y1="-1127.153" y2="-1141.699"/><linearGradient id="SVGID_00000058546963997597081790000018379422427389149076_" gradientUnits="userSpaceOnUse" x1="52.763" x2="56.969" xlink:href="#lg4" y1="317.836" y2="325.122"/><g><path d="m486.363 216.659s10.623 33.143-7.878 36.069c-18.501 2.927-23.537-40.533 7.878-36.069z" fill="url(#SVGID_1_)"/><path d="m490.545 176-13.419-7.748-.009.033c-.836-.756-1.924-1.072-3.2-.775-8.427 1.962 14.843-159.048 14.843-159.048l-13.687-7.912-.007.007c-1.751-.889-3.983-.743-6.417.662l-438.718 253.293c-5.62 3.245-10.177 11.95-10.177 19.443v96.776c0 2.514.802 4.368 2.118 5.23-.001.001-.002.002-.003.003l13.967 8.031 1.056-1.998c1.543 2.839 2.422 6.619 2.422 11.18 0 12.143-6.225 25.942-14.652 33.71-2.895 2.669-4.907 7.333-4.907 11.32v57.129c0 4.3 1.505 7.257 3.846 8.392l-.001.005 13.352 7.719s212.753-160.866 212.753-153.563v21.092l10.971 6.325z" fill="url(#SVGID_00000070114306105867623140000010416901384804584634_)"/><path d="m56.459 470.083s10.623 33.143-7.878 36.069c-18.501 2.927-23.537-40.534 7.878-36.069z" fill="url(#SVGID_00000135681903298572155150000007327880994782156940_)"/><path d="m492.245 113.437v-96.776c0-7.494-4.556-10.938-10.176-7.693l-438.717 253.293c-5.62 3.245-10.176 11.95-10.176 19.443v96.776c0 3.988 2.012 6.328 4.907 5.654 8.427-1.962 14.652 4.649 14.652 16.792s-6.225 25.942-14.652 33.71c-2.896 2.669-4.907 7.333-4.907 11.32v57.129c0 7.493 4.556 10.938 10.176 7.693l198.196-114.428v-20.594c0-6.827 3.863-15.048 8.974-18.408 5.55-3.649 10.155-.438 10.155 6.866v21.092l221.393-127.821c5.62-3.245 10.176-11.95 10.176-19.443v-57.129c0-3.988-2.012-6.328-4.907-5.654-8.427 1.962-14.652-4.649-14.652-16.792s6.225-25.942 14.652-33.71c2.895-2.669 4.906-7.333 4.906-11.32zm-445.309 381.913c-4.881 2.818-8.837-.173-8.837-6.681 0-6.507 3.956-14.067 8.837-16.885s8.837.173 8.837 6.681-3.956 14.068-8.837 16.885zm431.549-272.72c4.88-2.818 8.837.173 8.837 6.681s-3.957 14.067-8.837 16.885c-4.881 2.818-8.837-.173-8.837-6.681 0-6.507 3.956-14.067 8.837-16.885z" fill="url(#SVGID_00000047746548448591893210000013454169479820668836_)"/><g><g><path d="m486.583 98.436-5.285-3.031c-.362-.227-.836-.226-1.362.078l-16.166 9.333c-1.126.65-2.038 2.393-2.038 3.894v8.641c0 .828.284 1.397.722 1.643l5.313 3.072z" fill="url(#SVGID_00000044894330047658647020000009658494118109847472_)"/><path d="m485.212 98.52-16.166 9.333c-1.126.65-2.038 2.393-2.038 3.894v8.641c0 1.501.912 2.191 2.038 1.541l16.166-9.333c1.126-.65 2.038-2.393 2.038-3.894v-8.641c0-1.501-.912-2.191-2.038-1.541z" fill="#e9e5f6"/><path d="m470.497 106.432v14.659l13.264-7.657v-14.076z" fill="url(#SVGID_00000039848974310398304680000016973038360076892801_)"/><path d="m470.497 107.015-5.275-3.037 13.27-7.662 5.269 3.042z" fill="url(#SVGID_00000146488302700741198180000011129747085261067403_)"/></g><g><path d="m486.583 78.386-5.285-3.031c-.362-.227-.836-.226-1.362.078l-16.166 9.333c-1.126.65-2.038 2.393-2.038 3.894v8.641c0 .828.284 1.397.722 1.643l5.313 3.072z" fill="url(#SVGID_00000087402145971779950850000007064170869437768365_)"/><path d="m485.212 78.47-16.166 9.333c-1.126.65-2.038 2.393-2.038 3.894v8.641c0 1.501.912 2.191 2.038 1.541l16.166-9.333c1.126-.65 2.038-2.393 2.038-3.894v-8.641c0-1.501-.912-2.191-2.038-1.541z" fill="#e9e5f6"/><path d="m470.497 86.382v14.66l13.264-7.658v-14.076z" fill="url(#SVGID_00000132769758858640621560000009756161534432159646_)"/><path d="m470.497 86.966-5.275-3.038 13.27-7.661 5.269 3.041z" fill="url(#SVGID_00000031183168508821366070000006931407116192605842_)"/></g></g><g><g><path d="m378.422 222.996-5.285-3.031c-.362-.227-.836-.226-1.362.078l-16.166 9.333c-1.126.65-2.038 2.393-2.038 3.894v8.641c0 .828.284 1.397.722 1.643l5.313 3.072z" fill="url(#SVGID_00000044138059945382297170000013888667392458345867_)"/><path d="m377.051 223.081-16.166 9.333c-1.126.65-2.038 2.393-2.038 3.894v8.641c0 1.501.912 2.191 2.038 1.541l16.166-9.333c1.126-.65 2.038-2.393 2.038-3.894v-8.641c0-1.502-.913-2.191-2.038-1.541z" fill="#e9e5f6"/><path d="m362.336 230.993v14.659l13.263-7.658v-14.076z" fill="url(#SVGID_00000132066545296743174890000016890898404976131514_)"/><path d="m362.336 231.576-5.275-3.038 13.27-7.661 5.268 3.041z" fill="url(#SVGID_00000057834915758241288960000002544459007096051383_)"/></g><g><path d="m378.422 202.946-5.285-3.031c-.362-.227-.836-.226-1.362.078l-16.166 9.333c-1.126.65-2.038 2.393-2.038 3.894v8.641c0 .828.284 1.397.722 1.643l5.313 3.072z" fill="url(#SVGID_00000149378459116314599230000014257561168548148880_)"/><path d="m377.051 203.031-16.166 9.333c-1.126.65-2.038 2.393-2.038 3.894v8.641c0 1.501.912 2.191 2.038 1.541l16.166-9.333c1.126-.65 2.038-2.393 2.038-3.894v-8.641c0-1.501-.913-2.191-2.038-1.541z" fill="#e9e5f6"/><path d="m362.336 210.943v14.659l13.263-7.657v-14.076z" fill="url(#SVGID_00000029046079584732345160000007706107848963047298_)"/><path d="m362.336 211.526-5.275-3.037 13.27-7.662 5.268 3.042z" fill="url(#SVGID_00000014621654043586107550000015203327798561999277_)"/></g></g><g><g><path d="m262.843 315.676-5.285-3.031c-.362-.227-.836-.226-1.362.078l-16.166 9.333c-1.126.65-2.038 2.393-2.038 3.894v8.641c0 .828.284 1.397.722 1.642l5.313 3.072z" fill="url(#SVGID_00000169544867714519113760000007210332318325876873_)"/><path d="m261.471 315.761-16.166 9.333c-1.126.65-2.038 2.393-2.038 3.894v8.641c0 1.501.912 2.191 2.038 1.541l16.166-9.333c1.126-.65 2.038-2.393 2.038-3.894v-8.641c0-1.501-.912-2.191-2.038-1.541z" fill="#e9e5f6"/><path d="m246.757 323.673v14.659l13.263-7.657v-14.076z" fill="url(#SVGID_00000067930172261175976300000005154785676819963832_)"/><path d="m246.757 324.256-5.276-3.037 13.27-7.662 5.269 3.042z" fill="url(#SVGID_00000181076394593411228230000006210944056457619329_)"/></g><g><path d="m262.843 295.627-5.285-3.031c-.362-.227-.836-.226-1.362.078l-16.166 9.333c-1.126.65-2.038 2.393-2.038 3.894v8.641c0 .829.284 1.397.722 1.643l5.313 3.072z" fill="url(#SVGID_00000174562372737881896200000016597644685423322815_)"/><path d="m261.471 295.711-16.166 9.333c-1.126.65-2.038 2.393-2.038 3.894v8.641c0 1.501.912 2.191 2.038 1.541l16.166-9.333c1.126-.65 2.038-2.393 2.038-3.894v-8.641c0-1.501-.912-2.191-2.038-1.541z" fill="#e9e5f6"/><path d="m246.757 303.623v14.659l13.263-7.657v-14.076z" fill="url(#SVGID_00000111911932577991286460000001182103937904070569_)"/><path d="m246.757 304.207-5.276-3.038 13.27-7.662 5.269 3.042z" fill="url(#SVGID_00000021826574870079866980000007861397240804501663_)"/></g></g><g><g><path d="m173.086 320.945-5.285-3.031c-.362-.227-.836-.226-1.362.078l-16.166 9.333c-1.126.65-2.038 2.393-2.038 3.894v8.641c0 .828.284 1.397.722 1.642l5.313 3.072z" fill="url(#SVGID_00000070113332386569247450000012724962091925670585_)"/><path d="m171.715 321.03-16.166 9.333c-1.126.65-2.038 2.393-2.038 3.894v8.641c0 1.501.912 2.191 2.038 1.541l16.166-9.333c1.126-.65 2.038-2.393 2.038-3.894v-8.641c0-1.501-.913-2.191-2.038-1.541z" fill="#e9e5f6"/><path d="m157 328.941v14.66l13.263-7.658v-14.076z" fill="url(#SVGID_00000000216641154550557300000015496685791811050880_)"/><path d="m157 329.525-5.275-3.038 13.27-7.661 5.268 3.041z" fill="url(#SVGID_00000109719462137957092060000005480923194068840123_)"/></g><g><path d="m173.086 300.896-5.285-3.031c-.362-.227-.836-.226-1.362.078l-16.166 9.333c-1.126.65-2.038 2.393-2.038 3.894v8.641c0 .829.284 1.397.722 1.643l5.313 3.072z" fill="url(#SVGID_00000170957463270269521860000005846200598621316746_)"/><path d="m171.715 300.98-16.166 9.333c-1.126.65-2.038 2.393-2.038 3.894v8.641c0 1.501.912 2.191 2.038 1.541l16.166-9.333c1.126-.65 2.038-2.393 2.038-3.894v-8.641c0-1.501-.913-2.191-2.038-1.541z" fill="#e9e5f6"/><path d="m157 308.892v14.659l13.263-7.657v-14.076z" fill="url(#SVGID_00000090269318750875633840000012303655138913557131_)"/><path d="m157 309.475-5.275-3.037 13.27-7.662 5.268 3.042z" fill="url(#SVGID_00000090282965688893434930000001288708585558837155_)"/></g></g><path d="m33.176 466.37v36.715c0 7.494 4.556 10.938 10.176 7.693l198.196-114.428v-20.558c0-6.983 4.036-15.402 9.27-18.633 5.417-3.344 9.858-.118 9.858 7.055v21.092l221.393-127.821c5.62-3.245 10.176-11.95 10.176-19.444v-36.715zm13.76 28.98c-4.881 2.818-8.837-.173-8.837-6.681 0-6.507 3.956-14.067 8.837-16.885s8.837.173 8.837 6.681-3.956 14.068-8.837 16.885zm431.549-249.154c-4.881 2.818-8.837-.173-8.837-6.681 0-6.507 3.956-14.067 8.837-16.885 4.88-2.818 8.837.173 8.837 6.681s-3.957 14.067-8.837 16.885z" fill="#236568"/><g fill="#06daae"><path d="m415.862 64.619-306.303 176.845c-1.287.743-2.331 2.737-2.331 4.453v27.69l4.661-2.691v-24.583l51.155-29.534v53.011c0 .824.246 1.473.683 1.803l17.03 12.874 3.296-6.298-16.347-12.358v-51.724l41.624-24.032v20.152l4.661-2.691v-20.152l40.708-23.503v42.417l-17.151 32.77 3.296 2.492 17.833-34.074c.437-.835.683-1.767.683-2.592v-43.704l52.071-30.063v20.152l4.661-2.691v-20.152l37.738-21.788v48.212c0 .824.246 1.472.683 1.803l35.762 27.035 3.296-6.298-35.08-26.519v-46.925l10.86-6.27v37.855c0 .824.246 1.473.683 1.803l22.221 16.798 3.296-6.298-21.539-16.282v-36.566l39.52-22.817v24.583l4.661-2.691v-27.69c0-1.716-1.044-2.505-2.331-1.762z"/><path d="m111.889 379.461v-17.722l-4.661 2.691v16.435l-19.89 38.004c-.437.835-.683 1.767-.683 2.592v17.981l4.661-2.691v-16.694l19.89-38.004c.438-.835.683-1.767.683-2.592z"/><path d="m101.603 382.077v-14.399l-4.661 2.691v11.292l-17.407 10.05c-.618.357-1.211 1.026-1.648 1.861l-12.714 24.291c-.437.835-.683 1.767-.683 2.592v31.784l4.661-2.691v-30.498l11.349-21.682 18.772-10.838c1.288-.743 2.331-2.737 2.331-4.453z"/><path d="m129.216 367.432v-15.696l-4.661 2.691v16.983c0 .824.246 1.473.683 1.803l9.098 6.879v30.344l4.661-2.691v-31.632c0-.824-.246-1.473-.683-1.803z"/><path d="m115.97 394.304-2.933 1.693c-1.287.743-2.331 2.737-2.331 4.453v23.629l4.661-2.691v-20.521l2.933-1.693c1.287-.743 2.331-2.737 2.331-4.453v-38.028l-4.661 2.691z"/><path d="m197.891 329.592c1.287-.743 2.331-2.737 2.331-4.453v-14.399l-4.661 2.691v11.292l-18.556 10.713c-.618.357-1.211 1.026-1.648 1.861l-18.648 35.631c-.437.835-.683 1.767-.683 2.592v23.87l4.661-2.691v-22.583l17.283-33.022z"/><path d="m174.688 363.043 8.395-16.039 25.212-14.556c1.287-.743 2.331-2.737 2.331-4.453v-23.26l-4.661 2.691v20.153l-23.846 13.768c-.618.357-1.211 1.026-1.648 1.861l-10.726 20.492c-.437.835-.683 1.767-.683 2.592 0 .824.246 1.473.683 1.803l9.84 7.438v10.257l4.661-2.691v-11.544c0-.824-.246-1.473-.683-1.803z"/><path d="m215.932 332.16-10.788 6.229c-1.287.743-2.331 2.737-2.331 4.453v29.536l4.661-2.691v-26.429l10.788-6.228c1.287-.743 2.331-2.737 2.331-4.453v-33.598l-4.661 2.691z"/><path d="m225.84 359.084 4.662-2.691v-63.134l-4.662 2.691z"/><path d="m296.938 270.039v-15.138l-4.661 2.691v13.958l-18.41 38.319-8.954-6.767v-43.214l24.347-46.52-3.296-2.492-25.03 47.825c-.437.835-.683 1.767-.683 2.592v45.788c0 .824.246 1.473.683 1.803l10.704 8.09v14.191l4.661-2.691v-14.299l20.052-41.737c.379-.786.587-1.639.587-2.399z"/><path d="m301.621 272.594-6.838 16.372c-.294.703-.452 1.438-.452 2.099v28.475l4.661-2.691v-27.458l6.838-16.372c.294-.703.452-1.438.452-2.099v-21.414l-4.661 2.691z"/><path d="m321.663 274.711-5.966-1.533v-29.107l-4.661 2.691v30.828c0 1.071.413 1.828 1.095 2.002l5.966 1.533v24.693l4.661-2.691v-26.414c0-1.07-.413-1.827-1.095-2.002z"/><path d="m327.217 261.468v-24.048l-4.661 2.691v25.475c0 .906.297 1.596.812 1.888l17.887 10.151v13.347l4.661-2.691v-14.775c0-.906-.297-1.596-.813-1.888z"/><path d="m396.233 220.797v-23.224l-4.661 2.691v21.937l-15.886 30.353-19.531 11.276-20.909-12.512v-18.534l-4.661 2.691v19.937c0 .892.288 1.575.789 1.875l22.359 13.379c.427.254.974.214 1.542-.113l8.726-5.038v12.324l4.661-2.691v-12.324l7.99-4.613c.618-.357 1.211-1.026 1.648-1.861l17.252-32.962c.435-.834.681-1.766.681-2.591z"/><path d="m407.673 219.773v-28.804l-4.661 2.691v27.517l-15.304 29.24c-.437.835-.683 1.767-.683 2.592v11.538l4.661-2.691v-10.251l15.304-29.24c.438-.836.683-1.768.683-2.592z"/><path d="m413.427 220.279-14.333 27.386c-.667 1.274-.866 2.726-.505 3.678.361.953 1.211 1.219 2.153.675l9.311-5.376v6.085l4.661-2.691v-9.193c0-1.716-1.043-2.505-2.331-1.762l-6.015 3.473 11.037-21.089c.437-.835.683-1.767.683-2.592v-33.92l-4.661 2.691z"/><path d="m426.747 212.174v-32.218l-4.661 2.691v33.505c0 .824.246 1.473.683 1.803l10.006 7.563v14.09l4.661-2.691v-15.378c0-.824-.246-1.473-.683-1.803z"/><path d="m458.437 198.545-14.69 8.482-7.654-5.786v-26.68l-4.661 2.691v27.967c0 .824.246 1.473.683 1.803l9.02 6.818c.437.33 1.03.315 1.648-.041l13.325-7.693v20.034l4.661-2.691v-23.142c-.002-1.716-1.045-2.505-2.332-1.762z"/></g><g fill="#f7e041"><path d="m74.237 442.664-14.505 8.374v50.284l14.505-8.375z"/><path d="m97.264 429.369-14.505 8.375v50.283l14.505-8.374z"/><path d="m120.29 416.075-14.505 8.374v50.284l14.505-8.374z"/><path d="m143.317 402.78-14.505 8.375v50.284l14.505-8.375z"/><path d="m166.343 389.486-14.504 8.374-.001 50.284 14.505-8.374z"/><path d="m189.37 376.192-14.505 8.374v50.284l14.505-8.375z"/><path d="m212.397 362.897-14.505 8.375v50.283l14.505-8.374z"/><path d="m235.423 349.603-14.505 8.374v50.284l14.505-8.374z"/><path d="m281.476 323.014-14.505 8.375v50.283l14.505-8.374z"/><path d="m304.503 309.72-14.505 8.374v50.284l14.505-8.375z"/><path d="m327.529 296.425-14.505 8.375v50.283l14.505-8.374z"/><path d="m350.556 283.131-14.505 8.374v50.284l14.505-8.374z"/><path d="m373.582 269.837-14.504 8.374v50.284l14.504-8.375z"/><path d="m396.609 256.542-14.505 8.375v50.283l14.505-8.374z"/><path d="m419.636 243.248-14.505 8.374v50.284l14.505-8.375z"/><path d="m442.662 229.953-14.505 8.375v50.284l14.505-8.375z"/><path d="m465.689 216.659-14.505 8.374v50.284l14.505-8.374z"/></g><g fill="#f7e041"><path d="m55.773 280.536c0-6.507-3.957-9.498-8.837-6.681-4.881 2.818-8.837 10.377-8.837 16.885 0 6.507 3.957 9.498 8.837 6.681 4.881-2.817 8.837-10.377 8.837-16.885z"/><path d="m487.322 31.382c0-6.507-3.957-9.498-8.837-6.681-4.88 2.818-8.837 10.377-8.837 16.885s3.956 9.498 8.837 6.681c4.881-2.818 8.837-10.378 8.837-16.885z"/></g><g><path d="m151.767 252.81-11.79-6.792-.002.004c-1.279-.704-2.931-.625-4.738.419l-51.357 29.651c-4.055 2.341-7.343 8.623-7.343 14.03v87.029c0 2.927.968 4.987 2.495 5.9l11.42 6.578z" fill="url(#SVGID_00000054969670550637830020000008381512948764519064_)"/><path d="m146.748 253.062-51.356 29.651c-4.056 2.341-7.343 8.623-7.343 14.03v87.03c0 5.407 3.288 7.893 7.343 5.551l51.356-29.651c4.055-2.342 7.343-8.623 7.343-14.03v-87.03c0-5.407-3.288-7.892-7.343-5.551z" fill="url(#SVGID_00000023268908305518104240000004583391091346141333_)"/></g><g><path d="m253.868 193.858-11.79-6.792-.002.004c-1.279-.704-2.931-.625-4.738.419l-51.357 29.651c-4.055 2.342-7.343 8.623-7.343 14.031v87.029c0 2.927.968 4.987 2.495 5.9l11.42 6.578z" fill="url(#SVGID_00000126297375750320713800000005538778276757885569_)"/><path d="m248.849 194.111-51.356 29.651c-4.056 2.341-7.343 8.623-7.343 14.03v87.029c0 5.407 3.288 7.893 7.343 5.551l51.356-29.651c4.055-2.341 7.343-8.623 7.343-14.03v-87.03c0-5.406-3.288-7.891-7.343-5.55z" fill="url(#SVGID_00000176737641574007062070000008617778499476096941_)"/></g><g><path d="m355.969 134.907-11.79-6.792-.002.004c-1.279-.705-2.931-.625-4.738.418l-51.357 29.651c-4.055 2.341-7.343 8.623-7.343 14.03v87.029c0 2.927.968 4.987 2.495 5.9l11.42 6.578z" fill="url(#SVGID_00000131343627171725643630000015654683845504915597_)"/><path d="m350.95 135.16-51.356 29.651c-4.056 2.341-7.343 8.623-7.343 14.03v87.029c0 5.407 3.288 7.893 7.343 5.551l51.356-29.651c4.056-2.342 7.343-8.623 7.343-14.03v-87.029c0-5.407-3.288-7.892-7.343-5.551z" fill="url(#SVGID_00000103265894808621890380000016806374039305226628_)"/></g><g><path d="m458.069 75.956-11.79-6.792-.002.004c-1.279-.705-2.931-.625-4.738.418l-51.357 29.651c-4.055 2.341-7.343 8.623-7.343 14.03v87.029c0 2.927.968 4.987 2.495 5.9l11.42 6.578z" fill="url(#SVGID_00000121271781046320564420000012637886674284825784_)"/><path d="m453.051 76.209-51.357 29.651c-4.056 2.341-7.343 8.623-7.343 14.03v87.029c0 5.407 3.288 7.893 7.343 5.551l51.357-29.651c4.055-2.342 7.343-8.623 7.343-14.03v-87.029c0-5.407-3.288-7.893-7.343-5.551z" fill="url(#SVGID_00000068663668646161680840000005596539904895177868_)"/></g><g><g><path d="m68.002 340.104-5.285-3.031c-.362-.227-.836-.226-1.362.078l-16.166 9.333c-1.126.65-2.038 2.393-2.038 3.894v8.641c0 .828.284 1.397.722 1.642l5.313 3.072z" fill="url(#SVGID_00000032644760646494054740000008878459466291138959_)"/><path d="m66.63 340.188-16.166 9.333c-1.126.65-2.038 2.393-2.038 3.894v8.641c0 1.501.912 2.191 2.038 1.541l16.166-9.333c1.126-.65 2.038-2.393 2.038-3.894v-8.641c0-1.501-.912-2.191-2.038-1.541z" fill="#e9e5f6"/><path d="m51.916 348.1v14.659l13.263-7.657v-14.076z" fill="url(#SVGID_00000107574095470108867580000010904705851204512959_)"/><path d="m51.916 348.683-5.276-3.037 13.271-7.662 5.268 3.042z" fill="url(#SVGID_00000101066659503290373250000013028211447364213124_)"/></g><g><path d="m68.002 320.054-5.285-3.031c-.362-.227-.836-.226-1.362.078l-16.166 9.333c-1.126.65-2.038 2.393-2.038 3.894v8.641c0 .828.284 1.397.722 1.642l5.313 3.072z" fill="url(#SVGID_00000175293433986753383620000011495353435660210854_)"/><path d="m66.63 320.138-16.166 9.333c-1.126.65-2.038 2.393-2.038 3.894v8.641c0 1.501.912 2.191 2.038 1.541l16.166-9.333c1.126-.65 2.038-2.393 2.038-3.894v-8.641c0-1.501-.912-2.191-2.038-1.541z" fill="#e9e5f6"/><path d="m51.916 328.05v14.66l13.263-7.658v-14.076z" fill="url(#SVGID_00000006673923114624677350000014500551460259198863_)"/><path d="m51.916 328.634-5.276-3.038 13.271-7.661 5.268 3.041z" fill="url(#SVGID_00000058546963997597081790000018379422427389149076_)"/></g></g></g></svg>