<svg id="Capa_1" enable-background="new 0 0 512 512" height="512" viewBox="0 0 512 512" width="512" xmlns="http://www.w3.org/2000/svg" xmlns:xlink="http://www.w3.org/1999/xlink"><linearGradient id="SVGID_1_" gradientUnits="userSpaceOnUse" x1="318.826" x2="272.771" y1="383.185" y2="303.415"><stop offset="0" stop-color="#ffc538"/><stop offset="1" stop-color="#f7e041"/></linearGradient><linearGradient id="SVGID_2_" gradientUnits="userSpaceOnUse" x1="296.411" x2="296.411" y1="-18.984" y2="214.205"><stop offset="0" stop-color="#c5baeb"/><stop offset=".0623" stop-color="#c9bfec"/><stop offset=".6642" stop-color="#f0edfa"/><stop offset=".9662" stop-color="#fff"/></linearGradient><g><path d="m317.163 47.994v6.347l11.574-6.682v-6.347z" fill="#e9e5f6"/><path d="m127.872 159.495 214.077-123.597v211.336c0 50.162 14.661 99.23 42.179 141.169l-214.077 123.597c-27.518-41.94-42.179-91.008-42.179-141.169z" fill="url(#SVGID_1_)"/><g><g><path d="m310.435 113.219-85.649 49.316c-3.716 2.145-6.728 7.901-6.728 12.855 0 4.954 3.012 7.232 6.728 5.086l85.649-49.316c3.716-2.145 6.728-7.901 6.728-12.855 0-4.954-3.012-7.232-6.728-5.086z" fill="#43386b"/><path d="m281.073 170.286-56.287 32.318c-3.716 2.145-6.728 7.901-6.728 12.855 0 4.954 3.012 7.232 6.728 5.087l56.287-32.318c3.716-2.145 6.728-7.901 6.728-12.855 0-4.955-3.012-7.232-6.728-5.087z" fill="#43386b"/><g><path d="m202.183 233.258-35.568 20.535c-2.173 1.255-3.934-.077-3.934-2.974v-47.424c0-2.897 1.761-6.262 3.934-7.517l35.568-20.535c2.173-1.255 3.934.077 3.934 2.974v47.424c-.001 2.897-1.762 6.262-3.934 7.517zm-31.634 7.773 27.7-15.993v-36.934l-27.7 15.992z" fill="#43386b"/></g><g><path d="m183.699 233.507-15.183-11.478c-1.821-1.376-1.821-5.312 0-8.792 1.819-3.477 4.773-5.183 6.593-3.806l8.59 6.494 20.467-39.106c1.819-3.477 4.773-5.183 6.593-3.806 1.821 1.376 1.821 5.312 0 8.792z" fill="#ff4757"/></g></g><g><path d="m310.435 203.829-85.649 49.316c-3.716 2.145-6.728 7.901-6.728 12.855 0 4.954 3.012 7.232 6.728 5.086l85.649-49.316c3.716-2.145 6.728-7.901 6.728-12.855 0-4.954-3.012-7.231-6.728-5.086z" fill="#43386b"/><path d="m281.073 260.897-56.287 32.318c-3.716 2.145-6.728 7.901-6.728 12.855 0 4.954 3.012 7.232 6.728 5.086l56.287-32.318c3.716-2.145 6.728-7.901 6.728-12.855 0-4.954-3.012-7.231-6.728-5.086z" fill="#43386b"/><g><path d="m202.183 323.868-35.568 20.535c-2.173 1.255-3.934-.077-3.934-2.974v-47.424c0-2.897 1.761-6.262 3.934-7.517l35.568-20.535c2.173-1.254 3.934.077 3.934 2.974v47.424c-.001 2.898-1.762 6.263-3.934 7.517zm-31.634 7.774 27.7-15.993v-36.934l-27.7 15.992z" fill="#43386b"/></g><g><path d="m183.699 324.118-15.183-11.478c-1.821-1.376-1.821-5.312 0-8.792 1.819-3.477 4.773-5.183 6.593-3.806l8.59 6.494 20.467-39.106c1.819-3.478 4.773-5.183 6.593-3.806 1.821 1.376 1.821 5.312 0 8.792z" fill="#ff4757"/></g></g><g><path d="m310.435 294.44-85.649 49.316c-3.716 2.145-6.728 7.901-6.728 12.855 0 4.954 3.012 7.232 6.728 5.086l85.649-49.316c3.716-2.145 6.728-7.901 6.728-12.855 0-4.954-3.012-7.231-6.728-5.086z" fill="#43386b"/><path d="m281.073 351.508-56.287 32.318c-3.716 2.145-6.728 7.901-6.728 12.855 0 4.954 3.012 7.232 6.728 5.086l56.287-32.318c3.716-2.145 6.728-7.901 6.728-12.855 0-4.955-3.012-7.232-6.728-5.086z" fill="#43386b"/><g><path d="m202.183 414.479-35.568 20.535c-2.173 1.255-3.934-.077-3.934-2.974v-47.424c0-2.897 1.761-6.262 3.934-7.517l35.568-20.535c2.173-1.254 3.934.077 3.934 2.974v47.424c-.001 2.897-1.762 6.263-3.934 7.517zm-31.634 7.773 27.7-15.993v-36.934l-27.7 15.992z" fill="#43386b"/></g></g></g><path d="m298.701 13.264c3.851-2.226 8.454-2.228 12.306-.004 3.855 2.224 6.155 6.208 6.155 10.658v26.29l11.574-6.682v-19.609c0-8.635-4.465-16.366-11.944-20.682s-16.409-4.313-23.885.008c-17.778 10.276-28.822 29.415-28.822 49.949v96.563c0 6.331 3.273 12.001 8.756 15.167 2.742 1.583 5.749 2.375 8.757 2.375s6.016-.792 8.758-2.374c9.254-5.343 15.002-15.3 15.002-25.986v-99.167c0-3.196-2.591-5.787-5.787-5.787s-5.787 2.591-5.787 5.787v99.167c0 6.564-3.532 12.68-9.217 15.962-2.679 1.547-5.046.516-5.939 0s-2.97-2.048-2.97-5.143v-96.564c.002-16.414 8.831-31.714 23.043-39.928z" fill="url(#SVGID_2_)"/></g></svg>