<svg id="Capa_1" enable-background="new 0 0 512 512" height="512" viewBox="0 0 512 512" width="512" xmlns="http://www.w3.org/2000/svg" xmlns:xlink="http://www.w3.org/1999/xlink"><linearGradient id="lg1"><stop offset="0" stop-color="#c5baeb"/><stop offset="1" stop-color="#f2effa"/></linearGradient><linearGradient id="SVGID_1_" gradientUnits="userSpaceOnUse" x1="254.247" x2="254.247" xlink:href="#lg1" y1="492.43" y2="-134.976"/><linearGradient id="lg2"><stop offset="0" stop-color="#a996eb"/><stop offset="1" stop-color="#a996eb" stop-opacity="0"/></linearGradient><linearGradient id="SVGID_00000021084641004591666290000014760193251177276575_" gradientUnits="userSpaceOnUse" x1="211.088" x2="201.355" xlink:href="#lg2" y1="124.308" y2="141.165"/><linearGradient id="SVGID_00000018234885795989057070000001586387079386226087_" gradientUnits="userSpaceOnUse" x1="330.518" x2="370.467" xlink:href="#lg2" y1="59.69" y2="-9.503"/><linearGradient id="SVGID_00000041975907979663570640000010378575452308141730_" gradientUnits="userSpaceOnUse" x1="231.84" x2="246.352" xlink:href="#lg2" y1="75.756" y2="50.621"/><linearGradient id="SVGID_00000083767324436420625280000017619524010852141953_" gradientUnits="userSpaceOnUse" x1="230.013" x2="230.013" xlink:href="#lg2" y1="448.921" y2="500.903"/><linearGradient id="SVGID_00000181772848090610075560000006863397449936543397_" gradientUnits="userSpaceOnUse" x1="97.68" x2="112.071" xlink:href="#lg2" y1="339.708" y2="314.784"/><linearGradient id="SVGID_00000146473363641091859450000005274160075185811093_" gradientUnits="userSpaceOnUse" x1="126.917" x2="138.011" xlink:href="#lg2" y1="228.092" y2="208.876"/><linearGradient id="SVGID_00000163044440260833346480000017164709339025881498_" gradientUnits="userSpaceOnUse" x1="177.154" x2="121.527" xlink:href="#lg2" y1="398.728" y2="491.743"/><linearGradient id="lg3"><stop offset="0" stop-color="#d7d1eb"/><stop offset="1" stop-color="#f2effa"/></linearGradient><linearGradient id="SVGID_00000042717875129116857810000004749969084112101505_" gradientTransform="matrix(.866 -.5 0 1.155 33.636 82.211)" gradientUnits="userSpaceOnUse" x1="288.632" x2="288.632" xlink:href="#lg3" y1="519.389" y2="39.619"/><linearGradient id="SVGID_00000049212181385879103570000012085424888114487200_" gradientTransform="matrix(.866 -.5 0 1.155 33.636 82.211)" gradientUnits="userSpaceOnUse" x1="288.632" x2="288.632" xlink:href="#lg3" y1="155.071" y2="441.639"/><linearGradient id="lg4"><stop offset="0" stop-color="#a996eb"/><stop offset="1" stop-color="#d7d1eb"/></linearGradient><linearGradient id="SVGID_00000164475202286316408660000001671230425465307064_" gradientUnits="userSpaceOnUse" x1="337.513" x2="235.386" xlink:href="#lg4" y1="247.789" y2="424.68"/><linearGradient id="SVGID_00000078008512888794357950000003872633165828618149_" gradientUnits="userSpaceOnUse" x1="285.894" x2="311.181" xlink:href="#lg1" y1="294.792" y2="250.993"/><linearGradient id="SVGID_00000116227938843649334060000012467366570605793205_" gradientUnits="userSpaceOnUse" x1="336.116" x2="336.116" xlink:href="#lg3" y1="404.35" y2="292.893"/><linearGradient id="SVGID_00000109737969972151900920000016494219968216972707_" gradientUnits="userSpaceOnUse" x1="351.732" x2="325.748" xlink:href="#lg4" y1="281.15" y2="326.155"/><linearGradient id="SVGID_00000063597239187950077080000012368371162187391930_" gradientUnits="userSpaceOnUse" x1="145.227" x2="132.277" xlink:href="#lg2" y1="250.482" y2="272.912"/><g><path d="m256.51 508.532 192.97-368.271-54.319-31.164-5.095-76.074-55.793-32.292-.002.003c-3.516-2.008-8.581.183-12.687 5.601l-18.535 24.462-48.25-27.869c-2.011-1.324-4.688-1.264-7.572.402l-37.635 21.728c-4.979 2.875-9.353 9.804-10.716 16.976l-12.287 64.634c-4.155 4.36-8.211 8.94-12.151 13.726l-39.203-6.469c-4.35-.718-9.779 3.427-13.299 10.153l-26.612 50.846c-3.521 6.727-4.278 14.402-1.856 18.804l21.827 39.669c-1.884 6.341-3.562 12.719-5.033 19.107l-43.155 41.298c-4.788 4.582-8.091 12.322-8.091 18.96v50.179c0 4.338 1.417 7.506 3.731 8.924l-.001.003.146.085c.085.049.168.104.256.148l45.132 26.074-14.811 44.019c-2.422 7.198-1.664 13.999 1.856 16.661l83.068 52.725 24.851-33.801z" fill="url(#SVGID_1_)"/><path d="m174.437 120.394 55.183 31.891 12.151-13.727-55.182-31.891z" fill="url(#SVGID_00000021084641004591666290000014760193251177276575_)"/><path d="m322.545 95.606h24.5l43.02-62.582-55.792-32.293-.002.003c-3.516-2.008-8.581.183-12.687 5.601l-18.535 24.462 6.778 3.913z" fill="url(#SVGID_00000018234885795989057070000001586387079386226087_)"/><path d="m247.226 3.33-37.635 21.728c-4.979 2.875-9.353 9.804-10.716 16.976l-12.287 64.634 55.182 31.891 68.056-103.849-6.778-3.913-48.25-27.869c-2.01-1.324-4.687-1.264-7.572.402z" fill="url(#SVGID_00000041975907979663570640000010378575452308141730_)"/><path d="m203.243 477.779 27.105-32.726 26.434 2.437-.272 61.042z" fill="url(#SVGID_00000083767324436420625280000017619524010852141953_)"/><path d="m118.633 404.122 46.811-119.727-55.182-31.891-43.155 41.298c-4.788 4.582-8.091 12.322-8.091 18.96v50.179c0 4.338 1.417 7.506 3.731 8.924l-.001.003.146.085c.085.049.168.104.256.148l45.132 26.074z" fill="url(#SVGID_00000181772848090610075560000006863397449936543397_)"/><path d="m93.467 193.728 21.827 39.669 55.182 31.891 6.641-109.319-55.182-31.891-26.612 50.846c-3.52 6.727-4.278 14.402-1.856 18.804z" fill="url(#SVGID_00000146473363641091859450000005274160075185811093_)"/><path d="m174.417 383.4-55.784 20.722-10.355-5.947-14.811 44.019c-2.422 7.198-1.664 13.999 1.856 16.661l83.068 52.725 2.566-3.49z" fill="url(#SVGID_00000163044440260833346480000017164709339025881498_)"/><path d="m444.894 139.437-43.155 8.533c-1.471-4.691-3.149-9.13-5.033-13.296l21.827-64.873c2.422-7.198 1.664-13.999-1.856-16.66l-26.611-20.118c-3.521-2.662-8.949-.538-13.299 5.203l-39.203 51.737c-3.94-.236-7.997-.133-12.151.305l-12.287-50.447c-1.363-5.597-5.738-7.476-10.716-4.601l-37.635 21.728c-4.979 2.874-9.353 9.804-10.716 16.975l-12.287 64.634c-4.155 4.36-8.211 8.94-12.151 13.726l-39.203-6.469c-4.35-.718-9.779 3.427-13.299 10.153l-26.612 50.846c-3.52 6.726-4.278 14.402-1.856 18.804l21.827 39.669c-1.883 6.341-3.562 12.719-5.033 19.108l-43.155 41.298c-4.788 4.582-8.091 12.322-8.091 18.96v50.179c0 6.638 3.303 10.564 8.091 9.617l43.155-8.533c1.471 4.691 3.15 9.129 5.033 13.296l-21.827 64.873c-2.422 7.198-1.664 13.999 1.856 16.66l26.612 20.118c3.52 2.661 8.949.537 13.299-5.203l39.203-51.737c3.94.237 7.997.133 12.151-.305l12.287 50.447c1.363 5.597 5.738 7.475 10.716 4.601l37.635-21.728c4.979-2.874 9.353-9.804 10.716-16.975l12.287-64.634c4.155-4.359 8.211-8.94 12.151-13.726l39.203 6.469c4.35.718 9.779-3.427 13.299-10.154l26.611-50.846c3.521-6.727 4.278-14.402 1.856-18.804l-21.827-39.669c1.884-6.341 3.562-12.719 5.033-19.108l43.155-41.298c4.789-4.582 8.091-12.322 8.091-18.96v-50.179c0-6.637-3.303-10.563-8.091-9.616z" fill="url(#SVGID_00000042717875129116857810000004749969084112101505_)"/><path d="m387.005 212.237c0-76.152-46.3-111.154-103.414-78.179s-103.414 121.44-103.414 197.592 46.3 111.154 103.414 78.179 103.414-121.44 103.414-197.592z" fill="url(#SVGID_00000049212181385879103570000012085424888114487200_)"/><path d="m343.165 124.833c17.436 14.616 28.125 41.695 28.125 78.277 0 76.152-46.3 164.617-103.414 197.592-22.183 12.807-42.733 15.355-59.574 9.225 18.859 15.809 45.613 17.036 75.29-.098 57.114-32.975 103.414-121.44 103.414-197.592-.001-46.574-17.322-77.751-43.841-87.404z" fill="url(#SVGID_00000164475202286316408660000001671230425465307064_)"/><path d="m306.071 213.825-.008.017c-7.643-4.368-17.586-3.949-28.466 2.333-24.104 13.917-43.644 51.252-43.644 83.39 0 17.487 5.793 29.816 14.95 35.196l58.809 34.018 57.558-120.716z" fill="url(#SVGID_00000078008512888794357950000003872633165828618149_)"/><path d="m379.76 283c0-32.139-19.54-46.911-43.644-32.994s-43.644 51.252-43.644 83.39c0 32.139 19.54 46.911 43.644 32.994 24.104-13.916 43.644-51.252 43.644-83.39z" fill="url(#SVGID_00000116227938843649334060000012467366570605793205_)"/><path d="m366.525 290.641c0-22.393-13.615-32.685-30.409-22.989s-30.409 35.709-30.409 58.102 13.615 32.685 30.409 22.989 30.409-35.709 30.409-58.102z" fill="url(#SVGID_00000109737969972151900920000016494219968216972707_)"/><path d="m170.477 265.288-5.033 19.108-55.183-31.892 5.033-19.107z" fill="url(#SVGID_00000063597239187950077080000012368371162187391930_)"/></g></svg>