<svg id="Capa_1" enable-background="new 0 0 512 512" height="512" viewBox="0 0 512 512" width="512" xmlns="http://www.w3.org/2000/svg" xmlns:xlink="http://www.w3.org/1999/xlink"><linearGradient id="lg1"><stop offset="0" stop-color="#cc8241"/><stop offset="1" stop-color="#ffa538"/></linearGradient><linearGradient id="SVGID_1_" gradientUnits="userSpaceOnUse" x1="23.419" x2="39.889" xlink:href="#lg1" y1="427.225" y2="398.698"/><linearGradient id="lg2"><stop offset="0" stop-color="#ffc538"/><stop offset="1" stop-color="#f7e041"/></linearGradient><linearGradient id="SVGID_2_" gradientUnits="userSpaceOnUse" x1="64.239" x2="64.239" xlink:href="#lg2" y1="417.615" y2="343.719"/><linearGradient id="lg3"><stop offset="0" stop-color="#ffa538"/><stop offset="1" stop-color="#f9e667"/></linearGradient><linearGradient id="SVGID_3_" gradientUnits="userSpaceOnUse" x1="67.939" x2="105.943" xlink:href="#lg3" y1="339.188" y2="317.246"/><linearGradient id="SVGID_4_" gradientUnits="userSpaceOnUse" x1="21.361" x2="63.508" xlink:href="#lg3" y1="369.181" y2="296.18"/><linearGradient id="SVGID_5_" gradientUnits="userSpaceOnUse" x1="124.568" x2="141.038" xlink:href="#lg1" y1="368.914" y2="340.387"/><linearGradient id="SVGID_6_" gradientUnits="userSpaceOnUse" x1="165.388" x2="165.388" xlink:href="#lg2" y1="359.304" y2="285.408"/><linearGradient id="SVGID_7_" gradientUnits="userSpaceOnUse" x1="169.087" x2="207.092" xlink:href="#lg3" y1="280.877" y2="258.935"/><linearGradient id="SVGID_8_" gradientUnits="userSpaceOnUse" x1="122.509" x2="164.657" xlink:href="#lg3" y1="310.87" y2="237.869"/><linearGradient id="SVGID_9_" gradientUnits="userSpaceOnUse" x1="226.087" x2="242.557" xlink:href="#lg1" y1="310.596" y2="282.069"/><linearGradient id="SVGID_10_" gradientUnits="userSpaceOnUse" x1="266.907" x2="266.907" xlink:href="#lg2" y1="300.986" y2="227.09"/><linearGradient id="SVGID_11_" gradientUnits="userSpaceOnUse" x1="270.606" x2="308.61" xlink:href="#lg3" y1="222.559" y2="200.618"/><linearGradient id="SVGID_12_" gradientUnits="userSpaceOnUse" x1="224.028" x2="266.175" xlink:href="#lg3" y1="252.552" y2="179.551"/><linearGradient id="SVGID_13_" gradientUnits="userSpaceOnUse" x1="327.976" x2="344.446" xlink:href="#lg1" y1="252.285" y2="223.759"/><linearGradient id="SVGID_14_" gradientUnits="userSpaceOnUse" x1="368.795" x2="368.795" xlink:href="#lg2" y1="242.675" y2="168.78"/><linearGradient id="SVGID_15_" gradientUnits="userSpaceOnUse" x1="372.495" x2="410.499" xlink:href="#lg3" y1="164.248" y2="142.307"/><linearGradient id="SVGID_16_" gradientUnits="userSpaceOnUse" x1="325.917" x2="368.064" xlink:href="#lg3" y1="194.241" y2="121.24"/><linearGradient id="SVGID_17_" gradientUnits="userSpaceOnUse" x1="429.125" x2="445.594" y1="193.974" y2="165.448"><stop offset="0" stop-color="#a996eb"/><stop offset="1" stop-color="#c5baeb"/></linearGradient><linearGradient id="lg4"><stop offset="0" stop-color="#c5baeb"/><stop offset="1" stop-color="#e7e3f3"/></linearGradient><linearGradient id="SVGID_18_" gradientUnits="userSpaceOnUse" x1="473.644" x2="511.648" xlink:href="#lg4" y1="105.938" y2="83.996"/><linearGradient id="SVGID_19_" gradientUnits="userSpaceOnUse" x1="427.066" x2="469.213" xlink:href="#lg4" y1="135.93" y2="62.929"/><g><g><path d="m104.61 343.593c2.393-4.493 2.091-9.102.005-10.628l.001-.001-.011-.006c-.161-.117-.331-.218-.513-.296l-21.832-12.614c-.039-.025-.079-.047-.119-.069l-.025-.014-.001.001c-.745-.402-1.678-.456-2.769-.037l-8.636 3.313-1.485-3.155c-.38-.808-.895-1.346-1.493-1.645l-22.063-12.737-.001.005c-2.599-1.47-6.912 1.807-8.597 7.332l-8.689 28.492c-.81 2.655-2.375 5.075-4.186 6.471l-19.43 14.982c-4.56 3.516-6.38 12.039-3.081 14.422l14.06 10.155c1.31.947 1.908 3.055 1.599 5.638l-3.319 27.718c-.367 3.066.499 5.101 1.943 5.85v.001l22.026 12.713.002-.003c1.622.976 4.052.244 6.278-2.602l17.379-22.216c1.62-2.07 3.554-3.187 5.174-2.987l17.379 2.148c4.078.504 8.845-6.865 8.066-12.47l-3.319-23.886c-.309-2.226.288-5.024 1.599-7.484z" fill="url(#SVGID_1_)"/><path d="m69.224 320.086 8.689 18.459c.81 1.72 2.375 2.333 4.186 1.638l19.43-7.454c4.56-1.749 6.38 4.671 3.081 10.864l-14.06 26.391c-1.31 2.459-1.908 5.258-1.599 7.484l3.319 23.886c.779 5.605-3.988 12.975-8.066 12.47l-17.379-2.148c-1.62-.2-3.554.917-5.174 2.987l-17.379 22.216c-4.078 5.213-8.845 3.348-8.066-3.157l3.319-27.718c.309-2.583-.289-4.691-1.599-5.638l-14.06-10.155c-3.299-2.383-1.479-10.906 3.081-14.422l19.43-14.983c1.81-1.396 3.376-3.816 4.186-6.471l8.69-28.492c2.04-6.688 7.932-10.089 9.971-5.757z" fill="url(#SVGID_2_)"/><path d="m77.913 338.544c.81 1.72 2.375 2.333 4.186 1.638l19.43-7.454c.992-.381 1.854-.374 2.563-.067l-21.832-12.613c-.039-.025-.079-.047-.119-.069l-.025-.014-.001.001c-.745-.402-1.678-.456-2.769-.037l-8.636 3.313z" fill="url(#SVGID_3_)"/><path d="m26.949 375.788 19.43-14.982c1.81-1.396 3.376-3.816 4.186-6.471l8.689-28.492c1.659-5.44 5.868-8.705 8.478-7.401l-22.063-12.737-.001.005c-2.599-1.47-6.912 1.807-8.597 7.332l-8.689 28.492c-.81 2.655-2.375 5.075-4.186 6.471l-19.43 14.982c-4.56 3.516-6.38 12.039-3.081 14.422l22.183 12.801c-3.299-2.384-1.479-10.906 3.081-14.422z" fill="url(#SVGID_4_)"/></g><g><path d="m205.759 285.282c2.394-4.493 2.091-9.102.005-10.628l.001-.001-.011-.006c-.161-.117-.331-.218-.513-.296l-21.831-12.614c-.039-.025-.079-.047-.119-.069l-.025-.014-.001.001c-.745-.402-1.677-.456-2.769-.037l-8.636 3.313-1.485-3.155c-.38-.808-.894-1.346-1.492-1.645l-22.063-12.737-.001.005c-2.599-1.47-6.912 1.807-8.597 7.332l-8.69 28.492c-.81 2.655-2.375 5.075-4.186 6.471l-19.43 14.982c-4.56 3.516-6.38 12.039-3.081 14.422l14.06 10.156c1.31.947 1.908 3.055 1.599 5.638l-3.319 27.718c-.367 3.066.499 5.101 1.943 5.849v.001l22.026 12.713.002-.003c1.622.976 4.052.244 6.279-2.602l17.379-22.216c1.62-2.07 3.554-3.187 5.174-2.987l17.379 2.148c4.078.504 8.845-6.865 8.066-12.47l-3.319-23.886c-.309-2.226.288-5.024 1.599-7.484z" fill="url(#SVGID_5_)"/><path d="m170.373 261.775 8.689 18.459c.81 1.72 2.375 2.333 4.186 1.638l19.43-7.454c4.56-1.749 6.38 4.671 3.081 10.864l-14.06 26.391c-1.31 2.459-1.908 5.258-1.599 7.484l3.319 23.886c.779 5.605-3.988 12.975-8.066 12.471l-17.379-2.148c-1.619-.2-3.554.917-5.174 2.987l-17.379 22.216c-4.078 5.213-8.845 3.348-8.066-3.157l3.319-27.718c.309-2.583-.289-4.691-1.599-5.638l-14.06-10.156c-3.299-2.383-1.479-10.906 3.081-14.422l19.43-14.982c1.811-1.396 3.376-3.816 4.186-6.471l8.69-28.492c2.04-6.688 7.932-10.09 9.971-5.758z" fill="url(#SVGID_6_)"/><path d="m179.062 280.233c.81 1.72 2.375 2.333 4.186 1.638l19.43-7.454c.992-.381 1.854-.374 2.563-.067l-21.831-12.614c-.039-.025-.079-.047-.119-.069l-.025-.014-.001.001c-.745-.402-1.677-.456-2.769-.037l-8.636 3.313z" fill="url(#SVGID_7_)"/><path d="m128.098 317.477 19.43-14.982c1.811-1.396 3.376-3.816 4.186-6.471l8.689-28.492c1.659-5.44 5.868-8.705 8.478-7.401l-22.063-12.737-.001.005c-2.599-1.47-6.912 1.807-8.597 7.332l-8.69 28.492c-.81 2.655-2.375 5.075-4.186 6.471l-19.43 14.982c-4.56 3.516-6.38 12.039-3.081 14.422l22.183 12.801c-3.298-2.384-1.478-10.906 3.082-14.422z" fill="url(#SVGID_8_)"/></g><g><path d="m307.278 226.964c2.394-4.493 2.091-9.102.005-10.628l.001-.001-.011-.006c-.161-.117-.331-.218-.513-.296l-21.831-12.614c-.039-.024-.079-.047-.119-.069l-.025-.015-.001.001c-.745-.402-1.677-.456-2.769-.037l-8.636 3.313-1.486-3.155c-.38-.808-.895-1.346-1.492-1.645l-22.063-12.737-.001.005c-2.599-1.47-6.912 1.807-8.597 7.332l-8.689 28.492c-.81 2.655-2.375 5.075-4.186 6.471l-19.43 14.982c-4.56 3.516-6.38 12.039-3.081 14.422l14.06 10.155c1.31.947 1.908 3.055 1.599 5.638l-3.319 27.718c-.367 3.066.499 5.101 1.943 5.85v.001l22.026 12.713.002-.003c1.622.976 4.052.244 6.279-2.602l17.379-22.216c1.62-2.07 3.554-3.187 5.174-2.987l17.379 2.148c4.078.504 8.845-6.865 8.066-12.47l-3.319-23.886c-.309-2.226.289-5.025 1.599-7.484z" fill="url(#SVGID_9_)"/><path d="m271.892 203.457 8.689 18.459c.81 1.72 2.375 2.333 4.186 1.638l19.43-7.454c4.56-1.749 6.38 4.671 3.081 10.864l-14.06 26.391c-1.31 2.459-1.908 5.258-1.599 7.484l3.319 23.885c.779 5.605-3.988 12.975-8.066 12.471l-17.379-2.148c-1.619-.2-3.554.917-5.174 2.987l-17.379 22.216c-4.078 5.213-8.845 3.348-8.066-3.157l3.319-27.718c.309-2.583-.289-4.691-1.599-5.638l-14.06-10.155c-3.299-2.383-1.479-10.906 3.081-14.422l19.43-14.982c1.811-1.396 3.376-3.816 4.186-6.471l8.69-28.492c2.04-6.688 7.932-10.09 9.971-5.758z" fill="url(#SVGID_10_)"/><path d="m280.581 221.916c.81 1.72 2.375 2.333 4.186 1.638l19.43-7.454c.992-.381 1.854-.374 2.563-.067l-21.831-12.614c-.039-.024-.079-.047-.119-.069l-.025-.015-.001.001c-.745-.402-1.677-.456-2.769-.037l-8.636 3.313z" fill="url(#SVGID_11_)"/><path d="m229.617 259.159 19.43-14.982c1.811-1.396 3.376-3.816 4.186-6.471l8.689-28.492c1.659-5.44 5.868-8.705 8.478-7.401l-22.063-12.737-.001.005c-2.599-1.47-6.912 1.807-8.597 7.332l-8.689 28.492c-.81 2.655-2.375 5.075-4.186 6.471l-19.43 14.982c-4.56 3.516-6.38 12.039-3.081 14.422l22.183 12.801c-3.3-2.384-1.479-10.906 3.081-14.422z" fill="url(#SVGID_12_)"/></g><g><path d="m409.166 168.654c2.393-4.493 2.091-9.102.005-10.628v-.001l-.011-.006c-.161-.117-.331-.218-.513-.296l-21.831-12.614c-.039-.024-.079-.046-.119-.069l-.025-.014-.001.001c-.745-.402-1.677-.456-2.769-.037l-8.636 3.313-1.486-3.155c-.38-.808-.894-1.346-1.493-1.645l-22.063-12.737-.001.005c-2.599-1.47-6.912 1.807-8.597 7.332l-8.689 28.492c-.81 2.655-2.375 5.075-4.186 6.471l-19.43 14.982c-4.56 3.516-6.38 12.038-3.081 14.422l14.06 10.155c1.31.947 1.908 3.055 1.599 5.638l-3.319 27.718c-.367 3.066.499 5.101 1.943 5.85v.001l22.026 12.713.002-.003c1.623.976 4.052.244 6.279-2.602l17.379-22.216c1.62-2.07 3.554-3.187 5.174-2.987l17.379 2.148c4.078.504 8.845-6.865 8.066-12.47l-3.319-23.886c-.309-2.226.288-5.025 1.599-7.484z" fill="url(#SVGID_13_)"/><path d="m373.78 145.146 8.689 18.459c.81 1.72 2.375 2.333 4.186 1.638l19.43-7.454c4.56-1.749 6.38 4.671 3.081 10.864l-14.06 26.391c-1.31 2.459-1.908 5.258-1.599 7.484l3.319 23.885c.779 5.605-3.988 12.975-8.066 12.471l-17.379-2.148c-1.619-.2-3.554.917-5.174 2.987l-17.379 22.216c-4.078 5.213-8.845 3.348-8.066-3.157l3.319-27.718c.309-2.583-.288-4.691-1.599-5.638l-14.06-10.156c-3.299-2.383-1.479-10.906 3.081-14.422l19.43-14.982c1.811-1.396 3.376-3.816 4.186-6.471l8.69-28.492c2.04-6.687 7.932-10.089 9.971-5.757z" fill="url(#SVGID_14_)"/><path d="m382.47 163.605c.81 1.72 2.375 2.333 4.186 1.638l19.43-7.454c.992-.381 1.854-.374 2.563-.067l-21.831-12.614c-.039-.024-.079-.046-.119-.069l-.025-.014-.001.001c-.745-.402-1.677-.456-2.769-.037l-8.636 3.313z" fill="url(#SVGID_15_)"/><path d="m331.505 200.848 19.43-14.982c1.811-1.396 3.376-3.816 4.186-6.471l8.689-28.492c1.659-5.44 5.868-8.705 8.478-7.401l-22.063-12.737-.001.005c-2.599-1.47-6.912 1.807-8.597 7.332l-8.689 28.492c-.81 2.655-2.375 5.075-4.186 6.471l-19.43 14.982c-4.56 3.516-6.38 12.038-3.081 14.422l22.183 12.801c-3.299-2.384-1.478-10.906 3.081-14.422z" fill="url(#SVGID_16_)"/></g><g><path d="m510.315 110.343c2.394-4.493 2.091-9.102.005-10.628l.001-.001-.011-.006c-.161-.117-.331-.218-.513-.296l-21.831-12.614c-.039-.024-.079-.047-.119-.069l-.025-.014-.001.001c-.745-.402-1.677-.456-2.769-.037l-8.636 3.313-1.486-3.155c-.38-.808-.894-1.346-1.492-1.645l-22.063-12.737-.001.005c-2.599-1.47-6.912 1.807-8.597 7.332l-8.689 28.492c-.81 2.655-2.375 5.075-4.186 6.471l-19.43 14.982c-4.56 3.516-6.38 12.038-3.081 14.422l14.06 10.155c1.31.947 1.908 3.055 1.599 5.638l-3.319 27.718c-.367 3.066.499 5.101 1.943 5.85v.001l22.026 12.713.002-.003c1.622.976 4.052.244 6.278-2.602l17.379-22.216c1.62-2.07 3.554-3.187 5.174-2.987l17.379 2.148c4.078.504 8.845-6.865 8.066-12.471l-3.319-23.885c-.309-2.226.288-5.025 1.599-7.484z" fill="url(#SVGID_17_)"/><path d="m474.929 86.835 8.689 18.459c.81 1.72 2.375 2.333 4.186 1.638l19.43-7.454c4.56-1.749 6.38 4.671 3.081 10.864l-14.06 26.39c-1.31 2.459-1.908 5.258-1.599 7.484l3.319 23.885c.779 5.605-3.988 12.975-8.066 12.471l-17.379-2.148c-1.62-.2-3.554.917-5.174 2.987l-17.379 22.216c-4.078 5.213-8.845 3.348-8.066-3.157l3.319-27.718c.309-2.583-.289-4.691-1.599-5.638l-14.06-10.156c-3.3-2.383-1.479-10.906 3.081-14.422l19.43-14.982c1.811-1.396 3.376-3.816 4.186-6.471l8.69-28.492c2.04-6.686 7.932-10.087 9.971-5.756z" fill="#e9e5f6"/><path d="m483.619 105.294c.81 1.72 2.375 2.333 4.186 1.638l19.43-7.453c.992-.381 1.854-.374 2.563-.067l-21.831-12.614c-.039-.024-.079-.047-.119-.069l-.025-.014-.001.001c-.745-.402-1.677-.456-2.769-.037l-8.636 3.313z" fill="url(#SVGID_18_)"/><path d="m432.654 142.537 19.43-14.982c1.811-1.396 3.376-3.816 4.186-6.471l8.689-28.492c1.659-5.44 5.868-8.705 8.478-7.401l-22.063-12.737-.001.005c-2.599-1.47-6.912 1.807-8.597 7.332l-8.689 28.492c-.81 2.655-2.375 5.075-4.186 6.471l-19.43 14.982c-4.56 3.516-6.38 12.038-3.081 14.422l22.183 12.801c-3.299-2.384-1.478-10.905 3.081-14.422z" fill="url(#SVGID_19_)"/></g></g></svg>