<svg id="Capa_1" enable-background="new 0 0 512 512" height="512" viewBox="0 0 512 512" width="512" xmlns="http://www.w3.org/2000/svg" xmlns:xlink="http://www.w3.org/1999/xlink"><linearGradient id="SVGID_1_" gradientUnits="userSpaceOnUse" x1="350.789" x2="436.022" y1="190.862" y2="43.235"><stop offset="0" stop-color="#c62834"/><stop offset=".1949" stop-color="#c92a36"/><stop offset=".3546" stop-color="#d32f3c"/><stop offset=".5017" stop-color="#e53847"/><stop offset=".6406" stop-color="#fc4455"/><stop offset=".6531" stop-color="#ff4557"/><stop offset=".8422" stop-color="#ff7b86"/></linearGradient><linearGradient id="SVGID_2_" gradientUnits="userSpaceOnUse" x1="374.729" x2="374.729" y1="508.985" y2="14.78"><stop offset="0" stop-color="#ff4557"/><stop offset="1" stop-color="#ff7b86"/></linearGradient><linearGradient id="SVGID_3_" gradientUnits="userSpaceOnUse" x1="77.421" x2="266.599" y1="401.976" y2="74.311"><stop offset=".0547" stop-color="#006568"/><stop offset=".1168" stop-color="#0f7a7a"/><stop offset=".2782" stop-color="#32aca5"/><stop offset=".4196" stop-color="#4cd1c4"/><stop offset=".5341" stop-color="#5be7d7"/><stop offset=".6072" stop-color="#61efde"/><stop offset=".8807" stop-color="#89f2e4"/><stop offset=".8825" stop-color="#86f2e4"/><stop offset=".8958" stop-color="#75f1e1"/><stop offset=".9123" stop-color="#6af0df"/><stop offset=".9355" stop-color="#63efde"/><stop offset="1" stop-color="#61efde"/></linearGradient><linearGradient id="SVGID_4_" gradientTransform="matrix(.866 -.5 0 1.155 -449.854 -714.562)" gradientUnits="userSpaceOnUse" x1="745.629" x2="745.629" y1="1380.024" y2="889.466"><stop offset="0" stop-color="#00daac"/><stop offset="1" stop-color="#61efde"/></linearGradient><g><g><path d="m433.608 136.858c-4.436-2.778-9.506-3.736-14.865-3.071-14.915 1.851-14.005-96.653-14.005-96.653l-59.122-34.078c-7.531-4.494-17.385-4.21-28.208 2.038-23.608 13.63-42.746 50.196-42.746 81.673v163.553l-19.343-11.24.02.08c-8.034-4.726-18.042-3.687-28.077 2.107-10.939 6.316-21.881 18.198-30.226 34.144-16.692 31.895-16.692 67.981 0 80.602 0 0 90.893 68.579 91.962 69.133l58.334 33.689 144.397-288.535z" fill="url(#SVGID_1_)"/><path d="m255.626 389.841 88.876 67.189c8.016 6.06 18.889 5.788 30.226-.757s22.209-18.827 30.226-34.144l88.878-169.816c16.692-31.895 16.692-67.981 0-80.602-16.696-12.618-43.763 3.01-60.452 34.902l-14.637 27.965v-163.341c0-31.477-19.138-45.945-42.746-32.315s-42.745 50.196-42.745 81.673v166.726l-17.174-12.984c-8.347-6.31-19.285-5.558-30.226.758-10.939 6.315-21.881 18.199-30.226 34.144-16.692 31.895-16.692 67.981 0 80.602z" fill="url(#SVGID_2_)"/></g><g><path d="m223.659 87.168-57.767-33.297.045.122c-7.842-4.945-18.034-4.398-28.666 1.74-11.337 6.545-22.209 18.827-30.226 34.144l-88.877 169.816c-16.692 31.895-16.692 67.981 0 80.603.825.623 61.395 35.588 61.395 35.588l13.693 2.354v62.532c0 18.038 6.302 30.452 16.112 35.232l56.977 32.935z" fill="url(#SVGID_3_)"/><path d="m314.963 155.951-88.876-67.189c-8.017-6.06-18.889-5.788-30.226.757-11.337 6.546-22.209 18.827-30.226 34.144l-88.878 169.815c-16.692 31.895-16.692 67.981 0 80.603 16.696 12.618 43.763-3.01 60.452-34.902l14.637-27.966v163.342c0 31.477 19.138 45.945 42.746 32.315s42.746-50.196 42.746-81.673v-166.726l17.174 12.984c8.347 6.31 19.286 5.558 30.226-.758 10.939-6.316 21.881-18.199 30.226-34.144 16.691-31.895 16.691-67.981-.001-80.602z" fill="url(#SVGID_4_)"/></g></g></svg>