<svg id="Capa_1" enable-background="new 0 0 512 512" height="512" viewBox="0 0 512 512" width="512" xmlns="http://www.w3.org/2000/svg" xmlns:xlink="http://www.w3.org/1999/xlink"><linearGradient id="SVGID_1_" gradientUnits="userSpaceOnUse" x1="157.847" x2="182.403" y1="175.406" y2="132.873"><stop offset="0" stop-color="#b096ed"/><stop offset=".2393" stop-color="#c4b1ef"/><stop offset=".5371" stop-color="#d8cdf1"/><stop offset=".8006" stop-color="#e4ddf3"/><stop offset="1" stop-color="#e8e3f3"/></linearGradient><linearGradient id="SVGID_2_" gradientUnits="userSpaceOnUse" x1="290.332" x2="82.164" y1="442.618" y2="82.059"><stop offset="0" stop-color="#b096ed"/><stop offset=".0014" stop-color="#b096ed"/><stop offset=".299" stop-color="#cdbcf3"/><stop offset=".5742" stop-color="#e2d7f7"/><stop offset=".8165" stop-color="#efe8f9"/><stop offset="1" stop-color="#f3eefa"/></linearGradient><linearGradient id="SVGID_3_" gradientUnits="userSpaceOnUse" x1="188.336" x2="188.336" y1="46.956" y2="488.393"><stop offset="0" stop-color="#45356d"/><stop offset=".2699" stop-color="#544081"/><stop offset="1" stop-color="#7e62c0"/></linearGradient><linearGradient id="lg1"><stop offset="0" stop-color="#45356d"/><stop offset=".3855" stop-color="#544081"/><stop offset="1" stop-color="#7e62c0"/></linearGradient><linearGradient id="SVGID_4_" gradientUnits="userSpaceOnUse" x1="238.638" x2="257.605" xlink:href="#lg1" y1="380.759" y2="347.908"/><linearGradient id="lg2"><stop offset="0" stop-color="#322650"/><stop offset=".3855" stop-color="#45356d"/><stop offset="1" stop-color="#5e4990"/></linearGradient><linearGradient id="SVGID_5_" gradientUnits="userSpaceOnUse" x1="228.081" x2="247.045" xlink:href="#lg2" y1="374.641" y2="341.795"/><linearGradient id="SVGID_6_" gradientUnits="userSpaceOnUse" x1="274.611" x2="305.826" y1="417.153" y2="363.088"><stop offset="0" stop-color="#c9baec"/><stop offset=".3855" stop-color="#e8e3f3"/><stop offset="1" stop-color="#e8e3f3"/></linearGradient><linearGradient id="SVGID_7_" gradientUnits="userSpaceOnUse" x1="367.907" x2="332.771" y1="453.632" y2="254.98"><stop offset="0" stop-color="#c9baec"/><stop offset=".3855" stop-color="#e8e3f3"/><stop offset="1" stop-color="#fff"/></linearGradient><linearGradient id="SVGID_8_" gradientUnits="userSpaceOnUse" x1="189.366" x2="189.366" xlink:href="#lg2" y1="430.137" y2="386.322"/><linearGradient id="SVGID_9_" gradientTransform="matrix(.866 .5 0 1.155 -70.599 887.209)" gradientUnits="userSpaceOnUse" x1="298.273" x2="283.039" xlink:href="#lg1" y1="-492.004" y2="-570.925"/><linearGradient id="SVGID_10_" gradientTransform="matrix(.866 .5 0 1.155 -70.599 887.209)" gradientUnits="userSpaceOnUse" x1="294.951" x2="285.343" y1="-509.213" y2="-558.988"><stop offset="0" stop-color="#d9d1ec"/><stop offset=".3855" stop-color="#e8e3f3"/><stop offset="1" stop-color="#f3eefa"/></linearGradient><g><g><path d="m275.78 21.716-33.159-19.176-.009.013c-4.551-2.987-10.635-3.604-16.022-.493l-149.195 85.969c-11.8 6.812-19.069 19.403-19.069 33.028v355.723c0 5.626 2.928 10.221 7.083 12.863l35.835 20.742z" fill="url(#SVGID_1_)"/><path d="m92.745 496.699v-355.723c0-13.625 7.269-26.215 19.069-33.028l149.194-85.97c10.185-5.881 22.917 1.47 22.917 13.231v355.723c0 13.625-7.269 26.215-19.069 33.028l-149.194 85.97c-10.185 5.881-22.917-1.47-22.917-13.231z" fill="url(#SVGID_2_)"/><path d="m259.98 41.811-23.01 13.259c0 8.417-4.49 16.194-11.779 20.402l-70.069 40.454c-5.276 3.046-11.87-.762-11.87-6.853l-23.114 13.319c-6.608 3.815-10.721 10.939-10.721 18.584v344.917c0 3.734 4.04 6.068 7.275 4.204l139.842-80.581c6.608-3.816 10.721-10.939 10.721-18.583v-344.918c0-3.734-4.04-6.068-7.275-4.204z" fill="url(#SVGID_3_)"/></g><g><path d="m321.991 242.945c-21.317 28.792-52.013 49.244-86.794 57.827l-26.529 6.547c-27.668 6.828-47.109 31.65-47.109 60.148v44.52c0 10.113 3.358 17.236 8.664 20.328l55.239 31.929 182.397-213.184-33.081-19.087c-17.826-10.292-40.538-5.571-52.787 10.972z" fill="url(#SVGID_4_)"/><path d="m173.481 418.916v-44.52c0-28.498 19.441-53.32 47.109-60.148l26.529-6.547c34.781-8.584 65.477-29.035 86.794-57.827 12.249-16.544 34.961-21.264 52.787-10.972l-11.922-6.928c-17.827-10.292-40.539-5.572-52.787 10.972-21.317 28.792-52.013 49.244-86.794 57.827l-26.529 6.547c-27.668 6.828-47.109 31.65-47.109 60.148v44.52c0 10.113 3.358 17.236 8.664 20.328l11.113 6.406c-4.834-3.326-7.855-10.219-7.855-19.806z" fill="url(#SVGID_5_)"/><path d="m264.269 486.585 180.019-214.592-36.428-20.934c-.462-.144-10.487-4.715-18.736.047l-147.384 85.093c-13.907 8.029-25.181 29.57-25.181 48.113v59.468c0 10.264 3.458 17.451 8.902 20.466 0 0-.003.001-.009.002z" fill="url(#SVGID_6_)"/><path d="m428.493 273.68-147.384 85.092c-13.907 8.029-25.181 29.57-25.181 48.113v59.468c0 18.543 11.274 27.066 25.181 19.036l147.384-85.092c13.907-8.029 25.181-29.57 25.181-48.113v-59.468c0-18.543-11.274-27.066-25.181-19.036z" fill="url(#SVGID_7_)"/><g><path d="m211.002 413.145c0-13.518-8.219-29.221-18.357-35.074-4.877-2.815-9.305-2.832-12.593-.594l-.002-.004-12.32 7.113 24.448 50.63 11.76-6.857-.001-.003c4.298-1.998 7.065-7.373 7.065-15.211z" fill="url(#SVGID_8_)"/><path d="m198.273 420.521c0-13.518-8.219-29.221-18.357-35.074s-18.357.36-18.357 13.878 8.219 29.221 18.357 35.075c10.138 5.852 18.357-.362 18.357-13.879z" fill="url(#SVGID_9_)"/><path d="m191.494 416.607c0-8.526-5.184-18.43-11.578-22.121-6.394-3.692-11.578.227-11.578 8.753s5.184 18.43 11.578 22.122c6.394 3.69 11.578-.229 11.578-8.754z" fill="url(#SVGID_10_)"/></g></g></g></svg>