<svg id="Capa_1" enable-background="new 0 0 512 512" height="512" viewBox="0 0 512 512" width="512" xmlns="http://www.w3.org/2000/svg" xmlns:xlink="http://www.w3.org/1999/xlink"><linearGradient id="SVGID_1_" gradientTransform="matrix(.866 -.5 0 1.155 39.921 120.983)" gradientUnits="userSpaceOnUse" x1="111.06" x2="361.783" y1="152.59" y2="152.59"><stop offset="0" stop-color="#e37a34"/><stop offset="1" stop-color="#ffa538"/></linearGradient><linearGradient id="SVGID_2_" gradientUnits="userSpaceOnUse" x1="118.783" x2="149.175" y1="306.961" y2="306.961"><stop offset="0" stop-color="#a996eb"/><stop offset="1" stop-color="#d7d1eb"/></linearGradient><g><path d="m385.129 0-212.682 122.792v97.868 97.868l212.682-122.792-45.989-71.316z" fill="url(#SVGID_1_)"/><path d="m185.113 492.645c-.001-.089.004-.178 0-.267v-390.456l-58.235 5.34v390.363h.002c.013 3.85 2.343 7.523 7.101 10.27 10.53 6.08 28.924 5.317 41.083-1.703 6.638-3.833 10.038-8.737 10.05-13.391v-.156z" fill="url(#SVGID_2_)"/><ellipse cx="155.996" cy="104.536" fill="#e9e5f6" rx="29.271" ry="16.56" transform="matrix(.993 -.121 .121 .993 -11.501 19.641)"/></g></svg>