<svg id="Capa_1" enable-background="new 0 0 512 512" height="512" viewBox="0 0 512 512" width="512" xmlns="http://www.w3.org/2000/svg" xmlns:xlink="http://www.w3.org/1999/xlink"><linearGradient id="SVGID_1_" gradientUnits="userSpaceOnUse" x1="217.685" x2="257.371" y1="323.856" y2="323.856"><stop offset="0" stop-color="#221c36"/><stop offset="1" stop-color="#43386b"/></linearGradient><linearGradient id="SVGID_00000088816170999802651930000015815243499571189690_" gradientUnits="userSpaceOnUse" x1="217.685" x2="257.371" y1="281.868" y2="281.868"><stop offset="0" stop-color="#a996eb"/><stop offset="1" stop-color="#d7d1eb"/></linearGradient><linearGradient id="SVGID_00000179636347606201904530000014398290456648383881_" gradientUnits="userSpaceOnUse" x1="129.074" x2="382.941" y1="208.396" y2="208.396"><stop offset="0" stop-color="#ab2c37"/><stop offset="1" stop-color="#ff4757"/></linearGradient><linearGradient id="SVGID_00000114780991793751099560000018305065353723367051_" gradientUnits="userSpaceOnUse" x1="157.617" x2="386.362" y1="89.948" y2="222.014"><stop offset="0" stop-color="#ff4757"/><stop offset="1" stop-color="#ff7a85"/></linearGradient><g><g><path d="m511.993 191.753-511.985 23.667.001 104.68c.003 4.26 2.575 8.328 7.839 11.367l207.774 119.958c11.625 6.712 31.932 5.87 45.356-1.88l239.917-138.516c7.392-4.268 11.146-9.74 11.095-14.917z" fill="url(#SVGID_1_)"/></g><path d="m511.993 191.753-511.985 23.667.001 20.706c.003 4.26 2.575 8.328 7.839 11.367l207.774 119.958c11.625 6.712 31.932 5.87 45.356-1.88l239.917-138.516c7.392-4.268 11.146-9.74 11.095-14.917z" fill="url(#SVGID_00000088816170999802651930000015815243499571189690_)"/><path d="m504.151 180.532-207.774-119.958c-11.625-6.712-31.932-5.87-45.355 1.88l-239.917 138.515c-13.424 7.75-14.882 19.475-3.257 26.186l207.774 119.959c11.625 6.712 31.932 5.87 45.356-1.88l239.917-138.516c13.424-7.75 14.882-19.474 3.256-26.186z" fill="#e9e5f6"/><g fill="#43386b"><path d="m256.614 328.011c12.919-7.458 14.322-18.741 3.134-25.201s-30.73-5.649-43.649 1.809-14.322 18.741-3.134 25.201c11.188 6.459 30.73 5.65 43.649-1.809z"/><path d="m475.681 205.969c12.919-7.459 14.322-18.741 3.134-25.201-11.188-6.459-30.73-5.649-43.649 1.809s-14.322 18.741-3.134 25.201 30.73 5.65 43.649-1.809z"/><path d="m78.027 223.835c12.919-7.458 14.322-18.741 3.134-25.201s-30.73-5.649-43.649 1.809-14.322 18.741-3.134 25.201 30.73 5.65 43.649-1.809z"/></g><path d="m382.941 135.97-253.867 20.441v61.902l.083-.007c.113 16.727 10.21 32.689 30.889 44.628 45.895 26.497 126.06 23.175 179.057-7.422 29.116-16.811 43.879-38.352 43.742-58.751l.091-.008z" fill="url(#SVGID_00000179636347606201904530000014398290456648383881_)"/><path d="m339.102 194.728c52.996-30.596 58.751-76.88 12.855-103.378-45.895-26.498-126.061-23.174-179.057 7.423-52.995 30.596-58.751 76.881-12.855 103.378 45.895 26.497 126.061 23.175 179.057-7.423z" fill="url(#SVGID_00000114780991793751099560000018305065353723367051_)"/></g></svg>