<svg id="Capa_1" enable-background="new 0 0 512 512" height="512" viewBox="0 0 512 512" width="512" xmlns="http://www.w3.org/2000/svg" xmlns:xlink="http://www.w3.org/1999/xlink"><linearGradient id="lg1"><stop offset="0" stop-color="#9e4311"/><stop offset=".648" stop-color="#e2823a"/></linearGradient><linearGradient id="SVGID_1_" gradientUnits="userSpaceOnUse" x1="377.817" x2="122.371" xlink:href="#lg1" y1="480.453" y2="85.809"/><linearGradient id="lg2"><stop offset=".0788" stop-color="#9e4311"/><stop offset=".6472" stop-color="#e2823a"/><stop offset=".7809" stop-color="#e2843c"/><stop offset=".8423" stop-color="#e48944"/><stop offset=".889" stop-color="#e69250"/><stop offset=".9281" stop-color="#eaa062"/><stop offset=".9626" stop-color="#efb17a"/><stop offset=".9934" stop-color="#f5c697"/><stop offset="1" stop-color="#f6cb9e"/></linearGradient><linearGradient id="SVGID_2_" gradientUnits="userSpaceOnUse" x1="196.711" x2="283.557" xlink:href="#lg2" y1="418.591" y2="488.947"/><linearGradient id="SVGID_3_" gradientUnits="userSpaceOnUse" x1="379.984" x2="518.257" xlink:href="#lg2" y1="310.2" y2="414.044"/><linearGradient id="SVGID_4_" gradientUnits="userSpaceOnUse" x1="411.818" x2="411.818" xlink:href="#lg2" y1="150.503" y2="433.366"/><linearGradient id="SVGID_5_" gradientUnits="userSpaceOnUse" x1="219.553" x2="446.057" xlink:href="#lg2" y1="56.69" y2="557.106"/><linearGradient id="lg3"><stop offset="0" stop-color="#76310a"/><stop offset=".799" stop-color="#76310a" stop-opacity="0"/></linearGradient><linearGradient id="SVGID_6_" gradientUnits="userSpaceOnUse" x1="225.395" x2="383.104" xlink:href="#lg3" y1="-107.922" y2="354.102"/><linearGradient id="lg4"><stop offset="0" stop-color="#fff"/><stop offset="1" stop-color="#fff" stop-opacity="0"/></linearGradient><linearGradient id="SVGID_7_" gradientUnits="userSpaceOnUse" x1="191.662" x2="266.143" xlink:href="#lg4" y1="235.033" y2="364.038"/><linearGradient id="SVGID_8_" gradientUnits="userSpaceOnUse" x1="357.219" x2="431.7" xlink:href="#lg4" y1="140.074" y2="269.079"/><linearGradient id="SVGID_9_" gradientUnits="userSpaceOnUse" x1="439.331" x2="183.885" xlink:href="#lg1" y1="440.637" y2="45.992"/><linearGradient id="SVGID_10_" gradientUnits="userSpaceOnUse" x1="149.985" x2="262.284" y1="378.193" y2="146.272"><stop offset=".0788" stop-color="#e2823a"/><stop offset=".1744" stop-color="#e4873e"/><stop offset=".2859" stop-color="#e8954b"/><stop offset=".3903" stop-color="#efa95c"/></linearGradient><linearGradient id="SVGID_11_" gradientUnits="userSpaceOnUse" x1="-58.981" x2="181.99" xlink:href="#lg3" y1="102.461" y2="297.842"/><linearGradient id="SVGID_12_" gradientUnits="userSpaceOnUse" x1="252.195" x2="182.532" y1="171.814" y2="51.155"><stop offset="0" stop-color="#e2823a"/><stop offset=".0074" stop-color="#e3863d"/><stop offset=".0559" stop-color="#ea994e"/><stop offset=".1049" stop-color="#eea559"/><stop offset=".1549" stop-color="#efa95c"/><stop offset=".3389" stop-color="#efab60"/><stop offset=".5375" stop-color="#f1b26d"/><stop offset=".7422" stop-color="#f3bd83"/><stop offset=".9341" stop-color="#f6cb9e"/></linearGradient><linearGradient id="SVGID_13_" gradientUnits="userSpaceOnUse" x1="85.905" x2="53.877" y1="260.165" y2="138.311"><stop offset="0" stop-color="#d35c1a"/><stop offset=".1975" stop-color="#d56320"/><stop offset=".4791" stop-color="#dc7530"/><stop offset=".8096" stop-color="#e7944a"/><stop offset="1" stop-color="#efa95c"/></linearGradient><linearGradient id="SVGID_14_" gradientUnits="userSpaceOnUse" x1="4.088" x2="77.739" y1="379.184" y2="251.619"><stop offset="0" stop-color="#9e4311"/><stop offset=".2075" stop-color="#c96b2b"/><stop offset=".3172" stop-color="#e2823a"/><stop offset=".4818" stop-color="#e4873e"/><stop offset=".6664" stop-color="#e8944a"/><stop offset=".8493" stop-color="#efa95c"/></linearGradient><linearGradient id="SVGID_15_" gradientUnits="userSpaceOnUse" x1="54.651" x2="54.651" y1="447.914" y2="240.576"><stop offset="0" stop-color="#9e4311"/><stop offset=".8157" stop-color="#e2823a"/></linearGradient><linearGradient id="lg5"><stop offset=".0788" stop-color="#e2823a"/><stop offset=".2337" stop-color="#e38640"/><stop offset=".443" stop-color="#e79351"/><stop offset=".6835" stop-color="#eca86e"/><stop offset=".9454" stop-color="#f4c495"/><stop offset="1" stop-color="#f6cb9e"/></linearGradient><linearGradient id="SVGID_16_" gradientUnits="userSpaceOnUse" x1="108.092" x2="141.606" xlink:href="#lg5" y1="223.307" y2="165.26"/><linearGradient id="SVGID_17_" gradientUnits="userSpaceOnUse" x1="294.442" x2="327.956" xlink:href="#lg5" y1="115.459" y2="57.411"/><linearGradient id="SVGID_18_" gradientUnits="userSpaceOnUse" x1="471.355" x2="489.125" xlink:href="#lg3" y1="87.69" y2="242.626"/><g><path d="m501.797 327.165-159.365-92.009-185.072 251.604 39.515 22.814c8.246 4.761 18.77 2.316 24.074-5.591l23.723-35.371c8.21-11.088 25.134-28.242 32.832-35.882 2.543-2.524 3.967-5.951 3.967-9.533v-6.13s-1.512-.184-3.476-.413c-4.428-18.693-9.675-52.337 6.896-61.806 23.323-13.328 72.923 15.873 72.923 15.873l8.075 4.698c2.884 1.678 6.324 2.093 9.522 1.143 3.943-1.172 9.347-2.74 12.822-3.598l111.135-27.427c.062-.015.125-.031.187-.048 8.558-2.237 9.902-13.902 2.242-18.324z" fill="url(#SVGID_1_)"/><path d="m220.161 492.271c.27-.346.54-.691.788-1.06l23.723-35.371c10.282-13.887 21.901-26.578 34.604-37.973l-71.019 34.857 5.908 47.621 6.007-8.074c0-.001-.01 0-.011 0z" fill="url(#SVGID_2_)"/><path d="m370.43 365.428 123.815-31.821-32.236-21.053-57.17 21.053z" fill="url(#SVGID_3_)"/><path d="m325.95 223.855v-99.663l168.295 5.654 3.441 206.006z" fill="url(#SVGID_4_)"/><path d="m183.285 227.557 18.316 268.48 6.281-36.763 73.587-42.486 20.958-80.53c3.902-14.995 13.199-28.69 23.522-34.65 10.323-5.96 19.62-3 23.522 7.489l20.958 56.331 91.579-52.874v-199.21c-40.681-16.245-278.723 114.213-278.723 114.213z" fill="url(#SVGID_5_)"/><path d="m207.883 213.356v99.337l22.099-32.949c37.235-50.292 90.852-86.014 151.605-101.008l80.422-19.848v-45.543c-40.682-16.246-254.126 100.011-254.126 100.011z" fill="url(#SVGID_6_)"/><g><g><ellipse cx="243.647" cy="325.072" fill="#5e4990" rx="54.903" ry="31.061" transform="matrix(.392 -.92 .92 .392 -150.871 421.983)"/><ellipse cx="243.646" cy="325.072" fill="#322650" rx="43.181" ry="24.429" transform="matrix(.392 -.92 .92 .392 -150.871 421.982)"/><path d="m271.774 308.833c0-20.713-12.593-30.233-28.128-21.264s-28.128 33.03-28.128 53.743 12.593 30.233 28.128 21.264 28.128-33.03 28.128-53.743z" fill="url(#SVGID_7_)"/></g><g><ellipse cx="409.203" cy="230.113" fill="#5e4990" rx="54.903" ry="31.061" transform="matrix(.392 -.92 .92 .392 37.24 516.544)"/><ellipse cx="409.203" cy="230.113" fill="#322650" rx="43.181" ry="24.429" transform="matrix(.392 -.92 .92 .392 37.239 516.543)"/><path d="m437.331 213.874c0-20.713-12.593-30.233-28.128-21.264-15.534 8.969-28.128 33.031-28.128 53.743 0 20.713 12.593 30.233 28.128 21.264s28.128-33.03 28.128-53.743z" fill="url(#SVGID_8_)"/></g></g><path d="m506.808 122.188v-11.526l-199.149 54.407-106.057 96.216v246.3l12.563-7.241v-214.047l15.817-23.584c37.235-50.292 90.852-86.014 151.605-101.008l112.657-27.803v208.578l12.563-7.253v-213.022c0-.005.001-.011.001-.017z" fill="url(#SVGID_9_)"/><path d="m501.663 100.839-149.016-86.034c-12.021-6.94-26.832-6.94-38.853 0l-289.678 167.07c-11.783 6.795-19.042 19.363-19.042 32.964 0 0 .008 119.67.014 166.395.001 10.915 5.825 20.995 15.278 26.452l169.139 97.652h.035l7.336 4.235c.015.009.03.017.045.026 2.085 1.195 4.681-.419 4.681-2.822v-209.054c0-3.453 1.029-6.828 2.957-9.693l.371-.551 25.052-37.354c37.235-50.292 90.852-86.014 151.605-101.008l117.362-28.964c9.178-2.288 10.906-14.584 2.714-19.314z" fill="url(#SVGID_10_)"/><path d="m19.978 184.639 113.709 58.364-87.811-73.679-21.761 12.551c-1.449.836-2.829 1.761-4.137 2.764z" fill="url(#SVGID_11_)"/><path d="m426.611 74.324c0-4.814-5.211-13.841-9.381-16.25l-97.007-55.966c-3.791-2.19-6.865-2.642-9.027-1.503l-.009-.005-.077.044c-.053.03-.107.06-.159.092l-292.93 168.676 115.667 73.59z" fill="url(#SVGID_12_)"/><path d="m24.116 181.875.273-.157c.062-.041.126-.077.193-.111l1.325-.764 2.42 1.397 105.361 60.764c0-4.814-5.211-13.841-9.381-16.25l-97.007-55.968c-7.775-4.491-12.564-1.727-12.564 7.25v11.481c2.663-2.988 5.81-5.583 9.38-7.642z" fill="url(#SVGID_13_)"/><g><g><g><path d="m51.31 249.459-12.842 7.414c-8.382 4.839-15.176 17.822-15.176 28.997v67.866c0 6.359 2.204 10.753 5.643 12.477l-.002.01 16.979 9.818 22.748-116.565z" fill="url(#SVGID_14_)"/><path d="m55.819 266.891c-8.382 4.839-15.176 17.822-15.176 28.997v67.866c0 11.176 6.795 16.312 15.176 11.473l12.842-7.414v-108.337z" fill="url(#SVGID_15_)"/><path d="m170.609 135.229c-.057-.032-.112-.068-.17-.098l-.046-.027-.005.005c-2.609-1.318-5.932-1.098-9.555.994l-50.9 29.387c-8.382 4.839-15.176 17.822-15.176 28.997v1.543l17.553 10.041 76.081-60.681z" fill="url(#SVGID_16_)"/><path d="m178.385 146.144-50.9 29.387c-8.382 4.839-15.176 17.822-15.176 28.997v1.543l81.253-46.911v-1.543c0-11.175-6.795-16.312-15.177-11.473z" fill="#e2823a"/><path d="m356.959 27.38c-.057-.031-.112-.068-.17-.098l-.046-.027-.005.005c-2.609-1.318-5.932-1.098-9.556.994l-50.899 29.387c-8.382 4.839-15.176 17.822-15.176 28.997v1.543l17.553 10.041 76.081-60.681z" fill="url(#SVGID_17_)"/><path d="m364.735 38.296-50.9 29.387c-8.382 4.839-15.177 17.822-15.177 28.998v1.542l81.253-46.911v-1.542c0-11.177-6.794-16.314-15.176-11.474z" fill="#e2823a"/></g></g></g><path d="m462.009 159.571 32.235 25.416v-51.085l-32.235 7.956z" fill="url(#SVGID_18_)"/></g></svg>