<svg id="Capa_1" enable-background="new 0 0 512 512" height="512" viewBox="0 0 512 512" width="512" xmlns="http://www.w3.org/2000/svg" xmlns:xlink="http://www.w3.org/1999/xlink"><linearGradient id="lg1"><stop offset="0" stop-color="#43386b"/><stop offset="1" stop-color="#594a8e"/></linearGradient><linearGradient id="SVGID_1_" gradientUnits="userSpaceOnUse" x1="489.226" x2="489.226" xlink:href="#lg1" y1="155.857" y2="335.143"/><linearGradient id="SVGID_00000047023241126875326460000008682957038647212437_" gradientUnits="userSpaceOnUse" x1="180.283" x2="200.273" xlink:href="#lg1" y1="271.076" y2="236.453"/><linearGradient id="SVGID_00000067202766653108677280000018207840099113936525_" gradientTransform="matrix(.866 -.5 0 1.155 37.013 91.954)" gradientUnits="userSpaceOnUse" x1="385.475" x2="385.475" y1="265.804" y2="471.545"><stop offset="0" stop-color="#d7d1eb"/><stop offset="1" stop-color="#f2effa"/></linearGradient><linearGradient id="SVGID_00000127756659224485034680000005557188660048386438_" gradientTransform="matrix(.866 -.5 0 1.155 37.013 91.954)" gradientUnits="userSpaceOnUse" x1="446.27" x2="446.27" y1="385.303" y2="331.437"><stop offset="0" stop-color="#a996eb"/><stop offset="1" stop-color="#fff"/></linearGradient><linearGradient id="SVGID_00000053519028502140650370000003192014686036185763_" gradientUnits="userSpaceOnUse" x1="428.214" x2="431.64" y1="341.505" y2="335.57"><stop offset="0" stop-color="#43386b"/><stop offset="1" stop-color="#7662bd"/></linearGradient><linearGradient id="lg2"><stop offset="0" stop-color="#221c36"/><stop offset="1" stop-color="#43386b"/></linearGradient><linearGradient id="SVGID_00000063597933211673631580000005138286473162074279_" gradientUnits="userSpaceOnUse" x1="428.071" x2="476.382" xlink:href="#lg2" y1="314.972" y2="398.648"/><linearGradient id="SVGID_00000008853601702650806870000007215387922631473329_" gradientUnits="userSpaceOnUse" x1="459.321" x2="451.171" xlink:href="#lg2" y1="338.603" y2="352.719"/><linearGradient id="SVGID_00000054246901602195455970000000551623266985587886_" gradientUnits="userSpaceOnUse" x1="445.206" x2="445.206" xlink:href="#lg1" y1="423.349" y2="320.05"/><linearGradient id="SVGID_00000062177829888039753670000001363862433083451827_" gradientUnits="userSpaceOnUse" x1="270.695" x2="315.978" xlink:href="#lg2" y1="436.949" y2="436.949"/><linearGradient id="SVGID_00000113322815887272546380000012219202417834240386_" gradientTransform="matrix(.866 -.5 0 1.155 37.013 91.954)" gradientUnits="userSpaceOnUse" x1="467.975" x2="432.671" y1="360.202" y2="324.899"><stop offset="0" stop-color="#fff"/><stop offset="1" stop-color="#fff" stop-opacity="0"/></linearGradient><linearGradient id="SVGID_00000052092396038324483300000012002342817256645255_" gradientUnits="userSpaceOnUse" x1="285.52" x2="309.824" xlink:href="#lg1" y1="439.555" y2="431.83"/><linearGradient id="lg3"><stop offset="0" stop-color="#ab2c37"/><stop offset="1" stop-color="#ff4757"/></linearGradient><linearGradient id="SVGID_00000170270273672798508060000010170698766955842959_" gradientUnits="userSpaceOnUse" x1="346.556" x2="353.014" xlink:href="#lg3" y1="415.535" y2="404.349"/><linearGradient id="SVGID_00000155137959327779306480000013828955905517942949_" gradientUnits="userSpaceOnUse" x1="359.382" x2="359.382" y1="443.514" y2="415.05"><stop offset="0" stop-color="#ff4757"/><stop offset="1" stop-color="#ff7a85"/></linearGradient><linearGradient id="SVGID_00000043421531635395151160000010607792562071448733_" gradientUnits="userSpaceOnUse" x1="363.37" x2="356.734" xlink:href="#lg3" y1="412.051" y2="423.544"/><linearGradient id="lg4"><stop offset="0" stop-color="#2f878a"/><stop offset="1" stop-color="#06daae"/></linearGradient><linearGradient id="SVGID_00000145747306387916260050000001427284020227162287_" gradientUnits="userSpaceOnUse" x1="384.405" x2="390.863" xlink:href="#lg4" y1="393.966" y2="382.78"/><linearGradient id="SVGID_00000160190499808974757400000002740433967157301158_" gradientUnits="userSpaceOnUse" x1="397.231" x2="397.231" y1="421.945" y2="393.481"><stop offset="0" stop-color="#06daae"/><stop offset="1" stop-color="#9bf0df"/></linearGradient><linearGradient id="SVGID_00000057846864668314847110000014486839597389867144_" gradientUnits="userSpaceOnUse" x1="401.219" x2="394.583" xlink:href="#lg4" y1="390.482" y2="401.975"/><g><path d="m494.895 368.83-17.034-9.835v-213.336l22.731 7.845z" fill="url(#SVGID_1_)"/><path d="m255.496 2.071-.009.005c-5.026-3.045-11.633-2.852-18.866 1.324l-200.585 115.807c-15.694 9.061-28.462 33.456-28.462 54.381v200.21l239.344 138.202 247.887-371.748z" fill="url(#SVGID_00000047023241126875326460000008682957038647212437_)"/><path d="m471.126 151.496-200.584 115.808c-10.456 6.037-18.932 22.232-18.932 36.173v200.21l238.448-137.668v-200.21c0-13.941-8.476-20.349-18.932-14.313z" fill="url(#SVGID_00000067202766653108677280000018207840099113936525_)"/><path d="m470.357 185.216-93.749 54.126v85.446l93.749-54.126z" fill="url(#SVGID_00000127756659224485034680000005557188660048386438_)"/><g><path d="m470.357 303.46-4.992-2.874-.007.011c-.81-.438-1.839-.371-2.926.257l-44.689 25.801c-1.59.918-3.066 2.875-3.894 5.163l-10.006 27.652c-.889 2.458-.889 4.903 0 6.334l10.006 16.098c.283.456.647.775 1.06.974l4.907 2.85z" fill="url(#SVGID_00000053519028502140650370000003192014686036185763_)"/><path d="m467.551 303.793-44.689 25.801c-1.59.918-3.066 2.875-3.894 5.163l-10.006 27.652c-.889 2.458-.889 4.902 0 6.333l10.006 16.098c.828 1.332 2.304 1.585 3.894.667l44.689-25.801c1.591-.918 3.066-2.875 3.894-5.163l10.006-27.652c.889-2.458.889-4.902 0-6.333l-10.006-16.098c-.828-1.333-2.304-1.585-3.894-.667z" fill="url(#SVGID_00000063597933211673631580000005138286473162074279_)"/><path d="m481.451 320.558-10.006-16.098c-.828-1.332-2.304-1.585-3.894-.667l-2.278 1.315 5.916 9.517c.889 1.431.889 3.875 0 6.333l-10.006 27.652c-.828 2.289-2.304 4.245-3.894 5.163l-42.411 24.486 4.09 6.581c.828 1.332 2.304 1.585 3.894.667l44.689-25.801c1.59-.918 3.066-2.875 3.894-5.163l10.006-27.652c.89-2.458.89-4.902 0-6.333z" fill="url(#SVGID_00000008853601702650806870000007215387922631473329_)"/><g fill="#221c36"><path d="m425.352 353.268v-25.112l-2.49 1.438c-1.591.918-3.066 2.875-3.894 5.163l-2.048 5.661v17.718c0 3.105 1.888 4.532 4.216 3.187 2.328-1.343 4.216-4.95 4.216-8.055z"/><path d="m438.342 320.656v25.111c0 3.105 1.887 4.532 4.216 3.187 2.329-1.344 4.216-4.951 4.216-8.056v-25.112z"/></g><path d="m467.878 311.228 7.631 12.276c-.02.248-.087.647-.266 1.141l-10.007 27.653c-.34.939-.833 1.55-1.041 1.723l-41.661 24.053-7.631-12.276c.02-.248.087-.647.266-1.141l10.006-27.652c.34-.939.833-1.551 1.041-1.724zm1.485-7.981c-.563 0-1.179.18-1.812.546l-44.689 25.801c-1.59.918-3.066 2.875-3.894 5.163l-10.006 27.652c-.889 2.458-.889 4.902 0 6.333l10.006 16.098c.498.802 1.231 1.212 2.082 1.212.563 0 1.178-.18 1.812-.546l44.689-25.801c1.59-.918 3.066-2.875 3.894-5.163l10.006-27.652c.889-2.458.889-4.902 0-6.333l-10.006-16.098c-.498-.801-1.231-1.212-2.082-1.212z" fill="url(#SVGID_00000054246901602195455970000000551623266985587886_)"/></g><path d="m315.978 407.649-45.283 26.144v32.457l45.283-26.144z" fill="url(#SVGID_00000062177829888039753670000001363862433083451827_)"/><path d="m256.447 306.288c0-13.941 8.476-30.136 18.932-36.173l200.584-115.807c10.456-6.037 18.932.371 18.932 14.312v200.21l9.53-5.502v-200.21c0-20.925-12.768-30.577-28.462-21.516l-200.584 115.806c-15.694 9.061-28.462 33.456-28.462 54.381v200.211l9.53-5.502z" fill="#7662bd"/><path d="m423.483 229.551-3.567 59.727 3.567-2.059 3.566-2.059z" fill="#ff4757"/><path d="m423.483 281.918c-6.504 3.755-11.775 13.828-11.775 22.499l23.551-13.597c-.001-8.671-5.273-12.656-11.776-8.902z" fill="#43386b"/><ellipse cx="314.82" cy="321.814" fill="#221c36" rx="62.898" ry="35.584" transform="matrix(.392 -.92 .92 .392 -104.567 485.491)"/><g><path d="m383.223 301.998c-.935 0-1.693-.758-1.693-1.693 0-30.138 18.44-65.304 41.105-78.39 10.228-5.904 20.184-6.658 28.037-2.124 9.382 5.417 14.763 17.818 14.763 34.026 0 .935-.758 1.692-1.692 1.692s-1.693-.758-1.693-1.692c0-14.965-4.764-26.298-13.07-31.094-6.761-3.903-15.517-3.15-24.651 2.124-21.733 12.548-39.414 46.398-39.414 75.459 0 .934-.758 1.692-1.692 1.692z" fill="#221c36"/></g><path d="m463.338 189.269-86.73 50.073v85.446l22.645-13.074z" fill="url(#SVGID_00000113322815887272546380000012219202417834240386_)"/><g><g><g><path d="m304.429 392.208c-5.548 0-10.646-1.672-14.992-4.957-18.024-13.626-18.303-52.197-.623-85.98 11.542-22.051 27.992-37.361 44.007-40.953 8.136-1.825 15.632-.377 21.674 4.19 18.024 13.625 18.3 52.198.622 85.98h.001c-11.542 22.051-27.992 37.361-44.007 40.953-2.284.513-4.517.767-6.682.767zm35.135-128.267c-1.853 0-3.78.224-5.78.673-14.547 3.263-30.284 18.092-41.07 38.7-16.726 31.961-17.006 68.041-.622 80.427 5.046 3.815 11.121 4.961 18.056 3.406 14.547-3.263 30.284-18.092 41.07-38.7 16.727-31.962 17.007-68.041.622-80.427-3.591-2.715-7.705-4.079-12.276-4.079z" fill="#fff"/></g><g><path d="m308.225 378.311c-4.448 0-8.537-1.342-12.026-3.98-14.538-10.991-14.811-40.837-.623-67.948 9.105-17.395 22.11-29.478 34.788-32.322 6.517-1.463 12.523-.297 17.369 3.367 14.538 10.991 14.811 40.837.623 67.948 0 0 0 0-.001 0-9.104 17.395-22.109 29.478-34.787 32.322-1.824.41-3.611.613-5.343.613zm27.519-100.468c-1.414 0-2.887.171-4.417.514-11.261 2.526-23.465 14.047-31.851 30.068-12.998 24.837-13.278 52.828-.622 62.395 3.836 2.9 8.46 3.77 13.752 2.583 11.26-2.526 23.465-14.049 31.85-30.069 12.999-24.837 13.279-52.828.623-62.395-2.728-2.061-5.855-3.096-9.335-3.096zm10.662 66.513h.011z" fill="#fff"/></g><g><path d="m312.022 364.414c-3.346 0-6.427-1.013-9.06-3.003-10.746-8.124-11.02-30.049-.623-49.915 6.668-12.738 16.225-21.595 25.568-23.69 4.894-1.097 9.409-.218 13.064 2.544 10.746 8.124 11.02 30.049.623 49.915-6.668 12.738-16.225 21.595-25.568 23.69-1.368.307-2.706.459-4.004.459zm19.901-72.669c-.977 0-1.995.118-3.053.356-7.976 1.789-16.648 10.003-22.631 21.437-9.114 17.413-9.398 37.729-.623 44.363 2.625 1.984 5.804 2.577 9.446 1.76 7.976-1.789 16.648-10.003 22.631-21.437 9.114-17.413 9.399-37.729.623-44.363-1.863-1.409-4.005-2.116-6.393-2.116z" fill="#fff"/></g><g><path d="m315.819 350.517c-2.246 0-4.319-.683-6.094-2.026-6.955-5.258-7.229-19.262-.622-31.883 4.228-8.082 10.34-13.712 16.347-15.059 3.269-.733 6.298-.139 8.759 1.72 6.955 5.257 7.229 19.262.622 31.883-4.23 8.082-10.342 13.712-16.349 15.059-.91.204-1.799.306-2.663.306zm12.284-44.871c-.539 0-1.104.065-1.69.197-4.689 1.052-9.828 5.959-13.411 12.805-5.448 10.409-5.734 22.467-.623 26.331 1.414 1.069 3.142 1.385 5.14.937 4.689-1.052 9.829-5.959 13.413-12.806 5.448-10.409 5.733-22.467.622-26.331-1-.754-2.155-1.133-3.451-1.133z" fill="#fff"/></g></g><g><path d="m332.879 307.226c-.344 0-.692-.081-1.019-.251-1.077-.564-1.493-1.893-.93-2.97l26.041-49.753-5.3-3.015c-1.056-.601-1.425-1.945-.824-3.001.601-1.057 1.943-1.426 3.001-.825l7.146 4.066c1.031.586 1.411 1.883.862 2.933l-27.025 51.636c-.393.75-1.159 1.18-1.952 1.18z" fill="#fff"/></g><g><path d="m311.049 319.829c-.462 0-.927-.145-1.325-.445l-26.911-20.344-7.021-3.995c-1.056-.601-1.425-1.945-.824-3.001s1.944-1.426 3.001-.824l7.146 4.066c.083.047.162.1.239.157l27.025 20.43c.969.733 1.162 2.113.429 3.083-.434.572-1.092.873-1.759.873z" fill="#fff"/></g><g><path d="m284.027 400.572c-.378 0-.753-.097-1.089-.288l-7.146-4.066c-1.056-.601-1.425-1.945-.824-3.001s1.944-1.426 3.001-.825l5.164 2.939 25.968-49.616c.564-1.076 1.892-1.493 2.971-.929 1.077.564 1.493 1.893.93 2.97l-27.025 51.636c-.277.529-.758.923-1.33 1.091-.203.059-.412.089-.62.089z" fill="#fff"/></g><g><path d="m359.904 356.763c-.37 0-.744-.093-1.086-.288l-7.146-4.066c-.785-.446-1.19-1.302-1.1-2.145l-19.017-14.376c-.969-.733-1.162-2.113-.429-3.083s2.112-1.162 3.083-.428l27.025 20.43c.925.699 1.149 1.997.51 2.966-.421.639-1.122.99-1.84.99z" fill="#fff"/></g></g><path d="m315.978 407.649 6.874 3.933-29.516 16.768v-7.629z" fill="#221c36"/><path d="m322.852 411.582-29.516 9.139v32.457l29.516-9.138z" fill="url(#SVGID_00000052092396038324483300000012002342817256645255_)"/><g fill="#221c36"><path d="m87.991 324.835c2.329 1.344 4.216 4.951 4.216 8.056v60.556c0 3.105-1.888 4.532-4.216 3.187-2.329-1.344-4.216-4.951-4.216-8.056v-60.556c0-3.104 1.888-4.531 4.216-3.187z"/><path d="m66.568 312.466c2.329 1.344 4.216 4.951 4.216 8.056v60.556c0 3.105-1.888 4.532-4.216 3.187-2.329-1.344-4.216-4.951-4.216-8.056v-60.556c0-3.104 1.887-4.531 4.216-3.187z"/><path d="m130.838 349.573c2.329 1.344 4.216 4.951 4.216 8.056v60.556c0 3.105-1.888 4.532-4.216 3.188-2.329-1.345-4.216-4.951-4.216-8.056v-60.557c0-3.105 1.888-4.532 4.216-3.187z"/><path d="m109.415 337.204c2.329 1.344 4.216 4.951 4.216 8.056v60.556c0 3.105-1.888 4.532-4.216 3.188-2.329-1.344-4.216-4.951-4.216-8.056v-60.556c0-3.105 1.887-4.533 4.216-3.188z"/><path d="m173.685 374.31c2.329 1.345 4.216 4.951 4.216 8.056v60.556c0 3.105-1.888 4.532-4.216 3.188-2.329-1.344-4.216-4.951-4.216-8.056v-60.556c0-3.105 1.887-4.532 4.216-3.188z"/><path d="m152.262 361.941c2.329 1.344 4.216 4.951 4.216 8.056v60.556c0 3.105-1.888 4.532-4.216 3.188-2.329-1.344-4.216-4.951-4.216-8.056v-60.556c-.001-3.105 1.887-4.532 4.216-3.188z"/></g><path d="m351.709 394.857-.002.004c-1.952-1.116-4.491-1.008-7.27.596-6.156 3.554-11.146 13.089-11.146 21.297 0 4.466 1.479 7.614 3.818 8.988l-.002.004 15.021 8.684 14.699-30.829z" fill="url(#SVGID_00000170270273672798508060000010170698766955842959_)"/><path d="m370.528 412.523c0-8.208-4.99-11.98-11.146-8.426s-11.146 13.089-11.146 21.297 4.99 11.98 11.146 8.426 11.146-13.089 11.146-21.297z" fill="url(#SVGID_00000155137959327779306480000013828955905517942949_)"/><path d="m367.148 414.475c0-5.719-3.477-8.347-7.766-5.871s-7.766 9.12-7.766 14.838 3.477 8.347 7.766 5.871 7.766-9.12 7.766-14.838z" fill="url(#SVGID_00000043421531635395151160000010607792562071448733_)"/><path d="m389.558 373.288-.002.004c-1.952-1.116-4.491-1.008-7.27.596-6.156 3.554-11.146 13.089-11.146 21.296 0 4.466 1.479 7.615 3.818 8.988l-.002.004 15.021 8.684 14.699-30.829z" fill="url(#SVGID_00000145747306387916260050000001427284020227162287_)"/><path d="m408.377 390.954c0-8.208-4.99-11.98-11.146-8.426s-11.146 13.089-11.146 21.297 4.99 11.98 11.146 8.426 11.146-13.089 11.146-21.297z" fill="url(#SVGID_00000160190499808974757400000002740433967157301158_)"/><path d="m404.997 392.906c0-5.719-3.477-8.347-7.766-5.871s-7.766 9.12-7.766 14.838c0 5.719 3.477 8.347 7.766 5.871s7.766-9.12 7.766-14.838z" fill="url(#SVGID_00000057846864668314847110000014486839597389867144_)"/></g></svg>