<svg width="35" height="41" viewBox="0 0 35 41" fill="none" xmlns="http://www.w3.org/2000/svg">
<path d="M0.281216 6.05777C0.125905 4.96417 0.886535 3.95173 1.98013 3.79642L18.0457 1.51481C18.5383 1.44485 19.0393 1.56101 19.4508 1.84059L24.9596 5.58307L29.2289 8.41422C29.705 8.72995 30.0233 9.2342 30.1037 9.7998L33.6332 34.6523C33.7885 35.7459 33.0279 36.7583 31.9343 36.9136L7.18262 40.4288C6.08903 40.5841 5.07659 39.8235 4.92128 38.7299L0.281216 6.05777Z" fill="#B9C0FE"/>
<path d="M5.45718 3.85492C5.45718 2.75035 6.35261 1.85492 7.45718 1.85492H23.684C24.1815 1.85492 24.6612 2.04036 25.0293 2.37504L29.9572 6.85492L33.7859 10.2582C34.2129 10.6378 34.4572 11.1818 34.4572 11.7531V36.8549C34.4572 37.9595 33.5618 38.8549 32.4572 38.8549H7.45718C6.35261 38.8549 5.45718 37.9595 5.45718 36.8549V3.85492Z" fill="#4F62FC"/>
<path d="M14.0261 34.8549V28.3095H16.6085C17.1049 28.3095 17.5279 28.4043 17.8773 28.5939C18.2267 28.7814 18.4931 29.0424 18.6763 29.3769C18.8617 29.7093 18.9543 30.0928 18.9543 30.5275C18.9543 30.9622 18.8606 31.3457 18.6731 31.6781C18.4856 32.0105 18.2139 32.2693 17.8581 32.4547C17.5044 32.6401 17.0761 32.7328 16.5733 32.7328H14.9274V31.6237H16.3496C16.6159 31.6237 16.8354 31.5779 17.008 31.4863C17.1827 31.3926 17.3127 31.2637 17.3979 31.0996C17.4852 30.9334 17.5289 30.7427 17.5289 30.5275C17.5289 30.3102 17.4852 30.1205 17.3979 29.9586C17.3127 29.7945 17.1827 29.6678 17.008 29.5783C16.8332 29.4867 16.6117 29.4409 16.3432 29.4409H15.41V34.8549H14.0261ZM21.9035 34.8549H19.5832V28.3095H21.9227C22.5811 28.3095 23.1479 28.4405 23.623 28.7026C24.0981 28.9625 24.4636 29.3365 24.7192 29.8244C24.977 30.3123 25.106 30.8961 25.106 31.5758C25.106 32.2576 24.977 32.8436 24.7192 33.3336C24.4636 33.8237 24.096 34.1997 23.6166 34.4618C23.1393 34.7239 22.5683 34.8549 21.9035 34.8549ZM20.9671 33.6692H21.846C22.2551 33.6692 22.5992 33.5968 22.8783 33.4519C23.1596 33.3048 23.3705 33.0779 23.5111 32.7711C23.6539 32.4622 23.7253 32.0637 23.7253 31.5758C23.7253 31.0921 23.6539 30.6969 23.5111 30.3901C23.3705 30.0833 23.1606 29.8574 22.8815 29.7125C22.6024 29.5676 22.2583 29.4952 21.8492 29.4952H20.9671V33.6692ZM25.8611 34.8549V28.3095H30.1949V29.4504H27.245V31.0101H29.9072V32.1511H27.245V34.8549H25.8611Z" fill="white"/>
</svg>
