<svg width="211" height="41" viewBox="0 0 211 41" fill="none" xmlns="http://www.w3.org/2000/svg">
<rect x="144.406" y="8.12012" width="63" height="31" rx="4" transform="rotate(-4.05086 144.406 8.12012)" fill="#B9C0FE"/>
<rect x="145.457" y="5.85492" width="63" height="31" rx="4" fill="#4F62FC"/>
<path d="M151.227 31.8549V11.4913H159.261C160.806 11.4913 162.121 11.7863 163.209 12.3762C164.296 12.9596 165.124 13.7716 165.694 14.8123C166.271 15.8464 166.559 17.0396 166.559 18.3919C166.559 19.7441 166.268 20.9373 165.684 21.9714C165.101 23.0055 164.256 23.8109 163.149 24.3876C162.049 24.9643 160.716 25.2526 159.152 25.2526H154.031V21.8024H158.456C159.284 21.8024 159.967 21.6598 160.504 21.3748C161.048 21.0831 161.452 20.6821 161.717 20.1717C161.989 19.6546 162.125 19.0614 162.125 18.3919C162.125 17.7157 161.989 17.1258 161.717 16.622C161.452 16.1115 161.048 15.7171 160.504 15.4387C159.96 15.1537 159.271 15.0112 158.436 15.0112H155.532V31.8549H151.227ZM175.735 31.8549H168.516V11.4913H175.794C177.843 11.4913 179.606 11.899 181.084 12.7143C182.562 13.523 183.699 14.6864 184.495 16.2044C185.297 17.7223 185.698 19.5386 185.698 21.6532C185.698 23.7744 185.297 25.5973 184.495 27.122C183.699 28.6466 182.556 29.8166 181.064 30.6319C179.579 31.4472 177.803 31.8549 175.735 31.8549ZM172.821 28.166H175.556C176.828 28.166 177.899 27.9406 178.767 27.4899C179.642 27.0325 180.299 26.3265 180.736 25.372C181.18 24.4108 181.402 23.1712 181.402 21.6532C181.402 20.1485 181.18 18.9188 180.736 17.9643C180.299 17.0097 179.646 16.3071 178.777 15.8563C177.909 15.4056 176.838 15.1802 175.566 15.1802H172.821V28.166ZM188.047 31.8549V11.4913H201.53V15.041H192.352V19.8933H200.635V23.443H192.352V31.8549H188.047Z" fill="white"/>
<path d="M0.281216 6.05777C0.125905 4.96417 0.886535 3.95173 1.98013 3.79642L18.0457 1.51481C18.5383 1.44485 19.0393 1.56101 19.4508 1.84059L24.9596 5.58307L29.2289 8.41422C29.705 8.72995 30.0233 9.2342 30.1037 9.7998L33.6332 34.6523C33.7885 35.7459 33.0279 36.7583 31.9343 36.9136L7.18262 40.4288C6.08903 40.5841 5.07659 39.8235 4.92128 38.7299L0.281216 6.05777Z" fill="#B9C0FE"/>
<path d="M5.45718 3.85492C5.45718 2.75035 6.35261 1.85492 7.45718 1.85492H23.684C24.1815 1.85492 24.6612 2.04036 25.0293 2.37504L29.9572 6.85492L33.7859 10.2582C34.2129 10.6378 34.4572 11.1818 34.4572 11.7531V36.8549C34.4572 37.9595 33.5618 38.8549 32.4572 38.8549H7.45718C6.35261 38.8549 5.45718 37.9595 5.45718 36.8549V3.85492Z" fill="#4F62FC"/>
<path d="M56.1049 16.2754C56.014 15.3587 55.6239 14.6466 54.9345 14.139C54.2451 13.6314 53.3095 13.3776 52.1276 13.3776C51.3246 13.3776 50.6466 13.4913 50.0935 13.7186C49.5405 13.9383 49.1163 14.2451 48.8208 14.639C48.5329 15.0329 48.389 15.4799 48.389 15.9799C48.3739 16.3966 48.461 16.7602 48.6504 17.0708C48.8473 17.3814 49.1163 17.6504 49.4572 17.8776C49.7981 18.0973 50.192 18.2905 50.639 18.4572C51.086 18.6163 51.5632 18.7526 52.0708 18.8663L54.1617 19.3663C55.1769 19.5936 56.1087 19.8966 56.9572 20.2754C57.8057 20.6542 58.5405 21.1201 59.1617 21.6731C59.7829 22.2261 60.264 22.8776 60.6049 23.6276C60.9534 24.3776 61.1314 25.2375 61.139 26.2072C61.1314 27.6314 60.7678 28.8663 60.0481 29.9117C59.336 30.9496 58.3057 31.7564 56.9572 32.3322C55.6163 32.9004 53.9989 33.1845 52.1049 33.1845C50.2261 33.1845 48.5898 32.8966 47.1958 32.3208C45.8095 31.7451 44.7261 30.8928 43.9458 29.764C43.1731 28.6276 42.7678 27.2223 42.7299 25.5481H47.4913C47.5443 26.3284 47.7678 26.9799 48.1617 27.5026C48.5632 28.0178 49.0973 28.4079 49.764 28.6731C50.4382 28.9307 51.1996 29.0595 52.0481 29.0595C52.8814 29.0595 53.6049 28.9383 54.2185 28.6958C54.8398 28.4534 55.3208 28.1163 55.6617 27.6845C56.0026 27.2526 56.1731 26.7564 56.1731 26.1958C56.1731 25.6731 56.0178 25.2337 55.7072 24.8776C55.4042 24.5216 54.9572 24.2186 54.3663 23.9686C53.7829 23.7186 53.067 23.4913 52.2185 23.2867L49.6845 22.6504C47.7223 22.1731 46.1731 21.4269 45.0367 20.4117C43.9004 19.3966 43.336 18.0292 43.3435 16.3095C43.336 14.9004 43.711 13.6693 44.4685 12.6163C45.2337 11.5633 46.2829 10.7413 47.6163 10.1504C48.9496 9.55946 50.4648 9.26401 52.1617 9.26401C53.889 9.26401 55.3966 9.55946 56.6845 10.1504C57.9799 10.7413 58.9875 11.5633 59.7072 12.6163C60.4269 13.6693 60.7981 14.889 60.8208 16.2754H56.1049ZM71.3523 33.1958C69.5568 33.1958 68.0114 32.8322 66.7159 32.1049C65.4281 31.3701 64.4356 30.3322 63.7387 28.9913C63.0417 27.6428 62.6932 26.0481 62.6932 24.2072C62.6932 22.4117 63.0417 20.836 63.7387 19.4799C64.4356 18.1239 65.4167 17.067 66.6818 16.3095C67.9546 15.5519 69.447 15.1731 71.1591 15.1731C72.3106 15.1731 73.3826 15.3587 74.375 15.7299C75.375 16.0936 76.2462 16.6428 76.9887 17.3776C77.7387 18.1125 78.322 19.0367 78.7387 20.1504C79.1553 21.2564 79.3637 22.5519 79.3637 24.0367V25.3663H64.625V22.3663H74.8068C74.8068 21.6693 74.6553 21.0519 74.3523 20.514C74.0493 19.9761 73.6288 19.5557 73.0909 19.2526C72.5606 18.942 71.9432 18.7867 71.2387 18.7867C70.5038 18.7867 69.8523 18.9572 69.2841 19.2981C68.7235 19.6314 68.2841 20.0822 67.9659 20.6504C67.6478 21.211 67.4849 21.836 67.4773 22.5254V25.3776C67.4773 26.2413 67.6364 26.9875 67.9546 27.6163C68.2803 28.2451 68.7387 28.7299 69.3296 29.0708C69.9205 29.4117 70.6212 29.5822 71.4318 29.5822C71.9697 29.5822 72.4621 29.5064 72.9091 29.3549C73.3561 29.2034 73.7387 28.9761 74.0568 28.6731C74.375 28.3701 74.6175 27.9989 74.7841 27.5595L79.2614 27.8549C79.0341 28.9307 78.5682 29.8701 77.8637 30.6731C77.1667 31.4686 76.2652 32.0898 75.1591 32.5367C74.0606 32.9761 72.7917 33.1958 71.3523 33.1958ZM89.4491 33.1958C87.6612 33.1958 86.1234 32.817 84.8355 32.0595C83.5552 31.2943 82.5703 30.2337 81.8809 28.8776C81.1991 27.5216 80.8582 25.961 80.8582 24.1958C80.8582 22.4079 81.2029 20.8398 81.8923 19.4913C82.5893 18.1352 83.5779 17.0784 84.8582 16.3208C86.1385 15.5557 87.6612 15.1731 89.4264 15.1731C90.9491 15.1731 92.2825 15.4496 93.4264 16.0026C94.5703 16.5557 95.4756 17.3322 96.1423 18.3322C96.809 19.3322 97.1764 20.5064 97.2446 21.8549H92.6764C92.5476 20.9837 92.2067 20.2829 91.6537 19.7526C91.1082 19.2148 90.3923 18.9458 89.5059 18.9458C88.7559 18.9458 88.1006 19.1504 87.54 19.5595C86.987 19.961 86.5552 20.5481 86.2446 21.3208C85.934 22.0936 85.7787 23.0292 85.7787 24.1276C85.7787 25.2413 85.9302 26.1883 86.2332 26.9686C86.5438 27.7489 86.9794 28.3436 87.54 28.7526C88.1006 29.1617 88.7559 29.3663 89.5059 29.3663C90.059 29.3663 90.5552 29.2526 90.9946 29.0254C91.4415 28.7981 91.809 28.4686 92.0968 28.0367C92.3923 27.5973 92.5855 27.0708 92.6764 26.4572H97.2446C97.1688 27.7905 96.8052 28.9648 96.1537 29.9799C95.5097 30.9875 94.6196 31.7754 93.4832 32.3436C92.3468 32.9117 91.0021 33.1958 89.4491 33.1958ZM99.384 32.8549V15.4004H104.077V18.4458H104.259C104.577 17.3625 105.111 16.5443 105.861 15.9913C106.611 15.4307 107.475 15.1504 108.452 15.1504C108.695 15.1504 108.956 15.1655 109.236 15.1958C109.517 15.2261 109.763 15.2678 109.975 15.3208V19.6163C109.748 19.5481 109.433 19.4875 109.032 19.4345C108.63 19.3814 108.263 19.3549 107.929 19.3549C107.217 19.3549 106.581 19.5102 106.02 19.8208C105.467 20.1239 105.028 20.5481 104.702 21.0936C104.384 21.639 104.225 22.2678 104.225 22.9799V32.8549H99.384ZM118.66 33.1958C116.864 33.1958 115.319 32.8322 114.023 32.1049C112.736 31.3701 111.743 30.3322 111.046 28.9913C110.349 27.6428 110.001 26.0481 110.001 24.2072C110.001 22.4117 110.349 20.836 111.046 19.4799C111.743 18.1239 112.724 17.067 113.989 16.3095C115.262 15.5519 116.754 15.1731 118.467 15.1731C119.618 15.1731 120.69 15.3587 121.683 15.7299C122.683 16.0936 123.554 16.6428 124.296 17.3776C125.046 18.1125 125.629 19.0367 126.046 20.1504C126.463 21.2564 126.671 22.5519 126.671 24.0367V25.3663H111.933V22.3663H122.114C122.114 21.6693 121.963 21.0519 121.66 20.514C121.357 19.9761 120.936 19.5557 120.398 19.2526C119.868 18.942 119.251 18.7867 118.546 18.7867C117.811 18.7867 117.16 18.9572 116.592 19.2981C116.031 19.6314 115.592 20.0822 115.273 20.6504C114.955 21.211 114.792 21.836 114.785 22.5254V25.3776C114.785 26.2413 114.944 26.9875 115.262 27.6163C115.588 28.2451 116.046 28.7299 116.637 29.0708C117.228 29.4117 117.929 29.5822 118.739 29.5822C119.277 29.5822 119.77 29.5064 120.217 29.3549C120.664 29.2034 121.046 28.9761 121.364 28.6731C121.683 28.3701 121.925 27.9989 122.092 27.5595L126.569 27.8549C126.342 28.9307 125.876 29.8701 125.171 30.6731C124.474 31.4686 123.573 32.0898 122.467 32.5367C121.368 32.9761 120.099 33.1958 118.66 33.1958ZM138.154 15.4004V19.0367H127.643V15.4004H138.154ZM130.029 11.2186H134.87V27.4913C134.87 27.9383 134.938 28.2867 135.075 28.5367C135.211 28.7792 135.401 28.9496 135.643 29.0481C135.893 29.1466 136.181 29.1958 136.507 29.1958C136.734 29.1958 136.961 29.1769 137.188 29.139C137.416 29.0936 137.59 29.0595 137.711 29.0367L138.473 32.639C138.23 32.7148 137.889 32.8019 137.45 32.9004C137.01 33.0064 136.476 33.0708 135.848 33.0936C134.681 33.139 133.658 32.9837 132.779 32.6276C131.908 32.2716 131.23 31.7186 130.745 30.9686C130.26 30.2186 130.022 29.2716 130.029 28.1276V11.2186Z" fill="#4F62FC"/>
<path d="M14.0261 34.8549V28.3095H16.6085C17.1049 28.3095 17.5279 28.4043 17.8773 28.5939C18.2267 28.7814 18.4931 29.0424 18.6763 29.3769C18.8617 29.7093 18.9543 30.0928 18.9543 30.5275C18.9543 30.9622 18.8606 31.3457 18.6731 31.6781C18.4856 32.0105 18.2139 32.2693 17.8581 32.4547C17.5044 32.6401 17.0761 32.7328 16.5733 32.7328H14.9274V31.6237H16.3496C16.6159 31.6237 16.8354 31.5779 17.008 31.4863C17.1827 31.3926 17.3127 31.2637 17.3979 31.0996C17.4852 30.9334 17.5289 30.7427 17.5289 30.5275C17.5289 30.3102 17.4852 30.1205 17.3979 29.9586C17.3127 29.7945 17.1827 29.6678 17.008 29.5783C16.8332 29.4867 16.6117 29.4409 16.3432 29.4409H15.41V34.8549H14.0261ZM21.9035 34.8549H19.5832V28.3095H21.9227C22.5811 28.3095 23.1479 28.4405 23.623 28.7026C24.0981 28.9625 24.4636 29.3365 24.7192 29.8244C24.977 30.3123 25.106 30.8961 25.106 31.5758C25.106 32.2576 24.977 32.8436 24.7192 33.3336C24.4636 33.8237 24.096 34.1997 23.6166 34.4618C23.1393 34.7239 22.5683 34.8549 21.9035 34.8549ZM20.9671 33.6692H21.846C22.2551 33.6692 22.5992 33.5968 22.8783 33.4519C23.1596 33.3048 23.3705 33.0779 23.5111 32.7711C23.6539 32.4622 23.7253 32.0637 23.7253 31.5758C23.7253 31.0921 23.6539 30.6969 23.5111 30.3901C23.3705 30.0833 23.1606 29.8574 22.8815 29.7125C22.6024 29.5676 22.2583 29.4952 21.8492 29.4952H20.9671V33.6692ZM25.8611 34.8549V28.3095H30.1949V29.4504H27.245V31.0101H29.9072V32.1511H27.245V34.8549H25.8611Z" fill="white"/>
</svg>
